<svg width="89" height="85" viewBox="0 0 89 85" fill="none" xmlns="http://www.w3.org/2000/svg">
<path d="M79.795 29.1205C79.7145 31.6402 78.784 34.0581 77.1557 35.9795C76.0133 37.4125 74.7853 38.7966 74.4615 40.695C74.2706 41.5816 74.27 42.4988 74.4596 43.3856C74.6492 44.2725 75.0247 45.1089 75.5612 45.8392C76.9999 47.5904 78.3263 49.4313 79.5323 51.3509C80.3386 52.6493 80.8682 54.1008 81.0879 55.6143C81.3077 57.1277 81.2128 58.6703 80.8092 60.1452C80.015 63.0419 78.8542 65.81 76.5876 67.8064C73.3923 70.6296 69.7816 72.7914 65.4133 73.3181C65.2925 73.3211 65.1749 73.3575 65.0735 73.4235C64.9721 73.4894 64.8909 73.5823 64.839 73.6917C64.1397 75.0036 63.141 76.1313 61.9242 76.9827C60.7075 77.8341 59.3072 78.3852 57.8376 78.5909C55.5629 78.9941 53.2653 79.2538 50.9583 79.3687C50.885 79.3687 50.8055 79.3687 50.7383 79.3687C49.6753 79.4789 49.6631 79.4851 49.8708 80.5139C49.9919 80.9595 50.0065 81.4273 49.9136 81.8796C49.5348 83.3494 48.4534 83.8393 47.1521 83.0738C46.8833 82.9146 46.7916 82.8656 46.6083 83.1718C45.6919 84.7028 44.4945 85.2111 42.741 84.9232C42.2417 84.8759 41.764 84.6961 41.357 84.4022C40.95 84.1084 40.6285 83.7111 40.4255 83.2514C40.2972 82.9635 40.2117 82.7982 39.8574 83.0615C39.5627 83.306 39.1921 83.4398 38.8096 83.4398C38.4271 83.4398 38.0565 83.306 37.7618 83.0615C37.47 82.8165 37.2491 82.4974 37.1223 82.1376C36.9955 81.7778 36.9673 81.3905 37.0409 81.0161C37.0687 80.8469 37.1055 80.6793 37.1509 80.5139C37.3464 79.4238 37.3402 79.4177 36.2039 79.3503C33.6532 79.2421 31.1145 78.9391 28.6098 78.444C27.2734 78.1893 26.0093 77.6431 24.907 76.8441C23.8047 76.045 22.8913 75.0127 22.2315 73.8203C22.0849 73.563 21.9627 73.3426 21.6205 73.312C19.0681 73.0023 16.6195 72.1143 14.4602 70.7154C13.0997 69.953 11.8185 69.0565 10.6357 68.0391C9.30238 66.7741 8.2293 65.2594 7.47709 63.5808C6.51195 61.7083 5.94013 59.6574 5.79698 57.5546C5.70534 54.7927 6.7745 52.3798 8.24077 50.0955C9.24884 48.5277 10.5807 47.2111 11.5888 45.6617C13.1528 43.2549 13.0856 40.7624 11.5888 38.3127C10.9778 37.2961 10.1775 36.3836 9.46877 35.4283C7.88561 33.4655 7.09621 30.978 7.25714 28.4591C7.48664 26.2643 8.19363 24.1466 9.32826 22.2554C9.49254 22.0118 9.57591 21.7225 9.56652 21.4286C9.38323 18.8442 10.8556 17.105 12.6213 15.574C14.6068 13.8653 16.513 12.1139 17.8082 9.77446C18.8426 7.79483 20.4086 6.1445 22.3292 5.00989C22.6109 4.82596 22.8386 4.57022 22.9891 4.2689C23.787 3.05698 24.9393 2.12213 26.2882 1.59263C28.3435 0.623285 30.5736 0.0816385 32.8437 0.00038312C34.0619 -0.00800664 35.2773 0.121421 36.4666 0.386204C38.2825 0.736307 40.068 1.2298 41.8063 1.8621C42.9146 2.0213 44.0399 2.0213 45.1482 1.8621C47.7032 0.90908 50.3747 0.305534 53.0905 0.0677392C56.3392 -0.116106 59.5619 0.741898 62.2914 2.51738C63.0935 2.95663 63.7226 3.65637 64.0753 4.50158C64.1487 4.70368 64.3442 4.77106 64.5091 4.86905C66.4259 6.01157 68.0019 7.64844 69.0729 9.60909C70.4165 11.8561 72.1674 13.8313 74.2354 15.4331C75.665 16.6579 76.9358 17.993 77.3207 19.9404C77.363 20.0542 77.3857 20.1743 77.3879 20.2957C77.1741 21.5511 77.8278 22.5493 78.3349 23.6026C79.198 25.3205 79.6952 27.1996 79.795 29.1205V29.1205ZM43.4986 13.8102L43.1015 14.392C40.4316 18.1645 37.0775 20.8774 32.2938 21.2939C31.8579 21.3311 31.439 21.4809 31.0781 21.7289C30.7173 21.9769 30.4267 22.3144 30.2349 22.7086C29.8946 23.2808 29.6393 23.8997 29.4773 24.5458C29.2588 25.7266 29.1951 26.931 29.2879 28.1284C29.3064 29.2925 28.9075 30.4247 28.1638 31.319C27.7483 31.809 27.4368 32.1948 27.8339 32.8255C27.9194 32.9664 27.9744 33.2359 27.73 33.3338C27.4856 33.4318 27.3818 33.2236 27.2963 33.046C26.9911 32.4814 26.5167 32.0272 25.9399 31.7477C24.8647 31.1353 23.9666 31.4783 23.5878 32.6663C23.3989 33.1444 23.3121 33.6568 23.3331 34.1705C23.3542 34.6843 23.4826 35.1879 23.71 35.6488C24.4859 37.0941 25.219 38.5577 25.9705 40.0153C26.1813 40.4091 26.5227 40.7167 26.9358 40.8849C27.4506 41.107 27.9932 41.2574 28.5487 41.3319C28.7476 41.3397 28.9361 41.4232 29.0758 41.5654C29.2154 41.7077 29.2956 41.8979 29.3002 42.0974C29.4345 43.7083 29.848 45.2833 30.5221 46.7518C31.6096 49.2688 33.1247 51.5408 35.6724 52.7044C38.3629 54.0354 41.344 54.6671 44.3417 54.5416C46.5239 54.322 48.6682 53.8176 50.72 53.0412C52.2535 52.5206 53.3776 51.3938 54.4224 50.1568C56.2092 47.9734 57.3369 45.3239 57.6726 42.52C57.7826 41.8157 57.9475 41.4177 58.7112 41.2952C59.6337 41.1237 60.5929 40.9216 61.0939 39.9356C61.7537 38.6251 62.4136 37.3145 63.1223 36.0285C63.6561 35.1023 63.8115 34.0049 63.556 32.9664C63.2872 31.7783 62.4624 31.1843 61.4544 31.5701C60.6918 31.8057 60.0515 32.3311 59.6704 33.0338C59.5788 33.2175 59.4627 33.4074 59.2244 33.2787C58.9861 33.1501 59.0778 32.9725 59.1389 32.8194C59.2916 32.4337 59.4671 32.0575 59.6643 31.6926C59.7987 31.4415 59.8354 31.2639 59.5788 31.0802C58.3569 30.1248 57.862 28.7408 57.5382 27.2832C57.2877 25.9352 56.8902 24.6188 56.353 23.3577C55.7726 22.1329 55.07 21.3 53.5182 21.0918C49.8525 20.6141 47.1826 18.4278 44.8671 15.7209C44.3967 15.133 43.9874 14.4716 43.4986 13.7919V13.8102ZM28.3654 67.8248C28.1027 67.39 27.8705 67.4083 27.675 67.4696C26.8382 67.661 25.9649 67.6165 25.1518 67.341C22.7097 66.7633 20.5564 65.3243 19.0851 63.2868C17.9795 61.8953 17.3823 60.1664 17.3928 58.3876C17.368 56.0471 18.0705 53.7569 19.4028 51.8348C22.2376 47.8235 21.5655 43.7999 19.4944 39.7458C18.798 38.3985 17.6005 37.5166 16.6108 36.451C15.7654 35.5928 15.2008 34.497 14.9917 33.3094C14.841 32.1246 14.8308 30.9262 14.9612 29.739C15.1811 26.3891 16.959 23.9211 19.5005 22.0471C21.0152 20.8816 22.7509 20.0378 24.6017 19.5671C26.4526 19.0964 28.3797 19.0089 30.2655 19.3097C35.153 20.0691 40.0406 16.9886 42.2095 13.0753C42.3622 12.7936 42.741 12.4629 42.3378 12.1016C42.1812 11.9285 41.9755 11.8075 41.7484 11.755C41.5212 11.7025 41.2835 11.7208 41.067 11.8077C40.6122 12.0239 40.1987 12.3182 39.8451 12.6773C39.4398 13.0677 38.9437 13.3506 38.4017 13.5003C37.8598 13.65 37.2892 13.6618 36.7415 13.5346C35.5196 13.2652 34.2977 12.9222 33.0758 12.5425C30.6764 11.766 28.0807 11.8614 25.7444 12.812C23.8261 13.5959 22.0116 14.6492 20.0015 15.1943C19.7633 15.2616 19.5311 15.4821 19.2195 15.2494C19.2849 15.1495 19.3584 15.0553 19.4394 14.9677C21.1957 13.342 23.2789 12.112 25.5489 11.3606C27.5377 10.5944 29.7011 10.4034 31.7928 10.8094C33.4668 11.1585 35.0736 11.7158 36.7354 12.1016C37.0645 12.1748 37.4053 12.1766 37.7351 12.1068C38.065 12.0371 38.3761 11.8975 38.6477 11.6974C39.7535 10.9992 40.7371 9.86017 42.3683 10.4726C42.0991 9.74956 41.6711 9.09653 41.1159 8.56186C39.5885 6.82874 37.9451 5.21199 35.6846 4.4771C32.3761 3.32726 28.7542 3.48939 25.5612 4.93027C22.8974 6.12447 20.6247 7.75962 19.1523 10.3807C18.3793 11.8266 17.4018 13.1529 16.2503 14.3185C15.0284 15.5066 13.6293 16.5109 12.4808 17.7848C11.8329 18.4234 11.3686 19.2252 11.1367 20.1058C12.9495 18.7384 14.9743 17.6791 17.1301 16.9703C15.841 18.0542 14.7779 19.377 13.3666 20.3079C12.6448 20.719 11.9845 21.2303 11.4055 21.8267C10.567 22.8782 9.90842 24.062 9.45655 25.3296C8.11858 28.655 8.44237 31.7844 10.6174 34.6628C11.3688 35.6549 12.1692 36.6102 12.8473 37.6575C13.6673 38.952 14.1027 40.4538 14.1027 41.9872C14.1027 43.5206 13.6673 45.0224 12.8473 46.3169C11.6621 48.0807 10.1591 49.5995 9.07777 51.4428C7.76423 53.6659 6.85392 55.9563 7.34268 58.5958C7.82916 61.6567 9.22849 64.4983 11.3566 66.7469C12.4858 67.7909 13.7372 68.6937 15.0834 69.4354C16.8882 70.6041 18.9 71.4149 21.0096 71.8238C21.3762 71.8912 21.7488 72.0504 21.9505 71.4747C22.5309 69.8519 23.3007 69.4538 25.0052 69.7845C25.3595 69.858 25.5734 69.9253 25.494 69.3681C25.3046 68.1126 25.7933 67.6227 27.0824 67.6165C27.5179 67.6029 27.9524 67.6672 28.3654 67.8064V67.8248ZM67.8938 15.3351C67.57 15.4637 67.3622 15.2984 67.1362 15.231C65.0345 14.6186 63.165 13.4795 61.1184 12.7814C59.5568 12.1477 57.8603 11.9222 56.188 12.1261C54.653 12.3908 53.1398 12.7695 51.6609 13.2591C49.8708 13.8041 48.2151 13.9082 46.8099 12.3894C46.5787 12.1737 46.3121 11.9997 46.0218 11.875C45.8012 11.764 45.5503 11.7284 45.3076 11.7737C45.0649 11.8191 44.8437 11.9428 44.6777 12.1261C44.244 12.5242 44.6777 12.861 44.8244 13.1611C47.0116 17.0682 51.8869 20.1303 56.7989 19.3403C57.9274 19.1279 59.0826 19.0989 60.2203 19.2545C63.7638 19.8057 66.904 21.0428 69.3845 23.7864C71.8649 26.53 72.3965 29.5675 72.0788 32.9725C72.0019 33.7427 71.7727 34.4897 71.4045 35.1701C71.0363 35.8504 70.5365 36.4503 69.9343 36.9348C68.0728 38.5249 66.7687 40.6713 66.2137 43.0589C65.7738 44.7859 65.4194 46.5313 65.9143 48.3256C66.4333 49.8527 67.1436 51.3076 68.0282 52.6554C69.3992 54.8509 69.9046 57.4798 69.4456 60.0288C68.8346 62.9439 66.9346 64.9281 64.4175 66.3611C62.8716 67.3276 61.0317 67.7077 59.2305 67.4328C59.0656 67.4328 58.8273 67.3716 58.809 67.7084C59.0839 67.7084 59.3466 67.6349 59.6032 67.6227C61.3016 67.5614 61.5949 67.8186 61.601 69.4966C61.601 70.1397 61.9737 69.7722 62.1631 69.7355C63.5988 69.4538 64.7596 70.0356 65.0956 71.3523C65.2361 71.9157 65.5294 71.9341 65.9326 71.8544C69.5556 71.1685 72.6531 69.3558 75.3962 67.0164C77.5162 65.2281 78.5976 62.7295 79.3979 60.1452C79.8036 58.7891 79.9131 57.3613 79.7192 55.959C79.5252 54.5567 79.0322 53.2127 78.2738 52.0185C77.1686 50.2406 75.9439 48.5403 74.6081 46.9294C73.8504 45.9863 73.3209 44.8801 73.0612 43.6975C72.8015 42.5149 72.8186 41.2881 73.1113 40.1132C73.4962 38.325 74.5714 36.892 75.7078 35.5018C77.2963 33.5727 78.451 31.4537 78.341 28.851C78.2414 27.4104 77.8834 25.9997 77.284 24.6866C76.6731 23.2475 75.9522 21.8267 74.5898 20.9448C73.243 20.0176 71.9759 18.979 70.8019 17.8399L69.8549 16.9886C71.9857 17.6461 73.9881 18.6652 75.775 20.0017C75.8095 19.9061 75.8198 19.8035 75.8048 19.703C75.7899 19.6025 75.7503 19.5074 75.6895 19.426C75.0785 18.0481 73.9788 17.0927 72.8791 16.1802C71.0106 14.7237 69.4261 12.9341 68.2054 10.9013C67.1124 8.8707 65.499 7.16897 63.5316 5.97138C61.8089 4.872 59.8722 4.15317 57.8506 3.86278C55.829 3.57239 53.7689 3.71709 51.8075 4.28725C49.3271 4.9854 47.5309 6.67565 45.8935 8.53738C45.3362 9.08943 44.9011 9.75299 44.6166 10.4848C45.091 10.308 45.6052 10.2677 46.1012 10.3685C47.0482 10.5767 47.6836 11.281 48.4656 11.7403C48.6981 11.9107 48.9618 12.0336 49.2417 12.1019C49.5216 12.1702 49.8122 12.1826 50.0968 12.1384C50.6223 12.0281 51.1416 11.8811 51.6548 11.728C53.3362 11.1552 55.0758 10.7711 56.8417 10.5828C58.8261 10.5257 60.7953 10.9456 62.5846 11.8077C64.5986 12.5553 66.4148 13.7557 67.8938 15.3168V15.3351ZM28.1027 20.6753C27.5676 20.6417 27.031 20.6417 26.4959 20.6753C25.2673 20.8772 24.066 21.2203 22.9157 21.6981C20.3901 22.6819 18.3238 24.5784 17.1239 27.0138C16.1953 28.7898 16.1526 30.7433 16.2992 32.6724C16.3888 33.6802 16.82 34.6269 17.5211 35.3548C18.0648 35.9672 18.688 36.451 19.2317 37.0206C20.6202 38.5446 21.6053 40.3933 22.0971 42.3975C22.7153 44.2588 22.8725 46.2429 22.5553 48.1787C22.1704 50.0159 21.199 51.6204 20.2276 53.2004C19.1773 54.8669 18.683 56.8251 18.8163 58.7917C18.9996 61.5353 20.6491 63.4583 22.8791 64.9158C24.1109 65.7404 25.5648 66.1677 27.0458 66.1406C26.9663 65.9814 26.9358 65.8957 26.8869 65.81C26.8411 65.7243 26.7858 65.6442 26.722 65.5711C25.3229 64.2667 24.5959 62.5519 23.9116 60.8249C23.4733 59.9989 23.2884 59.0614 23.3801 58.1303C23.6484 56.6333 24.0575 55.1652 24.602 53.7455C24.7058 53.4944 24.7791 53.1943 25.1701 53.0657C25.048 53.8925 24.8647 54.6457 24.7547 55.4112C24.1987 59.2388 25.6772 62.3253 28.1516 65.0751C28.3104 65.2527 28.4937 65.4792 28.7625 65.4057C29.7918 65.1687 30.8713 65.2964 31.8173 65.7671C31.6951 65.1547 31.579 64.5422 31.4812 63.985C31.2918 62.8091 31.9639 61.8538 32.8498 62.111C33.3691 62.2641 33.3691 62.0375 33.4118 61.7007C33.8043 59.2141 33.7464 56.6769 33.2408 54.2109C33.0636 53.4454 33.0697 52.588 32.4282 51.9879C30.2742 49.8959 28.8224 47.1843 28.2738 44.2286C28.0355 43.1018 27.6934 42.3301 26.4409 42.2444C26.3065 42.2444 26.1843 42.0239 26.0499 42.1403C25.9155 42.2567 25.9827 42.4587 26.0133 42.6302C26.4086 44.8622 26.3692 47.1498 25.8972 49.3667C25.8361 49.6913 25.8544 50.0955 25.5062 50.3343C25.2618 50.0404 25.3412 49.7219 25.3229 49.4035C25.2374 47.9398 25.3656 46.47 25.219 45.0002C24.8616 41.8289 23.8993 38.7559 22.3842 35.9488C22.0738 35.4168 21.9212 34.8071 21.9443 34.1912C22.0404 32.4538 22.4807 30.7529 23.2395 29.1878C23.9227 28.0826 24.2962 26.8133 24.3209 25.5134C24.3209 25.2745 24.2721 24.901 24.6447 24.901C25.0174 24.901 24.9013 25.2561 24.9441 25.5134C25.1187 26.9107 24.8357 28.327 24.1376 29.5492C24.0521 29.7268 23.82 29.9656 24.0888 30.1248C24.2061 30.195 24.345 30.2194 24.4791 30.1934C24.6132 30.1674 24.733 30.0929 24.8158 29.984C24.9591 29.7956 25.0781 29.5898 25.1701 29.3716C25.4681 28.5358 25.5439 27.6367 25.3901 26.7627C25.273 25.9976 25.3094 25.2167 25.4972 24.4659C25.685 23.7151 26.0204 23.0094 26.4837 22.3901C26.6975 22.1145 26.5875 21.6368 27.0946 21.5327C27.5081 21.3447 27.8583 21.0405 28.1027 20.657V20.6753ZM59.2611 20.6753C59.8944 21.1857 60.4287 21.8085 60.8373 22.5126C61.4502 23.5701 62.1731 24.5596 62.994 25.4644C63.8246 26.3636 64.4565 27.4284 64.8481 28.5893C65.2398 29.7502 65.3824 30.9809 65.2667 32.2009C65.1784 34.1006 64.7022 35.9619 63.8676 37.6697C62.8902 39.6468 62.2441 41.7717 61.9553 43.9592C61.656 45.8454 61.7965 47.7255 61.6988 49.6056C61.6988 49.8812 61.7904 50.218 61.5399 50.4323C61.2833 50.3527 61.2955 50.1139 61.2589 49.9547C60.6648 47.5494 60.5795 45.0461 61.0084 42.6057C61.0389 42.4404 61.1184 42.2506 60.9717 42.1219C60.8251 41.9933 60.7151 42.177 60.5868 42.2199C60.4319 42.2949 60.2674 42.3485 60.0981 42.3792C59.2916 42.4159 59.0717 42.8936 58.9128 43.6346C58.2164 46.7824 57.0494 49.7036 54.6362 51.9572C54.3718 52.2101 54.1888 52.5364 54.1108 52.8942C53.8277 54.0776 53.6236 55.2785 53.4998 56.4891C53.3794 58.2169 53.4306 59.9524 53.6526 61.6701C53.6526 62.0375 53.7014 62.3131 54.2635 62.0865C54.3737 62.046 54.4909 62.0279 54.6082 62.0335C54.7254 62.0391 54.8404 62.0681 54.9463 62.1189C55.0522 62.1697 55.1469 62.2412 55.2248 62.3293C55.3027 62.4173 55.3622 62.5201 55.3999 62.6315C55.6419 63.1456 55.698 63.728 55.5587 64.2789C55.461 64.7444 55.3693 65.2098 55.2594 65.7548C56.0913 65.3148 57.0447 65.162 57.972 65.32C58.1563 65.3698 58.3511 65.3645 58.5324 65.3047C58.7137 65.2448 58.8736 65.1331 58.9923 64.9832C60.1411 63.8131 61.0338 62.4156 61.6132 60.88C62.4019 59.1052 62.6402 57.1337 62.2975 55.2214C62.1631 54.511 62.0531 53.7945 61.9309 53.0841C64.9246 57.9405 63.4888 62.1661 60.0064 66.1223C60.688 66.1034 61.3658 66.0131 62.0287 65.8528C63.7963 65.3293 65.3642 64.2809 66.5252 62.8459C67.6843 61.5618 68.2942 59.8729 68.2237 58.1426C68.1254 56.0605 67.4528 54.0465 66.2809 52.3247C65.0334 50.6149 64.3384 48.5632 64.2892 46.4456C64.3511 43.6559 65.1433 40.9316 66.5863 38.5455C66.9692 37.8044 67.5093 37.1564 68.1687 36.647C68.9979 36.0815 69.6705 35.3146 70.1237 34.4178C71.2295 32.1703 70.9607 29.8002 70.1237 27.5833C69.6202 26.2654 68.8445 25.0691 67.8474 24.0728C66.8503 23.0765 65.6544 22.3027 64.3381 21.8022C62.7985 21.1714 61.2161 20.5467 59.2611 20.6692V20.6753ZM34.7071 53.8557C34.6521 53.9904 34.6154 54.0394 34.6215 54.0762C35.1449 56.6653 35.1864 59.3292 34.7437 61.9334C34.5727 63.048 34.591 64.0462 35.5135 64.8668C35.7604 65.1692 35.9831 65.4907 36.1794 65.8283C37.2852 67.2246 38.2689 68.7679 40.1506 69.2701C40.5416 67.7023 41.5741 67.1327 43.1626 67.6227C43.3615 67.6848 43.5746 67.6848 43.7735 67.6227C45.4353 67.1266 46.3578 67.6227 46.8588 69.2884C47.9259 68.8854 48.8695 68.2099 49.5959 67.3287C50.4573 66.2937 51.166 65.1547 52.0397 64.1258C52.1917 63.9503 52.2998 63.7409 52.355 63.5151C52.4102 63.2894 52.4111 63.0537 52.3574 62.8275C52.1059 61.3113 51.9731 59.7776 51.9602 58.2405C51.968 56.741 52.107 55.2451 52.3757 53.77C51.055 54.4883 49.6241 54.9809 48.1418 55.2275C46.7445 55.6451 45.3135 55.9402 43.8652 56.1094C42.2706 56.1951 40.8104 55.7113 39.2892 55.3377C37.7679 54.9642 36.1367 54.6702 34.7071 53.8557ZM54.1352 63.9972C53.6205 64.3961 53.1782 64.8809 52.8278 65.4303C51.93 66.8274 50.8742 68.1158 49.6814 69.2701C49.3026 69.6069 49.0277 69.8825 49.4798 70.3846C49.5567 70.4958 49.6068 70.6235 49.6259 70.7574C49.6449 70.8914 49.6326 71.028 49.5898 71.1563C49.437 71.683 49.5531 71.8789 50.2007 71.9463C51.5937 72.0933 52.1985 73.0793 51.7464 74.2306C51.5446 74.6509 51.245 75.0163 50.8728 75.2962C50.6162 75.5228 50.5795 75.6759 50.8728 75.9086C51.3078 76.2763 51.5837 76.7988 51.6425 77.3661C51.6853 77.8928 51.9114 77.9173 52.3696 77.8438C53.4265 77.6723 54.4957 77.5988 55.5526 77.4702C57.1961 77.2681 58.8578 77.1212 60.3302 76.2454C61.6804 75.4493 62.9695 74.5674 63.611 73.0364C63.7497 72.776 63.8166 72.4832 63.8048 72.1882C63.793 71.8933 63.7029 71.6068 63.5438 71.3584C63.1772 70.8807 62.6152 71.1073 62.1081 71.2175C61.5132 71.4306 60.9352 71.6886 60.3791 71.9892C59.9698 72.1484 59.5604 72.2341 59.2305 71.8606C58.9006 71.487 59.1389 71.1379 59.3466 70.8011C59.5543 70.4642 59.8231 70.0539 60.0187 69.6681C60.2875 69.1231 60.1653 68.9516 59.5604 69.0557C58.8587 69.1616 58.1818 69.394 57.5626 69.7416C57.4209 69.8617 57.2378 69.9212 57.0528 69.9075C56.8677 69.8938 56.6954 69.8078 56.5729 69.6681C56.4321 69.5305 56.3492 69.344 56.3412 69.1469C56.3333 68.9499 56.4009 68.7573 56.5301 68.6087C56.7806 68.2167 57.0372 67.8309 57.2572 67.4206C57.361 67.2246 57.6237 66.9919 57.4221 66.7714C57.2205 66.551 56.9517 66.6612 56.7256 66.7347C55.9195 66.9602 55.181 67.3808 54.5751 67.9595C54.2146 68.3086 53.8297 68.5719 53.3532 68.2045C52.8767 67.837 53.0722 67.5002 53.2493 67.096C53.6656 66.0954 53.9629 65.0491 54.1352 63.9789V63.9972ZM32.9353 64.0401C33.0841 65.1808 33.4119 66.2907 33.9067 67.3287C33.98 67.4561 34.0083 67.6045 33.9873 67.75C33.9662 67.8955 33.897 68.0297 33.7906 68.131C33.6782 68.2477 33.531 68.3245 33.3712 68.3499C33.2114 68.3754 33.0477 68.3479 32.9048 68.2718C32.7332 68.1828 32.5799 68.0623 32.4527 67.9166C31.8314 67.362 31.0915 66.9577 30.2899 66.7347C30.07 66.6735 29.7584 66.5938 29.6056 66.8082C29.4529 67.0225 29.685 67.2246 29.7828 67.4206C29.9844 67.7819 30.241 68.1126 30.4304 68.4801C30.6198 68.8475 30.9742 69.2088 30.5343 69.6681C30.0944 70.1274 29.7461 69.9253 29.3429 69.6681C28.7605 69.3605 28.1306 69.1535 27.4795 69.0557C27.2962 69.0557 27.0641 68.9761 26.9297 69.1476C26.7953 69.319 26.9297 69.5273 27.0396 69.6865C27.2657 70.0907 27.5162 70.4826 27.7484 70.8807C27.9805 71.2788 28.1271 71.536 27.8217 71.8851C27.6923 72.0195 27.523 72.1083 27.339 72.1381C27.155 72.168 26.9664 72.1372 26.8014 72.0504C26.3938 71.888 25.9978 71.6977 25.6161 71.4809C25.2255 71.2804 24.8005 71.1557 24.3637 71.1134C23.6306 71.0277 23.3373 71.3094 23.3006 72.0565C23.2586 72.5212 23.361 72.9876 23.5939 73.3916C24.5773 74.9545 26.0617 76.1358 27.8033 76.7415C29.8928 77.5437 32.1533 77.4213 34.3283 77.7948C35.0064 77.9112 35.4463 77.9356 35.483 77.0783C35.5059 76.8315 35.6165 76.6011 35.7946 76.4291C36.5521 75.7677 36.2467 75.3329 35.6418 74.7389C35.4153 74.562 35.2448 74.3231 35.1509 74.0511C35.0571 73.779 35.044 73.4856 35.1132 73.2062C35.1824 72.9269 35.3309 72.6737 35.5407 72.4772C35.7506 72.2807 36.0128 72.1495 36.2955 72.0994C37.2119 71.8728 37.6885 71.5911 37.4624 70.5929C37.4632 70.4466 37.5201 70.3063 37.6213 70.2009C37.9268 69.8702 37.7618 69.6681 37.493 69.4232C36.3493 68.36 35.3417 67.1587 34.4932 65.8467C34.0805 65.1545 33.5538 64.5374 32.9353 64.0217V64.0401ZM37.7923 73.3181H37.2792C37.0164 73.3181 36.6682 73.3181 36.6132 73.6121C36.5582 73.906 36.7904 74.0346 37.0164 74.1693C37.2425 74.3041 37.6274 74.5613 37.9329 74.7817C38.0615 74.84 38.173 74.9306 38.2564 75.0447C38.3398 75.1588 38.3924 75.2927 38.409 75.4332C38.4256 75.5737 38.4056 75.7161 38.3511 75.8466C38.2966 75.9771 38.2093 76.0913 38.0978 76.1781C37.9573 76.3128 37.7679 76.3985 37.6335 76.5333C37.273 76.8885 36.6987 77.2069 36.8576 77.7581C37.0164 78.3092 37.6579 78.0459 38.0795 78.0643C39.0876 78.1194 39.3808 78.5174 38.9409 79.4116C38.7133 79.9504 38.5473 80.5133 38.4461 81.0896C38.3913 81.2406 38.3893 81.4059 38.4403 81.5583C38.4914 81.7107 38.5925 81.8412 38.7271 81.9286C39.002 82.0817 39.222 81.8183 39.4114 81.6346C39.7107 81.3468 40.0223 81.0222 40.2972 80.7589C40.8349 80.2628 41.3542 80.3914 41.5619 81.0957C41.6325 81.4296 41.6572 81.7717 41.6352 82.1123C41.6105 82.4352 41.7101 82.7554 41.9134 83.0071C42.1168 83.2588 42.4085 83.4228 42.7288 83.4657C43.2326 83.5698 43.7523 83.5698 44.2562 83.4657C44.4163 83.4511 44.5721 83.405 44.7144 83.3299C44.8567 83.2549 44.9829 83.1524 45.0856 83.0283C45.1884 82.9043 45.2657 82.7612 45.3131 82.6071C45.3605 82.4531 45.3771 82.2912 45.362 82.1307C45.362 81.8612 45.362 81.5856 45.362 81.3223C45.3675 81.1355 45.4287 80.9547 45.5375 80.803C45.6464 80.6513 45.798 80.5357 45.9729 80.471C46.3395 80.3608 46.5839 80.569 46.8405 80.863C47.0321 81.1176 47.256 81.3461 47.5064 81.5428C47.7386 81.7265 47.9769 82.1 48.3007 81.8979C48.6245 81.6958 48.6 81.3284 48.5267 80.961C48.4026 80.3633 48.2163 79.7804 47.9707 79.2217C47.6836 78.5726 47.9707 78.1133 48.6917 78.0765C49.0094 78.0765 49.3026 78.0765 49.6447 78.0765C49.8708 78.0765 50.1091 78.0765 50.1946 77.807C50.2262 77.7001 50.2282 77.5866 50.2002 77.4787C50.1722 77.3708 50.1153 77.2725 50.0358 77.1946C49.7387 76.8724 49.4136 76.5773 49.0643 76.3128C48.3495 75.7861 48.4167 75.1431 49.1804 74.696C49.5164 74.5001 49.8341 74.2734 50.1518 74.0468C50.2466 74.0176 50.3259 73.9518 50.3723 73.864C50.4188 73.7761 50.4284 73.6734 50.3993 73.5784C50.3701 73.4834 50.3045 73.4038 50.2168 73.3573C50.1292 73.3108 50.0267 73.3011 49.9319 73.3303C49.3978 73.2761 48.8588 73.2988 48.3312 73.3977C48.1312 73.4612 47.916 73.4573 47.7185 73.3865C47.521 73.3157 47.3521 73.182 47.2376 73.0058C46.9443 72.62 47.2376 72.3137 47.4453 72.0198C47.6109 71.804 47.7905 71.5994 47.983 71.4074C48.264 71.0767 48.1724 70.8684 47.7569 70.7949C47.2673 70.7343 46.771 70.8308 46.3395 71.0705C45.9485 71.2849 45.5697 71.5666 45.1176 71.1808C44.6655 70.7949 44.9588 70.3724 45.0626 69.9559C45.1007 69.8661 45.1333 69.7741 45.1604 69.6804C45.1909 69.4538 45.4292 69.2211 45.1604 69.0006C45.0589 68.9087 44.9313 68.8509 44.7954 68.8356C44.6595 68.8202 44.5222 68.8479 44.4028 68.9149C43.7247 69.3864 43.1443 69.2395 42.4478 68.9149C41.7513 68.5903 41.5375 68.9884 41.7391 69.6436C41.8343 69.8942 41.9159 70.1497 41.9834 70.4092C42.0323 70.6909 42.1118 71.0216 41.8063 71.2114C41.6754 71.3056 41.5183 71.3563 41.3572 71.3563C41.1961 71.3563 41.0391 71.3056 40.9082 71.2114C40.5678 70.971 40.1731 70.8195 39.7596 70.7705C39.4419 70.7398 39.002 70.5929 38.831 70.9726C38.6599 71.3523 39.0937 71.4441 39.2647 71.6646C39.3442 71.7626 39.4419 71.8361 39.5152 71.9341C39.7413 72.2403 39.9551 72.5465 39.6985 72.9323C39.5978 73.1043 39.443 73.2379 39.2583 73.3122C39.0736 73.3865 38.8696 73.3972 38.6782 73.3426C38.3853 73.2963 38.0883 73.2819 37.7923 73.2997V73.3181ZM59.1755 2.59699C57.4602 1.78059 55.5748 1.3879 53.677 1.45179C51.0019 1.62304 48.3677 2.19699 45.863 3.15431C45.2442 3.37738 44.6872 3.74472 44.2378 4.22603C44.1566 4.34984 44.046 4.45146 43.9159 4.5218C43.7858 4.59214 43.6403 4.62897 43.4925 4.62897C43.3447 4.62897 43.1992 4.59214 43.0691 4.5218C42.939 4.45146 42.8283 4.34984 42.7471 4.22603C42.3692 3.77546 41.8807 3.43141 41.3297 3.22779C38.165 2.17445 34.9759 1.17008 31.5546 1.56202C30.2509 1.68962 28.9795 2.04401 27.7972 2.60925C30.0527 2.1789 32.3714 2.20807 34.6154 2.695C37.4401 3.35681 39.9577 4.95861 41.7574 7.23907C42.2963 7.83706 42.8041 8.46255 43.2787 9.11304C43.4009 9.30289 43.5414 9.41925 43.7124 9.14979C44.6349 7.77978 45.7409 6.54339 46.9993 5.47533C48.0822 4.48804 49.3457 3.7206 50.72 3.21553C53.4327 2.26714 56.3458 2.04757 59.1694 2.57864L59.1755 2.59699ZM56.3285 21.3429C56.7915 21.9509 57.2003 22.5985 57.5504 23.2781C58.1055 24.5293 58.5154 25.8403 58.7723 27.1853C59.0093 28.2663 59.4947 29.277 60.1897 30.1371C60.3486 30.3269 60.4769 30.5903 60.9534 30.5106C59.927 29.3471 59.7315 27.9691 59.4993 26.6035C59.4382 26.1993 59.0106 25.5134 59.5665 25.3786C60.1225 25.2439 60.0553 26.04 60.1775 26.4442C60.4177 27.5191 60.7848 28.5614 61.2711 29.5492C61.4116 29.8002 61.5032 30.1616 61.882 30.1616C61.9492 29.9044 61.7721 29.7635 61.7171 29.5859C61.6621 29.4083 61.6254 29.194 61.8454 29.0715C61.9233 29.0299 62.0144 29.0208 62.099 29.046C62.1836 29.0712 62.2549 29.1287 62.2975 29.2062C62.8046 30.0085 63.6721 30.431 64.393 31.0434C64.23 28.9261 63.3178 26.9367 61.8209 25.4338C61.8209 26.0891 61.8209 26.5728 61.8209 27.0566C61.8209 27.5404 62.0531 28.1406 61.5338 28.2018C61.0145 28.2631 61.0817 27.5894 61.0267 27.1607C60.9009 25.5934 60.4315 24.0732 59.6521 22.7086C59.2504 22.0637 58.72 21.509 58.0942 21.0795C57.917 20.957 57.6909 20.755 57.4832 20.9877C57.2755 21.2204 57.6115 21.3123 57.7276 21.4409C58.2087 21.9309 58.6199 22.4852 58.9495 23.0882C59.0656 23.3087 59.3038 23.6149 59.0289 23.8048C58.754 23.9946 58.5768 23.6272 58.418 23.4373C57.8707 22.597 57.1575 21.878 56.3224 21.3245L56.3285 21.3429ZM29.96 20.9632C29.2481 21.1323 28.5833 21.4595 28.0144 21.9206C27.4455 22.3816 26.9871 22.9649 26.6731 23.6272C26.2763 24.5509 26.1127 25.5584 26.1965 26.5606C26.3214 27.5975 26.1892 28.6492 25.8116 29.6226C25.3229 30.5964 26.2332 30.627 26.6181 30.8475C27.1069 31.172 27.229 30.5474 27.4001 30.2351C28.0111 29.2246 27.8217 28.0977 27.785 27.0076C27.6862 25.8999 27.829 24.7838 28.2035 23.7369C28.5781 22.6899 29.1753 21.7372 29.9539 20.9448L29.96 20.9632Z" fill="#2C3639"/>
<path d="M42.2276 32.9169C42.2309 35.5042 41.7157 38.0658 40.7124 40.4496C40.2909 41.3682 40.4009 41.5274 41.3662 41.7234C42.449 42.0238 43.5789 42.1152 44.6958 41.9929C44.8669 41.9929 45.0807 41.9439 45.099 42.1704C45.1068 42.3025 45.0718 42.4335 44.9991 42.5439C44.9264 42.6543 44.82 42.7381 44.6958 42.7829C43.2011 43.3219 41.5657 43.3219 40.071 42.7829C39.846 42.6992 39.642 42.5674 39.4731 42.3966C39.3042 42.2257 39.1745 42.0201 39.093 41.7938C39.0116 41.5676 38.9804 41.3263 39.0016 41.0867C39.0227 40.8471 39.0958 40.6151 39.2156 40.4067C39.9074 38.8975 40.3727 37.294 40.5964 35.6483C40.7858 33.9764 41.2073 32.3352 41.1584 30.6327C41.1972 29.8249 41.0531 29.0188 40.7369 28.2749C40.6636 28.134 40.5353 27.9442 40.7369 27.8094C40.8218 27.7582 40.9219 27.7381 41.0199 27.7527C41.118 27.7672 41.208 27.8154 41.2745 27.889C41.5411 28.1433 41.75 28.4522 41.887 28.7945C42.0241 29.1369 42.0861 29.5048 42.0687 29.8733C42.1907 30.883 42.2438 31.8999 42.2276 32.9169Z" fill="#2C3639"/>
<path d="M39.0203 46.3477C39.5405 46.8492 40.1118 47.2946 40.7248 47.6766C41.1525 47.897 41.5251 48.142 41.9467 47.6766C41.987 47.6134 42.0426 47.5613 42.1082 47.5253C42.1739 47.4893 42.2476 47.4704 42.3224 47.4704C42.3973 47.4704 42.4709 47.4893 42.5366 47.5253C42.6023 47.5613 42.6578 47.6134 42.6982 47.6766C42.7802 47.8163 42.8972 47.9321 43.0375 48.0126C43.1779 48.093 43.3368 48.1354 43.4985 48.1354C43.6602 48.1354 43.8191 48.093 43.9595 48.0126C44.0999 47.9321 44.2168 47.8163 44.2988 47.6766C44.3407 47.6068 44.3998 47.5491 44.4704 47.509C44.5411 47.469 44.6209 47.4479 44.7021 47.4479C44.7833 47.4479 44.8631 47.469 44.9337 47.509C45.0044 47.5491 45.0635 47.6068 45.1053 47.6766C45.4658 48.1236 45.8079 47.9461 46.1867 47.7317C46.8108 47.3524 47.407 46.9288 47.9707 46.464C47.8347 47.0709 47.5745 47.6429 47.2064 48.1437C46.8383 48.6445 46.3704 49.0631 45.8323 49.373C45.5373 49.525 45.2657 49.7189 45.0259 49.9486C44.8309 50.1594 44.5946 50.3275 44.3317 50.4424C44.0689 50.5574 43.7853 50.6167 43.4985 50.6167C43.2118 50.6167 42.9281 50.5574 42.6653 50.4424C42.4025 50.3275 42.1661 50.1594 41.9711 49.9486C41.7634 49.7156 41.5067 49.5316 41.2197 49.4097C40.6544 49.0886 40.1651 48.6487 39.7854 48.1201C39.4058 47.5916 39.1448 46.9869 39.0203 46.3477V46.3477Z" fill="#2C3639"/>
<path d="M56.0045 25.2504C54.1044 25.2504 52.4304 25.0239 50.7748 25.4893C49.687 25.7714 48.6642 26.2622 47.7628 26.9346C47.3046 27.2898 46.8281 27.4674 46.4432 26.8978C46.0583 26.3283 46.4981 26.0282 46.9319 25.7465C48.1233 24.9384 49.4466 24.3456 50.842 23.995C52.0274 23.6555 53.2986 23.7985 54.3794 24.3931C54.8315 24.6687 55.3263 24.9014 56.0045 25.2504Z" fill="#2C3639"/>
<path d="M31.3225 25.2254C33.4425 23.4371 35.7091 23.5841 38.0429 24.613C38.7874 24.9742 39.5078 25.3833 40.1996 25.8378C40.6334 26.095 40.9266 26.4012 40.6089 26.9034C40.5549 27.0079 40.4764 27.0978 40.3802 27.1653C40.2839 27.2328 40.1728 27.2759 40.0563 27.2909C39.9398 27.306 39.8214 27.2925 39.7112 27.2517C39.601 27.2109 39.5024 27.1439 39.4237 27.0565C38.2605 26.1577 36.8909 25.566 35.4403 25.3356C34.0723 25.1977 32.6959 25.1608 31.3225 25.2254V25.2254Z" fill="#2C3639"/>
<path d="M30.021 30.5469C30.8921 30.6371 31.753 30.8072 32.5931 31.0552C33.8498 31.5614 35.251 31.5723 36.5154 31.0858C37.1706 30.8928 37.841 30.7555 38.5193 30.6755C38.6598 30.6755 38.8248 30.5959 38.9164 30.7551C39.008 30.9143 38.9164 31.0797 38.7759 31.2083C38.1641 31.881 37.3666 32.3564 36.4848 32.574C34.1205 33.1864 31.9944 32.8434 30.247 30.9878C30.1957 30.9383 30.1506 30.8828 30.1126 30.8225C30.0768 30.7325 30.0462 30.6404 30.021 30.5469V30.5469Z" fill="#2C3639"/>
<path d="M57.0737 30.5234C56.3692 31.6048 55.2744 32.3708 54.0189 32.6607C53.1095 32.9085 52.1556 32.9446 51.2302 32.7663C50.3047 32.588 49.4322 32.2 48.6792 31.6319C48.5266 31.5106 48.3836 31.3775 48.2516 31.2338C48.1355 31.1113 47.995 30.9766 48.0805 30.7868C48.166 30.5969 48.3677 30.652 48.5265 30.6826C49.3223 30.8033 50.1084 30.9814 50.8786 31.2155C52.0002 31.5925 53.2202 31.549 54.3122 31.093C55.2158 30.8285 56.1393 30.638 57.0737 30.5234Z" fill="#2C3639"/>
<path d="M61.9981 34.0557C61.9016 34.7175 61.6504 35.347 61.265 35.893C60.8373 36.5054 60.4219 37.1178 59.9881 37.6812C59.9087 37.7915 59.8354 37.9691 59.6521 37.8894C59.6183 37.8742 59.5879 37.8525 59.5626 37.8254C59.5372 37.7984 59.5175 37.7666 59.5044 37.7319C59.4913 37.6972 59.4853 37.6603 59.4865 37.6232C59.4877 37.5861 59.4962 37.5496 59.5116 37.5159C59.9148 36.2911 60.3058 35.0172 60.7335 33.7679C60.7589 33.6853 60.8015 33.609 60.8584 33.544C60.9154 33.4791 60.9854 33.4269 61.0639 33.3911C61.1424 33.3552 61.2275 33.3364 61.3138 33.3359C61.4001 33.3355 61.4855 33.3533 61.5644 33.3882C61.6965 33.4411 61.809 33.5337 61.8867 33.6531C61.9643 33.7726 62.0032 33.9132 61.9981 34.0557V34.0557Z" fill="#2C3639"/>
<path d="M25.7138 33.3698C25.8517 33.365 25.9872 33.4072 26.0981 33.4895C26.2091 33.5718 26.2889 33.6893 26.3247 33.8229C26.7341 35.0477 27.1251 36.3216 27.5466 37.577C27.5726 37.6322 27.5775 37.6949 27.5607 37.7535C27.5438 37.8121 27.5062 37.8626 27.455 37.8955C27.3267 37.9628 27.2167 37.8955 27.1434 37.7791C26.337 36.7135 25.3961 35.7214 25.1151 34.3496C24.9501 33.7495 25.2311 33.3514 25.7138 33.3698Z" fill="#2C3639"/>
<path d="M71.37 36.666C71.6266 36.7028 71.6205 36.9171 71.5349 37.0947C71.3761 37.4254 71.1806 37.7071 70.9912 38.0501C69.0178 41.2775 68.6268 44.7866 69.2622 48.461C69.3773 49.2359 69.5634 49.9985 69.8182 50.7392C69.8854 50.9107 70.0076 51.1311 69.7632 51.2475C69.5188 51.3639 69.3905 51.1557 69.2866 51.0026C69.0679 50.7082 68.8872 50.3871 68.749 50.0472C67.1178 45.4174 67.5882 41.0999 70.7346 37.1866C71.0278 36.8253 71.2172 36.6721 71.37 36.666Z" fill="#2C3639"/>
<path d="M47.0665 76.4594C47.2864 77.8251 45.3375 79.5215 43.4741 79.4786C41.6107 79.4358 39.8084 77.8864 39.9061 76.3308C40.0467 74.3344 41.6535 72.4788 43.4924 72.4727C45.3314 72.4665 47.0726 74.3344 47.0665 76.4594ZM45.6552 76.3125C45.6552 75.0876 44.5921 73.8628 43.4863 73.8934C42.3805 73.924 41.3419 75.0876 41.348 76.3431C41.348 77.2494 42.3805 78.0701 43.5169 78.0578C44.6532 78.0456 45.6613 77.2494 45.6552 76.3125Z" fill="#2C3639"/>
<path d="M45.7223 10.1055C46.8868 9.44931 48.0929 8.87035 49.333 8.37241C49.626 8.24734 49.931 8.15296 50.2433 8.09072C50.4266 8.05398 50.671 8.02947 50.7443 8.26831C50.8176 8.50715 50.5732 8.58063 50.3961 8.648C49.3452 9.05219 48.3983 9.66461 47.3841 10.1545C47.2594 10.2133 47.1582 10.3126 47.0969 10.4362C48.0068 10.6182 48.9414 10.6389 49.8584 10.4975C51.0462 10.3244 52.2104 10.0162 53.3286 9.57887C56.0473 8.44592 58.7172 8.69088 61.387 9.73198C63.0215 10.3206 64.5851 11.0909 66.0486 12.0285C68.2657 13.4244 70.556 14.7001 72.9095 15.8499C72.3736 15.3002 71.7772 14.8133 71.1316 14.3985C69.9596 13.6053 68.7348 12.8932 67.466 12.2674C65.572 11.2936 63.7636 10.1729 61.9674 9.04608C59.5236 7.52118 56.8843 6.79854 53.9884 7.51506C53.7502 7.5763 53.3775 7.70489 53.3042 7.34969C53.2308 6.9945 53.5913 6.98839 53.8113 6.90878C55.8435 6.13468 58.0935 6.1653 60.104 6.99449C61.0907 7.35982 62.0317 7.83867 62.9083 8.42141C64.9733 9.83608 67.1849 10.9751 69.3599 12.2C71.3076 13.2856 73.0709 14.6748 74.5835 16.3154C74.8462 16.6093 75.2494 16.8604 74.9562 17.381C74.8462 17.5831 75.1028 17.7178 75.2189 17.8586C75.7104 18.4701 76.144 19.1262 76.5141 19.8183C76.6119 20.0021 76.8074 20.2287 76.5569 20.4308C76.3064 20.6329 76.1414 20.394 76.0253 20.2042C74.4919 17.6259 72.0297 16.2541 69.4088 15.0844C68.5329 14.6492 67.6986 14.1346 66.9161 13.5473C64.5056 11.8126 61.751 10.618 58.8394 10.0443C57.205 9.74182 55.5201 9.8727 53.9518 10.424C52.4568 11.0374 50.88 11.4274 49.2719 11.5814C48.223 11.6441 47.1704 11.5617 46.1438 11.3365C45.9884 11.2699 45.8196 11.2407 45.6509 11.2513C45.4822 11.262 45.3183 11.3121 45.1724 11.3977C46.9442 12.2 47.8789 13.7861 48.997 15.1885C49.1375 15.3661 49.4063 15.605 49.1742 15.8009C48.942 15.9969 48.6793 15.752 48.5082 15.5744C47.7629 14.8333 47.0358 14.074 46.2966 13.3207C45.9213 12.9344 45.5008 12.5951 45.0441 12.3102C44.7448 12.1265 44.2071 12.2367 44.1461 11.7958C44.0683 11.4919 44.0586 11.1744 44.1178 10.8663C44.1769 10.5581 44.3034 10.267 44.4882 10.0137C45.553 8.73149 46.8561 7.6687 48.3249 6.88426C48.551 6.74953 48.8931 6.44947 49.1009 6.75567C49.3086 7.06188 48.8931 7.2456 48.6732 7.40483C47.5698 8.16404 46.5767 9.07292 45.7223 10.1055V10.1055Z" fill="#2C3639"/>
<path d="M42.7594 11.0414C41.3542 9.61444 39.7047 9.54706 37.8718 10.0247C36.1761 10.4487 34.3898 10.3222 32.7704 9.66344C28.6465 8.12016 24.7975 8.68358 21.4434 11.5374C18.7491 13.8401 16.1098 16.204 13.2078 18.2739C11.885 19.2471 10.7938 20.502 10.0126 21.9484C9.87815 22.1811 9.7804 22.6281 9.40161 22.4689C9.02282 22.3097 9.16333 21.8565 9.29774 21.5564C9.94315 19.9282 11.0603 18.5311 12.5052 17.5451C15.3889 15.6712 17.8999 13.3501 20.4842 11.1026C24.1193 7.9303 28.2494 7.05457 32.8254 8.81831C34.3631 9.45579 36.0666 9.57191 37.6763 9.149C38.6417 8.8835 39.6384 8.74959 40.6394 8.75091C39.9533 8.1999 39.1608 7.79746 38.3117 7.56897C37.3224 7.2963 36.3133 7.10176 35.2936 6.98717C35.0859 6.95655 34.7743 7.04232 34.7499 6.74836C34.7254 6.4544 35.0737 6.44214 35.2936 6.38702C35.7977 6.29247 36.3159 6.30499 36.8149 6.42376C38.1583 6.51986 39.467 6.89526 40.6577 7.52609C40.786 7.59958 40.9876 7.78943 41.0915 7.52609C41.1954 7.26276 40.9388 7.28727 40.7799 7.23215C40.2728 7.06068 40.4256 6.74221 40.6027 6.41763C41.2992 5.10095 41.2992 5.10098 40.0285 4.30485L39.1487 3.77202C38.9654 3.66179 38.6905 3.56994 38.8188 3.29436C38.9471 3.01877 39.2159 3.15963 39.4297 3.22087C40.1192 3.39475 40.7728 3.68912 41.3603 4.09048C41.7025 4.3477 41.9713 4.41508 42.2706 3.99865C42.4344 3.72147 42.6885 3.50928 42.99 3.39775C43.2915 3.28622 43.6221 3.28216 43.9263 3.38624C44.3662 3.51484 44.4945 3.08003 44.7755 2.92693C44.9649 2.81669 45.1726 2.61457 45.3865 2.81666C45.6003 3.01876 45.3315 3.21476 45.1849 3.34949C43.7811 4.64563 42.6021 6.16677 41.6963 7.85069C41.3847 8.40798 41.9346 8.46309 42.1179 8.67743C42.3928 8.99588 42.4478 8.57334 42.5333 8.42636C43.4923 6.7088 44.8194 5.22584 46.419 4.08435C46.7 3.88838 47.1154 3.47194 47.3659 3.77202C47.6164 4.0721 47.1216 4.38443 46.8833 4.58041C45.3884 5.8499 44.0983 7.34348 43.0588 9.00815C42.923 9.24332 42.7055 9.41997 42.4478 9.5042C42.5578 9.8594 42.9121 10.0064 43.0588 10.3003C43.2054 10.5943 43.2848 10.9127 42.8388 11.0291L42.7594 11.0414Z" fill="#2C3639"/>
<path d="M60.4889 21.166C64.0019 21.4294 66.8184 22.8869 68.6634 25.9795C69.9525 28.1291 69.7754 30.3705 69.0239 32.6426C68.3421 34.4819 67.4633 36.2416 66.4029 37.8909C64.6905 40.6093 63.9315 43.8225 64.2463 47.022C64.509 49.392 65.2788 51.6518 65.908 53.9361C66.4212 55.7733 66.8184 57.6595 66.4212 59.5886C66.1623 61.1476 65.4594 62.5984 64.3972 63.7664C63.335 64.9343 61.9587 65.7697 60.434 66.172C60.3867 66.19 60.3375 66.2023 60.2873 66.2088C59.9696 66.2088 59.5236 66.4599 59.4014 66.0067C59.2793 65.5535 59.768 65.5657 60.0124 65.4739C61.3739 65.078 62.5969 64.3066 63.5421 63.2476C64.4873 62.1886 65.1166 60.8847 65.3582 59.4845C65.602 58.1041 65.5415 56.6869 65.181 55.3323C64.6373 53.0481 63.9041 50.8128 63.4826 48.4917C62.8021 44.7431 63.4826 40.8741 65.401 37.5847C66.2747 36.1677 67.0425 34.6878 67.6981 33.157C68.2688 31.8766 68.5285 30.4788 68.4557 29.0783C68.0891 25.8571 66.0425 24.0137 63.2199 22.8501C62.3005 22.5177 61.3512 22.2757 60.3851 22.1275C60.1207 22.0781 59.8595 22.0126 59.6031 21.9315C59.3892 21.8519 59.2059 21.7049 59.267 21.4355C59.3281 21.166 59.5298 21.1721 59.7314 21.166H60.4889Z" fill="#2C3639"/>
<path d="M30.3448 64.438C28.3348 61.4249 28.6525 58.1424 29.1229 54.8293C29.2023 54.272 29.1901 53.7024 29.239 53.1451C29.239 52.8879 29.239 52.5327 29.5933 52.5021C29.9477 52.4715 29.9477 52.8634 29.9783 53.1145C30.0699 54.0165 30.0699 54.9255 29.9783 55.8275C29.8327 57.3392 29.8429 58.862 30.0088 60.3716C30.2349 62.4048 31.2307 64.046 32.422 65.6322C32.5415 65.7543 32.6772 65.8594 32.8253 65.9445C32.9902 66.0731 33.2774 66.1527 33.1491 66.4344C33.0208 66.7161 32.7642 66.612 32.5381 66.5569C30.7847 66.067 29.2207 65.3321 28.1637 63.7153C26.2883 60.8294 25.5421 57.351 26.0682 53.9474C26.337 51.7917 26.9296 49.6605 26.8685 47.4742C26.8074 45.2879 26.6058 43.2608 25.4572 41.3991C25.335 41.2031 25.2373 40.9827 25.4572 40.8173C25.6772 40.652 25.8299 40.8173 25.9765 40.952C26.3553 41.2583 26.5142 41.9013 27.1984 41.6931C27.284 41.6931 27.51 41.9748 27.62 42.1585C28.8969 44.253 29.3673 46.5985 29.6728 48.993C29.6728 49.1951 29.7522 49.5074 29.4834 49.5625C29.2146 49.6176 29.1535 49.2624 29.1107 49.0603C28.7729 47.0037 28.1562 45.0031 27.2779 43.1139C27.4795 44.1856 27.7055 45.245 27.8216 46.3351C27.9417 47.8239 27.8554 49.3223 27.565 50.7873C27.1801 53.0594 26.7524 55.3192 27.0335 57.6402C27.3883 60.2014 28.5482 62.5825 30.3448 64.438V64.438Z" fill="#2C3639"/>
<path d="M19.2376 51.4063C19.643 50.3517 19.8119 49.2206 19.7324 48.0932C19.5675 45.0312 18.9076 42.0671 17.0015 39.5562C16.195 38.4845 15.2419 37.523 14.3744 36.4942C13.3522 35.387 12.7454 33.9582 12.6576 32.4523C12.6576 32.2257 12.5782 31.8398 12.8837 31.8398C13.1892 31.8398 13.1525 32.1644 13.1831 32.3849C13.4738 33.9868 14.263 35.4552 15.4375 36.5799C16.0484 37.1923 16.7021 37.8047 17.2703 38.4906C18.6362 40.0528 19.6448 41.8956 20.2252 43.8897C20.8057 45.8839 20.944 47.9812 20.6305 50.0346C20.3562 51.7311 19.7455 53.3554 18.8343 54.8113C18.3268 55.5548 18.1093 56.4593 18.2234 57.3529C18.2723 57.5856 18.1928 57.8428 17.9484 57.8673C17.7041 57.8918 17.6552 57.604 17.6491 57.3957C17.6851 56.3927 17.8202 55.3957 18.0523 54.4194C18.4147 51.6185 18.1857 48.7726 17.3803 46.0661C16.4426 42.527 14.764 39.2285 12.456 36.39C11.6954 35.4245 11.1703 34.2942 10.9225 33.0892C10.8859 32.9055 10.8187 32.6727 11.0692 32.5931C11.3197 32.5135 11.3441 32.6911 11.3808 32.8319C11.9306 35.0611 13.5618 36.6289 14.8204 38.4171C17.4203 42.1544 18.9288 46.5445 19.1765 51.094C19.1948 51.1859 19.207 51.2532 19.2376 51.4063Z" fill="#2C3639"/>
<path d="M12.2482 62.7532C11.5578 60.818 11.7656 58.9072 12.2482 56.9843C12.9386 54.1549 14.0811 51.4359 14.466 48.5392C14.8814 45.2138 14.6737 41.9312 12.737 38.9978C12.572 38.7467 12.2788 38.4344 12.627 38.1649C12.9752 37.8955 13.1463 38.2813 13.354 38.465C14.5026 39.5183 14.9303 40.982 15.529 42.3416C16.852 45.5197 17.2461 49.0093 16.6654 52.4035C16.3477 54.7245 15.4435 56.874 15.0097 59.14C15.0152 59.4901 14.9151 59.8337 14.7225 60.1259C14.5558 59.4833 14.537 58.8111 14.6676 58.1601C15.0341 55.9187 15.4496 53.6773 15.8161 51.4236C16.0584 50.1622 16.0996 48.8704 15.9383 47.5961C15.6023 50.2049 14.6798 52.6546 14.0077 55.1716C13.3357 57.6886 12.3948 60.126 12.2482 62.7532Z" fill="#2C3639"/>
<path d="M19.9954 19.2983C16.7239 20.4845 13.9887 22.8131 12.2913 25.8572C11.7861 26.7847 11.3767 27.7614 11.0694 28.7722C11.0022 28.9927 11.0266 29.4214 10.6356 29.3173C10.2446 29.2132 10.4035 28.8519 10.4401 28.6069C10.6521 27.2985 11.0882 26.0367 11.7292 24.8773C13.1197 22.4904 15.1608 20.5507 17.6127 19.286C21.5655 17.1181 25.8666 16.0464 30.302 15.4217C32.3732 15.1339 34.487 15.0236 36.4115 14.1357C37.67 13.5883 38.811 12.8022 39.7717 11.8207C39.8939 11.6982 40.01 11.5758 40.1383 11.4656C40.2666 11.3553 40.5049 11.1409 40.7126 11.3553C40.9203 11.5696 40.7126 11.7166 40.5965 11.8697C39.8001 12.9597 38.7818 13.8677 37.609 14.5337C35.5501 15.7585 33.259 16.0831 30.9497 16.3709C28.0059 16.7128 25.1075 17.3719 22.3047 18.3368C22.0298 18.4348 21.7671 18.5695 21.5044 18.6859L19.9954 19.2983Z" fill="#2C3639"/>
<path d="M24.5895 46.7512C24.4798 48.5743 24.0967 50.3704 23.4532 52.0791C22.7261 54.0266 21.9502 55.9618 21.883 58.0868C21.7975 60.7141 22.1763 63.176 24.2657 65.0561C24.321 65.1025 24.3722 65.1537 24.4185 65.2092C24.6445 65.5031 25.2249 65.7787 24.9439 66.1339C24.6629 66.4891 24.1435 66.0849 23.8014 65.8706C22.8967 65.2974 22.1454 64.5111 21.613 63.5804C21.0806 62.6497 20.7832 61.6027 20.7467 60.5304C20.5327 58.1288 20.9147 55.7115 21.8586 53.4938C22.5826 51.9098 23.0981 50.2382 23.3921 48.521C23.8248 45.8894 23.3803 43.1882 22.1274 40.8353C21.0338 38.8388 19.9586 36.8362 18.8772 34.8337C18.6559 34.4526 18.4951 34.0394 18.4006 33.6088C18.4006 33.4312 18.4006 33.2414 18.6084 33.1924C18.8161 33.1434 18.8466 33.3087 18.9199 33.4374C19.091 33.7619 19.2804 34.0804 19.4515 34.405C20.5939 36.5729 21.8158 38.6918 23.0622 40.7924C24.1619 42.6296 24.4124 44.6996 24.5895 46.7512Z" fill="#2C3639"/>
<path d="M9.29152 61.4678C9.09602 57.2606 10.66 53.4514 11.8697 49.5565C12.4805 47.6197 12.8899 45.625 13.0916 43.6039C13.0916 43.4079 13.1588 43.2119 13.1955 42.9914C13.2321 42.771 13.2321 42.4158 13.5376 42.428C13.8431 42.4403 13.8431 42.8261 13.8492 43.0711C13.8494 44.5123 13.6958 45.9494 13.391 47.3579C12.8892 49.6298 12.2444 51.8675 11.4604 54.0577C10.477 56.9159 10.1532 59.9604 10.5134 62.9621C10.8187 64.7325 11.5694 66.3955 12.6945 67.794C12.9511 68.1492 13.2016 68.5167 13.4398 68.8841C13.5193 69.0066 13.5865 69.1536 13.4398 69.2822C13.2932 69.4108 13.1649 69.3251 13.0427 69.2822C12.9563 69.2334 12.878 69.1714 12.8106 69.0985C10.489 66.5937 8.1918 64.0828 8.00241 60.3839C7.96205 59.6762 8.01134 58.9663 8.14905 58.2711C8.18571 58.0629 8.26511 57.8056 8.55226 57.8363C8.83941 57.8669 8.85774 58.118 8.86385 58.3446C8.84321 59.4016 8.98752 60.4554 9.29152 61.4678V61.4678Z" fill="#2C3639"/>
<path d="M25.5122 22.0719C23.8199 22.7884 22.1154 23.4559 20.7469 24.7236C20.6124 24.8522 20.4719 25.0788 20.2581 24.9196C20.0443 24.7604 20.1848 24.546 20.2886 24.3868C20.4208 24.1581 20.5878 23.9515 20.7835 23.7744C22.7872 22.1952 25.0998 21.056 27.5711 20.4306C27.8583 20.3632 28.2921 19.9774 28.5548 20.5654C28.8664 21.2513 28.7136 21.6187 27.9744 21.9127C25.8236 22.7917 23.9761 24.2818 22.6591 26.1995C20.7713 28.8513 20.3314 31.6255 21.9932 34.5957C22.7446 35.9368 23.3861 37.3454 24.0643 38.7294C24.2254 39.0591 24.3603 39.4011 24.4675 39.7521C24.5286 39.9604 24.7486 40.2666 24.4248 40.3952C24.101 40.5238 24.0338 40.1625 23.9177 39.9665C22.9707 38.3926 22.0543 36.8003 21.089 35.2448C19.0606 31.9868 19.5005 28.8696 21.5411 25.8198C22.4514 24.5394 23.5882 23.4373 24.8952 22.5679L25.5122 22.0719Z" fill="#2C3639"/>
<path d="M72.2742 41.5465C72.2077 43.6923 72.8357 45.8019 74.0642 47.5604C75.2312 49.367 76.563 51.0879 77.345 53.1088C78.683 56.5751 78.5242 59.9066 76.3553 63.036C75.5725 64.2211 74.709 65.3506 73.771 66.4165C73.6396 66.5605 73.4988 66.6955 73.3494 66.8207C73.1845 66.9493 73.0012 67.2126 72.7935 67.0412C72.5858 66.8697 72.8485 66.6492 72.9645 66.4961C73.5755 65.6877 74.1864 64.8977 74.7974 64.0893C76.1611 62.4023 76.9795 60.3386 77.1434 58.1734C77.2397 56.5077 76.9315 54.8434 76.2453 53.3232C75.607 51.9998 74.8439 50.7407 73.9665 49.563C72.6041 47.6706 71.5227 45.6742 71.2905 43.298C71.1947 42.2642 71.3132 41.2217 71.6388 40.236C71.7121 40.0094 71.7976 39.7093 72.1092 39.7828C72.4208 39.8563 72.2986 40.138 72.2986 40.3523L72.2742 41.5465Z" fill="#2C3639"/>
<path d="M19.9953 19.2974L21.5044 18.685C24.7913 17.6745 28.1759 17.552 31.5789 17.5152C33.3142 17.4683 35.0366 17.2008 36.7048 16.7191C36.9491 16.6517 37.2852 16.4497 37.4257 16.7681C37.5662 17.0866 37.1752 17.2458 36.9369 17.3805C35.1818 18.1392 33.2945 18.5429 31.3834 18.5686C28.4753 18.6482 25.5672 18.6543 22.7385 19.4566C19.9579 20.2276 17.5147 21.9091 15.7981 24.2334C14.9431 25.3066 14.2229 26.481 13.6537 27.7303C13.5681 27.9201 13.4948 28.2202 13.2321 28.1467C12.9694 28.0732 12.9999 27.7548 13.061 27.5343C13.602 25.7722 14.5146 24.1473 15.737 22.7697C16.7313 21.6181 17.9053 20.6357 19.2133 19.8608C19.476 19.6587 19.7326 19.475 19.9953 19.2974Z" fill="#2C3639"/>
<path d="M23.7037 69.5019C21.8802 69.3909 20.1174 68.8041 18.5901 67.7994C17.472 67.1074 16.8611 65.9622 16.1463 64.9211C16.0696 64.7683 16.0239 64.6018 16.0119 64.4312C15.9813 64.2597 15.9691 64.0698 16.1646 63.9841C16.3601 63.8983 16.519 64.0514 16.635 64.2168C16.7511 64.3821 16.7389 64.3822 16.7878 64.4679C18.1196 66.8808 20.3068 67.9464 22.8973 68.3751C23.886 68.5436 24.896 68.5436 25.8848 68.3751C26.1292 68.3322 26.4957 68.2526 26.5813 68.5894C26.6668 68.9262 26.3552 69.0855 26.0864 69.2018C25.8432 69.3155 25.5866 69.3978 25.3227 69.4468C24.8715 69.5046 24.4556 69.7217 24.1497 70.0592C23.8377 70.3752 23.4639 70.6232 23.0518 70.7876C22.6397 70.952 22.1981 71.0293 21.7548 71.0146C18.7428 70.9778 16.0852 69.9979 14.1668 67.5544C13.4739 66.5415 13.053 65.3667 12.9449 64.1433C12.9021 63.88 12.8655 63.4758 13.2565 63.4329C13.6475 63.3901 13.5925 63.782 13.6353 64.0453C14.0813 66.8134 15.8652 68.3322 18.3518 69.2386C20.0563 69.851 21.7914 70.3164 23.7037 69.5019Z" fill="#2C3639"/>
<path d="M60.0735 56.3062C60.0735 54.469 59.4626 52.3929 58.925 50.3352C58.4999 48.9094 58.389 47.4081 58.6 45.9351C58.811 44.4621 59.3388 43.0527 60.1469 41.8044C60.3816 41.4616 60.643 41.138 60.9289 40.8367C61.0938 40.653 61.3138 40.4509 61.5398 40.6408C61.7659 40.8306 61.607 41.0939 61.4665 41.2532C60.5608 42.4481 59.9458 43.8384 59.6703 45.3135C59.3871 46.9117 59.4707 48.5537 59.9147 50.1148C60.4078 51.9074 60.7853 53.73 61.0449 55.5713C61.2907 57.4882 60.8231 59.4287 59.7314 61.0218C58.6412 62.7202 57.1785 64.1466 55.4548 65.1923C55.2104 65.3393 54.9171 65.6149 54.6728 65.3148C54.4284 65.0147 54.7522 64.733 54.9843 64.5493C56.237 63.6057 57.3732 62.5161 58.369 61.3035C59.5353 59.907 60.1427 58.1261 60.0735 56.3062V56.3062Z" fill="#2C3639"/>
<path d="M59.9637 17.9986C59.0839 18.0537 57.7459 18.1578 56.4019 18.2191C54.2713 18.3401 52.1468 17.8943 50.2435 16.9269C50.0602 16.835 49.7853 16.7248 49.9136 16.4492C50.0419 16.1736 50.2557 16.3145 50.4451 16.339C50.5421 16.3554 50.6365 16.3842 50.7261 16.4247C53.3593 17.478 56.0903 17.2882 58.8212 17.0922C64.9918 16.6451 69.9771 19.0887 73.0563 24.9923C73.5666 26.0805 73.8849 27.2492 73.9972 28.4463C74.0277 28.6913 74.0705 29.0158 73.7834 29.0587C73.4962 29.1016 73.4351 28.7647 73.3923 28.5381C72.9053 25.892 71.5866 23.4713 69.6289 21.6302C67.1118 19.1683 64.167 17.9925 59.9637 17.9986Z" fill="#2C3639"/>
<path d="M57.5015 5.61014C55.5603 5.45933 53.6077 5.65423 51.7342 6.18581C51.4959 6.2593 51.1721 6.47367 51.0194 6.13684C50.8666 5.80001 51.2149 5.62242 51.4592 5.49382C52.7133 4.87549 54.094 4.55885 55.4915 4.56907C59.5354 4.33573 63.5135 5.67368 66.5986 8.30476C67.3806 8.97228 68.1931 9.60307 68.9812 10.2583C69.2501 10.4849 69.6961 10.7544 69.4028 11.1341C69.1095 11.5138 68.743 11.1341 68.4497 10.9259C67.531 10.3243 66.6552 9.65921 65.8288 8.93556C63.4603 6.99493 60.5524 5.83366 57.5015 5.61014V5.61014Z" fill="#2C3639"/>
<path d="M66.7391 16.9946L63.2444 16.2291C62.1827 16.0547 61.1048 15.9992 60.0308 16.0637C57.2478 16.1796 54.4648 15.8319 51.7953 15.0349C50.485 14.6253 49.2697 13.9569 48.2212 13.0691C48.0502 12.916 47.7691 12.7567 47.9768 12.4567C48.1845 12.1566 48.3923 12.4077 48.5878 12.5179C51.8134 14.4055 55.5374 15.2602 59.261 14.9675C61.7059 14.8603 64.1477 15.2391 66.4458 16.0821C66.6539 16.145 66.8579 16.2207 67.0568 16.3087C67.2584 16.4128 67.5944 16.4679 67.4905 16.7925C67.3867 17.1171 67.1056 17.013 66.7391 16.9946Z" fill="#2C3639"/>
<path d="M57.5871 56.606C57.5871 54.5667 56.9762 52.7111 56.7379 50.7942C56.5588 49.628 56.6359 48.4367 56.964 47.3035C57.0722 46.924 57.255 46.5701 57.5016 46.2624C57.5932 46.1521 57.7154 46.048 57.8804 46.1277C57.9468 46.1618 57.9974 46.2206 58.0213 46.2914C58.0453 46.3623 58.0407 46.4398 58.0087 46.5073C57.1106 49.1591 58.0942 51.6883 58.5524 54.236C58.8851 55.8242 58.7985 57.472 58.3014 59.0164C57.8042 60.5609 56.9136 61.9486 55.7176 63.0424C55.6692 63.098 55.6161 63.1492 55.5588 63.1955C55.235 63.4037 54.905 63.9549 54.5263 63.5323C54.1475 63.1098 54.7706 62.9199 54.9906 62.6995C56.6157 60.9663 57.6726 58.9944 57.5871 56.606Z" fill="#2C3639"/>
<path d="M32.428 6.84628C31.4749 6.79116 30.6379 6.32573 29.7092 6.23387C28.1355 5.99084 26.5272 6.1099 25.0062 6.58205C23.4852 7.0542 22.0912 7.86708 20.9299 8.9591C19.7451 10.0903 18.6691 11.3308 17.7163 12.6642C17.5636 12.8724 17.4475 13.3194 17.1054 13.1112C16.7632 12.903 17.0504 12.5968 17.1787 12.3825C19.4942 8.33446 22.4878 5.23566 27.5343 5.07031C29.3459 5.10644 31.1297 5.52373 32.7701 6.29513C32.9228 6.35637 33.1306 6.43596 33.0511 6.6503C32.9717 6.86465 32.6418 6.82791 32.428 6.84628Z" fill="#2C3639"/>
<path d="M75.5121 56.4588C75.6282 59.3432 74.388 61.6643 72.488 63.7036L72.433 63.7526C72.1397 63.9302 71.8526 64.4385 71.5349 64.1323C71.2172 63.8261 71.7609 63.6117 71.9503 63.3974C74.1681 60.8681 74.7729 57.9408 74.1253 54.695C73.9576 53.9523 73.6642 53.2439 73.2577 52.6006C72.5103 51.3094 71.8332 49.9785 71.2294 48.6138C71.094 48.3006 70.9837 47.977 70.8995 47.6462C70.8567 47.5115 70.8628 47.3339 71.04 47.2788C71.0999 47.2616 71.1642 47.2686 71.2191 47.2983C71.2739 47.3281 71.3149 47.3783 71.3333 47.438C72.3597 49.5631 74.1253 51.2227 74.9989 53.4396C75.3938 54.3947 75.5692 55.4265 75.5121 56.4588V56.4588Z" fill="#2C3639"/>
<path d="M66.574 29.7824C66.589 30.2733 66.525 30.7634 66.3846 31.2339C65.9752 33.0343 65.0038 34.5715 64.0508 36.1331C63.9286 36.3291 63.7636 36.5924 63.4704 36.4332C63.1771 36.274 63.3237 36.0351 63.4031 35.8208C63.6231 35.2758 63.8614 34.743 64.118 34.2102C64.7613 33.0239 65.2109 31.742 65.4498 30.4132C65.7614 28.0003 64.5823 26.2182 62.7983 24.7791C62.2123 24.3751 61.6 24.0109 60.9655 23.689C60.7639 23.5726 60.4706 23.4562 60.6172 23.1439C60.7639 22.8316 60.996 23.0031 61.2282 23.0521C64.008 23.7073 66.574 26.9102 66.574 29.7824Z" fill="#2C3639"/>
<path d="M32.7886 52.4771C32.697 53.3896 32.642 54.443 32.4831 55.4779C32.0689 57.7103 32.413 60.0174 33.4606 62.0307C33.6428 62.3775 33.798 62.7378 33.925 63.1085C34.0044 63.3229 34.0227 63.5679 33.7539 63.672C33.4851 63.7761 33.3996 63.5801 33.2896 63.4147C31.7455 61.238 31.056 58.5671 31.3529 55.9127C31.6095 53.8734 31.8172 51.8218 31.2796 49.7886C31.2368 49.6233 31.1879 49.4395 31.3651 49.3232C31.4521 49.2747 31.5522 49.2551 31.651 49.2672C31.7498 49.2793 31.8422 49.3225 31.9149 49.3906C32.1499 49.5713 32.3176 49.8257 32.3915 50.1132C32.6477 50.8752 32.7817 51.6731 32.7886 52.4771V52.4771Z" fill="#2C3639"/>
<path d="M74.724 29.3597C74.8372 27.6056 74.5436 25.8491 73.8663 24.2277C73.189 22.6064 72.1463 21.1642 70.82 20.0143C70.6062 19.8245 70.1358 19.5979 70.3802 19.2917C70.6245 18.9855 70.9911 19.3529 71.2599 19.5244C74.6568 21.7475 75.9337 25.0055 75.7321 28.9494C75.7415 29.6846 75.6427 30.4172 75.4388 31.1235C75.3846 31.3104 75.3109 31.491 75.2189 31.6624C75.115 31.8522 74.9928 32.0972 74.7301 31.9931C74.4674 31.889 74.5468 31.6563 74.5896 31.4787C74.6952 30.7776 74.7401 30.0686 74.724 29.3597V29.3597Z" fill="#2C3639"/>
<path d="M56.6154 48.7247C56.4199 49.6433 56.2122 50.5252 56.0472 51.4132C55.8568 52.7699 55.7975 54.142 55.87 55.5102C55.9495 56.8541 55.9127 58.2023 55.7601 59.5398C55.5284 60.6916 55.0939 61.7927 54.4771 62.7917C54.3488 63.0183 54.1655 63.3245 53.8661 63.202C53.5668 63.0796 53.7073 62.706 53.8111 62.5039C54.9536 60.287 55.033 57.9047 54.9536 55.4918C54.8049 53.3121 55.1151 51.1255 55.8639 49.0737C55.9201 48.913 55.9854 48.7555 56.0594 48.6022C56.1327 48.4491 56.2244 48.2715 56.4382 48.3327C56.652 48.394 56.5787 48.5961 56.6154 48.7247Z" fill="#2C3639"/>
<path d="M8.28369 29.8864C8.34216 28.8221 8.61437 27.7807 9.08403 26.8244C9.9027 25.0668 10.7153 23.303 12.1388 21.9251C12.3954 21.6863 12.7192 21.1535 13.0674 21.4842C13.4157 21.8149 12.8475 22.0966 12.6581 22.3844C11.2346 24.5585 9.84161 26.7447 9.29175 29.3414C9.17673 30.1178 9.15621 30.9055 9.23065 31.6869C9.23065 31.8094 9.27342 31.9319 9.26731 32.0544C9.26731 32.3361 9.33451 32.7464 8.99849 32.8015C8.66247 32.8566 8.59526 32.4279 8.55249 32.1891C8.44863 31.3807 8.3509 30.5846 8.28369 29.8864Z" fill="#2C3639"/>
<path d="M77.6016 29.1757C77.4061 30.9762 76.4591 32.8501 75.2678 34.6384C75.1639 34.7853 75.0173 35.0242 74.8035 34.9017C74.5896 34.7792 74.7362 34.522 74.8035 34.3322C75.5339 32.8653 76.0621 31.3057 76.3736 29.6962C76.4931 28.4037 76.45 27.1013 76.2453 25.8196C76.2453 25.5808 76.0987 25.293 76.4225 25.2072C76.7463 25.1215 76.789 25.4032 76.8868 25.5931C77.3937 26.7173 77.6381 27.9425 77.6016 29.1757V29.1757Z" fill="#2C3639"/>
<path d="M61.6803 70.0107C61.3748 69.9739 61.0327 69.9678 61.0021 69.582C60.9716 69.1961 61.2771 69.141 61.5459 69.0982C64.3135 68.596 66.8428 67.4447 69.3538 66.2505C69.5088 66.1779 69.6704 66.1205 69.8364 66.079C69.8938 66.056 69.9575 66.0544 70.0158 66.0747C70.0742 66.0949 70.1233 66.1356 70.1541 66.1892C70.1845 66.2438 70.1949 66.3072 70.1838 66.3686C70.1727 66.43 70.1406 66.4857 70.093 66.526C69.9778 66.6489 69.8486 66.7578 69.7081 66.8506C67.3132 68.3081 64.8205 69.5452 62.0285 69.9494L61.6803 70.0107Z" fill="#2C3639"/>
<path d="M27.6443 14.5807C27.4794 14.5807 27.2289 14.5807 27.18 14.3725C27.1311 14.1643 27.3938 14.0173 27.6016 13.9561C28.8518 13.6295 30.1305 13.4244 31.42 13.3436C32.8741 13.215 34.3464 13.3437 35.7944 13.0681C36.2186 12.9578 36.6367 12.8249 37.0468 12.67C37.2423 12.6149 37.4501 12.5965 37.5417 12.8292C37.6333 13.062 37.4745 13.1477 37.3401 13.2579C36.6387 13.8014 35.7825 14.106 34.8963 14.1275C32.4892 14.3051 30.0759 14.2929 27.6443 14.5807Z" fill="#2C3639"/>
<path d="M73.337 56.7592C73.337 58.5414 72.5734 60.0663 71.7058 61.5483C71.5714 61.7871 71.3576 62.1607 71.0399 61.977C70.7222 61.7933 71.0399 61.487 71.1315 61.2666C72.357 58.8717 72.6739 56.1126 72.0235 53.5012C71.9807 53.3114 71.883 53.0909 72.1396 52.993C72.3962 52.895 72.4878 53.1154 72.5795 53.2808C73.1126 54.3605 73.3728 55.555 73.337 56.7592V56.7592Z" fill="#2C3639"/>
<path d="M65.78 71.541C65.3645 71.4859 65.0224 71.4492 64.6925 71.3879C64.6427 71.3856 64.5939 71.3734 64.5488 71.3521C64.5038 71.3308 64.4633 71.3008 64.4299 71.2639C64.3964 71.2269 64.3705 71.1837 64.3537 71.1367C64.3369 71.0896 64.3295 71.0397 64.332 70.9899C64.332 70.7572 64.5092 70.6592 64.7047 70.598C64.7534 70.5921 64.8026 70.5921 64.8513 70.598C67.2523 70.7817 69.0546 69.4037 70.9608 68.2463C71.2052 68.0932 71.4435 67.9217 71.6878 67.7625C71.8161 67.6829 71.9628 67.5971 72.0849 67.7625C72.2071 67.9278 72.0849 68.0381 72.0177 68.1605C72.0085 68.1841 71.9939 68.2051 71.975 68.2218C70.0566 69.7222 68.2604 71.3328 65.78 71.541Z" fill="#2C3639"/>
<path d="M42.7776 11.06C42.7872 11.3559 42.6895 11.6452 42.5027 11.8745C41.6365 13.1781 40.5918 14.3532 39.3991 15.3652C39.2158 15.5306 38.9653 15.849 38.7209 15.6408C38.4765 15.4326 38.7759 15.1447 38.9225 14.961C39.8756 13.7852 40.847 12.6278 41.8184 11.4642C41.913 11.3054 42.054 11.1797 42.2223 11.1041C42.3907 11.0285 42.5782 11.0067 42.7593 11.0416L42.7776 11.06Z" fill="#2C3639"/>
<path d="M80.803 37.1856C80.6747 36.2608 80.5587 33.707 80.3815 33.707C80.2043 33.707 79.9966 36.0403 79.7339 37.7551C79.4406 39.6658 79.3184 41.1111 76.4592 41.1723C76.0071 41.1723 76.2393 41.5827 76.4164 41.5827C79.8927 41.6561 79.5506 43.0892 79.8072 44.9019C79.9911 46.1954 80.1094 47.4974 80.1616 48.8029C80.305 48.8466 80.458 48.8466 80.6014 48.8029C80.6014 48.8029 80.8763 44.5773 81.1207 43.132C81.3223 41.9501 82.7642 41.7296 83.9311 41.5092C83.9922 41.5092 84.0655 41.1662 83.8272 41.1417C81.4323 40.86 81.249 40.3456 80.803 37.1856Z" fill="#2C3639"/>
<path d="M7.12886 36.1443C7.00057 35.2257 6.88448 32.6719 6.70731 32.6719C6.53013 32.6719 6.32241 35.0052 6.0597 36.7199C5.76645 38.6307 5.63815 40.0759 2.77891 40.1372C2.33292 40.1372 2.55897 40.5414 2.73614 40.5475C6.21244 40.621 5.87031 42.054 6.13302 43.8667C6.3169 45.1602 6.43518 46.4623 6.48738 47.7678C6.63078 47.8114 6.78386 47.8114 6.92726 47.7678C6.92726 47.7678 7.20217 43.5422 7.44655 42.0969C7.64205 40.9149 9.0839 40.6884 10.2569 40.474C10.318 40.474 10.3852 40.131 10.1531 40.1065C7.73982 39.8248 7.55653 39.3104 7.12886 36.1443Z" fill="#2C3639"/>
<path d="M86.6681 46.7876C86.5704 46.114 86.4849 44.24 86.3566 44.2461C86.2283 44.2522 86.0755 45.9547 85.8861 47.2041C85.6662 48.6065 85.5745 49.6537 83.4851 49.7088C83.1552 49.7088 83.3201 50.0089 83.4545 50.0089C85.9961 50.064 85.7456 51.1173 85.9411 52.4585C86.0633 53.322 86.1733 54.5162 86.1977 55.3124C86.3009 55.346 86.4122 55.346 86.5154 55.3124C86.5154 55.3124 86.717 52.2197 86.9003 51.1663C87.0469 50.2967 88.1222 50.1314 88.9592 49.9415C89.002 49.9415 89.0508 49.6904 88.8798 49.6721C87.1263 49.4822 86.9919 49.1087 86.6681 46.7876Z" fill="#2C3639"/>
<path d="M3.37141 27.522C3.27976 26.8483 3.19423 24.9805 3.06593 24.9805C2.93763 24.9805 2.7849 26.6891 2.58939 27.9384C2.37556 29.3408 2.28392 30.3881 0.188371 30.4432C-0.135432 30.4432 0.029513 30.7433 0.157812 30.7433C2.70547 30.7984 2.45498 31.8517 2.64438 33.1929C2.78033 34.1391 2.86801 35.0916 2.90708 36.0467C3.01038 36.08 3.12147 36.08 3.22477 36.0467C3.22477 36.0467 3.4264 32.9847 3.60357 31.9007C3.7502 31.0311 4.82546 30.8719 5.66246 30.6759C5.71134 30.6759 5.76022 30.4309 5.58915 30.4064C3.83573 30.2227 3.70132 29.8491 3.37141 27.522Z" fill="#2C3639"/>
</svg>
