<svg width="44" height="16" viewBox="0 0 44 16" fill="none" xmlns="http://www.w3.org/2000/svg">
<path d="M30.1873 8.3363C30.2984 8.55993 30.434 8.78485 30.587 9.0075C31.3578 10.132 31.2731 11.55 30.4245 12.6309C30.173 12.9541 29.9545 13.2711 29.8134 13.5531C30.1381 13.4315 30.5013 13.2407 30.8715 13.0211C32.1095 12.2803 33.7337 12.2063 35.0217 12.8793C35.2767 13.0129 35.5343 13.1312 35.7905 13.2282C35.7905 13.2282 35.6504 13.0331 35.4388 12.7483C34.5888 11.6023 34.6081 10.1184 35.5019 8.99795C35.7751 8.65255 36.0132 8.31184 36.1627 8.00968C35.8191 8.14133 35.4294 8.34876 35.0345 8.58664C33.7545 9.36407 32.0595 9.38335 30.7482 8.64656C30.4164 8.46018 30.1873 8.3363 30.1873 8.3363Z" fill="#73A9AD" stroke="#292D32" stroke-miterlimit="10" stroke-linecap="round" stroke-linejoin="round"/>
<path d="M8.40256 13.2284C8.6587 13.1314 8.91632 13.013 9.17135 12.8794C10.4593 12.2064 12.0835 12.2804 13.3215 13.0213C13.6917 13.2409 14.0549 13.4316 14.3778 13.5548C14.2385 13.2713 14.02 12.9542 13.7685 12.631C12.92 11.5501 12.8352 10.1321 13.6061 9.00766C13.7591 8.78501 13.8947 8.56008 14.0058 8.33646C14.0058 8.33646 13.7823 8.45871 13.456 8.64347C12.1434 9.3856 10.4437 9.36876 9.16041 8.58841C8.76479 8.34989 8.37455 8.14197 8.02845 8.01145C8.17924 8.31151 8.41683 8.65174 8.68929 8.99649C9.57976 10.114 9.60184 11.5939 8.75793 12.7387C8.54445 13.0284 8.40256 13.2284 8.40256 13.2284Z" fill="#73A9AD" stroke="#292D32" stroke-miterlimit="10" stroke-linecap="round" stroke-linejoin="round"/>
<path d="M27.6839 7.25787C25.1699 6.78184 23.2202 5.03314 22.7656 2.82222C22.626 2.14296 22.447 1.50365 22.2199 1.00001C21.9918 1.50464 21.8138 2.14542 21.6738 2.82616C21.218 5.0435 19.2587 6.79418 16.7362 7.26527C16.1099 7.38218 15.6846 7.46702 15.6846 7.46702C16.1138 7.61501 16.5753 7.73882 17.0497 7.84291C19.4507 8.36925 21.2451 10.1096 21.7004 12.2351C21.8359 12.8681 22.0064 13.4604 22.2199 13.9331C22.4334 13.4604 22.6035 12.8681 22.7396 12.2351C23.1948 10.1096 24.9892 8.36925 27.3902 7.84291C27.8652 7.73882 28.3261 7.61501 28.7553 7.46702C28.7553 7.46702 28.3221 7.37823 27.6839 7.25787Z" fill="#73A9AD" stroke="#292D32" stroke-miterlimit="10" stroke-linecap="round" stroke-linejoin="round"/>
<path d="M38.4073 9.42687C38.4717 9.55528 38.55 9.6845 38.6358 9.81033C39.0765 10.4522 39.027 11.2598 38.5437 11.8761C38.3999 12.0599 38.2749 12.2403 38.1965 12.4027C38.3806 12.3326 38.5872 12.2234 38.7978 12.0979C39.5037 11.6759 40.4305 11.6343 41.1639 12.0175C41.3099 12.0941 41.456 12.1608 41.6031 12.217C41.6031 12.217 41.5228 12.1057 41.4017 11.9426C40.9177 11.2899 40.9292 10.4443 41.4384 9.80547C41.5938 9.60824 41.7303 9.41457 41.8158 9.24276C41.6194 9.31709 41.3959 9.43448 41.1724 9.57131C40.4424 10.0144 39.4762 10.0255 38.7291 9.60581C38.5377 9.49764 38.4073 9.42687 38.4073 9.42687Z" fill="#73A9AD" stroke="#292D32" stroke-width="0.5" stroke-miterlimit="10" stroke-linecap="round" stroke-linejoin="round"/>
<path d="M1.80968 9.42687C1.87404 9.55528 1.95231 9.6845 2.03819 9.81033C2.47888 10.4522 2.42937 11.2598 1.94602 11.8761C1.80228 12.0599 1.67725 12.2403 1.5988 12.4027C1.78297 12.3326 1.98959 12.2234 2.20011 12.0979C2.90602 11.6759 3.83286 11.6343 4.56623 12.0175C4.71219 12.0941 4.85835 12.1608 5.00543 12.217C5.00543 12.217 4.92511 12.1057 4.804 11.9426C4.32009 11.2899 4.33159 10.4443 4.84072 9.80547C4.99615 9.60824 5.13266 9.41457 5.21816 9.24276C5.02174 9.31709 4.79824 9.43448 4.57474 9.57131C3.84471 10.0144 2.87858 10.0255 2.13148 9.60581C1.94007 9.49764 1.80968 9.42687 1.80968 9.42687Z" fill="#73A9AD" stroke="#292D32" stroke-width="0.5" stroke-miterlimit="10" stroke-linecap="round" stroke-linejoin="round"/>
</svg>
