<svg width="94" height="75" viewBox="0 0 94 75" fill="none" xmlns="http://www.w3.org/2000/svg">
<path d="M48.9956 26.0639C47.8867 25.241 46.6767 24.5612 45.3947 24.041C44.9165 23.8436 44.4238 23.6822 43.9211 23.5582C43.5345 23.4275 43.1255 23.3743 42.718 23.4015C42.3105 23.4288 41.9125 23.5361 41.5472 23.7171C40.8758 24.1093 40.1291 24.3582 39.3551 24.4476C38.581 24.5371 37.7966 24.4652 37.0522 24.2366C36.8438 24.1999 36.646 24.1185 36.4726 23.9982C35.8991 23.3871 35.5662 23.7416 35.2394 24.2427C34.4359 25.5977 34.0601 27.16 34.1603 28.7286C34.2282 31.7843 35.2209 34.7239 35.7512 37.7186C36.0471 39.3931 36.0718 41.0616 35.1346 42.6078C34.4008 43.8301 33.2848 43.8301 32.3907 42.7484C31.8273 41.942 31.4099 41.0444 31.1575 40.096C30.9781 39.5164 30.7512 38.9522 30.4793 38.4092C30.1771 37.798 29.8627 37.8347 29.542 38.4092C29.0792 39.4333 28.8457 40.5446 28.8576 41.6666C28.8206 43.714 29.1659 45.6697 30.4854 47.332C31.5401 48.5905 32.7666 49.6971 34.1295 50.62C35.3015 51.3584 36.3139 52.3202 37.1077 53.4496C38.0942 55.0325 38.4827 56.7254 37.6379 58.4305C36.4047 60.9301 34.4193 61.2418 32.4894 59.225C31.689 58.3388 30.9728 57.3814 30.3498 56.3648C30.0753 55.9571 29.7547 55.5818 29.394 55.2464C29.0549 54.9225 28.611 54.6658 28.1608 54.9164C27.9505 55.0523 27.7871 55.2486 27.6923 55.479C27.5976 55.7094 27.576 55.963 27.6306 56.2059C27.8115 57.4282 28.0026 58.6689 28.204 59.9278C28.9042 63.7251 28.2271 67.6455 26.2926 70.9958C25.8557 71.8824 25.179 72.6314 24.3379 73.1593C24.0721 73.3467 23.7681 73.4741 23.4473 73.5325C23.1265 73.5909 22.7966 73.5789 22.4809 73.4974C22.1653 73.4158 21.8715 73.2666 21.6203 73.0604C21.369 72.8542 21.1665 72.5958 21.0268 72.3036C20.1451 70.8613 20.0649 69.2479 20.1019 67.6406C20.1389 66.0332 20.4102 64.4381 20.3301 62.8186C20.2437 61.089 19.5408 60.6429 17.9808 61.4374C16.4496 62.31 15.047 63.3876 13.8126 64.6398C11.7409 66.5283 9.74309 68.5756 6.80192 69.1501C5.63465 69.415 4.42374 69.4296 3.25032 69.1929C0.438636 68.5817 -0.924021 66.0516 0.691463 63.1303C1.56703 61.5413 3.05302 60.869 4.65618 60.3129C5.45443 60.1204 6.2296 59.8439 6.96842 59.4878C7.44319 59.1944 7.43086 58.9806 6.96842 58.6933C6.70993 58.5814 6.43039 58.5251 6.14833 58.5283C5.23021 58.5017 4.31621 58.3953 3.41681 58.2105C1.14773 57.5077 0.814766 55.6131 2.33159 53.8469C3.1328 52.9884 4.12815 52.3307 5.23578 51.9279C7.00126 51.2796 8.7073 50.4822 10.335 49.5444C12.6192 48.0134 14.5763 46.0508 16.094 43.769C17.3122 42.0748 18.1664 40.1506 18.6036 38.1158C18.7392 37.4313 18.8811 36.7408 18.9551 36.0502C19.0291 35.3596 18.8564 35.2618 18.209 35.549C17.3677 35.9683 16.4983 36.3298 15.6069 36.6307C15.2805 36.7676 14.9205 36.8052 14.5725 36.7388C14.2244 36.6724 13.9042 36.5051 13.6523 36.2579C13.4108 35.98 13.2563 35.6382 13.2081 35.2744C13.1599 34.9107 13.2201 34.5409 13.381 34.2106C13.9701 32.8867 14.7787 31.67 15.7734 30.6109C17.2449 28.938 19.0616 27.5979 21.1008 26.6812C21.3598 26.559 21.7174 26.4734 21.8346 26.1128C21.2321 26.0464 20.6224 26.109 20.0464 26.2962C19.2325 26.4306 18.4371 26.6445 17.6294 26.7912C17.1757 26.8765 16.708 26.8534 16.2651 26.7238C15.8222 26.5941 15.4169 26.3616 15.0828 26.0456C13.9236 24.9944 14.2134 23.6743 15.2308 22.4398C16.3962 21.028 17.9932 20.6491 19.7258 20.7653C20.9296 20.8791 22.1442 20.7498 23.2962 20.3853C24.4481 20.0208 25.5136 19.4286 26.4282 18.6446C27.3531 17.8623 28.1362 16.915 28.9994 16.0594C29.9911 14.996 31.1882 14.1409 32.5195 13.5446C33.8509 12.9483 35.2895 12.623 36.75 12.588C37.5906 12.5031 38.4397 12.5631 39.2596 12.7653C39.5679 12.8631 39.7282 12.6308 39.8762 12.3986C40.9237 10.7154 42.1653 9.15872 43.5758 7.75995C45.2686 5.9776 47.1451 4.3758 49.1745 2.98074C50.2755 2.18587 51.4383 1.47879 52.6521 0.866164C53.1022 0.652261 53.3057 0.145007 53.8853 0.0472228C56.0187 -0.301134 57.5849 1.32452 56.9683 3.3841C56.793 4.01257 56.5662 4.62576 56.29 5.21756C56.1595 5.46312 56.0827 5.73319 56.0647 6.01015C56.0466 6.2871 56.0877 6.56473 56.1852 6.82489C57.081 9.21069 58.4739 11.3826 60.2732 13.1992C60.0001 11.3186 60.2254 9.39986 60.9268 7.63161C62.2155 4.63697 63.9481 1.91735 67.1298 0.603373C70.3114 -0.710603 73.5732 0.224459 76.0273 2.43683C78.1854 4.36195 79.2213 6.94712 80.0105 9.63007C81.0843 13.4042 81.3593 17.3575 80.8182 21.2419C80.7353 21.868 80.5822 22.4829 80.3619 23.0754C80.2078 23.5032 80.3311 23.6866 80.6641 23.931C82.8442 25.4854 84.8076 27.3184 86.5032 29.3825C88.3098 31.6503 89.8566 34.11 91.1154 36.7163C92.3808 39.1186 93.2667 41.6992 93.7421 44.3679C94.1093 46.4138 94.0842 48.51 93.6681 50.5467C93.4166 51.5474 92.9344 52.4766 92.2593 53.2614C91.5842 54.0461 90.7346 54.6649 89.7774 55.0692C87.4747 56.0894 84.9666 56.5724 82.446 56.4809C78.8236 56.4066 75.244 55.6883 71.8776 54.3603C68.7414 53.1839 65.8964 51.3541 63.535 48.9943C62.0158 47.529 60.6522 45.9133 59.4655 44.1723C59.299 43.9279 59.114 43.8301 58.8181 44.0257C56.7982 45.2892 54.4829 46.0134 52.0971 46.128C48.3976 46.4703 44.9878 45.6697 42.1021 43.2006C39.7035 41.1472 38.2176 38.6537 38.5074 35.3901C38.7276 33.8792 39.395 32.467 40.425 31.3321C42.6016 28.6491 45.5427 27.0479 48.9956 26.0639ZM55.1308 7.76605C54.8718 8.14496 54.6683 8.4261 54.5142 8.71335C54.0579 9.45284 53.614 10.1923 53.1638 10.9318C53.1204 11.0234 53.0577 11.1046 52.98 11.1701C52.9022 11.2356 52.8113 11.2839 52.7131 11.3117C52.615 11.3395 52.512 11.3461 52.4111 11.3312C52.3102 11.3163 52.2136 11.2801 52.128 11.2252C51.7395 10.999 51.7827 10.614 52.0046 10.2412C52.4856 9.44062 52.9604 8.63389 53.4598 7.8455C54.3846 6.38262 55.1337 4.81764 55.6919 3.18241C55.8075 2.93532 55.8475 2.66009 55.8069 2.39072C55.7664 2.12135 55.6471 1.86966 55.4638 1.66677C54.9705 1.19007 54.5327 1.3123 54.3477 1.96623C54.2429 2.3207 54.1381 2.68128 54.0271 3.03574C52.8309 6.90433 50.7283 10.2962 48.3112 13.4926C46.2522 16.0862 43.8719 18.4126 41.2265 20.4169C40.3588 21.1264 39.2684 21.5133 38.1436 21.5109C37.945 21.51 37.7485 21.5516 37.5676 21.6328C37.3867 21.714 37.2257 21.8329 37.0953 21.9814C36.676 22.4215 36.6946 22.6598 37.2618 22.8859C37.8299 23.1148 38.4489 23.1907 39.0561 23.106C41.3807 22.7759 43.0208 21.3153 44.55 19.7569C46.5416 17.7217 48.638 15.766 50.235 13.3764C50.2727 13.2896 50.3303 13.2126 50.4031 13.1516C50.4758 13.0905 50.5619 13.047 50.6546 13.0245C50.7472 13.002 50.8438 13.0011 50.9369 13.0219C51.0299 13.0426 51.1168 13.0845 51.1907 13.1442C51.5792 13.4253 51.4929 13.8103 51.3079 14.1465C51.0887 14.5329 50.8349 14.8991 50.5495 15.2404C48.646 17.5237 46.6142 19.6988 44.4637 21.7553C44.2972 21.9142 43.8471 22.1587 44.4205 22.3053C46.4368 22.837 48.1201 23.9432 49.8959 24.9883C51.7786 26.0067 53.2632 27.6203 54.1134 29.5719C54.5327 30.5865 54.9766 31.5887 55.4021 32.6277C56.5457 35.6006 57.8423 38.5135 59.2867 41.3549C60.5793 43.7675 62.2435 45.9655 64.2194 47.8698C65.8206 49.4876 67.6581 50.8576 69.6702 51.934C73.7017 54.031 78.177 55.1515 82.7297 55.2036C84.8455 55.2628 86.9491 54.8666 88.8956 54.0424C90.6283 53.2602 91.9786 52.0684 92.3979 50.18C92.6631 48.8502 92.7254 47.4884 92.5829 46.1403C92.3362 42.8217 91.1277 39.7843 89.6232 36.863C87.9725 33.4269 85.7223 30.3069 82.9763 27.6468C81.4675 26.2041 79.7909 24.9444 77.9819 23.8943C75.016 22.2381 71.7666 21.2603 68.6219 20.0319C67.007 19.3893 65.4338 18.6484 63.9111 17.8134C63.8209 17.7808 63.7386 17.73 63.6693 17.6641C63.6 17.5983 63.5453 17.5188 63.5088 17.4308C63.4722 17.3428 63.4546 17.2482 63.457 17.1531C63.4594 17.058 63.4817 16.9644 63.5227 16.8783C63.72 16.4688 64.1023 16.4566 64.4969 16.6033C64.6387 16.6583 64.762 16.8111 64.9594 16.7194C64.9462 16.6257 64.9235 16.5336 64.8915 16.4444C63.3192 12.6186 63.8248 9.01281 66.0754 5.60259C66.5863 4.78371 67.3105 4.11654 68.1718 3.67135C69.812 2.87685 71.372 3.31687 72.784 4.21526C74.1351 5.12836 75.1722 6.42922 75.756 7.94329C76.6478 10.1767 77.2687 12.5073 77.6058 14.886C77.9289 16.7501 77.8744 18.6594 77.4454 20.5025C77.1001 21.9692 77.0817 21.9387 78.4567 22.6048C78.9931 22.8676 79.1411 22.6415 79.2521 22.1953C79.6339 20.5074 79.7997 18.7785 79.7453 17.0494C79.7475 14.1069 79.2235 11.1874 78.1977 8.4261C77.2975 6.08539 76.1999 3.87303 73.9247 2.5285C71.6495 1.18396 69.3619 0.945604 67.0065 2.15568C65.6842 2.93065 64.568 4.0077 63.7508 5.29701C62.7362 6.60616 62.0509 8.13609 61.7517 9.76007C61.4526 11.3841 61.5481 13.0553 62.0305 14.6354C62.123 14.941 62.2093 15.2466 61.9257 15.4727C61.8052 15.565 61.661 15.6219 61.5095 15.637C61.358 15.6522 61.2053 15.6249 61.0686 15.5582C59.9834 15.2649 59.3853 14.3359 58.7502 13.5964C57.1929 11.8897 55.9659 9.91325 55.1308 7.76605V7.76605ZM21.6558 65.8254C21.5879 66.6872 21.5016 67.2922 21.5078 67.9034C21.446 68.9279 21.582 69.9546 21.9085 70.9286C22.1367 71.4908 22.3649 72.1509 23.0554 72.2181C23.746 72.2853 24.2085 71.7231 24.5723 71.2158C26.5694 68.3783 27.461 64.9194 27.0818 61.4802C26.9338 59.6834 26.4652 57.9477 26.3357 56.157C26.2828 55.6752 26.3709 55.1885 26.5896 54.755C26.8083 54.3215 27.1482 53.9595 27.5689 53.7124C27.9126 53.5255 28.3031 53.4399 28.6943 53.4659C29.0854 53.4919 29.4609 53.6283 29.7763 53.8591C30.2684 54.19 30.6983 54.6037 31.0465 55.0814C31.9406 56.1876 32.5448 57.526 33.6239 58.4733C34.8571 59.5978 35.93 59.3656 36.4787 57.7705C36.7441 56.9159 36.7385 56.0013 36.4629 55.1499C36.1872 54.2986 35.6547 53.5515 34.9372 53.0096C33.9137 52.1601 32.8162 51.3962 31.7803 50.565C30.2696 49.3427 28.8761 47.9737 28.1917 46.0791C27.5375 44.3227 27.3259 42.4346 27.5751 40.5788C27.6425 39.4799 27.9699 38.4122 28.5308 37.4619C28.6452 37.2718 28.7969 37.1063 28.9769 36.9752C29.157 36.8442 29.3617 36.7502 29.579 36.699C29.7963 36.6477 30.0217 36.6401 30.242 36.6767C30.4623 36.7132 30.673 36.7932 30.8615 36.9119C31.3543 37.2764 31.7257 37.7787 31.9282 38.3542C32.4585 39.3993 32.5448 40.5971 33.1614 41.6116C33.2971 41.8316 33.3958 42.1678 33.6486 42.1556C33.9014 42.1433 34.0062 41.7705 34.1295 41.5444C34.6968 40.3588 34.5241 39.1303 34.3268 37.908C33.9384 35.5184 33.1306 33.2144 32.884 30.7881C32.6805 28.7347 32.5757 26.6934 33.4266 24.7377C34.1603 23.0265 35.5107 21.7675 36.7069 20.3986C36.8222 20.296 36.962 20.2243 37.113 20.19C37.264 20.1558 37.4213 20.1603 37.5701 20.203C38.5872 20.278 39.5961 19.9752 40.4003 19.3535C41.4208 18.6116 42.3834 17.7944 43.2798 16.9089C44.0937 16.1511 44.1184 16.0961 43.1997 15.4543C43.0475 15.3474 42.8816 15.261 42.7064 15.1977C40.794 14.4155 38.7448 14.0147 36.6761 14.0181C33.741 14.1098 31.4596 15.4299 29.5112 17.4528C28.5045 18.5956 27.3849 19.6357 26.1693 20.5575C24.2325 21.8349 21.9131 22.4172 19.5963 22.2076C17.7897 22.0976 16.4332 22.7393 15.8351 23.9921C15.7495 24.1119 15.6944 24.2504 15.6745 24.3958C15.6546 24.5413 15.6705 24.6893 15.7207 24.8274C15.771 24.9654 15.8542 25.0894 15.9632 25.1887C16.0722 25.288 16.2039 25.3597 16.3469 25.3978C16.748 25.6023 17.2107 25.6544 17.6479 25.5445C18.1042 25.4283 18.5604 25.2878 19.0229 25.2083C19.9909 25.0433 20.9467 24.7072 21.9455 24.8416C22.2434 24.8485 22.5314 24.9485 22.7684 25.1274C23.0055 25.3064 23.1793 25.555 23.2651 25.8378C23.3491 26.125 23.334 26.4318 23.2224 26.7097C23.1107 26.9875 22.9087 27.2205 22.6485 27.3718C22.1983 27.6693 21.7287 27.9367 21.2426 28.1724C18.4271 29.5285 16.1284 31.7491 14.6882 34.5039C14.5341 34.7789 14.3984 35.1151 14.5895 35.3596C14.7807 35.604 15.1075 35.4084 15.3665 35.3596C16.3592 35.1212 17.2163 34.5162 18.1597 34.2106C19.2819 33.8622 19.9046 34.2411 20.1636 35.3657C20.4226 36.4902 20.0403 37.358 19.8738 38.3359C19.4474 40.5612 18.5409 42.6689 17.2163 44.5146C15.6587 46.8819 13.6602 48.9333 11.3278 50.5589C9.48579 51.6878 7.53362 52.6297 5.50091 53.3702C4.67172 53.6468 3.9299 54.1335 3.34899 54.7819C2.99137 55.2403 2.49192 55.7109 2.76939 56.3343C3.04686 56.9576 3.73127 57.0982 4.3787 57.1593C5.15561 57.2327 5.9387 57.2265 6.70328 57.3549C7.10527 57.3845 7.49106 57.5241 7.81767 57.7583C8.14428 57.9925 8.39888 58.3119 8.55307 58.6811C8.67557 58.9755 8.69976 59.3011 8.62209 59.6101C8.54443 59.9191 8.36898 60.1954 8.12145 60.3984C7.69511 60.7682 7.19515 61.0452 6.65394 61.2113C5.69822 61.5413 4.71785 61.7919 3.78679 62.1891C3.14105 62.4544 2.57501 62.8799 2.14309 63.4247C1.71116 63.9695 1.42786 64.6152 1.3204 65.2999C1.22484 65.6774 1.24736 66.0749 1.38502 66.4395C1.52268 66.804 1.76896 67.1185 2.09115 67.3411C3.71897 68.4901 5.47623 68.2884 7.2212 67.7445C9.79858 66.9377 11.5374 64.9759 13.3872 63.2158C14.6835 61.8898 16.2267 60.8251 17.9315 60.0806C19.8306 59.335 21.2057 60.1173 21.514 62.1219C21.7124 63.3379 21.7601 64.5735 21.6558 65.801V65.8254ZM70.1511 4.64308C69.8583 4.595 69.5586 4.60766 69.271 4.68025C68.9834 4.75283 68.7141 4.88376 68.4801 5.06477C67.6822 5.64796 67.0459 6.42159 66.6303 7.3138C65.7597 8.83248 65.3154 10.5546 65.3436 12.3011C65.3718 14.0476 65.8715 15.7547 66.7907 17.245C67.0958 17.7965 67.6038 18.2103 68.2088 18.4001L69.59 18.9257C71.4953 19.6591 73.3944 20.3925 75.3059 21.1136C75.534 21.2053 75.8238 21.3703 75.9225 20.9547C76.2322 19.8799 76.4082 18.7716 76.4466 17.6545C76.415 16.2377 76.2435 14.8274 75.9348 13.4437C75.46 11.323 74.9914 9.20837 73.863 7.33214C73.0121 5.86537 71.8899 4.80809 70.1511 4.64308ZM52.1156 29.7003C51.8813 29.7003 51.647 29.7369 51.4189 29.7675C49.5691 30.0059 48.0584 30.9226 46.5416 31.8638C45.3346 32.5737 44.4031 33.6649 43.8964 34.9623C43.0085 37.3213 44.0691 39.5337 46.2765 40.9516C47.8801 41.8923 49.7233 42.3548 51.5854 42.2839C53.3598 42.3249 55.1079 41.8535 56.6168 40.9271C57.0793 40.6399 57.2766 40.3588 56.9991 39.7965C56.0002 37.8103 55.2603 35.714 54.3909 33.685C53.9408 32.6338 53.5215 31.5643 53.0652 30.5131C52.8926 30.1036 52.7137 29.6575 52.1156 29.7003ZM50.679 43.5612C47.929 43.3779 45.4071 42.6567 43.6189 40.3588C42.9738 39.5935 42.5344 38.679 42.3414 37.7002C42.1485 36.7215 42.2083 35.7103 42.5152 34.7606C43.0948 32.8966 44.439 31.6254 46.0113 30.5987C47.5812 29.4711 49.3947 28.722 51.3079 28.4108C51.4497 28.4108 51.684 28.4108 51.7149 28.1969C51.7457 27.983 51.5422 27.9402 51.425 27.8302C51.1788 27.5904 50.8717 27.4211 50.5362 27.3404C50.2008 27.2597 49.8495 27.2706 49.5198 27.3718C46.2641 28.1785 43.4093 29.6453 41.3499 32.3771C40.3571 33.6911 39.5926 35.0968 39.8515 36.8263C40.3325 40.041 42.3179 42.1311 45.0988 43.5979C47.2289 44.7228 49.6635 45.1507 52.054 44.8202C54.1241 44.6439 56.1342 44.0402 57.9548 43.0478C58.4604 42.7484 58.3309 42.4795 58.146 42.0822C57.9178 41.5811 57.6465 41.8683 57.4307 42.0089C55.4349 43.2987 53.0444 43.8504 50.679 43.5673V43.5612ZM52.8001 2.28404C51.0417 3.30063 49.3601 4.44241 47.7686 5.70037C46.5744 6.64488 45.4626 7.68751 44.4452 8.81723C43.2708 9.93327 42.2358 11.1849 41.3622 12.5453C41.134 12.9425 41.1032 13.1197 41.6397 13.2664C42.6507 13.4891 43.6001 13.9293 44.4205 14.556C45.1173 15.1304 45.1234 15.0999 45.7462 14.4032C47.6458 12.2338 49.2999 9.86469 50.679 7.33826C51.5834 5.74389 52.2954 4.04952 52.8001 2.29014V2.28404Z" fill="#2C3639"/>
<path d="M8.1274 46.2988C7.40933 46.2718 6.70514 46.0944 6.06114 45.7784C5.41714 45.4624 4.84791 45.0149 4.39083 44.4653C2.99115 42.7786 3.70641 40.7618 5.24173 39.6739C6.35025 38.9427 7.68942 38.6364 9.00913 38.8122C10.5383 38.9405 12.0921 39.0383 13.5041 38.3355C14.1577 38.0177 14.7867 37.6449 15.4218 37.2965C15.7917 37.0887 16.1863 36.8321 16.5871 37.1621C16.7565 37.3245 16.8816 37.5269 16.9506 37.7503C17.0196 37.9737 17.0303 38.2108 16.9817 38.4394C16.6517 40.5311 15.5806 42.4378 13.9604 43.8175C12.8094 44.994 11.348 45.8262 9.74288 46.2194C9.21294 46.3372 8.66652 46.3641 8.1274 46.2988ZM15.3786 38.8672C14.9593 39.0933 14.5338 39.3317 14.1022 39.5517C12.8408 40.13 11.4472 40.3661 10.0635 40.2362C9.0388 40.0923 7.99713 40.1171 6.98054 40.3095C6.50863 40.4233 6.07707 40.6628 5.73256 41.0021C5.38805 41.3414 5.14368 41.7676 5.0259 42.2347C4.95743 42.5448 4.97902 42.8679 5.08815 43.1664C5.19727 43.4649 5.38946 43.7267 5.6425 43.9214C6.12821 44.377 6.7208 44.7056 7.36671 44.8774C8.01261 45.0492 8.69149 45.0588 9.34208 44.9054C12.3079 44.2331 14.1269 42.2224 15.3169 39.57C15.3971 39.3867 15.6006 39.1789 15.3786 38.8672Z" fill="#2C3639"/>
<path d="M35.3381 66.9381C35.2651 68.2325 34.7372 69.4606 33.8459 70.4095C33.477 70.8531 32.9754 71.169 32.4135 71.3118C31.8517 71.4546 31.2586 71.4169 30.7198 71.204C30.1601 70.919 29.7186 70.4489 29.472 69.8751C29.2253 69.3014 29.1891 68.6601 29.3694 68.0626C29.9233 65.8435 30.0239 63.5371 29.6654 61.2789C29.5791 60.6983 29.4681 60.0566 30.023 59.6654C30.578 59.2743 31.1514 59.7449 31.6077 60.0871C33.5087 61.4927 34.8352 63.5299 35.3443 65.8258C35.3885 66.1954 35.3865 66.569 35.3381 66.9381V66.9381ZM31.2254 65.0252C31.1861 65.5594 31.1099 66.0904 30.9972 66.6142C30.8298 67.34 30.7206 68.0777 30.6705 68.8205C30.6305 69.0426 30.6642 69.2716 30.7665 69.4732C30.8687 69.6748 31.034 69.8381 31.2377 69.9389C31.4141 70.0375 31.6162 70.082 31.8181 70.0668C32.0201 70.0515 32.2129 69.9773 32.3723 69.8533C32.9091 69.4735 33.3412 68.9661 33.6288 68.3778C33.9165 67.7894 34.0505 67.1389 34.0186 66.4859C33.9199 64.6035 32.7854 63.1979 31.6262 61.8533C31.5029 61.7128 31.3857 61.4805 31.1884 61.5539C30.9911 61.6272 31.0466 61.9084 31.0713 62.1039C31.2519 63.0667 31.3037 64.049 31.2254 65.0252V65.0252Z" fill="#2C3639"/>
<path d="M11.5744 74.992C11.1418 74.9719 10.7208 74.8473 10.3479 74.629C9.97497 74.4108 9.66154 74.1056 9.43483 73.7399C9.20811 73.3742 9.07499 72.9591 9.04704 72.5308C9.0191 72.1025 9.09716 71.6739 9.27447 71.2823C9.6052 70.4091 10.1398 69.6258 10.8345 68.9966C12.084 67.8654 13.4597 66.8791 14.9348 66.057C15.3418 65.8247 15.6809 65.4886 16.0817 65.2503C16.2667 65.1255 16.4818 65.0516 16.7051 65.0362C16.9283 65.0208 17.1517 65.0645 17.3524 65.1627C17.5531 65.2609 17.7238 65.4101 17.8472 65.5952C17.9706 65.7802 18.0423 65.9944 18.0548 66.2159C18.1153 67.2158 17.9401 68.216 17.5431 69.1372C16.7291 71.4412 15.4281 73.3786 13.2269 74.5947C12.7314 74.8949 12.1535 75.0338 11.5744 74.992V74.992ZM16.7908 66.4359C15.3233 67.3832 13.9853 68.1838 12.7213 69.0883C11.7286 69.7275 10.9664 70.6627 10.5447 71.759C10.4077 72.0184 10.3648 72.3166 10.4231 72.6037C10.4815 72.8907 10.6376 73.1492 10.8653 73.3358C11.1025 73.5336 11.3999 73.6465 11.7097 73.6565C12.0195 73.6665 12.3237 73.5729 12.5733 73.3908C15.1383 71.869 16.2975 69.4855 16.7908 66.4542V66.4359Z" fill="#2C3639"/>
<path d="M39.802 52.74C39.3017 52.7141 38.8116 52.5894 38.3605 52.3732C37.9094 52.157 37.5065 51.8537 37.1753 51.481C35.9719 50.2631 34.9484 48.8825 34.1355 47.3802C33.9464 47.1243 33.8389 46.8182 33.8268 46.5012C33.8147 46.1843 33.8986 45.871 34.0677 45.6017C34.2556 45.3547 34.515 45.1703 34.8113 45.0731C35.1077 44.9759 35.4269 44.9706 35.7263 45.0578C37.9892 45.5773 40.1597 46.329 41.7012 48.2174C42.6137 49.3297 42.8172 50.7232 42.2006 51.646C41.9593 52.0474 41.6009 52.3668 41.1727 52.5621C40.7444 52.7574 40.2665 52.8194 39.802 52.74V52.74ZM41.1955 50.3381C41.121 49.6857 40.8072 49.0833 40.3138 48.6452C39.0806 47.4229 37.4466 46.9218 35.8311 46.4145C35.6832 46.3718 35.492 46.3106 35.3687 46.4512C35.2454 46.5918 35.3687 46.7873 35.4489 46.9524C35.9475 47.8445 36.5187 48.6947 37.1568 49.4948C37.7445 50.4064 38.6374 51.0836 39.6787 51.4076C39.8526 51.4675 40.0383 51.4857 40.2206 51.4608C40.4029 51.4358 40.5767 51.3684 40.7277 51.2641C40.8787 51.1597 41.0026 51.0214 41.0893 50.8605C41.1759 50.6995 41.2229 50.5205 41.2264 50.3381H41.1955Z" fill="#2C3639"/>
<path d="M86.3 31.9619C86.3925 31.6013 86.4665 31.2896 86.559 30.9718C86.6083 30.7885 86.6884 30.5929 86.9289 30.6235C87.1694 30.6541 87.2125 30.8496 87.231 31.0452C87.2483 31.536 87.1709 32.0255 87.0029 32.4875C86.8102 33.1657 86.4947 33.8035 86.0718 34.3699C83.4821 37.6701 81.1761 41.1964 78.2781 44.2583C76.7692 45.967 75.085 47.5154 73.2528 48.8786C72.6362 49.2942 70.9591 48.7075 70.7864 48.0047C70.7671 47.9626 70.762 47.9154 70.772 47.8702C70.782 47.825 70.8066 47.7843 70.8419 47.7541C70.8987 47.7114 70.968 47.6884 71.0392 47.6884C71.1104 47.6884 71.1797 47.7114 71.2365 47.7541C71.5756 47.9619 71.9086 48.1819 72.2539 48.3652C72.5019 48.432 72.7655 48.412 73.0003 48.3084C73.2351 48.2048 73.4266 48.0242 73.5426 47.7968C73.5426 47.6196 73.4255 47.5646 73.3083 47.4913C73.0185 47.2896 72.6917 47.1062 72.4389 46.8801C72.2786 46.7579 72.0751 46.5807 72.2231 46.3545C72.3711 46.1284 72.5992 46.2995 72.7718 46.4034C73.1171 46.599 73.4563 46.8068 73.7954 47.0146C74.0236 47.1612 74.2517 47.2101 74.412 46.9657C74.5723 46.7212 74.3072 46.5562 74.1345 46.4523C72.2348 45.358 70.4751 44.0406 68.8935 42.5287C68.8256 42.4615 68.7516 42.4065 68.69 42.3393C68.6283 42.272 68.3508 42.0581 68.505 41.8687C68.6591 41.6792 68.8873 41.8687 69.0538 41.9665C69.2203 42.0643 69.3867 42.2293 69.5532 42.3576C71.1709 43.6496 72.8837 44.8202 74.6771 45.8595C74.9361 46.0184 75.1828 46.214 75.4972 45.9267C75.8117 45.6395 75.9535 45.4317 75.4047 45.1995C74.0332 44.6216 72.757 43.8429 71.6188 42.8893C71.44 42.7365 71.0577 42.5837 71.255 42.3087C71.4523 42.0337 71.7668 42.3087 71.9764 42.4493C73.2357 43.3155 74.5429 44.1112 75.8918 44.8328C76.2309 45.0039 76.5084 45.0344 76.6564 44.6922C76.8044 44.35 76.4036 44.3438 76.231 44.2277C75.861 43.9771 75.454 43.7816 75.0902 43.531C74.8806 43.3843 74.4737 43.2499 74.6895 42.9199C74.9053 42.5898 75.1643 42.8832 75.3862 42.9932C75.8802 43.214 76.3618 43.4608 76.8291 43.7327C77.2422 43.9955 77.4827 43.8794 77.7786 43.5432C80.4238 40.5792 82.7114 37.3401 85.1778 34.2293C85.4738 33.8626 85.4244 33.6181 85.0915 33.2942C83.7658 31.9619 82.4771 30.599 81.1822 29.2362C81.0342 29.0773 80.7383 28.8939 80.9849 28.6617C81.2316 28.4295 81.4165 28.7167 81.6015 28.8573C82.8898 29.9885 84.1029 31.2011 85.2333 32.4875L85.5601 32.8603C85.6402 32.9398 85.7327 33.062 85.856 32.9703C85.9794 32.8787 85.9054 32.7198 85.8129 32.6097C85.4922 32.2369 85.1531 31.8764 84.8386 31.4974C83.5732 29.9947 82.2205 28.5663 80.7876 27.2194C80.6644 27.1095 80.5471 26.9932 80.4362 26.871C80.3067 26.7182 80.0415 26.5655 80.2142 26.3454C80.3868 26.1254 80.652 26.2843 80.8308 26.4188C82.0661 27.3979 83.2132 28.4817 84.259 29.6579C84.8941 30.4035 85.5662 31.1491 86.3 31.9619Z" fill="#2C3639"/>
<path d="M79.6468 44.9797C79.0302 45.6275 78.3581 46.2753 77.6984 46.917C77.3778 47.2287 77.4764 47.4121 77.8402 47.5893C78.5801 47.9499 79.3139 48.3227 80.0414 48.7138C80.2573 48.836 80.695 48.9155 80.5224 49.2639C80.3497 49.6122 80.0106 49.3555 79.7516 49.2639C78.841 48.9403 77.9584 48.5437 77.1126 48.0782C76.8783 47.9499 76.6687 47.8154 76.3912 47.956C76.2432 48.0354 76.0582 48.0721 75.9657 47.8643C75.8733 47.6565 76.0459 47.5648 76.1569 47.4548C79.4922 44.0473 82.5498 40.3832 85.301 36.4969C86.1288 35.3878 86.7932 34.1675 87.2741 32.8728C87.3543 32.6344 87.3974 32.2005 87.7674 32.3105C88.1373 32.4205 88.0819 32.8422 87.9524 33.105C87.4345 34.1379 87.8352 34.9385 88.458 35.7696C89.4865 37.2604 90.3155 38.8772 90.9244 40.5794C91.0045 40.7933 91.1525 41.0744 90.8874 41.1905C90.6222 41.3067 90.4496 41.0072 90.3386 40.7994C89.6225 39.2219 88.8176 37.6855 87.9277 36.1974C87.7604 35.8657 87.5277 35.5706 87.2433 35.3296C87.1138 35.6535 87.3296 35.8246 87.4406 36.008C88.1709 37.2367 88.8377 38.5013 89.4384 39.7971C89.5309 39.9927 89.7405 40.2555 89.4877 40.4083C89.2349 40.5611 89.0191 40.2738 88.8711 40.0721C88.2545 38.9354 87.5886 37.7803 86.9535 36.6375C86.7932 36.3441 86.6575 36.0263 86.3369 36.5152C84.3937 39.3334 82.266 42.0222 79.9675 44.5641C79.9305 44.6241 79.8995 44.6876 79.8749 44.7536L79.6468 44.9797Z" fill="#2C3639"/>
<path d="M67.5616 24.6104C68.3077 24.6784 69.032 24.8954 69.6912 25.2483C70.3503 25.6012 70.9305 26.0827 71.3969 26.6639C71.8408 27.1467 72.2848 27.6356 72.6856 28.1551C73.0071 28.6235 73.4595 28.9888 73.9875 29.2059C74.5154 29.423 75.0959 29.4826 75.6576 29.3774C76.9762 29.1485 78.3329 29.4403 79.4373 30.1902C79.7024 30.3735 80.0539 30.5508 79.8751 30.948C79.6963 31.3453 79.351 31.2047 79.0612 31.0886C77.7967 30.6175 76.4298 30.4826 75.0964 30.6975C73.6043 30.9053 72.4759 30.123 71.5017 29.0901C70.9591 28.5157 70.4658 27.8678 69.8862 27.33C69.3468 26.7834 68.6684 26.3914 67.9227 26.1956C67.1771 25.9998 66.3918 26.0075 65.6502 26.2177C65.0952 26.34 64.5588 26.5233 64.01 26.6517C63.7017 26.7311 63.3195 26.9083 63.1283 26.505C62.9372 26.1016 63.2701 25.8021 63.5969 25.6127C64.7743 24.8622 66.1655 24.5105 67.5616 24.6104V24.6104Z" fill="#2C3639"/>
<path d="M66.2788 28.2272C65.1542 28.1074 64.0167 28.2071 62.9307 28.5206C62.6779 28.5817 62.3881 28.6245 62.2524 28.325C62.1168 28.0255 62.3141 27.8483 62.5423 27.7138C64.6325 26.2287 68.8007 26.8216 70.3545 28.8322C70.5395 29.0767 70.7122 29.3273 70.8725 29.584C71.9762 31.3563 73.641 31.7841 75.5771 31.4847C76.7363 31.3074 77.84 31.2952 78.7958 32.0958C79.0671 32.3219 79.4432 32.5481 79.2089 32.9453C78.9746 33.3425 78.5923 33.1225 78.3271 32.982C77.3944 32.5629 76.335 32.5147 75.3675 32.8475C74.3628 33.0668 73.315 32.9838 72.3583 32.6093C71.4015 32.2347 70.5793 31.5857 69.9969 30.7452L69.5591 30.1034C68.7576 28.8628 67.6908 28.105 66.2788 28.2272Z" fill="#2C3639"/>
<path d="M68.4737 49.941C68.412 50.1794 68.2517 50.1488 68.0852 50.0938C67.6205 49.9253 67.184 49.6883 66.7904 49.391C64.5674 47.7929 62.729 45.7266 61.4075 43.3406C59.3512 39.7193 57.5126 35.9807 55.9012 32.1443C55.32 30.7394 54.655 29.3701 53.9096 28.0435C53.7987 27.854 53.5643 27.5851 53.811 27.4324C54.0576 27.2796 54.2303 27.6035 54.3659 27.7868C55.4976 29.4274 56.4406 31.1883 57.1776 33.0366C58.7656 36.7076 60.6202 40.2596 62.727 43.6645C64.1332 45.8871 65.9217 47.848 68.0112 49.4582C68.2085 49.5744 68.4305 49.6844 68.4737 49.941Z" fill="#2C3639"/>
<path d="M65.1936 29.2241C65.8981 29.3053 66.5789 29.5263 67.1955 29.8738C67.812 30.2214 68.3516 30.6884 68.7822 31.247C69.4514 32.0948 70.2528 32.8313 71.1561 33.4288C71.6653 33.7476 72.2378 33.9541 72.8346 34.0342C73.4315 34.1144 74.0388 34.0663 74.6152 33.8933C75.5031 33.6488 76.391 33.386 77.3097 33.7833C77.4835 33.8537 77.6524 33.9353 77.8154 34.0277C77.9942 34.1439 78.1668 34.2967 78.099 34.5472C78.0856 34.5992 78.0616 34.6478 78.0285 34.6902C77.9954 34.7326 77.9538 34.7678 77.9064 34.7936C77.859 34.8194 77.8067 34.8352 77.7529 34.8401C77.699 34.8451 77.6447 34.839 77.5934 34.8223C76.3602 34.425 75.2442 34.9995 74.0788 35.2256C71.933 35.6412 70.2929 34.6145 68.85 33.1905C68.2951 32.6527 67.8388 32.0232 67.2777 31.4854C66.8543 31.0751 66.3443 30.763 65.7845 30.5718C65.2247 30.3805 64.6291 30.3147 64.0406 30.3792C63.9246 30.4004 63.807 30.4127 63.6891 30.4159C63.3315 30.3792 62.7889 30.7092 62.6717 30.1347C62.5546 29.5602 63.128 29.5236 63.5165 29.3891C64.0589 29.2243 64.629 29.1682 65.1936 29.2241V29.2241Z" fill="#2C3639"/>
<path d="M5.11233 67.4626C4.21373 67.4087 3.33422 67.1825 2.52262 66.7964C2.01741 66.5839 1.60294 66.2032 1.35077 65.72C1.09859 65.2369 1.02456 64.6816 1.14145 64.1501C1.21544 63.8934 1.28325 63.539 1.63472 63.539C1.98618 63.539 1.86286 63.9423 1.86902 64.1501C1.83416 64.5732 1.94848 64.9952 2.19249 65.344C2.4365 65.6929 2.79511 65.947 3.20707 66.063C5.5378 67.047 7.4924 66.2769 9.28053 64.804C10.8035 63.5817 12.1292 62.0722 13.7879 60.9782C14.5529 60.4024 15.3801 59.9125 16.2542 59.5176C16.4454 59.4504 16.6982 59.3098 16.8215 59.5543C16.9448 59.7987 16.6735 59.9148 16.507 60.0187C14.3798 61.4497 12.4139 63.1032 10.6432 64.9507C9.73097 65.8706 8.63745 66.5946 7.43074 67.0775C6.70617 67.4077 5.90592 67.5406 5.11233 67.4626V67.4626Z" fill="#2C3639"/>
<path d="M23.4627 69.7369C23.1359 69.6207 23.1297 69.4252 23.3147 69.2479C25.1213 67.5489 24.6219 65.2632 24.8007 63.1914C24.9549 61.4374 24.5109 59.659 24.7267 57.8805C24.8908 56.5577 25.246 55.2652 25.7811 54.0425C25.8802 53.8278 26 53.6232 26.1387 53.4313C26.2189 53.3152 26.336 53.2052 26.4963 53.2724C26.6567 53.3397 26.6382 53.5352 26.5703 53.688C25.5036 56.0593 25.4975 58.5283 25.8243 61.0218C26.0948 63.2548 25.9294 65.5185 25.3371 67.6895C25.1158 68.4673 24.5926 69.1266 23.882 69.523C23.7478 69.6045 23.6076 69.676 23.4627 69.7369V69.7369Z" fill="#2C3639"/>
<path d="M77.6365 54.3303C75.9024 53.9773 74.2144 53.4299 72.6051 52.6986C72.4215 52.5735 72.2018 52.5111 71.9792 52.5211C71.7566 52.531 71.5434 52.6126 71.3719 52.7536C71.0813 52.9585 70.7449 53.0906 70.3915 53.1386C70.3462 53.1527 70.2985 53.1577 70.2512 53.1533C70.2039 53.1489 70.1579 53.1352 70.116 53.113C70.0741 53.0908 70.0371 53.0606 70.0071 53.024C69.9771 52.9875 69.9548 52.9454 69.9414 52.9002C69.9184 52.82 69.9281 52.734 69.9685 52.6609C70.0089 52.5877 70.0767 52.5332 70.1572 52.5091C71.5076 51.898 72.5558 50.804 73.8136 50.0278C73.9221 49.9373 74.0521 49.8758 74.1913 49.8491C74.3305 49.8223 74.4743 49.8313 74.6091 49.8751C75.4312 50.2051 76.2327 50.5412 77.0138 50.8834C77.1617 50.9507 77.3406 51.0546 77.2851 51.244C77.2296 51.4335 76.9768 51.4274 76.8041 51.3724C76.1875 51.1646 75.5709 50.9323 74.9544 50.7184C74.7796 50.6495 74.6004 50.5923 74.4179 50.5473C74.3263 50.5158 74.2259 50.5212 74.1382 50.5623C74.0506 50.6035 73.9827 50.6771 73.9493 50.7673C73.8321 51.0607 74.1343 51.0485 74.2761 51.0974C75.7682 51.6046 77.2666 52.0996 78.7587 52.5947C79.0054 52.6802 79.2582 52.7475 79.4925 52.8391C79.7268 52.9308 79.8501 52.9553 79.807 53.1631C79.7638 53.3708 79.5541 53.3586 79.4 53.3403C79.0717 53.3051 78.7463 53.2479 78.4258 53.1692C76.8411 52.7291 75.2441 52.3135 73.7026 51.7391L73.3697 51.6168C73.1477 51.5496 72.9072 51.5496 72.8271 51.788C72.7469 52.0263 73.0429 52.063 73.1909 52.118C74.5348 52.6836 75.9076 53.1793 77.3036 53.6031C77.4623 53.6436 77.6188 53.6926 77.7722 53.7498C78.0373 53.8659 78.5368 53.8536 78.4443 54.2081C78.3518 54.5626 77.9078 54.2325 77.6365 54.3303Z" fill="#2C3639"/>
<path d="M69.7691 49.085C69.6889 49.3845 69.4608 49.3234 69.2635 49.2501C68.8377 49.0512 68.4398 48.7986 68.0796 48.4983C65.829 46.8238 64.2444 44.587 62.7214 42.3013C61.2045 39.8492 59.8552 37.2991 58.6827 34.668C58.6025 34.4908 58.4175 34.2463 58.6827 34.118C58.9478 33.9896 59.0403 34.2768 59.1389 34.4541C60.1748 36.2875 61.1799 38.121 62.2528 39.9544C64.1236 43.2104 66.5331 46.1316 69.3806 48.5961C69.5348 48.7306 69.7321 48.8406 69.7691 49.085Z" fill="#2C3639"/>
<path d="M32.1376 34.5285C32.2856 34.1619 31.8231 33.514 32.4089 33.459C32.8652 33.4163 32.7418 34.0702 32.822 34.443C33.0328 35.3031 33.3069 36.1467 33.6421 36.9671C34.3578 38.6089 34.4861 40.4439 34.0058 42.1679C33.9257 42.4185 33.938 42.8219 33.5557 42.7791C33.1734 42.7363 33.1981 42.3329 33.2043 42.0335C33.2969 41.2709 33.3463 40.5037 33.3523 39.7356C33.3429 39.4974 33.3035 39.2612 33.2351 39.0327C33.1919 39.7111 33.007 40.3589 32.9021 41.0251C32.9021 41.2451 32.9021 41.569 32.5753 41.5385C32.2485 41.5079 32.3041 41.184 32.3041 40.9701C32.3041 40.0656 32.6617 39.1733 32.4274 38.2566L31.595 35.0725C31.5599 34.9612 31.5372 34.8464 31.5271 34.7302C31.5271 34.4491 31.2497 34.0457 31.6196 33.9235C31.9896 33.8013 31.9094 34.3513 32.1376 34.5285Z" fill="#2C3639"/>
<path d="M92.2378 40.8414C91.9455 42.3747 91.2951 43.8189 90.3387 45.0584C88.7918 47.2125 87.0001 49.1831 84.999 50.9315C84.8325 51.0782 84.6352 51.341 84.3824 51.1332C84.1296 50.9254 84.3269 50.6504 84.4934 50.461C85.5354 49.2387 86.7316 48.1936 87.712 46.9224C89.1487 45.0889 90.5854 43.2066 91.4116 40.9698C91.4406 40.882 91.4799 40.7979 91.5288 40.7192C91.6398 40.5481 91.7199 40.2914 91.985 40.3586C92.2502 40.4259 92.2378 40.7009 92.2378 40.8414Z" fill="#2C3639"/>
<path d="M15.0952 35.6654C14.927 35.6578 14.7626 35.6132 14.614 35.5349C14.4653 35.4565 14.3361 35.3464 14.2358 35.2124C14.1354 35.0784 14.0664 34.9239 14.0338 34.7602C14.0011 34.5965 14.0056 34.4277 14.0469 34.2659C14.0963 34.1009 14.1703 33.9481 14.3676 33.942C14.5649 33.9359 14.5896 34.0764 14.6451 34.2109C14.9472 34.932 15.1506 35.0054 15.8166 34.5959C16.5127 34.0753 17.1682 33.5032 17.7773 32.8847C18.3485 32.3251 18.9961 31.8479 19.7012 31.4668C19.9749 31.2999 20.2944 31.2219 20.615 31.2439C20.9356 31.2658 21.2413 31.3865 21.4893 31.589C21.7487 31.8294 21.9504 32.1244 22.0795 32.4523C22.2086 32.7802 22.2619 33.1326 22.2354 33.4836C22.2414 33.5302 22.238 33.5776 22.2254 33.6228C22.2128 33.6681 22.1912 33.7105 22.162 33.7475C22.1327 33.7844 22.0963 33.8153 22.0549 33.8382C22.0136 33.8611 21.968 33.8756 21.9209 33.8809C21.7236 33.8809 21.6373 33.7464 21.5694 33.5936C21.5016 33.4408 21.4091 33.1536 21.3166 32.9397C20.9467 32.0718 20.5521 31.9313 19.7258 32.4263C19.0166 32.8913 18.3629 33.4346 17.7773 34.0459C17.3015 34.5342 16.7673 34.9632 16.1866 35.3232C15.8638 35.5394 15.4847 35.6583 15.0952 35.6654V35.6654Z" fill="#2C3639"/>
<path d="M61.5372 15.3861C61.2059 16.6236 60.6592 17.7942 59.9218 18.8453C59.0942 20.1277 58.1174 21.3092 57.0114 22.3655C56.8965 22.4831 56.7706 22.5895 56.6353 22.6833C56.4318 22.8055 56.2098 23.105 55.9694 22.8239C55.7289 22.5427 56.0249 22.3961 56.1728 22.2127C57.1458 21.1305 58.042 19.9829 58.8551 18.7781C59.4796 17.8162 60.0004 16.792 60.4089 15.7223C60.4917 15.5104 60.5928 15.3059 60.711 15.1111C60.8466 14.8911 61.007 14.6344 61.3276 14.72C61.6482 14.8056 61.5311 15.1172 61.5372 15.3861Z" fill="#2C3639"/>
<path d="M70.6073 47.1486C70.558 47.3625 70.3915 47.393 70.2251 47.3258C69.9361 47.2309 69.6588 47.1038 69.3988 46.9469C66.6415 45.114 64.3785 42.6403 62.8074 39.7414C62.7149 39.5703 62.5052 39.3503 62.758 39.1853C63.0108 39.0203 63.1465 39.2831 63.2575 39.442C65.195 42.2471 67.577 44.7236 70.3114 46.7758C70.4532 46.8675 70.6073 46.953 70.6073 47.1486Z" fill="#2C3639"/>
<path d="M3.25019 54.6483C3.27508 54.4194 3.37468 54.2048 3.53383 54.0372C3.66948 53.8783 3.81745 53.6644 4.05793 53.7744C4.2984 53.8844 4.22442 54.1288 4.14426 54.3244C3.89762 54.9355 4.20592 55.2533 4.72386 55.4672C5.65877 55.7864 6.63434 55.9736 7.62187 56.0234C8.2479 56.0618 8.868 56.1663 9.47167 56.3351C9.87665 56.4727 10.2209 56.7453 10.4458 57.1064C10.6707 57.4675 10.7622 57.8947 10.7049 58.3152C10.6555 58.4986 10.5939 58.6941 10.3657 58.7002C10.1376 58.7064 10.1068 58.5169 10.0883 58.3519C9.95878 57.2151 9.11405 56.9768 8.17683 56.8668C7.16737 56.8271 6.16298 56.7045 5.174 56.5001C4.78759 56.3995 4.4118 56.2623 4.05179 56.0906C3.7784 55.9689 3.55235 55.7625 3.40776 55.5023C3.26316 55.2421 3.20784 54.9424 3.25019 54.6483Z" fill="#2C3639"/>
<path d="M60.1929 14.103C60.0617 14.7069 59.8545 15.2921 59.5763 15.8448C58.5063 17.8177 57.1122 19.6002 55.4512 21.119C55.2971 21.2718 55.0874 21.5468 54.8346 21.3574C54.5818 21.1679 54.8347 20.8868 54.9641 20.6973C55.741 19.7012 56.5426 18.7233 57.3134 17.7271C58.1514 16.6552 58.8093 15.4562 59.2618 14.1764C59.2991 14.0673 59.3444 13.961 59.3974 13.8585C59.5084 13.6508 59.6194 13.4246 59.9154 13.4735C60.1374 13.5041 60.2237 13.7302 60.1929 14.103Z" fill="#2C3639"/>
<path d="M40.2705 19.1392C37.9089 18.6991 36.3119 19.7075 34.8629 21.1254C34.6286 21.3576 34.382 21.926 34.012 21.6082C33.642 21.2904 34.1538 20.9543 34.3635 20.667C35.5967 19.0536 37.1258 18.0269 39.2469 18.0696C39.9743 18.0935 40.6938 18.2275 41.3803 18.4669C41.5838 18.528 41.7996 18.6441 41.7503 18.9069C41.701 19.1697 41.442 19.2186 41.1954 19.2064L40.2705 19.1392Z" fill="#2C3639"/>
<path d="M8.33104 44.3674C8.10907 44.3124 7.78841 44.4041 7.76374 44.0802C7.73908 43.7562 8.01657 43.7624 8.21389 43.7379C10.6803 43.4385 12.3451 41.8372 13.8989 40.1199C14.4722 39.4976 14.9633 38.8055 15.3602 38.0603C15.4219 37.9442 15.4836 37.7731 15.6562 37.8097C15.8289 37.8464 15.8535 38.0542 15.8288 38.2131C15.8075 38.4003 15.7532 38.5823 15.6685 38.7509C14.4902 41.0075 12.6089 42.8272 10.3041 43.9396C9.69261 44.2428 9.01442 44.3898 8.33104 44.3674Z" fill="#2C3639"/>
<path d="M93.3228 43.4271C93.2673 43.5676 93.1933 43.7877 93.1008 44.0016C92.0957 46.2689 90.4001 47.974 88.538 49.5386C88.3468 49.7036 88.0632 50.0031 87.8104 49.7036C87.5576 49.4041 87.9214 49.2452 88.0879 49.0925C89.8092 47.4282 91.2646 45.5137 92.404 43.4149C92.475 43.2932 92.5576 43.1786 92.6507 43.0726C92.774 42.9198 92.9281 42.7915 93.1316 42.877C93.3351 42.9626 93.3536 43.1459 93.3228 43.4271Z" fill="#2C3639"/>
<path d="M39.8329 16.9151C40.676 16.9271 41.5105 17.0843 42.2993 17.3796C42.5891 17.4896 43.0269 17.5996 42.9159 17.9908C42.8049 18.3819 42.3856 18.2536 42.0711 18.1925C40.5271 17.873 38.9452 17.7722 37.3727 17.893C36.671 17.9686 35.9801 18.1224 35.3132 18.3513C35.1036 18.4186 34.8014 18.7119 34.6596 18.3513C34.5548 18.0824 34.8755 17.9113 35.1036 17.8074C36.2973 17.1875 37.6221 16.8566 38.9697 16.8418C39.2718 16.8662 39.5492 16.8968 39.8329 16.9151Z" fill="#2C3639"/>
<path d="M16.7598 25.1287C16.0693 25.0737 15.5267 24.9392 15.3417 24.2242C15.2924 24.0164 15.2862 23.7719 15.5328 23.6864C15.7795 23.6008 15.8288 23.833 15.8966 24.0042C16.1001 24.5053 16.5564 24.4931 16.9756 24.4748C17.7501 24.4019 18.5123 24.2335 19.2447 23.9736C20.5701 23.5519 21.9607 23.3677 23.3513 23.4297C23.5596 23.4412 23.7663 23.474 23.9679 23.5275C24.1282 23.5702 24.2947 23.6619 24.2453 23.8697C24.223 23.9374 24.1774 23.9952 24.1166 24.0331C24.0558 24.071 23.9836 24.0867 23.9124 24.0775C21.6248 23.8697 19.516 24.8048 17.3148 25.1103C17.1305 25.1302 16.945 25.1364 16.7598 25.1287V25.1287Z" fill="#2C3639"/>
<path d="M10.9577 73.4107C10.4319 73.4037 9.92049 73.2397 9.4902 72.9401C9.39796 72.871 9.33278 72.7723 9.30579 72.6608C9.2788 72.5493 9.29165 72.4321 9.34218 72.329C9.447 72.1089 9.62583 72.1578 9.82315 72.2067C10.6793 72.4807 11.6029 72.4649 12.449 72.1618C13.295 71.8586 14.0155 71.2854 14.497 70.5322C14.6819 70.2816 14.8299 69.7255 15.2245 69.9821C15.6192 70.2388 15.2245 70.5933 15.0334 70.905C14.0962 72.4268 12.8629 73.4046 10.9577 73.4107Z" fill="#2C3639"/>
<path d="M35.8252 56.7377C35.7512 57.0982 35.8807 57.7766 35.3504 57.7766C34.8201 57.7766 34.9866 57.0983 34.9805 56.7316C34.9805 55.0448 34.0617 53.7858 33.0073 52.588C32.81 52.3618 32.3476 52.0929 32.6374 51.7935C32.9272 51.494 33.254 51.9157 33.5068 52.1235C34.8941 53.3336 35.9732 54.7025 35.8252 56.7377Z" fill="#2C3639"/>
<path d="M60.9576 31.2773C61.1672 31.3385 61.2288 31.5035 61.2967 31.6502C62.401 33.9634 63.7113 36.1743 65.2121 38.2567C65.3662 38.4828 65.7609 38.7884 65.4464 39.0206C65.1319 39.2529 64.9285 38.8006 64.7496 38.5806C63.074 36.5788 61.7371 34.3208 60.7911 31.8946C60.7232 31.7113 60.5876 31.5096 60.7911 31.2835C60.8034 31.2896 60.8897 31.2896 60.9576 31.2773Z" fill="#2C3639"/>
<path d="M66.0508 40.5966C66.1372 40.67 66.2605 40.7739 66.3776 40.8839C68.0856 42.4973 69.7381 44.1658 71.5447 45.6631C71.7112 45.8036 72.0195 45.9686 71.8468 46.2131C71.6742 46.4576 71.409 46.2131 71.2302 46.1214C69.157 44.8142 67.3516 43.1305 65.909 41.1589C65.8165 41.0244 65.7055 40.89 65.7734 40.7066C65.8103 40.615 65.8905 40.5722 66.0508 40.5966Z" fill="#2C3639"/>
<path d="M57.8378 29.0156C58.0406 29.0919 58.2076 29.2399 58.3065 29.4312C58.8437 30.2284 59.3357 31.0548 59.7801 31.9064C60.4769 33.1837 61.1921 34.4427 61.8765 35.72C62.0369 36.0194 62.4932 36.4411 62.0924 36.6795C61.6916 36.9178 61.5744 36.3189 61.4017 36.0683C60.3198 34.4176 59.3476 32.6986 58.4914 30.9224C58.2633 30.4335 57.9797 29.9751 57.7268 29.4984C57.6159 29.3151 57.511 29.089 57.8378 29.0156Z" fill="#2C3639"/>
<path d="M87.0273 51.0904C86.9581 51.2278 86.8798 51.3605 86.793 51.4877C85.6376 53.1379 84.1489 54.5323 82.4213 55.5824C82.2798 55.6622 82.1336 55.7337 81.9835 55.7963C81.7677 55.888 81.5519 55.888 81.4348 55.6496C81.3176 55.4113 81.4347 55.2524 81.6382 55.1179L81.6999 55.0813C83.451 54.1523 84.7829 52.6978 86.0839 51.2921C86.245 51.1223 86.4298 50.9762 86.6327 50.8582C86.8546 50.7238 86.9965 50.7604 87.0273 51.0904Z" fill="#2C3639"/>
<path d="M25.8117 49.9224C25.6699 50.2341 25.8117 50.9002 25.3431 50.9063C24.8745 50.9124 25.0964 50.2952 25.1026 49.9407C25.123 48.3002 24.9743 46.662 24.6587 45.0515C24.6322 44.9372 24.6177 44.8204 24.6155 44.7031C24.6155 44.4831 24.56 44.1714 24.8806 44.1409C25.2012 44.1103 25.1704 44.4037 25.2321 44.587C25.7933 46.307 25.9907 48.1233 25.8117 49.9224V49.9224Z" fill="#2C3639"/>
<path d="M21.4396 71.7837C21.1992 71.7531 20.8231 71.8326 20.7799 71.4048C20.7367 70.977 21.1622 70.9159 21.452 70.9281C23.1229 70.9831 24.1465 70.0297 24.9912 68.7646C25.0759 68.6523 25.1708 68.5479 25.2749 68.4529C25.3859 68.3551 25.5215 68.2879 25.6572 68.3857C25.7928 68.4835 25.725 68.5935 25.7003 68.7096C25.3119 70.3414 23.2339 71.8693 21.4396 71.7837Z" fill="#2C3639"/>
<path d="M48.8044 17.0122C49.0635 17.0978 49.3169 17.1999 49.5628 17.3178C50.7998 17.9932 51.9613 18.7962 53.0281 19.7135C53.1193 19.7856 53.202 19.8676 53.2747 19.958C53.3918 20.1169 53.62 20.2941 53.4165 20.4958C53.213 20.6975 53.0651 20.4958 52.9109 20.398C52.4053 20.0619 51.8997 19.7257 51.3941 19.3774C50.5059 18.7632 49.5627 18.2313 48.5762 17.7884C48.3604 17.6906 48.1261 17.5623 48.1878 17.275C48.2494 16.9878 48.4837 17.0122 48.8044 17.0122Z" fill="#2C3639"/>
<path d="M47.3248 17.5997C47.6526 17.7074 47.9738 17.8339 48.2867 17.9786C49.7103 18.7968 51.0669 19.7245 52.3439 20.7532C52.4981 20.8754 52.757 21.0282 52.6029 21.2544C52.4487 21.4805 52.2083 21.3032 52.0418 21.1993C50.4263 20.1971 48.8601 19.1153 47.1583 18.2597C46.9734 18.1619 46.7699 18.0336 46.8686 17.7708C46.9672 17.508 47.1398 17.6363 47.3248 17.5997Z" fill="#2C3639"/>
<path d="M44.8336 21.2305C45.4939 21.3988 46.1444 21.6028 46.7821 21.8417C47.8735 22.3184 48.934 22.8684 50.0069 23.4001C50.1487 23.4674 50.3337 23.5712 50.272 23.7607C50.2104 23.9502 49.9637 23.9196 49.7911 23.8707C49.5797 23.812 49.3735 23.7364 49.1745 23.6446C47.688 22.9492 46.1426 22.3847 44.5562 21.9578C44.2972 21.8906 43.9396 21.8172 44.0198 21.4444C44.0999 21.0716 44.4452 21.2122 44.8336 21.2305Z" fill="#2C3639"/>
<path d="M45.7587 20.166C46.3654 20.2544 46.9483 20.4622 47.4728 20.7772C48.5889 21.3883 49.6864 21.9995 50.7839 22.6534C50.9504 22.7512 51.2402 22.8612 51.1046 23.1179C50.9689 23.3746 50.7038 23.1912 50.5373 23.1179C49.4089 22.5862 48.2991 22.0178 47.1707 21.4983C46.6589 21.2661 46.104 21.1255 45.5799 20.9239C45.3579 20.8322 44.9941 20.8138 45.0558 20.4655C45.1174 20.1171 45.4812 20.1721 45.7587 20.166Z" fill="#2C3639"/>
<path d="M41.5349 11.9773C42.5488 12.2162 43.4966 12.6755 44.3096 13.3218C44.883 13.7618 45.4071 14.2691 45.9436 14.7641C46.0731 14.8802 46.258 15.0391 46.0792 15.2347C45.9004 15.4303 45.7277 15.3019 45.5674 15.1858C45.2345 14.9291 44.9077 14.6602 44.5685 14.4097C43.5728 13.6582 42.4692 13.0588 41.2944 12.6312C41.0539 12.5456 40.7272 12.4967 40.8135 12.1545C40.8998 11.8123 41.2266 11.9773 41.5349 11.9773Z" fill="#2C3639"/>
<path d="M51.7086 21.8593C51.647 22.0854 51.4867 22.0671 51.3263 21.9938C50.981 21.8349 50.6419 21.6759 50.3151 21.4987C49.1451 20.8505 47.9245 20.2966 46.6649 19.8425C46.3627 19.7386 45.8201 19.6836 45.9743 19.2313C46.1284 18.7791 46.6279 19.0297 46.9423 19.1397C48.5056 19.7202 49.9905 20.49 51.3633 21.4315C51.4505 21.4712 51.5271 21.5306 51.5871 21.6049C51.647 21.6792 51.6886 21.7663 51.7086 21.8593Z" fill="#2C3639"/>
<path d="M79.6465 44.9785L79.8746 44.7891C81.6689 45.3208 83.1919 46.3964 84.8506 47.2337C84.9924 47.307 85.1527 47.4231 85.0725 47.6126C84.9924 47.802 84.7519 47.7837 84.5854 47.7104C83.0817 47.1164 81.6101 46.4453 80.1767 45.6997C80.0351 45.6323 79.9125 45.5312 79.8199 45.4053C79.7274 45.2795 79.6678 45.1328 79.6465 44.9785V44.9785Z" fill="#2C3639"/>
<path d="M40.6098 49.7941C40.6047 50.2292 40.4697 50.653 40.2216 51.012C39.9736 51.371 39.6237 51.649 39.2163 51.8109C39.0375 51.8659 38.8155 51.9332 38.6984 51.7437C38.5812 51.5542 38.76 51.3953 38.9203 51.3098C40.2522 50.6008 40.0487 48.5351 39.1855 47.6734L39.0929 47.5695C38.9203 47.4045 38.7045 47.2151 38.9265 46.9584C39.1485 46.7017 39.3951 46.9584 39.5739 47.1234C39.9448 47.4576 40.2317 47.8732 40.4116 48.3369C40.5914 48.8007 40.6593 49.2997 40.6098 49.7941Z" fill="#2C3639"/>
<path d="M25.7501 44.0381C25.7548 43.6558 25.8344 43.2781 25.9844 42.9258C26.0584 42.7975 26.1447 42.6875 26.3112 42.718C26.34 42.7238 26.3674 42.7353 26.3918 42.7517C26.4161 42.7681 26.437 42.7892 26.453 42.8136C26.4691 42.8381 26.4801 42.8655 26.4854 42.8942C26.4907 42.9229 26.4902 42.9523 26.4838 42.9809C26.4037 44.4293 26.7428 45.8472 26.7428 47.2589C26.7489 47.3986 26.7258 47.538 26.675 47.6684C26.6567 47.7212 26.6274 47.7696 26.5892 47.8106C26.551 47.8517 26.5046 47.8844 26.453 47.9067C26.2742 47.9434 26.2249 47.7845 26.2125 47.6378C26.0954 46.4705 25.6638 45.3093 25.7501 44.0381Z" fill="#2C3639"/>
<path d="M33.0937 66.8166C32.9825 67.6462 32.7498 68.4553 32.4031 69.2184C32.2921 69.469 32.1133 69.7684 31.7865 69.634C31.4597 69.4995 31.6077 69.2123 31.6693 68.9617C31.9037 67.9961 32.1318 67.0244 32.3538 66.0526C32.4031 65.8448 32.4216 65.5943 32.6744 65.5698C32.9272 65.5454 33.0259 65.8326 33.0629 66.0526C33.0868 66.3066 33.0971 66.5616 33.0937 66.8166V66.8166Z" fill="#2C3639"/>
<path d="M42.3672 10.8155C43.0386 11.0446 43.6645 11.3879 44.217 11.83C44.9878 12.4463 45.7036 13.1272 46.3566 13.8652C46.4799 13.9996 46.6772 14.1646 46.5292 14.3419C46.3812 14.5191 46.1408 14.3419 45.999 14.2257C44.871 13.1286 43.6023 12.1833 42.2254 11.4144C42.0527 11.3289 41.9048 11.1883 42.0096 10.9683C42.0415 10.9051 42.0948 10.8551 42.1602 10.8272C42.2257 10.7992 42.299 10.7951 42.3672 10.8155V10.8155Z" fill="#2C3639"/>
<path d="M24.8252 26.07C24.8252 27.1273 23.1295 28.2824 22.3588 28.4413C22.2355 28.4413 22.106 28.4413 22.0443 28.3496C21.9827 28.2579 22.0443 28.0746 22.1615 27.9829C22.5376 27.6651 22.9137 27.3718 23.296 27.0479C23.5478 26.8556 23.7528 26.6096 23.8959 26.3282C24.0389 26.0469 24.1162 25.7372 24.1223 25.4222C24.1223 25.1899 24.0298 24.811 24.4306 24.8416C24.8313 24.8721 24.8252 25.1899 24.856 25.4527C24.8578 25.6589 24.8475 25.865 24.8252 26.07V26.07Z" fill="#2C3639"/>
<path d="M57.2027 30.2379C57.2027 30.4824 57.0856 30.5741 56.8759 30.4702C56.793 30.4278 56.7228 30.3646 56.6724 30.2868C55.7596 29.1012 54.9353 27.8511 54.206 26.5466C54.1197 26.3999 54.0581 26.2288 54.206 26.1126C54.354 25.9965 54.5205 26.1432 54.6253 26.2654C54.9038 26.5815 55.1652 26.912 55.4084 27.2555C55.9387 28.0805 56.4443 28.9178 56.9561 29.7551C57.0486 29.9107 57.1309 30.0719 57.2027 30.2379V30.2379Z" fill="#2C3639"/>
<path d="M19.0726 53.0031C18.7609 54.145 18.2473 55.2231 17.5558 56.1872C17.4263 56.3644 17.2105 56.5967 16.9392 56.4317C16.6679 56.2667 16.9392 56.0589 17.0317 55.8939C17.5408 54.893 17.9776 53.8575 18.3389 52.7953C18.419 52.5631 18.4807 52.2208 18.826 52.3064C19.1713 52.392 19.0665 52.722 19.0726 53.0031Z" fill="#2C3639"/>
<path d="M61.0623 10.3391C61.5451 10.4579 61.9889 10.6978 62.351 11.0358C62.9676 11.5492 63.5349 12.1054 64.1206 12.6432C64.2748 12.7837 64.4844 12.961 64.3179 13.1749C64.1515 13.3888 63.9357 13.2054 63.7815 13.0771C62.8529 12.2845 61.8494 11.5825 60.7848 10.9808C60.6122 10.8831 60.4457 10.7547 60.5136 10.5408C60.5814 10.3269 60.791 10.3147 61.0623 10.3391Z" fill="#2C3639"/>
<path d="M82.5385 53.1875C82.4842 53.2939 82.4157 53.3925 82.335 53.4809C81.462 54.3339 80.4512 55.0362 79.3445 55.5588C79.1102 55.6627 78.8142 55.7971 78.6662 55.4732C78.5182 55.1493 78.8451 55.0821 79.0424 54.9721C80.0782 54.4098 81.0031 53.6826 81.9897 53.0408C82.1192 52.9553 82.2548 52.833 82.4398 52.9003C82.6248 52.9675 82.6001 53.0225 82.5385 53.1875Z" fill="#2C3639"/>
<path d="M61.9442 6.37828C62.1384 6.45484 62.326 6.54682 62.5053 6.6533C63.3497 7.28145 64.1359 7.98297 64.8545 8.74955C64.9902 8.89011 65.1998 9.07346 64.984 9.28736C64.7682 9.50127 64.6325 9.28736 64.4907 9.18958L61.7284 7.02C61.5804 6.90388 61.4324 6.7633 61.5187 6.5494C61.6051 6.33549 61.7099 6.34772 61.9442 6.37828Z" fill="#2C3639"/>
<path d="M61.5739 12.8808C62.1915 13.1134 62.7649 13.4482 63.2695 13.8709C63.7443 14.2559 64.2191 14.6348 64.6754 15.0321C64.8172 15.1543 64.9775 15.3254 64.8295 15.5149C64.6816 15.7043 64.4842 15.5577 64.3362 15.4476C63.3719 14.7078 62.3397 14.0592 61.2532 13.5103C61.0806 13.4247 60.9265 13.2842 61.0005 13.0703C61.0744 12.8564 61.2964 12.8136 61.5739 12.8808Z" fill="#2C3639"/>
<path d="M65.4589 35.7627C65.65 35.8177 65.7363 35.9949 65.8227 36.1538C66.5042 37.3764 67.2858 38.5415 68.1596 39.6374C68.2644 39.7719 68.474 39.9369 68.2644 40.108C68.0547 40.2791 67.9006 40.0713 67.7773 39.9491C66.7212 38.8532 65.8658 37.5834 65.2492 36.1966C65.1074 35.8972 65.2184 35.7261 65.4589 35.7627Z" fill="#2C3639"/>
<path d="M61.4756 8.14592C61.6418 8.22016 61.8025 8.30592 61.9565 8.4026C62.7497 8.98329 63.4867 9.63597 64.1577 10.3522C64.2934 10.4927 64.5092 10.6761 64.3427 10.89C64.1762 11.1039 63.9542 10.89 63.8001 10.7983C62.9432 10.0757 62.0501 9.39648 61.1241 8.76317C60.9638 8.66539 60.8404 8.5065 60.9638 8.29871C61.0871 8.09092 61.2227 8.10926 61.4756 8.14592Z" fill="#2C3639"/>
<path d="M44.7103 9.70999C44.8354 9.75867 44.9569 9.81585 45.074 9.88111C46.1963 10.4923 46.9239 11.5618 47.6761 12.5274C47.7748 12.6557 47.8611 12.8269 47.6761 12.9674C47.4911 13.108 47.3555 12.9674 47.2445 12.8696C46.3955 11.8659 45.4335 10.9617 44.3773 10.1745C44.3175 10.1335 44.2758 10.0714 44.2609 10.0009C44.246 9.93034 44.259 9.85685 44.2971 9.79554C44.3773 9.68554 44.5006 9.67332 44.7103 9.70999Z" fill="#2C3639"/>
<path d="M45.3701 42.0462C44.4883 41.8567 43.6128 41.6795 42.7495 41.4839C42.3177 41.3693 41.868 41.3362 41.4239 41.3861C41.2142 41.4167 40.9491 41.4534 40.9306 41.1661C40.9121 40.8789 41.1834 40.8666 41.3869 40.83C41.9915 40.7469 42.607 40.7906 43.1935 40.9583C43.9704 41.1417 44.735 41.3556 45.4996 41.5695C45.6599 41.6184 45.9127 41.6978 45.8448 41.9301C45.777 42.1623 45.5427 42.034 45.3701 42.0462Z" fill="#2C3639"/>
<path d="M83.155 48.7001C81.9717 48.3466 80.8352 47.8542 79.7699 47.2333C79.6342 47.1477 79.5047 47.0133 79.6096 46.8238C79.6542 46.7532 79.7246 46.7023 79.8062 46.6818C79.8877 46.6613 79.9741 46.6728 80.0473 46.7138C81.2004 47.1355 82.2794 47.7039 83.3831 48.2295C83.5064 48.2906 83.6359 48.4006 83.5681 48.5656C83.5003 48.7306 83.3461 48.6756 83.155 48.7001Z" fill="#2C3639"/>
<path d="M17.1425 54.0293C16.8397 54.9806 16.3678 55.8706 15.7489 56.6573C15.7286 56.6941 15.7008 56.7264 15.6673 56.7522C15.6338 56.7779 15.5953 56.7965 15.5542 56.8068C15.5131 56.8171 15.4704 56.819 15.4285 56.8122C15.3867 56.8054 15.3467 56.7901 15.3112 56.7673C15.1447 56.6573 15.2002 56.48 15.268 56.3273C15.6585 55.4594 16.0552 54.5936 16.458 53.7299C16.5505 53.5404 16.6923 53.3387 16.9451 53.4182C17.198 53.4976 17.1795 53.7421 17.1425 54.0293Z" fill="#2C3639"/>
<path d="M47.2875 42.6449H47.3553C47.6204 42.6877 48.0521 42.5655 48.0644 42.9016C48.0767 43.2377 47.6451 43.1461 47.3861 43.1705C46.2865 43.2497 45.1942 43.409 44.1182 43.6472C43.9024 43.7022 43.6064 43.8367 43.5016 43.525C43.3968 43.2133 43.7359 43.1522 43.9394 43.0789C45.0271 42.7682 46.1558 42.6219 47.2875 42.6449V42.6449Z" fill="#2C3639"/>
<path d="M31.5767 26.3996C31.6383 26.0634 31.6877 25.7395 31.7617 25.4217C31.7987 25.2628 31.8788 25.0917 32.0761 25.0978C32.2734 25.1039 32.3474 25.2995 32.3413 25.4523C32.3 26.5466 32.3516 27.6423 32.4954 28.7281C32.4954 28.8747 32.4954 29.0275 32.3043 29.0581C32.1131 29.0886 31.9774 28.8992 31.922 28.7219C31.6945 27.9684 31.5782 27.1861 31.5767 26.3996V26.3996Z" fill="#2C3639"/>
<path d="M65.7673 7.43555C65.6748 7.74724 65.4528 7.68611 65.2802 7.55777C64.9226 7.28886 64.5958 6.98329 64.2566 6.70216L62.7768 5.47986C62.6103 5.34541 62.45 5.16817 62.6227 4.94816C62.6858 4.87626 62.775 4.83203 62.8709 4.82516C62.9668 4.81829 63.0616 4.84933 63.1344 4.91149C64.0847 5.55935 64.9396 6.33475 65.6748 7.21553C65.7162 7.28404 65.7474 7.35816 65.7673 7.43555V7.43555Z" fill="#2C3639"/>
<path d="M48.1758 11.654C48.0439 11.5759 47.9182 11.4881 47.7997 11.3912C47.0906 10.7495 46.3815 10.0956 45.6724 9.44165C45.506 9.28886 45.2408 9.10551 45.4258 8.86716C45.6108 8.62881 45.9067 8.81215 46.104 8.95272C46.9231 9.58532 47.6641 10.3115 48.3115 11.1162C48.3633 11.1646 48.4014 11.2256 48.4219 11.2932C48.4425 11.3608 48.4448 11.4325 48.4286 11.5012C48.3978 11.6051 48.3115 11.6357 48.1758 11.654Z" fill="#2C3639"/>
<path d="M46.8129 45.3513C46.4861 45.2963 46.4121 45.113 46.5786 44.9052C47.3148 43.9277 48.2769 43.1396 49.3841 42.6072C49.4452 42.5703 49.5174 42.5555 49.5883 42.5656C49.6592 42.5756 49.7243 42.6098 49.7726 42.6622C49.9021 42.815 49.7726 42.925 49.6616 43.0045C48.7586 43.6393 47.9183 44.3576 47.152 45.1496C47.0461 45.2279 46.9325 45.2955 46.8129 45.3513Z" fill="#2C3639"/>
<path d="M14.4783 55.3687C14.1828 56.1223 13.7978 56.8383 13.3314 57.5016C13.2143 57.6483 13.0416 57.7705 12.8443 57.6422C12.647 57.5138 12.7272 57.3611 12.7888 57.2022C13.0848 56.4871 13.3684 55.7721 13.6706 55.0692C13.7815 54.8126 13.985 54.6231 14.2872 54.7331C14.5893 54.8431 14.5153 55.0692 14.4783 55.3687Z" fill="#2C3639"/>
<path d="M66.7597 5.81004C66.6672 6.18284 66.4452 6.09728 66.2788 5.96283C65.8903 5.66337 65.5265 5.35167 65.1442 5.01553L63.874 4.03159C63.7199 3.91547 63.578 3.7688 63.7137 3.56101C63.7395 3.52116 63.7734 3.48715 63.8134 3.46121C63.8533 3.43527 63.8983 3.418 63.9455 3.4105C63.9926 3.403 64.0409 3.40545 64.087 3.4177C64.1331 3.42994 64.1761 3.4517 64.2132 3.48156C64.5194 3.65837 64.8083 3.86296 65.0764 4.09271C65.5512 4.50829 65.9951 4.96054 66.4452 5.40668C66.5604 5.53291 66.6655 5.66777 66.7597 5.81004V5.81004Z" fill="#2C3639"/>
<path d="M50.1058 9.62437C50.0256 9.93606 49.8222 9.91773 49.6742 9.78328C48.8294 8.98267 47.9908 8.16373 47.1584 7.33867C47.1262 7.3123 47.1002 7.27916 47.0823 7.24165C47.0645 7.20414 47.0552 7.16318 47.0552 7.12171C47.0552 7.08023 47.0645 7.03927 47.0823 7.00176C47.1002 6.96425 47.1262 6.93114 47.1584 6.90476C47.3126 6.7642 47.4729 6.85587 47.6085 6.94143C48.0638 7.268 48.4778 7.64758 48.8417 8.07204C49.187 8.45707 49.52 8.84211 49.853 9.23325C49.9471 9.35708 50.0317 9.48783 50.1058 9.62437V9.62437Z" fill="#2C3639"/>
<path d="M44.4515 10.8465C44.5326 10.8812 44.6109 10.9221 44.6858 10.9687C45.5912 11.6765 46.3996 12.4983 47.0905 13.4133C47.1953 13.5355 47.2878 13.7189 47.0905 13.8472C46.8932 13.9756 46.776 13.8472 46.6589 13.7311C45.8573 12.9549 45.0557 12.1665 44.2603 11.3843C44.1617 11.2865 44.0569 11.1765 44.1185 11.0176C44.1802 10.8587 44.3097 10.8342 44.4515 10.8465Z" fill="#2C3639"/>
<path d="M43.1383 29.7988C43.271 29.8408 43.3991 29.8961 43.5206 29.9638C44.2605 30.4527 45.0004 30.9477 45.728 31.455C45.876 31.5528 46.0733 31.6995 45.9561 31.9072C45.839 32.115 45.6232 32.005 45.469 31.9072C44.6058 31.3857 43.7487 30.8642 42.8978 30.3427C42.756 30.251 42.6388 30.1166 42.7128 29.9332C42.7868 29.7499 42.9163 29.7682 43.1383 29.7988Z" fill="#2C3639"/>
<path d="M5.14307 41.0682C5.19239 40.7932 5.19239 40.457 5.52535 40.457C5.85832 40.457 5.78435 40.7809 5.82135 40.9887C5.93703 41.726 6.21032 42.4303 6.62291 43.0544C6.7154 43.195 6.91273 43.3661 6.71542 43.5372C6.51811 43.7084 6.30845 43.5372 6.16047 43.415C5.53686 42.7866 5.1738 41.9491 5.14307 41.0682V41.0682Z" fill="#2C3639"/>
<path d="M78.2841 13.2422C78.3719 13.2755 78.4565 13.3164 78.537 13.3644C79.261 13.919 79.9097 14.564 80.4669 15.2834C80.5779 15.424 80.7259 15.6195 80.5471 15.7846C80.3683 15.9496 80.1956 15.754 80.0661 15.6379C79.4495 15.0634 78.7836 14.4767 78.1547 13.8839C78.0129 13.7555 77.8895 13.6027 77.9882 13.3949C78.0868 13.1872 78.1547 13.2483 78.2841 13.2422Z" fill="#2C3639"/>
<path d="M24.9113 50.2904C24.8743 50.4187 24.8373 50.5776 24.7818 50.7243C24.7263 50.8709 24.6832 50.9443 24.5413 50.9443C24.4823 50.9445 24.4253 50.9225 24.3819 50.8829C24.3384 50.8432 24.3117 50.7887 24.307 50.7304C24.1837 49.7648 24.0604 48.7991 23.9494 47.8335C23.9404 47.7753 23.9547 47.7159 23.9893 47.6679C24.0238 47.62 24.0759 47.5873 24.1344 47.5768C24.3749 47.5279 24.4735 47.6991 24.5475 47.8702C24.815 48.6486 24.9382 49.4685 24.9113 50.2904Z" fill="#2C3639"/>
<path d="M46.8928 31.1303C46.8373 31.3687 46.6462 31.3503 46.5105 31.2709C45.6658 30.7759 44.8334 30.2625 44.0072 29.743C43.975 29.7268 43.9466 29.7038 43.9241 29.6758C43.9016 29.6478 43.8854 29.6153 43.8767 29.5805C43.8679 29.5458 43.8668 29.5096 43.8733 29.4744C43.8799 29.4391 43.894 29.4057 43.9147 29.3763C44.038 29.1869 44.2291 29.2052 44.4141 29.2785C44.854 29.4818 45.268 29.7362 45.6473 30.0364C45.9679 30.2625 46.2639 30.4947 46.6092 30.7331C46.6835 30.774 46.7475 30.831 46.7966 30.8997C46.8457 30.9685 46.8786 31.0473 46.8928 31.1303V31.1303Z" fill="#2C3639"/>
<path d="M49.3903 29.7006C49.3348 29.9267 49.1621 29.9389 49.0142 29.835C48.1509 29.2239 47.2877 28.6127 46.4368 28.0016C46.4061 27.9837 46.3795 27.9596 46.3588 27.9308C46.3382 27.902 46.3239 27.8693 46.3169 27.8346C46.3099 27.8 46.3104 27.7643 46.3183 27.7299C46.3262 27.6955 46.3414 27.6631 46.3628 27.6349C46.3957 27.585 46.4454 27.5485 46.503 27.5317C46.5606 27.5149 46.6224 27.519 46.6773 27.5432C47.6765 28.0525 48.5814 28.7262 49.3533 29.5356C49.3764 29.5876 49.389 29.6437 49.3903 29.7006V29.7006Z" fill="#2C3639"/>
<path d="M48.0091 30.2512C47.9659 30.4834 47.7994 30.5079 47.6453 30.4101C46.7944 29.8723 45.9558 29.3161 45.1172 28.76C45.0681 28.7264 45.0333 28.6759 45.0196 28.6183C45.0059 28.5607 45.0143 28.5001 45.0432 28.4483C45.1234 28.2894 45.2714 28.2955 45.4071 28.3139C45.7292 28.3921 46.0261 28.5497 46.2703 28.7722C46.7389 29.1145 47.2137 29.4628 47.6761 29.8173C47.7994 29.9334 47.9659 30.0434 48.0091 30.2512Z" fill="#2C3639"/>
<path d="M34.7645 57.5879C34.7206 58.1255 34.5046 58.6351 34.1479 59.0424C33.9938 59.2074 33.8088 59.4274 33.5313 59.2624C33.2538 59.0974 33.3957 58.8346 33.5313 58.6513C33.8672 58.1966 34.0408 57.6439 34.0246 57.0806C34.0246 56.8973 34.0246 56.665 34.2712 56.6406C34.5178 56.6161 34.6288 56.83 34.672 57.0439C34.7127 57.2235 34.7436 57.4051 34.7645 57.5879V57.5879Z" fill="#2C3639"/>
<path d="M20.6201 37.0889C20.6818 36.8077 20.7681 36.3494 20.8667 35.8666C20.8667 35.7015 20.9777 35.5488 21.1812 35.5549C21.3847 35.561 21.4586 35.7199 21.4895 35.8849C21.5983 36.6769 21.447 37.4827 21.0579 38.1828C21.034 38.2494 20.9862 38.3049 20.9236 38.3387C20.8611 38.3725 20.7881 38.3823 20.7187 38.3662C20.5523 38.3173 20.5461 38.1523 20.5522 38.0117C20.5646 37.7795 20.5893 37.5289 20.6201 37.0889Z" fill="#2C3639"/>
<path d="M50.7469 29.3461C50.6605 29.5783 50.4817 29.5355 50.3584 29.4255C49.5322 28.7288 48.7244 28.0199 47.892 27.311C47.8448 27.2726 47.8136 27.2182 47.8045 27.1584C47.7954 27.0986 47.809 27.0375 47.8427 26.987C47.8558 26.9607 47.8747 26.9376 47.8978 26.9192C47.9209 26.9009 47.9478 26.8878 47.9766 26.8808C48.0054 26.8738 48.0353 26.8731 48.0644 26.8788C48.0934 26.8845 48.1209 26.8964 48.1448 26.9137C49.1165 27.5319 49.9755 28.3089 50.6852 29.2116C50.7142 29.2522 50.7351 29.2978 50.7469 29.3461V29.3461Z" fill="#2C3639"/>
<path d="M80.5163 17.2576C80.5157 17.3047 80.5013 17.3507 80.4749 17.3899C80.4486 17.4292 80.4113 17.46 80.3676 17.4788C80.324 17.4975 80.2758 17.5033 80.2288 17.4955C80.1819 17.4877 80.1383 17.4666 80.1031 17.4348C79.3895 16.9522 78.7391 16.3836 78.167 15.7419C78.1203 15.6887 78.0944 15.6206 78.0942 15.5501C78.094 15.4795 78.1195 15.4113 78.1659 15.3578C78.2124 15.3043 78.2767 15.2693 78.3471 15.259C78.4175 15.2487 78.4893 15.2639 78.5493 15.3019C79.2595 15.8357 79.9032 16.4511 80.467 17.1353C80.4881 17.174 80.5046 17.2151 80.5163 17.2576Z" fill="#2C3639"/>
<path d="M48.2374 51.9828C48.1079 51.0661 47.9846 48.5176 47.8119 48.5176C47.6393 48.5176 47.4235 50.8461 47.1584 52.5573C46.8624 54.4641 46.7329 55.9003 43.8472 55.9675C43.3971 55.9675 43.6253 56.3709 43.8041 56.377C47.3125 56.4503 46.9672 57.8804 47.2323 59.6833C47.4179 60.9762 47.5373 62.2776 47.59 63.5825C47.7326 63.6258 47.8851 63.6258 48.0278 63.5825C48.0278 63.5825 48.3114 59.3655 48.5519 57.9232C48.7553 56.7437 50.2105 56.5175 51.3944 56.2975C51.456 56.2975 51.5239 55.9614 51.2896 55.9369C48.8725 55.6558 48.6814 55.1424 48.2374 51.9828Z" fill="#2C3639"/>
<path d="M36.5034 3.13968C36.4611 2.38474 36.3684 1.63341 36.2259 0.890625C36.0779 0.890625 35.9731 2.40017 35.8004 3.51247C35.6093 4.73477 35.5291 5.68205 33.6546 5.72484C33.3648 5.72484 33.5128 5.98764 33.6546 5.98764C35.9299 6.03654 35.7018 6.96547 35.8744 8.13277C35.9939 8.97177 36.07 9.81626 36.1026 10.6629C36.1972 10.6899 36.2977 10.6899 36.3923 10.6629C36.3923 10.6629 36.5712 7.92499 36.7315 6.99604C36.861 6.2321 37.8044 6.08542 38.5813 5.94486C38.6183 5.94486 38.6676 5.72484 38.5134 5.7065C36.9103 5.52316 36.7932 5.18703 36.5034 3.13968Z" fill="#2C3639"/>
<path d="M28.2287 7.75294C28.1486 7.14179 28.0684 5.50391 27.9512 5.50391C27.8341 5.50391 27.7046 7.01345 27.532 8.11963C27.3408 9.34194 27.2545 10.2953 25.3862 10.332C25.0902 10.332 25.2382 10.5948 25.3862 10.6009C27.6615 10.6498 27.4395 11.5788 27.6121 12.7461C27.7313 13.583 27.8074 14.4255 27.8403 15.2701C27.9344 15.3005 28.0359 15.3005 28.1301 15.2701C28.1301 15.2701 28.3089 12.5383 28.4692 11.6032C28.5987 10.8393 29.5421 10.6926 30.319 10.552C30.3621 10.552 30.4053 10.332 30.2512 10.3137C28.6418 10.1425 28.5185 9.8003 28.2287 7.75294Z" fill="#2C3639"/>
<path d="M58.0288 49.257C57.9301 48.5847 57.8438 46.7146 57.7143 46.7207C57.5848 46.7268 57.4307 48.4197 57.2395 49.6726C57.0237 51.0721 56.9312 52.1172 54.8163 52.1722C54.4834 52.1722 54.656 52.4717 54.8163 52.4717C57.3875 52.5267 57.1286 53.5717 57.3259 54.9163C57.4611 55.8606 57.5476 56.8112 57.5849 57.7642C57.6912 57.7975 57.8053 57.7975 57.9116 57.7642C57.9116 57.7642 58.1151 54.6779 58.2939 53.6206C58.4419 52.7589 59.5271 52.5939 60.3719 52.435C60.415 52.435 60.4705 52.1844 60.2979 52.1661C58.4912 51.9644 58.3556 51.5855 58.0288 49.257Z" fill="#2C3639"/>
<path d="M87.2802 16.3705C87.1815 15.6983 87.0952 13.8281 86.9657 13.8281C86.8362 13.8281 86.6821 15.5332 86.4909 16.7861C86.2689 18.1856 86.1765 19.2307 84.0677 19.2857C83.7347 19.2857 83.9012 19.5852 84.0369 19.5852C86.6019 19.6402 86.3491 20.6853 86.5403 22.0298C86.6775 22.9761 86.766 23.9286 86.8054 24.8839C86.9096 24.9175 87.0218 24.9175 87.126 24.8839C87.126 24.8839 87.3295 21.7975 87.5145 20.7402C87.6563 19.8785 88.7477 19.7135 89.5924 19.5546C89.6356 19.5546 89.6849 19.304 89.5123 19.2857C87.7426 19.0596 87.607 18.699 87.2802 16.3705Z" fill="#2C3639"/>
</svg>
