<svg width="70" height="71" viewBox="0 0 70 71" fill="none" xmlns="http://www.w3.org/2000/svg">
<path d="M62.4043 70.6756C60.2818 71.2134 58.0457 71.0801 56.0016 70.2938C53.2418 69.3824 51.5553 67.3626 50.3103 64.7947C49.0163 62.1159 49.4027 59.5419 50.4207 56.9678C51.858 53.5443 52.8693 49.9558 53.4319 46.2837C53.699 44.4699 53.5629 42.6193 53.0333 40.8647C51.3401 35.6617 48.5449 30.8887 44.8398 26.8737C42.7188 24.4095 40.381 22.1424 37.8545 20.0999C34.8249 17.7413 31.6419 15.7092 27.8212 14.8286C24.1193 14.0528 20.3113 13.9299 16.5674 14.4653C13.0085 14.9923 9.37758 14.7252 5.93307 13.6832C3.34501 12.8519 1.81793 11.0291 0.855076 8.63365C-0.0743222 6.60079 -0.252601 4.30209 0.352178 2.14927C0.526953 1.64395 0.829824 1.19307 1.23095 0.841048C1.63207 0.489028 2.1176 0.248015 2.63972 0.141751C3.07888 -0.0227405 3.55839 -0.0446644 4.01062 0.0790768C4.46285 0.202818 4.86499 0.465978 5.16033 0.831444C5.42713 1.16329 5.60586 1.55759 5.67986 1.97756C5.75386 2.39752 5.72071 2.82945 5.58349 3.23306C5.10513 5.00041 6.12318 6.57686 7.9569 7.10029C9.63772 7.53389 11.3615 7.77763 13.0962 7.82695C16.9722 8.0548 20.7929 7.40204 24.6382 7.31583C26.3506 7.34656 28.06 7.4699 29.7592 7.68531C32.7712 7.94535 35.7274 8.65733 38.5291 9.7975C40.956 10.8357 43.1564 12.3421 45.0054 14.2313C49.0817 18.2888 52.6639 22.8179 55.6766 27.7235C56.926 29.7971 57.9773 31.9847 58.8166 34.2571C60.0798 37.3504 60.6816 40.6758 60.5829 44.0176C60.4173 48.7161 59.7733 53.3654 57.9396 57.7684C57.454 58.8052 57.0798 59.891 56.8234 61.0075C56.3451 63.5076 57.4367 64.6161 59.4544 65.3982C59.9423 65.6166 60.4751 65.715 61.0084 65.685C61.5418 65.655 62.0603 65.4976 62.5208 65.2257C64.1215 64.2959 65.0659 65.7923 65.3051 67.4242C65.5014 68.7296 64.5446 69.8874 63.0482 70.4662C62.8274 70.5524 62.6128 70.6078 62.4043 70.6756ZM54.2599 39.4791C55.0399 41.5107 55.3157 43.7024 55.0633 45.865C54.5957 49.7176 53.5881 53.4846 52.0705 57.0541C51.5375 58.2528 51.198 59.5291 51.0647 60.8351C50.8991 63.2983 52.0459 65.2935 53.6405 66.9931C55.6888 69.173 58.3996 69.5856 61.2268 69.3886C62.0481 69.3035 62.8191 68.9509 63.4223 68.3848C63.6096 68.2214 63.7287 67.9931 63.756 67.7455C63.7832 67.4979 63.7167 67.2491 63.5695 67.0485C63.537 66.9709 63.4872 66.9017 63.424 66.8463C63.3608 66.7909 63.2858 66.7507 63.2048 66.7287C63.1238 66.7067 63.0389 66.7036 62.9565 66.7195C62.8741 66.7355 62.7964 66.77 62.7293 66.8207C61.3372 67.5781 59.9205 67.3379 58.5651 66.7899C56.8602 66.1002 55.5968 64.9733 55.2411 62.9965C55.0559 61.6379 55.2425 60.2542 55.7808 58.9938C56.3941 57.2819 57.1668 55.6254 57.6207 53.8457C58.2062 51.432 58.6162 48.9788 58.8472 46.5054C59.1256 43.7348 58.9662 40.9374 58.375 38.2167C57.9803 36.7445 57.5053 35.2952 56.9522 33.8753C56.5483 32.6313 56.0095 31.4356 55.3454 30.3098C52.0766 24.8723 48.3969 19.7488 43.7972 15.3397C41.9878 13.5222 39.8335 12.0878 37.462 11.1215C33.4634 9.56349 29.2931 9.11397 25.0737 8.99697C21.0873 8.88613 17.1378 9.68667 13.1269 9.46498C11.0366 9.42059 8.96161 9.09543 6.95724 8.49817C5.9896 8.17415 5.16523 7.52065 4.62677 6.65077C4.2722 6.0824 4.0385 5.44655 3.94035 4.78316C3.84219 4.11978 3.88172 3.44317 4.05642 2.79585C4.14228 2.4079 4.14228 1.95837 3.76818 1.76131C3.57406 1.65941 3.35448 1.61678 3.13653 1.63867C2.91858 1.66055 2.71178 1.74598 2.54161 1.88446C2.2037 2.10985 1.95268 2.44447 1.8302 2.8328C1.37541 4.44455 1.53728 6.16881 2.28402 7.66684C2.9378 9.32808 4.11912 10.7264 5.64483 11.6449C8.49047 13.3568 11.6305 13.3014 14.7582 13.0613C18.7568 12.7534 22.7309 12.2422 26.7541 13.0613C29.9359 13.6283 32.9734 14.8257 35.6896 16.5836C39.9751 19.5023 43.8173 23.0284 47.0967 27.0523C50.2021 30.7333 52.628 34.9417 54.2599 39.4791V39.4791Z" fill="#2C3639"/>
<path d="M25.0554 45.8101C25.1903 45.2866 25.2701 44.9418 25.3682 44.5785C25.4418 44.3445 25.5399 44.0858 25.8649 44.1536C26.19 44.2213 26.2329 44.4676 26.2084 44.7262C26.1471 45.342 26.0857 45.9578 25.9815 46.5736C25.6626 48.3779 25.3253 50.1761 24.9941 51.9804C24.9623 52.1687 24.9151 52.354 24.8531 52.5346C24.7611 52.8055 24.7427 53.212 24.3624 53.1874C23.9822 53.1627 24.2091 52.7255 24.068 52.51C24.0251 52.51 23.9699 52.5408 23.9454 52.5716C23.7614 52.8671 23.8902 53.5199 23.3873 53.4029C22.8844 53.2859 23.1727 52.7378 23.2095 52.3868C23.4241 50.2992 23.5038 48.187 23.9025 46.118C23.9453 45.9096 24.0006 45.7039 24.068 45.5022C24.1723 45.2004 24.2275 44.7817 24.6445 44.8186C25.0616 44.8556 24.9266 45.3482 25.0554 45.8101Z" fill="#2C3639"/>
<path d="M21.5107 43.2843C20.3446 43.4726 19.1697 43.6001 17.9905 43.6661C17.046 43.7647 16.0954 43.8139 15.1448 43.857C14.7523 43.857 14.2187 43.9248 14.1697 43.3706C14.1206 42.8163 14.6971 42.7547 15.1019 42.724C17.2177 42.6193 19.3335 42.4161 21.4555 42.4469C21.7131 42.4469 22.0688 42.3606 22.1363 42.7116C22.2037 43.0627 21.8173 43.1489 21.5107 43.2843Z" fill="#2C3639"/>
<path d="M12.1577 45.5635C13.9485 45.1386 15.6657 45.0524 17.3522 44.7691C18.0759 44.6521 18.8057 44.572 19.5355 44.4858C19.7931 44.455 20.1488 44.3688 20.1917 44.7444C20.2346 45.1201 19.8728 45.1509 19.5784 45.2125C18.7812 45.3787 17.9839 45.5388 17.1805 45.6928C15.8742 45.933 14.5618 46.1731 13.2555 46.401C12.9686 46.4568 12.6768 46.4837 12.3846 46.481C12.1086 46.481 11.8142 46.401 11.802 46.0438C11.7972 45.9349 11.83 45.8276 11.8948 45.7401C11.9596 45.6527 12.0524 45.5903 12.1577 45.5635Z" fill="#2C3639"/>
<path d="M52.463 12.9375C52.6091 12.9468 52.7525 12.9822 52.8862 13.0422C53.5485 13.6054 54.1178 14.2705 54.5727 15.0127C54.6005 15.0593 54.6154 15.1124 54.6156 15.1667C54.6156 15.4561 53.2541 16.5399 53.0088 16.3983C52.332 16.1105 51.7437 15.6472 51.3039 15.0559C51.2176 14.9183 51.1651 14.7621 51.1506 14.6002C51.143 14.5319 51.1493 14.4627 51.1692 14.397C51.1892 14.3312 51.2222 14.2703 51.2664 14.2178C51.3106 14.1654 51.3651 14.1225 51.4263 14.0919C51.4876 14.0613 51.5545 14.0436 51.6228 14.0398C51.8926 13.9967 52.1073 13.9351 52.0582 13.5902C52.0269 13.4499 52.0518 13.3028 52.1275 13.1806C52.2032 13.0585 52.3237 12.9712 52.463 12.9375V12.9375Z" fill="#2C3639"/>
<path d="M27.7475 42.662C27.7674 42.9265 27.7674 43.192 27.7475 43.4564C27.3427 45.8765 26.9379 48.2966 26.5209 50.7167C26.4657 51.0369 26.4534 51.6035 26.0425 51.5296C25.6316 51.4557 25.8586 50.9138 25.8954 50.6305C26.1219 48.1033 26.4904 45.5909 26.9993 43.1054C27.0403 42.9194 27.0936 42.7363 27.1587 42.5574C27.2139 42.4034 27.2998 42.2495 27.5022 42.2741C27.7046 42.2987 27.6616 42.4342 27.7475 42.662Z" fill="#2C3639"/>
<path d="M21.7986 55.2868C21.3632 55.1944 21.5104 54.8373 21.5411 54.5848C21.7802 52.7374 22.0194 50.8407 22.2954 48.9749C22.4028 48.299 22.5441 47.629 22.7185 46.9674C22.7737 46.7149 22.8228 46.3516 23.1724 46.3516C23.522 46.3516 23.479 46.8319 23.4361 47.0844C23.0252 49.5968 22.5959 52.1031 22.1666 54.6095C22.1701 54.7449 22.1379 54.8788 22.0733 54.9978C22.0086 55.1167 21.9139 55.2164 21.7986 55.2868V55.2868Z" fill="#2C3639"/>
<path d="M19.554 41.3505C18.455 41.5728 17.3385 41.6964 16.2177 41.72C15.862 41.72 15.3591 41.72 15.3591 41.1966C15.3591 40.6731 15.8436 40.784 16.1687 40.7593C17.2481 40.6793 18.3274 40.6054 19.4129 40.5623C19.7318 40.5623 20.2531 40.396 20.3145 40.8332C20.3758 41.2704 19.787 41.1596 19.554 41.3505Z" fill="#2C3639"/>
<path d="M24.0374 40.9392C23.3425 41.0358 22.6387 41.0524 21.94 40.9884C21.6579 40.9576 21.3696 40.8468 21.388 40.502C21.4064 40.1571 21.6763 40.0586 22.0013 40.0647C22.6759 40.0647 23.3567 40.0647 24.0374 40.1386C24.2828 40.1386 24.6507 40.1386 24.6507 40.4835C24.6507 40.8283 24.295 40.8037 24.0374 40.9392Z" fill="#2C3639"/>
<path d="M62.3126 66.9624L63.8336 66.3035C64.0543 66.2111 64.3058 66.0571 64.4959 66.3035C64.5676 66.4229 64.5934 66.5644 64.5686 66.7016C64.5438 66.8388 64.4699 66.9621 64.361 67.0486C63.8974 67.5591 63.2898 67.9157 62.6192 68.0708C59.283 68.9268 55.9712 68.2863 53.9351 65.0657C53.2446 63.9809 52.7874 62.7632 52.5931 61.4906C52.3988 60.2181 52.4715 58.9188 52.8067 57.6761C53.0389 56.7476 53.334 55.8362 53.6898 54.9481C54.6294 52.7293 55.2211 50.3778 55.4438 47.9772C55.4438 47.6939 55.3457 47.1767 55.8302 47.2259C56.2104 47.2629 56.1675 47.7247 56.1797 48.045C56.2158 49.5222 56.0086 50.9954 55.5665 52.4048C54.9532 54.3939 54.1498 56.3213 53.7757 58.3719C53.2728 61.1246 54.389 65.2012 57.6087 66.6175C59.1971 67.3257 60.7855 67.1656 62.3126 66.9624Z" fill="#2C3639"/>
<path d="M60.5033 10.0927L49.7401 20.8631C48.9837 21.6143 48.2253 22.3615 47.4649 23.1046C43.6257 26.9041 39.762 30.6728 35.9596 34.5154C34.2731 36.215 32.5559 37.8961 30.8571 39.5957C30.639 39.7973 30.4799 40.055 30.3971 40.3408C29.4172 43.9857 28.6271 47.6794 28.0299 51.4068C28.0015 51.6664 27.9092 51.9149 27.7615 52.1298C27.6138 52.3448 27.4152 52.5196 27.1835 52.6384C24.7979 53.7838 22.8906 55.6065 20.9097 57.2877C20.5233 57.6141 20.1553 58.0513 19.5604 57.7372C18.9655 57.4232 19.033 56.8936 19.0821 56.3763C19.217 54.9353 19.3642 53.4985 19.5236 52.0657C19.5911 51.4499 19.7812 50.9018 18.9103 50.5385C18.34 50.3045 17.9597 49.5348 17.5427 48.9621C17.046 48.2724 16.6167 47.7982 15.5741 48.0507C13.8875 48.4656 12.1637 48.709 10.4286 48.7773C10.1526 48.7773 9.88279 48.7773 9.61295 48.7773C9.44889 48.7916 9.28479 48.7502 9.14692 48.6598C9.00905 48.5694 8.90537 48.4351 8.85246 48.2785C8.77293 48.1185 8.74905 47.9364 8.78462 47.7611C8.82019 47.5859 8.91316 47.4277 9.04872 47.3117C9.53935 46.8745 10.03 46.4434 10.4961 45.9878C12.8634 43.697 15.0712 41.2461 17.2851 38.8013C17.4425 38.6142 17.6375 38.4625 17.8573 38.3564C18.0772 38.2503 18.3169 38.1921 18.5608 38.1855C21.3998 37.9818 24.2202 37.5702 26.9996 36.9539C27.4028 36.8738 27.7737 36.6769 28.0667 36.3874L56.9769 8.01747C57.0448 7.94054 57.1064 7.85816 57.1609 7.77115L53.4015 7.87583C53.1071 7.87583 52.7882 7.87583 52.506 7.87583C52.0583 7.87583 51.6168 7.75883 51.4635 7.26003C51.4138 7.0444 51.4326 6.81857 51.5173 6.61424C51.602 6.4099 51.7483 6.23734 51.9357 6.12079C52.9279 5.26631 54.0813 4.62127 55.3272 4.22414C58.6512 3.13417 61.9752 2.08115 65.2992 1.00966C65.6182 0.934004 65.927 0.820288 66.2191 0.670953C66.3832 0.546083 66.5835 0.478516 66.7895 0.478516C66.9954 0.478516 67.1957 0.546083 67.3598 0.670953C67.5135 0.810397 67.6202 0.994326 67.6652 1.1973C67.7103 1.40028 67.6914 1.61229 67.6112 1.80404C66.8871 4.60414 66.0067 7.36111 64.9741 10.0619C64.2872 11.7246 63.539 13.3626 62.8338 14.9883C62.7642 15.2493 62.5995 15.4746 62.3723 15.6195C62.1451 15.7643 61.8721 15.8182 61.6072 15.7704C60.9939 15.6719 60.9142 15.1115 60.8651 14.625C60.7302 13.1779 60.6321 11.7184 60.5033 10.0927ZM54.8243 6.18854C54.9766 6.2121 55.1302 6.22649 55.2842 6.23165C56.4249 6.18239 57.5595 6.10849 58.7002 6.0777C58.8913 6.04671 59.0872 6.07349 59.263 6.15464C59.4388 6.23579 59.5866 6.36763 59.6876 6.53339C59.7807 6.70298 59.8156 6.89865 59.7867 7.09012C59.7579 7.2816 59.667 7.45819 59.5282 7.59257C59.246 7.91894 58.9517 8.24531 58.6389 8.55321L19.8548 46.5851C19.5508 46.8953 19.2642 47.2222 18.9962 47.5642C18.6589 47.9706 18.8858 48.18 19.1189 48.4571C19.4562 48.8574 19.6279 48.5125 19.8241 48.3216L34.2547 33.9612C39.672 28.5791 45.0874 23.199 50.5006 17.821C53.6345 14.7051 56.7806 11.6137 59.8961 8.47932C60.098 8.27655 60.3584 8.14296 60.6404 8.09762C60.9223 8.05228 61.2113 8.09751 61.4662 8.22684C62.012 8.41158 62.1407 8.84264 62.1346 9.39686C62.0766 10.3095 62.1468 11.2257 62.3431 12.1187C62.5308 11.8443 62.6814 11.5461 62.7908 11.232C63.8466 8.66688 64.7557 6.0434 65.5138 3.37433C65.5813 3.14648 65.7775 2.86937 65.5874 2.68463C65.3973 2.49989 65.1274 2.68463 64.9005 2.777C61.785 3.7746 58.6696 4.7763 55.5541 5.78211C55.2696 5.82358 55.01 5.96815 54.8243 6.18854V6.18854ZM25.264 39.0415C23.2585 39.1955 21.3451 39.5711 19.401 39.6573C19.1206 39.6552 18.8433 39.7154 18.5888 39.8336C18.3343 39.9518 18.1091 40.125 17.9291 40.3408C16.0933 42.4264 14.1983 44.4565 12.2439 46.4311C12.0783 46.5974 11.7901 46.7206 11.8208 47.0469C13.7158 46.7883 15.5373 46.3141 17.4078 46.2156C17.6076 46.2045 17.8033 46.1536 17.9833 46.0659C18.1633 45.9781 18.3242 45.8552 18.4565 45.7045C20.2412 43.9433 22.0381 42.1944 23.8289 40.4394L25.264 39.0415ZM20.7073 55.1693C20.8552 55.1306 20.9975 55.0726 21.1304 54.9969C22.6328 53.5764 24.3106 52.3553 26.1226 51.3637C26.2394 51.2949 26.3374 51.1982 26.4081 51.0822C26.4787 50.9661 26.5197 50.8344 26.5273 50.6986C26.7665 49.4178 27.0547 48.1369 27.251 46.8437C27.4718 45.3843 27.8643 43.9556 28.1709 42.3114L21.7805 48.5864C21.6456 48.7197 21.5556 48.8919 21.5229 49.0791C21.1366 51.0558 20.971 53.0571 20.7256 55.1693H20.7073Z" fill="#2C3639"/>
<path d="M57.0929 36.0115C58.6852 41.4243 58.7953 47.1678 57.4118 52.6381C57.0567 54.1286 56.6206 55.5985 56.1055 57.0411C55.3049 58.9584 55.2873 61.1149 56.0565 63.0452C56.1791 63.3284 56.5042 63.7657 56.0074 63.9627C55.6088 64.129 55.3941 63.7164 55.2163 63.4085C54.6984 62.5163 54.3904 61.5171 54.316 60.4872C54.2416 59.4572 54.4027 58.4239 54.787 57.466C55.5899 55.2537 56.2475 52.9909 56.7556 50.6922C57.559 46.8496 57.3689 43.0132 56.7556 39.1829C56.3785 37.2497 55.885 35.3413 55.2776 33.4682C55.2224 33.2589 55.1488 33.0495 55.0998 32.8524C55.0507 32.6554 55.0261 32.3783 55.2653 32.2798C55.5045 32.1812 55.6946 32.4337 55.7805 32.6554C56.2823 33.7477 56.7205 34.8683 57.0929 36.0115V36.0115Z" fill="#2C3639"/>
<path d="M38.811 16.7865C38.9214 17.1498 38.7681 17.3407 38.3633 17.2976C38.0449 17.2234 37.7473 17.0782 37.4924 16.8727C34.426 14.9883 31.2921 13.2395 27.6799 12.4266C24.822 11.78 21.9948 12.1126 19.1552 12.4266C17.4869 12.6964 15.7972 12.8098 14.1079 12.7653C13.8912 12.7475 13.6761 12.7146 13.464 12.6668C13.2371 12.6113 12.9181 12.5867 12.9672 12.248C13.0163 11.9093 13.2861 11.9647 13.5008 11.9709C16.8125 12.0448 20.0322 11.1765 23.3133 10.9795C26.479 10.8012 29.6394 11.4126 32.5126 12.7591C34.4745 13.6064 36.3277 14.6877 38.0321 15.9798C38.3491 16.1862 38.6154 16.462 38.811 16.7865Z" fill="#2C3639"/>
<path d="M42.9081 18.154C42.9633 18.3265 42.9694 18.4619 42.8407 18.5543C42.7844 18.5949 42.7168 18.6167 42.6475 18.6167C42.5782 18.6167 42.5106 18.5949 42.4543 18.5543C42.1523 18.3722 41.8652 18.1663 41.5957 17.9385C38.9165 15.53 35.9226 13.4997 32.6969 11.9037C32.5498 11.8298 32.4087 11.7559 32.2676 11.6696C32.1266 11.5834 31.9978 11.448 32.0591 11.2632C32.1205 11.0785 32.3474 11.0292 32.5436 11.0785C32.8058 11.1478 33.0638 11.2321 33.3164 11.331C36.8541 12.7835 40.0319 14.9969 42.626 17.8153C42.7263 17.9229 42.8205 18.0359 42.9081 18.154Z" fill="#2C3639"/>
<path d="M43.6257 16.5841C43.687 16.8982 43.5643 17.0706 43.2332 16.9475C43.0108 16.8518 42.8041 16.7231 42.6199 16.5657C41.5282 15.7097 40.4427 14.8414 39.3633 13.9731C39.1739 13.8169 39.0031 13.6392 38.8543 13.4436C38.7844 13.3762 38.7401 13.2865 38.7289 13.1898C38.7177 13.0932 38.7403 12.9956 38.793 12.914C38.934 12.7231 39.1425 12.7846 39.3143 12.877C40.9095 13.8202 42.3392 15.0206 43.5459 16.4302C43.5764 16.4794 43.603 16.5309 43.6257 16.5841Z" fill="#2C3639"/>
<path d="M50.9852 58.569C51.0622 58.716 51.0816 58.8867 51.0396 59.0474C50.9976 59.2081 50.8973 59.3472 50.7583 59.4373C50.6932 59.4897 50.6181 59.5282 50.5376 59.5505C50.4571 59.5728 50.3729 59.5783 50.2903 59.5668C50.2076 59.5553 50.1282 59.5269 50.0568 59.4834C49.9854 59.44 49.9236 59.3824 49.8752 59.3141C49.2619 58.6614 48.6486 57.9902 48.0353 57.3189C41.2483 49.7569 34.4613 42.1907 27.6742 34.6205C21.8603 28.0992 15.9605 21.6394 10.2876 14.9826C10.0423 14.6911 9.80928 14.3894 9.5885 14.0774C9.42904 13.8496 9.29411 13.5786 9.53942 13.3323C9.78474 13.086 10.1036 13.2461 10.3306 13.4431C10.5575 13.6402 10.8519 13.9296 11.0972 14.1821C15.7888 19.1516 20.2964 24.2689 24.8777 29.3493C31.1046 36.2832 37.3253 43.2253 43.5399 50.1756C45.9072 52.8154 48.2745 55.4613 50.6418 58.1133C50.7659 58.2576 50.8806 58.4098 50.9852 58.569V58.569Z" fill="#2C3639"/>
<path d="M63.0975 20.4076C62.9687 19.4778 62.8522 16.9099 62.6743 16.916C62.4965 16.9222 62.288 19.2561 62.0243 20.9803C61.7299 22.9016 61.6011 24.3549 58.7371 24.4165C58.2832 24.4165 58.5101 24.8291 58.6941 24.8291C62.1837 24.903 61.8341 26.3501 62.0978 28.1667C62.2824 29.4674 62.4012 30.7766 62.4536 32.0894C62.5975 32.1332 62.7512 32.1332 62.8951 32.0894C62.8951 32.0894 63.1711 27.8403 63.4164 26.387C63.6127 25.1986 65.06 24.9769 66.2375 24.7552C66.2988 24.7552 66.3663 24.4103 66.1333 24.3857C63.7292 24.1024 63.5452 23.5913 63.0975 20.4076Z" fill="#2C3639"/>
<path d="M35.4502 50.9017C35.3214 49.978 35.2049 47.4102 35.027 47.4102C34.8491 47.4102 34.6406 49.7563 34.3769 51.4744C34.0825 53.4019 33.9599 54.849 31.0897 54.9168C30.642 54.9168 30.8689 55.3232 31.0468 55.3293C34.5364 55.4032 34.1929 56.8442 34.4566 58.6608C34.639 59.9616 34.7557 61.2708 34.8062 62.5835C34.9502 62.6273 35.1039 62.6273 35.2478 62.5835C35.2478 62.5835 35.5238 58.3406 35.7691 56.8873C35.9715 55.6988 37.4188 55.471 38.5902 55.2493C38.6515 55.2493 38.7251 54.9106 38.4921 54.8798C36.0819 54.6027 35.8979 54.0854 35.4502 50.9017Z" fill="#2C3639"/>
<path d="M67.6542 31.1962C67.5622 30.5188 67.4763 28.6406 67.3475 28.6406C67.2188 28.6406 67.0655 30.3587 66.8692 31.6211C66.6545 33.0313 66.5625 34.0843 64.4651 34.1397C64.1339 34.1397 64.2995 34.4353 64.4283 34.4415C66.9857 34.4969 66.7343 35.5499 66.9244 36.9047C67.0611 37.8581 67.1491 38.818 67.1881 39.7805C67.2923 39.8106 67.4028 39.8106 67.507 39.7805C67.507 39.7805 67.7094 36.6707 67.8872 35.6053C68.0344 34.7371 69.1138 34.5708 69.954 34.4107C70.0031 34.4107 70.0521 34.1582 69.8804 34.1397C68.1203 33.9057 67.9854 33.5486 67.6542 31.1962Z" fill="#2C3639"/>
<path d="M13.691 26.5282C13.5991 25.8508 13.5132 23.9727 13.3844 23.9727C13.2556 23.9727 13.1023 25.6907 12.906 26.947C12.6914 28.3571 12.5994 29.4102 10.502 29.4656C10.1708 29.4656 10.3364 29.7673 10.4652 29.7673C13.0226 29.8227 12.7711 30.8819 12.9612 32.2305C13.0977 33.1819 13.1857 34.1397 13.2249 35.1002C13.3286 35.1336 13.4402 35.1336 13.5439 35.1002C13.5439 35.1002 13.7462 31.9904 13.9241 30.9312C14.0713 30.0568 15.1507 29.8905 15.997 29.6996C16.0399 29.6996 16.089 29.4533 15.9173 29.4286C14.1571 29.2377 14.0222 28.8621 13.691 26.5282Z" fill="#2C3639"/>
<path d="M8.83393 19.5525C8.80316 18.9323 8.7294 18.315 8.61316 17.7051C8.49664 17.7051 8.41078 18.9367 8.26972 19.8481C8.1164 20.8703 8.04893 21.6339 6.53412 21.6647C6.29494 21.6647 6.41759 21.8802 6.53412 21.8864C8.37397 21.9233 8.19612 22.6869 8.33718 23.6476C8.43308 24.3337 8.4945 25.0243 8.52117 25.7167C8.59706 25.7403 8.67831 25.7403 8.7542 25.7167C8.7542 25.7167 8.9014 23.4751 9.03019 22.7054C9.13445 22.0896 9.90105 21.9603 10.5205 21.8433C10.5511 21.8433 10.5879 21.6647 10.4653 21.6524C9.17124 21.5107 9.07312 21.2336 8.83393 19.5525Z" fill="#2C3639"/>
</svg>
