<svg width="101" height="91" viewBox="0 0 101 91" fill="none" xmlns="http://www.w3.org/2000/svg">
<path d="M54.5448 43.2439C55.0784 40.7079 56.8631 39.1297 58.5864 37.5148C58.7276 37.3602 58.9003 37.2379 59.0929 37.1563C59.2856 37.0747 59.4935 37.0357 59.7026 37.0419C59.8504 37.0435 59.9959 37.0794 60.1276 37.1467C60.2592 37.214 60.3735 37.311 60.4615 37.43C60.5494 37.549 60.6086 37.6868 60.6345 37.8325C60.6603 37.9783 60.652 38.128 60.6103 38.2701C60.4988 38.673 60.3086 39.0498 60.0507 39.3786C59.7927 39.7075 59.4722 39.9819 59.1077 40.1859C58.1678 40.7843 57.3379 41.5404 56.6546 42.4211C56.4159 42.6925 56.2399 43.0133 56.1394 43.3606C56.0412 43.8088 55.937 44.165 56.6239 43.9378C56.8068 43.8637 57.0113 43.8637 57.1943 43.9378C58.0529 44.5027 58.7213 44.2018 59.4757 43.6553C60.23 43.1088 60.7759 43.5939 60.8127 44.4352C60.8062 44.6832 60.7754 44.93 60.7207 45.172C60.6716 45.4606 60.4876 45.7493 60.9047 45.9519C61.3217 46.1545 61.4689 45.9212 61.6958 45.7063L62.0515 45.3624C62.176 45.2074 62.3537 45.1045 62.55 45.0738C62.7462 45.0432 62.9468 45.0869 63.1125 45.1966C63.5357 45.4484 63.5419 45.8536 63.4069 46.2958C63.3211 46.5782 62.9163 46.8545 63.3395 47.1739C63.7626 47.4932 64.0447 47.2046 64.3453 46.9467C64.4147 46.9021 64.4864 46.8611 64.5599 46.8238C65.0015 46.5168 65.4798 46.1607 65.9889 46.5905C66.4979 47.0203 66.3078 47.5791 66.0196 48.1011C65.9337 48.2546 65.6639 48.4634 66.0196 48.6537C66.3753 48.8441 66.4243 48.6537 66.6329 48.4941C67.6509 47.7081 67.976 47.837 68.1906 49.1081C68.2274 49.3353 68.3072 49.495 68.5095 49.5318C68.9143 49.5994 69.0799 49.931 69.3559 50.2625C70.3233 48.5558 71.7893 47.1865 73.5569 46.3387C73.6635 46.306 73.7545 46.2357 73.8132 46.1408C73.8719 46.046 73.8941 45.933 73.8759 45.8229C73.5938 43.2623 74.2868 40.9105 75.2864 38.5771C75.9261 37.0433 76.7901 35.6133 77.85 34.334C78.2732 33.8366 78.1321 33.4682 77.7458 33.0383C75.2374 30.1891 73.4527 26.8978 71.7109 23.5327C71.2642 22.5731 71.0539 21.5203 71.0976 20.4625C71.0905 19.7762 70.9291 19.1004 70.6254 18.4852C69.3693 15.7775 68.7283 12.8247 68.7487 9.8393C68.7487 9.63052 68.6628 9.33578 68.902 9.22525C69.1412 9.11472 69.3681 9.40334 69.5153 9.58755C69.8588 10.1586 70.1286 10.7481 70.4598 11.3437C71.3062 13.0263 72.1402 14.7088 73.0418 16.3729C72.6821 13.7774 71.9723 11.2428 70.932 8.83841C69.8198 6.20936 68.3772 3.73315 66.639 1.46975C66.5064 1.32372 66.426 1.13773 66.4105 0.940994C66.3949 0.744262 66.4451 0.547934 66.5531 0.382858C66.6697 0.209231 66.8451 0.0837265 67.0469 0.0295436C67.2487 -0.0246394 67.4632 -0.00382463 67.6509 0.0881231C72.8665 1.67437 77.2638 5.22517 79.9168 9.99281C80.5151 10.9911 81.0359 12.034 81.4746 13.1122C81.6838 13.6866 82.0705 14.1792 82.5785 14.5184C83.1918 14.9176 83.3267 15.6728 83.6211 16.2869C85.0695 19.3949 85.5932 22.8548 85.1298 26.253C84.86 28.7952 84.2773 31.1654 82.6766 33.2041C82.6153 33.2782 82.5723 33.3658 82.551 33.4596C82.5297 33.5535 82.5307 33.6511 82.554 33.7445C82.8976 35.5595 82.8568 37.4265 82.4343 39.2247C82.0117 41.0229 81.2167 42.7123 80.1008 44.1834C79.4134 45.1291 78.5412 45.925 77.5372 46.523C77.2523 46.6434 77.0106 46.8476 76.8442 47.1086C76.6777 47.3695 76.5943 47.675 76.605 47.9844C76.5364 49.0174 76.3046 50.033 75.9181 50.9933C77.3348 50.5205 78.5614 49.9371 79.88 49.6423C80.4933 49.5073 81.0514 49.2923 81.6463 49.2002C82.0879 49.1265 82.2596 48.9546 82.2964 48.5125C82.4926 45.8905 83.707 43.729 85.3629 41.7272C87.0836 39.6944 89.124 37.9563 91.4038 36.5814C91.8576 36.2928 91.8515 36.1577 91.5019 35.8138C90.073 34.4138 88.6624 32.9953 87.2518 31.5707C86.9513 31.2637 86.4116 30.9198 86.6385 30.5023C86.8654 30.0847 87.4296 30.447 87.8038 30.5575C90.3946 31.3018 92.6349 32.9481 94.1207 35.1998C94.6849 36.0226 94.6297 36.8209 94.1882 37.8218C93.4522 39.4613 92.7899 41.1315 91.9251 42.7342C90.449 45.4438 88.42 47.8122 85.97 49.6853C85.1495 50.3455 84.2937 50.9605 83.4064 51.5275C82.7196 51.9573 82.4804 52.817 81.9775 53.4433C79.981 55.9534 77.4718 58.0072 74.6179 59.4672C74.3849 59.5839 74.0905 59.6269 73.9188 59.9032C75.6483 59.7988 77.3532 59.6699 79.0582 59.6146C81.5114 59.5286 83.9032 59.983 86.3196 60.2839C89.6866 60.7015 91.6246 63.0349 93.4461 65.4543C95.4945 68.1807 97.04 71.2387 98.61 74.266C99.7569 76.4827 99.3582 78.2328 97.4325 80.2899C96.4249 81.3304 95.2942 82.2439 94.0655 83.0101C93.8447 83.1513 93.581 83.4031 93.3295 83.1268C93.0781 82.8505 93.256 82.5987 93.3909 82.3469C94.09 81.0144 95.0775 79.8907 95.8441 78.6073C96.2243 77.9933 96.5861 77.3792 97.0154 76.7651C97.0849 76.698 97.1376 76.6155 97.1691 76.5242C97.2007 76.4328 97.2103 76.3354 97.1972 76.2396C97.184 76.1439 97.1485 76.0526 97.0935 75.9732C97.0385 75.8938 96.9655 75.8285 96.8805 75.7827C95.2062 74.4195 93.5135 73.0808 91.8699 71.6808C89.9687 70.0658 88 68.5 86.9635 66.1543C86.5898 65.4687 86.3938 64.7002 86.3932 63.9191C86.4361 63.3051 86.154 63.2375 85.7247 63.5753C83.3206 65.4174 80.5117 66.3324 77.5986 66.9649C76.1442 67.208 74.667 67.2863 73.1951 67.1982C73.6023 67.5251 74.0719 67.7653 74.575 67.9043C77.8229 69.4094 80.882 71.2933 83.6886 73.5168C83.9301 73.6737 84.1182 73.9005 84.2278 74.1671C84.3373 74.4336 84.3632 74.7273 84.3019 75.009C83.5963 78.9035 81.8691 82.5402 79.2974 85.5462C77.8738 87.0945 76.3713 88.5681 74.7958 89.9612C74.3594 90.4384 73.7888 90.7719 73.1592 90.9177C72.5296 91.0635 71.8707 91.0148 71.2694 90.7779C70.0155 90.3222 68.8371 89.6805 67.7736 88.8743C67.5099 88.6594 67.0806 88.4568 67.3565 88.0146C67.6325 87.5725 67.9085 88.0146 68.1906 88.0945C69.9092 88.7719 71.8048 88.854 73.5754 88.3278C73.9311 88.205 74.0046 87.9778 74.0966 87.6708C75.0732 84.103 76.7082 80.7499 78.9171 77.7845C79.5304 76.9555 80.2419 76.1695 81.0453 75.1993C77.3596 75.3934 73.6704 74.8893 70.1715 73.7133C71.3128 74.857 72.3398 76.1094 73.238 77.4529C73.7515 78.2755 74.2025 79.1355 74.5873 80.0258C74.6391 80.1188 74.6719 80.2211 74.6839 80.3269C74.6959 80.4327 74.6868 80.5398 74.6572 80.6421C74.6275 80.7443 74.5779 80.8396 74.5111 80.9225C74.4444 81.0054 74.3618 81.0742 74.2683 81.125C72.7596 81.9048 71.5085 83.0715 70.0305 83.8882C67.2979 85.4206 64.4569 86.7505 61.5303 87.8673C60.907 88.1513 60.3367 88.5397 59.8437 89.0156C59.6226 89.2036 59.3553 89.3289 59.0695 89.3786C58.7837 89.4282 58.4899 89.4004 58.2184 89.298C56.4276 88.8006 55.6549 87.3945 55.0907 85.8102C54.8508 85.2459 54.7357 84.6363 54.7534 84.0233C54.7534 83.8943 54.7963 83.7101 54.8821 83.661C55.0722 83.5505 55.1704 83.747 55.2685 83.8698C55.3973 84.0173 55.5103 84.1778 55.6058 84.3487C56.2191 85.4725 57.4457 85.7304 58.3473 86.412C58.6846 86.6576 58.8318 86.3076 59.0096 86.1172C61.2304 83.6601 64.0586 81.8323 67.2094 80.8179C68.3562 80.4495 69.546 80.2039 70.8891 79.8907C69.3743 79.031 67.9698 78.2757 66.5961 77.4345C65.0603 76.5978 63.6971 75.4767 62.579 74.1309C62.26 73.7133 62.0761 73.873 61.8001 74.1309C60.037 75.8633 57.9733 77.2596 55.7101 78.2512C53.6515 79.2018 51.3996 79.6579 49.1338 79.5833C46.868 79.5087 44.651 78.9053 42.6592 77.8213C40.7176 76.864 38.9446 75.5968 37.4094 74.0695C37.1763 73.8361 36.9862 73.7317 36.7348 74.0695C35.41 75.8072 33.5886 76.9187 31.7426 77.9994C30.6938 78.6135 29.6144 79.1846 28.5044 79.7925C28.8417 80.2407 29.3384 80.1363 29.731 80.21C33.2082 80.8715 36.4311 82.4945 39.0346 84.8953C39.5309 85.2478 39.9643 85.6817 40.3164 86.1786C40.5372 86.5593 40.807 86.4918 41.1443 86.2891C42.2299 85.6321 43.3951 85.061 44.0023 83.8329C44.0698 83.6978 44.1986 83.5136 44.3887 83.6242C44.4745 83.6733 44.4991 83.8575 44.5113 83.9864C44.7321 85.7918 43.0701 88.5243 41.3651 89.1691C40.6169 89.4515 39.8932 89.5252 39.2983 88.8743C38.3539 87.8304 36.9985 87.6032 35.8026 87.069C32.3804 85.54 28.9827 83.9987 25.9899 81.6653C25.9498 81.6253 25.9067 81.5883 25.8611 81.5548C24.383 80.5232 24.3769 80.517 25.2048 78.8652C26.2041 76.9548 27.4953 75.2124 29.0318 73.701C25.552 74.8577 21.8871 75.3534 18.2255 75.1625C19.2497 76.5625 20.3291 77.674 21.1877 78.9573C22.9259 81.6052 24.2476 84.5045 25.1067 87.5541C25.134 87.741 25.2162 87.9156 25.3429 88.0555C25.4696 88.1955 25.635 88.2946 25.8181 88.3401C27.6216 88.8548 29.5497 88.7045 31.2519 87.9164C31.4666 87.8182 31.6322 87.6831 31.8345 87.9164C31.8807 87.9604 31.9161 88.0143 31.9382 88.0742C31.9602 88.134 31.9683 88.198 31.9618 88.2615C31.9553 88.3249 31.9343 88.386 31.9006 88.4401C31.8668 88.4942 31.8212 88.5398 31.7671 88.5734C30.3996 89.8581 28.6728 90.6937 26.8178 90.9682C26.3679 90.9826 25.9204 90.8976 25.5071 90.7193C25.0937 90.541 24.7246 90.2738 24.426 89.9366C23.322 88.8068 22.0709 87.8427 20.9792 86.6944C17.8324 83.4846 15.725 79.3994 14.9322 74.9721C14.8662 74.7051 14.8825 74.4245 14.9788 74.1669C15.0752 73.9094 15.247 73.6871 15.4719 73.5291C18.6923 70.9981 22.2051 68.8643 25.9347 67.1736H24.935C20.8638 67.2089 16.8851 65.9584 13.5645 63.5998C13.2947 63.4094 12.8592 62.9858 12.8347 63.8086C12.7795 65.792 11.7553 67.3271 10.498 68.721C8.5171 70.9132 6.07619 72.5773 3.84993 74.487C3.34703 74.923 2.83186 75.3406 2.31056 75.7581C1.94871 76.0529 1.91805 76.3108 2.17563 76.7467C3.19983 78.4293 4.39576 79.9951 5.45676 81.6592C5.72661 82.089 6.27244 82.6355 5.86153 83.0531C5.45063 83.4707 4.97839 82.8382 4.63495 82.5864C3.16226 81.6337 1.88087 80.4132 0.857052 78.988C0.347515 78.3226 0.0508428 77.5186 0.00596775 76.6813C-0.0389073 75.8441 0.17011 75.0128 0.605599 74.2967C2.61107 70.6123 4.41417 66.7561 7.25372 63.5875C8.44351 62.2612 9.82343 60.9901 11.5836 60.4558C12.6756 60.2009 13.7844 60.0244 14.9015 59.9278C16.9782 59.5663 19.0907 59.4549 21.1939 59.5962C22.5615 59.7251 23.9476 59.5962 25.3152 59.8602C23.9638 59.1126 22.6535 58.2927 21.3901 57.404C19.4676 55.9785 17.8074 54.229 16.4838 52.2337C16.1931 51.8005 15.8097 51.4376 15.3615 51.1714C12.1483 49.1239 9.46459 46.3443 7.52969 43.0597C6.43803 41.1438 5.72048 39.0806 4.76987 37.1095C4.67638 36.859 4.64983 36.5885 4.69285 36.3246C4.73588 36.0608 4.84699 35.8127 5.01519 35.6051C5.78118 34.2806 6.8209 33.1353 8.06474 32.2458C9.30857 31.3562 10.7278 30.743 12.2275 30.447C12.3931 30.4163 12.5894 30.3733 12.6936 30.5268C12.7979 30.6803 12.6936 30.9075 12.5587 31.0488C12.2521 31.4049 11.9454 31.7549 11.5958 32.0865C10.3693 33.3146 9.14266 34.5857 7.87928 35.7708C7.4561 36.1823 7.48676 36.3419 7.98967 36.6489C9.82411 37.7432 11.5032 39.0795 12.9819 40.6219C14.8218 42.636 16.5083 44.8097 16.8456 47.6344C16.9928 48.8625 17.4589 49.2371 18.6181 49.4458C19.9532 49.6955 21.25 50.1187 22.4757 50.7047C22.738 50.8547 23.0391 50.9231 23.3404 50.9012C22.8954 49.7368 22.6487 48.5059 22.6106 47.2598C22.6106 46.9773 22.3408 46.9405 22.1629 46.8238C18.5138 44.4843 16.7536 41.0763 16.5819 36.8086C16.447 35.784 16.501 34.7434 16.7414 33.7383C16.8456 33.4129 16.6126 33.2287 16.4531 33.0015C15.0993 31.0592 14.3231 28.7725 14.2146 26.4065C13.9433 24.2878 14.0013 22.1398 14.3863 20.0388C14.7911 18.2703 15.2327 16.3544 16.3795 15.0588C18.3482 12.7806 19.1271 9.86387 20.9915 7.54274C23.6788 4.04664 27.364 1.4511 31.5586 0.100397C32.0369 -0.0531163 32.4724 -0.0531088 32.7361 0.37673C32.8451 0.573509 32.8856 0.80102 32.8512 1.02339C32.8167 1.24576 32.7094 1.45034 32.546 1.60484C30.2228 4.65536 28.4351 8.0795 27.2594 11.7306C26.7829 13.246 26.4462 14.802 26.2536 16.379C26.3517 16.2193 26.4621 16.0597 26.548 15.8939C27.5047 13.9821 28.4594 12.0704 29.412 10.1586C29.6083 9.75949 29.8475 9.16386 30.2584 9.24368C30.6693 9.32351 30.4914 9.96213 30.4853 10.3367C30.4595 13.2672 29.7651 16.153 28.4553 18.7738C28.0566 19.5659 28.2345 20.3458 28.1364 21.1256C27.9056 22.8059 27.2975 24.412 26.3578 25.8232C25.0086 27.8864 23.9046 30.1215 22.3591 32.0435C22.3101 32.1111 22.2794 32.1909 22.2304 32.2585C21.8562 32.762 21.1019 33.0567 21.108 33.7445C21.1142 34.4322 21.7581 34.7392 22.1016 35.2366C23.6839 37.4284 24.7586 39.9456 25.2478 42.6053C25.5181 43.6285 25.5786 44.6959 25.4256 45.7431C25.4007 45.8028 25.3887 45.8672 25.3907 45.932C25.3926 45.9967 25.4083 46.0602 25.4368 46.1184C25.4652 46.1765 25.5058 46.2279 25.5557 46.2691C25.6056 46.3103 25.6637 46.3403 25.7261 46.3571C27.4931 47.2037 28.9575 48.5734 29.9211 50.281C30.1909 49.9739 30.3258 49.6669 30.6938 49.5748C31.0618 49.4827 31.0986 49.2678 31.0802 48.9608C31.0469 48.7955 31.0685 48.6239 31.1415 48.4721C31.2146 48.3202 31.3352 48.1964 31.485 48.1195C31.6637 48.0376 31.865 48.0191 32.0556 48.0671C32.2463 48.1151 32.4149 48.2267 32.5337 48.3835C32.63 48.4848 32.737 48.5754 32.8526 48.6537C32.9209 48.7021 33.0042 48.7244 33.0875 48.7165C33.1708 48.7086 33.2484 48.6711 33.3064 48.6107C33.4598 48.4818 33.3555 48.3713 33.3064 48.2484C33.0182 47.7019 32.6441 47.094 33.2697 46.5966C33.8952 46.0993 34.4656 46.6765 34.9685 47.0142C35.2874 47.2291 35.5388 47.4563 35.9129 47.18C36.2871 46.9037 35.9743 46.6273 35.8762 46.3756C35.6983 45.9089 35.686 45.4791 36.1399 45.2027C36.3202 45.0909 36.5362 45.0515 36.7444 45.0925C36.9526 45.1335 37.1376 45.2519 37.2622 45.4238C37.4351 45.6051 37.6173 45.7772 37.808 45.9396C38.0165 46.1238 38.2128 46.0133 38.4213 45.9396C38.6298 45.8659 38.6298 45.6326 38.5869 45.4422C38.544 45.2519 38.4949 45.1782 38.4704 45.0431C38.3661 44.472 38.3661 43.9071 38.9426 43.5694C39.5191 43.2316 39.9055 43.6308 40.1999 43.9378C40.2824 44.0483 40.3868 44.1406 40.5067 44.2088C40.6265 44.2769 40.7591 44.3196 40.8962 44.334C41.0333 44.3484 41.1718 44.3343 41.3032 44.2925C41.4345 44.2508 41.5559 44.1823 41.6595 44.0913C41.8024 44.0015 41.9631 43.9439 42.1305 43.9227C42.2978 43.9015 42.4678 43.9171 42.6285 43.9685C43.3277 44.1773 43.2418 43.8027 43.0946 43.3851C42.5404 42.1719 41.6371 41.152 40.5004 40.4561C39.7128 40.0312 39.0923 39.3515 38.7402 38.5279C38.6304 38.3332 38.5935 38.1057 38.6363 37.8862C38.679 37.6668 38.7985 37.4697 38.9733 37.3306C39.1475 37.1653 39.3765 37.0702 39.6163 37.0634C39.8562 37.0566 40.0902 37.1386 40.2735 37.2937C41.6966 38.3144 42.9069 39.6035 43.8367 41.0886C44.2435 41.7635 44.5513 42.4935 44.7505 43.2562C45.2729 42.9888 45.8409 42.8222 46.4248 42.7649C46.9032 42.7649 46.8418 42.5623 46.6456 42.2553C45.7385 40.8281 44.7473 39.4564 43.6773 38.1472C42.6714 36.9191 41.6043 35.7524 41.3161 34.1068C41.1627 33.198 41.4265 32.4365 42.0336 32.2646C42.4154 32.1831 42.8138 32.2535 43.1446 32.4609C43.4755 32.6684 43.7127 32.9966 43.806 33.376C44.1687 34.333 44.3998 35.3349 44.4929 36.3542C44.4929 36.7656 44.7996 36.9253 44.9897 37.1832C45.8851 38.4113 46.7989 39.6025 47.8047 40.9473C47.5717 39.9034 47.3509 39.0192 47.1914 38.1288C47.0201 37.3933 47.0626 36.6241 47.3141 35.9121C47.4613 35.5375 47.6453 35.1568 48.1482 35.298C48.3536 35.3515 48.5295 35.4842 48.6375 35.6672C48.7455 35.8501 48.7769 36.0684 48.7247 36.2744C48.5407 38.1779 49.3748 39.9034 49.6569 41.7517C49.9451 40.1061 50.632 38.5525 50.6136 36.8393C50.5982 36.5345 50.5982 36.2291 50.6136 35.9244C50.622 35.7543 50.6921 35.5932 50.8106 35.4711C50.9291 35.349 51.0881 35.2744 51.2576 35.2612C51.6256 35.2121 51.8034 35.4577 51.9383 35.7524C52.4106 36.8147 52.1959 37.8771 51.9383 38.9394C51.8095 39.5534 51.6378 40.1675 51.5397 40.7815C52.57 39.4429 53.6065 38.1165 54.6061 36.7595C54.9741 36.2498 54.9373 35.4515 55.1029 34.7884C55.2245 34.2495 55.3781 33.7185 55.5629 33.198C55.6829 32.8586 55.922 32.5744 56.2356 32.3982C56.5492 32.222 56.916 32.1658 57.2679 32.24C57.8321 32.3874 58.1387 33.0936 58.0161 33.9103C57.7585 35.6173 56.673 36.8639 55.6242 38.1165C54.5695 39.401 53.5907 40.746 52.6927 42.1447C52.4535 42.507 52.3799 42.7281 52.9564 42.7588C53.5159 42.7972 54.0592 42.9631 54.5448 43.2439V43.2439ZM49.6385 78.0854C49.859 78.1007 50.0803 78.1007 50.3008 78.0854C55.5567 77.3178 59.6904 74.6651 62.947 70.5387C64.5311 68.4348 65.8226 66.1253 66.7862 63.6735C67.9146 60.9901 68.0127 58.147 68.1783 55.2855C68.1727 54.0473 68.0412 52.8128 67.7859 51.6012C67.6816 50.9871 67.3443 50.7231 66.8782 50.7845C66.2988 50.821 65.7241 50.6609 65.2468 50.3301C64.6948 50.0353 64.0202 50.0599 63.5357 49.7774C62.3487 49.0962 61.1196 48.4911 59.8559 47.966C59.438 47.7062 58.98 47.5174 58.5006 47.4072C58.2238 47.3889 57.9554 47.304 57.7184 47.1597C57.4814 47.0154 57.2826 46.8159 57.139 46.5782C57.0205 46.3894 56.8528 46.2365 56.654 46.1359C56.4552 46.0353 56.2328 45.9908 56.0106 46.0072C54.9282 46.0639 53.8554 45.7782 52.9441 45.1904C52.5627 44.9073 52.1004 44.7544 51.6255 44.7544C51.1507 44.7544 50.6884 44.9073 50.307 45.1904C50.0992 45.3385 49.8505 45.4181 49.5955 45.4181C49.3405 45.4181 49.0918 45.3385 48.8841 45.1904C48.5121 44.918 48.0632 44.7712 47.6023 44.7712C47.1414 44.7712 46.6925 44.918 46.3205 45.1904C45.3889 45.796 44.2897 46.0905 43.1805 46.0317C42.9989 46.0038 42.8131 46.0263 42.6434 46.0967C42.4736 46.1671 42.3264 46.2826 42.2176 46.4309C41.8128 47.1186 41.0585 47.18 40.482 47.5423C39.2002 48.359 37.4523 48.1932 36.4526 49.5502C36.2461 49.7415 35.9734 49.845 35.6922 49.8388C35.0005 49.9064 34.3323 50.1266 33.7358 50.4836C33.338 50.7305 32.8713 50.8425 32.4049 50.8029C31.9081 50.7538 31.5524 50.9687 31.4482 51.6564C31.1192 53.8927 31.0594 56.1605 31.2703 58.4111C31.5509 61.3125 32.4124 64.1276 33.8032 66.6885C35.5154 70.1651 38.1106 73.1298 41.3283 75.2853C43.813 76.9161 46.6746 77.8803 49.6385 78.0854ZM83.5966 23.2073C83.8358 21.0151 82.8361 18.7493 81.8732 16.4527C81.6034 15.8386 81.2599 15.8079 80.7447 16.1088C79.5181 16.7781 78.2916 17.429 77.065 18.0492C75.728 18.7124 74.4339 19.4677 73.1583 20.2475C72.8455 20.4379 72.6186 20.6221 72.7045 21.0274C72.8991 22.2038 73.3043 23.3355 73.9004 24.3678C74.7529 25.6942 75.5501 27.0574 76.3536 28.4083C77.1772 29.8544 78.1628 31.2017 79.2912 32.4243C79.4215 32.581 79.596 32.6947 79.7918 32.7506C79.9877 32.8065 80.1958 32.8019 80.3891 32.7374C81.3642 32.4979 81.7506 31.7304 82.1615 30.9935C83.4494 28.6969 83.5598 26.1425 83.5843 23.2073H83.5966ZM15.6742 23.4468C15.6069 24.9837 15.7202 26.5232 16.0116 28.0338C16.2298 29.6405 16.9363 31.1412 18.0354 32.3321C18.149 32.4906 18.2986 32.6197 18.4719 32.7088C18.6452 32.7979 18.8372 32.8443 19.032 32.8443C19.2268 32.8443 19.4188 32.7979 19.5921 32.7088C19.7654 32.6197 19.9151 32.4906 20.0286 32.3321C20.635 31.6846 21.1926 30.9929 21.6968 30.2628C22.6781 28.789 23.6103 27.2785 24.5302 25.7679C25.3766 24.374 26.2474 22.9924 26.4744 21.3099C26.541 21.1068 26.5325 20.8864 26.4503 20.6891C26.3681 20.4918 26.2177 20.3307 26.0266 20.2353C23.5367 18.6633 20.8443 17.4659 18.2807 16.0351C17.7778 15.7527 17.6061 15.9799 17.4221 16.3913C16.3979 18.6756 15.4044 20.966 15.662 23.4468H15.6742ZM69.3743 2.47679C70.4414 4.41106 71.4717 6.16112 72.2751 8.00328C73.5378 10.7811 74.3474 13.7436 74.6731 16.7781C74.7283 17.3922 74.9982 17.3124 75.3784 17.1097C76.8503 16.3483 78.3222 15.5684 79.8064 14.8193C80.2603 14.5921 80.2051 14.3403 80.0395 13.9473C79.5613 12.7953 78.9975 11.6807 78.3529 10.613C76.2679 7.03569 73.1268 4.19324 69.362 2.47679H69.3743ZM29.9088 2.47679C28.9591 2.89256 28.0408 3.3769 27.1612 3.92597C23.5503 6.46221 20.7631 10.0046 19.1455 14.1131C19.0167 14.4324 19.0351 14.6289 19.3479 14.7886L23.9231 17.165C24.4137 17.4229 24.5363 17.2264 24.567 16.7351C24.6156 15.8224 24.7574 14.9171 24.9902 14.0333C25.8611 9.93142 27.6212 6.21025 29.8965 2.46451L29.9088 2.47679ZM85.4426 61.7699C83.9661 61.4483 82.4635 61.2613 80.9533 61.2112C77.6693 61.1445 74.3858 61.3664 71.1406 61.8743C68.9511 62.1875 68.9879 62.2121 68.3255 64.1525C68.1354 64.7174 68.3255 64.8341 68.7855 64.9262C71.852 65.5402 74.9184 65.9701 77.9849 65.2455C80.6527 64.6007 83.2409 63.6858 85.4303 61.7576L85.4426 61.7699ZM13.8037 61.7699C14.8638 62.6737 16.0523 63.4146 17.3301 63.9683C21.6232 65.9824 26.0512 65.9087 30.5466 64.9139C30.7429 64.8709 31.1047 64.8218 31.0373 64.5762C30.8403 63.8268 30.5965 63.0905 30.3074 62.3717C30.1173 61.8866 29.6941 62.2428 29.3446 62.1629C26.7319 61.4998 24.0457 61.4076 21.3717 61.2234C18.8328 61.0583 16.2831 61.236 13.7914 61.7515L13.8037 61.7699ZM81.1925 73.701C77.5478 71.008 73.4985 68.9125 69.1964 67.4929C68.5402 67.2719 67.8104 66.7868 67.2462 66.9342C66.6819 67.0815 66.5408 68.0333 66.1851 68.6105C66.0134 68.8991 65.8294 69.1754 65.6516 69.4579C65.4737 69.7404 65.5105 69.7834 65.7559 69.9185C67.8016 71.075 69.9697 71.9997 72.22 72.6756C75.1515 73.5107 78.1628 73.5598 81.1802 73.6826L81.1925 73.701ZM18.06 73.8054C19.9428 73.6642 21.844 73.6028 23.7145 73.3571C27.144 72.8834 30.4434 71.7245 33.4168 69.9492C33.7787 69.7342 33.6376 69.593 33.5027 69.3351C33.0857 68.6167 32.6318 67.9166 32.2761 67.1675C32.0983 66.7929 31.9695 66.8727 31.6628 66.9526C29.609 67.5297 27.6068 68.2773 25.6771 69.1877C22.934 70.3607 20.3665 71.9085 18.0477 73.787L18.06 73.8054ZM69.5767 59.5778C72.0564 59.0111 74.4 57.96 76.4732 56.4848C78.5465 55.0096 80.3086 53.1393 81.6586 50.981C80.5365 51.1483 79.4361 51.4386 78.3774 51.8468C75.7979 52.8617 73.3092 54.0942 70.9382 55.5311C70.4843 55.789 69.7729 55.9917 69.7545 56.575C69.6809 57.5145 69.3865 58.4909 69.5399 59.5594L69.5767 59.5778ZM17.6429 50.981C18.9926 53.1408 20.7553 55.0122 22.8298 56.4876C24.9043 57.9629 27.2497 59.0131 29.731 59.5778C29.8597 58.5093 29.4979 57.533 29.5715 56.5443C29.5715 56.2496 29.3139 56.1452 29.1054 56.0101C26.9603 54.627 24.7037 53.4254 22.3591 52.4179C20.8438 51.7303 19.2463 51.2412 17.6061 50.9626L17.6429 50.981ZM23.9231 44.8404C23.7231 41.5648 22.5459 38.4245 20.5438 35.8261C20.2158 35.3452 19.833 34.9042 19.4031 34.512C19.2741 34.4036 19.1189 34.3312 18.9531 34.3021C18.7873 34.273 18.6167 34.2882 18.4586 34.3462C18.109 34.4506 18.1888 34.8006 18.1949 35.0647C18.1254 36.2276 18.1788 37.3947 18.3543 38.5464C19.0044 41.3035 20.2433 43.6799 22.6781 45.301C22.997 45.5098 23.3527 45.8352 23.7329 45.7001C24.1132 45.565 23.8004 45.0922 23.8801 44.8404H23.9231ZM81.1066 36.2437C81.125 35.939 81.125 35.6334 81.1066 35.3287C81.0637 34.9787 81.3151 34.4936 80.7877 34.3278C80.5707 34.2741 80.3425 34.2876 80.1333 34.3666C79.9242 34.4455 79.7439 34.5862 79.6163 34.7699C78.7989 35.6764 78.0908 36.676 77.5066 37.7481C76.1629 39.9928 75.4273 42.5495 75.3723 45.1659C75.3723 45.6878 75.5379 45.8475 75.9856 45.5957C76.8182 45.215 77.5683 44.6747 78.1934 44.0053C80.0272 41.7763 81.1986 39.2464 81.0698 36.256L81.1066 36.2437ZM83.8971 49.2309C88.0429 46.3817 90.6433 42.5439 92.4464 37.8157C89.3799 39.7131 86.8654 41.8868 85.0869 44.8282C84.2263 46.1349 83.7973 47.6792 83.8603 49.2432L83.8971 49.2309ZM6.83055 37.9016C8.61524 42.5746 11.2217 46.4247 15.2879 49.188C15.9073 45.7738 11.5774 40.5605 6.83055 37.9016ZM3.29183 72.7492C5.61008 70.9071 8.143 69.2491 9.98901 66.8604C10.8292 65.745 11.3105 64.4 11.3689 63.0042C11.3689 62.8261 11.4609 62.5682 11.2279 62.4945C11.1475 62.4849 11.066 62.4925 10.9888 62.5169C10.9116 62.5412 10.8405 62.5818 10.7802 62.6358C10.1734 63.0714 9.58997 63.5387 9.03227 64.0358C6.42577 66.4613 5.02745 69.7097 3.29183 72.7492ZM95.8441 72.8229C94.7546 70.4427 93.4533 68.1656 91.9558 66.0192C90.9847 64.6977 89.7939 63.5533 88.4355 62.6358C88.276 62.5314 88.0859 62.3656 87.9203 62.5191C87.8729 62.5871 87.8407 62.6645 87.8259 62.7461C87.8111 62.8277 87.814 62.9115 87.8345 62.9919C87.9147 63.8429 88.1086 64.6794 88.4109 65.4788C89.1754 66.9605 90.2532 68.2576 91.5694 69.2798C93.0106 70.4527 94.409 71.6439 95.8441 72.8229ZM27.0018 78.8038C28.8049 77.7845 30.5098 76.8757 32.1535 75.8686C33.3633 75.1321 34.462 74.2265 35.4162 73.1791C35.5083 73.0963 35.5805 72.9936 35.6271 72.8788C35.6738 72.764 35.6938 72.6401 35.6855 72.5165C35.6772 72.3928 35.6409 72.2726 35.5794 72.1651C35.5179 72.0575 35.4327 71.9654 35.3303 71.8957C34.9991 71.558 34.8152 71.0237 34.1037 71.429C33.3758 71.8765 32.6938 72.3948 32.0676 72.9764C30.1159 74.6729 28.4107 76.6344 27.0018 78.8038V78.8038ZM72.2506 78.8775C70.967 76.8407 69.4204 74.9825 67.6509 73.351C66.8414 72.608 66.0931 71.7483 65.0076 71.3738C64.8298 71.3124 64.701 71.0913 64.3943 71.2816C63.4315 71.8957 63.3088 72.6817 64.1061 73.4738C64.4986 73.8607 64.8911 74.2476 65.3327 74.6098C67.3872 76.3292 69.8772 77.3178 72.2506 78.8775ZM29.5408 53.5416C29.5722 53.2481 29.5257 52.9516 29.4059 52.6819C28.6767 50.8709 27.4147 49.3247 25.7875 48.2484C25.2968 47.9537 24.6835 47.3396 24.291 47.5976C23.8985 47.8555 24.291 48.666 24.4628 49.2125C25.1742 51.5828 26.9159 52.9521 29.0809 53.8793C29.6144 54.1065 29.5347 53.7013 29.5408 53.5416ZM69.6809 53.0688C69.638 53.9653 69.73 54.0451 70.2574 53.8179C72.7965 52.7126 74.6118 51.0117 74.9859 48.1072C74.9859 47.9169 75.1454 47.6958 74.9859 47.5607C74.8265 47.4256 74.575 47.6098 74.3726 47.6958C72.638 48.5324 71.2187 49.9061 70.3249 51.6135C70.0315 52.0597 69.8139 52.5514 69.6809 53.0688V53.0688ZM76.2738 86.326C79.8003 83.1697 82.002 78.7179 82.2351 76.4029C80.0211 78.374 76.8687 83.5996 76.2738 86.326V86.326ZM16.9622 76.4213C17.876 80.3389 19.9612 83.5627 23.0583 86.4427C21.8067 82.6848 19.7227 79.2589 16.9622 76.4213V76.4213ZM61.2052 86.2093C64.3332 85.0521 67.3355 83.579 70.1654 81.8127C66.7912 82.2984 63.6559 83.8369 61.2052 86.2093V86.2093ZM37.9981 86.2093C35.5528 83.8348 32.4173 82.2996 29.0441 81.825C31.8745 83.5737 34.8694 85.0401 37.9859 86.2032L37.9981 86.2093Z" fill="#2C3639"/>
<path d="M40.752 74.5604C38.7557 71.875 37.2465 68.8591 36.2933 65.6504C36.1523 65.1715 35.7413 64.4223 36.2933 64.2381C36.8453 64.0539 36.8269 64.9258 36.9741 65.3434C38.1067 68.7569 39.8457 71.9376 42.1073 74.7323C42.5298 75.2484 43 75.7233 43.5118 76.1507C43.6774 75.8621 43.4198 75.7639 43.3033 75.6227C41.1138 73.0498 39.832 70.0225 38.8937 66.8171C38.8413 66.6606 38.8003 66.5006 38.771 66.3382C38.771 66.1478 38.7158 65.9145 38.9734 65.8592C39.231 65.8039 39.2678 65.982 39.3291 66.1417C39.5131 66.5776 39.691 67.0198 39.8627 67.4557C40.9666 70.2927 42.2423 73.0314 44.26 75.3586C45.1068 76.2404 46.0259 77.0497 47.0076 77.778C47.2713 77.9929 47.811 78.3921 47.5473 78.5456C47.2835 78.6991 46.7561 79.2701 46.198 79C45.8301 78.8219 45.4927 78.564 45.137 78.3491C44.6771 78.0789 44.3091 77.6306 43.6467 77.8333C43.3707 77.9131 43.107 77.5938 42.8556 77.4218C39.9427 75.4457 37.5977 72.74 36.0541 69.5742C35.4099 68.3733 34.8524 67.1277 34.386 65.8469C34.3062 65.6013 34.0977 65.2758 34.4534 65.1162C34.8091 64.9565 34.9257 65.3066 35.0667 65.546C35.9069 67.1119 36.7226 68.69 37.5751 70.2497C38.4428 71.8185 39.5107 73.2675 40.752 74.5604V74.5604Z" fill="#2C3639"/>
<path d="M78.0035 28.2669C77.3902 26.9037 76.7769 25.5405 76.1636 24.1712C76.0532 23.9133 75.7956 23.5571 76.1636 23.3545C76.5316 23.1519 76.7401 23.5694 76.8934 23.8273C78.5303 26.5113 79.8769 29.3623 80.9105 32.332C81.3146 31.2619 81.5464 30.1344 81.5974 28.9915C81.6648 28.5003 81.7078 28.0029 81.7753 27.5055C81.7753 27.2845 81.8672 27.0204 82.1494 27.0511C82.4315 27.0818 82.4928 27.4011 82.4867 27.6345C82.4714 28.8549 82.3793 30.0732 82.2107 31.282C82.0259 33.3701 81.6836 35.4413 81.1865 37.4778C80.978 38.2269 80.7694 38.9761 80.5364 39.7191C80.4628 39.9647 80.3769 40.3331 80.009 40.2103C79.641 40.0875 79.7575 39.7436 79.8188 39.4796C80.193 37.7725 80.5793 36.0716 80.9657 34.3645C81.0163 34.1767 81.0552 33.986 81.0822 33.7934C81.0822 33.6399 81.0086 33.5233 80.8308 33.5724C80.7357 33.6024 80.6494 33.655 80.5793 33.7259C81.0761 34.7637 80.0825 35.3347 79.8372 36.133C79.8139 36.2139 79.7743 36.2891 79.7207 36.3541C79.5122 36.612 79.457 37.1892 79.0093 36.9681C78.5616 36.7471 78.8928 36.3172 79.0522 36.0839C79.9415 34.7759 79.6103 33.7013 78.7946 32.4364C77.9676 30.9898 77.2501 29.4832 76.6481 27.9292C76.5132 27.6222 76.2249 27.1862 76.6481 26.9651C77.0713 26.7441 77.2614 27.2599 77.4822 27.5792C77.6425 27.8336 77.7899 28.0959 77.9237 28.3652L78.0035 28.2669Z" fill="#2C3639"/>
<path d="M19.023 31.3425C18.898 28.6114 19.1331 25.8758 19.7221 23.2063C19.8448 22.715 19.7957 21.8369 20.4274 21.9229C20.8997 21.9904 20.6728 22.8562 20.6114 23.3475C20.2385 26.5204 20.1625 29.7213 20.3845 32.9083C20.3845 33.3197 20.4336 33.7373 19.7712 33.6943C19.3174 33.6943 18.9923 33.9522 19.0904 34.5479C19.2315 35.4198 19.3051 36.3102 19.4032 37.1883C19.4032 37.3848 19.4768 37.612 19.2315 37.6795C18.9862 37.7471 18.8513 37.5322 18.8206 37.3602C18.6121 36.1997 17.9129 35.0698 18.5569 33.8417C18.5874 33.7802 18.6001 33.7114 18.5936 33.643C18.5871 33.5746 18.5616 33.5095 18.5201 33.4548C17.545 31.6986 17.5511 29.7705 17.5388 27.8485C17.4851 25.9328 17.6477 24.0171 18.0233 22.1378C18.1031 21.7817 18.0969 21.1799 18.563 21.2474C19.0291 21.315 18.8513 21.9045 18.8267 22.2422C18.653 24.4031 18.6018 26.5722 18.6734 28.7389C18.6823 29.6179 18.7997 30.4924 19.023 31.3425V31.3425Z" fill="#2C3639"/>
<path d="M76.0102 45.3873C76.7891 44.3496 77.5496 43.2934 78.3468 42.2679C78.586 41.9671 78.8865 41.3407 79.2545 41.6047C79.6225 41.8688 79.1686 42.3908 78.954 42.7285C78.3407 43.6618 77.6293 44.5276 77.1141 45.4979C76.464 46.6891 75.587 47.7392 75.0473 48.9918C74.0292 51.3682 72.1955 53.0692 70.2881 54.6964C70.0919 54.8683 69.8098 55.1447 69.5706 54.8499C69.3314 54.5552 69.5706 54.2359 69.8159 54.0578C70.5161 53.4662 71.1778 52.8304 71.7969 52.1542C72.4685 51.4659 73.0628 50.7061 73.5693 49.8883C73.3914 49.7471 73.3056 49.8392 73.2136 49.8883C72.9498 50.0296 72.7106 50.5024 72.3917 50.1217C72.0728 49.741 72.5205 49.5076 72.7168 49.2743C73.2919 48.6308 73.9241 48.0409 74.6058 47.512C74.7681 47.4112 74.887 47.2533 74.9392 47.0693C74.9914 46.8853 74.9731 46.6884 74.8878 46.5172C74.7238 45.7517 74.8076 44.9537 75.127 44.2391C75.6975 42.6402 76.3736 41.0812 77.1509 39.5722C77.2552 39.3389 77.3962 38.995 77.7642 39.1608C78.1322 39.3266 77.9666 39.6582 77.8746 39.9038C77.5802 40.7451 77.2613 41.5802 76.9424 42.403C76.4993 43.3514 76.1858 44.3552 76.0102 45.3873V45.3873Z" fill="#2C3639"/>
<path d="M25.487 6.70248C23.2785 9.21676 21.4216 12.02 19.9674 15.0352C19.9118 15.163 19.8462 15.2862 19.7711 15.4036C19.6669 15.5694 19.5442 15.7537 19.3173 15.6493C19.0904 15.5449 19.1272 15.3054 19.2008 15.1335C19.469 14.4042 19.7781 13.6908 20.1269 12.9965C22.0371 9.51191 24.3824 6.28472 27.1061 3.39272C27.8114 2.64971 28.946 2.51463 29.5041 1.58127C29.5305 1.54688 29.5644 1.51901 29.6032 1.49984C29.642 1.48067 29.6847 1.4707 29.728 1.4707C29.7713 1.4707 29.814 1.48067 29.8528 1.49984C29.8916 1.51901 29.9255 1.54688 29.9518 1.58127C30.1481 1.80233 29.9886 2.0111 29.8598 2.19532C29.3079 2.8892 28.713 3.55237 28.1794 4.25854C27.3392 5.36998 26.548 6.50598 25.7262 7.62356C25.5729 7.83234 25.4257 8.23762 25.1129 8.04112C24.8002 7.84462 25.1129 7.55602 25.1865 7.31654C25.2601 7.07706 25.3889 6.86828 25.487 6.70248Z" fill="#2C3639"/>
<path d="M24.4934 65.1844C20.2984 65.1844 16.4776 63.8458 12.8408 61.9668C12.5648 61.8256 12.1294 61.6659 12.3256 61.2545C12.5219 60.8431 12.9389 61.0396 13.221 61.1378C14.0306 61.4203 14.8401 61.715 15.6251 62.0589C18.5479 63.2768 21.6618 63.971 24.8245 64.1098C25.2906 64.1098 25.7567 64.2019 26.229 64.2572C26.4559 64.2572 26.7012 64.337 26.7135 64.6134C26.7257 64.8897 26.4743 64.9695 26.2474 64.9941C25.6709 65.0678 25.1067 65.123 24.4934 65.1844Z" fill="#2C3639"/>
<path d="M56.5871 77.036C53.5206 77.036 50.1598 74.4815 49.3441 71.5832C49.2766 71.356 49.1233 71.0551 49.4729 70.9691C49.8225 70.8832 49.8777 71.2209 49.9696 71.4297C50.3622 72.4445 50.9653 73.3644 51.7392 74.1287C52.5131 74.8929 53.44 75.4841 54.4589 75.8632C54.7717 75.9798 55.0723 76.0903 55.4034 76.1886C55.7397 76.3112 56.1067 76.3205 56.4487 76.2152C56.7907 76.11 57.0891 75.8958 57.2985 75.6053C58.9776 73.6725 60.3623 71.5019 61.4076 69.1638C61.5118 68.9427 61.6345 68.7217 61.7572 68.5068C61.7898 68.4444 61.8434 68.3955 61.9084 68.3686C61.9733 68.3416 62.0457 68.3384 62.1129 68.3594C62.1803 68.3807 62.2373 68.4267 62.2725 68.4881C62.3077 68.5495 62.3186 68.6219 62.303 68.691C62.2619 68.9917 62.192 69.2878 62.0945 69.5752C61.2305 71.9922 59.8369 74.1848 58.016 75.9921C57.8995 76.1088 57.6787 76.2254 57.6787 76.3421C57.7217 77.3185 56.998 76.9623 56.5871 77.036Z" fill="#2C3639"/>
<path d="M73.4897 64.8394C73.1585 64.8394 72.9071 64.8394 72.6556 64.8394C72.4042 64.8394 72.1098 64.8394 72.0852 64.5017C72.0607 64.164 72.3428 64.0842 72.5881 64.0535C73.8515 63.8999 75.1149 63.7096 76.3844 63.6236C78.7366 63.4648 81.0498 62.9407 83.2411 62.07C83.9831 61.7692 84.7621 61.5543 85.5287 61.3209C85.7863 61.2411 86.1419 61.1305 86.2707 61.456C86.3995 61.7814 86.0684 61.9718 85.823 62.1437C85.7075 62.2184 85.5841 62.2803 85.4551 62.328C82.8558 63.4509 80.1051 64.1834 77.2921 64.5017L73.4897 64.8394Z" fill="#2C3639"/>
<path d="M17.085 22.4886C16.9991 23.5939 16.8826 24.6992 16.8213 25.8045C16.8031 27.8328 17.0547 29.8544 17.5695 31.8161C17.6186 32.0618 17.6922 32.3012 17.7351 32.5469C17.778 32.7925 17.8823 33.0811 17.5756 33.2039C17.269 33.3267 17.0605 33.0504 16.9623 32.8048C16.5848 31.8787 16.2973 30.9184 16.1037 29.9371C15.6712 27.5828 15.69 25.1676 16.1589 22.8202C16.1806 22.656 16.2154 22.4938 16.2632 22.3351C16.3552 22.0834 16.392 21.7579 16.76 21.7579C17.0175 21.7518 17.1341 22.0097 17.085 22.4886Z" fill="#2C3639"/>
<path d="M9.21643 66.3266C9.1408 66.4627 9.05682 66.5939 8.96498 66.7196C7.07603 69.1758 5.16255 71.632 3.05895 73.9286C2.86665 74.1316 2.66182 74.3223 2.44566 74.4997C2.39875 74.5514 2.33675 74.5869 2.26847 74.6013C2.20019 74.6156 2.12912 74.608 2.06542 74.5795C1.99344 74.5355 1.9381 74.4688 1.90813 74.3899C1.87815 74.311 1.87524 74.2243 1.89983 74.1435C1.95692 73.8415 2.09955 73.5623 2.31073 73.3391L7.9837 66.4678C8.0734 66.3268 8.19094 66.2055 8.32909 66.1116C8.46724 66.0176 8.62311 65.9529 8.78713 65.9213C9.05085 65.8906 9.2287 65.9889 9.21643 66.3266Z" fill="#2C3639"/>
<path d="M81.8242 73.8735C80.3461 73.5971 78.8252 73.3208 77.3042 73.0261C75.7832 72.7313 74.3972 72.6269 72.9805 72.2155C72.7965 72.1603 72.6064 72.1111 72.4285 72.0436C72.2506 71.976 71.9931 71.8471 72.0237 71.583C72.0544 71.319 72.3611 71.2392 72.6002 71.2699C73.5325 71.3743 74.4401 71.5032 75.3969 71.6199C77.378 71.8357 79.34 72.2011 81.2661 72.7129C81.5347 72.7781 81.7989 72.8601 82.0572 72.9585C82.3393 73.0691 82.6705 73.2042 82.6337 73.5726C82.5969 73.941 82.1431 73.8059 81.8242 73.8735Z" fill="#2C3639"/>
<path d="M67.1359 58.9516C66.9159 63.2151 65.6067 67.3507 63.3335 70.9626C63.2844 71.0301 63.2476 71.1099 63.1985 71.1713C63.0391 71.3555 62.8919 71.6626 62.5852 71.509C62.2786 71.3555 62.5055 71.0546 62.5852 70.852C63.375 69.3533 64.0854 67.814 64.7134 66.2405C65.5452 63.9117 66.095 61.4914 66.3509 59.0314C66.3509 59.0007 66.3509 58.9701 66.3509 58.9455C66.3877 58.6262 66.3509 58.1472 66.7802 58.1902C67.2095 58.2332 67.1052 58.7122 67.1359 58.9516Z" fill="#2C3639"/>
<path d="M18.5383 73.8602C18.1704 73.8602 17.8147 73.9094 17.7533 73.5532C17.6736 73.0742 18.0906 72.9391 18.4279 72.8532C20.2917 72.3184 22.189 71.9082 24.107 71.6251C24.6774 71.5145 25.2478 71.4224 25.8243 71.3365C26.1064 71.2874 26.4376 71.2689 26.548 71.5821C26.6584 71.8952 26.3272 72.104 26.0573 72.1961C24.4174 72.7975 22.7198 73.2276 20.9915 73.4795C20.1513 73.633 19.2927 73.7497 18.5383 73.8602Z" fill="#2C3639"/>
<path d="M82.7565 50.379C82.627 50.5663 82.4878 50.7466 82.3395 50.9193C79.9495 53.3247 77.1918 55.3333 74.1704 56.8695C73.9251 56.9985 73.6062 57.1888 73.416 56.9064C73.2259 56.6239 73.5632 56.3476 73.7901 56.1879C74.4034 55.7765 75.0167 55.3896 75.63 55.0151C77.6042 53.7754 79.4638 52.3616 81.1865 50.7904C81.5005 50.4771 81.8655 50.2196 82.2659 50.0289C82.4928 49.9123 82.7136 49.9246 82.7565 50.379Z" fill="#2C3639"/>
<path d="M20.4456 20.2533C20.4594 20.1477 20.4799 20.0431 20.5069 19.9401C21.4452 17.1891 21.6783 14.2355 22.8742 11.5521C23.0643 11.1223 23.2667 10.6924 23.4875 10.281C23.6163 10.0538 23.7512 9.69765 24.1008 9.86958C24.4504 10.0415 24.1989 10.3301 24.1008 10.5389C23.4163 12.2966 22.8788 14.1081 22.494 15.9549C22.1993 17.3398 21.789 18.6976 21.2674 20.0138C21.1754 20.241 21.1202 20.5296 20.881 20.6278C20.4456 20.8243 20.5069 20.4375 20.4456 20.2533Z" fill="#2C3639"/>
<path d="M30.4976 60.6455C28.2961 60.1476 26.26 59.0902 24.5854 57.5753C24.0457 57.0963 23.5305 56.5867 23.0215 56.077C22.8682 55.9235 22.721 55.6963 22.905 55.4629C23.089 55.2296 23.3159 55.3708 23.5183 55.4998C23.8675 55.728 24.2033 55.976 24.5241 56.2428C25.9566 57.4798 27.5887 58.464 29.3507 59.1534C29.8133 59.3389 30.2586 59.565 30.6815 59.8289C30.7857 59.8749 30.8684 59.959 30.9128 60.0639C30.9572 60.1689 30.9601 60.2868 30.9207 60.3938C30.8949 60.4815 30.837 60.5561 30.7585 60.6028C30.68 60.6495 30.5868 60.6648 30.4976 60.6455V60.6455Z" fill="#2C3639"/>
<path d="M83.9831 25.2709C83.9669 26.6332 83.8459 27.9923 83.6212 29.336C83.5783 29.6553 83.4924 30.0913 83.0631 30.0114C82.6338 29.9316 82.873 29.5509 82.8791 29.2991C82.9711 26.4745 83.1183 23.6437 82.2658 20.8804C82.18 20.6041 82.0635 20.205 82.456 20.1006C82.8485 19.9962 82.9466 20.4076 83.0693 20.6655C83.6773 22.1244 83.9879 23.6902 83.9831 25.2709V25.2709Z" fill="#2C3639"/>
<path d="M82.2659 24.3625C82.2659 24.8354 82.2659 25.1301 81.9899 25.1977C81.7139 25.2652 81.5238 24.952 81.4502 24.7003C81.2172 23.902 81.027 23.0915 80.8369 22.2932C80.3386 20.6165 79.6984 18.9854 78.9235 17.4176C78.764 17.086 78.3715 16.5763 78.8621 16.3246C79.3528 16.0728 79.5429 16.6623 79.7514 16.9877C81.1926 19.3089 81.7753 21.9309 82.2659 24.3625Z" fill="#2C3639"/>
<path d="M40.3839 62.2671C40.4391 61.9539 40.1447 61.3583 40.6108 61.2969C41.0769 61.2355 41.0769 61.911 41.1321 62.2426C41.6018 65.3126 42.4463 68.3132 43.6466 71.177C43.7631 71.4472 43.9962 71.7911 43.6466 71.9938C43.297 72.1964 43.1376 71.7727 43.0333 71.5148C41.5355 68.643 40.6342 65.4972 40.3839 62.2671V62.2671Z" fill="#2C3639"/>
<path d="M10.6942 43.176C10.9079 43.2442 11.0878 43.3913 11.1971 43.5874C12.678 45.6641 14.3762 47.5765 16.2629 49.292C16.5205 49.5437 16.9805 49.906 16.6677 50.256C16.3549 50.606 15.9685 50.1946 15.6864 49.9797C13.6295 48.4164 11.9191 46.4425 10.6636 44.183C10.5131 43.983 10.4218 43.7447 10.3998 43.4953C10.3876 43.3111 10.4734 43.1698 10.6942 43.176Z" fill="#2C3639"/>
<path d="M97.3039 74.0696C97.3039 74.2968 97.1752 74.4134 96.9728 74.3582C96.8427 74.3115 96.7236 74.2383 96.6232 74.1433C94.538 72.3011 92.4037 70.4589 90.7662 68.1501C90.6692 68.0135 90.5791 67.8721 90.4964 67.7264C90.3799 67.5115 90.1959 67.272 90.4964 67.0632C90.7969 66.8544 90.9012 67.1001 91.0668 67.2413C91.1318 67.2923 91.1915 67.3499 91.2446 67.4132C92.9435 69.4027 94.8814 71.1528 96.66 73.0625C96.9599 73.3352 97.1821 73.6827 97.3039 74.0696V74.0696Z" fill="#2C3639"/>
<path d="M19.2253 39.6818C19.2253 39.3072 19.2253 39.0677 19.4277 38.994C19.6301 38.9203 19.8325 39.123 19.9245 39.3133C20.2803 40.1834 20.6899 41.0304 21.1511 41.8494C21.962 43.1782 22.9343 44.4014 24.0458 45.4907C24.2298 45.6688 24.4935 45.9267 24.2973 46.2153C24.101 46.5039 23.7698 46.3565 23.5491 46.2153C21.4091 44.5918 19.8844 42.2878 19.2253 39.6818V39.6818Z" fill="#2C3639"/>
<path d="M87.4849 45.4731C87.1844 45.4731 87.0617 45.3318 87.1414 45.1046C87.2216 44.8982 87.3333 44.7056 87.4726 44.5335C89.1032 42.4543 90.4787 40.1865 91.5694 37.7789C91.7438 37.3309 91.9926 36.9157 92.3053 36.5508C92.4403 36.4096 92.6059 36.2684 92.8144 36.385C93.0229 36.5017 92.98 36.7228 92.9002 36.9008C92.6058 37.5579 92.3483 38.2395 91.9987 38.8658C90.8273 40.9413 89.7479 43.0844 88.135 44.8713C87.9704 45.1219 87.7473 45.3284 87.4849 45.4731Z" fill="#2C3639"/>
<path d="M20.0654 81.5605C20.1901 81.5722 20.3104 81.6127 20.4168 81.6787C20.5232 81.7448 20.6129 81.8347 20.6787 81.9413C22.0402 83.6299 23.4018 85.3124 24.751 87.0134C24.9411 87.2528 25.2662 87.5783 24.9166 87.8792C24.567 88.1801 24.3033 87.8239 24.1254 87.6213C22.5423 86.0968 21.1632 84.3733 20.0225 82.4939C19.8201 82.193 19.5871 81.8 20.0654 81.5605Z" fill="#2C3639"/>
<path d="M39.7648 87.3752C39.7661 87.4261 39.7545 87.4765 39.7311 87.5216C39.7077 87.5668 39.6733 87.6052 39.6311 87.6334C39.5888 87.6617 39.5401 87.6787 39.4895 87.6829C39.4388 87.6872 39.388 87.6785 39.3416 87.6577C39.0508 87.5713 38.7693 87.4562 38.5014 87.3139C36.6329 86.2945 34.7644 85.2711 32.8959 84.2436C32.6546 84.1108 32.423 83.961 32.2029 83.7953C31.9698 83.6172 31.5896 83.4392 31.8226 83.0892C32.0557 82.7391 32.3868 82.9725 32.6505 83.0892C33.1657 83.3532 33.6748 83.6357 34.1777 83.9243C35.8458 84.8576 37.5079 85.7951 39.1637 86.7366C39.4213 86.8963 39.7157 87.0375 39.7648 87.3752Z" fill="#2C3639"/>
<path d="M60.9965 66.806C60.8004 69.7886 59.5755 72.6103 57.5314 74.7887C57.3658 74.9729 57.1695 75.2247 56.9181 75.0466C56.6666 74.8685 56.7831 74.5431 56.9181 74.3159C57.286 73.8001 57.6847 73.3027 58.0588 72.7869C59.1984 71.1406 59.9301 69.2461 60.1931 67.2604C60.2012 67.0942 60.2279 66.9294 60.2728 66.7692C60.3832 66.4928 60.2728 65.9586 60.7389 66.0323C61.205 66.106 60.9474 66.5665 60.9965 66.806Z" fill="#2C3639"/>
<path d="M52.8155 78.8459C51.8549 78.7921 50.9198 78.5162 50.0835 78.04C49.2471 77.5638 48.5323 76.9002 47.995 76.1011C47.1263 74.8802 46.3845 73.5737 45.781 72.2018C45.6645 71.9501 45.4069 71.5878 45.781 71.3974C46.1551 71.2071 46.2594 71.6553 46.3943 71.9009C47.0656 73.4584 47.9647 74.907 49.0621 76.1993C49.8598 77.1277 50.9351 77.7737 52.1286 78.0415C52.3362 78.0965 52.5409 78.1621 52.7419 78.238C52.932 78.2933 53.1589 78.367 53.1344 78.5942C53.1099 78.8214 52.84 78.8398 52.8155 78.8459Z" fill="#2C3639"/>
<path d="M33.0796 74.0929C33.0419 74.3613 32.9064 74.6062 32.6994 74.7807C31.1111 76.2996 29.3797 77.661 27.5293 78.8457C27.3453 78.9624 27.1184 79.1036 26.916 78.8948C26.7136 78.6861 26.8731 78.4159 27.0386 78.2378C27.2797 77.9689 27.5445 77.7223 27.8298 77.5009C29.3221 76.3383 30.8186 75.1839 32.3191 74.0376C32.4908 73.9025 32.6687 73.7245 32.9324 73.8719C32.9961 73.9346 33.0462 74.0099 33.0796 74.0929V74.0929Z" fill="#2C3639"/>
<path d="M68.0866 74.7754C68.2971 74.8604 68.5019 74.9589 68.6999 75.0702C70.4968 76.1816 72.1404 77.5264 73.8515 78.7545C74.0416 78.8896 74.336 79.0677 74.1582 79.3685C73.9803 79.6694 73.6614 79.5712 73.41 79.4668C73.1045 79.3333 72.8093 79.1773 72.5268 79.0001C70.9697 77.9788 69.4916 76.8416 68.105 75.5982C67.9148 75.4386 67.7002 75.2605 67.8167 74.9842C67.8535 74.8614 67.9884 74.8614 68.0866 74.7754Z" fill="#2C3639"/>
<path d="M24.3891 25.4548C24.0897 26.7511 23.656 28.0127 23.095 29.2189C22.7025 30.1707 22.2671 31.0979 21.8255 32.0252C21.6906 32.2953 21.5863 32.7805 21.1754 32.5962C20.7645 32.412 21.0466 32.0497 21.1754 31.7734C21.5618 30.7356 21.9789 29.7102 22.402 28.6724C22.8375 27.5364 23.2606 26.3943 23.7022 25.2583C23.7881 25.0311 23.8739 24.7302 24.199 24.81C24.524 24.8898 24.4136 25.1232 24.3891 25.4548Z" fill="#2C3639"/>
<path d="M41.7701 50.3723C41.77 50.8162 41.6781 51.2552 41.5003 51.6618C41.436 51.844 41.3161 52.0013 41.1576 52.1115C40.9991 52.2217 40.8101 52.2792 40.6171 52.2759C40.4201 52.2771 40.2272 52.2193 40.0633 52.1099C39.8993 52.0004 39.7718 51.8444 39.6972 51.6618C39.4813 51.2092 39.3984 50.7045 39.458 50.2065C39.5623 49.31 40.0713 48.8187 40.7398 48.8801C41.4083 48.9415 41.7579 49.4696 41.7701 50.3723Z" fill="#2C3639"/>
<path d="M76.2554 12.499C76.286 12.677 76.2554 12.8367 76.0652 12.8981C75.8751 12.9595 75.7524 12.8183 75.685 12.6586C75.5684 12.3516 75.4519 12.0446 75.3599 11.7191C74.6607 9.05613 73.6435 6.48721 72.3303 4.06798C72.1647 3.77938 71.7844 3.33726 72.1647 3.1162C72.5449 2.89514 72.7044 3.46622 72.87 3.73026C74.5136 6.38912 75.3231 9.36728 76.2063 12.327C76.2247 12.3884 76.237 12.4437 76.2554 12.499Z" fill="#2C3639"/>
<path d="M53.7352 78.2015C53.1952 78.1369 52.6749 77.9591 52.2082 77.6796C50.3224 76.5218 48.8434 74.8048 47.9764 72.7672C47.8722 72.5338 47.6452 72.2022 47.9764 72.0364C48.3076 71.8707 48.418 72.282 48.5345 72.5031C49.4279 74.3063 50.8009 75.8278 52.5025 76.8997C52.9318 77.1515 53.4102 77.3112 53.8641 77.5138C54.048 77.6059 54.3302 77.6489 54.2443 77.9621C54.1584 78.2752 53.9683 78.1831 53.7352 78.2015Z" fill="#2C3639"/>
<path d="M76.1146 15.531C76.1575 16.0837 76.2066 16.6363 76.2373 17.189C76.2373 17.3855 76.2373 17.6004 75.949 17.6127C75.8647 17.6114 75.7839 17.5785 75.7226 17.5205C75.6613 17.4626 75.6239 17.3837 75.6178 17.2995C75.5074 16.8144 75.4277 16.3232 75.3357 15.8319C74.9015 13.8289 74.3527 11.8524 73.6921 9.91243C73.6129 9.67742 73.5494 9.4374 73.502 9.19398C73.502 9.12029 73.5817 8.99748 73.6614 8.94222C73.6855 8.92768 73.7125 8.91851 73.7405 8.91533C73.7684 8.91214 73.7967 8.915 73.8235 8.92374C73.8503 8.93248 73.8748 8.94688 73.8956 8.96596C73.9163 8.98504 73.9326 9.00835 73.9435 9.03432C74.0808 9.27235 74.2037 9.51842 74.3115 9.77119C74.9517 11.4526 75.5044 13.166 75.9674 14.9047C76.0827 15.0921 76.1344 15.3118 76.1146 15.531V15.531Z" fill="#2C3639"/>
<path d="M76.2371 87.1436C75.9182 87.1436 75.7772 86.9656 75.8446 86.6954C75.8982 86.5102 75.9833 86.3357 76.0961 86.1796C77.2675 84.5953 78.1936 82.8575 79.2484 81.1996C79.3483 81.0333 79.461 80.8752 79.5857 80.7267C79.7023 80.5855 79.8249 80.346 80.0396 80.4627C80.2542 80.5794 80.1929 80.868 80.1009 81.0768C79.0644 83.0663 78.1138 85.105 76.6542 86.8366C76.5247 86.9513 76.3851 87.054 76.2371 87.1436V87.1436Z" fill="#2C3639"/>
<path d="M34.6005 54.1305C34.5637 54.3208 34.5269 54.6217 34.4595 54.9226C34.3552 55.377 34.1774 55.7823 33.6193 55.7946C33.0612 55.8069 32.8772 55.4691 32.73 55.0577C32.6344 54.768 32.5566 54.4727 32.4969 54.1735C32.4129 53.9061 32.4145 53.6192 32.5014 53.3527C32.5882 53.0863 32.7561 52.8537 32.9814 52.6875C33.1255 52.575 33.3011 52.5104 33.4836 52.5027C33.6661 52.495 33.8465 52.5446 33.9995 52.6445C34.5147 52.9576 34.6067 53.4673 34.6005 54.1305Z" fill="#2C3639"/>
<path d="M26.7258 51.2871C26.9907 51.3217 27.2344 51.4502 27.4127 51.6494C28.443 52.7486 29.596 53.7065 30.7183 54.7197C30.933 54.9101 31.258 55.1679 31.025 55.4811C30.7919 55.7943 30.4546 55.5302 30.2216 55.3829C28.7773 54.5944 27.5494 53.4619 26.6461 52.0854C26.4743 51.7722 26.2781 51.4775 26.7258 51.2871Z" fill="#2C3639"/>
<path d="M44.4009 51.2079C44.3878 51.041 44.4101 50.8732 44.4664 50.7156C44.5228 50.5579 44.6118 50.4141 44.7277 50.2934C44.8436 50.1727 44.9837 50.078 45.1388 50.0155C45.2939 49.9529 45.4604 49.924 45.6275 49.9306C45.9614 49.9647 46.2683 50.1299 46.4809 50.39C46.6935 50.6501 46.7946 50.9839 46.7621 51.3184C46.7191 52.1535 46.1856 52.8105 45.5846 52.7737C45.2257 52.7118 44.9037 52.5156 44.6839 52.2248C44.4641 51.934 44.3629 51.5705 44.4009 51.2079V51.2079Z" fill="#2C3639"/>
<path d="M44.3456 65.7861C44.3026 66.1054 44.4069 66.4002 44.0941 66.437C43.7813 66.4739 43.7445 66.2098 43.6771 66.0072C43.0977 64.3585 42.6987 62.6516 42.4873 60.9166C42.4873 60.6219 42.4075 60.2351 42.7939 60.1614C43.1803 60.0877 43.2478 60.4807 43.3091 60.7754C43.6709 62.4764 44.0205 64.1834 44.3456 65.7861Z" fill="#2C3639"/>
<path d="M76.1146 15.5314C76.1317 15.3163 76.0801 15.1013 75.9674 14.9174C75.9674 14.7209 75.9306 14.4937 76.1882 14.4384C76.2366 14.4287 76.2865 14.4294 76.3346 14.4407C76.3826 14.452 76.4277 14.4735 76.4667 14.5038C76.5057 14.5342 76.5377 14.5725 76.5605 14.6163C76.5834 14.6602 76.5966 14.7084 76.5991 14.7577C76.7708 16.6674 78.2795 17.871 79.0523 19.4614C79.2179 19.8175 79.6349 20.3211 79.2424 20.579C78.8499 20.8369 78.5862 20.2228 78.3899 19.9219C77.4945 18.5219 76.3906 17.2385 76.1146 15.5314Z" fill="#2C3639"/>
<path d="M17.7471 50.3C17.8969 50.3828 18.0385 50.4794 18.1703 50.5886C19.3417 51.6816 20.5192 52.7808 21.6783 53.8922C21.893 54.101 22.2916 54.3835 22.0095 54.7028C21.7274 55.0221 21.3962 54.5861 21.1877 54.3958C19.8954 53.4402 18.687 52.3761 17.5754 51.215C17.4037 51.0123 17.189 50.7851 17.3362 50.4781C17.3852 50.3 17.5202 50.2632 17.7471 50.3Z" fill="#2C3639"/>
<path d="M16.6372 19.9653C16.8816 18.4499 17.4035 16.9926 18.1766 15.667C18.2992 15.4705 18.4587 15.3047 18.7163 15.4398C18.8297 15.4989 18.9159 15.5996 18.957 15.7209C18.9982 15.8421 18.991 15.9746 18.9371 16.0907C18.7347 16.7047 18.4955 17.3188 18.2563 17.9635C17.9803 18.6881 17.6982 19.4127 17.3977 20.1311C17.318 20.3276 17.1953 20.5671 16.9132 20.4934C16.6311 20.4197 16.6495 20.211 16.6372 19.9653Z" fill="#2C3639"/>
<path d="M54.594 48.4567C54.594 49.3164 53.9807 50.1147 53.3674 50.0594C52.6192 49.998 52.4658 49.4453 52.4352 48.8313C52.3984 48.0023 52.9197 47.3637 53.5882 47.4128C54.2567 47.4619 54.5449 47.9286 54.594 48.4567Z" fill="#2C3639"/>
<path d="M65.6699 68.1074C65.809 68.1592 65.9443 68.2208 66.0747 68.2916C67.1966 69.0088 68.3575 69.6627 69.5521 70.2505C69.779 70.3671 70.1654 70.4961 69.9752 70.8645C69.7851 71.233 69.5398 71.0119 69.3006 70.9382C68.191 70.5808 67.1172 70.1203 66.0931 69.5627C65.7614 69.4111 65.485 69.16 65.3019 68.8443C65.118 68.4513 65.2529 68.1995 65.6699 68.1074Z" fill="#2C3639"/>
<path d="M6.54261 37.0059C6.66839 37.0189 6.78938 37.0612 6.89588 37.1294C7.00238 37.1977 7.09143 37.2899 7.1559 37.3988C8.11878 38.6577 8.85472 40.07 9.69493 41.4086C9.81759 41.5928 9.95866 41.8507 9.74401 42.0227C9.52935 42.1946 9.2779 41.9429 9.13071 41.7586C8.14717 40.4831 7.23993 39.1503 6.4138 37.7673C6.23595 37.448 6.1317 37.141 6.54261 37.0059Z" fill="#2C3639"/>
<path d="M76.6727 9.5501C76.6727 9.72818 76.6726 9.89396 76.5316 9.94309C76.3905 9.99221 76.2249 9.82641 76.1575 9.68517C75.8938 9.13866 75.673 8.5676 75.397 8.02109C74.7837 6.79298 74.0968 5.51574 73.4529 4.25693C73.3363 4.02359 73.0665 3.72271 73.4099 3.53235C73.7534 3.34199 73.8331 3.7227 73.9619 3.91306C75.0764 5.57258 75.9653 7.37325 76.6052 9.26762C76.6236 9.37201 76.6543 9.48255 76.6727 9.5501Z" fill="#2C3639"/>
<path d="M60.966 55.1451C60.966 55.925 60.5367 56.4101 59.9295 56.3733C59.3224 56.3364 58.936 55.7101 58.9544 54.9486C58.9405 54.8033 58.9575 54.6567 59.0042 54.5183C59.0508 54.38 59.1261 54.2531 59.225 54.1458C59.324 54.0386 59.4445 53.9535 59.5786 53.8961C59.7126 53.8387 59.8573 53.8103 60.0031 53.8126C60.6041 53.8618 60.9905 54.3899 60.966 55.1451Z" fill="#2C3639"/>
<path d="M34.4413 59.4486C34.4045 59.9276 34.4413 60.4741 33.828 60.6153C33.2147 60.7566 32.9387 60.3083 32.7179 59.8355C32.7179 59.8355 32.7179 59.7802 32.6872 59.7557C32.4787 59.2276 32.2947 58.6872 32.6872 58.1837C32.8057 58.0426 32.9684 57.9458 33.1487 57.909C33.3291 57.8722 33.5166 57.8976 33.6808 57.981C34.3922 58.2819 34.3861 58.896 34.4413 59.4486Z" fill="#2C3639"/>
<path d="M56.6363 53.0377C56.6577 53.3592 56.562 53.6776 56.3669 53.9339C56.1718 54.1901 55.8906 54.367 55.5753 54.4316C55.0111 54.4316 54.5818 53.9403 54.5818 53.2403C54.5818 52.5403 55.0049 51.9508 55.5998 51.9631C55.7389 51.9638 55.8763 51.9924 56.0041 52.0472C56.132 52.1019 56.2476 52.1817 56.3441 52.2818C56.4407 52.3819 56.5163 52.5004 56.5665 52.6302C56.6167 52.76 56.6404 52.8985 56.6363 53.0377Z" fill="#2C3639"/>
<path d="M78.3529 15.7464C78.3529 16.1946 78.5001 16.5692 78.1444 16.6367C77.7887 16.7043 77.7089 16.2744 77.6476 16.0227C77.3287 14.5367 77.0343 13.0506 76.7277 11.5585C76.6786 11.3006 76.5314 10.9444 76.8688 10.8278C77.2061 10.7111 77.298 11.1532 77.3778 11.4418C77.8124 12.8496 78.1384 14.2886 78.3529 15.7464Z" fill="#2C3639"/>
<path d="M43.6284 57.6678C43.6775 57.1459 43.8983 56.6362 44.5913 56.6178C45.2843 56.5994 45.591 57.0169 45.6155 57.6739C45.6547 57.979 45.5782 58.2877 45.401 58.539C45.2239 58.7903 44.959 58.9658 44.6587 59.031C44.119 59.0617 43.6346 58.4845 43.6284 57.6678Z" fill="#2C3639"/>
<path d="M61.2912 51.2765C61.2912 52.0256 60.6779 52.7011 60.1198 52.6274C59.4329 52.5353 59.2428 52.0134 59.2673 51.3993C59.2569 51.2538 59.2772 51.1077 59.3269 50.9706C59.3766 50.8335 59.4547 50.7084 59.556 50.6035C59.6572 50.4987 59.7795 50.4163 59.9147 50.3619C60.0499 50.3075 60.195 50.2823 60.3406 50.2879C60.4686 50.2878 60.5953 50.3135 60.7131 50.3637C60.8309 50.4138 60.9374 50.4872 61.0261 50.5795C61.1149 50.6718 61.1841 50.7812 61.2297 50.9009C61.2752 51.0207 61.2961 51.1484 61.2912 51.2765V51.2765Z" fill="#2C3639"/>
<path d="M42.1073 55.5996C42.0582 56.0786 42.003 56.668 41.2487 56.7049C40.7396 56.7356 40.2919 56.0171 40.3042 55.2312C40.3042 54.6724 40.5373 54.2487 41.1506 54.1934C41.7638 54.1381 42.095 54.6662 42.1073 55.5996Z" fill="#2C3639"/>
<path d="M18.882 20.5058C18.5754 20.5058 18.5447 20.254 18.606 20.0329C18.8336 18.9185 19.1621 17.8271 19.5873 16.7723C19.7222 16.4653 19.9308 16.1583 20.3417 16.3056C20.7526 16.453 20.636 16.8644 20.5134 17.1776C20.127 18.1539 19.7222 19.1303 19.2868 20.1005C19.2573 20.1959 19.2051 20.2827 19.1345 20.3533C19.064 20.4239 18.9773 20.4763 18.882 20.5058V20.5058Z" fill="#2C3639"/>
<path d="M83.7868 74.4935C83.7451 74.6412 83.696 74.7867 83.6396 74.9295C83.221 75.8962 82.6987 76.8145 82.0819 77.6682C81.9163 77.8831 81.6832 78.1287 81.3827 77.9199C81.0822 77.7111 81.1926 77.4164 81.3275 77.1708C81.844 76.1909 82.4388 75.2545 83.1061 74.3707C83.2287 74.2233 83.3636 74.0636 83.5967 74.1312C83.8297 74.1987 83.7868 74.3093 83.7868 74.4935Z" fill="#2C3639"/>
<path d="M18.5997 78.8716C18.6303 79.0927 18.5997 79.2523 18.4893 79.3198C18.3789 79.3874 18.1581 79.3198 18.0722 79.154C17.4221 78.0242 16.7721 76.8943 16.1404 75.7522C16.1074 75.7059 16.0851 75.6528 16.0753 75.5968C16.0655 75.5407 16.0683 75.4832 16.0836 75.4284C16.0989 75.3737 16.1263 75.323 16.1637 75.2802C16.2011 75.2374 16.2476 75.2036 16.2998 75.1811C16.6249 75.0337 16.8395 75.2487 16.9928 75.4881C17.5173 76.3726 17.9725 77.2965 18.3543 78.2514C18.4525 78.4786 18.5384 78.7119 18.5997 78.8716Z" fill="#2C3639"/>
<path d="M53.852 55.4892C53.852 56.1646 53.2817 56.9015 52.7358 56.8892C52.19 56.8769 51.9508 56.4532 51.9263 55.9313C51.8895 55.1944 52.3127 54.6111 52.8953 54.6111C53.017 54.5999 53.1397 54.6144 53.2554 54.6535C53.3712 54.6926 53.4776 54.7556 53.5677 54.8382C53.6577 54.9209 53.7295 55.0215 53.7785 55.1336C53.8275 55.2457 53.8525 55.3668 53.852 55.4892V55.4892Z" fill="#2C3639"/>
<path d="M50.166 78.9828C49.2948 78.8481 48.4631 78.5258 47.7283 78.0381C46.9935 77.5505 46.373 76.9091 45.9098 76.1581C45.8055 75.9923 45.689 75.7959 45.9098 75.6485C46.1306 75.5011 46.2961 75.6485 46.4065 75.8143C47.3037 77.0561 48.6048 77.9463 50.0863 78.3319C50.258 78.381 50.4972 78.4731 50.4543 78.7126C50.4469 78.7849 50.4137 78.8521 50.3607 78.9017C50.3077 78.9514 50.2385 78.9802 50.166 78.9828V78.9828Z" fill="#2C3639"/>
<path d="M49.0806 47.3219C49.1112 46.7078 49.24 46.0938 50.0128 46.0938C50.6261 46.0938 50.8775 46.5359 50.8837 47.1008C50.8837 47.8745 50.393 48.5684 49.8717 48.5009C49.191 48.4026 49.0867 47.8868 49.0806 47.3219Z" fill="#2C3639"/>
<path d="M37.7345 56.6369C37.6855 57.0667 37.5383 57.5088 36.9373 57.5334C36.4344 57.5334 35.9744 56.9193 35.9805 56.1702C35.9805 55.6544 36.1584 55.2245 36.741 55.157C37.3236 55.0895 37.7284 55.7649 37.7345 56.6369Z" fill="#2C3639"/>
<path d="M37.299 52.7552C37.2193 53.2341 37.2009 53.8236 36.5079 53.9034C36.0172 53.9587 35.545 53.2341 35.5695 52.528C35.5695 51.9753 35.8639 51.613 36.4343 51.6253C37.1212 51.613 37.2929 52.0981 37.299 52.7552Z" fill="#2C3639"/>
<path d="M83.8543 49.7846C83.3576 49.6372 83.4618 49.2934 83.6642 49.017C84.2775 48.1574 84.9828 47.3161 85.6513 46.4748C85.7387 46.3677 85.8473 46.2799 85.9702 46.2169C86.0665 46.1777 86.1744 46.1777 86.2707 46.2169C86.3017 46.2327 86.3289 46.2549 86.3507 46.282C86.3724 46.3092 86.3881 46.3406 86.3968 46.3743C86.4055 46.4079 86.407 46.4431 86.4011 46.4773C86.3952 46.5116 86.3821 46.5442 86.3627 46.5731C85.7366 47.7072 84.9723 48.7592 84.0874 49.7048C84.0147 49.7442 83.9359 49.7712 83.8543 49.7846V49.7846Z" fill="#2C3639"/>
<path d="M36.2935 62.5371C36.2506 62.8134 36.4039 63.2494 35.993 63.2863C35.5821 63.3231 35.6066 62.8933 35.5514 62.6047C35.388 61.5054 35.3345 60.3925 35.3919 59.2826C35.3919 59.0432 35.392 58.7177 35.7109 58.7054C36.0298 58.6931 35.993 59.0125 36.0114 59.2151C36.1095 60.3204 36.2015 61.4257 36.2935 62.5371Z" fill="#2C3639"/>
<path d="M89.2081 65.2404C89.0687 65.1549 88.9409 65.0517 88.8279 64.9334C88.2758 64.1764 87.8243 63.3507 87.4848 62.4772C87.3805 62.1947 87.3192 61.8631 87.681 61.6912C88.0429 61.5192 88.2084 61.857 88.3372 62.1456C88.7113 62.9745 89.0916 63.7974 89.4596 64.6325C89.5638 64.872 89.6681 65.1606 89.2081 65.2404Z" fill="#2C3639"/>
<path d="M31.3502 70.5134C31.0374 70.5134 30.8473 70.5502 30.7676 70.366C30.6878 70.1818 30.8412 70.0037 31.0067 69.9116C31.8592 69.402 32.7178 68.9046 33.5765 68.4072C33.6194 68.3715 33.6694 68.3453 33.7233 68.3305C33.7771 68.3156 33.8334 68.3125 33.8886 68.3212C33.9437 68.3299 33.9964 68.3503 34.043 68.381C34.0897 68.4117 34.1292 68.4521 34.1591 68.4993C34.2262 68.5947 34.2528 68.7128 34.2333 68.8279C34.2138 68.9429 34.1496 69.0455 34.0548 69.1134C33.2551 69.7553 32.3357 70.2312 31.3502 70.5134V70.5134Z" fill="#2C3639"/>
<path d="M46.2838 47.4377C46.2163 48.0518 46.02 48.5246 45.37 48.543C44.7199 48.5615 44.4929 48.1193 44.4745 47.5728C44.4536 47.4414 44.4628 47.3069 44.5015 47.1795C44.5401 47.0522 44.6072 46.9353 44.6976 46.8377C44.7879 46.7401 44.8993 46.6643 45.0232 46.6162C45.1472 46.568 45.2804 46.5487 45.4129 46.5596C45.9587 46.5596 46.2347 46.9219 46.2838 47.4377Z" fill="#2C3639"/>
<path d="M50.387 52.7924C50.2582 53.3021 50.1907 53.9345 49.4854 53.8793C48.7801 53.824 48.7065 53.1792 48.6943 52.6143C48.6809 52.5022 48.6928 52.3885 48.7291 52.2817C48.7654 52.1748 48.8252 52.0774 48.9041 51.9967C48.9829 51.916 49.0788 51.854 49.1847 51.8153C49.2906 51.7766 49.4039 51.7622 49.5161 51.7731C50.1355 51.7915 50.3563 52.2213 50.387 52.7924Z" fill="#2C3639"/>
<path d="M66.7309 74.1069C66.7309 74.3894 66.4856 74.4201 66.3201 74.3034C65.3754 73.5816 64.5479 72.7178 63.8669 71.7428C63.8378 71.7028 63.8172 71.6574 63.806 71.6092C63.7949 71.561 63.7936 71.511 63.8022 71.4623C63.8108 71.4136 63.8291 71.3671 63.856 71.3256C63.8829 71.2842 63.9179 71.2485 63.9588 71.2209C63.9931 71.1856 64.0342 71.1575 64.0795 71.1384C64.1247 71.1192 64.1734 71.1094 64.2226 71.1094C64.2718 71.1094 64.3204 71.1192 64.3657 71.1384C64.411 71.1575 64.452 71.1856 64.4863 71.2209C65.2223 72.1113 65.9459 73.0139 66.6696 73.9166C66.6973 73.9775 66.7179 74.0413 66.7309 74.1069Z" fill="#2C3639"/>
<path d="M72.7107 20.3703C72.7107 20.0142 72.7107 19.7563 73.0358 19.6765C73.3608 19.5966 73.4405 19.8238 73.4957 20.0572C73.7783 21.0371 74.1203 21.9989 74.5199 22.9371C74.5874 23.1152 74.6917 23.3239 74.4525 23.4467C74.2133 23.5696 74.1213 23.4038 74.0293 23.2748C73.4275 22.3891 72.9815 21.4067 72.7107 20.3703Z" fill="#2C3639"/>
<path d="M11.7614 62.6168C11.7261 62.73 11.6788 62.8391 11.6204 62.9423C11.1236 63.673 10.6269 64.3976 10.1178 65.1222C10.0074 65.2757 9.87251 65.4599 9.64559 65.3494C9.41868 65.2388 9.46772 65.0239 9.53519 64.8397C9.88325 63.9394 10.3583 63.0937 10.9458 62.3282C11.005 62.2247 11.1025 62.1486 11.2172 62.1164C11.332 62.0843 11.4548 62.0986 11.5591 62.1563C11.7001 62.23 11.7676 62.3773 11.7614 62.6168Z" fill="#2C3639"/>
<path d="M73.8147 19.7806C73.7717 19.4613 73.8147 19.2771 74.0171 19.1666C74.2194 19.056 74.4464 19.2034 74.5506 19.4183C74.9615 20.2842 75.3663 21.1623 75.7772 22.0404C75.8301 22.1231 75.8512 22.2223 75.8365 22.3194C75.8218 22.4166 75.7724 22.505 75.6975 22.5684C75.6674 22.5856 75.6342 22.5965 75.5999 22.6005C75.5655 22.6045 75.5307 22.6016 75.4975 22.5919C75.4643 22.5821 75.4334 22.5658 75.4066 22.5438C75.3799 22.5219 75.3578 22.4947 75.3418 22.4641C74.6889 21.6597 74.173 20.753 73.8147 19.7806Z" fill="#2C3639"/>
<path d="M28.6882 64.9933C28.4368 64.9933 28.124 65.0301 28.075 64.7415C28.0259 64.4529 28.308 64.3301 28.5411 64.2748C29.2647 64.0906 29.9946 63.9248 30.7305 63.7836C31.031 63.7283 31.4051 63.7099 31.4849 64.1029C31.5646 64.4959 31.1782 64.6494 30.8716 64.7169C30.1172 64.8152 29.3997 64.9012 28.6882 64.9933Z" fill="#2C3639"/>
<path d="M30.8473 82.4213C30.8166 82.7959 30.5897 82.7959 30.3689 82.7345C29.4398 82.4542 28.5512 82.0538 27.7256 81.5432C27.5294 81.4265 27.3822 81.2361 27.5232 80.9844C27.5482 80.9336 27.5834 80.8886 27.6267 80.8523C27.67 80.816 27.7205 80.7892 27.7748 80.7736C27.8291 80.7579 27.8861 80.7539 27.942 80.7616C27.998 80.7694 28.0517 80.7888 28.0997 80.8186C28.9338 81.2484 29.7618 81.6967 30.5897 82.1511C30.6893 82.227 30.7762 82.3182 30.8473 82.4213V82.4213Z" fill="#2C3639"/>
<path d="M69.8775 59.5096C69.5463 59.5096 69.35 59.5096 69.2642 59.2824C69.2419 59.2304 69.2301 59.1745 69.2295 59.1179C69.2289 59.0614 69.2394 59.0053 69.2605 58.9528C69.2816 58.9003 69.3128 58.8525 69.3524 58.8121C69.3919 58.7717 69.4391 58.7396 69.4911 58.7175C70.3497 58.3368 71.2144 57.9745 72.0853 57.6183C72.1479 57.5844 72.2204 57.5738 72.2901 57.5884C72.3597 57.6031 72.4219 57.6419 72.4656 57.6981C72.4901 57.7322 72.5073 57.7709 72.516 57.812C72.5247 57.8531 72.5246 57.8955 72.516 57.9365C72.5073 57.9776 72.4902 58.0164 72.4657 58.0504C72.4411 58.0844 72.4098 58.113 72.3736 58.1341C71.6069 58.7026 70.7673 59.1652 69.8775 59.5096V59.5096Z" fill="#2C3639"/>
<path d="M24.7204 47.2715C24.8225 47.2702 24.9223 47.3026 25.0043 47.3636C25.0863 47.4246 25.146 47.5109 25.1742 47.6092C25.5238 48.4444 25.8734 49.2856 26.2168 50.133C26.2904 50.3111 26.3456 50.526 26.1616 50.6672C25.9776 50.8085 25.7875 50.6672 25.6833 50.4953C25.1557 49.7193 24.733 48.8769 24.426 47.99C24.3402 47.7075 24.3279 47.3698 24.7204 47.2715Z" fill="#2C3639"/>
<path d="M80.3585 15.5801C80.436 15.6033 80.5119 15.6321 80.5854 15.6661C80.9779 15.8503 82.229 17.9012 82.1922 18.3126C82.1554 18.724 81.9346 18.81 81.7138 18.546C81.0527 17.7972 80.4825 16.9728 80.015 16.0898C79.8801 15.8319 80.0579 15.6415 80.3585 15.5801Z" fill="#2C3639"/>
<path d="M92.7714 49.1516C92.6426 48.2305 92.5261 45.6699 92.3483 45.6699C92.1704 45.6699 91.9619 48.0095 91.6982 49.7227C91.4038 51.6447 91.275 53.0877 88.4109 53.1553C87.957 53.1553 88.1901 53.5605 88.368 53.5667C91.8576 53.6404 91.5142 55.0773 91.7718 56.8887C91.9564 58.1878 92.0751 59.4953 92.1275 60.8064C92.2714 60.8501 92.4251 60.8501 92.569 60.8064C92.569 60.8064 92.845 56.5694 93.0903 55.1202C93.2866 53.9351 94.7401 53.7079 95.9115 53.4868C95.9728 53.4868 96.0403 53.1491 95.8072 53.1246C93.4031 52.8421 93.2191 52.3263 92.7714 49.1516Z" fill="#2C3639"/>
<path d="M68.0864 29.3723C67.9576 28.4451 67.8411 25.8845 67.6632 25.8906C67.4853 25.8968 67.2768 28.224 67.0131 29.9434C66.7187 31.8654 66.5899 33.3084 63.7258 33.376C63.272 33.376 63.5051 33.7812 63.6829 33.7812C67.1726 33.8611 66.8291 35.298 67.0867 37.1094C67.271 38.4064 67.3898 39.7119 67.4424 41.021C67.5864 41.0647 67.74 41.0647 67.884 41.021C67.884 41.021 68.1599 36.784 68.4053 35.341C68.6076 34.1558 70.055 33.9286 71.2264 33.7076C71.2878 33.7076 71.3552 33.3698 71.1222 33.3391C68.7181 33.0628 68.5341 32.547 68.0864 29.3723Z" fill="#2C3639"/>
<path d="M5.48137 48.9231C5.35258 47.9959 5.23605 45.4353 5.0582 45.4414C4.88034 45.4476 4.67182 47.7748 4.40811 49.4942C4.11372 51.4162 3.99107 52.8592 1.12086 52.9206C0.66702 52.9206 0.900068 53.332 1.07792 53.332C4.56757 53.4119 4.22411 54.8487 4.4817 56.6602C4.66602 57.9572 4.78475 59.2627 4.83742 60.5717C4.98137 60.6154 5.13504 60.6154 5.27899 60.5717C5.27899 60.5717 5.55496 56.3348 5.80028 54.8917C6.00266 53.7066 7.45004 53.4794 8.62143 53.2583C8.68276 53.2583 8.75636 52.9206 8.5233 52.8899C6.09466 52.6136 5.91068 52.0978 5.48137 48.9231Z" fill="#2C3639"/>
<path d="M98.6591 58.7847C98.561 58.1092 98.4751 56.2302 98.3464 56.2363C98.2176 56.2425 98.0643 57.9434 97.8741 59.2022C97.6534 60.6084 97.5613 61.6585 95.4639 61.7137C95.1327 61.7137 95.2983 62.0146 95.4332 62.0146C97.9845 62.0699 97.7331 63.1199 97.9232 64.4708C98.0597 65.4195 98.1477 66.3746 98.1869 67.3323C98.2905 67.3661 98.4022 67.3661 98.5058 67.3323C98.5058 67.3323 98.7082 64.2313 98.8922 63.169C99.0333 62.3032 100.119 62.1374 100.959 61.9778C101.002 61.9778 101.051 61.726 100.879 61.7076C99.1191 61.4865 98.9842 61.1058 98.6591 58.7847Z" fill="#2C3639"/>
<path d="M53.6067 12.1792C53.484 11.2888 53.3675 8.81418 53.1958 8.82032C53.024 8.82646 52.8278 11.0739 52.5825 12.7319C52.3004 14.574 52.1777 15.9741 49.4117 16.0355C48.9763 16.0355 49.1971 16.4285 49.3688 16.4346C52.7358 16.5083 52.4046 17.8961 52.6561 19.64C52.8335 20.8922 52.9481 22.1526 52.9995 23.4164C53.1372 23.4602 53.285 23.4602 53.4227 23.4164C53.4227 23.4164 53.6925 19.3329 53.9256 17.9329C54.1157 16.7908 55.514 16.5758 56.6486 16.3609C56.7099 16.3609 56.7774 16.0293 56.5505 16.0048C54.2139 15.7346 54.036 15.2372 53.6067 12.1792Z" fill="#2C3639"/>
<path d="M32.9509 28.5855C32.8589 27.91 32.773 26.031 32.6381 26.0371C32.5032 26.0433 32.356 27.7503 32.1659 29.003C31.9512 30.4092 31.8592 31.4592 29.7556 31.5145C29.4244 31.5145 29.5962 31.8154 29.725 31.8154C32.2824 31.8706 32.031 32.9268 32.2211 34.2716C32.3556 35.2204 32.4416 36.1755 32.4786 37.1331C32.5844 37.1665 32.6979 37.1665 32.8037 37.1331C32.8037 37.1331 33.0061 34.0628 33.184 32.976C33.3311 32.104 34.4105 31.9382 35.2508 31.7785C35.2937 31.7785 35.3489 31.5268 35.1772 31.5084C33.417 31.2627 33.2759 30.9127 32.9509 28.5855Z" fill="#2C3639"/>
</svg>
