<svg width="81" height="92" viewBox="0 0 81 92" fill="none" xmlns="http://www.w3.org/2000/svg">
<path d="M68.5778 42.4142C69.7363 44.5063 70.7118 46.6944 71.4935 48.9542C72.4262 51.9715 73.0277 55.0811 73.2874 58.2283C73.4564 59.9113 73.4025 61.6092 73.1271 63.278C73.0469 63.7214 72.9237 64.0601 72.4244 64.0848C72.3179 64.0976 72.2098 64.0893 72.1066 64.0604C72.0033 64.0314 71.9067 63.9823 71.8225 63.9159C71.7383 63.8495 71.6681 63.7671 71.6158 63.6735C71.5636 63.5799 71.5304 63.4769 71.5182 63.3704C71.2593 62.2065 71.0374 61.0365 70.7661 59.8787C69.8067 55.9004 68.2057 52.1046 66.0257 48.6401C66.6422 50.4875 67.2586 52.335 67.9552 54.1824C68.8867 56.6221 69.508 59.1689 69.8045 61.7631C70.0714 64.1158 70.1538 66.4857 70.0511 68.8512C69.9339 71.0989 69.8723 73.3774 69.1696 75.5574C68.8864 76.4051 68.536 77.2288 68.1216 78.0207C68.0535 78.2001 67.9187 78.3463 67.7453 78.4289C67.5719 78.5115 67.3733 78.5241 67.1908 78.464C66.7963 78.3532 66.6853 78.033 66.6853 77.6512C66.6853 76.0254 66.7285 74.3997 66.6853 72.7801C66.5425 69.965 66.0242 67.1816 65.1442 64.5035C65.4981 66.9559 65.4752 69.4478 65.0764 71.8933C64.4292 75.853 63.0422 79.6403 62.3641 83.5938C62.2285 84.3759 62.0004 85.1456 61.8525 85.9216C61.7785 86.3403 61.5381 86.5866 61.1559 86.5374C60.9642 86.5346 60.7807 86.4593 60.6423 86.3268C60.5039 86.1942 60.4209 86.0143 60.41 85.8231C60.3122 85.1827 60.2546 84.5369 60.2374 83.8894C60.3545 82.202 60.0833 80.5209 60.0401 78.8212C59.3788 80.7927 58.8273 82.7992 58.3881 84.8316C58.197 85.8354 57.9997 86.833 57.7716 87.8306C57.6668 88.2925 57.5004 88.8159 56.9148 88.8097C56.3292 88.8036 56.0949 88.3294 56.0209 87.7875C55.8607 86.6359 55.6942 85.4905 55.5401 84.3574C54.523 86.4758 53.4997 88.625 52.4579 90.768C52.3138 91.0566 52.149 91.3345 51.9648 91.5994C51.8915 91.7458 51.7666 91.8601 51.6142 91.9204C51.4618 91.9806 51.2925 91.9825 51.1388 91.9258C50.9808 91.8827 50.8435 91.7844 50.7519 91.6488C50.6603 91.5132 50.6204 91.3493 50.6395 91.1868C50.6395 87.6397 49.7456 84.1973 49.5483 80.6441C49.16 80.7487 49.0984 81.0197 49.0737 81.3338C48.7716 84.8562 46.1641 87.0855 43.199 87.9107C41.8675 88.274 40.5299 88.9145 39.1244 88.6866C36.0422 88.1816 32.96 87.535 30.9936 84.7084C30.2514 83.6985 29.844 82.4819 29.8285 81.2291C29.8285 80.8534 29.5881 80.798 29.323 80.6132C29.1997 82.4607 28.9408 84.2527 28.6696 86.0324C28.4071 87.551 28.3038 89.0927 28.3614 90.6326C28.3366 90.8802 28.2912 91.1253 28.2258 91.3654C28.2131 91.5194 28.1481 91.6644 28.0416 91.7764C27.9351 91.8884 27.7934 91.9607 27.6402 91.9812C27.4928 92.0171 27.3376 92.0012 27.2006 91.9362C27.0636 91.8711 26.9532 91.7609 26.8881 91.624C26.7097 91.3533 26.5451 91.0738 26.395 90.7865C25.3717 88.6558 24.3607 86.5251 23.3436 84.3882C23.171 85.5459 22.9984 86.7283 22.8258 87.9045C22.758 88.3972 22.5299 88.8221 22.0121 88.8344C21.4943 88.8467 21.2045 88.3664 21.0998 87.8922C20.6929 86.0447 20.397 84.1296 19.8669 82.2883C19.5402 81.1429 19.2073 79.9974 18.8251 78.8582C18.8251 80.564 18.5107 82.2575 18.6155 83.9571C18.6222 84.5764 18.5706 85.1949 18.4614 85.8046C18.4482 85.9943 18.3687 86.1734 18.237 86.3107C18.1052 86.448 17.9294 86.5347 17.7402 86.5559C17.321 86.6236 17.1237 86.2911 17.0313 85.9401C16.7477 84.7084 16.5073 83.409 16.2052 82.1528C15.5888 79.5663 14.9107 76.9861 14.282 74.3997C13.8144 72.4667 13.5357 70.493 13.4498 68.5063C13.4565 67.204 13.5306 65.9029 13.6717 64.6082C13.0816 66.6277 12.6305 68.6853 12.3217 70.7663C12.1532 72.479 12.1017 74.2011 12.1676 75.9207C12.1676 76.5796 12.4388 77.2324 12.1676 77.9098C12.0443 78.2424 11.9087 78.5256 11.5511 78.5256C11.4028 78.5468 11.2517 78.5191 11.1205 78.4469C10.9892 78.3747 10.8851 78.2619 10.8237 78.1254C9.99376 76.7563 9.4584 75.2294 9.25182 73.6422C8.88412 71.079 8.72539 68.4903 8.77717 65.9014C8.79837 61.5382 9.65631 57.2193 11.3046 53.1786C11.8747 51.7363 12.3463 50.257 12.7162 48.7509C12.3833 49.3236 12.0443 49.8902 11.7299 50.4752C9.68451 54.3591 8.2637 58.5403 7.51963 62.8654C7.47943 63.0866 7.42383 63.3047 7.3532 63.5182C7.30362 63.7137 7.18403 63.8844 7.01707 63.9979C6.8501 64.1113 6.64732 64.1597 6.44704 64.134C6.0032 64.134 5.86759 63.7707 5.79979 63.4197C5.50307 62.0553 5.40136 60.6558 5.49772 59.2629C5.67931 57.0088 5.99425 54.7674 6.44087 52.5505C7.1205 49.4076 8.2368 46.3751 9.75731 43.5411C9.89909 43.2763 10.0162 43.0054 10.1395 42.7344C10.1395 42.7344 10.1395 42.6913 10.0963 42.6482C9.26415 43.3133 8.41963 43.966 7.63059 44.6558C7.2299 44.9945 6.81689 45.2716 6.39771 44.8528C5.97854 44.4341 6.15115 44.0092 6.34841 43.5473C7.92722 39.9945 9.86245 36.6108 12.1244 33.4479C13.455 31.3999 14.5627 29.2157 15.4285 26.9326C15.6381 26.4153 15.2868 26.4276 14.9662 26.3168C12.3611 25.6126 9.89786 24.4624 7.68608 22.9175C4.41896 20.6389 2.85936 17.4736 2.81621 13.5016C2.72571 10.8758 3.47023 8.28874 4.94293 6.11184C6.90506 3.23277 9.91178 1.22958 13.3265 0.52638C15.8572 -0.0678837 18.4849 -0.122428 21.0381 0.366281C21.906 0.52542 22.6958 0.969755 23.2819 1.6287C23.4686 1.8007 23.6073 2.01813 23.6846 2.25975C23.7619 2.50138 23.7751 2.75891 23.7229 3.00716C23.6708 3.25541 23.555 3.48588 23.3869 3.67603C23.2189 3.86618 23.0043 4.00949 22.7641 4.09196C22.2566 4.30737 21.7054 4.4002 21.1552 4.36292C19.1148 4.36292 17.1915 4.80015 15.6073 6.21037C14.7793 6.888 14.1458 7.77263 13.7711 8.77427C13.3965 9.77591 13.2941 10.8588 13.4744 11.9128C13.7641 13.7911 15.1141 14.9919 16.8463 15.7062C18.1953 16.3737 19.6604 16.7752 21.1614 16.8886C21.5991 16.8886 21.8765 16.7778 21.9813 16.3221C22.1415 15.6016 22.7148 15.3676 23.3497 15.2382L29.1998 14.0497C29.4733 14.0228 29.7254 13.8902 29.9025 13.6802C32.0354 10.8783 34.9388 10.3425 38.2429 10.6873C40.8504 10.9645 43.4025 11.4386 45.671 12.7319C47.0395 13.5201 48.5374 13.4524 49.9182 13.9204C51.9093 14.5916 53.9744 14.8072 55.9901 15.3121C56.2376 15.3559 56.4673 15.4696 56.652 15.6399C56.8366 15.8102 56.9685 16.0299 57.0319 16.2728C57.112 16.7285 57.3648 16.827 57.7655 16.827C59.1322 16.72 60.4706 16.3805 61.723 15.8232C62.9101 15.408 63.948 14.6517 64.7066 13.6494C65.9826 11.9867 65.773 10.1393 64.9963 8.39651C63.9175 5.96403 61.9141 4.70162 59.2634 4.45529C58.57 4.37011 57.8723 4.32487 57.1737 4.31981C56.8234 4.30865 56.4809 4.21363 56.1751 4.0427C55.9355 3.95888 55.722 3.81416 55.5555 3.62282C55.389 3.43149 55.2753 3.20012 55.2255 2.95151C55.1757 2.70291 55.1916 2.44564 55.2717 2.20505C55.3517 1.96445 55.4931 1.74884 55.6819 1.57944C56.4744 0.769229 57.5348 0.274571 58.6655 0.187689C61.3145 -0.184397 64.012 -0.00194899 66.5867 0.723446C68.555 1.30703 70.3696 2.31857 71.9004 3.68552C74.2836 5.68553 75.7792 8.54529 76.0613 11.6419C76.5668 16.1927 75.26 20.1216 71.3394 22.8743C69.1182 24.4436 66.6339 25.6032 64.0038 26.2983C63.449 26.4399 63.3874 26.5754 63.6031 27.0927C64.7682 30.3688 66.6853 33.2139 68.5963 36.0774C70.1689 38.4748 71.5282 41.0052 72.6586 43.6397C72.8559 44.083 72.9422 44.5449 72.5168 44.8713C72.0915 45.1977 71.697 44.9698 71.3209 44.6496C70.4394 43.8921 69.5394 43.1901 68.5778 42.4142ZM35.5552 30.3688H35.4073C35.0806 31.9453 34.76 33.528 34.4148 35.1044C34.31 35.5786 34.1312 36.0405 33.521 36.0466C32.9107 36.0528 32.8182 35.5725 32.6826 35.1537C31.79 32.5662 31.2287 29.8763 31.0121 27.1481C31.0207 27.0548 31.0079 26.9608 30.9747 26.8732C30.9414 26.7856 30.8886 26.7067 30.8203 26.6426C30.7519 26.5784 30.6698 26.5307 30.5802 26.5031C30.4906 26.4754 30.3958 26.4686 30.3032 26.483C29.582 26.483 28.8484 26.3229 28.1457 26.3599C25.7662 26.4707 23.3806 25.9904 20.9888 26.4522C19.8052 26.6801 19.7559 26.637 19.3429 27.8132C18.4799 30.3627 17.8018 32.9614 17.0868 35.554C16.1106 39.0268 15.5295 42.5985 15.3546 46.2015C15.3136 47.7688 15.4085 49.3368 15.6381 50.8878C15.8267 52.3513 16.3114 53.7612 17.0628 55.0317C17.8141 56.3021 18.8164 57.4065 20.0087 58.2776C22.0519 59.9001 23.8572 61.801 25.3717 63.9246C26.3455 65.2816 27.116 66.7732 27.6587 68.3524C27.8251 68.8327 27.9792 69.0051 28.3491 68.457C28.6039 68.0547 28.945 67.714 29.3477 67.4594C30.0504 67.053 30.0073 66.4618 29.9148 65.8337C29.6374 63.8692 29.3662 61.9047 29.058 59.9403C28.6203 57.1199 28.1518 54.2994 27.7018 51.479C27.6919 51.3314 27.6291 51.1923 27.525 51.0871C27.4209 50.982 27.2823 50.9178 27.1347 50.9063C24.2929 50.5737 22.2032 48.9911 20.5511 46.7865C19.281 45.0429 18.5386 42.9718 18.4121 40.8192C18.3505 40.0125 18.6402 39.7539 19.4477 39.7231C20.2425 39.7289 21.0351 39.8093 21.8148 39.9632C22.8409 40.1787 23.8411 40.5028 24.7984 40.9301C23.7443 38.8979 22.2093 36.8842 20.2183 36.059C19.9416 35.9459 19.6789 35.8012 19.4354 35.6279C19.1272 35.3939 18.8621 35.0921 19.1148 34.6734C19.2113 34.5085 19.3694 34.3886 19.5544 34.3401C19.7393 34.2916 19.936 34.3184 20.1011 34.4147C21.5076 34.94 22.7734 35.7831 23.7998 36.878C25.2553 38.4949 26.3575 40.3972 27.0361 42.4634C28.608 47.4392 29.3847 52.5813 30.1984 57.7111C30.6093 60.4083 30.9977 63.1118 31.3634 65.8214C31.5381 66.929 31.6021 68.0512 31.5545 69.1714C31.5653 69.3498 31.5075 69.5256 31.3929 69.6629C31.2784 69.8002 31.1157 69.8887 30.9381 69.9104C30.5128 69.9842 30.3217 69.7318 30.1429 69.3808C30.0751 69.2145 30.2045 68.9682 29.8902 68.8512C29.1068 69.7104 28.5324 70.7387 28.2116 71.8559C27.8909 72.9731 27.8324 74.1492 28.0408 75.2926C28.7128 79.2769 33.336 82.3498 36.8806 82.2821C37.7956 82.1844 38.7165 82.1535 39.636 82.1897C42.5826 82.5715 45.258 82.0727 47.5942 80.2068C50.0292 78.2608 51.4655 75.853 50.7812 72.5953C50.4853 71.1913 50.0723 69.8242 48.8703 68.8265C48.784 69.1037 48.7347 69.3192 48.6545 69.5285C48.6119 69.6605 48.5229 69.7726 48.4038 69.844C48.2848 69.9153 48.1439 69.9411 48.0073 69.9165C47.8558 69.9176 47.7093 69.863 47.5956 69.763C47.4819 69.6631 47.409 69.5248 47.3908 69.3746C47.3587 69.1524 47.3484 68.9276 47.36 68.7034C47.4032 65.5627 48.0134 62.4836 48.4573 59.3861C49.0203 55.4284 49.7107 51.4893 50.5285 47.5686C51.3175 43.8306 52.2915 40.148 54.8805 37.149C55.9685 35.9069 57.3501 34.9564 58.8997 34.3839C58.984 34.3396 59.0768 34.3138 59.172 34.3083C59.2671 34.3028 59.3623 34.3178 59.4511 34.3523C59.5399 34.3867 59.6203 34.4398 59.6868 34.5079C59.7534 34.5761 59.8045 34.6577 59.8367 34.7473C59.907 34.9115 59.9095 35.0968 59.8437 35.2629C59.7779 35.429 59.6491 35.5624 59.4853 35.6341C59.1155 35.8434 58.7333 36.022 58.3572 36.2191C56.3662 37.2413 55.1579 38.9594 54.0792 40.9732C54.3566 40.8562 54.5168 40.8007 54.6956 40.7268C56.2444 40.0292 57.9284 39.6823 59.6271 39.7108C60.2435 39.7108 60.5641 40.0002 60.5271 40.6222C60.4963 41.0471 60.4285 41.4597 60.3792 41.8538C59.923 46.0598 56.1627 50.4321 51.8538 50.8632C51.3545 50.9125 51.2867 51.208 51.2374 51.6083C50.8675 53.893 50.4483 56.1592 50.0908 58.4439C49.7025 60.9687 49.3573 63.5059 49.0059 66.0369C48.9409 66.2778 48.9556 66.5333 49.0478 66.7653C49.14 66.9972 49.3048 67.1932 49.5175 67.324C49.9507 67.6243 50.3265 67.9997 50.6271 68.4324C50.9538 68.8758 51.1018 68.8573 51.2867 68.3585C51.9696 66.3756 53.0008 64.53 54.3319 62.9085C55.5278 61.4921 56.5696 59.9649 58.1908 58.9057C59.9526 57.6653 61.3799 56.0089 62.3456 54.0839C63.4305 52.1071 63.4675 49.9271 63.5785 47.7718C63.6359 45.8051 63.5017 43.8376 63.1778 41.8969C62.4874 36.8965 60.9278 32.1177 59.4792 27.3144C59.3929 27.0249 59.3127 26.6986 58.9737 26.6247C57.9751 26.4338 56.9641 26.0704 55.9593 26.1751C54.5107 26.3291 53.0682 26.2182 51.6442 26.2921C49.5052 26.403 47.3785 26.7478 45.2271 26.5631C44.5737 26.5077 44.4258 26.7478 44.3641 27.3144C44.1915 28.7184 43.9634 30.1163 43.7785 31.5142C43.7169 32.0007 43.5566 32.4564 43.0388 32.5057C42.521 32.555 42.2127 32.1177 42.0463 31.6436C41.8244 31.0277 41.621 30.4119 41.3867 29.6668C40.4764 33.4711 39.96 37.3589 39.8456 41.2688C39.8456 42.057 39.7532 42.8576 39.6915 43.6458C39.6607 44.1138 39.5374 44.6434 38.958 44.7358C38.3785 44.8282 38.0765 44.3786 37.8854 43.8921C37.8097 43.7075 37.7459 43.5183 37.6943 43.3256C36.8483 39.9504 36.2407 36.5201 35.8758 33.0599C35.7032 32.1978 35.6415 31.2802 35.5552 30.3688ZM61.2114 1.42549C60.7884 1.40086 60.3644 1.40086 59.9415 1.42549C59.021 1.44631 58.1145 1.65592 57.2785 2.0413C57.0689 2.15831 56.7915 2.31224 56.8655 2.60168C56.9394 2.89111 57.2353 2.81722 57.4449 2.79874C58.0436 2.81001 58.6408 2.86145 59.2326 2.9527C62.5675 3.19286 65.0209 4.83094 66.3401 7.87922C67.5298 10.595 67.3264 13.3292 64.9408 15.4661C62.9312 17.2704 60.447 17.9293 57.8271 18.2003C56.9148 18.2865 56.81 18.3542 56.921 19.2657C57.1182 20.9961 57.5374 22.6835 57.8888 24.3831C57.9096 24.5767 57.9973 24.757 58.1368 24.893C58.2763 25.029 58.4589 25.1122 58.6531 25.1282C59.9787 25.3705 61.3383 25.3601 62.66 25.0974C64.6608 24.6801 66.5872 23.9638 68.3744 22.9729C69.8383 22.2687 71.1592 21.2999 72.2702 20.1155C73.1914 19.0656 73.881 17.8338 74.2941 16.5001C74.7073 15.1664 74.8347 13.7608 74.6682 12.3747C74.5759 10.5801 74.0436 8.83557 73.1181 7.29466C72.1926 5.75375 70.9023 4.46362 69.3607 3.53773C66.9052 2.06504 64.0732 1.33955 61.2114 1.4501V1.42549ZM4.20937 13.2245C4.20611 13.9491 4.26799 14.6725 4.39429 15.386C4.70091 17.3187 5.61397 19.1041 7.00183 20.485C8.58556 21.8985 10.3993 23.0315 12.3648 23.835C14.8306 24.9373 17.2963 25.5839 20.0457 25.1713C20.3171 25.1702 20.5778 25.0658 20.7748 24.8793C20.9718 24.6928 21.0902 24.4382 21.1059 24.1676C21.1861 23.5517 21.3463 22.9359 21.4819 22.3201C21.7431 21.1815 21.9162 20.0244 21.9998 18.8592C21.9998 18.5205 21.9998 18.1818 21.5189 18.1941C19.6203 18.2496 17.9066 17.5783 16.1991 16.8701C11.6559 14.955 10.7683 10.3302 13.2402 6.59217C15.0402 3.87026 17.8018 2.89727 20.9703 2.79874C21.334 2.79874 21.9443 3.02659 22.0183 2.56473C22.0922 2.10287 21.4573 1.94892 21.0689 1.76418C21.001 1.73277 20.9279 1.71399 20.8532 1.70876C17.1546 1.03752 13.6039 1.32079 10.2566 3.11281C6.23128 5.31744 4.36964 8.78447 4.20937 13.2491V13.2245ZM42.5271 28.6199H42.7305C42.7013 28.2484 42.741 27.8747 42.8477 27.5176C43.3175 23.2904 44.2265 19.1235 45.56 15.0843C45.7943 14.4192 45.6155 14.1113 45.0052 13.8157C42.1596 12.4607 39.0332 11.7981 35.8819 11.882C35.0318 11.8941 34.193 12.0795 33.4171 12.4268C32.6412 12.7741 31.9445 13.2761 31.3696 13.9019C31.1573 14.1167 31.0117 14.3884 30.9504 14.684C30.7778 15.5092 30.5806 16.3282 30.4018 17.1473C30.1467 18.4279 29.9758 19.7239 29.8902 21.0269C30.236 20.564 30.6063 20.12 30.9997 19.6967C31.6902 19.0193 32.3744 19.2349 32.5532 20.1894C32.624 20.7063 32.624 21.2305 32.5532 21.7474C32.4422 23.0837 32.3436 24.4262 32.3497 25.7687C32.381 26.7629 32.4737 27.7541 32.6271 28.7369C32.8259 30.0472 33.1017 31.3448 33.4532 32.6227C33.5271 32.321 33.558 32.2347 33.5765 32.1485C33.8773 30.3309 34.3925 28.5553 35.1114 26.8587C35.1701 26.665 35.3021 26.5019 35.4795 26.4041C35.6568 26.3063 35.8654 26.2816 36.0607 26.3352C36.6217 26.4584 36.7819 26.8956 36.8128 27.4006C36.9237 28.9648 36.973 30.5289 37.1456 32.0869C37.4415 34.7226 37.8052 37.3522 38.3785 39.9078C38.5758 38.0604 38.6929 36.1452 38.9949 34.2546C39.4264 31.5512 40.0306 28.8847 40.7148 26.249C40.8319 25.7933 41.023 25.3622 41.6148 25.4485C42.2066 25.5347 42.1881 25.9719 42.2312 26.403C42.299 27.2097 42.4162 27.9364 42.5271 28.6692V28.6199ZM57.0751 83.8832C57.3894 82.744 57.6915 81.6109 58.0182 80.4962C58.536 78.7596 59.0908 77.0292 59.6271 75.2987C59.7935 74.7691 60.0894 74.3874 60.6997 74.4859C61.31 74.5844 61.3593 75.1017 61.4024 75.5636C61.4155 75.7686 61.4155 75.9743 61.4024 76.1794C61.3593 77.5034 61.6798 78.8089 61.5751 80.1329C62.5983 76.358 63.8805 72.6261 63.973 68.6972C64.0336 64.7335 63.3973 60.7899 62.0929 57.046C61.7415 57.4462 61.4764 57.7111 61.2483 58.0005C60.5092 58.9065 59.6312 59.6901 58.647 60.3221C57.7723 60.9854 56.9961 61.7691 56.3415 62.6499C56.2343 62.751 56.1595 62.8816 56.1266 63.0252C56.0937 63.1688 56.1041 63.3189 56.1566 63.4566C57.7161 67.989 57.8826 72.6938 57.4696 77.3864C57.1815 79.5562 57.0497 81.7438 57.0751 83.9325V83.8832ZM16.8094 57.0398C15.5194 60.7823 14.8936 64.7211 14.96 68.6787C15.0587 72.6076 16.3162 76.3456 17.3457 80.1144C17.2655 78.581 17.6046 77.0785 17.5306 75.5512C17.5083 75.4331 17.5097 75.3118 17.5345 75.1942C17.5594 75.0766 17.6073 74.9651 17.6755 74.8661C17.7437 74.7671 17.8308 74.6825 17.9318 74.6173C18.0328 74.552 18.1458 74.5074 18.2641 74.4859C18.8313 74.3874 19.084 74.7815 19.2936 75.2618C19.6696 76.1363 19.8731 77.06 20.1628 77.9591C20.7792 79.9112 21.3463 81.888 21.8457 84.0126C21.911 82.9194 21.911 81.8234 21.8457 80.7302C21.5374 78.267 21.408 75.7298 21.297 73.2234C21.2623 72.1953 21.3055 71.166 21.4265 70.1444C21.6374 67.9165 22.0711 65.7152 22.721 63.5736C22.7961 63.4093 22.8227 63.2269 22.7976 63.048C22.7724 62.8691 22.6967 62.701 22.5792 62.5637C22.2279 62.0781 21.8316 61.6265 21.3957 61.215C19.7279 60.0021 18.1909 58.6194 16.8094 57.0891V57.0398ZM52.9942 24.8942C53.8608 24.9169 54.728 24.8798 55.5894 24.7834C56.4833 24.5802 56.4709 24.6048 56.2614 23.6749C55.799 21.5996 55.2874 19.5182 55.6141 17.3566C55.7004 16.7408 55.4045 16.5314 54.8436 16.4268C52.649 16.0018 50.4237 15.7494 48.3031 14.9857C47.4895 14.6902 47.1319 14.9365 46.8915 15.7309C46.8484 15.8725 46.8052 16.0142 46.7559 16.1558C45.8848 18.8235 45.2172 21.5532 44.7586 24.3215C44.6353 24.9743 44.7956 25.2021 45.523 25.2083C47.9888 25.2268 50.436 24.8142 52.9942 24.8942ZM23.9539 64.4727C21.4511 72.9156 22.758 80.7857 26.9251 88.3294C27.0052 87.7136 27.0669 87.1594 27.1593 86.599C27.523 84.3636 27.7758 82.122 28.0039 79.8743C28.0566 79.2245 27.8941 78.5754 27.5415 78.0268C26.5926 76.5076 26.2658 74.6815 26.6292 72.9279C27.0311 71.5722 26.9349 70.1176 26.358 68.8265C25.6306 67.3855 25.0943 65.8337 23.9539 64.4789V64.4727ZM52.0079 88.4095C52.3347 87.7259 52.6244 87.1409 52.8956 86.562C54.7648 82.8763 55.8876 78.8583 56.1997 74.7384C56.3524 71.4523 56.0095 68.1619 55.1826 64.9777C55.1456 64.8299 55.1333 64.639 54.9915 64.5959C54.8497 64.5527 54.7264 64.756 54.634 64.8915C53.7647 66.2291 53.0453 67.6582 52.4888 69.1529C52.0239 70.0362 51.8947 71.0577 52.1251 72.0288C52.4423 73.1088 52.5189 74.2452 52.3496 75.358C52.1802 76.4708 51.7691 77.5331 51.1449 78.4702C50.975 78.7201 50.8906 79.0183 50.9045 79.32C50.9662 80.1883 50.9908 81.0628 51.1018 81.9188C51.3792 84.0556 51.6936 86.1864 52.0079 88.4156V88.4095ZM7.10046 58.1483C7.18676 57.9204 7.22992 57.828 7.26074 57.7357C8.45394 53.8267 10.1445 50.0869 12.2909 46.6079C13.3675 44.9831 14.1074 43.1593 14.4669 41.2441C14.6025 40.265 14.732 39.2735 14.96 38.3067C15.8354 34.6549 16.8094 31.0277 17.9621 27.4499C18.0361 27.2343 18.2826 26.9511 17.845 26.7663C17.4073 26.5816 17.2285 26.6431 17.0251 26.988C16.8272 27.3046 16.654 27.6361 16.5073 27.9795C15.4841 30.6319 14.1318 33.1456 12.482 35.4616C11.0687 37.4397 9.83115 39.5374 8.78334 41.7306C9.68334 41.2318 10.269 40.499 11.0395 40.0187C11.5511 39.7046 12.1244 39.3043 12.6792 39.7785C13.234 40.2527 12.8703 40.8931 12.5929 41.4104C11.5034 43.2844 10.5137 45.2146 9.62786 47.1929C8.23094 50.6945 7.37861 54.3891 7.10046 58.1483V58.1483ZM71.8942 57.8712C71.7339 56.7668 71.5696 55.6645 71.4011 54.5642C70.7652 50.5233 69.3746 46.6377 67.3018 43.11C66.9011 42.4203 66.525 41.7183 66.1613 41.0101C66.0347 40.8353 65.9708 40.6229 65.9797 40.4073C65.9887 40.1917 66.07 39.9854 66.2107 39.8216C66.5805 39.4275 67.0305 39.563 67.4435 39.76C67.8697 39.9706 68.2639 40.2401 68.6148 40.5606C69.0709 40.9609 69.5579 41.3242 70.0326 41.706C69.2139 39.799 68.2083 37.9775 67.0305 36.2683C65.6004 34.0822 64.0655 31.9576 63.0853 29.4944C62.7833 28.7308 62.4689 27.9733 62.0929 27.2405C61.9264 26.9018 61.7662 26.4892 61.199 26.717C60.6319 26.9449 60.9894 27.3329 61.0757 27.6284C62.3086 31.6805 63.6401 35.7018 64.275 39.8893C64.6291 42.2739 65.4502 44.5653 66.6915 46.6325C67.9149 48.6294 69.0003 50.7075 69.9401 52.8523C70.5935 54.5088 71.2655 56.1654 71.8634 57.865L71.8942 57.8712ZM31.0306 22.3817L30.9011 22.3201C30.636 22.7327 30.3587 23.1392 30.1182 23.5517C29.8778 23.9643 29.7114 24.2723 29.2182 24.1676C29.0081 24.1183 28.8225 23.9957 28.6948 23.8218C28.5671 23.6479 28.5057 23.4343 28.5217 23.2192C28.4847 22.277 28.4847 21.3225 28.5217 20.3803C28.5956 18.9085 29.0641 17.4675 28.7929 15.9711C28.7251 15.6016 28.6943 15.5338 28.3059 15.62C26.9497 15.9156 25.5751 16.1558 24.2128 16.4144C23.3128 16.5869 23.1463 16.7285 23.3436 17.5968C23.6087 18.7299 23.3436 19.8199 23.2203 20.9284C23.0752 21.9845 22.859 23.0297 22.573 24.0567C22.4806 24.4632 22.4929 24.6725 23.0662 24.7587C25.4765 24.9866 27.8929 24.8018 30.3032 25.0235C30.821 25.0728 31.0182 24.7834 31.0182 24.303C31.0059 23.6626 30.9997 23.0468 30.9997 22.3755L31.0306 22.3817ZM68.2264 73.4205C68.7985 69.4354 68.8565 65.3935 68.399 61.3936C67.9675 57.3293 66.112 53.7021 64.9223 49.6377C64.8392 51.5017 64.3579 53.3263 63.5107 54.9891C63.4181 55.1481 63.3693 55.3287 63.3693 55.5126C63.3693 55.6965 63.4181 55.8771 63.5107 56.036C64.1271 57.3477 64.6819 58.6717 65.2059 60.0142C66.9544 64.2797 67.9653 68.8108 68.1956 73.4143L68.2264 73.4205ZM14.0662 49.8286C10.645 57.2184 9.35046 66.5234 10.7868 73.4513C10.7559 72.8355 10.8915 72.3059 10.91 71.764C11.0025 68.6171 11.9148 65.6489 12.821 62.6745C13.5788 60.3826 14.4806 58.1407 15.521 55.9621C15.5952 55.8205 15.6314 55.6621 15.626 55.5024C15.6206 55.3426 15.5738 55.187 15.4902 55.0507C14.6367 53.4319 14.1406 51.6491 14.0354 49.8225L14.0662 49.8286ZM31.4436 82.0419C31.6078 82.82 31.9542 83.5481 32.4545 84.1665C34.5504 86.4881 37.2812 87.2456 40.2648 87.0547C42.1771 87.012 44.0215 86.3387 45.5107 85.1395C46.4292 84.3389 47.2675 83.4953 47.4894 82.1713C44.2963 83.6677 43.7169 83.7909 40.3203 83.7416C39.9989 83.7069 39.6758 83.6905 39.3525 83.6923C36.5847 83.9263 33.9463 83.6985 31.4128 82.0358L31.4436 82.0419ZM55.0038 42.2171C55.0609 42.2947 55.1226 42.3688 55.1888 42.4388C56.1751 43.4672 56.323 44.4648 55.6572 45.5179C54.9915 46.5709 54.1223 46.9158 52.6737 46.4231C52.421 46.3308 52.3223 46.3862 52.2668 46.651C52.1436 47.2299 51.9771 47.8026 51.86 48.3876C51.6196 49.5392 51.6627 49.57 52.8278 49.2374L52.9696 49.1943C54.7468 48.5811 56.275 47.4048 57.3216 45.8443C58.2046 44.6337 58.7627 43.2176 58.9429 41.7306C58.986 41.4166 58.986 41.1148 58.5052 41.1887C57.2908 41.4227 56.0703 41.5212 54.973 42.211L55.0038 42.2171ZM23.9724 42.1863C22.9912 41.7064 21.9334 41.4021 20.847 41.2872C19.9902 41.1764 19.8854 41.1949 20.0457 42.0139C20.3172 43.4832 20.9246 44.87 21.8206 46.0664C22.7166 47.2627 23.877 48.2362 25.2114 48.911C25.7073 49.1468 26.2381 49.3007 26.7833 49.3667C27.1347 49.4222 27.2826 49.3667 27.2087 49.0096C27.0237 48.0982 26.8203 47.1621 26.623 46.2569C25.1867 46.9527 24.2559 46.8111 23.4915 45.8258C22.5854 44.6742 22.7087 43.6335 23.9415 42.1802L23.9724 42.1863Z" fill="#2C3639"/>
<path d="M47.736 74.4128C47.279 75.4112 46.6534 76.3236 45.8867 77.11C45.3164 77.7025 44.6246 78.1647 43.8586 78.4648C43.6798 78.5326 43.4086 78.5449 43.5011 78.8282C43.5148 78.884 43.5407 78.936 43.577 78.9806C43.6133 79.0252 43.6591 79.0611 43.711 79.0859C43.7629 79.1106 43.8196 79.1236 43.8771 79.1237C43.9347 79.1239 43.9915 79.1113 44.0435 79.0868C44.3456 78.9821 44.66 78.8282 44.9497 78.7543C45.2394 78.6804 45.6709 78.6065 45.8497 79.0375C45.8988 79.126 45.9284 79.2239 45.9364 79.3248C45.9445 79.4256 45.9308 79.5269 45.8964 79.622C45.8619 79.7171 45.8074 79.8038 45.7367 79.8761C45.6659 79.9484 45.5804 80.0048 45.486 80.0413C44.7709 80.3985 44.0435 80.7495 43.2113 80.417C42.8868 80.3289 42.6003 80.1364 42.3963 79.8692C42.1924 79.602 42.0824 79.275 42.0833 78.939C42.0306 77.6239 42.404 76.3269 43.1481 75.2407C43.8922 74.1546 44.9672 73.3372 46.2134 72.9102C47.0949 72.6454 47.9579 72.5345 48.6792 73.1811C49.4004 73.8277 49.3757 74.7946 49.1723 75.6875C49.1 76.2107 48.8869 76.7044 48.5559 77.1162C48.439 77.2818 48.2615 77.3948 48.0619 77.4305C47.8623 77.4662 47.6566 77.4219 47.4894 77.3071C47.1011 77.0546 47.1997 76.6913 47.3785 76.3834C47.744 75.7958 47.8719 75.0911 47.736 74.4128V74.4128Z" fill="#2C3639"/>
<path d="M31.1417 74.3992C31.0259 75.0623 31.1482 75.7449 31.4869 76.3267C31.6657 76.6777 31.8321 77.0349 31.4006 77.312C31.3133 77.3762 31.2129 77.4205 31.1066 77.4417C31.0003 77.4628 30.8907 77.4604 30.7854 77.4346C30.6801 77.4087 30.5818 77.3601 30.4974 77.2921C30.4131 77.2241 30.3447 77.1383 30.2972 77.041C29.9789 76.5788 29.7702 76.0502 29.6869 75.4953C29.6036 74.9405 29.6479 74.374 29.8163 73.8388C30.0937 73.0013 30.9259 72.6072 31.943 72.7119C34.5999 72.989 37.2198 76.3082 36.8745 78.9439C36.8546 79.1795 36.7876 79.4086 36.6777 79.618C36.5678 79.8273 36.4171 80.0126 36.2345 80.1629C36.0518 80.3132 35.841 80.4256 35.6142 80.4933C35.3875 80.561 35.1495 80.5828 34.9143 80.5573C34.3671 80.4877 33.8414 80.3007 33.3732 80.0093C33.213 79.93 33.0895 79.7923 33.0282 79.6246C32.9668 79.4569 32.9724 79.272 33.0436 79.1083C33.1149 78.9445 33.2464 78.8144 33.411 78.7449C33.5756 78.6753 33.7607 78.6716 33.928 78.7345C34.2855 78.8269 34.6184 79.0055 34.9821 79.104C35.0302 79.1191 35.0809 79.1242 35.1311 79.1193C35.1813 79.1143 35.23 79.0994 35.2743 79.0752C35.3186 79.0511 35.3576 79.0183 35.3889 78.9788C35.4203 78.9393 35.4433 78.8939 35.4567 78.8454C35.5184 78.6298 35.3396 78.556 35.167 78.4882C34.3097 78.1494 33.534 77.6328 32.8911 76.9725C32.2483 76.3123 31.7529 75.5234 31.4376 74.6578C31.406 74.5885 31.3645 74.5242 31.3143 74.4669C31.265 74.4361 31.2157 74.4361 31.1417 74.3992Z" fill="#2C3639"/>
<path d="M16.8461 70.7841C17.6043 67.0892 18.757 63.4805 19.3118 59.7548C19.3611 59.4161 19.3118 58.8249 19.7865 58.868C20.2611 58.9111 20.2057 59.5269 20.1933 59.9211C20.1255 62.6922 19.4105 65.3464 18.7324 68.0067C17.7891 71.7909 17.487 75.7063 17.8386 79.5902C17.9557 81.0559 17.9865 82.5276 18.042 83.9994C18.042 84.2211 18.1468 84.5722 17.7892 84.6153C17.4317 84.6584 17.4749 84.3197 17.4317 84.1165C16.581 79.8427 15.5084 75.5874 15.6255 71.1843C15.6869 67.2323 16.2335 63.3028 17.2529 59.4838C17.4009 58.9542 17.4995 58.4123 17.6289 57.8827C17.6783 57.6733 17.6659 57.3593 17.968 57.3777C18.2701 57.3962 18.2947 57.7349 18.2824 57.9935C18.2662 58.5149 18.2064 59.034 18.1036 59.5454C17.2895 63.2369 16.868 67.0041 16.8461 70.7841V70.7841Z" fill="#2C3639"/>
<path d="M62.0621 70.8217C62.0568 67.0279 61.6435 63.2456 60.8292 59.54C60.6894 59.0078 60.6292 58.4578 60.6504 57.908C60.6504 57.6987 60.6505 57.4092 60.971 57.3969C61.2915 57.3846 61.2484 57.6371 61.2915 57.828C61.9989 60.4784 62.5383 63.1708 62.9066 65.889C63.11 67.9027 63.3073 69.9103 63.3319 71.9302C63.3689 74.7999 62.6785 77.571 62.2594 80.3792C62.0864 81.588 61.8477 82.7865 61.5443 83.9694C61.4765 84.2157 61.4826 84.6283 61.1436 84.5852C60.8046 84.5421 60.8908 84.1541 60.897 83.914C60.9895 81.7463 61.0758 79.6033 61.1991 77.411C61.3193 73.612 60.8324 69.8181 59.7566 66.1723C59.1873 64.1796 58.8522 62.1274 58.758 60.0572C58.758 59.6077 58.5607 58.9303 59.1587 58.8687C59.6518 58.8195 59.6025 59.4845 59.6518 59.891C60.1511 63.5859 61.347 67.1083 62.0621 70.8217Z" fill="#2C3639"/>
<path d="M56.4832 39.3109C57.8346 38.5429 59.3549 38.1199 60.9092 38.0793C61.5935 38.0793 62.2345 38.4365 62.9619 38.184C63.264 38.0793 63.4921 38.5843 63.6647 38.8799C64.5092 40.327 65.3229 41.7865 66.1613 43.2337C67.3941 45.3213 68.627 47.3781 69.7366 49.552C71.0619 52.2061 71.5859 55.0943 72.2023 57.9209C72.3071 58.432 72.4119 58.9493 72.4797 59.4666C72.5106 59.7191 72.6092 60.0824 72.2147 60.1317C71.8202 60.1809 71.8818 59.8176 71.8325 59.5836C71.5489 58.2658 71.2469 56.9541 71.0065 55.6301C70.3849 52.5551 69.1774 49.6281 67.4496 47.0086C66.0565 44.7917 64.54 42.6548 63.3195 40.3209C63.0905 39.9591 62.771 39.6633 62.3927 39.4624C62.0144 39.2616 61.5902 39.1627 61.162 39.1755C59.1955 39.0215 57.5003 39.7913 55.8667 40.7643C55.4071 41.0094 54.9088 41.174 54.3935 41.2508C53.9743 41.3308 53.8941 41.1276 54.0483 40.7827C54.1012 40.6686 54.1675 40.5612 54.2455 40.4625C55.0354 39.3479 56.0438 38.4053 57.2094 37.6918C58.375 36.9783 59.6736 36.5089 61.0263 36.3119C61.4963 36.2215 61.9813 36.249 62.438 36.392C62.6845 36.4843 62.9126 36.6075 62.8633 36.9216C62.814 37.2356 62.5489 37.211 62.3332 37.211C61.4067 37.203 60.4835 37.3232 59.59 37.5682C58.4282 37.8887 57.3619 38.4868 56.4832 39.3109V39.3109Z" fill="#2C3639"/>
<path d="M15.4469 37.0864C14.5641 38.6243 13.5733 40.0978 12.4818 41.4956C12.3107 41.7422 12.1254 41.9786 11.927 42.2038C11.7359 42.3947 11.551 42.8197 11.2305 42.5857C10.9099 42.3516 11.2675 42.0499 11.3969 41.8036C11.5942 41.4341 11.8223 41.083 12.1182 40.5719C11.6779 40.7125 11.262 40.9202 10.8853 41.1877C10.6695 41.2986 10.4229 41.5018 10.2318 41.1877C10.0407 40.8737 10.312 40.7875 10.4846 40.6458C13.9859 37.8377 15.9462 34.7956 17.1729 30.2693C16.9942 30.2385 16.988 30.3986 16.9572 30.4849C15.9148 32.9843 14.4348 35.2782 12.5866 37.2588C11.1073 38.9188 9.75159 40.6847 8.53048 42.5425C8.3024 42.8874 8.03116 43.6079 7.63664 43.3493C7.24212 43.0906 7.74144 42.5117 7.95103 42.1176C9.18172 40.0057 10.6278 38.0266 12.2661 36.212C14.3642 33.7216 15.9669 30.8539 16.988 27.763C17.1791 27.2272 17.3949 26.6914 17.6044 26.1618C17.6846 25.9771 17.814 25.7739 18.0483 25.8355C18.2825 25.897 18.338 26.168 18.2825 26.3897C18.0791 27.1595 17.8572 27.9292 17.6353 28.6928C17.5613 28.9576 17.4627 29.1732 17.7154 29.438C17.9681 29.7028 17.851 30.1462 17.7894 30.5157C17.4279 32.2774 16.8502 33.988 16.0695 35.6084C15.9031 35.9718 15.749 36.3351 15.5887 36.7046L15.4469 37.0864Z" fill="#2C3639"/>
<path d="M61.8093 30.2946C62.6849 34.2224 64.8319 37.7525 67.9181 40.3386C68.1159 40.4948 68.3217 40.6408 68.5346 40.7758C68.6825 40.8866 68.7935 41.0283 68.6949 41.2192C68.5962 41.4101 68.362 41.4162 68.1832 41.3116C67.7332 41.0529 67.3017 40.7696 66.6853 40.3878C67.0305 40.9605 67.3017 41.3485 67.5051 41.7611C67.6407 42.0197 68.0353 42.3769 67.6716 42.5924C67.3079 42.808 67.1044 42.3646 66.9318 42.1306C65.8764 40.8304 64.9104 39.4601 64.0408 38.0292C62.6758 35.7271 61.6873 33.2221 61.1127 30.6087C61.0325 30.1714 60.8784 29.7342 61.2853 29.377C61.4764 29.1923 61.2853 28.9583 61.236 28.7612C61.0325 28.0407 60.823 27.3202 60.6195 26.5997C60.5579 26.3534 60.5147 26.0516 60.8168 25.9531C61.1188 25.8546 61.2421 26.1502 61.3408 26.3719C61.8832 27.6035 62.2716 28.8351 62.7709 30.0667C63.8749 32.6406 65.3998 35.0131 67.2832 37.087C68.6538 38.6463 69.8716 40.3332 70.9202 42.1244C71.0743 42.3831 71.2161 42.6479 71.3517 42.9127C71.4873 43.1775 71.5181 43.3314 71.3209 43.4607C71.1236 43.5901 70.9449 43.393 70.8339 43.2391C70.5257 42.8141 70.2175 42.3769 69.9401 41.9397C68.8141 40.2904 67.5784 38.7186 66.2414 37.2349C64.3692 35.1981 62.8691 32.8491 61.8093 30.2946V30.2946Z" fill="#2C3639"/>
<path d="M38.7732 36.7789C39.1739 32.7761 39.0567 28.8041 39.1677 24.8383C39.216 23.167 39.4037 21.5026 39.7287 19.8625C39.8036 19.4427 39.9495 19.0387 40.1602 18.6678C40.2773 18.4769 40.3821 18.2183 40.6595 18.3229C40.9369 18.4276 40.8321 18.6986 40.7581 18.9018C40.503 19.737 40.3296 20.595 40.2403 21.4636C39.8211 24.2717 40.0431 27.0983 39.8951 29.9126C39.7718 32.2773 39.8088 34.6975 39.2787 36.9822C38.8472 38.885 39.2787 40.6093 39.4328 42.4137C39.4328 42.7647 39.6855 43.3251 39.2663 43.3928C38.8472 43.4606 38.8718 42.8386 38.8102 42.4999C38.1619 38.8911 37.75 35.2438 37.5773 31.5815C37.343 28.4965 37.343 25.3983 37.5773 22.3134C37.6543 21.417 37.809 20.529 38.0396 19.6593C38.1013 19.4499 38.1753 19.1851 38.465 19.2282C38.7547 19.2713 38.7239 19.5731 38.7054 19.7824C38.6006 21.1249 38.4773 22.4674 38.3663 23.8099C38.2061 26.2993 38.2061 28.7964 38.3663 31.2859C38.502 33.1087 38.6129 34.9192 38.7732 36.7789Z" fill="#2C3639"/>
<path d="M16.3472 39.0216C18.4554 37.7284 20.2739 38.9601 22.1541 39.6929C22.3737 39.8114 22.5601 39.9829 22.6965 40.1917C22.7836 40.2842 22.8321 40.4064 22.8321 40.5335C22.8321 40.6605 22.7836 40.7827 22.6965 40.8752C22.4623 41.1154 22.2588 40.9245 22.0431 40.789C20.905 40.1013 19.6257 39.6803 18.3013 39.5574C17.1671 39.4404 16.3164 40.1116 15.7184 41.06C15.552 41.3248 15.5088 41.6758 15.0342 41.5957C14.8801 41.5588 14.8061 41.7682 14.7321 41.8913C13.1047 44.6748 11.1383 47.2366 9.70818 50.1433C8.6766 52.444 7.94527 54.8675 7.53216 57.3545C7.37805 58.1119 7.22394 58.8694 7.05134 59.6269C7.00202 59.8609 6.97119 60.1811 6.61982 60.1072C6.26845 60.0333 6.36091 59.75 6.40406 59.5406C7.0205 56.283 7.53831 53.0007 8.96228 49.9462C10.4294 46.7932 12.4328 43.942 14.0726 40.8814C14.4732 40.1363 14.9109 39.4034 15.3609 38.6891C15.5212 38.4366 15.6753 38.0363 16.0821 38.1718C16.489 38.3073 16.1746 38.7199 16.3472 39.0216Z" fill="#2C3639"/>
<path d="M38.2864 65.3169C38.2864 66.8565 38.2864 68.0819 38.2864 69.3013C38.297 69.5757 38.2763 69.8505 38.2247 70.1203C38.1692 70.3666 38.2617 70.7792 37.9103 70.7977C37.559 70.8162 37.5959 70.3974 37.5713 70.1819C37.4788 69.2643 37.3925 68.3344 37.3617 67.4169C37.2384 63.956 37.109 60.4889 37.035 57.0219C36.8944 52.3583 36.5158 47.7049 35.9007 43.0798C35.8587 42.7346 35.8443 42.3866 35.8576 42.0391C35.8576 41.8543 35.9069 41.5957 36.1658 41.5957C36.4247 41.5957 36.4432 41.8605 36.474 42.0453C36.7453 43.591 37.0288 45.1243 37.2507 46.6885C37.8319 51.2437 38.1427 55.8293 38.1816 60.4212C38.2186 62.1393 38.1939 63.8883 38.2864 65.3169Z" fill="#2C3639"/>
<path d="M40.573 65.8327C40.7024 61.8422 40.7826 57.8271 40.9675 53.8674C41.1634 49.9056 41.6538 45.9638 42.4347 42.0745C42.4778 41.8713 42.4901 41.5573 42.786 41.588C43.0819 41.6188 43.0942 41.9083 43.0757 42.1177C42.9833 43.2138 42.8723 44.3038 42.749 45.3938C42.4038 48.4421 42.0894 51.4904 41.9908 54.5571C41.8799 57.9503 41.8059 61.3311 41.6949 64.7304C41.6394 66.5471 41.4792 68.3637 41.3374 70.1742C41.3374 70.4083 41.4052 70.827 40.986 70.7901C40.6778 70.7901 40.721 70.3959 40.6963 70.1742C40.5545 68.7332 40.6285 67.2799 40.573 65.8327Z" fill="#2C3639"/>
<path d="M36.93 66.2638C36.7266 67.3722 36.8622 68.5485 36.7081 69.7124C36.7081 69.9525 36.7697 70.3713 36.3814 70.359C35.993 70.3466 36.0546 69.9464 36.03 69.6939C35.9437 68.6285 35.8389 67.557 35.8327 66.4855C35.7896 61.6944 35.4937 56.9157 35.2163 52.137C34.8853 48.1362 34.3255 44.1577 33.5396 40.2209C33.4656 39.833 33.1882 39.2171 33.6875 39.1186C34.1868 39.0201 34.0512 39.7344 34.1314 40.0793C35.0917 44.2001 35.7408 48.3871 36.0731 52.605C36.4122 56.7309 36.8745 60.8446 36.8314 64.9952C36.842 65.4195 36.8749 65.8429 36.93 66.2638V66.2638Z" fill="#2C3639"/>
<path d="M42.0586 66.6832C42.0586 61.2455 42.5209 56.3067 42.9771 51.3678C43.3434 47.5197 43.9611 43.6997 44.8264 39.9321C44.8942 39.6304 44.8264 39.0392 45.2456 39.1069C45.6648 39.1747 45.4983 39.7227 45.4305 40.0738C44.3742 45.331 43.7189 50.6609 43.4702 56.0172C43.3285 59.4781 43.1127 62.939 43.0634 66.3999C43.0634 67.4714 42.9709 68.5429 42.8785 69.6144C42.8785 69.8854 42.8785 70.335 42.5209 70.3534C42.1634 70.3719 42.2312 69.8977 42.1942 69.6452C42.0401 68.5121 42.2004 67.3852 42.0586 66.6832Z" fill="#2C3639"/>
<path d="M9.9177 71.8566C9.6403 66.4312 11.2492 61.3384 13.2403 56.3195C13.7828 55.1408 14.2142 53.9141 14.5286 52.6554C14.578 52.4152 14.6519 52.1135 14.9663 52.1381C15.2807 52.1628 15.33 52.4953 15.3423 52.754C15.3326 53.5045 15.1733 54.2456 14.8738 54.9339C13.9184 57.5327 12.8889 60.1007 12.1677 62.7795C11.4589 65.7406 11.0459 68.7647 10.9348 71.8073C10.8362 73.2976 10.9348 74.8002 10.7129 76.2843C10.6759 76.5183 10.8054 76.9371 10.3923 76.9001C9.97933 76.8632 10.0533 76.4813 10.041 76.2289C9.9168 74.7749 9.87565 73.3152 9.9177 71.8566V71.8566Z" fill="#2C3639"/>
<path d="M69.0033 71.9794C69.0958 73.2665 68.9293 74.6089 68.8985 75.9576C68.9005 76.1323 68.8777 76.3065 68.8307 76.4749C68.7691 76.6719 68.7691 76.9737 68.4608 76.9429C68.1526 76.9121 68.2451 76.6473 68.2081 76.4564C68.0232 74.9964 67.949 73.5245 67.9862 72.0533C67.8672 66.9546 66.8229 61.9198 64.904 57.1937C64.3832 56.0332 63.9705 54.8272 63.6711 53.5911C63.5725 53.1046 63.3012 52.3595 63.8869 52.1994C64.5834 52.0393 64.3862 52.8953 64.5403 53.3079C65.3848 55.494 66.1862 57.6986 67.006 59.8971C68.4563 63.7553 69.1349 67.8603 69.0033 71.9794V71.9794Z" fill="#2C3639"/>
<path d="M56.1318 87.7069C56.0799 86.8073 56.182 85.9056 56.4338 85.0404C56.9886 82.1029 57.6297 79.1778 58.0551 76.2157C58.4699 73.0672 58.3322 69.8705 57.6482 66.7691C57.2013 65.0292 56.9308 63.2487 56.8407 61.4546C56.8314 61.2803 56.8314 61.1056 56.8407 60.9312C56.8407 60.6479 56.9208 60.3523 57.2722 60.3154C57.6236 60.2784 57.7345 60.6048 57.7653 60.8696C58.0921 63.4683 58.6777 66.024 59.0352 68.6227C59.6023 72.798 58.7023 76.8069 57.9071 80.8405C57.5126 82.8419 57.0564 84.8372 56.6311 86.8324C56.6293 87.0086 56.5825 87.1813 56.4951 87.3344C56.4077 87.4874 56.2827 87.6156 56.1318 87.7069V87.7069Z" fill="#2C3639"/>
<path d="M22.709 87.6208C22.3823 87.473 22.37 87.202 22.3268 86.9742C21.433 82.7312 20.4467 78.5067 19.8611 74.2083C19.617 71.7993 19.7103 69.368 20.1385 66.9848C20.4159 64.9834 20.7981 63.0005 21.1433 61.0114C21.1988 60.6973 21.2296 60.2909 21.6672 60.3155C22.1049 60.3402 22.0926 60.7404 22.1049 61.0606C22.0978 62.8597 21.8469 64.6495 21.359 66.3813C20.2556 71.0738 20.5638 75.7355 21.5563 80.3973C22.0001 82.491 22.3885 84.5971 22.7892 86.7032C22.8379 86.8537 22.856 87.0125 22.8422 87.1701C22.8284 87.3277 22.7832 87.481 22.709 87.6208V87.6208Z" fill="#2C3639"/>
<path d="M52.828 83.8217C53.0376 82.9534 53.241 82.0851 53.4444 81.2168C53.5061 80.9704 53.4937 80.564 53.8636 80.601C54.2335 80.6379 54.1163 81.0382 54.0917 81.303C53.9052 83.0892 53.5691 84.8566 53.0869 86.5867C52.7047 88.0277 52.2855 89.4625 51.854 90.8974C51.7739 91.1622 51.7492 91.6117 51.3732 91.5501C50.9972 91.4886 51.0896 91.039 51.1266 90.7434C51.574 87.7601 51.7576 84.7433 51.6752 81.7279C51.6136 80.1575 51.4472 78.5995 51.3362 77.0292C51.2992 76.5242 51.1328 75.736 51.6752 75.6559C52.2177 75.5759 52.1252 76.3826 52.2424 76.826C52.8095 79.0306 52.6554 81.2783 52.6307 83.5199C52.6307 83.6184 52.6307 83.7108 52.6307 83.8093L52.828 83.8217Z" fill="#2C3639"/>
<path d="M26.21 83.8278C26.21 83.212 26.21 82.6516 26.21 82.0666C26.117 80.22 26.2662 78.3692 26.6538 76.5612C26.7093 76.321 26.7771 76.0747 26.8511 75.8407C26.871 75.7803 26.9087 75.7274 26.9594 75.6889C27.01 75.6504 27.0711 75.6282 27.1347 75.6252C27.2096 75.6227 27.2828 75.6476 27.3407 75.6952C27.3986 75.7428 27.4371 75.8099 27.4491 75.8838C27.5455 76.2721 27.5809 76.6731 27.5538 77.0723C27.2386 79.5491 27.117 82.0466 27.1901 84.5422C27.2402 86.5854 27.4173 88.6236 27.7203 90.6449C27.7415 90.7171 27.754 90.7915 27.7573 90.8666C27.7573 91.1314 27.8682 91.4824 27.5292 91.5809C27.1902 91.6795 27.1162 91.2854 27.0484 91.0329C26.4319 88.6189 25.5874 86.2603 25.1497 83.7971C25.008 83.0088 24.9032 82.2205 24.7922 81.4261C24.7552 81.1367 24.6566 80.7057 24.9833 80.6379C25.4456 80.5394 25.384 81.0567 25.4641 81.3338C25.6922 82.1651 25.8771 83.0088 26.0806 83.8463L26.21 83.8278Z" fill="#2C3639"/>
<path d="M42.8538 39.0031C43.2544 37.1557 43.7414 35.222 44.2962 33.2822C45.0437 30.7939 46.0781 28.4009 47.3784 26.1511C47.5334 25.9628 47.6144 25.7246 47.6065 25.4809C47.5986 25.2373 47.5021 25.0049 47.3353 24.8271C46.9731 24.2714 46.725 23.6493 46.6054 22.9971C46.4858 22.3448 46.4971 21.6753 46.6387 21.0275C46.6757 20.8181 46.7435 20.621 46.9839 20.6026C47.2243 20.5841 47.3538 20.8243 47.3846 21.046C47.4339 21.4401 47.44 21.8404 47.4894 22.2345C47.5565 22.9824 47.7791 23.7081 48.1428 24.3652C48.4695 24.9441 48.7161 25.4182 48.2846 26.1634C47.8531 26.9085 47.5818 27.863 47.1935 28.6944C45.8372 31.7764 44.7242 34.9596 43.8647 38.2149C43.7661 38.5782 43.6613 38.9354 43.5318 39.2864C43.4455 39.5081 43.3654 39.8345 43.0449 39.7421C42.7243 39.6497 42.8168 39.3788 42.8538 39.0031Z" fill="#2C3639"/>
<path d="M25.6677 68.5124C25.5444 71.7023 25.1376 74.8799 25.1684 78.076C25.1681 78.2012 25.1494 78.3257 25.1129 78.4455C25.0698 78.6549 25.1129 78.969 24.8294 78.9751C24.5458 78.9813 24.4595 78.6672 24.4287 78.427C24.3239 77.4602 24.2006 76.4934 24.1574 75.5204C24.0033 72.2258 24.1883 68.9373 24.2992 65.6674C24.2962 65.6181 24.2962 65.5687 24.2992 65.5195C24.3732 65.2178 24.2992 64.7683 24.6814 64.7067C25.0636 64.6451 25.1869 65.1131 25.2978 65.4272C25.5837 66.4296 25.7085 67.4709 25.6677 68.5124Z" fill="#2C3639"/>
<path d="M54.7883 72.1454C54.8534 74.1529 54.7627 76.1623 54.5171 78.1558C54.4982 78.3291 54.4631 78.5002 54.4123 78.6669C54.3568 78.8332 54.2705 79.0118 54.0548 78.981C53.839 78.9502 53.839 78.7901 53.8205 78.6423C53.7762 78.4395 53.7473 78.2337 53.7342 78.0265C53.8143 74.6026 53.241 71.2094 53.2534 67.7916C53.254 66.9909 53.3703 66.1944 53.5986 65.4269C53.6972 65.1128 53.7404 64.6202 54.178 64.6694C54.6157 64.7187 54.5972 65.236 54.5972 65.5808C54.5664 67.847 54.9239 70.0824 54.7883 72.1454Z" fill="#2C3639"/>
<path d="M32.8554 34.0886C32.8554 30.7693 32.8061 27.4501 32.8554 24.1309C32.8891 21.4763 33.2557 18.8365 33.9465 16.273C34.039 15.9282 34.0636 15.3001 34.5629 15.4294C34.9328 15.5279 34.7047 16.0945 34.6246 16.4393C33.7862 20.3251 33.8232 24.2663 33.7554 28.2076C33.7184 30.1227 33.5951 32.0379 33.5027 33.9593C33.5027 34.2118 33.6321 34.6182 33.3177 34.6859C32.8862 34.7783 33.0403 34.2549 32.8554 34.0701V34.0886Z" fill="#2C3639"/>
<path d="M35.0496 24.0996C35.0874 21.8573 35.419 19.6297 36.0359 17.4734C36.1283 17.184 36.153 16.6852 36.5352 16.7406C36.9174 16.796 36.8619 17.3564 36.8187 17.6212C36.529 19.5241 36.5413 21.4454 36.4119 23.3606C36.2886 25.1157 36.5413 26.8461 36.5537 28.5889C36.5537 28.6874 36.5906 28.7859 36.5845 28.8845C36.5845 29.2355 36.7941 29.7836 36.3687 29.8759C35.9434 29.9683 35.7523 29.4325 35.5982 29.0877C35.4137 28.5165 35.318 27.9205 35.3146 27.3203C35.2222 26.1564 35.1235 24.9863 35.0496 24.0996Z" fill="#2C3639"/>
<path d="M15.447 37.0882L15.6196 36.7618C17.9313 35.4132 21.8456 36.7618 23.3991 38.7755C23.8737 39.3914 24.2991 40.0072 24.7306 40.6723C24.8662 40.8755 25.0449 41.1218 24.7984 41.3435C24.5518 41.5652 24.2806 41.3435 24.0833 41.1772C23.7073 40.8139 23.3374 40.4444 22.9922 40.0503C21.186 37.9934 18.8621 37.3468 16.2114 37.587C15.7306 37.6486 15.5272 37.5377 15.447 37.0882Z" fill="#2C3639"/>
<path d="M39.2047 62.1009C39.2478 63.2402 39.1184 64.7613 39.2725 66.2823C39.2849 66.3557 39.2849 66.4306 39.2725 66.504C39.2047 66.7503 39.2725 67.1568 38.9149 67.1198C38.5574 67.0829 38.6745 66.738 38.6684 66.504C38.6129 64.4102 38.5821 62.3165 38.5143 60.2227C38.4033 56.8603 38.2677 53.5041 38.1444 50.1418C38.1444 49.877 38.0643 49.4644 38.3786 49.4459C38.693 49.4274 38.73 49.8462 38.7485 50.1356C38.9766 54.0029 39.2232 57.8579 39.2047 62.1009Z" fill="#2C3639"/>
<path d="M39.7098 62.2197C39.6728 58.0506 39.9318 54.1217 40.166 50.1867C40.1671 50.0874 40.1774 49.9884 40.1968 49.8911C40.2461 49.7063 40.2585 49.4354 40.505 49.4415C40.7516 49.4477 40.7948 49.7494 40.7763 49.9588C40.6283 52.4221 40.6222 54.8422 40.468 57.2809C40.3386 59.2699 40.3879 61.2652 40.3448 63.2604C40.3448 64.3319 40.2893 65.4035 40.2461 66.475C40.2461 66.7213 40.3571 67.1401 39.9749 67.1278C39.5927 67.1154 39.6359 66.6721 39.6543 66.4011C39.7715 64.9231 39.6667 63.4636 39.7098 62.2197Z" fill="#2C3639"/>
<path d="M32.8491 34.0751C33.0341 35.005 33.219 35.9226 33.3978 36.8586C33.4395 37.0284 33.4663 37.2015 33.4779 37.3759C33.4779 37.5976 33.5149 37.8809 33.2437 37.9363C32.9724 37.9917 32.8861 37.7269 32.8245 37.5114C32.6272 36.7909 32.4238 36.0766 32.245 35.3499C31.5543 32.3336 30.5007 29.4119 29.1074 26.6484C28.9533 26.3405 28.6327 25.8786 29.0704 25.6631C29.5081 25.4476 29.6868 25.9833 29.8533 26.2789C31.0216 28.4832 31.9396 30.8111 32.5902 33.2192C32.6704 33.5086 32.7628 33.7919 32.8553 34.0751H32.8491Z" fill="#2C3639"/>
<path d="M50.1276 25.7191C50.0461 26.0325 49.941 26.3392 49.8133 26.6367C48.0934 29.8574 47.1687 33.3491 46.2441 36.8408C46.1455 37.2349 46.2132 38.0047 45.6954 37.8938C45.1776 37.783 45.492 37.0748 45.566 36.6622C46.1525 33.2396 47.2344 29.9205 48.7776 26.8091C49.0427 26.2918 49.24 25.676 49.9242 25.5098L50.1276 25.7191Z" fill="#2C3639"/>
<path d="M54.48 15.3066C54.8992 15.3066 55.0595 15.4975 54.8992 15.9225C54.3408 17.3883 54.1068 18.9576 54.2132 20.5223C54.3196 22.0871 54.764 23.6103 55.5157 24.9873C55.6266 25.209 55.978 25.4491 55.6698 25.6955C55.3616 25.9418 55.1088 25.64 54.9054 25.4368C54.3737 24.8355 54.0101 24.1048 53.8513 23.3184C53.3264 21.4173 53.1182 19.4429 53.2348 17.4743C53.2555 16.95 53.3924 16.4368 53.6355 15.9717C53.7102 15.7997 53.8265 15.6489 53.9739 15.5329C54.1213 15.4168 54.2952 15.339 54.48 15.3066Z" fill="#2C3639"/>
<path d="M25.7045 18.7849C25.7152 20.7299 25.3619 22.6598 24.6627 24.4751C24.4817 24.9418 24.177 25.3505 23.7812 25.6574C23.6209 25.7744 23.4237 25.8853 23.2387 25.7006C23.0538 25.5158 23.1771 25.3742 23.2696 25.2264C24.86 22.8185 24.786 20.1397 24.5456 17.4425C24.526 16.9404 24.3658 16.454 24.0832 16.0384C23.9476 15.8475 23.8428 15.6258 24.0524 15.4226C24.1485 15.3402 24.271 15.2949 24.3976 15.2949C24.5243 15.2949 24.6467 15.3402 24.7428 15.4226C24.9321 15.5435 25.0951 15.7013 25.2222 15.8864C25.3493 16.0715 25.4378 16.2803 25.4826 16.5003C25.6752 17.2456 25.7501 18.0165 25.7045 18.7849Z" fill="#2C3639"/>
<path d="M10.9411 9.78118C11.126 6.99153 12.2356 4.73764 14.7753 3.35206C15.1181 3.13974 15.5124 3.02478 15.9157 3.01953C16.0945 3.01953 16.2732 3.01952 16.3225 3.25969C16.3357 3.33453 16.3242 3.41161 16.2897 3.47934C16.2552 3.54708 16.1997 3.60183 16.1314 3.63535C15.9465 3.76467 15.7493 3.87551 15.5582 3.99251C14.4387 4.63948 13.5009 5.55837 12.8317 6.66397C12.1625 7.76956 11.7836 9.02604 11.7301 10.3169C11.6993 10.6556 11.8719 11.2468 11.4157 11.2653C10.9595 11.2838 11.0397 10.6495 10.9472 10.2985C10.9235 10.127 10.9214 9.95318 10.9411 9.78118Z" fill="#2C3639"/>
<path d="M40.5238 41.5217C40.7501 38.2623 41.42 35.049 42.5149 31.9703C42.5951 31.7363 42.6752 31.4161 42.9958 31.5085C43.3163 31.6009 43.2608 31.9519 43.1869 32.2044C42.5426 34.3536 42.0381 36.5423 41.6766 38.7566C41.5163 39.8897 41.3869 41.029 41.2143 42.1621C41.1773 42.4023 41.2143 42.8149 40.8506 42.7779C40.4869 42.741 40.567 42.3592 40.53 42.1067C40.5132 41.9121 40.5111 41.7165 40.5238 41.5217V41.5217Z" fill="#2C3639"/>
<path d="M52.1006 60.5754C52.002 61.2282 51.928 61.8071 51.8232 62.3613C51.7862 62.5645 51.8232 62.8847 51.4965 62.8663C51.1698 62.8478 51.2499 62.5338 51.2437 62.3244C51.2154 61.3518 51.3086 60.3795 51.5211 59.43C51.6752 58.6726 51.8047 57.909 51.9527 57.1515C51.9896 56.9668 51.9958 56.6958 52.2609 56.7143C52.5259 56.7328 52.5321 57.0283 52.5198 57.2316C52.5198 57.8043 52.4335 58.3708 52.4088 58.9435C52.6364 57.7488 52.9749 56.5778 53.4198 55.4457C53.5307 55.1686 53.5677 54.6821 53.9931 54.7991C54.4184 54.9161 54.2335 55.3533 54.1472 55.6366C53.6355 57.2808 53.1424 58.9312 52.7848 60.6124C52.7355 60.8279 52.7109 61.1666 52.3718 61.1481C52.0328 61.1297 52.2054 60.8464 52.1006 60.5754Z" fill="#2C3639"/>
<path d="M26.4813 58.9429C26.4813 58.3271 26.284 57.7113 26.3642 57.0955C26.3642 56.9231 26.3642 56.7198 26.6231 56.7137C26.882 56.7075 26.8696 56.8615 26.9005 57.0154C27.2087 58.8075 27.7326 60.5625 27.6402 62.41C27.6402 62.6009 27.671 62.8595 27.3936 62.878C27.1162 62.8965 27.11 62.6378 27.0792 62.4469C26.9806 61.8311 26.8943 61.2645 26.8018 60.6426C26.6724 60.8212 26.8018 61.1353 26.5183 61.166C26.2347 61.1968 26.1977 60.9505 26.1546 60.7657C25.7416 58.9676 25.2237 57.194 24.6936 55.4266C24.6196 55.1926 24.5765 54.8847 24.897 54.8108C25.2176 54.7369 25.3039 55.0202 25.3963 55.248C25.8672 56.445 26.2303 57.6815 26.4813 58.9429V58.9429Z" fill="#2C3639"/>
<path d="M59.2512 39.8712C60.1985 39.845 61.136 40.068 61.9697 40.5178C62.4402 40.7513 62.8444 41.0993 63.1449 41.5298C63.4455 41.9602 63.6328 42.4593 63.6896 42.9811C63.7389 43.523 63.8622 44.0588 63.93 44.6068C63.93 44.847 63.9916 45.1672 63.6958 45.2227C63.3999 45.2781 63.3012 44.9825 63.2211 44.7485C63.0819 44.3764 62.9666 43.9959 62.8759 43.6092C62.506 41.614 60.4101 40.5917 58.4745 40.7395C58.1417 40.7395 57.6238 41.0597 57.5314 40.5486C57.4389 40.0375 57.9999 40.0498 58.3513 39.9697C58.7026 39.8897 59.0848 39.8958 59.2512 39.8712Z" fill="#2C3639"/>
<path d="M42.854 85.9778C42.6012 85.9778 42.3177 85.9778 42.2375 85.676C42.1574 85.3743 42.4163 85.2326 42.6567 85.1403C44.6848 84.4013 46.2135 82.9726 47.7053 81.4823C47.9827 81.2052 48.3218 80.6387 48.7163 80.9466C49.1108 81.2545 48.6793 81.7656 48.4327 82.1043C47.3414 83.6083 45.8866 84.8116 44.204 85.6021C43.7843 85.8181 43.3249 85.9459 42.854 85.9778V85.9778Z" fill="#2C3639"/>
<path d="M59.1587 25.2206C58.8751 25.2206 58.382 25.1652 57.8888 25.0974C57.6176 25.0543 57.3032 24.9743 57.3155 24.6233C57.3279 24.2722 57.6546 24.2107 57.932 24.1922C58.8505 24.1183 59.7813 24.1922 60.6875 24.069C61.9935 23.8836 63.2821 23.5912 64.5402 23.1946C64.8015 23.1144 65.0669 23.0486 65.3354 22.9975C65.4215 22.9744 65.513 22.982 65.594 23.0191C65.6751 23.0562 65.7406 23.1205 65.7792 23.2007C65.8779 23.3916 65.7792 23.5333 65.619 23.6441C65.5029 23.7393 65.3743 23.818 65.2368 23.8781C63.3191 24.7214 61.2535 25.1776 59.1587 25.2206V25.2206Z" fill="#2C3639"/>
<path d="M19.7192 25.2268C17.6271 25.1787 15.5653 24.7161 13.6535 23.8659C13.3884 23.7489 13.037 23.6011 13.1357 23.2501C13.2343 22.899 13.6288 22.9976 13.9123 23.0838C16.139 23.8478 18.4808 24.2228 20.835 24.1923C21.1432 24.1923 21.5685 24.1923 21.587 24.6356C21.6055 25.079 21.1863 25.0852 20.8719 25.1283C20.4528 25.1714 20.0459 25.196 19.7192 25.2268Z" fill="#2C3639"/>
<path d="M58.3573 23.7234C58.2575 23.7421 58.1551 23.7421 58.0553 23.7234C57.6854 23.588 57.0566 23.6311 57.0998 23.1076C57.1429 22.5842 57.7162 22.8305 58.0491 22.8059C60.1395 22.624 62.2054 22.2257 64.2135 21.6173C64.3303 21.5748 64.4497 21.5398 64.571 21.5127C64.9162 21.4572 65.3909 21.1185 65.5511 21.6112C65.7114 22.1038 65.1443 22.1593 64.8299 22.3071C62.7848 23.1941 60.5864 23.6752 58.3573 23.7234V23.7234Z" fill="#2C3639"/>
<path d="M20.5759 23.7179C18.3286 23.6673 16.113 23.1778 14.054 22.2769C13.8743 22.1959 13.7012 22.1012 13.5362 21.9936C13.4682 21.9574 13.4143 21.8996 13.383 21.8293C13.3517 21.759 13.3449 21.6803 13.3636 21.6056C13.3907 21.5208 13.4491 21.4494 13.5269 21.4059C13.6047 21.3625 13.6962 21.3502 13.7827 21.3716C13.9543 21.3932 14.1235 21.4303 14.2882 21.4825C16.5607 22.2273 18.9213 22.6704 21.3094 22.8003C21.5375 22.8003 21.7964 22.8003 21.8458 23.0959C21.8951 23.3915 21.6362 23.4407 21.4389 23.5393C21.1744 23.6805 20.8748 23.7425 20.5759 23.7179Z" fill="#2C3639"/>
<path d="M5.09683 14.4252C5.40505 16.7838 6.72422 18.5574 8.4071 20.1215C8.62902 20.3247 8.86944 20.5095 9.07286 20.7373C9.27629 20.9652 9.64614 21.1623 9.43039 21.464C9.21463 21.7658 8.88792 21.464 8.65984 21.31C7.40526 20.5215 6.36883 19.431 5.64547 18.1386C4.75659 16.6506 4.29981 14.9447 4.32628 13.2121C4.32167 13.0054 4.34028 12.7988 4.38176 12.5963C4.41875 12.4361 4.45573 12.2206 4.68381 12.2329C4.91189 12.2452 4.94273 12.4423 4.96738 12.6147C4.94988 13.2126 4.99116 13.8108 5.09066 14.4006L5.09683 14.4252Z" fill="#2C3639"/>
<path d="M41.2202 21.6609C41.474 18.665 42.5798 15.804 44.4072 13.4151C44.5202 13.2837 44.6462 13.1641 44.7832 13.0579C44.8334 12.9999 44.9031 12.9622 44.9792 12.952C45.0553 12.9418 45.1325 12.9598 45.1962 13.0025C45.3688 13.1257 45.3442 13.3042 45.2455 13.4705C45.2002 13.5595 45.1465 13.6441 45.0853 13.723C43.4642 16.0718 42.3804 18.7482 41.9106 21.5623C41.9141 21.6115 41.9141 21.6609 41.9106 21.7101C41.8243 21.9564 41.9106 22.3259 41.5407 22.369C41.3312 22.4306 41.214 22.0673 41.2202 21.6609Z" fill="#2C3639"/>
<path d="M68.4916 10.7305C68.3806 11.1677 68.658 11.8451 68.0477 11.8882C67.4375 11.9313 67.5608 11.2108 67.5423 10.829C67.4267 8.65792 66.4587 6.61995 64.8484 5.15736C64.7724 5.09172 64.7023 5.0196 64.6388 4.94182C64.4847 4.76323 64.2012 4.57849 64.4477 4.326C64.6943 4.07352 64.9162 4.28905 65.1258 4.41837C65.6078 4.73491 66.0346 5.12807 66.3895 5.58227C67.6028 7.04196 68.3368 8.83947 68.4916 10.7305V10.7305Z" fill="#2C3639"/>
<path d="M15.1141 44.9702C15.1141 42.6979 16.7292 40.6041 18.6648 40.2777C19.033 40.2023 19.4156 40.2477 19.7559 40.407C19.8397 40.4361 19.9119 40.4913 19.9619 40.5644C20.0118 40.6376 20.0369 40.725 20.0333 40.8135C20.0227 40.9022 19.9797 40.9839 19.9126 41.0429C19.8455 41.102 19.759 41.1343 19.6696 41.1337C17.2039 41.417 16.3038 43.1597 15.786 45.2658C15.7659 45.364 15.7391 45.4607 15.7059 45.5552C15.6319 45.7277 15.6196 45.9863 15.336 45.9186C15.0525 45.8509 15.1265 45.6661 15.1141 45.4875C15.1018 45.3089 15.1141 45.1427 15.1141 44.9702Z" fill="#2C3639"/>
<path d="M69.3607 8.4399C69.3607 8.62464 69.4039 8.91408 69.1203 8.96951C68.8368 9.02493 68.769 8.74164 68.6703 8.55074C68.2636 7.63885 67.7659 6.77026 67.1847 5.95816C66.5509 5.1533 65.7734 4.47264 64.8916 3.95059C64.7313 3.85206 64.4909 3.75354 64.5957 3.50106C64.7005 3.24857 64.9224 3.3163 65.1196 3.35325C66.9875 3.72274 69.3607 6.58013 69.3607 8.4399Z" fill="#2C3639"/>
<path d="M57.9071 32.457C58.129 32.457 58.3386 32.5001 58.4249 32.7157C58.5112 32.9312 58.3633 33.1036 58.1907 33.2083C56.6066 34.2131 55.1901 35.4599 53.9927 36.9032C53.8756 37.0325 53.74 37.1803 53.5427 37.0941C53.3455 37.0079 53.3825 36.817 53.4133 36.6384C53.666 35.3637 56.3784 32.7341 57.7284 32.494L57.9071 32.457Z" fill="#2C3639"/>
<path d="M27.6033 21.0277C27.5634 21.9731 27.4166 22.911 27.1656 23.8235C27.0018 24.3496 26.7143 24.8289 26.3273 25.2214C26.0376 25.5047 25.7109 26.0281 25.2917 25.6894C24.8725 25.3507 25.4026 24.9935 25.5876 24.6856C26.2435 23.4489 26.6141 22.0812 26.6725 20.6828C26.7218 20.2518 26.5554 19.5312 27.141 19.5312C27.7266 19.5312 27.4492 20.2579 27.5848 20.6582C27.6058 20.7802 27.612 20.9042 27.6033 21.0277V21.0277Z" fill="#2C3639"/>
<path d="M51.2932 20.9847C51.324 20.7199 51.3548 20.4489 51.398 20.1779C51.4411 19.907 51.435 19.4821 51.8172 19.4944C52.1994 19.5067 52.1686 19.9378 52.1994 20.2149C52.2487 21.4086 52.4709 22.5888 52.859 23.7189C53.0298 24.1562 53.2556 24.5701 53.5309 24.9505C53.6912 25.1599 53.9192 25.4247 53.6542 25.671C53.3891 25.9174 53.0932 25.671 52.8713 25.4924C52.3061 25.0052 51.8967 24.3628 51.6939 23.645C51.4886 22.7705 51.3546 21.8808 51.2932 20.9847V20.9847Z" fill="#2C3639"/>
<path d="M20.2305 32C20.6373 32.0743 21.0276 32.2203 21.3832 32.4311C22.7519 33.1629 23.8976 34.2501 24.6997 35.5779C24.8168 35.7503 25.0017 35.9905 24.7921 36.1937C24.5825 36.3969 24.336 36.1937 24.1757 36.0028C23.008 34.806 21.6754 33.7817 20.2182 32.9607C19.9777 32.8314 19.7373 32.6528 19.8175 32.3449C19.8606 32.0801 20.0455 32.0308 20.2305 32Z" fill="#2C3639"/>
<path d="M21.6483 56.3003C21.6175 56.5651 21.6976 56.8176 21.4572 56.9161C21.2168 57.0147 21.0689 56.7437 20.9887 56.5466C20.3291 54.9332 19.6449 53.3382 18.8497 51.7802C18.7264 51.5462 18.5969 51.2445 18.9236 51.0597C19.2504 50.875 19.46 51.0597 19.6387 51.2937C19.8508 51.5403 20.0329 51.8111 20.1812 52.1004C20.8378 53.4363 21.3304 54.8464 21.6483 56.3003Z" fill="#2C3639"/>
<path d="M57.26 56.258C57.6113 54.4939 58.2842 52.8094 59.2449 51.2883C59.4237 51.0358 59.7011 50.8326 60.0155 51.042C60.3299 51.2514 60.1943 51.5408 60.0648 51.781C59.2326 53.3205 58.5854 54.934 57.9073 56.5413C57.8333 56.7198 57.7408 56.9477 57.4943 56.8923C57.2477 56.8368 57.2847 56.5905 57.26 56.258Z" fill="#2C3639"/>
<path d="M38.8656 16.814C39.5437 15.0774 40.1601 13.3038 41.6457 12.0352C41.8923 11.8258 42.2314 11.6288 42.5149 11.9367C42.7985 12.2446 42.5149 12.4971 42.3115 12.7065C41.1971 13.9845 40.258 15.4052 39.519 16.931C39.4142 17.1157 39.3279 17.3867 39.032 17.282C38.7361 17.1773 38.8718 17.0049 38.8656 16.814Z" fill="#2C3639"/>
<path d="M44.9868 28.0528C45.0798 27.5901 45.2203 27.1382 45.406 26.7042C45.5546 26.4496 45.6218 26.1557 45.5987 25.8618C45.5756 25.568 45.4632 25.2882 45.2766 25.06C44.7472 24.2119 44.4046 23.2609 44.2718 22.2703C44.2379 22.0004 44.2379 21.7273 44.2718 21.4574C44.2718 21.285 44.3642 21.0941 44.5862 21.1126C44.6619 21.1215 44.7318 21.1577 44.7829 21.2144C44.8339 21.271 44.8626 21.3443 44.8636 21.4205C45.0652 23.0584 45.6851 24.6171 46.6635 25.9467C46.7314 26.0514 46.8053 26.23 46.6635 26.2793C45.8067 26.6549 46.004 27.5971 45.6033 28.2129C45.4985 28.3792 45.4307 28.6071 45.1779 28.5516C44.9252 28.4962 44.9992 28.2499 44.9868 28.0528Z" fill="#2C3639"/>
<path d="M50.1276 25.7189L49.9242 25.5157C49.0271 24.1556 48.6507 22.5181 48.8639 20.9032C48.8708 20.779 48.8873 20.6555 48.9132 20.5338C49.0118 20.2505 48.9625 19.7702 49.394 19.8133C49.8255 19.8564 49.6961 20.3182 49.6961 20.6015C49.6216 22.2 49.9793 23.789 50.7317 25.2017C50.8365 25.3864 50.9968 25.6204 50.7995 25.8175C50.6022 26.0145 50.3433 25.8175 50.1276 25.7189Z" fill="#2C3639"/>
<path d="M19.4294 22.1105C18.2298 22.0832 17.0411 21.8756 15.9034 21.4946C15.7061 21.4146 15.4041 21.3715 15.4596 21.0759C15.5151 20.7803 15.8233 20.8357 16.0205 20.885C17.822 21.3125 19.6934 21.3566 21.513 21.0143C21.636 21.002 21.7599 21.002 21.8829 21.0143C22.1726 21.0143 22.4993 21.0574 22.4993 21.4207C22.4993 21.7841 22.2219 21.8148 21.963 21.8456L19.4294 22.1105Z" fill="#2C3639"/>
<path d="M59.5716 22.1169C58.7579 22.0307 57.9134 21.9445 57.0751 21.8398C56.773 21.8029 56.4093 21.7474 56.4586 21.3472C56.5079 20.9469 56.8901 20.9838 57.1798 21.0023C57.6284 21.0235 58.0752 21.0728 58.5175 21.1501C59.882 21.3262 61.2672 21.2511 62.6045 20.9284C62.7504 20.8938 62.8988 20.8712 63.0483 20.8607C63.2148 20.8607 63.4244 20.8176 63.4798 21.0454C63.5353 21.2733 63.3566 21.341 63.1901 21.4149C62.6391 21.6521 62.0585 21.8136 61.4641 21.8952C60.8477 21.9876 60.2251 22.043 59.5716 22.1169Z" fill="#2C3639"/>
<path d="M36.2766 39.5816C36.3136 39.908 36.3074 40.0927 36.104 40.1605C35.9005 40.2282 35.7896 40.0681 35.7033 39.9141C35.6251 39.7854 35.5649 39.6466 35.5245 39.5015C35.0868 37.845 34.5382 36.2131 34.2608 34.5196C34.1992 34.1686 34.0944 33.756 34.5629 33.6636C35.0314 33.5712 35.0314 33.9838 35.093 34.2794C35.506 36.0776 35.9067 37.9004 36.2766 39.5816Z" fill="#2C3639"/>
<path d="M69.8537 21.5313C69.4777 21.5313 69.3914 21.3219 69.4901 21.0264C69.6018 20.7769 69.7812 20.5636 70.0079 20.4105C71.299 19.3837 72.3933 18.1319 73.238 16.7156C73.3551 16.5247 73.4661 16.1922 73.7805 16.3462C74.0949 16.5001 73.9037 16.7649 73.8236 16.962C73.0371 18.7739 71.7552 20.3277 70.125 21.4451C70.0382 21.4842 69.9472 21.5132 69.8537 21.5313V21.5313Z" fill="#2C3639"/>
<path d="M39.8582 36.7183C40.1968 34.6113 40.761 32.5467 41.541 30.5601C41.6212 30.3754 41.7383 30.1721 41.9849 30.246C42.2314 30.3199 42.2499 30.6032 42.1883 30.8126C41.6129 32.8653 41.0294 34.9057 40.4376 36.9338C40.3883 37.1001 40.3143 37.291 40.0924 37.2479C39.8705 37.2048 39.889 36.94 39.8582 36.7183Z" fill="#2C3639"/>
<path d="M55.1827 58.0797C55.6389 56.4417 56.0334 54.6373 57.106 53.0855C57.2478 52.8761 57.4389 52.6667 57.7224 52.8207C58.006 52.9746 57.9074 53.2517 57.8088 53.4796C57.0752 55.093 56.3909 56.7188 55.7992 58.4061C55.7375 58.5847 55.6451 58.8187 55.3923 58.751C55.1396 58.6832 55.1827 58.4246 55.1827 58.0797Z" fill="#2C3639"/>
<path d="M23.7443 58.087C23.7443 58.4196 23.7443 58.6597 23.5347 58.7336C23.3251 58.8075 23.1833 58.5735 23.1217 58.3949C22.5422 56.7199 21.8457 55.1003 21.1121 53.4684C21.0135 53.2467 20.9087 52.9696 21.1984 52.8033C21.4881 52.637 21.673 52.8526 21.8148 53.062C22.8689 54.6384 23.2696 56.4428 23.7443 58.087Z" fill="#2C3639"/>
<path d="M25.464 59.6502C25.464 59.9704 25.464 60.1737 25.2853 60.2352C25.1065 60.2968 24.9709 60.1059 24.9154 59.9458C24.675 59.2622 24.4777 58.5664 24.225 57.889C23.8366 56.8359 23.4113 55.7952 22.9921 54.7483C22.8996 54.5205 22.7825 54.2372 23.0784 54.0894C23.3743 53.9416 23.4914 54.2126 23.6147 54.3911C23.8514 54.7121 24.0578 55.0543 24.2312 55.4134C24.8032 56.7738 25.2169 58.1954 25.464 59.6502V59.6502Z" fill="#2C3639"/>
<path d="M53.4443 59.5958C53.8389 57.9208 54.1409 56.0364 55.2567 54.4292C55.3923 54.2383 55.571 53.9612 55.8731 54.1151C56.1752 54.2691 56.0272 54.5215 55.9347 54.7309C55.2258 56.3813 54.6402 58.0809 54.0854 59.7867C54.0238 59.9961 53.956 60.2733 53.6601 60.2178C53.4382 60.1809 53.4505 59.953 53.4443 59.5958Z" fill="#2C3639"/>
<path d="M5.09087 14.4256C5.09087 14.2162 5.05388 14.0007 5.31895 13.9515C5.58402 13.9022 5.67648 14.0869 5.78128 14.2594C6.19429 14.9368 6.59497 15.6203 7.01415 16.2915C7.51744 17.0017 8.07383 17.6728 8.67854 18.2991C8.82648 18.4654 9.12854 18.6624 8.88813 18.9149C8.64772 19.1674 8.41964 18.9149 8.2347 18.7918C7.04709 17.8359 6.10108 16.6145 5.47306 15.2262L5.08472 14.4256H5.09087Z" fill="#2C3639"/>
<path d="M10.6451 6.63517C10.6451 5.45897 12.0568 3.33439 13.1109 2.90948C13.3205 2.82942 13.5609 2.72474 13.7273 2.95259C13.8938 3.18044 13.6842 3.3775 13.5301 3.53146C12.5618 4.47363 11.7926 5.60021 11.2677 6.84455C11.1876 7.02929 11.1013 7.25099 10.8424 7.15246C10.5835 7.05393 10.639 6.83839 10.6451 6.63517Z" fill="#2C3639"/>
<path d="M73.6324 14.4684C73.4845 14.8318 73.318 15.2998 73.1146 15.7493C72.5576 16.9706 71.7113 18.038 70.6489 18.8592C70.4701 18.9947 70.2482 19.1486 70.0324 18.9516C69.8167 18.7545 70.0324 18.5328 70.168 18.385C71.3263 17.1869 72.3118 15.8335 73.0961 14.3637C73.1763 14.2159 73.2687 14.0312 73.4722 14.062C73.6756 14.0928 73.6201 14.2283 73.6324 14.4684Z" fill="#2C3639"/>
<path d="M58.1539 36.1088C58.0245 36.1088 57.8211 36.2567 57.7163 36.0657C57.6115 35.8748 57.8026 35.6962 57.9629 35.5916C58.4044 35.3695 58.7457 34.989 58.9183 34.5262C59.017 34.1937 60.4841 33.8611 60.7676 34.052C61.2731 34.3661 60.9711 34.754 60.6937 34.9511C59.9601 35.493 59.2019 36.0904 58.1539 36.1088Z" fill="#2C3639"/>
<path d="M46.7866 18.3349C47.0024 17.1526 46.9346 15.9086 47.3599 14.7509C47.477 14.4307 47.5017 13.8764 48.0133 14.0304C48.525 14.1843 48.2476 14.6462 48.1674 14.9479C47.8247 16.0892 47.5672 17.2542 47.3969 18.4335C47.3969 18.649 47.3661 19.0493 47.0332 18.9815C46.7003 18.9138 46.8236 18.5813 46.7866 18.3349Z" fill="#2C3639"/>
<path d="M35.025 13.3853C34.9942 12.5601 36.3566 11.0821 37.1703 11.0513C37.2686 11.033 37.3702 11.045 37.4616 11.0857C37.553 11.1264 37.6298 11.1939 37.6819 11.2792C37.7328 11.367 37.7491 11.4707 37.7274 11.5698C37.7057 11.6689 37.6477 11.7564 37.5648 11.815C36.8312 12.4308 36.0298 12.9296 35.6477 13.8533C35.633 13.8815 35.6126 13.9064 35.5878 13.9263C35.5629 13.9462 35.5342 13.9606 35.5034 13.9687C35.4726 13.9768 35.4405 13.9785 35.4091 13.9734C35.3777 13.9684 35.3476 13.9568 35.3209 13.9395C35.2264 13.8822 35.149 13.8005 35.0969 13.7029C35.0449 13.6054 35.02 13.4957 35.025 13.3853Z" fill="#2C3639"/>
<path d="M36.9486 14.5857C37.355 13.3393 37.9563 12.165 38.7301 11.1063C38.8718 10.9339 39.0568 10.743 39.3033 10.8908C39.5499 11.0386 39.4883 11.3157 39.365 11.5436C38.7486 12.652 38.1321 13.7544 37.5157 14.8567C37.4355 15.0045 37.3184 15.1769 37.115 15.1276C36.9116 15.0784 36.8993 14.869 36.9486 14.5857Z" fill="#2C3639"/>
<path d="M20.7486 36.1137C19.7006 36.1137 18.9424 35.4486 18.1472 34.919C18.0272 34.8448 17.9397 34.7281 17.902 34.5923C17.8643 34.4565 17.8792 34.3115 17.9438 34.1862C18.0917 33.909 18.3876 33.9645 18.6095 34.0507C19.1828 34.2724 19.9102 34.2108 20.1568 35.0237C20.2307 35.2639 20.6684 35.3808 20.9273 35.5718C21.0814 35.6826 21.3033 35.8058 21.2047 36.0398C21.1061 36.2738 20.9088 36.1137 20.7486 36.1137Z" fill="#2C3639"/>
<path d="M37.7682 85.4545C37.5154 85.2882 37.2319 85.1158 37.386 84.7524C37.5401 84.3891 37.8483 84.4076 38.1504 84.4445C38.8408 84.5369 39.5312 84.6231 40.2093 84.7586C40.4435 84.8079 40.8257 84.8017 40.8257 85.1835C40.8257 85.5653 40.4435 85.5222 40.2093 85.5838C39.4458 85.6753 38.6729 85.6524 37.9161 85.516L37.7682 85.4545Z" fill="#2C3639"/>
<path d="M44.4137 12.5787C44.36 12.697 44.2961 12.8103 44.2227 12.9174C43.5692 13.7672 42.9158 14.6232 42.2562 15.4669C42.1083 15.6516 41.9542 15.978 41.6829 15.8302C41.4117 15.6824 41.5843 15.3191 41.6829 15.1036C42.1759 14.0936 42.8296 13.1702 43.6185 12.3693C43.6889 12.278 43.7881 12.2131 43.9 12.1852C44.0118 12.1572 44.1299 12.1679 44.235 12.2154C44.3768 12.2954 44.4199 12.4124 44.4137 12.5787Z" fill="#2C3639"/>
<path d="M34.6615 54.0972C34.6615 54.3066 34.6615 54.6638 34.3472 54.713C34.0328 54.7623 33.9218 54.4174 33.8602 54.1649C33.7122 53.5122 33.5704 52.8533 33.478 52.1882C33.4287 51.8495 33.4472 51.4122 33.8848 51.3383C34.3225 51.2644 34.4396 51.7017 34.5013 52.0342C34.5752 52.6993 34.606 53.3705 34.6615 54.0972Z" fill="#2C3639"/>
<path d="M49.1599 17.3692C49.1997 16.6015 49.3534 15.844 49.6161 15.1215C49.7517 14.8259 49.9428 14.5057 50.3435 14.6658C50.7441 14.8259 50.5469 15.1769 50.4544 15.4479C50.1994 16.2266 49.9935 17.0205 49.838 17.8249C49.7887 18.0528 49.801 18.4407 49.4065 18.3915C49.1044 18.336 49.2154 17.985 49.1907 17.7757C49.1711 17.641 49.1608 17.5052 49.1599 17.3692V17.3692Z" fill="#2C3639"/>
<path d="M31.3944 19.3511C31.5602 17.9329 31.8405 16.5304 32.2327 15.1574C32.2943 14.9419 32.356 14.5847 32.6827 14.6771C33.0094 14.7694 32.8676 15.0835 32.8183 15.2929C32.5471 16.5574 32.2718 17.8198 31.9923 19.0801C31.9729 19.1792 31.944 19.2761 31.906 19.3696C31.832 19.5358 31.8259 19.813 31.5485 19.7452C31.2711 19.6775 31.4129 19.4619 31.3944 19.3511Z" fill="#2C3639"/>
<path d="M29.7484 17.3436V17.5714C29.6929 17.867 29.9086 18.3535 29.4833 18.3905C29.0579 18.4274 29.1319 17.9224 29.0579 17.6269C28.9075 16.8697 28.7015 16.1245 28.4415 15.3976C28.3305 15.1143 28.2134 14.7818 28.608 14.6401C29.0025 14.4985 29.1504 14.8187 29.2799 15.0958C29.5494 15.817 29.7073 16.5749 29.7484 17.3436V17.3436Z" fill="#2C3639"/>
<path d="M18.8991 53.5362C18.8991 53.7025 18.899 53.8626 18.7079 53.918C18.6344 53.9358 18.5569 53.927 18.4892 53.8932C18.4215 53.8594 18.368 53.8027 18.3381 53.7333C17.845 52.8921 17.5361 51.956 17.4319 50.9867C17.4232 50.9366 17.425 50.8852 17.4374 50.8359C17.4498 50.7866 17.4724 50.7404 17.5038 50.7003C17.5352 50.6603 17.5746 50.6273 17.6196 50.6034C17.6645 50.5795 17.714 50.5654 17.7648 50.5618C17.8792 50.5441 17.996 50.5724 18.0896 50.6405C18.1832 50.7086 18.2459 50.8109 18.2641 50.9251C18.4922 51.7934 18.6895 52.6679 18.8991 53.5362Z" fill="#2C3639"/>
<path d="M42.3361 84.8325C42.0403 84.8325 41.806 84.8325 41.7197 84.6292C41.6334 84.426 41.8738 84.2351 42.0772 84.1489C42.9957 83.7609 43.9266 83.3853 44.8389 83.0096C45.0053 82.9419 45.1902 82.8619 45.3012 83.0651C45.4122 83.2683 45.2642 83.4038 45.1286 83.5146C44.3068 84.1548 43.3531 84.6049 42.3361 84.8325Z" fill="#2C3639"/>
<path d="M61.4825 51.1654C61.3265 52.0075 61.0547 52.824 60.6749 53.5917C60.5825 53.7642 60.4592 53.9797 60.2249 53.8996C59.9907 53.8196 60.0461 53.5794 60.0893 53.3885C60.2557 52.588 60.4283 51.7874 60.6194 50.993C60.6811 50.7467 60.8352 50.5188 61.1434 50.5619C61.4516 50.605 61.5009 50.8575 61.4825 51.1654Z" fill="#2C3639"/>
<path d="M64.5217 17.2146C64.1765 17.1653 64.1025 16.9251 64.3306 16.6542C64.9039 15.9768 65.6621 15.4718 66.2231 14.7698C66.4203 14.5234 66.6915 14.6405 66.7409 14.9853C66.8272 15.6566 65.2614 17.2454 64.5217 17.2146Z" fill="#2C3639"/>
<path d="M41.8057 27.7459C41.8057 27.9737 41.8057 28.103 41.6824 28.1584C41.6472 28.1722 41.6096 28.1789 41.5719 28.1779C41.5341 28.177 41.4969 28.1686 41.4624 28.1531C41.428 28.1376 41.397 28.1154 41.3712 28.0877C41.3455 28.0601 41.3255 28.0276 41.3125 27.9922C40.8391 27.0595 40.675 26.0005 40.844 24.9685C40.8517 24.8923 40.8875 24.8217 40.9445 24.7704C41.0015 24.7192 41.0756 24.691 41.1522 24.6914C41.3988 24.6914 41.4605 24.9254 41.4913 25.1225C41.5407 26.0027 41.6457 26.8789 41.8057 27.7459V27.7459Z" fill="#2C3639"/>
<path d="M37.8668 85.5156L38.4278 85.7127C38.6558 85.7927 38.9764 85.8235 38.9024 86.1622C38.8284 86.5009 38.5757 86.4332 38.3476 86.427C37.6243 86.409 36.9101 86.2609 36.2394 85.9898C36.036 85.9097 35.8079 85.7804 35.888 85.5033C35.9682 85.2262 36.2271 85.2323 36.449 85.257C36.8866 85.3062 37.3305 85.3863 37.7682 85.454L37.8668 85.5156Z" fill="#2C3639"/>
<path d="M45.4369 52.231C45.3013 52.8468 45.1719 53.5119 45.0177 54.1585C44.9684 54.3494 44.8636 54.5588 44.6109 54.5033C44.3582 54.4479 44.3828 54.2693 44.3705 54.0908C44.342 53.3976 44.4295 52.7045 44.6294 52.0401C44.6972 51.7876 44.7588 51.4243 45.1164 51.5167C45.4739 51.609 45.3999 51.9354 45.4369 52.231Z" fill="#2C3639"/>
<path d="M51.6074 17.0495C51.6374 16.5476 51.72 16.0501 51.854 15.5654C51.9588 15.3129 52.1191 15.122 52.415 15.2021C52.7108 15.2821 52.7232 15.5284 52.6862 15.7501C52.5937 16.366 52.4951 16.9202 52.3656 17.4991C52.3163 17.7207 52.2793 18.0471 51.9403 18.004C51.6012 17.9609 51.6814 17.6776 51.6382 17.4683C51.62 17.3294 51.6097 17.1896 51.6074 17.0495V17.0495Z" fill="#2C3639"/>
<path d="M27.3135 17.0297C27.303 17.2175 27.2824 17.4045 27.2519 17.5901C27.2087 17.781 27.1841 18.0088 26.919 18.015C26.654 18.0212 26.6355 17.8179 26.5985 17.6578C26.4629 17.042 26.3334 16.4262 26.2286 15.7673C26.1855 15.5148 26.2286 15.2438 26.5492 15.1946C26.8697 15.1453 27.0176 15.3608 27.0731 15.6133C27.1841 16.1183 27.2519 16.6294 27.3135 17.0297Z" fill="#2C3639"/>
<path d="M72.7325 26.4761C72.5969 25.5462 72.4797 22.9782 72.301 22.9844C72.1222 22.9905 71.9188 25.3245 71.6845 27.0488C71.3886 28.9763 71.2592 30.4234 68.3743 30.485C67.9243 30.485 68.1523 30.8976 68.3311 30.8976C71.8386 30.9777 71.4935 32.4187 71.7585 34.2354C71.9441 35.5361 72.0634 36.8453 72.116 38.1581C72.2587 38.2018 72.4111 38.2018 72.5537 38.1581C72.5537 38.1581 72.8373 33.909 73.0777 32.4556C73.2811 31.2671 74.7359 31.0454 75.9195 30.8237C75.9811 30.8237 76.0489 30.4789 75.8147 30.4542C73.3674 30.1771 73.1763 29.6598 72.7325 26.4761Z" fill="#2C3639"/>
<path d="M6.41622 27.2046C6.28677 26.2809 6.16965 23.7129 5.99088 23.7129C5.81211 23.7129 5.60252 26.0592 5.33746 27.7773C5.04157 29.7048 4.91827 31.1519 2.03334 31.2197C1.57718 31.2197 1.81142 31.6261 1.99019 31.6323C5.49772 31.7062 5.15252 33.1472 5.41143 34.9639C5.59669 36.2646 5.71601 37.5738 5.76895 38.8866C5.91364 38.9305 6.0681 38.9305 6.21279 38.8866C6.21279 38.8866 6.49019 34.6436 6.73676 33.1903C6.94019 32.0018 8.39498 31.7739 9.57238 31.5522C9.63402 31.5522 9.70799 31.2135 9.47375 31.1827C7.05115 30.9056 6.86622 30.3883 6.41622 27.2046Z" fill="#2C3639"/>
<path d="M78.6443 36.1318C78.5518 35.4544 78.4655 33.5762 78.3361 33.5762C78.2066 33.5762 78.0463 35.2943 77.8552 36.5506C77.6395 37.9608 77.547 39.0138 75.4326 39.0692C75.0998 39.0692 75.2724 39.371 75.4018 39.371C77.9723 39.4264 77.7196 40.4856 77.9107 41.8343C78.0459 42.7858 78.1323 43.7436 78.1696 44.704C78.2759 44.7375 78.39 44.7375 78.4963 44.704C78.4963 44.704 78.6998 41.5941 78.8785 40.5349C79.0265 39.6604 80.1114 39.5003 80.9559 39.3341C80.9991 39.3341 81.0545 39.0877 80.8819 39.0631C79.1128 38.8414 78.971 38.4411 78.6443 36.1318Z" fill="#2C3639"/>
<path d="M3.40192 45.2588C3.30946 44.5814 3.22315 42.697 3.08753 42.7031C2.95192 42.7093 2.80398 44.4151 2.61288 45.6775C2.39713 47.0877 2.30467 48.1408 0.190288 48.1962C-0.142588 48.1962 0.0300147 48.498 0.190288 48.498C2.76083 48.5534 2.50808 49.6064 2.69918 50.9612C2.83438 51.9127 2.92081 52.8706 2.95809 53.8309C3.0644 53.8645 3.17848 53.8645 3.2848 53.8309C3.2848 53.8309 3.48822 50.7518 3.66699 49.6557C3.81493 48.7874 4.89986 48.6211 5.74438 48.461C5.78753 48.461 5.84301 48.2085 5.67041 48.19C3.85808 47.9683 3.71631 47.5866 3.40192 45.2588Z" fill="#2C3639"/>
</svg>
