<svg width="108" height="85" viewBox="0 0 108 85" fill="none" xmlns="http://www.w3.org/2000/svg">
<path d="M69.2792 39.9C69.054 39.8048 68.8195 39.7331 68.5794 39.686C65.8295 39.0745 63.5277 40.0162 61.5451 41.8444C60.7101 42.606 60.1259 43.6015 59.8694 44.7C59.808 44.9629 59.7528 45.3114 60.0535 45.4582C60.3543 45.6049 60.563 45.3542 60.741 45.1402C60.8483 45.0018 60.9467 44.8568 61.0356 44.7061C61.7381 43.5227 62.751 42.5524 63.9655 41.8996C65.1801 41.2467 66.5503 40.9359 67.9288 41.0006C68.4444 41.0006 68.7575 41.0557 69.0766 41.0434C69.3958 41.0312 69.936 41.2208 70.0158 40.6643C70.0772 40.2241 69.6352 40.0651 69.2792 39.9Z" fill="#2C3639"/>
<path d="M44.2353 42.0343C45.4736 42.772 46.5008 43.8142 47.2185 45.061C47.3903 45.3178 47.5745 45.6725 47.9489 45.5135C48.3234 45.3545 48.219 44.9815 48.1515 44.6819C48.0814 44.3755 47.9763 44.078 47.8384 43.7953C46.5556 41.166 44.3028 39.9309 41.51 39.5151C40.5311 39.3877 39.5359 39.536 38.6373 39.9431C38.3181 40.0898 37.9621 40.2916 38.0603 40.7135C38.1585 41.1354 38.5452 41.0376 38.8521 41.0437C39.159 41.0498 39.6194 41.0437 40.0061 41.0437C41.4838 40.9428 42.9576 41.288 44.2353 42.0343Z" fill="#2C3639"/>
<path d="M54.0566 24.2339C53.4428 24.2034 53.277 24.6375 53.1788 25.09C53.0301 25.6253 52.9618 26.1796 52.9763 26.7348C53.0438 27.4747 52.8781 28.5692 54.0136 28.5692C55.1492 28.5692 54.8975 27.4625 55.0755 26.7776C55.0019 26.1662 54.9528 25.622 54.8484 25.0839C54.7563 24.6558 54.5661 24.2584 54.0566 24.2339Z" fill="#2C3639"/>
<path d="M46.8619 27.9646C46.9908 28.5271 47.1504 29.2731 47.9177 29.1508C48.685 29.0285 48.464 28.2886 48.5315 27.7567C48.5315 27.6221 48.5315 27.4815 48.5315 27.3409H48.5868C48.507 26.7905 48.4517 26.2402 48.3535 25.696C48.2553 25.1518 48.0896 24.4731 47.3775 24.5465C46.6655 24.6199 46.5611 25.3169 46.598 25.91C46.6276 26.6011 46.716 27.2884 46.8619 27.9646V27.9646Z" fill="#2C3639"/>
<path d="M60.1023 29.1931C60.2789 29.216 60.458 29.1749 60.6067 29.0772C60.7554 28.9796 60.864 28.8319 60.9125 28.6612C61.2072 27.9368 61.3754 27.1675 61.4097 26.3865C61.4097 26.0136 61.4097 25.7751 61.4097 25.5917C61.4097 25.1208 61.2808 24.6439 60.7345 24.5461C60.1882 24.4482 59.8384 24.9252 59.7524 25.4143C59.4809 26.4243 59.41 27.4774 59.5437 28.5144C59.6174 28.8263 59.7278 29.1381 60.1023 29.1931Z" fill="#2C3639"/>
<path d="M51.079 32.8007C51.6559 32.6723 51.5946 32.0547 51.6498 31.6878C51.5639 30.7462 51.5332 29.9146 51.4043 29.0891C51.3306 28.6061 51.0912 28.1047 50.459 28.1841C49.8268 28.2636 49.7961 28.7467 49.7654 29.2053C49.7467 30.112 49.8816 31.0153 50.1643 31.8774C50.281 32.336 50.4344 32.9474 51.079 32.8007Z" fill="#2C3639"/>
<path d="M56.9408 32.8138C57.4257 32.9238 57.6467 32.5447 57.7572 32.2023C58.0955 31.2191 58.2576 30.1842 58.2359 29.145C58.2359 28.717 58.0824 28.289 57.5668 28.2156C57.0512 28.1422 56.7873 28.5519 56.64 29.0105C56.4923 29.5853 56.4323 30.1789 56.462 30.7715C56.462 31.3218 56.462 31.6703 56.462 31.9944C56.462 32.3185 56.5111 32.7159 56.9408 32.8138Z" fill="#2C3639"/>
<path d="M47.5991 33.0646C46.8748 33.1319 46.795 33.7739 46.8625 34.3487C46.9544 35.1071 47.0959 35.8588 47.286 36.5988C47.4026 37.0513 47.55 37.6689 48.1883 37.5405C48.8267 37.4121 48.5689 36.8067 48.661 36.5132C48.6242 35.6633 48.618 34.9357 48.5444 34.208C48.483 33.6455 48.3295 33.0035 47.5991 33.0646Z" fill="#2C3639"/>
<path d="M54.0006 34.4648C53.0676 34.4648 52.8896 35.0763 52.9572 35.7978C53.0491 36.4502 53.1928 37.0942 53.3868 37.7239C53.4192 37.8607 53.498 37.9822 53.6098 38.068C53.7216 38.1538 53.8596 38.1985 54.0006 38.1948C54.1425 38.1982 54.2812 38.1526 54.3931 38.0656C54.5051 37.9787 54.5833 37.8558 54.6144 37.7178C54.7986 37.1064 54.9398 36.4399 55.0503 35.9874C55.0748 35.058 54.9275 34.4648 54.0006 34.4648Z" fill="#2C3639"/>
<path d="M59.4395 37.0639C59.4402 37.1788 59.4801 37.2901 59.5527 37.3795C59.6252 37.4689 59.7261 37.5312 59.8387 37.556C59.9514 37.5809 60.0692 37.5669 60.1728 37.5164C60.2765 37.4659 60.3598 37.3818 60.4093 37.2779C60.9818 36.145 61.1959 34.8657 61.0231 33.6091C61.001 33.4492 60.9219 33.3024 60.8002 33.1958C60.6785 33.0891 60.5223 33.0297 60.3602 33.0282C60.1829 33.0197 60.008 33.0721 59.865 33.1768C59.7219 33.2815 59.6194 33.432 59.5745 33.603C59.3887 34.2418 59.3303 34.9107 59.4026 35.5719C59.4333 36.0856 59.4272 36.5747 59.4395 37.0639Z" fill="#2C3639"/>
<path d="M41.4789 31.5359C42.1295 31.4442 41.9515 30.796 42.0067 30.3619C41.9269 29.6098 41.8778 28.8761 41.7612 28.1545C41.6814 27.6837 41.4605 27.2557 40.8773 27.3046C40.2942 27.3535 40.1469 27.8121 40.1223 28.2829C40.1312 29.088 40.298 29.8835 40.6134 30.6248C40.7668 31.0529 40.9448 31.6093 41.4789 31.5359Z" fill="#2C3639"/>
<path d="M66.443 31.5285C66.7561 31.663 66.9894 31.4185 67.1183 31.1739C67.6476 30.2666 67.9013 29.2258 67.8487 28.1777C67.818 27.7436 67.64 27.34 67.1183 27.3033C66.5965 27.2666 66.3632 27.6335 66.2896 28.0676C66.1607 28.8564 66.0809 29.6513 65.9827 30.4034C66.0563 30.8437 65.9643 31.339 66.443 31.5285Z" fill="#2C3639"/>
<path d="M63.1221 31.3388C63.65 31.4856 63.8464 30.9842 63.9753 30.6051C64.227 29.8469 64.4295 29.0703 64.6198 28.2938C64.7364 27.7985 64.6198 27.3643 64.049 27.242C63.4781 27.1198 63.2817 27.4989 63.1282 27.9147C62.8837 28.722 62.7354 29.5553 62.6863 30.3972C62.7538 30.6357 62.6495 31.1737 63.1221 31.3388Z" fill="#2C3639"/>
<path d="M44.0327 30.5563C44.1739 30.9416 44.3397 31.4368 44.8614 31.3145C45.3832 31.1923 45.2911 30.7031 45.3525 30.2628C45.2766 29.432 45.1099 28.6118 44.8553 27.817C44.6834 27.4134 44.4194 27.071 43.91 27.2055C43.4005 27.34 43.3882 27.7314 43.4189 28.1288C43.5137 28.9617 43.7202 29.7781 44.0327 30.5563V30.5563Z" fill="#2C3639"/>
<path d="M44.0447 34.085C43.9479 34.0983 43.8547 34.1309 43.7709 34.181C43.6871 34.2311 43.6143 34.2976 43.557 34.3764C43.4996 34.4553 43.4589 34.5448 43.4372 34.6398C43.4156 34.7347 43.4134 34.833 43.4309 34.9288C43.4384 35.8122 43.731 36.6698 44.2656 37.3747C44.3469 37.5127 44.476 37.6163 44.6287 37.6658C44.7814 37.7154 44.9471 37.7075 45.0943 37.6437C45.4012 37.5031 45.4012 37.2096 45.4073 36.7387C45.2784 36.164 45.1373 35.4119 44.9347 34.672C44.9173 34.5741 44.88 34.4807 44.8253 34.3976C44.7705 34.3144 44.6993 34.2432 44.6161 34.1883C44.5328 34.1334 44.4393 34.096 44.341 34.0782C44.2428 34.0604 44.142 34.0628 44.0447 34.085V34.085Z" fill="#2C3639"/>
<path d="M62.9381 37.6443C63.3309 37.8033 63.6194 37.5587 63.8281 37.2652C64.2416 36.6219 64.4981 35.891 64.577 35.1312C64.577 34.5992 64.4972 34.2201 64.0368 34.1039C63.9334 34.0729 63.8244 34.0645 63.7173 34.0794C63.6103 34.0943 63.5078 34.1321 63.4168 34.1902C63.3259 34.2483 63.2486 34.3253 63.1903 34.416C63.1321 34.5066 63.0942 34.6088 63.0793 34.7154C62.8874 35.4204 62.7317 36.1347 62.6128 36.8555C62.5575 37.1551 62.5882 37.5037 62.9381 37.6443Z" fill="#2C3639"/>
<path d="M39.0179 33.2851C39.2757 33.1506 39.2818 32.8938 39.2757 32.4168C39.1283 31.8543 38.9503 31.0716 38.7232 30.3073C38.7037 30.2202 38.667 30.1379 38.6152 30.0651C38.5635 29.9923 38.4977 29.9305 38.4217 29.8832C38.3457 29.836 38.2611 29.8043 38.1727 29.79C38.0843 29.7757 37.9939 29.779 37.9068 29.7998C37.7296 29.827 37.5701 29.9222 37.4623 30.065C37.3545 30.2078 37.3069 30.3869 37.3299 30.5641C37.361 31.4785 37.6932 32.3572 38.2751 33.065C38.3484 33.188 38.4656 33.279 38.6033 33.3198C38.7409 33.3606 38.889 33.3482 39.0179 33.2851V33.2851Z" fill="#2C3639"/>
<path d="M69.0149 33.2973C69.1464 33.3457 69.2905 33.3479 69.4234 33.3034C69.5563 33.2589 69.6699 33.1704 69.7453 33.0527C70.3275 32.3492 70.6522 31.4695 70.6661 30.5579C70.679 30.4681 70.673 30.3766 70.6485 30.2893C70.624 30.2019 70.5816 30.1206 70.5238 30.0504C70.4661 29.9803 70.3944 29.9228 70.3132 29.8818C70.232 29.8407 70.1431 29.8169 70.0522 29.8119C69.8767 29.7772 69.6944 29.8121 69.5443 29.9092C69.3941 30.0062 69.2879 30.1578 69.2481 30.3317C69.0272 31.1021 68.8614 31.8848 68.7141 32.4595C68.7325 32.9181 68.7509 33.175 69.0149 33.2973Z" fill="#2C3639"/>
<path d="M56.4066 40.7555C56.7749 40.8411 57.0204 40.572 57.1309 40.2846C57.529 39.4646 57.6661 38.5429 57.5238 37.6431C57.4562 37.2885 57.2782 36.9705 56.8363 36.9828C56.3943 36.995 56.2838 37.264 56.2225 37.5942C56.1304 38.1017 56.0751 38.6215 56.0444 38.8538C56.0444 39.4653 56.0444 39.7649 56.0444 40.0768C56.0444 40.3886 56.069 40.676 56.4066 40.7555Z" fill="#2C3639"/>
<path d="M51.8217 37.6692C51.7603 37.3146 51.5823 36.9844 51.1527 36.9844C50.723 36.9844 50.5388 37.3635 50.4591 37.7609C50.3842 38.5235 50.485 39.2931 50.7537 40.0111C50.8703 40.378 51.0544 40.7938 51.5087 40.7571C51.9629 40.7204 51.9138 40.2068 51.9445 39.846C51.9568 39.6036 51.9568 39.3608 51.9445 39.1184C51.9322 38.6353 51.9015 38.1461 51.8217 37.6692Z" fill="#2C3639"/>
<path d="M53.9398 41.3072C53.0007 41.3867 53.1541 42.2733 53.24 42.9765C53.2342 43.0088 53.2342 43.042 53.24 43.0743C53.3751 43.6552 53.0498 44.6458 54.0441 44.5663C55.0385 44.4868 54.658 43.484 54.8667 42.8481C54.7194 42.2305 54.9649 41.2277 53.9398 41.3072Z" fill="#2C3639"/>
<path d="M51.7725 45.0973C51.7296 44.7488 51.6989 44.2963 51.6068 43.8744C51.5147 43.4525 51.3244 43.2018 50.8947 43.2262C50.4651 43.2507 50.2503 43.6298 50.238 44.0334C50.2345 44.4442 50.2757 44.8543 50.3607 45.2563C50.4712 45.8678 50.4835 46.8461 51.2937 46.7666C52.104 46.6871 51.6927 45.7699 51.7725 45.0973Z" fill="#2C3639"/>
<path d="M57.4384 46.1311C57.6844 45.4472 57.799 44.7233 57.776 43.9971C57.776 43.5936 57.5734 43.2328 57.1008 43.2084C56.6281 43.1839 56.487 43.5019 56.4072 43.8565C56.3089 44.3334 56.2721 44.8165 56.2046 45.2934H56.2476C56.2476 45.5013 56.2476 45.7092 56.2476 45.9049C56.2476 46.2412 56.1923 46.6692 56.6343 46.7609C57.0762 46.8527 57.3095 46.5041 57.4384 46.1311Z" fill="#2C3639"/>
<path d="M59.0589 58.7398C59.0589 59.3512 59.0589 59.9933 59.0589 60.617C59.0589 60.831 59.1264 61.0511 59.3658 61.1061C59.4722 61.1202 59.5799 61.0923 59.6659 61.0283C59.752 60.9643 59.8095 60.8694 59.8262 60.7637C60.1816 59.4809 60.1517 58.1225 59.7402 56.8565C59.7335 56.8041 59.7163 56.7535 59.6897 56.7078C59.6631 56.6621 59.6276 56.6222 59.5853 56.5903C59.543 56.5584 59.4947 56.5352 59.4433 56.5222C59.3919 56.5091 59.3385 56.5063 59.286 56.5141C58.9668 56.5569 58.93 56.8198 58.9361 57.0644C58.9361 57.6208 58.9791 58.1772 59.0098 58.7398H59.0589Z" fill="#2C3639"/>
<path d="M48.2619 56.8377C47.8606 58.1038 47.835 59.4585 48.1883 60.7388C48.2497 60.9406 48.3847 61.1423 48.6363 61.0995C48.888 61.0567 48.9556 60.8366 48.9617 60.6226C48.9617 60.0112 48.9617 59.4364 48.9617 59.0083C49.0047 58.2563 49.0538 57.6631 49.0722 57.07C49.0722 56.8316 49.0722 56.5625 48.7223 56.5075C48.6703 56.4987 48.617 56.5004 48.5657 56.5123C48.5143 56.5242 48.4658 56.5462 48.4229 56.5769C48.3801 56.6076 48.3438 56.6464 48.3162 56.6912C48.2886 56.736 48.2701 56.7858 48.2619 56.8377V56.8377Z" fill="#2C3639"/>
<path d="M67.4127 33.504C67.3211 33.4702 67.2233 33.456 67.1257 33.4625C67.0282 33.4689 66.9331 33.4958 66.8468 33.5414C66.7604 33.587 66.6847 33.6503 66.6246 33.7271C66.5646 33.8039 66.5214 33.8925 66.4981 33.987C66.2833 34.5679 66.1421 35.21 66.0132 35.6319C66.0132 36.1149 66.0132 36.4635 66.3876 36.5919C66.7621 36.7203 67.0014 36.4635 67.161 36.2005C67.5172 35.6441 67.7515 35.019 67.8485 34.3662C67.8772 34.2811 67.8888 34.1911 67.8824 34.1016C67.876 34.012 67.8518 33.9246 67.8113 33.8444C67.7708 33.7642 67.7146 33.6929 67.6462 33.6344C67.5778 33.576 67.4984 33.5317 67.4127 33.504V33.504Z" fill="#2C3639"/>
<path d="M40.6561 33.4859C40.4845 33.5333 40.338 33.6452 40.2476 33.798C40.1571 33.9509 40.1298 34.1327 40.1712 34.3053C40.2503 35.0005 40.4944 35.667 40.8832 36.2497C40.9397 36.3797 41.0398 36.4861 41.1663 36.5508C41.2928 36.6155 41.4379 36.6344 41.5769 36.6043C41.9574 36.5065 41.9943 36.1824 42.0004 35.6871C41.8654 35.2102 41.7119 34.5621 41.491 33.9445C41.4685 33.8585 41.4286 33.778 41.3739 33.7078C41.3191 33.6377 41.2506 33.5793 41.1725 33.5364C41.0944 33.4935 41.0083 33.4669 40.9196 33.4582C40.8308 33.4495 40.7411 33.459 40.6561 33.4859Z" fill="#2C3639"/>
<path d="M107.962 26.8944C107.962 20.7798 107.176 17.2211 104.604 12.3416L104.396 11.9808C104.358 11.8235 104.277 11.6797 104.162 11.5651C102.706 9.12588 100.837 6.95587 98.6379 5.15085C97.1196 3.80257 95.3823 2.72119 93.5002 1.9529C88.5143 0.0270175 83.0906 -0.487228 77.8294 0.467058C71.647 1.47382 66.0953 4.82402 62.3366 9.81627C60.8236 11.7875 59.5848 13.9533 58.6537 16.255C58.4266 16.8053 58.2363 17.3006 57.4261 17.2822C55.1243 17.2211 52.8224 17.2394 50.5206 17.2822C50.2795 17.3075 50.0374 17.2436 49.8404 17.1027C49.6435 16.9618 49.5055 16.7536 49.4526 16.5179C47.1769 10.4481 42.6821 5.45944 36.8693 2.55214C32.1455 0.361187 26.892 -0.440681 21.7264 0.240821C16.3739 0.852281 11.6781 2.68666 7.86018 6.61835C6.41458 8.10117 5.12311 9.72572 4.00542 11.4672C3.8024 11.615 3.66225 11.8331 3.61256 12.0787C2.82111 13.4118 2.16713 14.8212 1.66062 16.2855C0.389234 20.1691 -0.159934 24.2513 0.0401316 28.3313C0.114446 31.3366 0.932533 34.2771 2.42175 36.8917C3.23199 38.3226 4.23251 39.6372 5.97575 40.1142C8.50469 40.799 9.85508 39.57 9.49907 37.0202C9.35789 36.0235 8.71339 35.3264 8.40034 34.4459C7.64064 32.0747 7.49495 29.5507 7.97681 27.1084C8.48628 23.8065 9.57888 20.7003 11.9728 18.2972C16.2695 14.017 21.4624 12.7941 27.3183 14.1393C32.5357 15.3622 35.6171 19.2817 38.7169 23.1767C38.7707 23.2317 38.8126 23.2972 38.8401 23.369C38.8675 23.4409 38.8799 23.5175 38.8764 23.5943C38.873 23.6711 38.8538 23.7463 38.82 23.8154C38.7862 23.8845 38.7386 23.946 38.68 23.996C37.7102 25.219 37.5752 25.219 36.7343 23.9533C36.4212 23.4885 36.1204 23.0238 35.8012 22.5652C34.0457 19.991 31.8298 18.0771 28.6502 17.4962C26.9727 17.1501 25.2624 16.9861 23.5494 17.0071C21.8982 17.056 21.5484 17.3923 21.7693 19.0126C22.021 20.847 22.2481 22.6814 22.6164 24.473C23.31 27.8116 24.8998 30.5265 28.2451 31.8839C29.685 32.422 31.1702 32.8313 32.683 33.1068C33.125 33.2047 33.6897 33.2475 33.7388 33.9262C33.7879 34.6049 33.9414 35.3081 33.9475 35.999C33.9813 38.8805 34.2565 41.7541 34.77 44.59C33.7542 48.8799 33.3614 53.2927 33.6038 57.6936C33.682 59.194 33.8874 60.6852 34.2176 62.1512C34.3403 62.6342 34.5061 63.1173 35.0953 63.209C35.6846 63.3007 35.9854 62.9216 36.2739 62.4997C36.4519 62.2368 36.5133 61.8883 36.9245 61.6498C36.9377 63.3268 37.1437 64.9968 37.5384 66.6271C38.1275 69.0059 39.0534 71.2892 40.2883 73.4082C40.5583 73.879 40.9021 74.307 41.5159 74.197C42.1297 74.0869 42.2647 73.5488 42.3936 73.0291C42.4857 72.6683 42.3568 72.2647 42.6453 71.8795C43.1118 72.864 43.5354 73.8056 44.008 74.7289C46.052 78.7218 49.2439 81.6873 52.7488 84.3778C53.8414 85.2155 54.2281 85.2094 55.3514 84.3472C59.7095 80.9903 63.4783 77.1503 65.4978 71.8061C65.5408 72.1486 65.5592 72.5032 65.6267 72.8395C65.7433 73.4143 65.774 74.0991 66.5413 74.197C67.3086 74.2948 67.5725 73.72 67.8671 73.1942C69.2815 70.7713 70.2658 68.1236 70.7766 65.3675C70.9792 64.1446 71.0713 62.9216 71.2186 61.6559C71.8324 62.2674 71.9122 63.4169 72.9618 63.1846C74.0115 62.9522 73.901 61.821 74.0422 61.0078C74.6454 57.3122 74.7034 53.5486 74.214 49.8364C73.9992 48.1243 73.6002 46.4244 73.281 44.7246C73.7327 42.0124 73.9993 39.2729 74.079 36.5249C74.1772 33.4187 74.1956 33.4187 77.1911 32.6849C77.2893 32.6849 77.3998 32.6849 77.498 32.6299C80.1558 31.8961 82.5742 30.7955 84.0106 28.264C85.8091 25.0539 86.0116 21.5013 86.2572 17.9609C86.3001 17.2761 85.7784 17.007 85.1277 17.0009C83.727 16.9489 82.3245 17.0164 80.9353 17.2027C78.2345 17.6552 75.6872 18.3767 73.815 20.5963C72.8207 21.7703 71.9736 23.0422 71.0406 24.2651C70.8442 24.528 70.7214 25.3168 70.2119 24.7604C69.813 24.3201 68.6283 24.1489 69.4569 23.0055C71.0079 20.9355 72.7506 19.0153 74.6621 17.27C75.6923 16.3224 76.8805 15.561 78.1731 15.0198C80.835 13.8449 83.7641 13.4015 86.6561 13.7357C89.9483 14.068 93.0444 15.4514 95.4829 17.6797C97.8706 19.8687 99.1289 22.6998 99.7796 25.7693C100.547 29.2974 100.762 32.8255 98.7791 36.1152C98.5127 36.689 98.3886 37.3181 98.4169 37.9496C98.3371 39.2398 99.3131 40.1142 100.639 40.212C102.48 40.3465 103.8 39.4415 104.801 38.0352C107.11 34.7946 108.226 30.8597 107.962 26.8944V26.8944ZM105.052 29.4319C104.728 29.1115 104.332 28.8719 103.896 28.7327C103.461 28.5935 102.999 28.5586 102.548 28.6309C102.456 28.6309 102.37 28.6798 102.278 28.7043C102.18 27.1049 101.894 25.5226 101.425 23.9899C102.664 24.1051 103.844 24.5719 104.825 25.3351C105.151 25.6225 105.439 26.0383 105.918 26.075C105.918 26.1851 105.918 26.289 105.918 26.393C106.026 27.7432 105.978 29.1013 105.777 30.4408C105.587 30.0706 105.343 29.7306 105.052 29.4319V29.4319ZM105.402 20.3212C105.065 20.2845 104.721 20.26 104.383 20.2294C102.982 20.1698 101.605 20.6027 100.492 21.4524C99.864 19.9946 99.0243 18.6369 97.9995 17.4228C98.618 16.5978 99.46 15.9656 100.427 15.6006C101.393 15.2356 102.444 15.1529 103.456 15.3622C103.591 15.3622 103.751 15.4173 103.911 15.4478C104.493 16.8458 104.957 18.2898 105.298 19.7647C105.335 19.9665 105.365 20.1438 105.402 20.3334V20.3212ZM101.216 10.764C100.32 10.7286 99.4269 10.8962 98.605 11.2541C97.7832 11.6121 97.0535 12.1512 96.4711 12.8308C96.0291 13.3138 95.5995 13.8152 95.1637 14.3166C94.6831 13.6667 94.4485 12.8684 94.5013 12.0629C94.5541 11.2574 94.8909 10.4963 95.4522 9.91411C96.4281 8.89909 97.6803 8.52 98.9693 8.18981C99.7848 8.98786 100.536 9.84859 101.216 10.764V10.764ZM95.3969 5.30371C92.7084 6.34931 90.4864 9.6573 90.5846 12.5556C90.0383 12.3844 89.4858 12.2315 88.9211 12.1093C88.9178 12.0993 88.9178 12.0886 88.9211 12.0787C87.3252 8.36712 87.7242 5.96408 90.5416 3.17582C90.5907 3.12691 90.6153 3.07798 90.6521 3.03518C92.3266 3.58102 93.9219 4.34374 95.3969 5.30371V5.30371ZM66.5474 22.4246L66.7438 22.2228C66.8826 22.0103 67.0743 21.8372 67.3002 21.7203C67.5261 21.6035 67.7785 21.547 68.0329 21.5563C67.4436 22.3512 67.1981 22.5775 66.5536 22.4246H66.5474ZM65.6574 22.1311L65.5223 22.0822C65.3873 22.0333 65.2584 21.9721 65.1295 21.9171C65.1505 21.8969 65.1731 21.8785 65.197 21.8621C65.5101 21.6114 65.6512 21.0794 66.2773 21.1344C66.1658 21.5153 65.9539 21.8595 65.6635 22.1311H65.6574ZM64.5341 21.2384C64.5172 21.2693 64.4966 21.298 64.4727 21.324C64.4236 21.4035 64.3622 21.4829 64.307 21.5685C64.0553 21.4463 63.8159 21.3056 63.5766 21.1711C63.7051 21.0448 63.8448 20.9302 63.9939 20.8287C64.2947 20.6758 64.4298 19.9788 64.8717 20.3762C65.2093 20.6758 64.6876 20.9449 64.5403 21.2384H64.5341ZM60.6977 16.4812C60.8942 16.0471 61.1029 15.6313 61.3116 15.2155C61.7442 16.5115 62.4282 17.7103 63.3249 18.7436C63.8098 19.2878 63.8896 19.7158 63.3617 20.26C63.188 20.4036 63.0477 20.583 62.9504 20.7859C62.3191 20.3762 61.7435 19.8871 61.2379 19.3306C60.8488 18.9789 60.5859 18.51 60.4895 17.9954C60.3931 17.4809 60.4684 16.9491 60.7039 16.4812H60.6977ZM59.0772 19.8137C60.8144 22.2595 63.2881 23.6292 66.1546 24.3385C66.6444 24.4599 67.0985 24.6946 67.4804 25.0233C67.1814 25.1577 66.8571 25.2272 66.529 25.2272C66.201 25.2272 65.8767 25.1577 65.5776 25.0233C62.8891 23.568 59.7831 22.5775 58.5739 19.4407C58.6797 19.4653 58.7794 19.5111 58.867 19.5752C58.9546 19.6393 59.0282 19.7204 59.0834 19.8137H59.0772ZM48.7774 19.9726C48.8523 19.8425 48.9539 19.7296 49.0755 19.6411C49.1971 19.5526 49.336 19.4906 49.4833 19.459C49.0888 20.5304 48.3676 21.4519 47.4208 22.0944C46.3508 22.8804 45.2381 23.6071 44.0878 24.2712C42.9461 24.9805 41.786 25.4024 40.5215 25.0539C41.7491 24.2345 43.2837 23.9961 44.6095 23.3601C46.2884 22.637 47.7332 21.4644 48.7835 19.9726H48.7774ZM42.277 22.0638C42.0929 21.7826 41.7246 21.6175 41.7675 21.1466C42.1051 21.0427 42.2095 21.2689 42.3814 21.3851C42.5631 21.5539 42.7277 21.7403 42.8724 21.9415L42.3323 22.1311C42.3125 22.1113 42.2959 22.0886 42.2832 22.0638H42.277ZM43.1548 20.8409C43.0811 20.688 42.9338 20.5352 43.075 20.3762C43.2162 20.2172 43.4556 20.2723 43.6213 20.4251C43.787 20.578 43.8607 20.688 43.9957 20.792C44.1307 20.8959 44.2781 21.0916 44.4315 21.2017C44.2044 21.3362 43.9712 21.4585 43.7318 21.5747C43.5845 21.324 43.2775 21.0794 43.1609 20.8348L43.1548 20.8409ZM40.233 21.9415L39.9629 21.5991C40.2296 21.5955 40.4929 21.6586 40.7288 21.7825C40.9647 21.9064 41.1656 22.0872 41.3133 22.3084C41.3502 22.3512 41.3931 22.3818 41.4299 22.4246L41.252 22.4796C40.7855 22.6019 40.5522 22.2962 40.2391 21.9354L40.233 21.9415ZM47.1139 18.8537C46.5423 19.6211 45.8426 20.285 45.0454 20.8165C44.9606 20.6078 44.8257 20.423 44.6525 20.2784C44.0387 19.6669 44.2474 19.245 44.7323 18.6763C45.6009 17.6431 46.2671 16.4568 46.6965 15.1788C46.9666 15.7413 47.1999 16.3222 47.4577 16.8848C47.5971 17.2096 47.6394 17.5676 47.5795 17.9158C47.5196 18.264 47.3601 18.5875 47.1201 18.8476L47.1139 18.8537ZM36.1511 4.5088C36.3424 5.15434 36.4436 5.82303 36.4519 6.49605C36.4578 7.6155 36.2278 8.72372 35.7767 9.74902C35.4009 10.6695 34.8376 11.5022 34.1224 12.1948C33.4071 12.8873 32.5554 13.4245 31.6211 13.7724C30.6747 13.2548 29.6797 12.8309 28.6502 12.5067C30.5285 10.6723 31.2037 8.33654 31.5106 6.20866C31.6035 4.96919 31.3417 3.72888 30.7556 2.63161C31.6246 2.81407 32.4831 3.04269 33.3275 3.31647C34.2969 3.64698 35.2424 4.0433 36.1573 4.50268L36.1511 4.5088ZM3.24425 29.1935C2.81295 29.5258 2.45381 29.9418 2.1885 30.4164C1.99006 29.2884 1.93642 28.1398 2.0289 26.9983C2.0289 26.6742 2.0289 26.3869 2.0289 26.0444C2.28164 26.0203 2.51605 25.9024 2.68569 25.7142C3.7455 24.7173 5.1081 24.1 6.55889 23.9594C6.39929 24.5219 6.25197 25.0967 6.12921 25.6837C5.92686 26.6587 5.78337 27.6449 5.69953 28.637C5.27603 28.5394 4.8359 28.5383 4.41187 28.6335C3.98784 28.7288 3.59083 28.9181 3.25039 29.1874L3.24425 29.1935ZM7.49805 21.4707C6.41901 20.6375 5.08819 20.1934 3.72305 20.2111L2.5875 20.3456C2.91248 18.6656 3.41873 17.0256 4.09747 15.4539C4.17726 15.4539 4.25706 15.4539 4.33072 15.4539C5.37721 15.1964 6.47666 15.2516 7.49187 15.6126C8.50707 15.9736 9.39306 16.6245 10.0392 17.484C9.00286 18.6799 8.1487 20.0211 7.50415 21.4646L7.49805 21.4707ZM9.0326 8.18369C9.83836 8.37104 10.6192 8.6522 11.359 9.02138C12.0914 9.36754 12.693 9.93868 13.0753 10.6508C13.4576 11.363 13.6005 12.1785 13.4828 12.9775C13.4275 13.43 13.3354 13.9864 12.9119 14.1393C12.4884 14.2922 12.3472 13.7174 12.1139 13.4422C10.6715 11.7118 8.95279 10.7457 6.84126 10.764C7.51242 9.85199 8.24667 8.98772 9.0387 8.17757L9.0326 8.18369ZM17.1779 11.0637C16.4721 7.91464 15.0235 6.0986 12.5559 5.30981C14.0658 4.34899 15.7046 3.60584 17.4235 3.10245C17.4424 3.12624 17.4629 3.1487 17.4849 3.1697C20.2593 5.61554 20.6092 8.53833 19.1974 11.8096L19.0501 12.1582C18.4854 12.2866 17.9268 12.4395 17.3744 12.6229C17.3693 12.0957 17.3055 11.5707 17.1841 11.0575L17.1779 11.0637ZM3.56345 34.7883C3.96857 33.7366 4.41666 32.7216 5.52768 32.1713C5.60733 32.1287 5.69181 32.0959 5.77932 32.0734C5.88225 32.9373 6.06094 33.7905 6.31334 34.6232C5.73078 34.8792 5.27082 35.3505 5.03048 35.9379C4.90772 36.2008 4.77881 36.4698 4.67446 36.7511C4.42654 36.4181 4.20489 36.0665 4.01152 35.6994C3.85807 35.3937 3.72305 35.0879 3.56959 34.7822L3.56345 34.7883ZM7.43664 38.078C7.28791 38.1999 7.10141 38.2669 6.90877 38.2675C6.9028 38.2249 6.9028 38.1817 6.90877 38.1391C6.98794 37.7377 7.10509 37.3446 7.25865 36.9651L7.32616 37.1119C7.49803 37.3748 7.77425 37.7906 7.44279 38.0658L7.43664 38.078ZM22.2972 11.7363C22.9104 10.37 23.2483 8.89702 23.2916 7.40102C23.331 6.80491 23.2539 6.20684 23.0645 5.64001C22.7411 4.42423 22.1592 3.29191 21.3581 2.31978C23.1591 2.09057 24.9768 2.01895 26.7904 2.10577C28.1285 6.04969 27.2814 9.16814 24.1571 11.7424C23.5371 11.7057 22.9172 11.7057 22.3034 11.7301L22.2972 11.7363ZM34.77 15.9309C35.3199 15.7705 35.8189 15.4715 36.2186 15.0626C37.7373 13.5577 38.8882 11.725 39.5823 9.70622C39.8971 8.7697 39.9833 7.77199 39.834 6.79566C41.2138 7.87355 42.4658 9.10439 43.566 10.4644C43.566 10.5378 43.5231 10.6112 43.5108 10.6846C43.4628 10.9611 43.4422 11.2417 43.4494 11.5223C43.4356 12.93 42.9759 14.2974 42.1359 15.4295C41.6632 16.1021 41.209 16.7686 40.4294 15.7291C40.4002 15.6843 40.3624 15.6457 40.3181 15.6155C40.2738 15.5853 40.224 15.5642 40.1714 15.5534C40.1189 15.5426 40.0648 15.5423 40.0121 15.5525C39.9594 15.5628 39.9093 15.5833 39.8647 15.6129C39.5946 15.8025 39.7174 16.0287 39.8279 16.2611C39.9384 16.4934 40.3619 16.7931 40.2453 17.4351C39.4841 16.6402 38.858 15.9615 38.2074 15.3011C37.9926 15.0871 37.7471 14.6896 37.4217 14.9526C37.0964 15.2155 37.3419 15.564 37.5506 15.8453C38.0478 16.4567 38.5634 17.0682 38.987 17.588C38.4468 17.1049 37.833 16.5301 37.1946 15.992C36.8938 15.7413 36.544 15.2216 36.145 15.5824C35.746 15.9431 36.2677 16.3039 36.5071 16.6035C37.0748 17.1712 37.579 17.7986 38.011 18.4746C37.8037 18.4644 37.5961 18.4892 37.3972 18.5479C36.9859 18.0893 36.5685 17.6369 36.1265 17.2027C35.6846 16.7686 35.2427 16.3222 34.7762 15.9248L34.77 15.9309ZM72.6611 56.4952C72.6626 57.825 72.4871 59.1491 72.1393 60.433C71.7649 59.8582 71.5255 59.4302 71.237 59.0511C71.1569 58.9114 71.0373 58.7983 70.8931 58.7259C70.7489 58.6535 70.5865 58.625 70.4262 58.6439C70.2658 58.6628 70.1146 58.7283 69.9913 58.8322C69.8681 58.9362 69.7783 59.074 69.7331 59.2284C69.6177 59.5202 69.5454 59.827 69.5183 60.1395C69.3436 62.1222 69.0608 64.094 68.6712 66.0462C68.2964 67.724 67.6934 69.343 66.8789 70.8584C66.7132 70.1246 66.5904 69.6355 66.4922 69.1096C66.394 68.5838 66.2835 67.8867 65.5162 67.8255C64.7489 67.7644 64.5341 68.3942 64.3807 68.9812C62.8829 74.8206 59.2614 79.1437 54.5595 82.7085C54.4899 82.7847 54.4051 82.8456 54.3105 82.8873C54.2159 82.9289 54.1136 82.9504 54.0102 82.9504C53.9067 82.9504 53.8045 82.9289 53.7099 82.8873C53.6152 82.8456 53.5304 82.7847 53.4608 82.7085C51.5456 81.244 49.7703 79.6065 48.1574 77.8168C46.0232 75.2045 44.4763 72.1665 43.6213 68.9078C43.4617 68.3514 43.2469 67.795 42.541 67.8133C41.8351 67.8317 41.6878 68.4248 41.5589 68.9873C41.5088 69.5832 41.3241 70.1601 41.0187 70.675C40.1132 68.8547 39.4803 66.912 39.1404 64.9089C38.8581 63.2579 38.7046 61.5886 38.4836 59.9255C38.41 59.3996 38.3117 58.8432 37.6979 58.7025C37.0841 58.5619 36.7956 59.0572 36.501 59.5036C36.323 59.7726 36.2493 60.1639 35.7767 60.2618C35.2756 57.231 35.1601 54.1494 35.4329 51.0899C35.4943 50.4234 35.568 49.763 35.6355 49.0965C35.7255 49.5041 35.8237 49.9016 35.9301 50.2888C36.0038 51.0043 36.0836 51.7258 36.1327 52.4473C36.237 53.8659 36.3107 55.2845 36.4212 56.7275C36.4212 56.9538 36.4212 57.2779 36.7649 57.3023C37.1087 57.3268 37.1762 56.9966 37.2253 56.7275C37.3352 56.1213 37.4049 55.5085 37.434 54.8932C38.0066 56.3029 38.7181 57.6526 39.5578 58.9227V58.9227C39.9692 60.9727 40.2399 63.0484 40.3681 65.1351C40.3987 66.034 40.546 66.9328 40.6627 67.8316C40.6627 68.064 40.7241 68.3759 41.0432 68.3759C41.3624 68.3759 41.4054 68.0334 41.4484 67.7644C41.587 66.342 41.6464 64.9131 41.6264 63.4842C41.8505 64.2633 42.0005 65.0617 42.0745 65.8688C42.1358 66.1501 42.0744 66.6087 42.5287 66.5598C42.9829 66.5109 42.9031 66.1134 42.9277 65.7955C42.9841 65.0005 42.9635 64.2019 42.8663 63.4108C43.2484 64.1992 43.5013 65.0435 43.6151 65.9117C43.7897 67.4216 44.4115 68.8456 45.4014 70.0023C45.22 70.5601 45.2395 71.1634 45.4566 71.7083C45.8657 72.7192 46.5529 73.5945 47.4392 74.2337C48.1215 74.7197 48.6344 75.4059 48.9063 76.1964C49.2519 77.226 49.7708 78.1896 50.4408 79.0458C50.6065 79.2537 50.8214 79.535 51.1344 79.3271C51.4475 79.1192 51.2265 78.8746 51.1344 78.6545C50.8705 77.9758 50.5697 77.3032 50.3242 76.6122C50.2444 76.386 49.962 76.0558 50.3242 75.8846C50.4753 75.8316 50.6404 75.834 50.7899 75.8911C50.9394 75.9482 51.0637 76.0564 51.1406 76.1964C51.2803 76.4371 51.3779 76.6997 51.429 76.973C51.7298 78.1592 51.9999 79.3516 52.3068 80.5317C52.3805 80.813 52.4726 81.2165 52.9207 81.1003C53.2521 81.0086 53.2337 80.6601 53.1968 80.3849C53.0925 79.5228 52.9759 78.6606 52.8347 77.7984C52.6076 76.4104 52.6015 76.4166 53.9826 76.4105C55.3636 76.4043 55.4373 76.4105 55.2102 77.829C55.0813 78.6545 54.9892 79.4861 54.8849 80.3177C54.8419 80.6356 54.7928 81.0392 55.1734 81.1126C55.5539 81.186 55.6951 80.7579 55.7872 80.4216C55.9406 79.7796 56.0695 79.1253 56.2291 78.4833C56.3887 77.8412 56.5851 77.0647 56.8123 76.3676C56.8341 76.2718 56.8768 76.1819 56.9373 76.1042C56.9978 76.0266 57.0746 75.9631 57.1624 75.9182C57.2501 75.8733 57.3467 75.8481 57.4453 75.8444C57.5439 75.8407 57.6421 75.8586 57.733 75.8968C58.1565 76.0864 57.8128 76.4532 57.733 76.7101C57.4936 77.3704 57.2051 78.0064 56.9596 78.6606C56.8736 78.8746 56.6895 79.1498 56.9596 79.3271C57.2296 79.5044 57.469 79.2415 57.6532 79.0458C58.1239 78.5243 58.4868 77.9156 58.7212 77.2543C59.1553 75.8594 60.0132 74.6331 61.1765 73.7445C61.8172 73.2453 62.3025 72.5753 62.576 71.8123C62.8478 71.2761 62.9006 70.6559 62.7233 70.0818L62.6497 69.8617C62.9783 69.4823 63.2701 69.0729 63.5213 68.6388C64.085 67.5176 64.4485 66.3072 64.5955 65.0617C64.6854 64.4588 64.844 63.868 65.0681 63.3007C65.0344 64.151 65.0528 65.0025 65.1234 65.8505C65.1234 66.1012 65.2339 66.3886 65.4978 66.4192C65.8968 66.4681 65.8906 66.0768 65.9336 65.8077C66.0932 64.9333 66.2221 64.0467 66.3571 63.1662C66.3342 64.5776 66.404 65.989 66.5658 67.3914C66.6088 67.7155 66.4983 68.1863 66.9771 68.223C67.4559 68.2597 67.3515 67.7889 67.4436 67.5076C67.4937 67.3073 67.5225 67.1024 67.5295 66.8961C67.6646 65.3369 67.7628 63.7716 67.9469 62.2184C68.0881 61.0506 68.3214 59.8888 68.5116 58.727C69.3486 57.4368 70.0539 56.0664 70.617 54.6363C70.617 55.0521 70.66 55.4679 70.7153 55.8592C70.7705 56.2506 70.5863 57.1555 71.2677 57.0822C71.8385 57.0455 71.7281 56.2445 71.7342 55.7492C71.7669 53.9433 71.8795 52.1436 72.0718 50.35C72.0718 50.2155 72.1148 50.0626 72.1393 49.9159C72.2375 49.5551 72.3235 49.1882 72.4155 48.8213C72.7328 51.3643 72.817 53.9308 72.6672 56.4891L72.6611 56.4952ZM46.807 71.1702C47.6021 71.6967 48.468 72.1085 49.3789 72.3932C51.6717 73.1754 54.1281 73.3565 56.5115 72.919C58.1811 72.6544 59.779 72.053 61.2072 71.1519C60.6426 72.2328 59.7306 73.0939 58.6169 73.5977C57.2465 74.3622 55.706 74.7732 54.1355 74.7935C52.565 74.8138 51.0143 74.4427 49.6245 73.7139C48.4188 73.2084 47.4256 72.3033 46.8132 71.1519L46.807 71.1702ZM72.1516 26.5336C73.6432 24.1612 74.8892 21.5135 77.6391 20.2539C79.4793 19.4716 81.4637 19.0821 83.4643 19.1105C83.7957 19.1105 84.2131 19.0554 84.1333 19.6363C83.8326 21.9048 83.673 24.2101 82.7645 26.3624C81.721 28.8082 79.6954 30.074 77.2033 30.716C76.8657 30.8077 76.522 30.8872 76.1782 30.9667L78.0197 30.1229C78.8676 29.7361 79.6221 29.1724 80.2321 28.4697C80.8421 27.7671 81.2933 26.9421 81.5553 26.0506C81.6658 25.7081 81.9666 25.2801 81.5553 24.9927C81.144 24.7053 80.8556 25.115 80.5793 25.3596C79.6944 26.1392 78.6641 26.7376 77.5471 27.1206C78.2837 25.5797 79.4622 24.7053 80.6653 23.8615C81.0501 23.6393 81.3723 23.3238 81.6019 22.9443C81.8316 22.5648 81.9612 22.1336 81.9788 21.6908C80.932 22.2907 79.8145 22.759 78.6519 23.085C75.1041 24.1 73.1828 26.5458 72.4585 30.0495C72.2254 30.8533 72.132 31.6908 72.1823 32.5259C72.1952 32.6721 72.2391 32.8138 72.3112 32.9417C72.29 33.0446 72.2757 33.1488 72.2682 33.2536C72.035 40.1631 71.3966 47.0114 68.9168 53.5541C68.0143 56.049 66.6155 58.3367 64.8042 60.2801L64.706 60.3841C65.1035 59.2178 65.6026 58.0884 66.1976 57.0088C67.5664 54.459 69.0334 51.9398 69.6779 49.0598C69.8007 48.5217 70.1997 47.7024 69.5306 47.5128C69.015 47.3661 69.0088 48.2772 68.8677 48.7357C67.9654 51.6952 66.3571 54.2939 64.6814 56.862C64.8485 55.3466 65.3158 53.8793 66.0564 52.5451C66.4285 51.9518 66.7156 51.3097 66.9096 50.6374C66.9526 50.4111 67.0385 50.1238 66.7377 50.0259C66.4369 49.9281 66.2896 50.1299 66.1239 50.3316C64.2824 52.8203 62.8706 55.4496 62.9443 58.6781C63.0241 60.1432 63.0056 61.6119 62.8891 63.0745C62.8891 63.1112 62.8891 63.154 62.8891 63.1968C62.7087 63.6915 62.5931 64.2073 62.5453 64.7315C62.2016 68.7794 59.8814 70.2347 56.3212 70.944C55.5422 71.1676 54.7301 71.2545 53.9212 71.2008C51.5703 71.0235 49.2623 70.6933 47.3717 69.0851C45.8556 67.8011 45.4627 65.9911 45.3338 64.1934C45.297 63.7589 45.2021 63.3311 45.0515 62.9216C44.8796 61.1239 45.1743 59.3201 45.0085 57.5102C44.763 54.728 43.3942 52.4962 41.8473 50.3133C41.6939 50.0993 41.5282 49.8914 41.2335 50.0504C41.1295 50.1213 41.0564 50.229 41.0291 50.3516C41.0017 50.4742 41.0221 50.6026 41.0862 50.7108C41.3263 51.3359 41.5988 51.9482 41.9026 52.5451C42.6611 53.9246 43.1662 55.428 43.3942 56.9843C43.2223 56.8437 43.1241 56.7948 43.0811 56.7214C41.4913 54.0432 39.8218 51.4078 39.0299 48.3444C38.9379 48.0081 38.8949 47.3966 38.4161 47.5067C37.9373 47.6168 38.146 48.1976 38.1829 48.589C38.1829 48.6929 38.2442 48.7908 38.2627 48.8947C38.8765 51.6646 40.19 54.1288 41.5466 56.5808C42.2658 57.8217 42.86 59.1305 43.3205 60.488C39.5394 56.3973 37.9987 51.3161 36.9736 46.0025C36.2013 41.7638 35.7784 37.4693 35.7091 33.1618C35.7161 33.0805 35.7161 32.9986 35.7091 32.9172C35.76 32.826 35.8011 32.7296 35.8319 32.6299C35.9306 32.041 35.8864 31.4372 35.703 30.8689C35.1935 28.1968 34.2851 25.7448 31.8176 24.1978C30.0313 23.0789 27.883 22.8648 25.9678 21.6664C26.0051 22.0967 26.1392 22.5131 26.3602 22.8847C26.5813 23.2563 26.8836 23.5734 27.2446 23.8126C28.6059 24.6313 29.726 25.7935 30.4917 27.1818C29.3954 26.7951 28.38 26.2105 27.4962 25.4574C27.2016 25.2006 26.8825 24.687 26.4528 25.0294C26.0968 25.2985 26.3791 25.7387 26.4835 26.0995C27.1709 28.4536 28.9019 29.7682 31.0625 30.6671C31.3449 30.7894 31.6334 30.8994 31.9158 31.0156L31.0625 30.7955C26.9806 29.7743 24.9858 27.5914 24.3781 23.458C24.2062 22.2901 24.1141 21.1099 23.9177 19.9421C23.8011 19.2389 24.0834 19.1166 24.7034 19.1349C28.7239 19.2634 32.2104 20.3579 34.3403 24.1306C34.856 25.0416 35.482 25.8916 35.9915 26.8026C36.1007 27.0552 36.276 27.2739 36.499 27.4359C36.7221 27.5978 36.9847 27.6971 37.2595 27.7234C37.5343 27.7496 37.8111 27.7019 38.061 27.5851C38.3109 27.4683 38.5247 27.2867 38.68 27.0595C38.8992 26.8359 39.1042 26.599 39.2939 26.3502C39.3307 26.289 39.3798 26.2401 39.4227 26.179L39.5394 26.234C41.2212 26.9739 42.7435 26.503 44.2351 25.6531C46.0245 24.6544 47.7069 23.4763 49.2561 22.1372C49.2561 23.0986 49.3673 24.0567 49.5876 24.9927C49.6981 25.3596 49.8577 25.7815 50.3242 25.7509C50.7907 25.7204 50.8705 25.274 50.8766 24.8827C50.8766 24.1122 51.1344 23.2073 50.8152 22.608C50.2014 21.4279 50.5943 20.5107 51.0424 19.5079H52.8838C52.8838 19.5079 52.8838 19.5385 52.8838 19.563C52.8838 20.6514 53.3503 21.5686 53.958 21.5991C54.5657 21.6297 55.0751 20.7798 55.0874 19.563V19.5079L56.9289 19.4774C57.0143 19.8517 57.166 20.2078 57.377 20.5291C57.5365 20.7737 57.9049 21.0427 57.6409 21.3484C56.7386 22.3879 57.1621 23.6108 57.0885 24.7665C57.0578 25.1762 57.0885 25.6898 57.6593 25.7265C58.2302 25.7632 58.3223 25.2862 58.4327 24.8704C58.621 23.9696 58.7116 23.0512 58.7028 22.1311C59.2491 22.5591 59.6604 22.871 60.0532 23.195C61.4818 24.322 63.0272 25.2936 64.663 26.0934C65.2531 26.4071 65.9091 26.5778 66.5778 26.5916C67.2465 26.6054 67.909 26.4619 68.5116 26.1728V26.1728C68.7142 26.4113 68.9168 26.6559 69.1255 26.8821C70.2979 28.0195 71.3045 27.8544 72.1577 26.4969L72.1516 26.5336ZM70.5127 18.6274C70.3691 18.5283 70.212 18.4501 70.0462 18.3951C70.3804 17.8263 70.7937 17.3076 71.2738 16.8542C71.6114 16.4384 72.1639 16.1388 72.0841 15.4784C70.7214 15.405 70.3347 16.7992 69.1378 17.4412C69.4226 17.1329 69.689 16.8083 69.9357 16.469C70.2181 15.9981 71.1633 15.5334 70.5864 15.0504C70.0094 14.5673 69.6902 15.5334 69.2605 15.8636C68.7204 16.2794 68.4994 17.0866 67.5234 17.2822L68.1372 16.2611C68.2477 16.0776 68.3643 15.8759 68.1863 15.6863C68.1443 15.6443 68.0931 15.6124 68.0369 15.593C67.9806 15.5736 67.9206 15.5672 67.8615 15.5742C67.8024 15.5813 67.7456 15.6017 67.6956 15.6338C67.6455 15.6659 67.6034 15.709 67.5725 15.7597C66.7746 16.8542 66.3449 16.0715 65.8784 15.4539C65.4454 14.8593 65.1079 14.2013 64.8778 13.5034C64.6269 12.5944 64.4908 11.6577 64.4727 10.7151C64.4608 10.6142 64.4424 10.5141 64.4175 10.4155C65.5192 9.04853 66.7802 7.81696 68.174 6.74675C68.0177 7.70336 68.087 8.6831 68.3766 9.60838C69.1402 11.8179 70.4168 13.8166 72.1025 15.4417C72.4533 15.6382 72.8236 15.798 73.2074 15.9187C72.2497 16.7458 71.3514 17.6387 70.5188 18.5907L70.5127 18.6274ZM76.3747 13.7785C76.2703 13.7296 76.1598 13.6929 76.0616 13.644C74.468 12.9338 73.167 11.701 72.3751 10.1511C71.5832 8.60121 71.3483 6.82782 71.7097 5.12638C71.7649 4.86346 71.8017 4.66167 71.8263 4.51492C73.5533 3.68563 75.3755 3.06961 77.2524 2.68054C76.7693 3.53132 76.4998 4.48578 76.4668 5.46268C76.5618 7.96172 77.4638 10.3635 79.0387 12.311C79.1185 12.4028 79.2105 12.47 79.2964 12.5556C78.2901 12.861 77.314 13.2581 76.3808 13.7419L76.3747 13.7785ZM83.7405 11.7118C80.6714 9.09475 79.8182 5.95796 81.1932 2.0813C83.0501 1.92568 84.9184 1.96669 86.7666 2.2036C85.4411 3.64567 84.7187 5.53768 84.7472 7.49273C84.7425 8.7173 84.9803 9.93076 85.4469 11.0637C85.5329 11.2593 85.6126 11.4672 85.6986 11.6751C85.0586 11.6407 84.4173 11.6407 83.7773 11.6751L83.7405 11.7118ZM100.584 38.1575C100.172 37.8395 100.584 37.3931 100.719 37.0507C100.897 37.4472 101.004 37.8713 101.038 38.3042C100.883 38.2874 100.737 38.2233 100.621 38.1208L100.584 38.1575ZM103.426 36.5371L103.254 36.7695C103.093 35.9827 102.634 35.2882 101.971 34.8311C101.873 34.7639 101.768 34.7027 101.658 34.6416C101.84 34.0997 101.976 33.5433 102.063 32.9784C102.106 32.6849 102.131 32.3669 102.161 32.0979C102.916 32.3695 103.532 32.928 103.874 33.651C104.078 34.0091 104.256 34.381 104.408 34.7639C104.129 35.3618 103.814 35.9418 103.463 36.5004L103.426 36.5371Z" fill="#2C3639"/>
<path d="M46.3405 48.8151C46.4388 49.0719 46.5001 49.347 46.5983 49.6038C46.7272 49.9524 46.9298 50.2826 47.3349 50.2153C47.7401 50.148 47.6725 49.7445 47.6971 49.4387C47.6971 49.2675 47.6971 49.0902 47.6971 48.7172C47.7585 46.8156 46.8193 45.3175 44.9533 44.3575C43.7703 43.7425 42.4923 43.3291 41.1722 43.1346C40.6382 43.0551 39.7727 42.8411 39.6377 43.3486C39.4535 44.0518 40.3681 44.0762 40.8653 44.3269C40.9838 44.3994 41.1119 44.455 41.2459 44.492C42.1482 44.6938 42.4182 45.1035 42.05 46.0451C41.8723 46.5081 41.8505 47.0161 41.9878 47.4925C42.125 47.9689 42.414 48.388 42.8111 48.6867C43.1835 49.017 43.6693 49.1917 44.1676 49.1747C44.666 49.1576 45.1386 48.95 45.4873 48.5949C45.9416 48.2342 46.1625 48.3626 46.3405 48.8151Z" fill="#2C3639"/>
<path d="M67.8485 43.1035C66.3002 43.1098 64.7754 43.4807 63.3983 44.1858C62.4043 44.5615 61.5636 45.2552 61.0082 46.1583C60.4527 47.0613 60.2139 48.1225 60.3292 49.1753C60.3783 49.3771 60.0715 50.0681 60.6976 50.1904C61.3237 50.3127 61.4219 49.6278 61.5508 49.1814C61.7533 48.466 61.9191 48.142 62.7048 48.7473C62.918 48.9126 63.163 49.0326 63.4246 49.0999C63.6862 49.1672 63.9589 49.1803 64.2258 49.1385C64.4927 49.0966 64.7482 49.0007 64.9765 48.8567C65.2047 48.7126 65.4009 48.5235 65.5528 48.3009C65.8147 47.9477 65.9815 47.5336 66.0374 47.098C66.0933 46.6624 66.0363 46.2198 65.872 45.8123C65.5651 45.1458 65.7616 44.7973 66.4859 44.5894C67.0191 44.4329 67.5369 44.2282 68.0327 43.9779C68.266 43.8679 68.6465 43.77 68.5544 43.4154C68.4624 43.0607 68.1063 43.1157 67.8485 43.1035Z" fill="#2C3639"/>
<path d="M60.8081 63.4282C59.2736 63.5994 57.1252 65.819 56.984 67.3416C56.8981 68.4728 57.1743 68.7724 58.3099 68.7785C59.6971 68.7785 59.8935 68.6195 59.9304 67.2376C60.0035 66.4021 60.3385 65.6107 60.8879 64.9752C61.0475 64.749 61.2501 64.5533 61.3974 64.321C61.4798 64.2296 61.5304 64.1141 61.5414 63.9918C61.5525 63.8694 61.5235 63.7468 61.4588 63.6422C61.3053 63.3916 61.0843 63.4038 60.8081 63.4282Z" fill="#2C3639"/>
<path d="M47.4514 63.5093C47.1752 63.4115 46.8376 63.2281 46.5982 63.5888C46.5286 63.7315 46.4988 63.8902 46.5117 64.0483C46.5247 64.2064 46.58 64.3581 46.6718 64.4877C46.8393 64.704 47.0218 64.9084 47.2181 65.0992C47.7702 65.6823 48.0833 66.45 48.0959 67.2515C48.0959 68.4744 48.3169 68.7618 49.6059 68.7618C50.8949 68.7618 51.2755 68.3032 50.9502 67.0864C50.7201 66.2432 50.2781 65.4722 49.666 64.8463C49.0538 64.2205 48.2916 63.7603 47.4514 63.5093Z" fill="#2C3639"/>
<path d="M47.9486 53.462C47.962 53.2359 47.962 53.0093 47.9486 52.7833C47.9056 52.3981 48.0836 51.8049 47.4882 51.7988C47.0217 51.7988 47.0402 52.3613 47.0095 52.7221C46.8637 53.9699 46.6402 55.2074 46.3404 56.4276C46.0441 57.5404 45.8389 58.6753 45.7266 59.8212C45.7266 60.0902 45.7266 60.4326 46.1071 60.4326C46.4877 60.4326 46.5061 60.1575 46.5675 59.9374C47.2613 57.8349 47.7244 55.6638 47.9486 53.462V53.462Z" fill="#2C3639"/>
<path d="M61.0046 52.7894C60.9616 52.3919 61.0046 51.7927 60.489 51.8171C59.9734 51.8416 60.0839 52.4286 60.047 52.8444C60.0397 52.989 60.0397 53.1339 60.047 53.2785C60.2125 55.2157 60.5913 57.1288 61.1764 58.9835C61.3299 59.5032 61.2808 60.5121 61.9253 60.3776C62.5698 60.2431 62.2506 59.3075 62.1586 58.7266C61.8455 56.7333 61.2071 54.8011 61.0046 52.7894Z" fill="#2C3639"/>
<path d="M82.4392 36.842C82.3103 35.9248 82.1937 33.375 82.0156 33.375C81.8376 33.375 81.6289 35.7047 81.365 37.4106C81.0704 39.3245 80.9415 40.7614 78.0749 40.8287C77.6207 40.8287 77.8478 41.2323 78.032 41.2384C81.5246 41.3118 81.1747 42.7426 81.4387 44.5464C81.6234 45.8399 81.7422 47.142 81.7947 48.4475C81.9388 48.4911 82.0925 48.4911 82.2366 48.4475C82.2366 48.4475 82.5129 44.2284 82.7584 42.7854C82.9548 41.6053 84.4095 41.379 85.5819 41.1589C85.6433 41.1589 85.7108 40.8226 85.4776 40.7981C83.0714 40.5108 82.9057 39.9788 82.4392 36.842Z" fill="#2C3639"/>
<path d="M25.6913 38.4885C25.5563 37.5652 25.4397 35.0154 25.2617 35.0215C25.0836 35.0276 24.8811 37.345 24.6171 39.0571C24.3225 40.971 24.1936 42.408 21.3209 42.4691C20.8728 42.4691 21.0999 42.8788 21.2779 42.8788C24.7706 42.9583 24.4268 44.3891 24.6908 46.1929C24.8755 47.4844 24.9944 48.7844 25.0468 50.0879C25.1888 50.1313 25.3406 50.1313 25.4826 50.0879C25.4826 50.0879 25.765 45.8688 26.0043 44.4258C26.2069 43.2456 27.6555 43.0255 28.834 42.8054C28.8954 42.8054 28.963 42.463 28.7297 42.4385C26.3235 42.1634 26.1332 41.6497 25.6913 38.4885Z" fill="#2C3639"/>
<path d="M88.332 46.4126C88.2338 45.74 88.1478 43.8689 88.0189 43.875C87.89 43.8811 87.7365 45.5749 87.5401 46.8284C87.3253 48.2286 87.2332 49.2742 85.134 49.3292C84.8025 49.3292 84.9682 49.6288 85.0971 49.6288C87.6568 49.6839 87.4051 50.7295 87.5954 52.0747C87.732 53.0194 87.8201 53.9705 87.8593 54.9241C87.9631 54.9573 88.0747 54.9573 88.1785 54.9241C88.1785 54.9241 88.381 51.8668 88.5652 50.7784C88.7064 49.9162 89.7929 49.7511 90.6338 49.5922C90.6768 49.5922 90.7259 49.3415 90.554 49.3231C88.7923 49.103 88.6573 48.7239 88.332 46.4126Z" fill="#2C3639"/>
<path d="M17.6136 27.6098C17.5216 26.9372 17.4356 25.0723 17.3067 25.0723C17.1778 25.0723 17.0244 26.7782 16.8279 28.0256C16.6131 29.4259 16.521 30.4715 14.4156 30.5265C14.0903 30.5265 14.256 30.8261 14.4156 30.8261C16.9753 30.8811 16.7236 31.9329 16.9139 33.272C17.0519 34.2184 17.1379 35.1717 17.1717 36.1275C17.2781 36.1566 17.3906 36.1566 17.497 36.1275C17.497 36.1275 17.6996 33.0396 17.8776 31.9818C18.0249 31.1196 19.1052 30.9545 19.9462 30.7894C19.9953 30.7894 20.0444 30.5448 19.8725 30.5265C18.0801 30.3003 17.9451 29.9273 17.6136 27.6098Z" fill="#2C3639"/>
</svg>
