<svg width="72" height="85" viewBox="0 0 72 85" fill="none" xmlns="http://www.w3.org/2000/svg">
<path d="M34.1129 48.7288C33.9473 46.6084 34.3275 44.1285 34.254 41.6425C34.1374 37.6577 33.8369 33.6728 33.9718 29.6819C34.0945 26.1235 34.2969 22.5713 34.2724 19.0068C34.2724 18.3488 34.1068 18.0076 33.4322 17.8431C32.6463 17.6957 31.914 17.3431 31.3104 16.8217C30.7069 16.3002 30.2539 15.6286 29.998 14.8758C29.8814 14.5467 29.6116 14.6016 29.3847 14.5955C26.7171 14.5041 24.0433 14.3639 21.3756 14.2664C19.1311 14.1872 16.8927 14.0166 14.6298 13.974C13.9798 13.974 13.3297 13.846 12.6735 13.8277C12.1155 13.8277 11.956 14.0044 12.0603 14.5162C12.3362 16.1675 12.6061 17.8187 12.882 19.476C13.4667 23.0547 14.0534 26.6313 14.6421 30.2059C15.0509 32.7446 15.47 35.2855 15.8992 37.8283C16.4389 41.1307 16.9806 44.4352 17.5244 47.7417C18.1744 51.7144 18.8326 55.685 19.499 59.6536C19.4931 59.7042 19.4931 59.7553 19.499 59.8059C20.008 61.3597 20.0203 61.3779 18.5976 62.3041C16.4768 63.722 14.0342 64.5931 11.4899 64.8388C8.99229 65.0693 6.4747 64.7275 4.13088 63.8395C3.30735 63.6219 2.54689 63.2149 1.91091 62.6514C1.77707 62.5353 1.62863 62.4371 1.46934 62.3589C0.0833876 61.4998 0.0772611 61.4998 0.402286 59.9217C2.14802 51.6311 3.89784 43.3344 5.65174 35.0316C7.10516 28.1282 8.52791 21.2186 9.98746 14.3152C10.104 13.7485 9.9384 13.6267 9.45393 13.651C7.95759 13.7303 6.47967 13.389 4.98946 13.5048C4.21062 13.5597 3.76294 13.0235 3.26007 12.5848C2.89825 12.2496 3.18648 11.6891 3.83653 11.4576C4.93426 11.0798 6.03196 10.7142 7.14809 10.4156C10.1084 9.69897 13.1141 9.18193 16.1446 8.86801C20.379 8.3706 24.644 8.17714 28.9064 8.28916C29.1519 8.31774 29.4004 8.27194 29.6192 8.15777C29.8381 8.04361 30.0172 7.86642 30.1329 7.6494C30.5679 7.01669 31.1316 6.48156 31.7875 6.07857C32.4434 5.67557 33.1771 5.41364 33.9412 5.30965C34.3643 5.22434 35.0267 5.3523 35.1064 4.85877C35.1801 4.54529 35.1849 4.21967 35.1203 3.9042C35.0557 3.58872 34.9234 3.29082 34.7323 3.03085C33.978 2.10471 33.9228 1.28214 34.5544 0.593627C34.8727 0.248253 35.3121 0.0373929 35.7823 0.00451544C36.2524 -0.028362 36.7173 0.119227 37.081 0.416905C37.2661 0.553242 37.4191 0.727946 37.5294 0.928887C37.6397 1.12983 37.7047 1.3522 37.7198 1.58059C37.735 1.80898 37.7 2.03792 37.6172 2.25152C37.5345 2.46512 37.4059 2.65826 37.2405 2.81757C36.6886 3.42688 36.799 4.03621 36.7867 4.71254C36.7867 5.23654 37.2466 5.21215 37.5471 5.26699C38.2956 5.38528 39.0227 5.61108 39.7058 5.93725C40.5897 6.38207 41.3325 7.06106 41.8522 7.8992C41.941 8.04858 42.0721 8.16869 42.2291 8.24453C42.3861 8.32038 42.5622 8.34862 42.7353 8.32572C44.1519 8.32572 45.5685 8.32572 46.9851 8.32572C50.9368 8.39479 54.879 8.73271 58.7841 9.33715C61.8522 9.72578 64.8714 10.4303 67.7929 11.4393C68.2099 11.5916 68.6514 11.7135 68.7189 12.207C68.7863 12.7005 68.3019 12.8163 68.0259 13.0661C67.8112 13.2598 67.555 13.4027 67.2767 13.484C66.9984 13.5652 66.7053 13.5828 66.4192 13.5353C65.0271 13.4622 63.6534 13.7973 62.2613 13.6876C61.5683 13.6328 61.7707 14.108 61.832 14.4309C62.1387 15.9725 62.4759 17.514 62.8009 19.0556C64.097 25.2543 65.3909 31.4509 66.6829 37.6455C68.0075 43.9579 69.3423 50.2723 70.6874 56.5888C70.994 58.0308 71.3089 59.4729 71.6318 60.9149C71.6775 61.0272 71.6975 61.1482 71.6903 61.2691C71.683 61.39 71.6488 61.5078 71.5901 61.614C71.5314 61.7201 71.4497 61.812 71.3508 61.8829C71.252 61.9538 71.1385 62.0019 71.0186 62.0238C70.348 62.2517 69.7423 62.6362 69.2524 63.1449C68.7863 63.608 68.1056 63.6263 67.523 63.8456C65.6275 64.6094 63.5956 64.9827 61.5505 64.9429C59.5054 64.9031 57.4898 64.4511 55.6259 63.6141C54.3809 63.121 53.2299 62.4204 52.2223 61.5425C51.885 61.2317 51.6704 60.8357 51.9034 60.4884C52.5842 59.4952 52.5167 58.3375 52.719 57.2469C53.2587 54.2978 53.7248 51.3366 54.2092 48.3754C54.8225 44.5246 55.4358 40.6737 56.0797 36.7986C56.7236 32.9234 57.3062 29.2066 57.9563 25.4045C58.4959 22.1265 59.0335 18.8464 59.5691 15.5643C59.5691 15.4912 59.5691 15.4119 59.5691 15.3388C59.8267 13.7546 59.8206 13.712 58.1893 13.8277C55.9509 13.9801 53.7064 14.0349 51.4435 14.1385C49.1806 14.2421 47.0097 14.3578 44.7958 14.4431C43.9434 14.4736 43.0848 14.5711 42.2263 14.5711C41.9871 14.5711 41.797 14.6076 41.7111 14.894C41.1898 16.6366 39.8162 17.4165 38.2033 17.8674C38.0881 17.8817 37.9769 17.9185 37.876 17.9755C37.7751 18.0326 37.6865 18.1089 37.6153 18.2C37.5441 18.2911 37.4917 18.3953 37.461 18.5066C37.4304 18.6178 37.4221 18.734 37.4367 18.8484C37.3632 21.5598 37.492 24.2712 37.6453 26.9766C37.8108 29.9622 37.8415 32.9539 37.7189 35.9334C37.5471 39.8999 37.6023 43.8543 37.6391 47.8331C37.6391 50.4165 37.6391 53.0061 37.7863 55.5835C38.1175 61.116 39.393 66.4047 42.2937 71.2365C43.3546 73.0035 44.3113 74.8253 45.8199 76.2755C46.2026 76.6446 46.6126 76.9848 47.0464 77.293C47.261 77.4442 47.5046 77.5499 47.762 77.6033C48.0195 77.6568 48.2853 77.657 48.5428 77.6038C49.8399 77.3125 51.2001 77.5308 52.3388 78.2131C53.5163 78.993 53.5653 80.1202 52.3388 80.8575C50.1833 82.1137 47.8429 83.0266 45.4029 83.5628C42.0975 84.3792 38.7553 85.0678 35.3394 84.9947C32.6725 84.8726 30.0245 84.4868 27.4346 83.8431C24.8163 83.3052 22.2803 82.4284 19.8915 81.2352C19.5572 81.1177 19.2582 80.9181 19.0223 80.655C18.7864 80.3919 18.6213 80.0738 18.5424 79.7303C18.432 78.8711 18.9717 78.2496 20.051 77.8353C20.949 77.4711 21.9375 77.3882 22.8842 77.5977C23.9881 77.8597 24.6688 77.3357 25.374 76.7203C26.9182 75.2722 28.1983 73.5694 29.1578 71.6874C30.7277 68.8724 32.1566 65.9904 32.8373 62.8281C33.4732 60.1475 33.8591 57.4144 33.9903 54.6634C34.0638 52.8355 34.0639 50.9527 34.1129 48.7288ZM35.9036 18.3122C35.689 18.3975 35.7196 18.5742 35.7258 18.7144C35.7626 22.2483 35.554 25.7823 35.4375 29.3163C35.3087 33.0757 35.4743 36.8412 35.7135 40.5945C35.8362 42.5321 35.5541 44.4575 35.5602 46.389C35.6739 50.4745 35.5264 54.5631 35.1186 58.63C34.829 61.4965 34.1631 64.3131 33.1378 67.0079C31.9453 69.9897 30.4189 72.8286 28.5875 75.4712C27.6368 76.7276 26.5115 77.8436 25.2452 78.7858C32.1086 81.4605 39.7355 81.4605 46.5988 78.7858C46.2247 78.4751 45.8935 78.2131 45.5808 77.9328C43.6674 76.2389 42.355 74.1307 41.0672 71.9494C38.0684 66.8373 36.7315 61.2987 36.4126 55.4982C36.2532 52.6222 36.3329 49.728 36.2593 46.846C36.1673 42.9038 36.2225 38.9616 36.3574 35.0194C36.4903 31.7576 36.4453 28.491 36.2225 25.234C36.0631 23.077 36.0937 20.9201 36.0753 18.7631C36.0753 18.5986 36.1182 18.428 35.9036 18.3122ZM61.9056 21.7182C61.9424 28.3475 61.7584 34.9767 61.9485 41.606C62.1141 47.4005 61.9485 53.1828 61.9485 59.0139C61.9485 59.4708 61.8749 59.9461 62.6047 59.9034C64.702 59.7816 66.7871 60.0923 68.8845 60.0557C69.9393 60.0557 69.9331 60.0558 69.7123 59.0078C68.3632 52.6791 67.0181 46.3444 65.6771 40.0035C64.4138 33.9348 63.1567 27.8397 61.9056 21.7182V21.7182ZM10.1469 20.9323C9.09825 25.8737 8.07411 30.6385 7.08064 35.4094C5.41259 43.3628 3.74861 51.3183 2.08874 59.2759C1.97222 59.8486 2.08873 60.0923 2.73265 60.0618C4.82384 59.9765 6.92118 59.9217 9.01851 59.9156C9.70535 59.9156 9.8587 59.678 9.8587 59.0382C9.8587 48.1865 10.1101 37.3348 9.99974 26.483C9.95058 25.6546 9.96288 24.8237 10.0365 23.997C10.1469 23.0282 10.0856 22.0717 10.1469 20.9323ZM6.76787 12.0608C7.03864 12.1402 7.31557 12.1972 7.59579 12.2314C11.0484 12.2862 14.4949 12.4873 17.9414 12.6822C19.7812 12.7858 21.6822 12.7188 23.5404 12.8711C24.7669 12.9686 25.9566 12.9443 27.1647 13.0052C30.0593 13.1453 32.9477 13.3708 35.8423 13.4195C37.8047 13.45 39.7671 13.2063 41.7295 13.1575C43.8943 13.0966 46.0591 12.9504 48.2239 12.8651C51.7256 12.731 55.2211 12.5543 58.7228 12.4141C60.5626 12.341 62.3472 12.1399 64.1685 12.2253C64.5128 12.2023 64.8538 12.1452 65.1865 12.0547C63.2548 11.5733 61.507 11.2077 59.7531 10.9335C55.4091 10.1937 51.0121 9.80246 46.6049 9.76367C43.4773 9.76367 40.3477 9.80837 37.216 9.89774C32.9232 10.0135 28.6304 9.654 24.3376 9.76367C23.6815 9.76367 23.0191 9.72711 22.3691 9.76367C19.4868 10.0135 16.5983 10.1963 13.7406 10.6472C11.3825 10.9709 9.04741 11.4431 6.74949 12.0608H6.76787ZM11.6126 20.7434C11.5513 21.7426 11.4654 22.6627 11.4531 23.5888C11.3489 31.327 11.5758 39.0652 11.3182 46.7973C11.1833 50.8918 11.3182 54.9924 11.2814 59.0931C11.2814 59.7024 11.4715 59.9278 12.1032 59.9095C13.6241 59.873 15.1695 59.9095 16.6597 59.9095C18.1499 59.9095 18.1008 59.9095 17.8555 58.4716C17.2545 54.9498 16.6597 51.4239 16.0709 47.894C15.3412 43.4278 14.6359 38.9616 13.9062 34.4893C13.1335 29.9256 12.3669 25.368 11.5942 20.7434H11.6126ZM60.3909 20.2254H60.3296C60.1149 21.6329 59.9064 23.0405 59.6795 24.4419C59.0662 28.317 58.3855 32.1861 57.7477 36.0552C57.1345 39.5831 56.6071 43.111 56.0306 46.6389C55.3377 50.8553 54.6508 55.0717 53.9272 59.282C53.8291 59.8303 53.9885 59.9339 54.473 59.9278C56.1226 59.9278 57.7662 59.9278 59.379 59.9278C60.5074 59.9278 60.5196 59.9278 60.5074 58.8311C60.4215 51.7022 60.5932 44.5733 60.3909 37.4383C60.2437 31.6926 60.3725 25.959 60.3725 20.2254H60.3909ZM20.1859 79.5657C20.7661 80.0473 21.4316 80.4171 22.1483 80.6564C25.1005 81.8461 28.1907 82.6649 31.3471 83.0936C33.0035 83.4126 34.6888 83.5596 36.3758 83.5323C38.5697 83.4232 40.7515 83.1421 42.9008 82.6915C45.7592 82.1795 48.5287 81.2623 51.1246 79.9679C51.3147 79.8704 51.6275 79.8338 51.6152 79.5657C51.6029 79.2976 51.284 79.2063 51.051 79.1636C50.1005 78.9808 49.1193 78.6579 48.3404 79.6023C48.1576 79.7771 47.9344 79.9047 47.6903 79.974C44.0219 81.4025 40.1307 82.184 36.1918 82.2832C32.8093 82.2995 29.4476 81.7559 26.2448 80.6747C25.2882 80.37 24.2518 80.2177 23.4423 79.584C22.9875 79.1951 22.4083 78.9797 21.8083 78.9764C21.2082 78.973 20.6267 79.1819 20.1675 79.5657H20.1859Z" fill="#2C3639"/>
<path d="M62.1877 67.6595C59.0908 67.4523 56.0552 66.5871 53.7248 64.1011C52.9077 63.2702 52.3388 62.2304 52.0813 61.0972C52.0016 60.7377 52.0138 60.3478 52.4186 60.1955C52.8233 60.0431 53.0687 60.36 53.1974 60.7073C54.4239 64.095 57.202 65.4598 60.489 66.0692C62.6418 66.4881 64.8729 66.2172 66.8607 65.2954C68.7005 64.4423 70.1723 63.2603 70.4851 61.0911C70.5587 60.6159 70.7917 60.165 71.3743 60.2747C71.9569 60.3844 72.0795 60.9266 71.9569 61.4567C71.3436 64.0768 69.6143 65.7219 67.1981 66.7394C65.6014 67.3576 63.9013 67.6698 62.1877 67.6595Z" fill="#2C3639"/>
<path d="M9.58893 67.6602C6.7005 67.5322 4.00828 66.9229 1.89255 64.8026C0.965856 63.8932 0.326456 62.7348 0.0527898 61.4696C-0.0637286 60.9273 -0.0330704 60.4094 0.623112 60.2876C1.27929 60.1657 1.44489 60.641 1.52462 61.1589C1.88644 63.3402 3.36438 64.5832 5.28387 65.3387C7.147 66.1622 9.20391 66.4548 11.2247 66.1836C13.2456 65.9125 15.1507 65.0883 16.7272 63.8033C17.654 63.0925 18.3494 62.1261 18.7264 61.0248C18.7827 60.8569 18.8483 60.6922 18.9226 60.5313C18.9713 60.3995 19.0691 60.2912 19.1957 60.2289C19.3224 60.1665 19.4683 60.1548 19.6034 60.1962C19.7267 60.238 19.8306 60.3227 19.896 60.4347C19.9614 60.5467 19.9838 60.6784 19.9591 60.8055C19.9381 61.3343 19.7955 61.8512 19.542 62.3166C18.3585 64.699 16.3102 66.0516 13.8817 66.9168C12.5 67.391 11.0506 67.642 9.58893 67.6602V67.6602Z" fill="#2C3639"/>
<path d="M11.3364 19.805C11.3364 19.6101 11.3364 19.3603 11.3364 19.1105C11.3364 18.8606 11.3364 18.5803 11.594 18.556C11.8515 18.5316 11.9558 18.8606 11.9988 19.0922C12.0662 19.4882 12.103 19.8903 12.1398 20.3108L13.0965 32.241C13.4317 36.4939 13.767 40.7469 14.1022 44.9998C14.4211 49.0619 14.7441 53.1401 15.0712 57.2347C15.1754 58.5873 15.3165 59.9339 15.4391 61.2866C15.4391 61.3841 15.4698 61.4815 15.4759 61.5851C15.4759 61.9202 15.4759 62.3041 15.0834 62.359C14.6909 62.4138 14.5744 62.0238 14.5437 61.6948C14.4947 61.1464 14.464 60.592 14.4272 60.0436C14.2003 56.8874 13.998 53.7312 13.7527 50.5811C13.489 47.1263 13.1885 43.6776 12.9064 40.2229C12.6856 37.4688 12.4669 34.7148 12.2502 31.9607C12.011 28.9873 11.7841 26.0078 11.551 23.0344C11.4775 21.9681 11.4161 20.914 11.3364 19.805Z" fill="#2C3639"/>
<path d="M56.5886 61.3116C56.9238 57.3348 57.2611 53.3561 57.6004 49.3753C57.8273 46.5725 58.0297 43.7697 58.2137 40.9669C58.504 37.2623 58.7963 33.5597 59.0906 29.8592C59.2991 27.1539 59.5036 24.4506 59.7039 21.7493C59.7775 20.878 59.8756 20.0006 59.986 19.1293C59.986 18.8795 59.986 18.4835 60.3907 18.5505C60.6851 18.5992 60.6667 18.9404 60.6544 19.1598C60.5502 20.744 60.4582 22.3221 60.3356 23.8941C60.1066 26.8513 59.8736 29.8044 59.6364 32.7534C59.3544 36.2813 59.0538 39.8092 58.7717 43.337C58.5469 46.1155 58.3302 48.8919 58.1217 51.6663C57.8825 54.8712 57.6617 58.0762 57.4287 61.2811C57.4151 61.4857 57.3884 61.6892 57.349 61.8904C57.2999 62.1646 57.165 62.3779 56.8461 62.3352C56.5273 62.2926 56.5089 62.0671 56.5027 61.8234C56.4966 61.5797 56.5027 61.47 56.5027 61.2933L56.5886 61.3116Z" fill="#2C3639"/>
<path d="M67.2164 61.9083C67.2532 62.1825 67.1796 62.4323 66.8668 62.4628C66.5541 62.4933 66.4682 62.2739 66.4314 62.0302C66.2842 60.8847 66.1391 59.7392 65.996 58.5937C65.5054 54.5357 65.0025 50.4717 64.5242 46.4076C64.1378 43.1661 63.7822 39.9246 63.3958 36.6587C63.0279 33.5208 62.6231 30.389 62.2429 27.251C61.8341 23.8633 61.4252 20.4756 61.0164 17.0878C60.9857 16.8502 60.8998 16.4785 61.2249 16.4785C61.5499 16.4785 61.556 16.8136 61.5867 17.0208C61.832 18.7878 62.0589 20.5547 62.2797 22.3217C62.6599 25.3683 63.0217 28.4453 63.408 31.504C63.8312 34.9161 64.2727 38.3282 64.7081 41.7342C65.1987 45.6216 65.6873 49.5049 66.1738 53.3842C66.5295 56.2235 66.8668 59.069 67.2164 61.9083Z" fill="#2C3639"/>
<path d="M10.987 17.3246C10.7049 19.6197 10.4249 21.9107 10.1469 24.1976C9.76666 27.3111 9.38032 30.4186 9.00623 33.5322C8.55242 37.2611 8.11698 40.9962 7.67544 44.7312C7.30749 47.8671 6.93749 51.005 6.56545 54.145C6.25882 56.7366 5.95018 59.3281 5.63947 61.9197C5.63947 62.2061 5.51065 62.529 5.14883 62.4498C4.78701 62.3706 4.78703 62.0598 4.81769 61.7857C4.97714 60.3903 5.15499 59.0011 5.3267 57.6058C5.81731 53.7002 6.29565 49.7884 6.79239 45.8828C7.27073 42.1051 7.7797 38.3274 8.2519 34.5436C8.68731 31.0888 9.09206 27.628 9.52134 24.1854C9.80344 21.8944 10.1039 19.6095 10.4044 17.3185C10.4412 17.02 10.3309 16.496 10.7356 16.5204C11.1404 16.5447 10.8889 17.0443 10.987 17.3246Z" fill="#2C3639"/>
<path d="M37.1301 12.5838C33.1868 12.663 29.2497 12.535 25.3126 12.3157C24.5544 12.2928 23.8023 12.1741 23.0743 11.9623C22.8719 11.8952 22.5837 11.8221 22.6573 11.5236C22.7308 11.225 22.9884 11.3469 23.1785 11.3591C28.7775 11.8465 34.3827 11.6332 39.9878 11.5418C41.5577 11.5418 43.1216 11.5418 44.6915 11.5418C44.9428 11.5539 45.1929 11.5845 45.4396 11.6333C45.6482 11.6698 45.8628 11.7247 45.8689 11.9806C45.8751 12.2365 45.6543 12.2974 45.4519 12.34C44.4824 12.5091 43.4986 12.5846 42.5144 12.5655C40.736 12.6203 38.9698 12.5838 37.1301 12.5838Z" fill="#2C3639"/>
<path d="M58.3488 11.1784C60.8754 11.1784 63.402 11.1784 65.9286 11.1784C66.456 11.1784 67.3023 11.0382 67.3146 11.7024C67.3268 12.3665 66.4867 12.1228 66.0022 12.1593C61.7094 12.464 57.3614 12.269 53.038 12.2812C51.7256 12.2812 50.4133 12.2081 49.1009 12.1593C48.8066 12.1593 48.3957 12.1594 48.3773 11.7999C48.3589 11.4404 48.7882 11.3612 49.1009 11.3368C52.0568 11.0809 55.0127 11.2515 57.9686 11.2088H58.3488V11.1784Z" fill="#2C3639"/>
<path d="M37.5225 65.7031C37.8537 65.825 37.9027 66.1175 38.0009 66.3673C38.9366 68.6705 40.0606 70.8938 41.3615 73.0148C42.5282 75.0443 43.9478 76.9196 45.5868 78.5961C45.8383 78.8398 46.3105 79.1566 45.9732 79.51C45.6359 79.8634 45.2741 79.443 44.9858 79.2236C43.9592 78.4083 43.0656 77.4403 42.3366 76.3538C40.2009 73.4549 38.5447 70.2359 37.4305 66.8182C37.3583 66.5532 37.3132 66.2817 37.2956 66.0078C37.2867 65.9377 37.3053 65.867 37.3476 65.8102C37.3898 65.7535 37.4525 65.7151 37.5225 65.7031V65.7031Z" fill="#2C3639"/>
<path d="M7.13603 12.1512L6.26518 12.0354C6.06894 12.0354 5.79913 12.0355 5.82979 11.743C5.86045 11.4505 6.11188 11.4993 6.32039 11.4871C8.03137 11.3896 9.74848 11.2738 11.4595 11.2007C14.3908 11.0788 17.3201 10.9773 20.2474 10.8961C20.6092 10.8961 21.2286 10.7254 21.2347 11.2434C21.2347 11.6211 20.6215 11.5541 20.2658 11.5724L7.13603 12.1512Z" fill="#2C3639"/>
<path d="M44.2746 79.8884C44.1581 80.4002 43.8269 80.2722 43.5693 80.1382C43.0649 79.8523 42.6128 79.4835 42.2324 79.0476C40.9492 77.6644 39.8731 76.1048 39.0374 74.4168C38.9676 74.2821 38.9101 74.1414 38.8657 73.9964C38.8043 73.7588 38.6817 73.4724 38.9699 73.3323C39.2581 73.1921 39.3624 73.4785 39.4851 73.6613C40.774 75.7266 42.2742 77.6541 43.9618 79.4131C44.087 79.5569 44.1922 79.7168 44.2746 79.8884V79.8884Z" fill="#2C3639"/>
<path d="M35.3577 69.1401C35.3577 68.811 35.3577 68.4637 35.7624 68.415C36.1672 68.3662 36.2592 68.6953 36.3266 69.0243C36.5965 70.2429 36.8622 71.4432 37.1238 72.6253C37.1606 72.7959 37.2342 72.9848 37.0257 73.0883C36.8172 73.1919 36.6946 73.0335 36.5719 72.9117C36.2775 72.5567 36.0679 72.14 35.9587 71.693C35.678 70.8627 35.4768 70.0079 35.3577 69.1401V69.1401Z" fill="#2C3639"/>
<path d="M37.2037 76.9023C37.3044 76.9251 37.3977 76.9729 37.4748 77.041C37.552 77.1092 37.6107 77.1956 37.6453 77.2923C38.1368 78.2493 38.6771 79.1807 39.2642 80.0829C39.4053 80.3083 39.6138 80.5947 39.301 80.8141C38.9883 81.0334 38.7675 80.8141 38.5835 80.6069C37.7463 79.7327 37.1708 78.6439 36.9216 77.4629C36.8603 77.207 36.8787 76.9572 37.2037 76.9023Z" fill="#2C3639"/>
<path d="M46.6723 80.5957C46.8869 80.6262 47.0709 80.6566 47.1322 80.8516C47.1935 81.0466 47.0525 81.1685 46.8869 81.2538C45.6997 81.7971 44.4463 82.1842 43.1583 82.4054C43.0721 82.4323 42.9787 82.4243 42.8983 82.3832C42.818 82.3422 42.7572 82.2713 42.7291 82.186C42.68 82.0093 42.8395 81.9118 42.9744 81.8631L46.6723 80.5957Z" fill="#2C3639"/>
<path d="M48.8313 80.5658C48.5798 80.5658 48.4572 80.5658 48.3897 80.4317C48.3699 80.399 48.357 80.3628 48.3516 80.325C48.3461 80.2873 48.3483 80.2488 48.358 80.2119C48.3677 80.175 48.3847 80.1404 48.4081 80.1102C48.4314 80.0799 48.4606 80.0546 48.494 80.0357C49.2257 79.4661 50.0325 78.9987 50.8918 78.6465C50.9747 78.6127 51.0672 78.6101 51.1519 78.6393C51.2366 78.6685 51.3076 78.7273 51.3517 78.8049C51.3832 78.8451 51.406 78.8912 51.4188 78.9405C51.4315 78.9898 51.434 79.0412 51.4259 79.0915C51.4179 79.1418 51.3995 79.1898 51.372 79.2328C51.3444 79.2757 51.3083 79.3126 51.2659 79.3411C50.5208 79.8684 49.7001 80.2813 48.8313 80.5658Z" fill="#2C3639"/>
<path d="M42.3979 80.6559C42.3672 80.9606 42.171 80.9606 41.9563 80.924C41.3799 80.8143 39.902 79.2606 39.8284 78.7001C39.8055 78.6284 39.8063 78.5513 39.8305 78.4801C39.8548 78.4089 39.9013 78.3472 39.9633 78.304C40.016 78.268 40.0798 78.2514 40.1435 78.2569C40.2073 78.2625 40.2672 78.2899 40.3128 78.3344C40.9874 79.0412 41.6497 79.7541 42.3182 80.467C42.3535 80.526 42.3804 80.5895 42.3979 80.6559V80.6559Z" fill="#2C3639"/>
<path d="M44.7348 23.9235C44.606 23.0096 44.4895 20.4627 44.3116 20.4688C44.1338 20.4749 43.9253 22.7902 43.6616 24.4902C43.3672 26.3973 43.2445 27.8292 40.3745 27.8962C39.9207 27.8962 40.1537 28.2983 40.3316 28.2983C43.821 28.3775 43.4776 29.8033 43.7352 31.6008C43.9195 32.8878 44.0382 34.1832 44.0908 35.4821C44.2348 35.5255 44.3884 35.5255 44.5324 35.4821C44.5324 35.4821 44.8083 31.2839 45.0536 29.846C45.256 28.67 46.7033 28.4446 47.8746 28.2252C47.936 28.2252 48.0095 27.8901 47.7765 27.8596C45.3664 27.5855 45.1824 27.0736 44.7348 23.9235Z" fill="#2C3639"/>
<path d="M26.9012 43.697C26.7725 42.7769 26.6559 40.2361 26.4781 40.2422C26.3002 40.2483 26.0917 42.5575 25.828 44.2636C25.5337 46.1646 25.4049 47.6026 22.541 47.6635C22.0872 47.6635 22.3202 48.0718 22.4981 48.0718C25.9875 48.1449 25.6379 49.5706 25.9016 51.3742C26.0862 52.6611 26.2049 53.9566 26.2573 55.2555C26.4013 55.2989 26.5549 55.2989 26.6989 55.2555C26.6989 55.2555 26.9748 51.0513 27.2201 49.6133C27.4164 48.4374 28.8698 48.218 30.0411 47.9986C30.1024 47.9986 30.1699 47.6575 29.9369 47.6331C27.5329 47.3528 27.3489 46.8592 26.9012 43.697Z" fill="#2C3639"/>
<path d="M50.6216 33.4778C50.5235 32.8076 50.4376 30.9492 50.3088 30.9492C50.1801 30.9492 50.0267 32.6492 49.8366 33.8982C49.6159 35.2935 49.5239 36.3355 47.4265 36.3903C47.0954 36.3903 47.261 36.6828 47.4265 36.6889C49.9777 36.7437 49.7263 37.7856 49.9225 39.1261C50.0451 39.9852 50.1556 41.1733 50.1801 41.9715C50.2842 42.0017 50.3948 42.0017 50.499 41.9715C50.499 41.9715 50.7013 38.925 50.8853 37.8405C51.0325 36.9813 52.1118 36.8168 52.952 36.6219C52.9949 36.6219 53.044 36.3781 52.8723 36.3599C51.0815 36.1588 50.9466 35.7749 50.6216 33.4778Z" fill="#2C3639"/>
<path d="M25.294 58.7337C25.2021 58.0635 25.1162 56.199 24.9874 56.2051C24.8586 56.2112 24.6992 57.8989 24.5091 59.148C24.2944 60.5433 24.2024 61.5853 22.099 61.6401C21.7678 61.6401 21.9395 61.9386 22.099 61.9386C24.6562 61.9935 24.4048 63.0354 24.5949 64.3759C24.7294 65.3173 24.8154 66.265 24.8525 67.2152C24.9582 67.2484 25.0718 67.2484 25.1775 67.2152C25.1775 67.2152 25.3799 64.1382 25.5577 63.0841C25.7049 62.225 26.7842 62.0605 27.6244 61.9021C27.6673 61.9021 27.7225 61.6523 27.5508 61.634C25.7601 61.4146 25.6191 61.0369 25.294 58.7337Z" fill="#2C3639"/>
</svg>
