<svg width="88" height="104" viewBox="0 0 88 104" fill="none" xmlns="http://www.w3.org/2000/svg">
<path d="M82.2589 62.2947C81.8693 64.066 81.6502 65.7029 81.2424 67.3215C80.4219 70.8034 79.2766 74.2001 77.8217 77.4666C77.2921 78.6454 76.72 79.7998 76.1722 80.9725C75.9774 81.3879 75.7096 81.7421 75.2166 81.7116C74.9867 81.6878 74.772 81.5858 74.608 81.4224C74.4441 81.259 74.3409 81.0442 74.3157 80.8137C74.1453 80.1357 73.9809 79.4578 73.7922 78.6638C73.3297 79.6777 72.9036 80.5939 72.5019 81.5223C71.1202 84.7167 69.0081 87.4225 66.8169 90.0733C66.1717 90.8612 65.5022 91.6369 64.8204 92.3943C64.5344 92.7119 64.2118 93.0051 63.7005 92.834C63.4882 92.7466 63.3083 92.5949 63.1861 92.4C63.0639 92.205 63.0054 91.9767 63.0188 91.7468C62.9701 91.0811 62.7631 90.4275 62.7205 89.6824C62.0205 90.4336 61.2597 91.1422 60.6389 91.9545C59.2578 93.6385 57.7346 95.1997 56.086 96.6209C55.9497 96.7743 55.7713 96.884 55.5732 96.9362C55.375 96.9883 55.166 96.9806 54.9721 96.9141C54.54 96.7431 54.473 96.3033 54.4669 95.9002C54.4608 95.497 54.4669 95.0451 54.4669 94.5442C54.1735 94.658 53.9196 94.8555 53.7365 95.1123C51.7889 97.1577 49.6395 98.9995 47.3211 100.609C47.1672 100.717 47.0066 100.815 46.8403 100.903C46.6698 101.018 46.4618 101.063 46.2592 101.029C46.0565 100.995 45.8746 100.884 45.7508 100.719C45.4221 100.298 45.6534 99.9375 45.9881 99.6748C46.7916 99.064 47.6194 98.4532 48.4228 97.8425C50.3523 96.4071 51.9349 94.5992 53.6452 92.9562C53.8765 92.7302 54.12 92.5103 54.333 92.266C54.4647 92.0917 54.6505 91.9665 54.8611 91.9101C55.0716 91.8537 55.2949 91.8693 55.4956 91.9545C55.9277 92.1194 55.9886 92.5653 55.9947 92.9745V94.2999C56.9138 93.4631 57.9059 92.6569 58.7946 91.7407C60.0119 90.4886 61.1258 89.1449 62.2944 87.85C62.4231 87.6556 62.6124 87.5094 62.8326 87.4342C63.0528 87.3591 63.2916 87.3593 63.5118 87.4347C63.7212 87.5319 63.8988 87.6869 64.0238 87.8816C64.1488 88.0762 64.2161 88.3025 64.2179 88.5341C64.3213 89.1449 64.3761 89.7557 64.4674 90.4581C65.5813 89.2365 66.5491 87.9722 67.5108 86.7262C69.5934 84.0172 71.2367 80.9953 72.3801 77.772C72.5323 77.3689 72.7636 77.0024 72.9462 76.6115C73.0214 76.4067 73.1617 76.2324 73.3454 76.1154C73.5291 75.9984 73.746 75.9452 73.9627 75.9641C74.1645 75.9968 74.3517 76.0903 74.4995 76.2321C74.6473 76.3738 74.7488 76.5573 74.7905 76.7581C75.0096 77.4117 75.1922 78.0774 75.4357 78.8898C76.3304 77.0574 77.0304 75.3289 77.6939 73.5759C79.1103 69.7433 80.1301 65.7747 80.7372 61.7327C80.741 61.6253 80.7573 61.5188 80.7859 61.4152C80.9563 60.8899 80.9381 60.1936 81.5954 60.0348C82.2528 59.876 82.691 60.3157 83.0441 60.8227C83.1354 60.9448 83.2388 61.1281 83.4153 61.0792C83.5919 61.0303 83.6101 60.8471 83.6405 60.6822C84.0849 58.1169 84.4562 55.5516 84.6631 52.9496C84.8457 50.647 84.584 48.3749 84.584 46.0966C84.5217 44.8908 84.3896 43.6895 84.1884 42.4991C84.155 42.2869 84.1367 42.0726 84.1336 41.8578C84.1336 40.8377 84.6449 40.4285 85.5822 40.8194C86.3187 41.1187 86.4709 40.9355 86.3857 40.2086C85.777 35.4872 85.2535 30.7659 83.7684 26.2216C83.2906 24.7099 82.6921 23.2392 81.9789 21.8239C81.8145 21.5124 81.5772 21.2131 81.8998 20.8711C82.0241 20.7104 82.1952 20.5924 82.3892 20.5333C82.5833 20.4742 82.7908 20.477 82.9832 20.5413C83.5371 20.7123 84.1092 20.8161 84.7422 20.9627C84.7103 20.6465 84.5603 20.3541 84.3223 20.1443C81.4728 16.9799 78.0687 14.3672 74.2792 12.4361C70.5567 10.573 66.5826 9.26629 62.4831 8.55764C62.0631 8.48435 61.4362 8.46603 61.3997 8.06902C61.3632 7.67201 62.0084 7.69034 62.3736 7.54375C62.8179 7.36052 63.2805 7.22613 63.8587 7.03068C62.0327 6.08396 60.3163 5.24718 58.3807 4.97233C55.8173 4.55249 53.2235 4.34818 50.6262 4.36154C50.3974 4.40065 50.1622 4.35375 49.9657 4.22979C49.7692 4.10584 49.6251 3.91353 49.561 3.68967C49.415 3.18883 49.7558 2.90176 50.121 2.63912C50.4727 2.39486 50.8063 2.12542 51.1192 1.83289C49.9317 2.35551 48.8552 3.10195 47.948 4.03173C47.3394 4.64252 46.5603 5.14946 46.3047 6.08396C46.2195 6.40157 45.8664 6.45654 45.556 6.426C45.2456 6.39546 45.0873 6.09007 44.9047 5.81522C43.7052 4.00344 41.9642 2.6199 39.9319 1.86342C40.3762 2.19936 40.8266 2.52307 41.2588 2.87122C41.5144 3.08499 41.7275 3.36596 41.5814 3.71411C41.5212 3.89584 41.4076 4.05501 41.2555 4.17059C41.1034 4.28618 40.9198 4.35276 40.7292 4.36154C40.2423 4.36154 39.7614 4.36154 39.2745 4.36154C36.1126 4.38177 32.9679 4.82964 29.9253 5.69305C29.0165 6.06388 28.1426 6.51565 27.3141 7.0429C28.0567 7.31165 28.6836 7.52542 29.2984 7.76363C29.4688 7.82471 29.7245 7.84302 29.7123 8.08123C29.7001 8.31944 29.4749 8.36831 29.3045 8.41106C28.6532 8.57597 28.008 8.72868 27.3506 8.85694C22.0167 9.89323 16.9489 12.0088 12.4564 15.0747C11.2899 15.9311 10.1742 16.855 9.11482 17.8416C8.00888 18.7922 7.00334 19.8545 6.11408 21.0116C6.83231 20.8589 7.50187 20.7612 8.14706 20.5779C8.34481 20.4926 8.56626 20.4801 8.7723 20.5427C8.97833 20.6053 9.1557 20.7389 9.27308 20.92C9.52873 21.2803 9.27308 21.5308 9.11482 21.8606C7.62358 24.9566 6.56861 28.2456 5.98019 31.6332C5.56629 34.0091 5.2376 36.4034 4.8724 38.7916C4.86033 39.4057 4.80335 40.0182 4.70196 40.624C4.59848 40.9721 4.81152 41.0454 5.12194 40.9171C5.31717 40.8271 5.52114 40.7575 5.73061 40.7095C6.50971 40.5323 6.94796 40.8499 6.91753 41.6562C6.87504 42.9721 6.76535 44.285 6.58886 45.5897C6.35756 47.2021 6.52188 48.8146 6.44884 50.4332C6.29667 53.8719 6.85057 57.2374 7.44707 60.6028C7.49463 60.7596 7.55361 60.9127 7.62357 61.0609C7.93585 60.9556 8.19823 60.738 8.36008 60.4501C8.96875 59.6378 9.99132 59.7782 10.2652 61.0609C10.5391 62.3435 10.7217 63.6506 10.9713 64.9455C11.9053 69.7328 13.4734 74.3732 15.6337 78.7432C16.0172 78.1324 16.005 77.4605 16.2424 76.9108C16.4311 76.5077 16.5345 75.9885 17.1189 75.9702C17.3771 75.9712 17.6283 76.0546 17.8362 76.2083C18.0441 76.362 18.1979 76.5781 18.2753 76.8253C18.744 77.882 19.2005 78.9447 19.6327 80.0136C20.7623 82.6599 22.2671 85.1286 24.1003 87.343C24.8652 88.4059 25.7053 89.4123 26.6141 90.3542C26.748 89.5968 26.8333 88.8883 27.0037 88.2043C27.235 87.2637 27.9776 87.0682 28.6714 87.7278C30.5461 89.5113 32.0678 91.6125 33.8938 93.4387C34.2043 93.7441 34.5025 94.3732 34.9164 94.2144C35.3303 94.0556 35.032 93.4387 35.0564 93.0295C35.0807 92.6202 35.1538 92.1011 35.6651 91.9239C35.9148 91.8514 36.1813 91.8635 36.4235 91.9585C36.6656 92.0535 36.8697 92.226 37.0041 92.4492C37.6128 93.2249 38.3737 93.8968 39.0736 94.5992C40.8134 96.3938 42.7304 98.0065 44.7951 99.4122C45.2577 99.7176 45.7447 100.096 45.3125 100.713C44.8804 101.33 44.4299 101.025 43.9674 100.713C42.3631 99.6827 40.8736 98.4828 39.5241 97.134C38.5058 96.2126 37.5385 95.2359 36.6268 94.2083C36.6268 94.9657 36.6268 95.491 36.6268 96.0407C36.6268 96.908 36.0181 97.2622 35.2755 96.7736C34.2882 96.0311 33.384 95.1833 32.5791 94.245C31.3618 92.9745 30.187 91.6246 28.988 90.3176C28.829 90.0768 28.5927 89.8979 28.3184 89.8106C28.0932 90.5069 28.288 91.2399 28.0689 91.9362C27.728 93.0295 27.0037 93.2799 26.2428 92.4065C22.9499 88.5707 19.6753 84.7167 17.8797 79.8731C17.7519 79.525 17.5571 79.1951 17.3502 78.7676C17.1341 79.3836 16.9712 80.017 16.8632 80.661C16.7232 81.1374 16.5406 81.6505 15.9807 81.6994C15.4207 81.7482 15.1468 81.3146 14.9094 80.8687C11.9949 75.3121 10.0145 69.3109 9.04788 63.107C8.9931 62.8509 8.92399 62.598 8.84091 62.3496C8.46354 62.4596 8.40267 62.7894 8.23224 62.9971C8.10096 63.1711 7.92322 63.3042 7.7196 63.381C7.51599 63.4577 7.29487 63.475 7.08188 63.4307C6.88692 63.3772 6.71171 63.2677 6.57768 63.1159C6.44365 62.964 6.3566 62.7763 6.32713 62.5756C5.71677 59.9878 5.28158 57.3616 5.02457 54.7148C4.78719 52.235 4.90283 49.7552 4.90892 47.2754C4.90892 45.7607 5.14629 44.2215 5.27411 42.719C4.9576 42.6335 4.70195 42.8106 4.42805 42.89C3.61243 43.1221 3.17419 42.78 3.10724 41.9127C3.0866 40.9722 3.1518 40.0317 3.30202 39.1031C3.60478 36.0558 4.07622 33.0277 4.71414 30.0329C5.17772 27.6278 5.91285 25.2836 6.90534 23.0455C6.96851 22.879 7.01738 22.7073 7.05142 22.5324C6.52598 22.479 5.99531 22.5459 5.49931 22.7279C5.18568 22.7966 4.86348 22.8172 4.5437 22.789C3.79503 22.6729 3.46029 22.0438 3.89245 21.4269C4.94124 19.8651 6.16675 18.4303 7.54448 17.1514C9.15593 15.6084 10.8994 14.2104 12.7547 12.9736C16.2825 10.7596 20.1127 9.07242 24.1247 7.96518L24.8916 7.75142C24.8916 7.67812 24.8916 7.60482 24.8611 7.58649C24.4655 7.31164 23.9603 7.07345 24.0029 6.51152C24.0455 5.9496 24.6116 5.77858 25.1046 5.59534C28.3488 4.31676 31.7455 3.46874 35.2086 3.07279C36.2118 3.06041 37.2104 2.93336 38.185 2.6941C37.7219 2.16593 37.1565 1.73784 36.5233 1.43588C36.2616 1.31984 35.9146 1.18546 35.9146 0.825098C35.9146 0.464733 36.3042 0.250949 36.6207 0.128792C37.2193 -0.00995956 37.8383 -0.036879 38.4467 0.0493865C41.0883 0.0493865 43.0604 1.49085 44.8743 3.18884C45.4829 3.74466 45.8482 3.75687 46.3838 3.18884C47.1726 2.41422 48.0514 1.7375 49.0011 1.17323C50.5654 0.128787 52.3244 0.0493805 54.1078 0.0432726C54.3525 0.0438767 54.5924 0.111457 54.8017 0.238729C55.4834 0.641848 55.5017 1.00222 54.8017 1.38701C54.0905 1.71983 53.4467 2.1816 52.9026 2.74907C54.4121 2.9262 55.8851 3.10333 57.352 3.26825C60.3954 3.61639 63.2988 4.6303 66.1656 5.71139C67.383 6.16337 67.3829 6.67031 66.0743 7.73919C66.9508 7.99572 67.7907 8.2095 68.6064 8.49047C72.8671 9.95025 77.006 11.7643 80.5789 14.5983C83.0479 16.4583 85.2266 18.6775 87.043 21.1826C87.2561 21.5063 87.5969 21.8423 87.3048 22.2759C87.1682 22.4809 86.973 22.6396 86.7449 22.7312C86.5167 22.8228 86.2663 22.8429 86.0265 22.789C85.5761 22.7218 85.1318 22.618 84.6875 22.5324C84.2432 22.4469 83.9753 22.5813 84.2127 23.1432C85.3558 25.8709 86.1731 28.7248 86.6474 31.6454C87.1039 34.1802 87.4874 36.7271 87.7491 39.2924C87.8282 40.117 87.816 40.9538 87.9682 41.7783C88.0144 41.9559 88.0099 42.143 87.9551 42.3181C87.9003 42.4933 87.7975 42.6494 87.6584 42.7685C87.5193 42.8877 87.3495 42.9652 87.1686 42.9921C86.9876 43.019 86.8028 42.9942 86.6352 42.9205C85.7709 42.6884 85.6735 42.7862 85.8074 43.6718C86.003 44.7005 86.0988 45.7457 86.0935 46.7929C86.0509 47.874 86.2579 48.9429 86.2518 50.0179C86.2165 54.1859 85.7267 58.3375 84.7909 62.3985C84.7552 62.6264 84.662 62.8414 84.5204 63.0231C84.3787 63.2048 84.1932 63.3472 83.9814 63.4369C83.5006 63.6201 83.1658 63.3086 82.8615 62.9849C82.7763 62.7589 82.5754 62.5818 82.2589 62.2947Z" fill="#2C3639"/>
<path d="M22.1893 34.1074C22.3365 34.7069 22.408 35.3225 22.4023 35.9398C22.4772 39.0399 22.9414 42.1181 23.784 45.1016C24.3657 46.9255 25.2216 48.6494 26.3222 50.2139C27.9473 52.7486 29.7186 55.1796 31.4594 57.6349C31.8002 58.1052 32.0681 58.6183 32.4089 59.1436C32.8411 57.8487 32.5306 56.505 32.835 55.2284C32.835 55.1002 32.835 54.9536 32.8715 54.8314C32.9628 54.5871 33.0176 54.2206 33.3219 54.2206C33.6262 54.2206 33.535 54.5993 33.5593 54.8314C33.675 55.7109 33.7176 56.6088 33.9002 57.4761C34.3019 59.4123 33.748 61.3424 33.9002 63.2786C33.9504 65.0252 34.3651 66.7418 35.1175 68.3176C35.5401 69.1019 36.1511 69.768 36.8951 70.2555C37.6391 70.7429 38.4926 71.0362 39.3782 71.1089C40.3449 71.3223 41.3386 71.3841 42.3241 71.2921C42.7517 71.2399 43.1521 71.054 43.4685 70.7607C44.5093 69.7591 44.5154 69.7224 43.365 68.9284C42.3302 68.2077 42.312 67.4319 43.365 66.7418C43.7911 66.4608 44.071 66.131 43.925 65.624C43.8865 65.4316 43.7762 65.2612 43.6167 65.1476C43.4572 65.0341 43.2604 64.986 43.0667 65.0132C42.4885 65.0132 42.2694 65.3797 42.2329 65.905C42.1699 66.2801 42.0056 66.6308 41.7581 66.9189C41.6819 67.0467 41.574 67.1525 41.4449 67.2259C41.3159 67.2994 41.17 67.338 41.0216 67.338C40.8732 67.338 40.7274 67.2994 40.5983 67.2259C40.4692 67.1525 40.3613 67.0467 40.2851 66.9189C39.5122 65.7258 39.243 64.2737 39.5365 62.8816C39.5753 62.7118 39.6591 62.5558 39.7791 62.4299C39.8991 62.3041 40.0509 62.2133 40.2182 62.167C41.4776 61.6195 42.8386 61.3468 44.2111 61.3668C46.3231 61.4096 48.4717 61.1775 50.4986 61.9776C51.7159 62.4663 52.0812 62.9243 51.9229 64.2192C51.8444 64.9754 51.6386 65.7127 51.3142 66.3997C51.0525 66.9372 50.7421 67.3526 50.036 67.2915C49.33 67.2304 49.2265 66.6807 48.9891 66.2104C48.9167 65.9799 48.8578 65.7453 48.8126 65.508C48.7468 65.3279 48.6197 65.1771 48.4537 65.0821C48.2877 64.9871 48.0936 64.954 47.9057 64.9888C47.7283 64.9974 47.5583 65.0627 47.4204 65.175C47.2825 65.2874 47.184 65.4409 47.1392 65.6134C47.0943 65.7858 47.1055 65.9681 47.1712 66.1337C47.2368 66.2993 47.3534 66.4396 47.5039 66.5341C47.5892 66.5952 47.6926 66.6318 47.784 66.6929C48.7578 67.3586 48.7944 68.0977 47.8692 68.8062C47.8327 68.8368 47.7779 68.8612 47.7352 68.8979C47.4553 69.1727 46.8162 69.2216 46.8649 69.6247C46.9269 69.9016 47.0506 70.1608 47.2266 70.3829C47.4026 70.605 47.6264 70.7843 47.8813 70.9073C48.5415 71.2656 49.3026 71.3904 50.0421 71.2616C51.1653 71.2006 52.2761 70.9953 53.3472 70.6508C55.5019 69.8324 56.3236 67.9939 56.841 65.9416C57.3584 63.8894 57.1149 61.9776 57.1575 59.9865C57.2977 58.0798 57.5621 56.1843 57.9488 54.3122C58.6244 55.8636 58.3018 57.5372 58.6305 59.1008C60.8156 55.7293 63.3538 52.5654 65.4598 49.1022C66.6525 47.0092 67.5129 44.7425 68.0101 42.3836C68.6363 39.706 68.9669 36.9675 68.9961 34.2174C69.5439 34.9075 69.4039 35.6283 69.4892 36.2635C70.2915 41.3974 69.0998 46.6444 66.1597 50.9224C64.4129 53.4999 62.6477 56.0652 60.8278 58.5938C59.9419 59.8811 59.266 61.3016 58.8253 62.8022C58.5148 63.7794 58.6061 64.8728 58.4235 65.9111C58.1413 67.9584 57.1188 69.8301 55.5506 71.17C55.4182 71.2622 55.3054 71.3798 55.2186 71.5161C55.1319 71.6524 55.073 71.8047 55.0454 71.964C54.8141 74.3033 53.2985 75.6837 51.3934 76.6182C47.1327 78.7071 42.872 78.5849 38.7513 76.0563C38.0211 75.6471 37.3965 75.0722 36.9272 74.3775C36.458 73.6829 36.1571 72.8877 36.0488 72.0556C36.0543 71.9225 36.0291 71.7898 35.9753 71.668C35.9215 71.5462 35.8404 71.4385 35.7383 71.3532C33.6201 69.7713 32.7315 67.4808 32.5306 64.9949C32.2872 61.941 30.942 59.4978 29.2012 57.1036C27.01 54.1107 24.7944 51.13 23.1814 47.7707C21.6498 44.6335 21.0558 41.1185 21.4711 37.65C21.5928 36.6422 21.6598 35.6222 21.8241 34.596C21.8911 34.4372 21.8789 34.2113 22.1893 34.1074ZM53.3289 72.4343C50.4986 72.7519 47.5953 73.9063 45.6049 70.7058C45.4825 70.8238 45.3686 70.9503 45.264 71.0844C44.9174 71.668 44.4197 72.1465 43.8239 72.4691C43.228 72.7918 42.5562 72.9464 41.8798 72.9168C40.9424 72.9175 40.007 72.8296 39.086 72.6542C38.6782 72.5748 38.0513 72.2755 37.9113 72.5503C37.6678 73.0145 38.1609 73.4726 38.4591 73.8757C38.5759 74.0245 38.7108 74.1579 38.8608 74.2728C42.4641 77.2595 48.49 77.229 51.9899 74.4926C52.3513 74.2708 52.659 73.971 52.8906 73.6149C53.1222 73.2589 53.272 72.8556 53.3289 72.4343V72.4343Z" fill="#2C3639"/>
<path d="M64.2852 16.4176C65.186 16.6803 65.9468 17.0284 66.7503 17.2055C66.8931 17.2502 67.0446 17.2596 67.1919 17.233C67.3392 17.2064 67.4779 17.1446 67.5963 17.0528C70.5301 15.1166 73.683 14.7563 76.836 16.2099C77.9125 16.6932 78.8391 17.4589 79.5182 18.4263C80.1974 19.3938 80.6039 20.5272 80.6949 21.707C81.048 24.6938 79.8002 27.0026 77.609 28.9143C76.7591 29.6569 75.8279 30.3003 74.8334 30.8322C74.7664 30.8578 74.7051 30.8966 74.6531 30.9463C74.6011 30.9959 74.5595 31.0554 74.5306 31.1213C74.5017 31.1872 74.4862 31.2582 74.4849 31.3302C74.4836 31.4022 74.4965 31.4738 74.523 31.5407C74.6874 32.3592 74.7847 33.1837 74.9308 33.9838C74.9734 34.2221 74.9978 34.4786 74.7786 34.5458C74.5595 34.613 74.4622 34.3137 74.3769 34.1427C73.6952 32.6523 72.8735 31.2353 72.2831 29.69C71.5818 28.0633 70.7683 26.4878 69.8484 24.9747C68.7526 22.819 67.5036 20.7451 66.1112 18.7691C65.746 18.2988 65.3016 17.9079 64.8938 17.4743C64.5766 17.2022 64.3618 16.8293 64.2852 16.4176ZM73.0013 16.9673C71.499 16.9101 70.0144 17.3081 68.7406 18.1095C68.4241 18.2988 67.9737 18.4821 68.2354 19.0379C68.4972 19.5937 68.8806 19.3921 69.2519 19.2456C70.6587 18.6798 72.2223 18.6451 73.6526 19.1478C75.9717 19.9419 76.976 21.7803 76.5134 24.1868C76.1835 25.7862 75.2444 27.1932 73.8961 28.1081C73.3483 28.5173 73.6465 28.8655 73.7987 29.2136C73.9509 29.5617 74.3039 29.3602 74.5352 29.2136C76.1441 28.3782 77.4889 27.1091 78.4185 25.5489C79.3376 23.8814 79.6358 22.1041 78.7289 20.3083C77.615 18.0545 75.789 16.8757 73.0196 16.9673H73.0013Z" fill="#2C3639"/>
<path d="M16.2002 33.8146C16.322 33.2039 16.4072 32.4465 16.6019 31.7563C16.6433 31.6662 16.6658 31.5684 16.6678 31.4692C16.6698 31.37 16.6514 31.2714 16.6137 31.1797C16.576 31.0879 16.5198 31.005 16.4486 30.936C16.3775 30.8671 16.2929 30.8136 16.2002 30.779C14.3064 29.7984 12.698 28.3422 11.5317 26.5524C10.8149 25.477 10.4062 24.2247 10.3503 22.9321C10.2945 21.6396 10.5937 20.3565 11.2152 19.2229C11.7997 18.0443 12.7066 17.0571 13.8298 16.3768C14.953 15.6964 16.246 15.3511 17.5576 15.3811C19.7689 15.2239 21.9648 15.8532 23.7599 17.1585C23.8419 17.2316 23.9446 17.2773 24.0536 17.2893C24.1626 17.3014 24.2727 17.2791 24.3686 17.2257C25.032 16.9447 25.732 16.7493 26.4198 16.5294C26.5598 16.4866 26.7485 16.3889 26.8398 16.5966C26.9311 16.8042 26.7728 16.847 26.6815 16.9386C25.9677 17.6433 25.3122 18.4053 24.7216 19.2168C23.6122 20.8032 22.6272 22.4736 21.7756 24.2131C20.6861 26.247 19.3714 28.1771 18.6106 30.3698C18.1541 31.6891 17.3628 32.813 16.7846 34.0712C16.7054 34.2483 16.6385 34.5476 16.3767 34.4865C16.115 34.4254 16.255 34.0895 16.2002 33.8146ZM11.9395 22.4296C11.9085 23.688 12.2656 24.9252 12.9621 25.9721C13.8386 27.4014 15.1655 28.2931 16.5107 29.1788C16.7906 29.362 17.0767 29.6552 17.3628 29.1421C17.6488 28.6291 17.7219 28.397 17.1985 28.0732C16.1356 27.3728 15.3265 26.3466 14.8916 25.1476C13.7534 22.4479 15.0072 19.7543 17.7523 19.0397C19.1582 18.6258 20.6633 18.7121 22.013 19.284C22.5 19.4978 22.786 19.3817 22.9565 18.9237C23.1269 18.4656 22.713 18.3495 22.4817 18.1846C20.9844 17.1402 19.2801 16.9325 17.5028 16.963C16.7788 16.9517 16.0598 17.0845 15.3873 17.3538C14.7148 17.6231 14.1021 18.0235 13.5848 18.5318C13.0675 19.0401 12.6557 19.6464 12.3733 20.3154C12.0909 20.9844 11.9435 21.703 11.9395 22.4296Z" fill="#2C3639"/>
<path d="M63.9623 25.8249C61.838 23.9926 59.3242 23.1802 56.9321 22.2091C54.7561 21.4265 52.4298 21.1569 50.1333 21.4212C48.709 21.5189 47.3334 21.8609 45.9274 21.9586C44.2596 22.0747 42.6648 21.47 40.991 21.4028C38.4711 21.3051 35.9877 21.4028 33.6869 22.4473C31.3862 23.4917 29.1219 24.2308 27.1255 26.0631C27.1347 25.787 27.2018 25.5159 27.3224 25.2676C27.443 25.0192 27.6144 24.7991 27.8254 24.6217C30.5645 22.0442 33.6444 20.2362 37.5216 19.9064C40.0839 19.7381 42.657 19.9438 45.1604 20.5172C45.4474 20.5784 45.7439 20.5784 46.0308 20.5172C48.0637 20.0399 50.1454 19.8041 52.2332 19.8148C55.8052 19.8223 59.2578 21.1064 61.9719 23.4368C62.5197 23.9132 63.0614 24.3896 63.5727 24.9088C63.7073 25.0179 63.8132 25.1585 63.8811 25.3182C63.949 25.4779 63.9769 25.6519 63.9623 25.8249V25.8249Z" fill="#2C3639"/>
<path d="M31.6724 36.7828C32.7165 36.7471 33.7552 36.9483 34.711 37.3713C35.6668 37.7943 36.5152 38.4283 37.1931 39.2259C37.4067 39.4871 37.5537 39.7965 37.6216 40.1274C37.6895 40.4583 37.6761 40.8009 37.5826 41.1255C37.1992 43.4342 36.1462 45.5109 35.1967 47.6181C35.1236 47.7708 35.0445 48.009 34.7949 47.8808C34.5454 47.7525 34.6367 47.5693 34.6793 47.3799C35.0019 45.8835 35.288 44.381 35.6471 42.9028C35.7992 42.2921 35.6897 42.1271 35.0384 42.231C31.6907 42.8051 29.2986 41.3514 27.497 38.6395C27.2961 38.3342 27.1744 38.0593 27.6309 37.8822C29.0308 37.3569 30.3455 36.6117 31.6724 36.7828ZM29.2377 38.9022C29.8829 39.3114 30.382 39.6168 30.8751 39.9405C31.5371 40.4026 32.2996 40.6991 33.099 40.8053C33.8984 40.9115 34.7115 40.8245 35.4705 40.5513C35.9818 40.3803 36.0062 40.1665 35.6471 39.8306C35.4523 39.6535 35.221 39.513 35.0384 39.342C34.8558 39.1709 34.6184 39.1587 34.3932 39.4397C33.5654 40.4963 32.3237 40.3437 31.8672 39.0366C31.569 38.1876 31.1429 38.3097 30.5586 38.4991L29.2377 38.9022Z" fill="#2C3639"/>
<path d="M56.3722 47.8317C56.1022 47.62 55.9113 47.323 55.8305 46.9889C55.1487 45.3458 54.4549 43.7089 53.8279 42.0476C53.1462 40.2152 53.4931 39.2074 55.1 38.108C56.1395 37.36 57.3578 36.9015 58.6311 36.7792C59.9045 36.6569 61.1873 36.8751 62.3493 37.4117C62.4772 37.4667 62.5928 37.5278 62.7206 37.5766C64.3275 38.1874 64.2545 38.1874 63.1649 39.4701C61.2841 41.6994 58.9042 42.7622 55.9765 42.2064C55.4226 42.1026 55.3131 42.2064 55.4531 42.75C55.7939 44.1548 56.0618 45.5779 56.3783 46.9889C56.4332 47.1227 56.461 47.2662 56.4599 47.4109C56.4589 47.5557 56.4291 47.6987 56.3722 47.8317V47.8317ZM61.8502 38.957C61.256 38.6068 60.5897 38.3978 59.9025 38.3462C59.6347 38.3462 59.4338 38.3462 59.4216 38.7066C59.4027 39.0474 59.2648 39.3706 59.0322 39.6196C58.7996 39.8686 58.4871 40.0276 58.1495 40.0686C57.8844 40.1292 57.6067 40.099 57.3607 39.9827C57.1147 39.8665 56.9145 39.671 56.7922 39.4273C56.5791 39.1158 56.3478 39.0669 56.0739 39.3479C55.8 39.6289 55.6966 39.7327 55.5018 39.916C55.1914 40.2213 55.3679 40.3923 55.6722 40.4901C56.4968 40.8115 57.3925 40.9043 58.2651 40.7588C59.5616 40.4779 60.6329 39.7327 61.8502 38.957Z" fill="#2C3639"/>
<path d="M38.6478 13.5792C36.5332 12.9518 34.28 12.9731 32.1776 13.6403C30.5895 14.0654 29.0691 14.7131 27.6613 15.5643C27.43 15.7047 27.1195 16.0224 26.8882 15.7109C26.6569 15.3994 27.0282 15.1733 27.2413 14.9901C28.5743 13.8528 30.1171 12.9895 31.7819 12.4493C32.0376 12.3637 32.2871 12.2904 32.7071 12.1622C31.9224 12.0738 31.128 12.1423 30.3698 12.3637C27.4489 13.0126 24.6583 14.1525 22.1162 15.7353C21.6293 16.0223 21.1241 16.2728 20.6189 16.5354C20.3815 16.6576 20.0894 16.8164 19.8824 16.5354C19.6755 16.2544 19.9129 15.9796 20.1259 15.778C21.023 15.0018 22.0174 14.3467 23.084 13.8296C26.0239 12.2538 29.0673 10.9895 32.4576 10.849C33.0203 10.7891 33.5889 10.8158 34.1436 10.9284C37.2478 11.8507 40.4981 12.4065 43.1337 14.5198C43.7861 14.9711 44.4672 15.3792 45.1727 15.7414C44.4577 14.2259 43.355 12.9276 41.9772 11.9789C38.7634 9.60298 35.2088 9.00442 31.3437 9.71904C29.8838 9.9489 28.4388 10.265 27.0161 10.6657C26.8182 10.7276 26.614 10.7666 26.4074 10.7818C26.2491 10.7818 26.0665 10.7818 26.0239 10.568C25.9813 10.3542 26.0848 10.3176 26.2004 10.2382C26.2648 10.1884 26.3342 10.1454 26.4074 10.1099C29.9559 8.36919 33.6627 7.55074 37.5826 8.39974C40.0903 8.93723 42.1659 10.3543 44.0284 12.0645C44.211 12.2294 44.3754 12.4065 44.5519 12.5714C44.5823 12.5714 44.6432 12.608 44.8014 12.663C44.8761 11.36 44.4391 10.0795 43.5841 9.09602C42.8721 8.26536 41.9933 7.59495 41.0052 7.12867C40.0171 6.66239 38.9421 6.41076 37.8504 6.39024C35.287 6.36245 32.7262 6.56687 30.1994 7.00103C28.9909 7.09516 27.7753 7.02944 26.5839 6.80557C26.2735 6.76282 25.89 6.68342 25.9022 6.26198C25.9144 5.84054 26.3404 5.80999 26.6387 5.77945C27.8134 5.64508 29.0003 5.74892 30.1811 5.59623C32.3337 5.27012 34.5052 5.08446 36.6818 5.04041C39.8042 5.04041 42.4946 5.95658 44.5945 8.33865C44.7078 8.41872 44.8257 8.49213 44.9475 8.55853C44.9397 7.23824 44.5134 5.9547 43.7302 4.89381C43.0419 4.02337 42.1793 3.30757 41.1981 2.7927C40.5222 2.40099 39.8896 1.93827 39.3112 1.41233C39.0982 1.21077 38.873 0.95423 39.086 0.636621C39.299 0.319012 39.6216 0.416741 39.8833 0.56333C42.1659 1.83377 44.5397 3.00649 45.5927 5.71228C45.7022 5.62677 45.7875 5.59621 45.8118 5.54124C46.5429 3.92978 47.7898 2.60979 49.3543 1.79102C50.0786 1.38179 50.7968 0.954239 51.5272 0.569443C51.7707 0.441178 52.069 0.373989 52.2637 0.642735C52.4585 0.911481 52.3124 1.21076 52.0811 1.41843C51.2809 2.10738 50.419 2.72077 49.5064 3.25079C48.6491 3.76618 47.9208 4.47182 47.3774 5.31354C46.834 6.15525 46.49 7.1107 46.3718 8.10655C46.359 8.29364 46.359 8.4814 46.3718 8.66848C46.8831 8.18596 47.3213 7.74009 47.7961 7.33086C49.4884 5.92266 51.6057 5.13046 53.8037 5.08315C56.331 5.03356 58.8575 5.21758 61.3512 5.63287C62.2094 5.74892 63.0676 5.71227 63.932 5.74281C64.2272 5.74187 64.5222 5.76229 64.8145 5.80389C65.0945 5.85886 65.4232 5.90772 65.4597 6.29251C65.4962 6.67731 65.1432 6.7506 64.8511 6.80557C63.1832 7.12007 61.4733 7.13868 59.7991 6.86054C57.2363 6.33587 54.6023 6.26148 52.0142 6.64067C50.5204 6.86521 49.153 7.61 48.1514 8.74457C47.1499 9.87914 46.5781 11.3312 46.5362 12.8463C47.0718 12.3637 47.5404 11.924 48.0335 11.5025C52.3611 7.79505 57.2183 7.26367 62.459 9.12657C63.2198 9.39532 63.9685 9.6885 64.705 10.0244C64.985 10.1466 65.5449 10.2138 65.3441 10.6352C65.1432 11.0567 64.7354 10.7879 64.3946 10.6902C62.9735 10.2863 61.5306 9.9641 60.073 9.72513C57.9451 9.23852 55.7297 9.29317 53.6282 9.88411C51.5267 10.475 49.6056 11.5836 48.0396 13.1089C47.2579 13.7184 46.6889 14.561 46.4144 15.5154C47.0429 15.2723 47.6381 14.9501 48.1856 14.5565C49.8188 13.2635 51.7334 12.3762 53.7732 11.9667C53.9053 11.9439 54.0341 11.9049 54.1567 11.8507C57.5531 10.2687 60.9312 10.7329 64.2728 12.0034C66.6343 12.8379 68.8614 14.0149 70.883 15.4971C71.2056 15.7414 71.7778 16.0162 71.4917 16.4804C71.2056 16.9446 70.7126 16.5415 70.3717 16.3522C67.937 14.9596 65.4415 13.5792 62.7025 12.7913C61.4216 12.3667 60.0828 12.1442 58.7339 12.1316C60.2132 12.575 61.6214 13.2291 62.9155 14.0739C63.4038 14.3618 63.8538 14.7107 64.2546 15.1123C64.4007 15.2589 64.5893 15.4543 64.4189 15.6742C64.2485 15.8941 64.0233 15.7414 63.8468 15.6376C62.6451 14.9155 61.3671 14.3296 60.0365 13.8907C57.7763 13.0593 55.3258 12.8961 52.9759 13.4204C52.8434 13.4531 52.7178 13.5089 52.6046 13.5853C56.4331 13.6891 59.6713 15.2161 62.5138 17.6837C62.7891 17.9397 63.0436 18.2175 63.2746 18.5144C63.322 18.563 63.3515 18.6265 63.3581 18.6942C63.3647 18.762 63.3482 18.8299 63.3111 18.8869C63.1894 19.0518 63.025 19.0152 62.879 18.9236C62.4712 18.6609 62.0694 18.3922 61.6616 18.1174C59.1839 16.369 56.2867 15.3148 53.2681 15.0634C50.909 14.952 48.5725 15.568 46.5727 16.8286C46.0675 17.1218 45.611 17.36 45.0145 16.9874C40.7538 14.2999 36.3957 14.642 32.0132 16.7186C30.9201 17.2969 29.8632 17.9415 28.8482 18.6487C28.5925 18.8075 28.2882 19.3084 27.9838 18.9114C27.6795 18.5144 28.1603 18.27 28.4099 18.044C30.1721 16.3623 32.2842 15.0939 34.594 14.3305C35.9117 13.9236 37.2721 13.6715 38.6478 13.5792V13.5792Z" fill="#2C3639"/>
<path d="M46.0617 96.4017C46.1025 93.4763 45.6349 90.5661 44.68 87.8018C44.4426 87.0872 44.2175 86.3665 44.0166 85.6396C43.9496 85.4137 43.9192 85.1144 44.2114 85.0289C44.5035 84.9433 44.6252 85.1999 44.7165 85.4198C46.0104 88.3237 46.8324 91.4168 47.1512 94.5816C47.2121 95.2962 47.2547 96.0108 47.3217 96.8476C48.0189 94.2613 48.1825 91.5593 47.8025 88.9073C47.4799 86.3115 46.8043 83.7645 46.7312 81.1381C46.6495 80.2771 46.7091 79.4084 46.9078 78.5667C47.0127 78.2336 47.1471 77.9107 47.3095 77.6017C47.4191 77.3818 47.6017 77.168 47.8816 77.2536C48.1616 77.3391 48.1129 77.5956 48.119 77.8094C48.1373 77.9697 48.1373 78.1315 48.119 78.2919C47.6808 81.0404 48.2042 83.7218 48.679 86.4031C48.9468 87.8873 49.0868 89.3899 49.2877 90.8985C49.6176 89.3998 49.791 87.8707 49.8051 86.3359C49.9451 83.4042 49.8355 80.4479 50.6329 77.5772C50.7607 77.1131 50.9067 76.6488 51.0772 76.1969C51.1867 75.9159 51.345 75.5861 51.7224 75.7693C52.0997 75.9526 51.9598 76.203 51.8928 76.4717C51.5168 77.8234 51.2702 79.2081 51.1563 80.6068C51.0711 82.2498 50.9372 83.8928 50.8885 85.5358C50.8337 87.5087 50.5902 89.457 50.3589 91.4238C50.6085 90.2755 50.8763 89.1334 51.1076 87.9851C51.9658 83.7096 52.3858 79.3974 53.2014 75.1586C53.2672 74.814 53.3526 74.4734 53.4571 74.1385C53.524 73.9186 53.5788 73.601 53.9075 73.6804C54.2362 73.7598 54.2118 74.0469 54.1936 74.2912C54.1205 75.1219 54.0475 75.9587 53.9257 76.7832C53.2379 81.5352 52.7084 86.3115 51.6858 91.0084C51.0224 94.0624 50.1033 97.0125 48.0338 99.474C47.504 100.147 46.8245 100.687 46.0495 101.05C45.3983 101.349 45.1426 101.05 44.9965 100.494C44.8999 100.156 44.8508 99.8069 44.8505 99.4556C44.8992 97.1163 44.1931 94.9297 43.5297 92.737C42.8053 90.3366 41.9836 87.9606 41.3384 85.5358C40.5958 82.769 40.6628 79.9288 40.888 77.0947C40.9064 76.8862 40.9514 76.681 41.0219 76.484C41.0889 76.2702 41.2045 76.0747 41.4724 76.1114C41.7402 76.148 41.7888 76.374 41.801 76.6C41.8436 77.5162 41.9289 78.4324 41.9228 79.3485C41.9146 82.2637 42.4151 85.1577 43.4018 87.8996C44.464 90.6753 45.3523 93.5149 46.0617 96.4017V96.4017Z" fill="#2C3639"/>
<path d="M74.8031 73.7656C74.4805 73.9611 74.5596 74.6818 74.091 74.4925C73.6223 74.3031 73.8475 73.729 73.8962 73.3259C74.3162 69.4107 74.8822 65.5078 74.6449 61.5499C74.4562 58.3494 74.2735 55.1489 73.7805 51.9728C73.7254 51.5678 73.695 51.1599 73.6892 50.7512C73.6892 50.5069 73.6892 50.2076 74.0118 50.177C74.3344 50.1465 74.3588 50.4458 74.4197 50.6779C74.8461 52.2674 75.1553 53.8863 75.3448 55.5214C75.7833 59.0786 75.9522 62.664 75.85 66.2468C75.85 66.8576 75.7648 67.4318 75.7648 68.0242C76.2382 66.1964 76.5337 64.3268 76.6474 62.4417C76.7316 60.5578 76.6909 58.6704 76.5256 56.7919C76.5104 56.6579 76.5104 56.5227 76.5256 56.3887C76.5622 56.1872 76.5256 55.9184 76.8361 55.894C77.1465 55.8696 77.1648 56.1261 77.2256 56.3277C77.5039 57.4532 77.653 58.6069 77.6699 59.7664C77.8647 63.1441 77.25 66.4362 76.6291 69.7222C76.3055 71.3074 76.0758 72.9105 75.9413 74.523C76.8361 70.7117 78.1204 66.9981 78.5647 63.0891C79.5325 54.4709 77.7186 46.3657 74.1336 38.5721C72.8127 35.7075 71.5772 32.8002 70.2989 29.9172C70.2497 29.8213 70.2089 29.7211 70.1772 29.618C70.1163 29.3981 69.9094 29.1354 70.1772 28.9644C70.445 28.7934 70.6154 29.0805 70.7372 29.2698C71.1541 29.8666 71.5303 30.4911 71.8632 31.1388C73.6892 35.054 75.6978 38.8714 77.2134 42.9209C78.7974 47.2344 79.713 51.7662 79.9281 56.3582C80.2142 61.5743 79.2829 66.6072 77.9073 71.5974C77.0552 74.6879 76.3978 77.8335 75.8561 80.9974C75.8074 81.2783 75.7831 81.6875 75.4118 81.6509C75.0405 81.6142 75.0161 81.1745 74.9979 80.8691C74.8579 78.6703 74.4927 76.4714 74.8153 74.2543C74.8199 74.0913 74.8159 73.9282 74.8031 73.7656V73.7656Z" fill="#2C3639"/>
<path d="M16.5345 73.4657C16.7362 76.0111 16.6628 78.571 16.3154 81.1005C16.3154 81.3326 16.3154 81.6442 15.9928 81.6747C15.6702 81.7052 15.5789 81.3876 15.5363 81.125C14.7024 75.7562 12.9738 70.5889 11.9939 65.2445C10.9738 59.3218 11.2312 53.2484 12.7486 47.434C13.7006 43.8891 15.0056 40.4493 16.6441 37.1667C17.7154 34.8945 18.8171 32.6468 19.9188 30.393C20.0708 30.0773 20.2522 29.7767 20.4605 29.4952C20.6431 29.2569 20.7891 28.7928 21.1665 29.0126C21.5439 29.2325 21.2274 29.5562 21.1179 29.8189C20.6127 31.0404 20.1074 32.262 19.5718 33.4836C18.2023 36.5925 16.6928 39.6403 15.4876 42.8164C14.0419 46.7156 13.1089 50.7871 12.7121 54.9283C12.1034 60.8102 13.1503 66.4783 14.7877 72.0853C15.0007 72.7938 15.1589 73.5268 15.3963 74.2353C15.1808 72.0369 14.8394 69.8528 14.3738 67.6938C13.6265 64.2844 13.4823 60.7698 13.9477 57.3104C14.0268 56.8095 13.9477 55.9117 14.5564 55.9911C15.232 56.0827 14.8729 56.9439 14.8242 57.4387C14.4994 60.8861 14.7587 64.3638 15.5911 67.7243C15.5911 67.3212 15.5911 66.9181 15.5911 66.5027C15.5911 66.0874 15.4816 65.6415 15.4876 65.214C15.5424 60.4376 15.725 55.6674 16.8876 51.001C16.9667 50.6895 16.9302 50.1398 17.3623 50.1947C17.7945 50.2497 17.6484 50.8055 17.618 51.0926C17.4597 52.9249 17.2467 54.684 17.0763 56.4858C16.5334 61.1777 16.5722 65.9189 17.1919 70.6011C17.3502 71.6334 17.3989 72.69 17.5023 73.7345C17.5023 74.0215 17.6484 74.4124 17.271 74.4918C16.8937 74.5712 16.845 74.1681 16.7293 73.881C16.6319 73.7711 16.5893 73.6123 16.5345 73.4657Z" fill="#2C3639"/>
<path d="M29.1767 88.2706C28.7263 86.5115 28.1481 84.8136 27.7828 83.0484C27.1161 79.6067 26.7091 76.1193 26.5655 72.6161C26.4032 70.517 26.3747 68.4095 26.4803 66.3067C26.4803 65.8853 26.3768 65.1279 26.8577 65.134C27.4359 65.134 27.2776 65.8853 27.302 66.3556C27.6489 72.1703 27.868 78.0033 29.2375 83.6958C29.9635 86.9717 31.211 90.1086 32.9322 92.9859C33.0844 93.2363 33.4496 93.5967 33.1331 93.8349C32.8165 94.0731 32.5244 93.6455 32.3113 93.4134C31.6871 92.6455 31.1254 91.8285 30.6314 90.9703C30.4671 90.7321 30.388 90.5122 29.9801 90.5122C29.4567 90.5122 29.2071 89.9869 28.9089 89.6143C27.1939 87.3482 26.0083 84.7244 25.4394 81.9367C24.3925 77.4841 23.6621 72.9887 23.8812 68.3956C24.0152 65.5432 24.2586 62.6909 24.5447 59.8446C24.9568 56.3299 24.9179 52.7766 24.4291 49.2719C24.3804 48.9604 24.216 48.5511 24.6299 48.4351C25.0438 48.319 25.1168 48.7588 25.2386 49.0459C25.6375 50.1792 25.8732 51.3639 25.9386 52.564C26.1304 55.2273 26.0631 57.9029 25.7377 60.5531C25.342 64.6393 24.8917 68.7254 25.196 72.8299C25.549 77.5513 26.3099 82.2055 28.2698 86.5726C28.4828 87.0429 28.7202 87.4949 28.9515 87.953C29.019 88.0641 29.0942 88.1702 29.1767 88.2706V88.2706Z" fill="#2C3639"/>
<path d="M62.0573 88.3945C63.1292 86.696 63.934 84.8419 64.4433 82.8975C65.7942 78.1967 66.3961 73.3112 66.2267 68.4218C66.0441 64.8731 65.618 61.3306 65.3806 57.788C65.1216 55.1313 65.2922 52.4499 65.8858 49.8478C65.9257 49.6644 65.9807 49.4846 66.0502 49.3103C66.2084 48.9682 66.2328 48.3452 66.7319 48.4796C67.231 48.614 66.9875 49.182 66.9267 49.5546C66.318 53.2193 66.5127 56.884 66.878 60.5182C67.2918 64.5677 67.7301 68.6356 67.4075 72.734C67.0301 77.4737 66.3058 82.1706 64.3641 86.5744C63.7993 87.8015 63.0681 88.9443 62.1912 89.9704C61.9477 90.2758 61.6982 90.6361 61.2112 90.5812C60.9191 90.5445 60.8764 90.8132 60.7669 90.9782C60.3347 91.6317 59.9391 92.3036 59.4948 92.951C59.2576 93.2766 58.9929 93.5812 58.7035 93.8611C58.5696 93.9894 58.3748 94.0871 58.1983 93.9283C58.0218 93.7695 58.1374 93.629 58.1983 93.4824C58.2592 93.3358 58.2957 93.293 58.3505 93.1953C61.266 88.3945 62.5564 83.0807 63.2198 77.5653C63.6256 73.9739 63.8934 70.3723 64.0233 66.7605C64.0191 66.4896 64.0457 66.2191 64.1024 65.9542C64.1694 65.6733 64.1024 65.1724 64.5224 65.2152C64.9424 65.2579 64.8632 65.7099 64.8876 66.0153C65.0318 68.897 64.9687 71.7854 64.6989 74.658C64.512 77.9501 64.0416 81.2198 63.2929 84.4305C62.9398 85.6949 62.4955 87.0142 62.0573 88.3945Z" fill="#2C3639"/>
<path d="M26.3832 28.2367C25.3598 29.2697 24.7271 30.6282 24.5937 32.0785C24.545 32.4023 24.6424 33.0192 24.1372 32.9459C23.632 32.8726 23.8937 32.3351 23.8389 31.9564C23.531 33.2607 23.3859 34.5984 23.4068 35.9387C23.4068 36.4274 23.4068 36.9099 23.4068 37.3985C23.4068 37.5878 23.3641 37.8138 23.1511 37.8505C22.9381 37.8871 22.8224 37.6184 22.7798 37.4229C22.6714 36.6749 22.6388 35.9177 22.6825 35.163C22.6825 34.7355 22.6825 34.3079 22.6825 33.7154C22.2797 34.1216 21.941 34.5871 21.6781 35.0958C19.1174 39.693 17.2488 44.6451 16.1331 49.7914C15.841 51.0801 15.4514 52.3384 15.2688 53.6515C15.2688 53.9081 15.2688 54.3845 14.8671 54.3356C14.4654 54.2868 14.581 53.8104 14.6054 53.5233C14.8237 50.8618 15.3132 48.2298 16.0662 45.6686C17.8962 39.4744 20.7993 33.6522 24.6424 28.4688C26.158 26.4104 27.5336 24.2483 29.0187 22.1655C29.9371 20.7235 31.2318 19.5616 32.7621 18.8061C33.182 18.6229 33.8029 18.1954 34.0524 18.7023C34.302 19.2093 33.529 19.3131 33.182 19.5086C31.6482 20.4431 30.2361 21.6768 29.6335 23.2771C28.5926 26.0256 26.864 28.4932 26.3953 31.4678C26.3345 31.8526 26.2736 32.5794 25.8354 32.4756C25.2815 32.3473 25.6102 31.706 25.6893 31.2906C25.8962 30.3073 26.1336 29.3422 26.3832 28.2367Z" fill="#2C3639"/>
<path d="M67.6023 31.9331C67.3589 32.098 67.5719 32.5438 67.2006 32.5438C66.8293 32.5438 66.8293 32.1224 66.7745 31.8598C66.5859 30.9741 66.598 30.0274 65.7519 29.325C65.6821 29.5954 65.6821 29.8792 65.7519 30.1495C65.7519 30.4122 65.8493 30.6809 65.8676 30.9497C65.8828 31.1917 65.8828 31.4345 65.8676 31.6765C65.8676 31.8353 65.8676 32.0308 65.6424 32.043C65.4172 32.0552 65.3563 31.8964 65.3259 31.7315C65.1981 31.1207 65.0581 30.4672 64.979 29.8258C64.713 27.8235 63.8663 25.9437 62.5443 24.4204C62.733 25.5137 62.9156 26.5398 63.0738 27.5659C63.1225 27.8713 63.2686 28.3294 62.8668 28.4027C62.4651 28.476 62.453 27.9813 62.386 27.6881C62.015 26.5883 61.762 25.4519 61.6313 24.2982C61.5704 21.7024 59.6409 20.6335 57.9244 19.3814C57.817 19.3184 57.7051 19.2632 57.5897 19.2165C57.3888 19.0943 57.0845 18.9966 57.194 18.6973C57.3036 18.398 57.6505 18.4713 57.894 18.5385C59.1073 18.9225 60.1905 19.6372 61.0226 20.6029C62.1545 21.8663 63.1729 23.2275 64.066 24.6708C66.2206 27.9935 68.7588 31.078 70.6274 34.5717C73.5247 39.9954 75.795 45.6635 76.495 51.8508C76.564 52.4697 76.6249 53.0805 76.6776 53.6832C76.6776 53.9214 76.7507 54.2634 76.4707 54.2939C76.1907 54.3245 76.0994 53.9824 76.0507 53.7198C75.5638 51.0385 74.8698 48.406 74.1212 45.7796C72.7757 40.9342 70.6431 36.3447 67.8093 32.1957C67.7727 32.1529 67.6875 32.043 67.6023 31.9331Z" fill="#2C3639"/>
<path d="M65.6727 87.7586C66.8109 86.188 67.7285 84.4678 68.3995 82.6463C70.4815 77.1686 71.8204 71.4349 72.3802 65.5993C72.382 65.4639 72.3963 65.3289 72.4228 65.1962C72.5324 64.8724 72.3863 64.2739 72.8793 64.3166C73.2811 64.3533 73.2567 64.9274 73.2689 65.2755C73.2547 68.0296 72.93 70.7732 72.3011 73.454C71.2481 78.5479 69.7143 83.4831 67.0604 88.0029C66.61 88.7664 66.0926 89.4933 65.6057 90.2384C65.3711 90.5363 65.2105 90.8859 65.1371 91.2584C65.064 91.8692 64.8449 92.2723 64.1632 92.3028C63.9806 92.3028 63.8041 92.6205 63.6032 92.3701C63.4023 92.1196 63.6032 91.9425 63.6823 91.7593C64.1334 90.8706 64.3433 89.8784 64.291 88.8825C64.4303 87.5388 64.7349 86.2175 65.1979 84.949C66.2753 81.4675 67.6752 78.1021 68.643 74.5656C68.6714 74.4611 68.708 74.3589 68.7526 74.2602C68.856 74.022 68.9291 73.68 69.2821 73.7899C69.6351 73.8998 69.5438 74.2358 69.489 74.4923C69.2943 75.4451 69.1299 76.4041 68.8438 77.3325C67.9065 80.3864 66.9204 83.4404 65.9587 86.4943C65.8674 86.9402 65.7762 87.3494 65.6727 87.7586Z" fill="#2C3639"/>
<path d="M25.6345 87.9348C25.2843 86.1976 24.8062 84.4888 24.2041 82.8226C23.3403 80.3898 22.5988 77.915 21.9824 75.4076C21.9195 75.0641 21.8748 74.7175 21.8485 74.3693C21.8485 74.1372 21.7572 73.8318 22.0981 73.7585C22.4389 73.6852 22.4876 74.0272 22.5424 74.241C23.7597 78.6265 25.6345 82.792 26.7544 87.2385C26.9769 88.0755 27.0914 88.9376 27.0953 89.8038C27.0778 90.3982 27.2298 90.9852 27.5335 91.4957C27.6918 91.7767 28.0448 92.2592 27.6735 92.3997C27.4493 92.4695 27.2084 92.463 26.9883 92.3812C26.7682 92.2995 26.5811 92.1471 26.4562 91.9477C24.9953 88.5395 22.6276 85.6016 21.459 82.0285C20.2394 78.5081 19.2951 74.8975 18.6347 71.2298C18.3669 69.601 18.1762 67.9723 18.0626 66.3435C18.0557 65.8597 18.0822 65.3761 18.1417 64.8959C18.1417 64.6333 18.1417 64.2852 18.5313 64.2852C18.9208 64.2852 18.8538 64.6638 18.8843 64.9326C18.9938 65.8121 19.0973 66.6978 19.213 67.5773C19.8762 73.2663 21.3436 78.8315 23.5711 84.1052C24.1395 85.443 24.8303 86.725 25.6345 87.9348V87.9348Z" fill="#2C3639"/>
<path d="M59.3302 54.8909C60.9005 52.3562 62.9822 50.2001 64.4369 47.5615C65.0095 46.4623 65.5077 45.3257 65.9282 44.1594C66.0195 43.9029 66.0499 43.4692 66.4394 43.5486C66.829 43.628 66.6951 44.0617 66.6464 44.3304C66.3441 45.8397 65.7862 47.2858 64.9969 48.6059C64.13 50.035 63.183 51.4135 62.1605 52.7349C60.8657 54.4592 59.7673 56.3235 58.8858 58.293C58.7373 58.6094 58.5643 58.9137 58.3685 59.2031C58.265 59.3558 58.1128 59.5085 57.8937 59.4046C57.6746 59.3008 57.6868 59.0931 57.7172 58.9099C57.767 58.6458 57.8321 58.3847 57.912 58.1281C57.9972 57.8227 58.338 57.4501 57.6807 57.3585C57.6259 57.3585 57.5711 57.1264 57.565 57.0043C57.3435 54.2395 58.0787 51.4826 59.6467 49.1984C59.7046 49.1074 59.7676 49.0197 59.8354 48.9358C59.951 48.7892 60.0667 48.5937 60.2858 48.6853C60.5049 48.777 60.4684 49.0457 60.3892 49.2351C60.024 50.139 59.6467 51.0308 59.2754 51.9286C59.1963 52.0983 59.1607 52.2852 59.1719 52.4722C60.4379 50.3956 62.2153 48.7037 63.53 46.6942C63.7065 46.4315 63.8465 45.894 64.2543 46.1445C64.6621 46.3949 64.3091 46.7919 64.1691 47.0973C63.6755 48.0556 63.0817 48.9585 62.3979 49.7909C61.1834 51.3669 60.154 53.0783 59.3302 54.8909V54.8909Z" fill="#2C3639"/>
<path d="M31.9282 54.7275C31.1706 53.0622 30.2271 51.4886 29.1161 50.0366C28.3183 49.0862 27.6416 48.0398 27.1014 46.9216C26.998 46.6773 26.7362 46.3108 27.1014 46.1337C27.4666 45.9566 27.5884 46.3719 27.7101 46.5918C29.0918 48.6868 30.9361 50.4336 32.2995 52.5836C31.9343 51.6919 31.5447 50.8123 31.21 49.9145C31.0761 49.548 30.6013 49.0105 31.0761 48.7845C31.5508 48.5585 31.6847 49.267 31.8978 49.603C33.3863 51.7352 34.0148 54.354 33.6568 56.9324C33.504 57.6337 33.4936 58.3587 33.6264 59.0641C33.6481 59.1442 33.6388 59.2296 33.6004 59.3032C33.562 59.3768 33.4974 59.4332 33.4194 59.4611C33.3414 59.4862 33.2571 59.4828 33.1813 59.4515C33.1056 59.4202 33.0433 59.363 33.0056 59.29C32.8227 59.0562 32.6636 58.8045 32.5308 58.5388C31.337 55.9382 29.8349 53.4916 28.0571 51.2521C26.5851 49.4178 25.4906 47.3085 24.8372 45.0465C24.7276 44.5762 24.2285 43.8249 24.9224 43.6295C25.4276 43.4768 25.4459 44.3258 25.5919 44.7411C26.5986 47.2768 27.9885 49.6418 29.7127 51.7529C30.4796 52.7119 31.2343 53.6953 31.9282 54.7275Z" fill="#2C3639"/>
<path d="M68.7161 44.9307C68.7161 46.4943 68.7161 48.058 68.7161 49.6155C68.7161 52.6266 69.3247 55.5645 69.6169 58.5391C69.8908 60.9822 70.1342 63.462 70.2255 65.9418C70.2444 67.8501 70.1407 69.7577 69.9151 71.6526C69.8924 71.8616 69.8433 72.0669 69.769 72.2634C69.7203 72.41 69.6291 72.575 69.4343 72.5566C69.2395 72.5383 69.1725 72.3856 69.1543 72.2146C69.1452 72.0539 69.1452 71.8928 69.1543 71.732C69.16 65.5603 68.6552 59.3987 67.6448 53.3107C67.161 50.6763 67.2482 47.9681 67.9004 45.3705C67.9917 45.0285 68.01 44.2405 68.7221 44.9307H68.7161Z" fill="#2C3639"/>
<path d="M21.0693 66.9616C21.2137 62.732 21.6203 58.5156 22.2867 54.3367C22.633 51.5004 22.7672 48.6421 22.6884 45.7857C22.6884 45.4131 22.4815 44.8084 22.9867 44.7412C23.4919 44.674 23.4553 45.3154 23.5344 45.6696C24.1153 48.3919 24.1526 51.2028 23.644 53.9397C22.6662 59.6586 22.1936 65.4531 22.2319 71.2555C22.2319 71.7014 22.4206 72.4771 21.8971 72.4771C21.3737 72.4771 21.4345 71.7014 21.3798 71.2188C21.1728 69.8093 21.069 68.3864 21.0693 66.9616V66.9616Z" fill="#2C3639"/>
<path d="M11.3303 18.2824C10.2773 18.9604 9.21826 19.6262 8.17744 20.3102C7.28269 20.921 6.40619 21.5318 5.50536 22.1426C5.26798 22.3014 4.94539 22.6679 4.67758 22.2831C4.40976 21.8983 4.81147 21.6723 5.04886 21.4829C6.2503 20.3998 7.54128 19.4211 8.90785 18.5573C13.2477 15.9065 17.6423 13.3595 22.4203 11.5577C23.1507 11.2828 23.9055 11.0874 24.6542 10.8675C24.8368 10.8125 25.0559 10.7636 25.1533 10.9774C25.2507 11.1912 25.0376 11.3744 24.855 11.4538C24.0394 11.8142 23.2177 12.144 22.4203 12.4983C19.2065 13.8909 16.1936 15.6683 13.1138 17.3235C12.9312 17.4212 12.7242 17.4945 12.6877 17.7633C12.5776 18.2652 12.3636 18.7383 12.0595 19.1518C11.7554 19.5654 11.3681 19.9101 10.9225 20.1636C9.68688 20.9902 8.65792 22.0918 7.91571 23.3825C7.80006 23.5963 7.66615 23.9933 7.34356 23.7978C7.02096 23.6024 7.19138 23.3153 7.29486 23.0649C7.80446 21.6893 8.73029 20.5082 9.94256 19.6872C10.5327 19.366 11.0154 18.8774 11.3303 18.2824Z" fill="#2C3639"/>
<path d="M79.995 18.2623C80.3423 18.8933 80.8674 19.4074 81.5045 19.7404C82.6612 20.5446 83.5449 21.685 84.0365 23.0081C84.14 23.2524 84.3774 23.6189 84.0365 23.8083C83.6957 23.9976 83.5557 23.5579 83.4279 23.3258C82.7189 22.1158 81.7575 21.074 80.6097 20.2718C79.7211 19.6305 78.8446 18.922 78.662 17.7065C78.6194 17.4011 78.315 17.3156 78.0533 17.1934C74.3647 15.2573 70.7492 13.1134 66.8598 11.6353C66.7082 11.5785 66.5616 11.5091 66.4216 11.4276C66.2694 11.3299 66.0625 11.2322 66.1599 10.994C66.2573 10.7558 66.4642 10.7985 66.6468 10.8535C67.5172 11.1222 68.418 11.3238 69.258 11.678C75.1317 14.1884 80.8228 17.053 85.826 21.0903C86.0779 21.2939 86.3158 21.5143 86.5382 21.7499C86.6782 21.9026 86.8364 22.1042 86.6599 22.3179C86.4834 22.5317 86.2582 22.4157 86.0817 22.3179C85.2052 21.7438 84.3409 21.1513 83.4644 20.5711C82.3262 19.7771 81.1575 19.0197 79.995 18.2623Z" fill="#2C3639"/>
<path d="M37.5034 73.625C37.9234 73.7472 37.9539 74.1075 38.0025 74.4068C38.313 76.0987 38.6112 77.7967 38.879 79.5008C39.6034 84.326 40.2729 89.1573 41.6911 93.842C42.3069 95.8289 43.207 97.7156 44.3632 99.4429C44.5275 99.6995 44.9718 100.054 44.5884 100.322C44.2049 100.591 43.9371 100.151 43.724 99.9071C42.4012 98.4098 41.3838 96.6667 40.7294 94.7765C39.669 91.3523 38.9234 87.8378 38.5017 84.2771C38.0634 81.3148 37.6678 78.3525 37.2843 75.3901C37.2347 74.9358 37.2123 74.479 37.2174 74.022C37.2092 73.9323 37.2336 73.8427 37.2862 73.7697C37.3388 73.6967 37.416 73.6453 37.5034 73.625V73.625Z" fill="#2C3639"/>
<path d="M6.73535 61.1714C7.11881 56.1568 7.01533 51.1422 8.13529 46.2498C8.83454 42.7817 10.0233 39.4313 11.6656 36.3001C11.7447 36.1535 11.8056 36.0069 11.8908 35.8665C11.976 35.726 12.1038 35.5122 12.329 35.5977C12.5543 35.6832 12.5299 35.9397 12.4568 36.1474C12.2134 36.8315 11.9882 37.5217 11.7143 38.1936C9.81215 42.8655 8.67746 47.816 8.3544 52.8524C8.14745 55.6437 8.04398 58.4534 7.63617 61.2263C7.58139 61.6172 7.74574 62.3196 7.22228 62.3013C6.58926 62.2891 6.83883 61.5623 6.73535 61.1714Z" fill="#2C3639"/>
<path d="M84.5296 60.4128C84.5296 60.9197 84.5296 61.4328 84.5296 61.9459C84.5321 62.0006 84.5233 62.0552 84.5038 62.1063C84.4843 62.1575 84.4545 62.204 84.4162 62.243C84.3779 62.282 84.332 62.3127 84.2813 62.333C84.2306 62.3533 84.1763 62.3629 84.1218 62.3612C83.8905 62.3612 83.8417 62.123 83.8235 61.9397C83.6652 60.6266 83.4887 59.3195 83.3792 58.0002C83.1235 54.7508 83.0018 51.4892 82.4844 48.2581C81.911 44.6287 80.8887 41.0852 79.4411 37.7098C79.228 37.2151 79.0637 36.702 78.8933 36.189C78.8324 35.9874 78.7715 35.7248 79.0211 35.6209C79.2706 35.5171 79.4045 35.7553 79.4958 35.9447C80.0132 36.983 80.5914 37.9969 81.0175 39.0719C82.7997 43.4791 83.8445 48.1513 84.1096 52.9001C84.2313 55.4043 84.4261 57.9086 84.5843 60.4067L84.5296 60.4128Z" fill="#2C3639"/>
<path d="M45.5076 74.7065C43.7945 74.4846 42.1587 73.8565 40.7356 72.8742C40.5226 72.7398 40.2548 72.5383 40.413 72.2207C40.5713 71.9031 40.8573 71.9641 41.1312 72.0435C41.1312 72.0435 41.186 72.0435 41.2043 72.0435C42.1728 71.7211 43.1917 71.5783 44.2111 71.6221C44.5094 71.6221 44.5459 71.3594 44.6189 71.1151C44.6759 70.8896 44.8062 70.6897 44.9892 70.547C45.1722 70.4042 45.3975 70.3269 45.6293 70.3272C45.8613 70.3002 46.0956 70.3532 46.2937 70.4775C46.4917 70.6018 46.6416 70.7901 46.7188 71.0113C46.9988 71.8725 47.5771 71.8664 48.2405 71.6221C48.5692 71.5121 48.8492 71.4144 49.1231 71.7015C49.2688 71.8623 49.4591 71.9756 49.6696 72.0267C49.8801 72.0779 50.1011 72.0646 50.3039 71.9886C50.4134 71.9393 50.5375 71.9339 50.6507 71.9737C50.764 72.0135 50.8577 72.0953 50.9126 72.2023C51.0343 72.4711 50.8456 72.6543 50.6569 72.8131C49.8657 73.5766 46.7858 74.7249 45.5076 74.7065Z" fill="#2C3639"/>
<path d="M68.7221 44.9413C68.6673 44.0312 68.5943 43.1089 68.5699 42.1989C68.5699 41.8813 68.4787 41.3804 68.9352 41.3438C69.3917 41.3071 69.343 41.7896 69.3978 42.0889C70.0369 45.5032 70.9073 48.8748 71.662 52.2646C72.2617 55.0029 72.6444 57.7846 72.8063 60.5835C72.8276 60.8519 72.8276 61.1215 72.8063 61.3898C72.7759 61.6768 72.9646 62.1472 72.5081 62.1777C72.155 62.1777 72.1429 61.744 72.1003 61.4753C71.589 57.9266 70.7003 54.4512 69.9821 50.9392C69.5682 48.9358 69.1421 46.9325 68.7282 44.9291L68.7221 44.9413Z" fill="#2C3639"/>
<path d="M22.7616 43.0912C22.6155 45.6504 21.9398 48.3195 21.3738 51.0314C20.6677 54.3541 19.846 57.6523 19.3469 61.0178C19.2799 61.4331 19.3469 62.2393 18.8722 62.1538C18.2635 62.0622 18.5374 61.3049 18.5556 60.8346C18.7261 56.0338 19.8399 51.3918 20.9538 46.7498C21.3251 45.2045 21.6172 43.6348 21.9642 42.0834C22.025 41.7902 22.0251 41.3199 22.4511 41.3688C22.8772 41.4176 22.7311 41.8757 22.7555 42.175C22.7798 42.4743 22.7616 42.6453 22.7616 43.0912Z" fill="#2C3639"/>
<path d="M56.3358 79.6836C55.5871 86.0663 54.4489 92.3513 50.596 97.7751C50.284 98.2456 49.9069 98.6692 49.476 99.0333C49.3482 99.131 49.19 99.2226 49.0317 99.1249C48.8735 99.0272 48.91 98.7951 48.9891 98.6179C49.0217 98.5455 49.0604 98.476 49.1048 98.4103C52.2699 93.3774 53.8828 87.7826 54.9724 82.0045C55.1245 81.1861 55.3071 80.3676 55.508 79.5614C55.575 79.2988 55.5932 78.8834 55.9949 78.9506C56.3967 79.0178 56.2932 79.3598 56.3358 79.6836Z" fill="#2C3639"/>
<path d="M35.4339 78.9141C35.7443 79.0545 35.793 79.3599 35.8539 79.6409C36.2191 81.3511 36.5539 83.0735 36.9435 84.7837C38.0147 89.4868 39.5242 94.0249 42.0928 98.1477C42.1476 98.2394 42.2085 98.331 42.2571 98.4287C42.3606 98.6364 42.598 98.8746 42.3545 99.0761C42.111 99.2777 41.8372 99.0395 41.6668 98.8624C40.6547 97.7668 39.8022 96.533 39.1347 95.1977C37.22 91.3532 35.9707 87.21 35.44 82.9453C35.2757 81.8031 35.1783 80.6426 35.0687 79.4943C35.0687 79.2561 35.0322 78.9507 35.4339 78.9141Z" fill="#2C3639"/>
<path d="M61.9296 77.2409C61.4305 83.7947 59.8784 89.927 56.1595 95.363C55.9282 95.6928 55.6847 96.2853 55.2221 96.0532C54.7595 95.8211 55.1917 95.363 55.356 95.082C58.3964 89.5349 60.3373 83.4493 61.0714 77.1615C61.1262 76.789 61.0714 76.1599 61.5584 76.2209C62.0453 76.282 61.8505 76.9294 61.9296 77.2409Z" fill="#2C3639"/>
<path d="M40.5468 16.8766C42.1553 16.8017 43.755 17.1535 45.1848 17.8966C45.3335 17.9807 45.5012 18.0248 45.6718 18.0248C45.8424 18.0248 46.0101 17.9807 46.1587 17.8966C49.0438 16.5285 51.9837 16.6079 54.954 17.5729C55.0082 17.5831 55.06 17.6038 55.1062 17.634C55.3801 17.8111 55.934 17.8356 55.8001 18.2448C55.6662 18.654 55.1914 18.4341 54.8627 18.3731C51.9081 17.7097 48.8214 17.9785 46.0248 19.1427C45.9017 19.1959 45.768 19.2202 45.6341 19.2139C45.5002 19.2075 45.3694 19.1706 45.2518 19.106C42.491 17.9879 39.4609 17.72 36.5478 18.3364C36.1887 18.4036 35.6348 18.6235 35.5252 18.257C35.3731 17.7806 35.9878 17.6768 36.3348 17.5668C37.6813 17.0663 39.1116 16.832 40.5468 16.8766V16.8766Z" fill="#2C3639"/>
<path d="M29.7979 76.2148C30.1631 76.2576 30.157 76.5508 30.2057 76.8256C30.6115 78.996 31.0172 81.1683 31.423 83.3427C32.1717 87.3128 33.9003 90.9042 35.6837 94.4773C35.8785 94.8683 36.0733 95.247 36.2498 95.644C36.293 95.7136 36.3082 95.7972 36.2924 95.8777C36.2766 95.9582 36.2309 96.0297 36.1646 96.0776C36.0966 96.1256 36.0125 96.1448 35.9305 96.1311C35.8485 96.1174 35.7752 96.0718 35.7263 96.0043C35.4895 95.7479 35.2718 95.4744 35.0751 95.1859C32.1882 90.8005 30.3758 85.7921 29.7857 80.5698C29.5716 79.3599 29.4616 78.1338 29.457 76.905C29.4631 76.5935 29.4509 76.3065 29.7979 76.2148Z" fill="#2C3639"/>
<path d="M33.4135 77.3925C33.4135 78.4431 33.4135 79.1393 33.4135 79.8356C33.4135 80.0189 33.4134 80.2571 33.1943 80.306C32.9752 80.3548 32.8352 80.1044 32.8109 79.9028C32.6465 78.6812 32.4518 77.5024 32.3726 76.2931C32.1839 73.2392 32.0378 70.1852 31.8979 67.0946C31.7421 64.378 31.3963 61.6758 30.8631 59.0078C30.8631 58.8735 30.7901 58.7452 30.7779 58.6108C30.7779 58.3787 30.6623 58.0672 30.9727 58C31.2831 57.9328 31.3744 58.226 31.4535 58.4459C31.897 59.661 32.2291 60.9143 32.4457 62.19C32.957 65.0118 32.9387 67.8703 33.0848 70.741C33.2065 73.0559 33.3161 75.4074 33.4135 77.3925Z" fill="#2C3639"/>
<path d="M57.888 78.8045C58.0949 74.3335 58.2958 69.8625 58.4966 65.3977C58.6189 63.213 59.0136 61.0523 59.6714 58.9661C59.7383 58.7585 59.8114 58.5569 59.8966 58.3553C59.9818 58.1538 60.0853 57.9034 60.3409 57.9644C60.5966 58.0255 60.554 58.3004 60.5235 58.508C60.4018 59.2776 60.2922 60.0533 60.1461 60.8229C59.6542 63.6665 59.3775 66.5434 59.3184 69.4289C59.2536 72.7966 59.0118 76.1586 58.594 79.5008C58.5673 79.6874 58.5245 79.8713 58.4662 80.0505C58.4549 80.118 58.4221 80.1801 58.3727 80.2275C58.3234 80.2748 58.2601 80.3049 58.1923 80.3131C58.1519 80.3149 58.1115 80.3081 58.0738 80.2934C58.0361 80.2786 58.0019 80.2562 57.9733 80.2275C57.9446 80.1988 57.9223 80.1644 57.9076 80.1266C57.8929 80.0888 57.8862 80.0483 57.888 80.0077C57.888 79.6046 57.888 79.2015 57.888 78.7862V78.8045Z" fill="#2C3639"/>
<path d="M61.4363 70.6435C61.277 66.6612 61.3278 62.6733 61.5885 58.6965C61.6677 57.4038 61.9364 56.1298 62.3858 54.9157C62.4649 54.6958 62.5562 54.4026 62.8666 54.482C63.1771 54.5614 63.1345 54.8668 63.0919 55.0928C62.3371 59.2645 62.6901 63.479 62.5684 67.6751C62.5136 69.6662 62.3006 71.6512 62.1484 73.6363C62.1484 73.9173 62.1484 74.3265 61.7589 74.3021C61.3693 74.2776 61.4546 73.8867 61.4485 73.6363C61.4302 72.6407 61.4424 71.6391 61.4363 70.6435Z" fill="#2C3639"/>
<path d="M29.9801 65.7642C30.1019 68.3172 29.8036 70.9741 29.8584 73.6433C29.8584 73.8937 29.9497 74.2907 29.6088 74.3212C29.268 74.3518 29.2193 73.9181 29.201 73.6555C29.0428 71.5666 28.8237 69.4777 28.7993 67.3766C28.7689 64.5731 28.8845 61.7757 28.6958 58.9722C28.6167 57.7506 28.3793 56.5291 28.2941 55.3075C28.2941 55.0082 28.0689 54.5745 28.5193 54.4951C28.9697 54.4157 28.9576 54.8921 29.061 55.1792C29.5248 56.6708 29.7909 58.2171 29.8523 59.7784C29.9984 61.7146 29.9984 63.6814 29.9801 65.7642Z" fill="#2C3639"/>
<path d="M5.71839 44.8693C5.78955 41.424 6.82749 38.0686 8.71304 35.1884C10.2304 32.8631 11.4454 30.3528 12.3285 27.7184C12.4138 27.4375 12.5233 27.1076 12.9007 27.1748C13.2781 27.242 13.2598 27.6757 13.1929 27.9811C12.7514 29.7905 12.0393 31.5224 11.0808 33.1178C10.2895 34.4982 9.4556 35.848 8.73128 37.265C7.50044 39.7191 6.73082 42.3797 6.46095 45.1136C6.46351 45.2476 6.4471 45.3813 6.41224 45.5106C6.30268 45.7794 6.41224 46.2864 5.98617 46.2436C5.5601 46.2008 5.73665 45.7733 5.71839 45.4862C5.70013 45.1992 5.71839 45.0587 5.71839 44.8693Z" fill="#2C3639"/>
<path d="M85.6797 44.9847C85.5884 45.455 85.7953 46.1696 85.3205 46.2063C84.8458 46.2429 84.931 45.5222 84.8945 45.1557C84.5353 40.8802 82.7884 37.1117 80.5485 33.5508C79.6727 32.1299 78.9659 30.6109 78.4426 29.0249C78.3508 28.8002 78.2814 28.567 78.2356 28.3286C78.1808 27.9255 77.8947 27.3452 78.4182 27.1803C78.9416 27.0154 78.9904 27.675 79.1182 28.0354C79.7461 29.8974 80.5619 31.6902 81.5529 33.3859C82.8473 35.3699 83.9267 37.4871 84.7727 39.7014C85.2677 41.4237 85.5719 43.1955 85.6797 44.9847V44.9847Z" fill="#2C3639"/>
<path d="M87.0854 41.8767C87.0854 42.1027 87.0854 42.3348 86.842 42.4081C86.5985 42.4814 86.495 42.286 86.4159 42.1149C86.27 41.8267 86.1439 41.5287 86.0385 41.2232C84.9492 37.9788 83.5594 34.844 81.8874 31.8598C80.8977 30.2515 80.2222 28.4689 79.897 26.6071C79.8445 26.2021 79.8322 25.7929 79.8605 25.3855C79.8605 25.1656 79.9031 24.848 80.2196 24.8419C80.5361 24.8358 80.5239 25.1473 80.5544 25.3794C80.7665 26.7647 81.1765 28.1121 81.7717 29.38C82.3804 30.7055 83.1352 31.9453 83.8473 33.2097C85.2638 35.6601 86.306 38.3098 86.9393 41.0705C87.0002 41.3454 87.0367 41.6141 87.0854 41.8767Z" fill="#2C3639"/>
<path d="M11.4648 26.0147C11.3998 27.5277 10.9829 29.0045 10.2474 30.3269C8.99354 32.8617 7.53883 35.2926 6.52843 37.9434C6.15106 38.9268 5.80413 39.9224 5.44502 40.9057C5.32328 41.2355 5.20763 41.5654 5.06155 41.883C4.91547 42.2006 4.84243 42.4938 4.52592 42.3838C4.20941 42.2739 4.27637 41.8952 4.30681 41.6203C4.33724 41.3455 4.45287 41.0096 4.51983 40.6797C5.25035 37.7157 6.43736 34.8842 8.03796 32.2875C9.25531 30.1131 10.4726 27.9204 10.7891 25.3612C10.7891 25.1413 10.8439 24.8115 11.1848 24.8603C11.5256 24.9092 11.4587 25.2085 11.4708 25.4711C11.483 25.7338 11.4648 25.8254 11.4648 26.0147Z" fill="#2C3639"/>
<path d="M82.1372 57.8605C82.0599 59.8159 81.8566 61.7644 81.5285 63.6935C81.4843 63.9011 81.4253 64.1052 81.352 64.3043C81.2972 64.4631 81.1937 64.6097 81.005 64.5669C80.8163 64.5241 80.7859 64.347 80.7859 64.1821C80.7859 63.8095 80.7859 63.4308 80.7859 63.0522C81.0583 57.9967 80.8074 52.9265 80.0373 47.923C80.0373 47.7886 79.9946 47.6542 79.9886 47.5198C79.9825 47.3855 79.9886 47.0434 80.2442 46.9946C80.4998 46.9457 80.6581 47.19 80.7068 47.4343C80.9563 48.6559 81.212 49.8775 81.4433 51.0991C81.8411 53.3325 82.0731 55.5925 82.1372 57.8605V57.8605Z" fill="#2C3639"/>
<path d="M11.3306 47.7705C11.0202 50.1037 10.722 52.4552 10.582 54.8251C10.3872 57.6591 10.4663 60.4871 10.5333 63.3211C10.5333 63.7548 10.8498 64.4633 10.3507 64.5427C9.85157 64.6221 9.85157 63.822 9.74201 63.3883C9.01606 59.1487 9.09246 54.8097 9.96722 50.5984C10.1498 49.6212 10.3446 48.6439 10.5759 47.6667C10.6368 47.404 10.6489 46.9765 11.0385 47.0253C11.428 47.0742 11.2515 47.4895 11.3306 47.7705Z" fill="#2C3639"/>
<path d="M80.2383 45.5843C80.2383 45.8592 80.2383 46.0119 80.1226 46.073C80.007 46.134 79.8244 46.0119 79.7331 45.8836C79.6547 45.7723 79.5913 45.6511 79.5444 45.5233C78.327 42.2861 76.6775 39.2627 75.3445 36.0866C74.6975 34.6347 74.257 33.0989 74.0359 31.524C73.9811 31.0537 73.7559 30.3024 74.3889 30.2108C74.9185 30.1314 74.7967 30.8949 74.9002 31.2919C75.5647 33.7362 76.4615 36.1109 77.5784 38.3832C78.594 40.5552 79.4445 42.8011 80.1226 45.1018C80.1835 45.2973 80.22 45.511 80.2383 45.5843Z" fill="#2C3639"/>
<path d="M17.3627 31.0353C17.0974 33.1591 16.4802 35.2235 15.5367 37.1432C14.3193 39.8917 12.8951 42.573 11.836 45.4071C11.7761 45.5569 11.7048 45.7019 11.6229 45.8408C11.5438 45.9873 11.4403 46.1217 11.2455 46.0484C11.0508 45.9751 11.0568 45.798 11.0934 45.6392C11.1786 45.2483 11.2699 44.8513 11.3916 44.4665C12.297 41.7569 13.3662 39.1052 14.5932 36.5263C15.4461 34.723 16.0895 32.8273 16.5106 30.8765C16.5775 30.5772 16.5105 30.0947 16.9427 30.1374C17.3748 30.1802 17.3079 30.736 17.3627 31.0353Z" fill="#2C3639"/>
<path d="M11.4525 22.0554C11.281 23.3441 10.8188 24.5765 10.1013 25.659C8.0285 28.7136 6.35518 32.0227 5.12233 35.5049C5.03712 35.7737 4.93974 36.2074 4.59279 36.1157C4.14846 35.9936 4.39195 35.5477 4.4589 35.2789C5.28341 31.9768 6.69366 28.8506 8.62219 26.05C9.57296 24.8073 10.2963 23.4052 10.7586 21.9088C10.8134 21.6828 10.8743 21.408 11.1847 21.3897C11.3917 21.3713 11.4769 21.6095 11.4525 22.0554Z" fill="#2C3639"/>
<path d="M62.1852 33.0372C63.6694 33.0319 65.14 33.3203 66.5129 33.8862C66.8294 34.0144 67.2798 34.1366 67.1216 34.5825C66.9633 35.0283 66.5129 34.8634 66.2086 34.7535C64.5956 34.216 62.9583 33.7701 61.2418 34.0877C58.5632 34.4925 56.089 35.7618 54.1934 37.7036C54.096 37.8013 54.0047 37.899 53.9012 37.9846C53.7978 38.0701 53.53 38.235 53.2926 38.0823C53.0552 37.9296 53.0917 37.6547 53.2256 37.4348C53.5832 36.8305 54.0497 36.2983 54.6012 35.8651C56.763 34.1333 59.421 33.1422 62.1852 33.0372Z" fill="#2C3639"/>
<path d="M79.9277 22.074C79.9703 21.8419 79.8303 21.4632 80.1834 21.4082C80.5364 21.3533 80.5303 21.6953 80.5912 21.9213C81.0552 23.3874 81.7654 24.7631 82.6911 25.9891C84.6407 28.8062 86.0619 31.9565 86.8848 35.2853C86.9457 35.5602 87.1648 35.945 86.7996 36.0671C86.4344 36.1893 86.3188 35.7373 86.1909 35.4563C84.938 31.9813 83.2594 28.676 81.1938 25.6166C80.4717 24.5664 80.0353 23.3453 79.9277 22.074V22.074Z" fill="#2C3639"/>
<path d="M29.2073 33.026C32.488 33.3009 35.4157 34.3637 37.7287 36.8801C37.8379 36.996 37.9376 37.1206 38.0269 37.2527C38.1912 37.5092 38.3921 37.7963 38.0817 38.0467C37.7713 38.2971 37.5339 38.0467 37.333 37.8207C36.2744 36.7046 35.0091 35.8063 33.6079 35.176C32.3698 34.517 31.0065 34.1289 29.6079 34.0374C28.2094 33.9458 26.8074 34.1527 25.4944 34.6446C25.0987 34.7912 24.484 35.1516 24.277 34.6141C24.0336 34.0033 24.7944 33.9117 25.1961 33.7651C26.4734 33.2621 27.8353 33.0111 29.2073 33.026Z" fill="#2C3639"/>
<path d="M40.1937 43.1899C39.9076 44.9612 39.585 46.7142 39.3537 48.4732C38.838 51.8693 38.9994 55.3343 39.8285 58.6673C39.9198 59.0399 40.3093 59.6628 39.8285 59.8155C39.3476 59.9682 39.2198 59.2658 39.0798 58.8749C38.1607 56.4318 38.1181 53.9276 38.2398 51.3745C38.467 48.5804 38.9251 45.8102 39.6094 43.0922C39.6641 42.854 39.6702 42.512 39.9563 42.5364C40.3337 42.5792 40.1328 42.964 40.1937 43.1899Z" fill="#2C3639"/>
<path d="M58.4906 82.799C57.8394 86.8913 56.9324 90.953 54.376 94.4039C54.2771 94.5317 54.1715 94.654 54.0595 94.7704C53.9621 94.862 53.8465 94.9598 53.7065 94.8926C53.5665 94.8254 53.53 94.636 53.5908 94.4772C53.6476 94.2967 53.7189 94.121 53.8039 93.952C55.5095 90.5249 56.7598 86.8883 57.5229 83.1349C57.5655 82.9517 57.6081 82.7685 57.6629 82.5852C57.7176 82.402 57.7968 81.9378 58.2046 82.0294C58.6124 82.121 58.4724 82.4753 58.4906 82.799Z" fill="#2C3639"/>
<path d="M33.2428 82.0234C33.6019 82.1151 33.6567 82.4021 33.7176 82.6342C33.9428 83.526 34.1436 84.4177 34.3627 85.3034C35.0798 88.3183 36.1589 91.2348 37.5765 93.9887C37.613 94.062 37.6495 94.1353 37.68 94.2086C37.7652 94.4285 37.9417 94.7156 37.7165 94.8744C37.4913 95.0332 37.2296 94.7583 37.1078 94.5568C35.7638 92.7089 34.7467 90.6428 34.101 88.4489C33.5888 86.6626 33.1823 84.8474 32.8836 83.0129C32.8228 82.6464 32.6889 82.1761 33.2428 82.0234Z" fill="#2C3639"/>
<path d="M73.2327 47.1602C73.2327 47.4778 73.2327 47.6916 73.0014 47.7404C72.691 47.8076 72.5753 47.5511 72.4962 47.3251C72.0823 46.2135 71.6562 45.1079 71.2789 43.9841C70.5363 41.7669 69.8181 39.5376 69.0938 37.3082C69.0075 37.0534 68.9423 36.7919 68.899 36.5264C68.8564 36.1966 68.6555 35.7263 69.0816 35.6102C69.5076 35.4942 69.5563 36.0194 69.6902 36.3187C70.8041 39.4337 72.0945 42.4877 72.9162 45.7065C73.0136 46.2257 73.1353 46.751 73.2327 47.1602Z" fill="#2C3639"/>
<path d="M18.1355 47.0988C18.4219 45.8032 18.7734 44.523 19.1885 43.2631C19.9067 40.8199 21.0145 38.4867 21.7876 36.0558C21.8667 35.8176 21.9337 35.445 22.3049 35.5855C22.6762 35.7259 22.5362 35.9703 22.4875 36.1962C22.3536 36.7765 22.2623 37.3629 22.0797 37.9248C21.1119 40.8321 20.1198 43.7334 19.1338 46.6346C19.0688 46.8443 18.9873 47.0486 18.8903 47.2454C18.7746 47.4775 18.7077 47.8256 18.3486 47.7218C17.9895 47.618 18.2086 47.3126 18.1355 47.0988Z" fill="#2C3639"/>
<path d="M55.1974 56.1985C55.2551 57.973 54.7916 59.7254 53.8644 61.2375C53.7488 61.4146 53.6331 61.5979 53.4992 61.7689C53.3653 61.9399 53.2375 62.0743 53.0244 61.9766C52.8114 61.8789 52.854 61.659 52.8966 61.4757C52.9347 61.3183 52.9877 61.1649 53.0549 61.0176C54.4609 58.1836 54.3209 55.1785 54.0592 52.1551C54.0166 51.7031 54.0044 51.2451 53.9983 50.787C53.9983 50.6221 54.047 50.451 54.2418 50.4266C54.4366 50.4022 54.5218 50.5426 54.5765 50.7076C54.7475 51.3311 54.8616 51.9689 54.9174 52.6132C55.0984 53.7998 55.192 54.9981 55.1974 56.1985Z" fill="#2C3639"/>
<path d="M36.2066 56.7671C36.1328 54.8637 36.2902 52.9583 36.6753 51.0929C36.724 50.8181 36.724 50.3905 37.1136 50.4394C37.5031 50.4883 37.4118 50.9402 37.3814 51.2395C37.0171 53.6705 37.0357 56.1438 37.4362 58.569C37.6704 59.5086 37.9903 60.4245 38.3918 61.3053C38.477 61.5191 38.6596 61.8 38.3918 61.9649C38.124 62.1299 37.8987 61.855 37.7527 61.6473C36.703 60.2424 36.1581 58.5224 36.2066 56.7671Z" fill="#2C3639"/>
<path d="M40.4375 70.5643C37.5159 70.2528 35.5255 68.4326 35.0082 65.678C34.9473 65.3604 34.9168 64.9511 35.2881 64.8351C35.6594 64.719 35.7446 65.171 35.8968 65.4459C36.895 67.5042 38.2098 69.2205 40.5836 69.7824C40.8271 69.8435 41.1923 69.8435 41.1923 70.1978C41.1923 70.552 40.6992 70.5215 40.4375 70.5643Z" fill="#2C3639"/>
<path d="M56.3722 65.5809C56.237 66.5143 55.8747 67.4 55.3174 68.1595C54.76 68.9191 54.0248 69.5291 53.1766 69.9358C52.4715 70.2697 51.7133 70.4765 50.9367 70.5466C50.6689 70.5466 50.3281 70.5466 50.255 70.2534C50.182 69.9602 50.5289 69.8503 50.7785 69.7953C53.2131 69.2334 54.5461 67.4743 55.5322 65.3549C55.6417 65.1167 55.6661 64.793 56.0313 64.8113C56.2443 64.8357 56.3356 65.0678 56.3722 65.5809Z" fill="#2C3639"/>
<path d="M64.6992 52.2785C64.2427 55.5951 64.3765 58.7712 64.4192 61.9473C64.4192 62.1061 64.4739 62.3077 64.2731 62.3626C64.0722 62.4176 63.9505 62.216 63.8714 62.0511C63.6863 61.488 63.5998 60.897 63.6157 60.3043C63.421 57.8611 63.2079 55.4668 63.8105 53.0725C63.8834 52.7859 63.9749 52.5043 64.0844 52.2297C64.1574 52.0586 64.267 51.8693 64.5044 51.9548C64.569 51.978 64.6237 52.0229 64.6592 52.0819C64.6947 52.1409 64.7088 52.2103 64.6992 52.2785V52.2785Z" fill="#2C3639"/>
<path d="M27.9348 57.4032C27.8495 58.4477 27.7339 59.9502 27.606 61.4467C27.5769 61.6557 27.5238 61.8606 27.4478 62.0574C27.393 62.2162 27.2835 62.3567 27.0948 62.3201C26.9061 62.2834 26.8878 62.0941 26.8939 61.9292C26.9304 61.3184 27.0217 60.7076 27.0157 60.0968C27.039 57.7009 26.9374 55.3053 26.7113 52.9201C26.7113 52.7857 26.7113 52.6513 26.7113 52.5169C26.7113 52.3826 26.6383 52.0283 26.8939 51.9611C27.1496 51.8939 27.2956 52.181 27.3687 52.407C27.8248 54.0308 28.016 55.7181 27.9348 57.4032V57.4032Z" fill="#2C3639"/>
<path d="M35.4648 75.5493C35.4648 75.6043 35.5865 75.9769 35.2396 76.0257C34.8926 76.0746 34.8074 75.6837 34.7648 75.4149C34.4361 73.3383 34.1561 71.2616 33.8092 69.1849C33.7239 68.5741 33.6448 68.0122 33.59 67.4258C33.59 67.1876 33.5535 66.8883 33.8883 66.8578C34.2231 66.8273 34.2109 67.1021 34.2717 67.3037C34.7002 68.8353 34.9995 70.4004 35.1665 71.9823C35.2882 73.094 35.3552 74.2178 35.4648 75.5493Z" fill="#2C3639"/>
<path d="M55.9156 75.0235C56.0424 72.5837 56.3826 70.1597 56.9321 67.7796C56.9678 67.6211 57.0167 67.4658 57.0781 67.3154C57.1694 67.1077 57.212 66.784 57.5346 66.8695C57.8572 66.955 57.8025 67.2543 57.772 67.4803C57.6199 68.6225 57.4555 69.7708 57.2912 70.9129C57.0883 72.277 56.8854 73.635 56.6825 74.9869C56.6612 75.1468 56.6245 75.3043 56.573 75.4572C56.4938 75.671 56.4695 76.0069 56.1591 75.9581C55.8486 75.9092 55.946 75.5794 55.9217 75.3473C55.9095 75.2312 55.9156 75.0968 55.9156 75.0235Z" fill="#2C3639"/>
<path d="M39.3598 40.6307C39.0067 43.196 38.4894 45.7308 37.905 48.2534C37.8442 48.5099 37.7894 48.968 37.4364 48.8642C37.0833 48.7603 37.1868 48.3144 37.2233 48.0213C37.5269 45.6675 37.9617 43.3326 38.5259 41.0278L38.6354 40.478C38.6963 40.1788 38.5868 39.684 39.0189 39.7207C39.4511 39.7573 39.3293 40.2948 39.3598 40.6307Z" fill="#2C3639"/>
<path d="M54.1569 48.4911C54.1569 48.6804 54.157 48.8942 53.95 48.9431C53.7431 48.992 53.597 48.7965 53.5544 48.6133C53.3778 47.9353 53.2257 47.2573 53.0796 46.5732C52.6366 44.6871 52.2932 42.7788 52.051 40.8563C52.0266 40.6146 52.0266 40.3711 52.051 40.1294C52.051 39.9401 52.0936 39.7324 52.3492 39.7324C52.6048 39.7324 52.5927 39.9095 52.6231 40.0745C53.1527 42.878 53.9683 45.6265 54.1569 48.4911Z" fill="#2C3639"/>
<path d="M12.895 24.7873C12.895 24.5429 12.895 24.3475 13.1141 24.2742C13.3333 24.2009 13.455 24.3597 13.5524 24.5307C14.6419 26.5524 16.3583 27.9634 18.1661 29.2949C18.367 29.4476 18.6835 29.6003 18.4826 29.9057C18.2818 30.211 18.0383 30.095 17.8252 29.9789C15.7695 28.9577 14.0869 27.312 13.0168 25.2759C12.954 25.1194 12.913 24.955 12.895 24.7873V24.7873Z" fill="#2C3639"/>
<path d="M33.8028 30.9866C33.8616 28.9346 34.3056 26.9122 35.1114 25.0253C35.2103 24.8138 35.3242 24.6097 35.4523 24.4145C35.5618 24.2374 35.6957 24.0053 35.9575 24.1397C36.2192 24.2741 36.1157 24.5062 36.0487 24.7138C35.5838 26.0053 35.2175 27.3305 34.9531 28.6778C34.7584 29.7589 34.5819 30.8461 34.3932 31.9333C34.3506 32.1776 34.4236 32.5441 34.028 32.5075C33.6323 32.4708 33.8271 32.1166 33.8028 31.8967C33.7784 31.6768 33.8028 31.4325 33.8028 30.9866Z" fill="#2C3639"/>
<path d="M50.4315 69.3C50.2124 69.3 49.9628 69.3 49.8959 69.0435C49.8289 68.7869 50.042 68.6464 50.2367 68.5609C51.8858 67.8114 53.2757 66.5868 54.2296 65.0428C54.3574 64.8474 54.5279 64.6214 54.8383 64.7802C55.0331 64.8962 55.0026 65.0856 54.9661 65.281C54.6435 66.9912 52.3428 69.1045 50.608 69.2878L50.4315 69.3Z" fill="#2C3639"/>
<path d="M40.8331 69.3008C39.5145 69.0602 38.3275 68.3485 37.4915 67.2974C37.0978 66.7808 36.7744 66.214 36.5298 65.6117C36.4202 65.3369 36.2559 65.0009 36.5298 64.7993C36.8037 64.5978 37.0593 64.9582 37.2115 65.1841C37.6654 65.8541 38.181 66.4799 38.7514 67.0532C39.4746 67.6585 40.27 68.1714 41.1191 68.5801C41.3078 68.684 41.5209 68.8061 41.4296 69.0749C41.3383 69.3436 41.1009 69.2642 40.8331 69.3008Z" fill="#2C3639"/>
<path d="M30.4248 28.1218C31.0335 25.9657 31.6056 23.6997 33.0482 21.8124C33.176 21.6536 33.3342 21.4032 33.5716 21.5314C33.809 21.6597 33.7481 21.9651 33.6447 22.1789C32.6692 24.1614 31.8135 26.201 31.0822 28.2867C31.0152 28.4761 30.9056 28.7204 30.6378 28.6654C30.37 28.6104 30.4431 28.3783 30.4248 28.1218Z" fill="#2C3639"/>
<path d="M27.2774 20.9873C27.1745 21.154 27.0627 21.3151 26.9426 21.4698C25.6157 23.0497 24.2828 24.6297 22.9437 26.2096C22.8229 26.3531 22.6861 26.4822 22.5358 26.5943C22.4931 26.6222 22.4449 26.6405 22.3944 26.6478C22.344 26.6552 22.2926 26.6516 22.2437 26.6371C22.2118 26.6254 22.1828 26.6069 22.1586 26.583C22.1344 26.5591 22.1156 26.5302 22.1035 26.4984C22.0914 26.4665 22.0862 26.4324 22.0884 26.3984C22.0905 26.3644 22.0998 26.3312 22.1159 26.3012C22.1683 26.121 22.244 25.9485 22.3411 25.7881C23.4743 23.9914 24.8671 22.3735 26.474 20.9873C26.6505 20.8346 26.8392 20.6331 27.0826 20.7308C27.1861 20.7552 27.2165 20.8896 27.2774 20.9873Z" fill="#2C3639"/>
<path d="M69.2152 26.2226C69.2152 26.4303 69.2152 26.5646 69.0813 26.6379C69.0173 26.6616 68.9475 26.6643 68.8819 26.6456C68.8163 26.627 68.7582 26.5879 68.7161 26.5341C68.3935 26.1798 68.1074 25.8073 67.7666 25.4408C66.6507 24.1296 65.5388 22.8144 64.431 21.4951C64.2606 21.2935 63.8832 21.0798 64.1693 20.7683C64.4554 20.4568 64.6563 20.8232 64.851 20.9759C66.4697 22.3547 67.8713 23.9712 69.0083 25.7706C69.0917 25.9142 69.161 26.0655 69.2152 26.2226V26.2226Z" fill="#2C3639"/>
<path d="M78.114 24.219C77.8949 25.4177 77.3895 26.5453 76.641 27.505C75.9494 28.3998 75.1289 29.1862 74.2063 29.8382C73.9933 29.997 73.7315 30.2108 73.5003 29.9237C73.269 29.6366 73.5428 29.4717 73.7011 29.3129C73.845 29.1511 74.0063 29.0057 74.182 28.8793C75.8109 27.7442 76.9488 26.0302 77.3653 24.0846C77.4262 23.8281 77.4201 23.5105 77.7975 23.5043C78.0044 23.4921 78.12 23.7364 78.114 24.219Z" fill="#2C3639"/>
<path d="M28.404 28.4997C28.7678 26.5041 29.5387 24.6056 30.6683 22.9232C30.8022 22.7338 30.9727 22.4834 31.277 22.63C31.5813 22.7766 31.3926 23.0698 31.277 23.2408C30.403 24.9997 29.6486 26.8158 29.0188 28.6768C28.9579 28.8661 28.8849 29.1471 28.611 29.086C28.3371 29.0249 28.3736 28.7929 28.404 28.4997Z" fill="#2C3639"/>
<path d="M44.3266 77.8512C44.2353 79.2988 44.1562 80.7463 44.0649 82.2C44.0649 82.4077 44.0649 82.6764 43.7849 82.7009C43.5049 82.7253 43.4319 82.4565 43.3893 82.2611C43.0272 80.7392 43.0272 79.1532 43.3893 77.6313C43.4745 77.3137 43.5597 76.8373 43.9979 76.9534C44.4362 77.0694 44.3449 77.497 44.3266 77.8512Z" fill="#2C3639"/>
<path d="M61.3511 28.2869C61.3085 28.5495 61.4181 28.8427 61.1563 28.8977C60.8946 28.9526 60.7729 28.6595 60.7181 28.4396C60.3585 26.7333 59.9095 25.0472 59.3729 23.3884C59.2634 23.1013 59.2755 22.7776 59.6286 22.6432C59.9816 22.5088 60.0729 22.857 60.1825 23.0952C60.9798 24.7626 61.0103 26.5889 61.3511 28.2869Z" fill="#2C3639"/>
<path d="M33.2002 25.9341C33.5485 24.3286 34.1527 22.79 34.9897 21.3776C35.1357 21.1455 35.3427 20.9195 35.647 21.0967C35.9514 21.2738 35.8236 21.5181 35.7201 21.7441C35.0262 23.1978 34.4033 24.682 33.8515 26.1967C33.7845 26.38 33.6932 26.6487 33.4132 26.5571C33.1332 26.4655 33.1819 26.2334 33.2002 25.9341Z" fill="#2C3639"/>
<path d="M37.187 24.7853C37.7531 23.3561 38.2096 21.7314 39.6582 20.6259C39.8104 20.5159 39.9991 20.4182 40.1756 20.5709C40.3521 20.7236 40.3095 20.974 40.1756 21.1512C39.2693 22.3895 38.4845 23.7129 37.8322 25.1029C37.747 25.2679 37.6435 25.4633 37.4244 25.4205C37.2053 25.3778 37.2174 25.1396 37.187 24.7853Z" fill="#2C3639"/>
<path d="M39.938 54.5919C40.0536 54.2132 39.725 53.4985 40.3275 53.4863C40.778 53.4863 40.6258 54.1826 40.6866 54.5858L41.2345 58.4215C41.2691 58.5514 41.2915 58.6844 41.3014 58.8185C41.3014 59.1422 41.5023 59.6553 41.0762 59.7225C40.6501 59.7897 40.6562 59.24 40.5832 58.9223C40.2514 57.4988 40.0356 56.0505 39.938 54.5919V54.5919Z" fill="#2C3639"/>
<path d="M43.511 22.5437C43.4639 22.7046 43.4049 22.8618 43.3345 23.014C42.8901 23.9302 42.4397 24.8463 41.9711 25.7625C41.8798 25.9396 41.758 26.184 41.4902 26.0801C41.2224 25.9763 41.265 25.7442 41.3259 25.5304C41.6524 24.4199 42.1166 23.3549 42.7075 22.3604C42.8353 22.1467 43.0179 21.9695 43.3162 22.0856C43.4744 22.1589 43.5353 22.3055 43.511 22.5437Z" fill="#2C3639"/>
<path d="M32.0255 31.4308C32.0719 30.4238 32.252 29.4276 32.5611 28.4684C32.6402 28.2241 32.7437 27.8882 33.0906 27.992C33.4376 28.0959 33.2854 28.4013 33.255 28.6028C33.0724 29.7389 32.8837 30.881 32.6463 32.0171C32.6037 32.2431 32.6463 32.6645 32.269 32.6279C31.8916 32.5913 32.0255 32.2065 32.0011 31.9499C32.0255 31.8339 32.0255 31.73 32.0255 31.4308Z" fill="#2C3639"/>
<path d="M41.8008 54.4706C41.8008 54.4706 41.8312 54.2874 41.8616 54.1286C41.8921 53.9697 41.9712 53.8048 42.166 53.817C42.3607 53.8293 42.4155 53.9881 42.4399 54.1591C42.6468 55.5395 42.8497 56.9219 43.0486 58.3063C43.0486 58.4896 43.1033 58.7278 42.872 58.7828C42.5434 58.8561 42.4764 58.5506 42.4095 58.3369C42.0384 57.0805 41.8338 55.7806 41.8008 54.4706V54.4706Z" fill="#2C3639"/>
<path d="M15.2505 29.5997C14.9623 30.7263 14.4825 31.7946 13.8323 32.7575C13.7288 32.9041 13.5766 33.0873 13.3697 32.9835C13.1627 32.8796 13.2479 32.6048 13.3149 32.4215C13.6923 31.3649 14.2279 30.3632 14.5322 29.2699C14.5809 29.0561 14.7331 28.8545 14.9948 28.94C15.2566 29.0256 15.2566 29.3065 15.2505 29.5997Z" fill="#2C3639"/>
<path d="M76.1055 29.7213C76.1055 29.3243 76.1055 29.0495 76.3916 28.9701C76.6776 28.8907 76.7629 29.1044 76.8481 29.3182C77.2437 30.3749 77.6454 31.4254 78.0654 32.476C78.1324 32.6531 78.1872 32.8608 77.9985 32.989C77.8098 33.1173 77.688 32.989 77.5845 32.8486C76.9206 31.8965 76.4206 30.8395 76.1055 29.7213Z" fill="#2C3639"/>
<path d="M39.3294 26.374C39.0251 26.3373 38.9703 26.1235 39.0251 25.9525C39.301 24.808 39.8387 23.7436 40.5955 22.8436C40.6466 22.7798 40.7179 22.7353 40.7975 22.7176C40.8772 22.6998 40.9605 22.7098 41.0337 22.7459C41.1035 22.7891 41.1547 22.8569 41.1772 22.936C41.1997 23.0151 41.192 23.0998 41.1555 23.1735C40.7151 24.2391 40.1772 25.2615 39.5486 26.2274C39.4857 26.2901 39.4113 26.3399 39.3294 26.374V26.374Z" fill="#2C3639"/>
<path d="M36.8945 28.377C36.6998 29.3543 36.505 30.3316 36.2859 31.3027C36.2433 31.5043 36.1763 31.7791 35.8963 31.7302C35.6163 31.6814 35.6041 31.4188 35.6285 31.205C35.6842 30.1808 35.8893 29.1704 36.2372 28.206C36.3102 28.0167 36.4198 27.7662 36.6876 27.8334C36.9554 27.9006 36.8945 28.1266 36.8945 28.377Z" fill="#2C3639"/>
<path d="M74.1758 87.4534C74.0479 86.5311 73.9323 83.9841 73.7558 83.9902C73.5793 83.9964 73.3723 86.3113 73.1471 88.0215C72.8549 89.9271 72.7271 91.3685 69.8785 91.4296C69.4342 91.4296 69.6594 91.8389 69.8359 91.8389C73.2993 91.9122 72.9584 93.3475 73.2201 95.1493C73.4044 96.4392 73.5202 97.7379 73.5671 99.04C73.7099 99.0835 73.8624 99.0835 74.0053 99.04C74.0053 99.04 74.2792 94.8256 74.5227 93.3842C74.7236 92.2053 76.16 91.9855 77.3287 91.7656C77.3895 91.7656 77.4565 91.4235 77.2252 91.3991C74.8088 91.1181 74.6323 90.6112 74.1758 87.4534Z" fill="#2C3639"/>
<path d="M4.58655 62.9475C4.45873 62.0313 4.34308 59.4844 4.16656 59.4844C3.99005 59.4844 3.78311 61.8115 3.52747 63.5156C3.2353 65.4274 3.10748 66.8627 0.258903 66.9299C-0.185427 66.9299 0.0397766 67.333 0.216291 67.3391C3.67963 67.4124 3.33877 68.8416 3.6005 70.6435C3.78451 71.9333 3.90032 73.232 3.94745 74.5342C4.09032 74.5777 4.24285 74.5777 4.38571 74.5342C4.38571 74.5342 4.6596 70.3259 4.90307 68.8844C5.10393 67.7056 6.54039 67.4796 7.70903 67.2597C7.7699 67.2597 7.83687 66.9238 7.60557 66.8932C5.24393 66.6184 5.03088 66.1053 4.58655 62.9475Z" fill="#2C3639"/>
<path d="M68.4664 95.4723C68.369 94.8004 68.2838 92.9314 68.156 92.9375C68.0282 92.9436 67.876 94.6355 67.6813 95.8876C67.4682 97.2863 67.3769 98.3308 65.2952 98.3857C64.9666 98.3857 65.1309 98.685 65.2952 98.685C67.8273 98.74 67.5778 99.7844 67.7664 101.128C67.9019 102.072 67.9893 103.022 68.0282 103.974C68.131 104.008 68.2418 104.008 68.3447 103.974C68.3447 103.974 68.5455 100.92 68.7281 99.8333C68.8681 98.9721 69.9455 98.8072 70.7794 98.6484C70.822 98.6484 70.8707 98.3979 70.7002 98.3796C68.9229 98.1597 68.789 97.781 68.4664 95.4723Z" fill="#2C3639"/>
<path d="M9.36458 78.7125C9.27327 78.0406 9.18806 76.1777 9.06024 76.1777C8.93242 76.1777 8.78023 77.8818 8.58546 79.1339C8.37242 80.5265 8.28113 81.5771 6.19948 81.6259C5.87079 81.6259 6.03514 81.9252 6.16296 81.9252C8.70112 81.9802 8.45157 83.0307 8.64026 84.3684C8.77598 85.3141 8.86334 86.2661 8.90198 87.2208C9.00538 87.2506 9.1151 87.2506 9.2185 87.2208C9.2185 87.2208 9.41936 84.1668 9.59587 83.0796C9.74195 82.2184 10.8132 82.0535 11.6471 81.8886C11.6958 81.8886 11.7445 81.6443 11.5741 81.6259C9.82717 81.4 9.69326 81.0274 9.36458 78.7125Z" fill="#2C3639"/>
</svg>
