<svg width="74" height="85" viewBox="0 0 74 85" fill="none" xmlns="http://www.w3.org/2000/svg">
<path d="M38.5132 75.2287C37.5764 77.1254 36.5313 78.9661 35.3833 80.7415C34.5509 81.9997 33.6311 83.1971 32.6309 84.3248C31.7845 85.3171 30.6823 85.2008 29.9942 84.0737C29.5692 83.3836 29.301 82.6076 29.2087 81.8012C29.1417 81.1886 28.9346 81.1887 28.5571 81.5562L28.4962 81.6052C26.8277 82.8792 26.0239 81.7399 25.7682 80.3066C25.4272 78.469 25.8473 76.6314 26.1944 74.8305C26.572 72.8459 27.0226 70.8735 27.3331 68.8277C26.6816 69.5627 26.0361 70.2978 25.3846 71.0206C22.6382 74.0832 19.3865 76.0556 15.1118 75.7371C14.2033 75.6736 13.3198 75.4101 12.5238 74.9653C11.8941 74.5987 11.1479 74.4912 10.4412 74.6652C9.52733 74.8716 8.57791 74.8582 7.6701 74.6262C6.76228 74.3941 5.92167 73.95 5.21655 73.3298C4.96307 73.114 4.65927 72.9665 4.3336 72.9011C3.48635 72.7402 2.714 72.3068 2.13299 71.666C1.55197 71.0252 1.19375 70.2117 1.11232 69.3483C0.80176 67.1616 1.41071 65.1218 2.07445 63.1005C2.97567 60.3502 4.59544 57.9613 5.96555 55.456C7.3272 52.8469 8.42083 50.1049 9.22946 47.2725C10.2525 43.9587 10.831 40.5346 11.5617 37.1657C11.72 36.4306 11.9697 35.7078 12.1706 34.9912C12.2741 34.6727 12.3289 34.4705 11.9331 34.2439C10.2126 33.1942 8.88696 31.6 8.16382 29.7111C7.11749 27.3218 5.70821 25.1107 3.9865 23.157C3.41374 22.5121 2.99694 21.7427 2.76863 20.909C2.60743 20.5204 2.58379 20.0879 2.70165 19.6839C3.21925 18.759 2.64076 18.3363 2.09272 17.7728C0.887494 16.5195 0.16446 14.876 0.0527735 13.1359C-0.361304 8.32749 1.67863 4.62777 5.56364 1.95711C7.38637 0.730341 9.52119 0.0563541 11.7139 0.0153832C17.6206 -0.217381 22.4312 2.20826 26.5903 6.14074C29.1639 8.53385 31.1914 11.4595 32.5334 14.7163C32.6837 15.0475 32.7882 15.3978 32.844 15.7575C32.9171 16.3211 33.1363 16.3701 33.6235 16.168C33.9656 15.985 34.2678 15.7351 34.5125 15.4329C37.1154 12.6898 40.1943 10.448 43.5979 8.81752C47.2513 7.01284 51.3266 6.25013 55.3808 6.61237C58.6872 6.84758 61.8571 8.03166 64.5148 10.0242C65.3749 10.7775 66.1361 11.6379 66.7801 12.5846C66.8516 12.7063 66.9518 12.8085 67.0717 12.8822C67.1917 12.9559 67.3279 12.9988 67.4682 13.0073C69.5325 13.0073 71.0609 14.1833 72.5771 15.39C72.8276 15.576 73.0637 15.7808 73.2835 16.0026C73.6367 16.3762 74.136 16.7927 73.9655 17.3195C73.8673 17.5912 73.7053 17.835 73.4932 18.0302C73.2812 18.2253 73.0254 18.3661 72.7477 18.4404C72.3764 18.561 71.9864 18.6129 71.5968 18.5936C71.0913 18.5446 71.0426 18.7222 71.2131 19.1755C71.8726 20.74 72.2003 22.4257 72.1753 24.1248C71.9134 28.7004 69.2585 32.3144 64.6853 33.4354C63.7416 33.6942 62.7494 33.7179 61.7945 33.5045C60.8396 33.291 59.9508 32.8468 59.2049 32.2103C58.8822 31.9408 58.6873 31.9101 58.4985 32.2776C57.2319 34.7278 55.1737 36.3633 52.8963 37.7905C51.7324 38.5298 50.6699 39.4194 49.7359 40.4366C49.4497 40.7429 49.2975 40.9818 49.6628 41.3554C51.9707 43.6953 52.9572 46.7212 53.9254 49.7656C54.6711 52.3684 55.1826 55.0335 55.4538 57.7285C55.5972 59.0365 55.3868 60.3592 54.8449 61.5569C54.7298 61.8465 54.5521 62.1067 54.3246 62.3186C54.0971 62.5305 53.8255 62.6888 53.5296 62.7819C53.1094 62.9106 53.0059 63.1556 52.9207 63.566C52.6117 66.0908 51.5111 68.4509 49.7785 70.3039C48.4328 71.7066 47.6046 71.676 46.2832 70.2549C46.1432 70.1018 46.0214 69.9364 45.8448 69.722L44.225 72.9684C43.6782 74.1539 42.9464 75.2437 42.0572 76.1965C40.8028 77.4644 39.7372 77.3297 38.7994 75.7922L38.5132 75.2287ZM7.09208 72.7357C7.35956 72.9858 7.7025 73.1389 8.06638 73.1706C9.23707 73.41 10.4513 73.3102 11.5678 72.8827C14.5516 71.9884 17.3588 70.8674 19.1247 68.0436C19.5083 67.4311 19.965 66.8614 20.4034 66.2795C20.526 66.0778 20.7149 65.9256 20.9374 65.8495C21.1599 65.7734 21.4019 65.7782 21.6213 65.863C21.8393 65.9537 22.0277 66.1038 22.1654 66.2965C22.3032 66.4891 22.3846 66.7166 22.4007 66.9533C22.4345 67.4503 22.329 67.9469 22.0963 68.3867C21.1707 70.4815 19.2404 71.3084 17.3466 72.1599C16.1315 72.7836 14.8834 73.3398 13.6077 73.826C13.858 73.9326 14.1142 74.0246 14.375 74.1016C15.729 74.3655 17.1245 74.3216 18.4595 73.9729C19.7944 73.6242 21.0349 72.9796 22.0902 72.0864C24.4407 70.2488 26.1701 67.7986 28.0761 65.5322C29.1346 64.1161 30.3388 62.8165 31.6688 61.6549C32.8538 60.7245 34.1612 59.9639 35.5538 59.3946C38.2482 58.3809 40.5113 56.4615 41.9598 53.9614C42.2095 53.5143 42.5322 52.963 43.1777 53.306C43.8232 53.649 43.5065 54.1697 43.3055 54.623C43.1681 54.9346 43.0009 55.2321 42.8062 55.5111C41.2241 57.8608 38.9685 59.6704 36.3393 60.6993C34.1152 61.5952 32.1376 63.0153 30.5727 64.8401C29.896 65.562 29.4377 66.4628 29.2513 67.4372C28.7459 70.1446 28.1187 72.8337 27.595 75.5411C27.3784 76.7428 27.226 77.9553 27.1383 79.1734C27.1078 79.5593 27.1748 80.1535 27.4184 80.325C27.7594 80.57 28.0273 80.031 28.3561 79.8166C29.574 78.9774 30.25 79.2592 30.5422 80.7048C30.6491 81.3715 30.7997 82.0303 30.9929 82.6771C31.2608 83.4673 31.4861 83.4857 32.022 82.8302C33.7996 80.6207 35.3406 78.2289 36.6194 75.6942C37.1248 74.6958 37.5572 73.6545 38.0687 72.6622C38.1196 72.5175 38.2119 72.3913 38.334 72.2992C38.4561 72.2072 38.6025 72.1536 38.7548 72.1451C38.9071 72.1366 39.0585 72.1736 39.19 72.2514C39.3214 72.3292 39.4271 72.4444 39.4936 72.5825C39.6798 72.8672 39.7715 73.2039 39.7555 73.5442C39.7727 74.1202 39.9228 74.6843 40.1939 75.1919C40.4253 75.6391 40.6932 75.6881 41.022 75.3022C42.1215 73.948 43.0331 72.45 43.7318 70.849C44.2252 69.7572 44.6523 68.6363 45.0106 67.4923C45.1446 67.0881 45.3759 66.7389 45.8935 66.7512C46.4111 66.7634 46.5877 67.1616 46.6912 67.572C46.7689 68.0095 46.9062 68.4341 47.0992 68.8338C47.8178 70.0956 48.0613 70.1263 49.0296 69.0298C49.2001 68.8338 49.3645 68.6317 49.5167 68.4173C50.8375 66.5623 51.5872 64.3576 51.6724 62.0775C51.7211 61.1955 52.1656 60.8525 52.9876 61.1036C53.4504 61.2506 53.554 60.9811 53.6514 60.6871C53.9803 59.7743 54.0949 58.7974 53.9863 57.8326C53.7052 55.1357 53.1793 52.4702 52.4152 49.8697C51.4653 46.807 50.3814 43.824 47.83 41.6678C47.4712 41.2884 47.1989 40.8347 47.0323 40.3386C46.4713 39.0928 46.3323 37.6962 46.6364 36.3633C46.7339 35.8487 46.4964 35.8242 46.1189 35.9957C45.9742 36.0545 45.8403 36.1373 45.723 36.2407C45.6579 36.3237 45.5758 36.3917 45.4824 36.4401C45.389 36.4885 45.2863 36.5163 45.1813 36.5215C45.0764 36.5267 44.9715 36.5092 44.8738 36.4703C44.7761 36.4314 44.6877 36.372 44.6148 36.2959C44.2494 35.9835 44.3712 35.6099 44.5539 35.2301C45.1619 34.019 45.8729 32.8631 46.6791 31.7754C48.1468 29.6124 50.2255 27.9418 52.6466 26.9792C54.4735 26.2993 56.3003 25.601 58.0905 24.9027C58.2264 24.8304 58.3808 24.8012 58.5335 24.8189C58.6861 24.8365 58.8299 24.9002 58.9459 25.0017C59.0618 25.1031 59.1446 25.2374 59.1832 25.387C59.2218 25.5366 59.2145 25.6945 59.1623 25.8399C58.7746 27.4122 58.1217 28.906 57.232 30.2563C56.0567 31.9653 54.4673 33.319 53.0485 34.7768C52.4385 35.4381 51.8921 36.1559 51.4166 36.9207C53.1886 35.8365 54.9545 34.7645 56.2211 33.0555C58.1186 30.5248 59.263 27.5044 59.5215 24.3453C59.5642 23.8675 59.4363 23.9226 59.0709 23.9533C57.4451 24.1125 55.8314 24.3269 54.2299 24.6332C51.6869 25.1264 49.1882 25.8271 46.7582 26.7281C45.9057 27.0405 45.4551 27.7816 44.8035 28.3084C44.0798 28.9081 43.2254 29.3272 42.31 29.5316C41.3947 29.736 40.4442 29.7199 39.5362 29.4845C35.6573 28.5841 32.9962 26.3422 31.9306 22.3974C31.8 21.7904 31.7005 21.1771 31.6322 20.5598C31.0964 21.2336 30.6519 21.8707 30.1282 22.4403C28.2676 24.3525 25.9145 25.7057 23.3324 26.3483C23.1071 26.4096 22.8514 26.3483 22.6687 26.5259C21.9389 27.1235 21.1159 27.5954 20.2329 27.9225C16.6646 29.7601 14.2349 32.4001 13.285 36.4368C12.4629 39.9527 11.8966 43.5299 10.8492 47.003C9.82646 50.7508 8.33914 54.3542 6.42225 57.7285C4.77812 60.4849 3.2436 63.2904 2.65902 66.5123C2.35674 67.7026 2.41397 68.9565 2.82343 70.114C2.97471 70.5048 3.23757 70.8419 3.57889 71.0828C3.92022 71.3237 4.32475 71.4576 4.74158 71.4677C6.02152 71.5788 7.29961 71.2341 8.35259 70.4938C9.35623 69.7076 10.2876 68.8322 11.1354 67.8782C11.5779 67.3636 12.1078 66.9322 12.7004 66.6042C13.2728 66.3469 13.9183 66.0958 14.4054 66.7144C14.6353 66.9705 14.7665 67.3007 14.7754 67.6456C14.7844 67.9905 14.6704 68.3272 14.4541 68.5949C13.5784 69.7419 12.3076 70.5177 10.8918 70.7694C10.6379 70.7996 10.3931 70.8831 10.1733 71.0144C9.26705 71.7839 8.2205 72.3686 7.09208 72.7357ZM65.1542 13.1665C65.0099 12.7978 64.79 12.4639 64.5087 12.1865C61.939 9.53419 58.6264 8.51124 55.125 8.18659C51.9344 7.88447 48.7185 8.3658 45.7535 9.58929C41.9767 11.1366 38.5566 13.4489 35.706 16.3823C35.0057 17.0867 34.1898 17.8953 34.3177 18.9979C34.5003 20.6395 34.7196 22.2688 35.6451 23.7512C37.271 26.3544 39.6215 27.4631 42.4348 26.7035C43.8562 26.289 45.067 25.3448 45.8204 24.0635C48.2562 20.4312 51.8185 18.9244 56.0628 18.9182C56.3637 18.9599 56.6702 18.9126 56.9448 18.7821C57.2195 18.6516 57.4504 18.4435 57.6095 18.1832C58.4513 16.863 59.5566 15.7331 60.8554 14.8653C62.1541 13.9975 63.618 13.4107 65.1542 13.142V13.1665ZM3.89516 5.6078C4.15148 5.55533 4.41379 5.53887 4.6746 5.55883C6.54404 5.79159 8.32823 6.23262 9.80186 7.54957C9.89452 7.65367 10.0116 7.73284 10.1424 7.77991C10.2732 7.82697 10.4136 7.84044 10.5508 7.81909C12.9135 7.50669 14.7586 8.46835 16.287 10.2386C18.059 12.2967 18.7228 14.7897 19.1308 17.3869C19.3425 19.388 20.2815 21.2399 21.7675 22.5873C22.3764 23.1325 22.9853 23.647 23.8561 23.0161C24.0523 22.928 24.2561 22.8582 24.4651 22.8078C26.9008 21.7604 29.0747 20.4557 30.457 18.0729C31.2242 16.7437 31.4983 15.5432 30.6519 14.0547C28.9834 11.139 27.1017 8.42549 24.4955 6.28162C20.3304 2.85754 15.7085 0.811679 10.1916 1.73661C7.67018 2.13231 5.40673 3.51512 3.89516 5.58332V5.6078ZM72.2666 17.1603C71.7733 16.7376 71.4689 16.4619 71.1461 16.2108C69.8491 15.2124 68.4546 14.3732 66.7557 14.5141C65.3001 14.5522 63.8718 14.9201 62.5772 15.5904C61.2825 16.2606 60.1548 17.216 59.278 18.3853C58.6088 19.1535 58.0921 20.0433 57.7556 21.007C57.4085 22.2749 57.7556 22.6853 59.0344 22.4587C59.2089 22.4125 59.3858 22.3757 59.5642 22.3484C60.6054 22.2504 60.8978 22.5567 60.9586 23.5735C60.9937 25.6917 60.5914 27.7941 59.7773 29.7479C59.5885 30.2747 59.5703 30.6973 60.0696 31.0526C60.7237 31.5667 61.4919 31.9139 62.3084 32.0643C63.125 32.2147 63.9656 32.1639 64.7584 31.9162C70.2388 30.2624 72.0961 24.2718 69.5873 19.2429C69.4997 19.0397 69.3493 18.8703 69.1584 18.76C68.9675 18.6496 68.7463 18.6041 68.5277 18.6303C67.0882 18.7117 65.7318 19.3349 64.728 20.3761C64.4418 20.6517 64.5331 20.8232 64.728 21.0866C65.0922 21.4957 65.3705 21.9746 65.5463 22.4946C65.7221 23.0146 65.7917 23.5649 65.751 24.1125C65.7613 24.3946 65.7121 24.6756 65.6069 24.9372C65.5016 25.1989 65.3426 25.4352 65.1402 25.6306C64.9378 25.8261 64.6967 25.9764 64.4325 26.0716C64.1684 26.1667 63.8872 26.2047 63.6075 26.1829C62.1339 26.0604 61.2936 24.6393 61.6711 22.8936C62.0347 21.2655 62.9381 19.8103 64.2329 18.7672C65.5277 17.7242 67.1368 17.1553 68.7957 17.1541L72.2666 17.1603ZM4.18136 20.3087C4.29835 20.9463 4.58689 21.5396 5.01561 22.0238C6.33091 23.7573 7.78018 25.3927 8.72403 27.4018C9.21286 28.637 9.82493 29.8191 10.5508 30.9301C11.0685 31.6819 11.7312 32.3214 12.4994 32.8106C12.6639 32.9086 12.8709 33.0372 13.0292 32.7493C13.1875 32.4614 13.1997 32.3756 12.9683 32.2164C11.446 31.1996 10.8127 29.5702 10.1977 27.9838C9.51565 26.2319 9.02241 24.4188 7.64012 23.0345C7.54751 22.9736 7.47056 22.8915 7.41558 22.7949C7.36059 22.6984 7.32914 22.59 7.3238 22.4789C7.31845 22.3677 7.33937 22.2569 7.38482 22.1554C7.43028 22.0539 7.49899 21.9648 7.58532 21.8952C7.67393 21.8168 7.77708 21.7569 7.8888 21.7188C8.00053 21.6807 8.11864 21.6651 8.23635 21.6731C8.35405 21.6811 8.46903 21.7124 8.57467 21.7652C8.68032 21.818 8.77452 21.8913 8.8519 21.9809C11.3729 23.99 13.6869 26.1707 14.8682 29.2885C14.99 29.607 15.0935 29.6376 15.3554 29.4171C16.999 28.0197 18.8168 26.8439 20.7627 25.9195C20.894 25.8681 21.0082 25.7805 21.0922 25.6667C21.1763 25.5529 21.2267 25.4177 21.2377 25.2764C21.4204 24.0819 21.4386 24.0819 20.3791 23.5306C18.2417 22.4035 15.873 22.2198 13.5651 21.7849C10.6483 21.2397 7.64622 21.0499 4.9669 19.5675C4.46757 19.2919 4.18136 19.5491 4.18136 20.2842V20.3087ZM8.97369 19.3531C9.01632 19.5063 9.13203 19.4879 9.22946 19.5124C12.2011 20.2045 15.2579 20.419 18.2113 21.1785C18.7045 21.301 18.6132 21.0192 18.4975 20.7497C18.092 19.6265 17.8003 18.4649 17.6267 17.2827C17.2065 15.1817 16.7011 13.1175 15.3066 11.3963C14.4438 10.2355 13.1582 9.46659 11.7322 9.25853C11.3242 9.2034 11.0867 9.25854 11.3242 9.79757C11.8869 11.0547 12.1176 12.4366 11.994 13.8097C11.8284 15.6932 10.9811 17.45 9.61307 18.7467C9.41212 18.9305 9.02241 18.9734 8.97369 19.3286V19.3531ZM4.33969 7.10239C6.1665 8.58473 7.70102 10.0916 7.81672 12.5356C7.85325 13.3809 7.55487 14.4038 6.97029 14.7346C6.56871 14.9146 6.1232 14.9711 5.68979 14.8969C5.25638 14.8228 4.85444 14.6214 4.53454 14.3181C3.48717 13.3442 3.37757 11.9843 4.16919 10.6429C4.3945 10.257 4.99125 9.99359 4.80857 9.50356C4.62589 9.01353 4.09002 8.85428 3.7003 8.54801C3.51762 8.40712 3.30449 8.30909 3.09136 8.17433C2.62857 7.84356 2.34237 7.89869 2.12316 8.4806C1.63453 9.74737 1.42672 11.1062 1.51422 12.4621C1.67254 14.6917 2.36064 16.6457 4.46757 17.7789C4.87555 17.9994 5.35052 18.1036 5.74024 18.3363C6.06521 18.534 6.44334 18.6249 6.82205 18.5963C7.20075 18.5678 7.5612 18.4212 7.85325 18.1771C8.7779 17.5933 9.51666 16.7549 9.98186 15.7615C10.4471 14.7681 10.6192 13.6613 10.4778 12.5724C10.1246 8.84203 7.72538 7.23106 4.33969 7.05955V7.10239ZM57.2563 27.0098C52.9937 28.1798 49.2853 29.7908 47.1784 33.8457C48.585 33.7355 48.8895 34.152 48.3963 35.4689C48.2385 35.8631 48.1261 36.2741 48.0613 36.694C47.9496 37.4912 47.9784 38.302 48.1466 39.089C48.2558 39.0313 48.345 38.9416 48.4024 38.8318C49.5189 36.8625 50.8572 35.0291 52.3909 33.3679C53.2739 32.4124 54.2177 31.5304 55.1311 30.5932C56.0687 29.5361 56.7908 28.304 57.2563 26.967V27.0098ZM47.0992 24.9211C49.5294 24.1851 51.9946 23.5718 54.4856 23.0835C55.0154 22.9793 55.7035 23.0835 56.0323 22.7037C56.3612 22.3239 56.0628 21.6379 56.2029 21.1172C56.3734 20.5047 56.0872 20.4067 55.5939 20.4312C53.9891 20.4996 52.4121 20.8759 50.9477 21.5399C49.4014 22.3021 48.0761 23.4517 47.0992 24.8782V24.9211ZM63.1447 23.696C63.1447 24.1432 63.1447 24.6822 63.7536 24.67C64.3626 24.6577 64.3199 24.1126 64.3139 23.6715C64.3263 23.5684 64.3159 23.4638 64.2834 23.3653C64.0581 23.0039 64.1007 22.2749 63.6745 22.3055C63.2482 22.3362 63.3335 23.0528 63.1873 23.4632C63.1654 23.5224 63.1511 23.5842 63.1447 23.647V23.696ZM5.84985 10.9859C5.08867 11.7638 4.94862 12.4927 5.41751 13.0869C5.48516 13.1989 5.58673 13.286 5.70729 13.3357C5.82786 13.3853 5.96106 13.3947 6.08734 13.3625C6.19958 13.3233 6.2928 13.2426 6.34819 13.1369C6.40358 13.0311 6.41699 12.9082 6.38571 12.7929C6.22739 12.1558 6.32482 11.482 5.84985 10.9369V10.9859Z" fill="#2C3639"/>
<path d="M19.0515 56.4061C19.289 55.4444 19.9406 54.7584 20.4521 53.956C21.5238 52.3634 22.6442 50.8014 23.7708 49.2456C24.0908 48.8014 24.2864 48.2788 24.3371 47.7326C24.873 42.6485 30.4264 40.7068 34.2079 42.9977C34.3722 43.0799 34.4994 43.2216 34.5638 43.3944C34.6283 43.5672 34.6251 43.7582 34.555 43.9287C33.6477 46.7831 32.0462 49.0005 28.9711 49.7295C28.0078 49.9541 27.0046 49.9394 26.0482 49.6866C25.8476 49.6018 25.622 49.5991 25.4196 49.6792C25.2171 49.7593 25.0537 49.9158 24.9643 50.1154C24.4772 50.9423 23.856 51.6896 23.3567 52.5042C22.2972 54.25 20.5982 55.2301 19.0515 56.4061ZM26.5536 45.9011C26.2661 46.3066 26.0593 46.7642 25.9447 47.2487C25.7559 47.8612 25.9995 48.1798 26.5962 48.3206C29.032 48.9332 32.2046 46.9547 32.777 44.4984C32.8196 44.3147 32.9535 44.039 32.6856 43.9533C32.2533 43.8124 31.8331 43.4571 31.3581 43.6776C31.0841 43.8062 31.1937 44.137 31.2424 44.3881C31.327 45.0473 31.1642 45.7144 30.7858 46.2593C30.4075 46.8041 29.8407 47.1875 29.1964 47.3345C27.9724 47.5182 27.2296 46.826 26.5536 45.9011Z" fill="#2C3639"/>
<path d="M69.2035 20.7441C70.2631 20.7441 71.6393 21.9692 71.7793 22.9738C71.8281 23.3597 71.621 23.4577 71.3105 23.3168C71.0243 23.1413 70.7857 22.8972 70.6163 22.6062C70.262 22.0542 69.7178 21.653 69.0878 21.4792C68.8321 21.4241 68.5215 21.3383 68.6007 21.0014C68.6799 20.6645 69.0209 20.7748 69.2035 20.7441Z" fill="#2C3639"/>
<path d="M31.072 83.0571C30.9441 83.3143 31.072 83.6696 30.7066 83.6696C30.3413 83.6696 30.2743 83.3879 30.1768 83.149C29.5882 81.7215 29.2642 80.1977 29.2209 78.6529C29.093 74.941 30.3169 71.5659 31.8941 68.2888C31.9854 68.1051 32.095 67.8478 32.3325 67.9275C32.6735 68.0377 32.5761 68.3623 32.5091 68.5951C32.0707 70.1326 31.5957 71.6578 31.1755 73.1891C30.3529 76.1434 30.2568 79.2547 30.8954 82.2547C30.9868 80.7417 30.8954 79.2226 31.0294 77.7035C31.5355 72.5976 33.4155 67.7269 36.4672 63.6152C37.9942 61.4962 39.8199 59.6123 41.8867 58.0227C42.6792 57.3829 43.3872 56.644 43.9936 55.8237C44.1276 55.6461 44.2798 55.3643 44.5478 55.5236C44.8157 55.6829 44.6574 55.9891 44.5478 56.2158C43.8909 57.3785 43.0113 58.3987 41.9598 59.2172C36.8431 63.6344 33.4332 69.7206 32.3264 76.4111C32.103 77.5171 32.0435 78.6503 32.1498 79.7739C32.57 78.0894 32.9658 76.3927 33.4103 74.7143C34.0801 72.1907 34.7561 69.6609 36.1505 67.4068C36.4063 66.9841 36.6864 66.5737 36.9726 66.1817C37.0822 66.0347 37.2527 65.9122 37.4476 66.0347C37.6424 66.1572 37.612 66.341 37.5511 66.5247C37.5147 66.6234 37.4719 66.7195 37.4232 66.8126C35.5964 70.0958 34.3785 75.3882 33.6722 79.0634C34.0071 78.1139 34.3724 77.1706 34.6647 76.2089C35.365 73.8813 35.9313 71.5169 37.0579 69.3363C38.4526 66.7303 40.2722 64.3781 42.4408 62.3779C44.1793 60.7982 45.807 59.0995 47.3123 57.2938C47.5194 57.0427 47.7569 56.5404 48.1588 56.8528C48.5607 57.1652 48.1588 57.5327 47.9761 57.8145C47.6773 58.3042 47.3457 58.7729 46.9835 59.2172C46.0393 60.435 45.0031 61.5777 43.884 62.6351C39.9213 66.1711 37.154 70.8626 35.9678 76.0558C35.2676 78.9347 33.8183 81.4829 32.2229 83.9453C32.1221 84.0968 32.0123 84.242 31.8941 84.3802C31.8088 84.4819 31.6905 84.55 31.5601 84.5725C31.4297 84.5949 31.2956 84.5702 31.1816 84.5027C30.9259 84.4047 30.9868 84.1841 31.005 83.9759C31.0233 83.7676 31.0537 83.4123 31.072 83.0571Z" fill="#2C3639"/>
<path d="M31.1817 25.7165C29.9638 28.1666 27.9969 29.5816 26.1031 31.0946C25.7378 31.3825 25.3968 31.7071 25.0253 31.995C24.8305 32.142 24.5991 32.4483 24.3555 32.2033C24.1119 31.9582 24.4042 31.6765 24.5686 31.4743C24.733 31.2722 25.0679 30.9414 25.3237 30.678C26.6207 29.3672 28.07 28.1911 29.1722 26.6904C29.508 26.2338 29.792 25.7406 30.0186 25.2203C27.4002 28.2218 23.643 30.0533 21.6031 33.6243C21.5321 33.7343 21.4505 33.8368 21.3595 33.9306C21.2377 34.0654 21.0916 34.243 20.9028 34.1389C20.714 34.0347 20.7749 33.7713 20.8541 33.5937C21.5094 32.1674 22.3466 30.8331 23.3446 29.6245C23.4932 29.4762 23.6166 29.3044 23.71 29.1161C22.5227 30.0057 21.509 31.1084 20.7201 32.3686C20.3304 33.0424 19.965 33.7407 19.5571 34.4084C19.4048 34.6534 19.2526 35.0883 18.8933 34.9229C18.534 34.7575 18.735 34.3655 18.8203 34.0837C19.4712 31.9138 20.7754 30.0005 22.553 28.6077C22.9306 28.2953 23.3386 27.9951 23.8074 27.6766C23.3507 27.5051 23.1072 27.7624 22.8514 27.9339C21.5855 28.8962 20.4038 29.9659 19.3196 31.1313C19.0334 31.407 18.7106 32.0378 18.2783 31.6397C17.9373 31.3396 18.4123 30.8924 18.6254 30.5617C19.3543 29.4102 20.3172 28.4269 21.4508 27.6766C21.8162 27.4316 22.0598 27.2417 21.4935 26.9477C21.4436 26.9303 21.3985 26.9014 21.3619 26.8632C21.3253 26.825 21.2982 26.7786 21.2827 26.7279C21.2673 26.6771 21.264 26.6234 21.2731 26.5711C21.2822 26.5189 21.3035 26.4695 21.3351 26.427C21.4569 26.231 21.6518 26.2862 21.8223 26.378C23.302 27.1866 24.6904 26.7333 26.0849 26.0473C28.2649 24.9631 30.0612 23.4869 30.9564 21.1041C31.1262 20.6936 31.3299 20.2982 31.5653 19.9219C31.681 19.7259 31.8637 19.4992 32.1255 19.5789C32.3874 19.6585 32.3691 19.9525 32.3447 20.1914C32.2534 20.9203 32.162 21.6431 32.0524 22.3659C31.5775 25.4776 32.3508 27.205 35.0971 28.6015C37.5179 29.8531 40.2575 30.342 42.9585 30.0042C43.8353 29.8564 44.6408 29.4265 45.2542 28.7792C45.5182 28.5458 45.7298 28.2584 45.8747 27.9362C46.0196 27.6141 46.0945 27.2645 46.0945 26.9109C46.1108 26.4993 46.1596 26.0897 46.2407 25.6859C46.2833 25.4531 46.4051 25.2203 46.6974 25.2326C46.9897 25.2448 47.0749 25.4837 47.1054 25.7226C47.2746 26.8218 47.0126 27.9441 46.3746 28.8527C45.8774 29.5492 45.2173 30.1119 44.4527 30.4912C43.688 30.8704 42.8424 31.0545 41.9903 31.0272C39.5386 31.0602 37.1105 30.5411 34.884 29.5081C33.2642 28.6995 31.8819 27.6827 31.1817 25.7165Z" fill="#2C3639"/>
<path d="M50.972 60.1181C50.8658 60.6064 50.6178 61.0519 50.2596 61.3983C49.5044 62.3219 48.6908 63.1956 47.8238 64.0138C44.9351 66.5744 42.8242 69.9038 41.7344 73.6184C41.4579 74.4066 41.1136 75.169 40.7053 75.897C40.6771 75.9843 40.6312 76.0647 40.5704 76.1332C40.5096 76.2017 40.4354 76.2567 40.3523 76.2947C40.2693 76.3327 40.1793 76.3529 40.088 76.354C39.9968 76.3552 39.9063 76.3372 39.8224 76.3013C39.3291 76.1237 39.6397 75.7684 39.7189 75.5172C40.2317 73.7886 40.8687 72.0996 41.6248 70.4638C42.5802 68.3686 43.8976 66.4605 45.5159 64.8285C47.1052 63.2543 48.6276 61.6004 50.1743 59.9833C50.3387 59.8179 50.4788 59.5974 50.7832 59.6648C50.9416 59.7077 50.9781 59.8731 50.972 60.1181Z" fill="#2C3639"/>
<path d="M41.2475 53.8145C41.1438 54.0043 41.0299 54.1883 40.9064 54.3658C39.9169 55.6868 38.6482 56.7705 37.1919 57.5387C36.2907 57.9981 35.3651 58.4636 34.47 58.8985C32.0024 60.0682 29.9804 62.014 28.7094 64.442C28.1005 65.5384 27.4429 66.5981 26.7852 67.6639C26.633 67.915 26.432 68.3683 26.1214 68.1846C25.8109 68.0008 26.1214 67.6333 26.2919 67.4066C27.0392 66.1197 27.7201 64.7949 28.3319 63.4374C29.7081 60.4299 32.1073 58.5004 35.0302 57.1834C36.9518 56.3736 38.721 55.2382 40.2609 53.8267C40.4119 53.6839 40.5872 53.5698 40.7786 53.4898C41.0282 53.3857 41.1927 53.4776 41.2475 53.8145Z" fill="#2C3639"/>
<path d="M56.4828 19.5004C55.0884 16.1621 55.8739 13.375 57.7312 10.7473C58.5654 9.58344 59.8198 9.36905 61.1229 9.32617C61.3787 9.32617 61.7319 9.37519 61.7319 9.68145C61.7319 9.98772 61.403 10.0919 61.1229 10.1592C60.8428 10.2266 60.4592 10.2817 60.1304 10.343C59.4758 10.4109 58.8721 10.7288 58.4436 11.2312C56.9883 13.1362 56.221 15.2371 56.7142 17.6689C56.8091 18.0492 56.9375 18.4202 57.0979 18.7776C57.2136 19.09 57.652 19.3901 57.2562 19.7393C57.091 19.9447 56.8641 20.0909 56.6095 20.1561C56.3549 20.2212 56.0862 20.2018 55.8435 20.1007C55.2153 19.8367 54.6791 19.3911 54.3028 18.8205C53.7666 18.0289 53.3984 17.1346 53.2213 16.1935C53.0443 15.2523 53.0621 14.2845 53.2738 13.3505C53.3255 13.121 53.4052 12.8988 53.5112 12.689C53.6574 12.4133 53.8157 12.0765 54.1932 12.1806C54.5708 12.2847 54.4185 12.6584 54.382 12.9279C54.0318 14.7138 54.3004 16.5665 55.1432 18.1773C55.4535 18.7391 55.9188 19.1986 56.4828 19.5004V19.5004Z" fill="#2C3639"/>
<path d="M48.2622 21.7115C46.253 21.4092 44.4435 20.3218 43.2263 18.6856C43.0907 18.5263 42.9742 18.3516 42.8792 18.1649C42.7209 17.8035 42.2703 17.3441 42.6905 17.0501C43.1106 16.7561 43.3542 17.3503 43.5978 17.6627C44.706 19.0102 45.9057 20.2108 47.6777 20.6457C48.1566 20.7689 48.6526 20.8103 49.1452 20.7682C49.2913 20.7682 49.474 20.7192 49.5532 20.8968C49.5733 20.9389 49.5846 20.9846 49.5866 21.0312C49.5885 21.0778 49.581 21.1243 49.5645 21.1679C49.5479 21.2114 49.5228 21.2511 49.4905 21.2846C49.4582 21.318 49.4194 21.3445 49.3766 21.3624C49.2151 21.4406 49.0752 21.5574 48.969 21.7026C48.8629 21.8479 48.7937 22.0171 48.7677 22.1954C48.7053 22.3684 48.5933 22.5189 48.4459 22.628C48.2985 22.737 48.1223 22.7996 47.9395 22.8079C47.2046 22.9859 46.4361 22.9669 45.7108 22.7528C43.9971 22.1162 42.4777 21.0416 41.3021 19.635C41.1389 19.4315 40.9999 19.2095 40.888 18.9735C40.7419 18.6733 40.5226 18.2813 40.8515 18.0424C41.1803 17.8035 41.4604 18.2384 41.637 18.4651C42.6573 19.5828 43.8449 20.5334 45.1567 21.2827C45.6123 21.5768 46.1261 21.7675 46.6624 21.8416C47.1987 21.9156 47.7447 21.8712 48.2622 21.7115Z" fill="#2C3639"/>
<path d="M49.0662 52.0622C48.8307 52.871 48.5038 53.6499 48.0919 54.3837C47.0374 56.3395 45.6668 58.1052 44.0364 59.6087C42.7272 60.8337 41.4849 62.1323 40.2001 63.388C39.8652 63.7126 39.4998 64.0005 39.1466 64.3129C39.0066 64.4293 38.83 64.5518 38.6656 64.3803C38.5011 64.2088 38.5986 64.0373 38.696 63.878C38.7997 63.6976 38.9199 63.5274 39.0553 63.3696C40.3584 61.9486 41.5641 60.4417 42.9768 59.1248C44.8135 57.3869 46.3561 55.3593 47.5439 53.1219C47.7935 52.6686 48.0858 52.2337 48.3781 51.805C48.4938 51.6334 48.6704 51.4803 48.9079 51.6028C49.1454 51.7253 49.0723 51.9091 49.0662 52.0622Z" fill="#2C3639"/>
<path d="M49.7117 44.4973C49.7117 47.8601 48.9931 50.7207 46.8619 53.0728C46.5757 53.3913 46.2529 54.0713 45.7962 53.7221C45.3395 53.373 45.8754 52.8707 46.1007 52.497C47.5926 50.1554 48.3968 47.4376 48.4207 44.6565C48.4207 43.9276 48.4938 43.1987 48.5486 42.4698C48.5486 42.1574 48.5973 41.7899 49.0175 41.7777C49.4377 41.7654 49.4925 42.1146 49.5473 42.4269C49.6776 43.1089 49.7328 43.8032 49.7117 44.4973V44.4973Z" fill="#2C3639"/>
<path d="M38.7142 74.1561C38.7343 71.9708 39.4279 69.8456 40.6994 68.0736C41.8921 66.4943 43.1901 64.9983 44.5844 63.596C44.7549 63.4061 44.9924 63.1549 45.2481 63.3693C45.5039 63.5837 45.3029 63.8593 45.1507 64.0676C44.4687 64.9864 43.7806 65.9052 43.0742 66.8056C41.1058 69.1935 39.8403 72.0875 39.4206 75.1606C39.3902 75.4179 39.4632 75.8406 39.0431 75.7732C38.6229 75.7058 38.7082 75.3505 38.696 75.0688C38.6838 74.787 38.7142 74.4685 38.7142 74.1561Z" fill="#2C3639"/>
<path d="M55.6912 28.2844C55.4416 28.4131 55.2041 28.5478 54.9544 28.6581C54.8143 28.7255 54.6317 28.7684 54.5342 28.603C54.4368 28.4376 54.5343 28.2967 54.6804 28.2048C55.5329 27.5923 56.3793 26.9124 57.2744 26.3672C57.6702 26.1161 58.1269 26.4958 58.4923 26.6245C58.8577 26.7531 58.3949 27.0961 58.2061 27.2738C57.0631 28.3055 55.8415 29.2455 54.5525 30.0853C53.1854 30.9531 51.9541 32.0203 50.8989 33.2521C49.7514 34.6999 48.9082 36.367 48.4205 38.1524C48.3535 38.3668 48.4205 38.8507 47.9821 38.7159C47.6533 38.6118 47.7811 38.232 47.842 37.9564C48.5289 34.7794 50.4096 31.9923 53.091 30.1772C53.9496 29.5647 54.8326 28.9521 55.7034 28.3825L55.6912 28.2844Z" fill="#2C3639"/>
<path d="M51.4652 19.5497C50.7415 18.779 50.1156 17.921 49.6019 16.9954C49.4514 16.752 49.3269 16.4933 49.2304 16.2236C49.1452 15.9602 49.0173 15.5804 49.3157 15.4334C49.6141 15.2864 49.7419 15.7029 49.8698 15.9173C50.3262 16.7397 50.8782 17.5046 51.5139 18.196C51.7037 18.4631 51.9448 18.689 52.2231 18.8606C52.5013 19.0321 52.811 19.1456 53.1337 19.1944C53.3225 19.1944 53.5112 19.2679 53.5539 19.4762C53.5965 19.6844 53.4077 19.8314 53.2372 19.9662C52.2507 20.7318 51.2643 20.6277 50.223 20.0519C49.4034 19.623 48.6774 19.0336 48.0876 18.3183C47.4978 17.603 47.0561 16.7762 46.7886 15.8867C46.7547 15.7875 46.7322 15.6848 46.7216 15.5804C46.7216 15.219 46.5876 14.7474 47.0017 14.6126C47.5071 14.4472 47.5498 14.9924 47.6776 15.2925C48.3577 17.1434 49.7116 18.6652 51.4652 19.5497V19.5497Z" fill="#2C3639"/>
<path d="M48.8836 67.8347C49.415 66.1082 50.2256 64.4816 51.2828 63.0202C51.4028 62.8494 51.5351 62.6877 51.6786 62.5363C51.8552 62.3464 52.0622 62.1137 52.3362 62.2974C52.6102 62.4812 52.4763 62.7691 52.3362 62.9896C52.0622 63.4612 51.7699 63.9267 51.4776 64.3862C50.6792 65.7338 50.0453 67.1734 49.5899 68.6739C49.4438 69.1149 49.4864 69.7948 48.707 69.7458C48.707 69.7458 48.6278 69.8622 48.6095 69.9296C48.5486 70.1807 48.5365 70.5115 48.1894 70.4809C47.8423 70.4503 47.6961 70.095 47.6596 69.7887C47.3793 68.1798 47.6957 66.5234 48.5487 65.1335C48.7009 64.8946 48.8897 64.6005 49.2246 64.7353C49.5595 64.8701 49.4316 65.2253 49.3768 65.4887C49.2307 66.2421 49.0541 67.0262 48.8836 67.8347Z" fill="#2C3639"/>
<path d="M62.8221 26.4523C62.5478 27.6011 62.1707 28.7225 61.6956 29.8029C61.3643 30.544 60.8856 31.2091 60.2889 31.7569C60.0819 31.9406 59.8505 32.2286 59.5643 31.9284C59.2781 31.6283 59.5643 31.4506 59.7348 31.2485C59.9053 31.0464 60.1854 30.7462 60.3864 30.4706C61.2899 29.1851 61.8326 27.6786 61.9574 26.1093C61.9714 25.8733 61.9978 25.6381 62.0366 25.4049C62.0853 25.1905 62.0366 24.8965 62.3167 24.7924C62.5968 24.6882 62.609 25.0435 62.7673 25.1415C63.322 25.5729 63.9176 25.9483 64.5454 26.2625C65.0315 26.415 65.4824 26.6639 65.8713 26.9946C66.2602 27.3252 66.5793 27.731 66.8097 28.1877C67.0402 28.6445 67.1773 29.1431 67.213 29.6541C67.2487 30.165 67.1823 30.678 67.0177 31.1627C66.9458 31.3879 66.852 31.6054 66.7376 31.812C66.628 32.008 66.5001 32.2898 66.226 32.1795C65.952 32.0693 66.0616 31.7508 66.1408 31.5119C66.8715 29.3925 66.3722 28.1613 64.381 27.0465C63.9182 26.7892 63.7112 26.8198 63.7721 27.3956C63.7874 27.5259 63.7874 27.6574 63.7721 27.7877C63.7233 27.9898 63.6685 28.2348 63.4006 28.2103C63.1326 28.1858 63.1387 27.9898 63.1083 27.7999C62.9987 27.3712 62.9013 26.9117 62.8221 26.4523Z" fill="#2C3639"/>
<path d="M39.8589 49.9121C40.1877 49.9121 40.2669 50.1204 40.1634 50.3348C40.0266 50.585 39.852 50.8123 39.6458 51.0086C38.9736 51.6424 38.2273 52.1916 37.4232 52.644C35.0903 54.0676 32.9599 55.8025 31.0902 57.8016C30.871 58.0343 30.6335 58.5856 30.2681 58.2671C29.9028 57.9486 30.3717 57.5994 30.5665 57.3299C32.1346 55.034 34.2215 53.1448 36.6559 51.8171C37.6571 51.3206 38.6198 50.7493 39.5361 50.1081C39.6396 50.0361 39.7474 49.9707 39.8589 49.9121V49.9121Z" fill="#2C3639"/>
<path d="M5.47249 68.1787C4.56539 68.2054 3.66782 68.3728 2.81144 68.6748C2.51915 68.7606 2.14769 68.926 2.00154 68.5217C1.8554 68.1174 2.23295 67.9827 2.50697 67.8479C3.7057 67.2731 5.02991 67.0138 6.35546 67.0945C6.6921 67.1227 7.0205 67.2141 7.32367 67.364C7.48372 67.408 7.63005 67.4922 7.74896 67.6086C7.86787 67.725 7.95546 67.8698 8.00353 68.0296C8.0516 68.1893 8.05858 68.3587 8.02381 68.5219C7.98904 68.6852 7.91364 68.8368 7.80471 68.9627C7.47665 69.4673 7.03733 69.8889 6.52089 70.1949C6.00444 70.5009 5.42479 70.6829 4.82702 70.7268C4.39467 70.7636 3.96842 70.6778 3.82228 70.1878C3.67613 69.6978 3.99278 69.3486 4.43121 69.122C4.62533 68.968 4.85223 68.8614 5.09415 68.8104C5.33608 68.7594 5.58644 68.7654 5.82567 68.828C6.10578 68.9443 6.31891 68.9689 6.51377 68.73C6.58684 68.632 6.69037 68.4665 6.65383 68.393C6.51378 68.099 6.2093 68.2093 5.96573 68.1787C5.80147 68.1685 5.63675 68.1685 5.47249 68.1787V68.1787Z" fill="#2C3639"/>
<path d="M29.3672 72.3192C28.8191 75.2104 28.606 78.3894 27.2785 81.3112C27.1689 81.544 27.0836 81.8686 26.7548 81.7584C26.426 81.6481 26.4199 81.3173 26.4747 81.0295C26.8116 79.3634 27.1547 77.7014 27.5038 76.0434C27.756 74.6568 28.1435 73.2986 28.6608 71.9884C28.7521 71.7802 28.8434 71.5045 29.1479 71.5903C29.4524 71.676 29.3976 71.8966 29.3672 72.3192Z" fill="#2C3639"/>
<path d="M29.507 69.7469C30.2439 68.1482 30.6092 66.3596 31.5531 64.8038C32.3253 63.5632 33.1905 62.3837 34.141 61.2756C34.3603 61.0122 34.6039 60.4548 35.0423 60.7855C35.4807 61.1163 35.0423 61.5206 34.8596 61.8269C33.8305 63.493 32.8501 65.1835 31.8514 66.8619C31.2425 67.8726 30.7797 68.9507 30.1708 69.9552C30.0612 70.1329 29.9333 70.3411 29.6836 70.2676C29.434 70.1941 29.507 69.9736 29.507 69.7469Z" fill="#2C3639"/>
<path d="M52.3788 48.3006C52.2874 50.8243 51.1122 52.9436 49.8639 55.0385C49.7238 55.2713 49.4863 55.5653 49.1697 55.3632C48.853 55.161 49.1088 54.8792 49.2001 54.6526C49.736 53.2928 50.3023 51.9452 50.7529 50.5547C51.1941 49.2954 51.3885 47.9621 51.3253 46.6284C51.3253 46.3956 51.2279 46.1077 51.5262 46.0159C51.8246 45.924 51.9769 46.2058 52.0865 46.4446C52.3209 47.0335 52.4208 47.6677 52.3788 48.3006Z" fill="#2C3639"/>
<path d="M24.7207 22.6124C24.7539 22.4361 24.7986 22.2622 24.8547 22.0918C26.036 19.2619 27.9602 17.2589 30.9866 16.4503C31.1293 16.388 31.2864 16.367 31.4403 16.3898C31.5941 16.4125 31.7386 16.478 31.8574 16.579C32.1436 16.8607 32.1253 17.2405 31.7356 17.3079C28.5265 17.8469 26.9007 20.1807 25.5062 22.8207C25.4027 23.0106 25.3844 23.3414 25.0678 23.2801C24.7511 23.2189 24.7329 22.8942 24.7207 22.6124Z" fill="#2C3639"/>
<path d="M6.90917 10.3002C6.20281 10.4656 6.16625 10.1042 6.41592 9.62033C6.86044 8.75052 7.71296 8.44423 8.57156 8.21759C9.08306 8.07671 9.25357 7.96033 9.14396 7.34167C8.95261 6.33389 9.03994 5.29262 9.39643 4.33133C9.75292 3.37004 10.3649 2.52563 11.1656 1.89012C11.6373 1.44009 12.163 1.05116 12.7306 0.73242C12.9194 0.634414 13.1812 0.420022 13.3395 0.689538C13.4979 0.959054 13.2117 1.09992 13.0351 1.24693C12.2645 1.82187 11.558 2.47908 10.9281 3.20705C10.4359 3.83526 10.1029 4.57437 9.95754 5.36076C9.81221 6.14715 9.85901 6.95727 10.0939 7.72144C10.2888 8.49936 10.1974 8.60963 9.36319 8.76889C8.3828 8.95265 7.43286 9.22828 6.92744 10.2451L6.90917 10.3002Z" fill="#2C3639"/>
<path d="M44.6574 41.3552C44.4382 41.2939 44.1764 41.6798 44.012 41.2694C43.9195 40.7055 44.0136 40.1266 44.2799 39.6217C44.5722 39.4318 44.6818 39.6952 44.8888 39.9708C44.9741 39.4931 45.0411 39.1194 45.102 38.7458C45.1629 38.3721 45.1689 38.0903 45.5221 38.1332C45.8753 38.1761 45.9606 38.5375 45.9667 38.8437C45.9881 39.5466 45.9697 40.2501 45.9119 40.9509C45.6396 42.6809 45.0446 44.3436 44.1581 45.8512C44.0835 45.9862 43.9958 46.1134 43.8963 46.2309C43.7745 46.3718 43.6283 46.5188 43.4274 46.3963C43.2264 46.2738 43.3178 46.1207 43.3665 45.9675C43.5066 45.551 43.6466 45.1284 43.7928 44.7425C44.2023 43.6483 44.4922 42.5125 44.6574 41.3552Z" fill="#2C3639"/>
<path d="M40.395 57.7469C40.3022 57.9109 40.1984 58.0685 40.0845 58.2185C38.075 60.6033 36.0594 62.982 34.0377 65.3545C33.8794 65.5383 33.6967 65.8385 33.4288 65.6241C33.1609 65.4097 33.374 65.1769 33.4653 65.0115C33.9867 64.0212 34.6135 63.0908 35.3348 62.2367C36.6277 60.5698 38.0956 59.0481 39.713 57.6978C39.8714 57.5631 40.0357 57.4099 40.2611 57.5202C40.3098 57.5263 40.3402 57.6489 40.395 57.7469Z" fill="#2C3639"/>
<path d="M21.6883 4.08789C22.0592 4.09464 22.4252 4.17369 22.7661 4.32066C23.0036 4.42479 23.302 4.53505 23.2472 4.85969C23.1924 5.18434 22.8575 5.15983 22.6078 5.12308C22.0683 5.04953 21.5214 5.04953 20.982 5.12308C18.6802 5.43547 16.013 7.45683 15.6416 9.8641C15.6111 10.0969 15.6416 10.5073 15.3128 10.4766C14.9839 10.446 14.9048 10.0417 14.9169 9.74159C14.9438 9.05506 15.1542 8.38854 15.5259 7.81212C16.2098 6.76636 17.1187 5.88867 18.1854 5.24402C19.2521 4.59937 20.4493 4.20424 21.6883 4.08789V4.08789Z" fill="#2C3639"/>
<path d="M64.0642 16.1981C63.8492 16.5189 63.7016 16.8805 63.6304 17.2607C63.5592 17.6409 63.5659 18.0318 63.6501 18.4093C63.6928 18.7462 63.7597 19.077 63.8206 19.4078C63.8572 19.6099 63.9729 19.8549 63.6989 19.9468C63.4249 20.0387 63.3091 19.8059 63.2482 19.6161C62.8402 18.391 62.5054 17.0985 63.163 15.8183C63.5241 15.15 64.0348 14.5754 64.6549 14.14C64.7487 14.0481 64.8605 13.9767 64.9831 13.9303C65.1057 13.8839 65.2365 13.8635 65.3674 13.8705C65.6109 13.9133 65.9337 13.8704 66.0859 14.0848C66.2381 14.2992 65.9885 14.5688 65.8302 14.7525C64.8498 15.8918 64.6123 17.27 64.5331 18.6972C64.5331 18.9545 64.6732 19.3955 64.2956 19.4139C63.9181 19.4323 63.8876 18.9913 63.8511 18.6911C63.8437 17.8552 63.915 17.0205 64.0642 16.1981V16.1981Z" fill="#2C3639"/>
<path d="M34.6038 39.4125C34.5368 39.7372 34.2628 39.7739 33.9949 39.7923C33.2215 39.8597 32.4481 39.9026 31.6687 39.9516C29.8137 40.0578 28.0483 40.7892 26.6572 42.0281C26.5354 42.1322 26.4258 42.2425 26.2979 42.3343C26.17 42.4262 25.8777 42.7448 25.622 42.5304C25.3662 42.316 25.5854 41.9974 25.7559 41.7892C27.2905 39.9087 29.3669 39.1369 31.6991 38.9715C32.4993 38.8704 33.3107 38.9077 34.0984 39.0818C34.3115 39.1369 34.5246 39.1553 34.6038 39.4125Z" fill="#2C3639"/>
<path d="M55.0215 56.1972C54.9561 56.6932 54.8056 57.174 54.577 57.6183C53.5844 59.7744 51.9037 61.3977 50.3875 63.1311C50.2413 63.3027 50.0282 63.517 49.7785 63.3455C49.5289 63.174 49.6872 62.8984 49.809 62.733C50.1805 62.1694 50.5763 61.6182 50.9721 61.0669C52.2058 59.5148 53.2886 57.8472 54.2055 56.087C54.309 55.8542 54.4491 55.5786 54.7779 55.6766C55.1068 55.7746 54.9972 55.989 55.0215 56.1972Z" fill="#2C3639"/>
<path d="M43.5978 26.3059C41.7835 26.3507 40.0044 25.7979 38.5314 24.7316C38.1887 24.4922 37.8951 24.1886 37.6667 23.8373C37.5388 23.6168 37.3501 23.3596 37.618 23.1329C37.8859 22.9063 38.0442 23.1329 38.2269 23.2861C38.4096 23.4392 38.641 23.5923 38.8359 23.7393C40.6428 24.9142 42.7785 25.4706 44.9252 25.3258C45.1993 25.3258 45.6438 25.1359 45.6864 25.6014C45.729 26.067 45.3271 26.0792 45.0287 26.1527C44.561 26.2698 44.0795 26.3213 43.5978 26.3059V26.3059Z" fill="#2C3639"/>
<path d="M26.9554 7.61089C27.1929 7.61089 27.4973 7.57416 27.5643 7.86205C27.6313 8.14995 27.3329 8.2357 27.1015 8.28471C26.6205 8.38271 26.1394 8.49906 25.6523 8.55419C22.4188 8.90946 20.0866 10.6368 18.345 13.332C18.138 13.6566 17.9919 14.3672 17.4316 13.9935C16.8714 13.6199 17.5291 13.2646 17.7117 12.9706C19.8369 9.51588 23.0278 7.91716 26.9554 7.61089Z" fill="#2C3639"/>
<path d="M14.5334 75.2829C14.2229 75.2829 13.9245 75.2829 13.8636 74.9461C13.8027 74.6092 14.1072 74.5724 14.3203 74.4989C14.6857 74.3703 15.0632 74.2723 15.4347 74.1682C17.7016 73.484 19.7521 72.2173 21.384 70.4929C21.5606 70.3214 21.7493 70.009 21.9929 70.1928C22.2365 70.3765 22.0843 70.6828 21.9381 70.8788C21.0685 72.0829 19.9628 73.0949 18.6893 73.8524C17.4157 74.6099 16.0013 75.0967 14.5334 75.2829V75.2829Z" fill="#2C3639"/>
<path d="M44.2739 25.0619C42.6038 25.0485 40.9795 24.511 39.6277 23.5244C39.2126 23.2506 38.8832 22.8641 38.6778 22.4096C38.5864 22.1891 38.4768 21.9441 38.7204 21.7971C38.964 21.6501 39.1101 21.8399 39.2563 21.9931C40.3751 23.1366 41.8581 23.8478 43.4457 24.0022C44.3969 24.1216 45.3599 24.1092 46.3078 23.9654C46.5879 23.9226 47.008 23.7572 47.0994 24.1921C47.1907 24.627 46.801 24.6944 46.4904 24.8046C45.7675 24.9959 45.0211 25.0826 44.2739 25.0619V25.0619Z" fill="#2C3639"/>
<path d="M63.9851 12.1799C63.3697 12.3255 62.7935 12.605 62.297 12.9987C61.8004 13.3924 61.3956 13.8906 61.111 14.4585L60.5325 15.4814C60.429 15.6591 60.3315 15.8918 60.0758 15.7938C60.026 15.775 59.9805 15.7462 59.9422 15.7091C59.9039 15.672 59.8735 15.6274 59.853 15.5781C59.8325 15.5287 59.8222 15.4757 59.8228 15.4222C59.8234 15.3687 59.8349 15.3159 59.8566 15.267C60.3742 13.7724 60.9283 12.2779 62.5724 11.6714C63.3945 11.3652 64.2226 10.9854 65.1482 11.5122C65.6902 11.8184 65.6475 12.0573 65.2639 12.3636C64.7646 12.774 64.2226 13.1354 63.6868 13.5029C63.5163 13.6193 63.3092 13.7541 63.1326 13.5029C62.956 13.2518 63.1326 13.1477 63.2423 13.0068C63.431 12.7924 63.6441 12.5719 63.9851 12.1799Z" fill="#2C3639"/>
<path d="M6.40393 14.3179C6.03857 15.3654 5.795 16.2474 5.05209 16.8538C4.68906 17.2307 4.21897 17.4853 3.70635 17.5828C3.32881 17.6195 2.90254 17.5827 2.87818 17.0927C2.85383 16.6027 3.28619 16.8293 3.56021 16.7803C3.90519 16.7089 4.22891 16.5576 4.5058 16.3386C4.78269 16.1196 5.00516 15.8389 5.15562 15.5185C5.38093 15.1081 5.49053 14.6426 5.68539 14.2138C5.81936 13.9137 5.81326 13.4788 6.37957 13.5584C6.94588 13.638 7.23208 13.8647 7.25644 14.4282C7.27957 15.4305 6.95921 16.4102 6.34913 17.203C5.97923 17.6687 5.5719 18.103 5.13126 18.5016C4.94858 18.6853 4.705 18.912 4.46142 18.6915C4.21785 18.4709 4.46143 18.2137 4.63802 18.036C5.15249 17.5185 5.6005 16.9382 5.97159 16.3087C6.31467 15.7052 6.46556 15.0104 6.40393 14.3179V14.3179Z" fill="#2C3639"/>
<path d="M19.8308 20.7609C20.0975 19.0672 20.9005 17.5054 22.1204 16.3077C22.7845 15.602 23.5841 15.0393 24.4709 14.6538C24.6901 14.5681 25.0068 14.3598 25.1773 14.6538C25.3478 14.9479 25.025 15.1623 24.7997 15.3093C23.0403 16.4235 21.6976 18.0929 20.9817 20.0564C20.8285 20.4177 20.728 20.7994 20.6833 21.1896C20.6833 21.4285 20.7808 21.8021 20.4154 21.8021C20.05 21.8021 19.9404 21.4652 19.8674 21.1528C19.8455 21.0233 19.8333 20.8923 19.8308 20.7609Z" fill="#2C3639"/>
<path d="M53.5906 49.8026C53.3694 52.1056 52.5527 54.3103 51.2218 56.1975C51.0818 56.418 50.8748 56.761 50.552 56.5589C50.2293 56.3567 50.485 56.0688 50.5886 55.8483C51.4736 53.8839 52.1492 51.8306 52.6041 49.723C52.6833 49.3677 52.7259 48.8287 53.2557 48.9205C53.7855 49.0124 53.548 49.5024 53.5906 49.8026Z" fill="#2C3639"/>
<path d="M48.3843 42.1648C48.2461 43.7807 47.8234 45.359 47.136 46.8261C47.0042 47.1055 46.8408 47.3686 46.6489 47.6102C46.6273 47.6441 46.5992 47.6733 46.5662 47.696C46.5332 47.7188 46.496 47.7346 46.4568 47.7426C46.4176 47.7506 46.3772 47.7506 46.338 47.7426C46.2988 47.7346 46.2617 47.7187 46.2287 47.6959C46.1762 47.6567 46.1373 47.6019 46.1177 47.5392C46.098 47.4765 46.0985 47.4092 46.1191 47.3468C46.1483 47.1672 46.1868 46.9893 46.2347 46.8139C46.7328 44.9253 47.0951 43.0031 47.3187 41.0622C47.3674 40.7375 47.3613 40.2904 47.7876 40.272C48.2138 40.2536 48.2808 40.7253 48.3234 41.0744C48.3661 41.4236 48.3843 41.8034 48.3843 42.1648Z" fill="#2C3639"/>
<path d="M36.3028 16.9391C36.2256 18.5058 36.5485 20.0662 37.2406 21.4719C37.3563 21.7169 37.6242 22.0232 37.3198 22.2437C37.0153 22.4642 36.7108 22.1763 36.5221 21.9558C35.3042 20.6817 34.6953 17.1351 35.4503 15.5119C35.5599 15.2853 35.6574 14.9913 35.9923 15.0586C36.3272 15.126 36.2967 15.4323 36.3028 15.6712C36.3089 16.1061 36.3028 16.5226 36.3028 16.9391Z" fill="#2C3639"/>
<path d="M20.1416 74.1325C19.9894 74.1325 19.892 74.1325 19.8615 73.9916C19.8311 73.8507 19.9772 73.7159 20.0868 73.6118C20.9349 72.8415 21.7133 71.9969 22.413 71.0882C23.6646 69.4521 24.7422 67.6886 25.6281 65.8265C25.6586 65.754 25.6953 65.6843 25.7377 65.6182C25.8534 65.4283 25.9326 65.1282 26.231 65.2323C26.5294 65.3364 26.3893 65.6305 26.3223 65.8449C26.2203 66.1675 26.0961 66.4827 25.9509 66.7881C24.7936 69.2785 23.1826 71.5286 21.2012 73.4219C20.9039 73.7339 20.5422 73.9765 20.1416 74.1325V74.1325Z" fill="#2C3639"/>
<path d="M21.5422 22.2255C21.6623 21.2541 21.9983 20.3223 22.5254 19.4995C23.0525 18.6766 23.7571 17.9837 24.5869 17.4723C24.7183 17.3855 24.8651 17.3252 25.0193 17.2946C25.2263 17.2578 25.4942 17.0557 25.6282 17.3436C25.7622 17.6315 25.5125 17.7662 25.3237 17.8949C24.2601 18.6432 23.4183 19.6679 22.888 20.8596C22.5655 21.4857 22.4003 22.1819 22.4069 22.8871C22.4069 23.1321 22.5044 23.4996 22.1512 23.4996C21.798 23.4996 21.7432 23.2178 21.6762 22.9667C21.6092 22.7156 21.591 22.5073 21.5422 22.2255Z" fill="#2C3639"/>
<path d="M46.1858 11.9485C46.5146 10.3008 46.7277 8.44484 48.6215 7.47704C48.8651 7.35453 49.1574 7.11564 49.3827 7.43415C49.608 7.75267 49.334 7.97931 49.1269 8.16307C47.8725 9.24726 47.4097 10.7235 47.0748 12.2732C47.0017 12.6039 47.1844 13.2287 46.6364 13.1614C46.0884 13.094 46.2223 12.5182 46.1858 11.9485Z" fill="#2C3639"/>
<path d="M54.0655 53.8938C53.828 55.7314 52.805 57.2444 51.7028 58.7389C51.5932 58.8798 51.4288 59.0268 51.2339 58.9166C51.0391 58.8063 51.0817 58.5429 51.167 58.3592C51.9412 56.7348 52.6084 55.061 53.1643 53.3486C53.2434 53.0852 53.4383 52.8647 53.7732 52.9811C54.1081 53.0975 54.0655 53.4772 54.0655 53.8938Z" fill="#2C3639"/>
<path d="M36.1139 43.4073C36.1006 43.5146 36.063 43.6173 36.0038 43.7076C35.9447 43.7979 35.8657 43.8733 35.7729 43.9279C34.941 44.4984 34.166 45.1487 33.459 45.8697C33.3189 46.0167 33.1423 46.2066 32.9292 46.0534C32.8874 46.0208 32.8537 45.979 32.8304 45.9312C32.8072 45.8834 32.7951 45.831 32.7951 45.7778C32.7951 45.7246 32.8072 45.6721 32.8304 45.6244C32.8537 45.5766 32.8874 45.5348 32.9292 45.5021C33.6477 44.8222 33.2519 44.2771 32.8196 43.6645C32.4847 43.1929 32.643 42.8438 33.2032 42.8438C33.9766 42.8438 34.7499 42.8989 35.5233 42.9479C35.8399 42.9479 36.1078 43.0459 36.1139 43.4073Z" fill="#2C3639"/>
<path d="M51.1184 44.9076C50.9941 46.3869 50.7144 47.8488 50.2841 49.2689C50.2111 49.5261 50.1075 49.8814 49.7422 49.8202C49.3768 49.7589 49.4682 49.3546 49.5047 49.0912C49.7057 47.5415 49.9127 45.9918 50.1562 44.4482C50.205 44.1052 50.1562 43.5294 50.7287 43.609C51.1854 43.6703 51.0879 44.1664 51.1123 44.5156C51.1245 44.6503 51.1184 44.779 51.1184 44.9076Z" fill="#2C3639"/>
<path d="M27.5462 10.1473C26.1917 10.1388 24.8551 10.4582 23.649 11.0784C23.4298 11.1825 23.1619 11.4459 22.967 11.1458C22.7722 10.8456 23.0644 10.6435 23.2654 10.5026C24.5899 9.42422 26.2731 8.89411 27.9725 9.02023C28.1872 9.04426 28.3946 9.11312 28.5814 9.22238C28.8189 9.35101 29.0259 9.53477 28.9224 9.83491C28.8189 10.1351 28.5936 10.1351 28.35 10.1351C28.1064 10.1351 27.8081 10.1473 27.5462 10.1473Z" fill="#2C3639"/>
<path d="M49.1086 12.6277C49.1361 11.5683 49.4536 10.5372 50.0262 9.6477C50.5989 8.75823 51.4045 8.04499 52.3543 7.58652C52.5126 7.51914 52.7014 7.39051 52.8536 7.58652C53.0059 7.78253 52.8536 7.98467 52.7318 8.12556C52.2812 8.59721 51.8367 9.06887 51.3556 9.50989C50.5098 10.3328 49.9958 11.4409 49.9124 12.6215C49.8698 12.9584 50.0586 13.5771 49.4862 13.5465C48.9138 13.5159 49.2487 12.8788 49.1086 12.6277Z" fill="#2C3639"/>
<path d="M37.898 13.8889C37.8311 14.2932 37.7762 14.6791 37.7032 15.0589C37.3865 16.6576 37.7032 18.2257 37.8554 19.806C37.8554 20.0449 38.0989 20.4186 37.6727 20.5227C37.3743 20.5778 37.2708 20.2225 37.2038 19.9837C36.7106 18.146 36.3635 16.2656 36.9602 14.3667C37.0243 14.1413 37.1079 13.922 37.2099 13.7113C37.3013 13.5153 37.4535 13.3438 37.6971 13.4356C37.9406 13.5275 37.8798 13.7235 37.898 13.8889Z" fill="#2C3639"/>
<path d="M71.4567 24.5785C71.5055 24.8235 71.4567 24.9521 71.341 25.0195C71.2625 25.0679 71.1687 25.0848 71.0783 25.0666C70.988 25.0484 70.9079 24.9966 70.8539 24.9215C70.5595 24.5875 70.1899 24.3292 69.7761 24.1681C69.1382 23.8617 68.428 23.7406 67.7254 23.8185C67.0228 23.8964 66.3558 24.1702 65.7997 24.6091C65.6292 24.7377 65.4221 24.995 65.1908 24.7561C64.9594 24.5172 65.1908 24.3151 65.3247 24.1436C66.4878 22.5693 69.9953 22.5693 71.1949 24.1436C71.2908 24.2831 71.3782 24.4283 71.4567 24.5785V24.5785Z" fill="#2C3639"/>
<path d="M41.8565 56.2642C41.5885 56.2642 41.5093 56.0804 41.6311 55.9518C42.2827 55.2535 41.6311 54.2183 42.3253 53.5017C42.9002 52.8272 43.4273 52.1128 43.9025 51.3639C44.0791 51.1189 44.2678 50.9964 44.5601 51.174C44.8524 51.3517 44.7854 51.6334 44.6819 51.8662C43.9784 53.2984 43.164 54.6727 42.2462 55.9763C42.1731 56.1111 41.9783 56.1968 41.8565 56.2642Z" fill="#2C3639"/>
<path d="M46.5938 42.9233C46.3992 44.7137 45.756 46.4251 44.7244 47.8971C44.56 48.1238 44.3468 48.4361 44.0363 48.2585C43.7257 48.0809 43.9754 47.7746 44.0789 47.5602C44.6376 46.2712 45.1135 44.9474 45.5038 43.5971C45.5889 43.3236 45.6906 43.0556 45.8083 42.7947C45.9118 42.5619 46.0093 42.2434 46.3381 42.323C46.6669 42.4027 46.5573 42.7212 46.5938 42.9233Z" fill="#2C3639"/>
<path d="M22.7296 49.8941C22.6895 49.9 22.6486 49.895 22.6111 49.8794C22.5736 49.8639 22.541 49.8385 22.5167 49.8059C22.4924 49.7733 22.4773 49.7347 22.473 49.6941C22.4686 49.6536 22.4752 49.6127 22.4921 49.5756C22.9549 47.7748 22.9305 45.8391 23.9535 44.1975C24.2154 43.7749 24.5625 43.0092 25.0009 43.2665C25.549 43.585 24.8304 44.0812 24.6721 44.4916C24.2659 45.6444 23.9284 46.8205 23.6612 48.0137C23.5213 48.5124 23.3546 49.0031 23.1619 49.4837C23.1347 49.5857 23.0799 49.6781 23.0036 49.7506C22.9272 49.8231 22.8324 49.8728 22.7296 49.8941V49.8941Z" fill="#2C3639"/>
<path d="M21.1341 11.5313C21.3411 11.5313 21.469 11.5312 21.536 11.6783C21.6761 11.9539 21.4629 12.1193 21.2985 12.2908C20.4023 13.0885 19.6895 14.073 19.2099 15.1758C19.0333 15.5801 18.8932 16.0028 18.741 16.4009C18.674 16.5847 18.6984 16.8603 18.3939 16.8235C18.291 16.8008 18.1978 16.7459 18.1278 16.6667C18.0578 16.5874 18.0145 16.488 18.0042 16.3825C17.9677 16.2295 17.9677 16.07 18.0042 15.917C18.1439 15.0798 18.4506 14.2798 18.9058 13.565C19.361 12.8502 19.9554 12.2355 20.653 11.7579C20.8067 11.6687 20.9676 11.5928 21.1341 11.5313V11.5313Z" fill="#2C3639"/>
<path d="M58.2123 7.67207C58.4315 7.67207 58.6325 7.7088 58.7055 7.95381C58.7343 8.05614 58.7224 8.16568 58.6724 8.25937C58.6224 8.35306 58.5382 8.42359 58.4376 8.45609C57.0082 9.15513 55.7581 10.1758 54.784 11.4391C54.6683 11.58 54.516 11.7087 54.3151 11.5861C54.1141 11.4636 54.1933 11.3779 54.1994 11.237C54.3029 9.97517 56.9092 7.64757 58.2123 7.67207Z" fill="#2C3639"/>
<path d="M47.4645 34.8993C47.0992 34.7951 47.2514 34.5256 47.3427 34.3419C47.7449 33.5202 48.2482 32.7526 48.8407 32.0571C49.8135 30.9267 50.9968 29.9986 52.3238 29.3252C52.5491 29.2088 52.8841 28.9577 53.0546 29.3252C53.2251 29.6927 52.8292 29.7479 52.6283 29.8765C50.7572 31.0243 49.1638 32.5768 47.9639 34.4215C47.8421 34.6237 47.7751 34.8564 47.4645 34.8993Z" fill="#2C3639"/>
<path d="M41.5277 13.705C41.4894 12.4945 41.8164 11.3008 42.4655 10.2809C42.6116 10.0726 42.7395 9.74797 43.0378 9.86435C43.3362 9.98073 43.251 10.3544 43.1596 10.6117C42.6789 12.0672 42.4162 13.5866 42.3802 15.1199C42.3802 15.3466 42.3802 15.6467 42.094 15.6834C41.8078 15.7202 41.7347 15.4507 41.6556 15.2302C41.5273 14.7327 41.4841 14.217 41.5277 13.705V13.705Z" fill="#2C3639"/>
<path d="M62.0545 22.6495C60.3373 22.6189 58.3399 20.3342 58.5409 18.6987C58.5636 18.5433 58.6044 18.3911 58.6627 18.2454C58.7418 18.0371 58.8758 17.8718 59.1255 17.9208C59.3751 17.9698 59.3812 18.1597 59.3812 18.3496C59.3812 20.2729 60.4956 21.351 62.1702 21.9819C62.3589 22.0493 62.633 22.0554 62.5599 22.3433C62.4868 22.6312 62.231 22.6373 62.0545 22.6495Z" fill="#2C3639"/>
<path d="M6.42227 5.53426C6.38825 4.78977 6.54582 4.04907 6.87971 3.38376C7.21361 2.71846 7.71254 2.15111 8.32824 1.73656C8.54133 1.589 8.77007 1.46571 9.01025 1.36902C9.20511 1.28939 9.43042 1.24652 9.54612 1.49153C9.66181 1.73655 9.47914 1.81617 9.34517 1.93867C8.9409 2.26408 8.55846 2.61606 8.20037 2.99225C7.48082 3.89359 7.10121 5.0218 7.12863 6.17745C7.12863 6.45309 7.2687 6.91862 6.81199 6.90637C6.35529 6.89412 6.45272 6.4592 6.42836 6.15906C6.41009 5.96917 6.42227 5.74252 6.42227 5.53426Z" fill="#2C3639"/>
<path d="M40.748 12.0939C40.532 13.4859 40.4891 14.8994 40.6202 16.302C40.6202 16.5103 40.6201 16.7676 40.3888 16.8288C40.1574 16.8901 39.9564 16.6451 39.9016 16.4307C39.5119 14.9239 39.2927 13.4109 39.9016 11.9102C39.9929 11.6897 40.1086 11.4385 40.3888 11.4814C40.6689 11.5243 40.7298 11.7999 40.748 12.0939Z" fill="#2C3639"/>
<path d="M60.0818 17.8645C60.0597 17.2685 60.2546 16.6848 60.6298 16.2229C60.7455 16.0882 60.8855 15.9228 61.0865 16.0269C61.2874 16.1311 61.2266 16.321 61.1778 16.5047C60.6663 18.6241 61.0804 19.8124 62.7489 21.062C62.9133 21.1845 63.2726 21.2335 63.0534 21.5581C62.9746 21.6483 62.8646 21.7048 62.7458 21.7162C62.627 21.7276 62.5083 21.6929 62.414 21.6194C61.6047 21.1928 60.9503 20.5195 60.5445 19.696C60.2723 19.122 60.115 18.4997 60.0818 17.8645Z" fill="#2C3639"/>
<path d="M40.961 51.6698C40.8699 51.8823 40.762 52.0871 40.6383 52.2823C39.7188 53.587 38.3852 54.4078 37.1125 55.3021C36.9603 55.4124 36.7168 55.5471 36.5645 55.3021C36.4123 55.0571 36.6011 54.8978 36.7533 54.7631C37.2648 54.2914 37.8067 53.8443 38.3243 53.3665C39.083 52.7791 39.7789 52.114 40.4008 51.3819C40.4922 51.2533 40.6079 51.143 40.7845 51.1981C40.961 51.2533 40.9671 51.4186 40.961 51.6698Z" fill="#2C3639"/>
<path d="M30.9809 59.2239C30.6217 59.1872 30.5912 58.9544 30.7861 58.7461C31.8748 57.4502 33.2662 56.4463 34.8355 55.8244C34.8767 55.8031 34.9219 55.7906 34.9682 55.7877C35.0145 55.7849 35.0608 55.7918 35.1043 55.8079C35.1478 55.824 35.1875 55.8491 35.2209 55.8814C35.2543 55.9138 35.2807 55.9527 35.2983 55.9959C35.3305 56.0685 35.334 56.1508 35.3079 56.2259C35.2819 56.3011 35.2284 56.3634 35.1583 56.4002C33.843 57.319 32.5216 58.2377 31.2002 59.1382C31.1297 59.1731 31.0563 59.2018 30.9809 59.2239V59.2239Z" fill="#2C3639"/>
<path d="M30.4568 14.6252C30.7771 14.5991 31.0987 14.6571 31.3901 14.7935C31.6815 14.9298 31.9327 15.1399 32.1192 15.4032C32.1844 15.4848 32.22 15.5863 32.22 15.691C32.22 15.7958 32.1844 15.8974 32.1192 15.979C32.0962 16.0114 32.0671 16.0389 32.0334 16.0599C31.9998 16.0809 31.9623 16.0949 31.9232 16.1012C31.8841 16.1075 31.8441 16.1058 31.8056 16.0964C31.7671 16.087 31.7309 16.07 31.699 16.0463C30.4812 15.2562 29.312 15.6911 28.1124 15.979C27.881 16.0341 27.5948 16.322 27.4243 15.979C27.2538 15.6359 27.5887 15.446 27.8201 15.3113C28.6477 14.9162 29.5426 14.6833 30.4568 14.6252V14.6252Z" fill="#2C3639"/>
<path d="M32.4056 29.2462C32.3741 29.3541 32.3137 29.4512 32.231 29.5268C32.1483 29.6025 32.0465 29.6537 31.9367 29.675C30.7165 30.0377 29.5272 30.4986 28.3805 31.0532C28.2161 31.1451 28.0213 31.2064 27.8873 31.0165C27.8246 30.9303 27.7984 30.8226 27.8144 30.717C27.8304 30.6114 27.8872 30.5165 27.9725 30.4529C28.1869 30.2207 28.4281 30.015 28.6911 29.8404C29.6338 29.3302 30.6695 29.0176 31.7358 28.9216C32.0037 28.8848 32.3021 28.9032 32.4056 29.2462Z" fill="#2C3639"/>
<path d="M46.9105 30.0976C46.8818 30.1779 46.8429 30.2541 46.7948 30.3243C46.1576 31.3183 45.3064 32.1557 44.3043 32.7744C44.0546 32.9092 43.7501 33.0623 43.5187 32.7744C43.2873 32.4865 43.5187 32.2231 43.7014 32.0332C44.4991 31.286 45.309 30.5632 46.1372 29.8404C46.2229 29.7576 46.3309 29.7019 46.4478 29.6802C46.5646 29.6584 46.6853 29.6715 46.7948 29.7179C46.9166 29.773 46.9471 29.9016 46.9105 30.0976Z" fill="#2C3639"/>
<path d="M15.5441 0.970703C15.6111 0.970703 15.7694 0.970703 15.9216 0.970703C16.0739 0.970703 16.2383 1.05646 16.2626 1.24022C16.2687 1.28631 16.2649 1.33317 16.2515 1.37765C16.238 1.42213 16.2152 1.46319 16.1846 1.49804C16.154 1.53288 16.1163 1.56069 16.0741 1.57961C16.0319 1.59854 15.9861 1.60813 15.9399 1.60773C14.314 1.76699 13.2179 2.77156 12.2254 3.95375C12.0975 4.10689 11.9392 4.29677 11.7078 4.14364C11.4764 3.9905 11.6225 3.87412 11.6712 3.72098C12.0305 2.96876 12.5749 2.32128 13.2526 1.83997C13.9304 1.35866 14.7192 1.05946 15.5441 0.970703Z" fill="#2C3639"/>
<path d="M20.233 2.47852C20.44 2.47852 20.6105 2.47854 20.6836 2.69293C20.7154 2.78024 20.7136 2.87632 20.6787 2.96241C20.6438 3.04849 20.5782 3.11836 20.4948 3.15842C20.3642 3.24404 20.2229 3.31201 20.0747 3.36057C18.8161 3.77516 17.6134 4.34509 16.4941 5.05731C16.3054 5.17369 16.074 5.41256 15.8852 5.19205C15.6964 4.97153 15.9217 4.69589 16.1105 4.54276C17.3043 3.53833 18.7166 2.83112 20.233 2.47852Z" fill="#2C3639"/>
<path d="M20.1783 37.3669C19.9107 38.2024 19.5096 38.9886 18.9908 39.6945C18.7107 40.062 18.3819 39.8783 18.3332 39.4985C18.2767 38.5035 18.5628 37.5192 19.1431 36.7114C19.2241 36.6052 19.3427 36.5345 19.4743 36.514C19.6058 36.4934 19.7402 36.5247 19.8494 36.6012C20.1052 36.736 20.2026 36.9748 20.1783 37.3669Z" fill="#2C3639"/>
<path d="M11.8843 58.2867C11.6195 59.1061 11.1572 59.8469 10.5385 60.4428C10.4737 60.5085 10.3897 60.5516 10.2988 60.5659C10.2079 60.5802 10.1148 60.565 10.0331 60.5224C9.93816 60.4771 9.86259 60.399 9.82012 60.3023C9.77765 60.2056 9.77111 60.0968 9.8017 59.9957C9.99847 59.1342 10.3996 58.3335 10.9709 57.6619C11.0483 57.572 11.1544 57.5119 11.271 57.4918C11.3875 57.4717 11.5074 57.4928 11.6102 57.5517C11.8782 57.6925 11.9208 57.9437 11.8843 58.2867Z" fill="#2C3639"/>
<path d="M15.7024 48.7234C15.5369 49.5054 15.1273 50.2136 14.5332 50.7448C14.1496 51.0939 13.7843 50.8489 13.7964 50.3957C13.8365 49.5295 14.1549 48.6998 14.7037 48.0312C14.7734 47.9406 14.8717 47.8766 14.9825 47.8498C15.0932 47.8231 15.2097 47.8352 15.3127 47.8842C15.6476 48.0251 15.7085 48.2946 15.7024 48.7234Z" fill="#2C3639"/>
<path d="M8.40738 11.4814C9.49334 11.6139 10.5003 12.1204 11.2572 12.9148C11.3912 13.0312 11.519 13.2027 11.3851 13.3925C11.2511 13.5824 11.0136 13.5028 10.837 13.3925C10.5386 13.2272 10.2585 13.0495 9.96625 12.878C9.26853 12.4144 8.42254 12.2329 7.59748 12.3696C7.35999 12.4125 7.08597 12.4737 6.98854 12.192C6.89111 11.9102 7.15906 11.7326 7.40263 11.6284C7.7215 11.501 8.06564 11.4507 8.40738 11.4814V11.4814Z" fill="#2C3639"/>
<path d="M1.59963 10.8687C1.33472 10.3853 1.23017 9.82946 1.30124 9.28217C1.34995 9.09841 1.4413 8.92691 1.64833 8.91466C1.85537 8.90241 1.9589 9.08006 1.97716 9.26994C2.10504 10.691 3.19503 11.1688 4.28502 11.6037C4.47379 11.6833 4.83917 11.6037 4.77218 11.9529C4.7052 12.302 4.419 12.2224 4.16325 12.2162C3.18286 12.2162 2.49476 11.6037 1.7275 11.0647L1.59963 10.8687Z" fill="#2C3639"/>
<path d="M4.96693 5.40604C4.97325 4.16959 5.4034 2.97317 6.1848 2.0187C6.34313 1.85331 6.51362 1.62055 6.76328 1.82268C7.01295 2.02482 6.83027 2.22086 6.73284 2.38624C6.026 3.51776 5.64256 4.8232 5.62457 6.15945C5.62185 6.20861 5.60843 6.25659 5.58529 6.29998C5.56214 6.34337 5.52982 6.3811 5.49061 6.41057C5.36273 6.4902 5.24703 6.4106 5.16177 6.2881C5.00273 6.0234 4.9343 5.71358 4.96693 5.40604V5.40604Z" fill="#2C3639"/>
<path d="M13.8816 43.186C13.9613 42.5549 14.123 41.937 14.3627 41.3483C14.5088 41.0114 14.7037 40.6256 15.1543 40.7787C15.6049 40.9318 15.5806 41.3912 15.4527 41.771C15.2581 42.3645 15.0324 42.9472 14.7768 43.5167C14.6732 43.7617 14.5575 44.1292 14.1678 43.9761C13.7781 43.823 13.8755 43.5045 13.8816 43.186Z" fill="#2C3639"/>
<path d="M7.92598 12.8164C8.80285 12.8164 10.7088 14.1027 11.0133 14.9113C11.046 14.9669 11.0632 15.0304 11.0632 15.0951C11.0632 15.1597 11.046 15.2232 11.0133 15.2788C10.9723 15.3311 10.9136 15.3663 10.8484 15.3776C10.7832 15.3889 10.7161 15.3755 10.6601 15.3401C10.4432 15.2376 10.2388 15.1102 10.0512 14.9603C9.44515 14.3084 8.67172 13.8378 7.81638 13.6005C7.58498 13.5576 7.35359 13.4289 7.4023 13.1288C7.45102 12.8287 7.73112 12.8348 7.92598 12.8164Z" fill="#2C3639"/>
<path d="M51.3618 26.3982C51.339 26.5101 51.2923 26.6157 51.2251 26.7077C51.1578 26.7997 51.0715 26.8759 50.9721 26.9311C50.1379 27.4518 49.3036 27.9663 48.4572 28.4747C48.2867 28.5788 48.0614 28.6891 47.9091 28.4747C47.7569 28.2603 47.9092 28.1194 48.037 27.9847C48.7549 27.1497 49.6761 26.5165 50.7103 26.1471C51.0026 26.0491 51.2705 26.0613 51.3618 26.3982Z" fill="#2C3639"/>
<path d="M29.7021 59.2904C29.6656 59.37 29.6107 59.5171 29.5377 59.6518C28.9287 60.7605 28.3198 61.8815 27.7109 62.984C27.583 63.2168 27.449 63.5965 27.1019 63.4556C26.7548 63.3148 27.0106 62.9473 27.1019 62.7022C27.5867 61.4692 28.2472 60.3138 29.0627 59.272C29.1784 59.1189 29.3002 58.9107 29.556 58.9719C29.6656 59.0025 29.7021 59.1066 29.7021 59.2904Z" fill="#2C3639"/>
<path d="M5.5028 64.2942C5.67276 63.5732 5.9855 62.8941 6.4223 62.2974C6.49474 62.1873 6.60523 62.1081 6.73236 62.0753C6.85949 62.0425 6.9942 62.0583 7.1104 62.1197C7.2239 62.1844 7.31003 62.2886 7.35263 62.4126C7.39523 62.5367 7.39138 62.6721 7.3418 62.7935C7.0743 63.5496 6.68328 64.2556 6.18482 64.8822C6.14114 64.9484 6.07488 64.9961 5.99858 65.0164C5.92228 65.0367 5.84121 65.0282 5.77073 64.9925C5.52106 64.8822 5.48453 64.6495 5.5028 64.2942Z" fill="#2C3639"/>
<path d="M40.2731 37.613C39.8895 37.5578 39.4632 37.564 39.4206 37.1413C39.378 36.7187 39.8164 36.6636 40.1392 36.6146C40.9352 36.5126 41.72 36.3362 42.4835 36.0878C42.654 36.0265 42.8489 35.953 42.9646 36.1613C43.0803 36.3695 42.9281 36.5104 42.8002 36.6391C42.0756 37.3251 41.1378 37.4415 40.2731 37.613Z" fill="#2C3639"/>
<path d="M7.58527 59.2607C7.66239 58.613 7.86956 57.9878 8.1942 57.4231C8.252 57.2892 8.3592 57.183 8.49323 57.1271C8.62726 57.0711 8.77765 57.0696 8.91274 57.1229C9.04694 57.1775 9.15741 57.2784 9.22437 57.4075C9.29132 57.5366 9.31038 57.6854 9.27811 57.8273C9.15985 58.5169 8.84214 59.1561 8.3647 59.665C8.30879 59.7397 8.22663 59.7902 8.13498 59.8062C8.04333 59.8221 7.94909 59.8023 7.87147 59.7507C7.77961 59.7084 7.70289 59.6386 7.6517 59.551C7.60051 59.4634 7.57732 59.362 7.58527 59.2607V59.2607Z" fill="#2C3639"/>
<path d="M66.8956 17.98C66.579 17.9493 66.5181 17.7288 66.6277 17.4838C67.1582 16.1959 68.0955 15.1196 69.2948 14.4211C69.4775 14.317 69.7089 14.2496 69.8368 14.4885C69.9647 14.7274 69.7637 14.8315 69.6237 14.9418C68.6821 15.6414 67.9098 16.5459 67.3645 17.5879C67.3275 17.689 67.2647 17.7784 67.1823 17.8472C67.1 17.9161 67.0011 17.9618 66.8956 17.98Z" fill="#2C3639"/>
<path d="M63.2422 29.956C63.1868 30.5215 63.0018 31.0664 62.7017 31.5479C62.4016 32.0293 61.9947 32.4342 61.5128 32.7308C61.3362 32.8471 61.1231 32.9329 60.9587 32.7308C60.9009 32.6413 60.8795 32.5331 60.8987 32.4282C60.918 32.3234 60.9765 32.23 61.0622 32.1672C61.797 31.5306 62.3058 30.6705 62.5114 29.7171C62.5541 29.515 62.6758 29.3005 62.9316 29.3434C63.1874 29.3863 63.2178 29.6742 63.2422 29.956Z" fill="#2C3639"/>
<path d="M68.0223 20.8843C67.9614 21.1354 67.7544 21.2151 67.5839 21.3131C66.7857 21.6917 66.1239 22.3102 65.6901 23.0833C65.5804 23.3161 65.3917 23.4692 65.1237 23.3283C64.8558 23.1874 64.935 22.9976 64.9837 22.7832C65.1835 22.2343 65.5194 21.7458 65.9595 21.3642C66.3997 20.9825 66.9294 20.7204 67.4986 20.6025C67.7239 20.5903 67.9797 20.5596 68.0223 20.8843Z" fill="#2C3639"/>
<path d="M15.3916 37.4896C15.4586 36.9751 15.489 36.5095 15.5925 36.0563C15.6717 35.7071 15.897 35.4437 16.3111 35.505C16.7252 35.5662 16.8591 35.9705 16.78 36.3442C16.6643 36.9016 16.4816 37.4467 16.3172 37.9858C16.2563 38.1879 16.1893 38.4145 15.9335 38.4207C15.6778 38.4268 15.5317 38.2124 15.4708 37.9735C15.4325 37.8144 15.406 37.6527 15.3916 37.4896V37.4896Z" fill="#2C3639"/>
<path d="M30.7247 38.2611C30.4629 38.2244 30.2071 38.3102 30.1158 38.059C30.0245 37.8079 30.2315 37.667 30.4142 37.5812C31.3396 37.1539 32.3496 36.9444 33.3675 36.9687C33.5685 36.9687 33.8121 37.0299 33.8547 37.2811C33.8973 37.5322 33.6415 37.6792 33.4101 37.7282C32.5089 37.9365 31.5894 38.0957 30.7247 38.2611Z" fill="#2C3639"/>
<path d="M64.8255 25.1544C65.9261 25.5166 66.9032 26.1832 67.6449 27.0778C67.6737 27.1042 67.6967 27.1363 67.7124 27.1722C67.7282 27.2081 67.7363 27.2468 67.7363 27.286C67.7363 27.3252 67.7282 27.364 67.7124 27.3999C67.6967 27.4357 67.6737 27.4679 67.6449 27.4943C67.5109 27.6229 67.3586 27.5739 67.2186 27.4943C66.3031 26.8699 65.3537 26.2973 64.3749 25.7792C64.3014 25.7503 64.2416 25.6943 64.2077 25.6226C64.1737 25.5509 64.1682 25.469 64.1922 25.3933C64.314 25.1422 64.5332 25.1422 64.8255 25.1544Z" fill="#2C3639"/>
<path d="M40.4189 33.386C39.9744 33.386 39.5786 33.3063 39.536 32.8469C39.4933 32.3875 39.877 32.3753 40.2241 32.3202C40.8817 32.2038 41.5272 32.02 42.1849 31.8975C42.4102 31.8546 42.739 31.7443 42.8364 32.1057C42.9339 32.4671 42.6477 32.51 42.4406 32.6019C41.8021 32.9476 41.1229 33.211 40.4189 33.386Z" fill="#2C3639"/>
<path d="M28.076 14.2621C27.7594 14.158 27.2418 14.4398 27.193 14.011C27.1443 13.5822 27.6802 13.5638 28.0212 13.5026C28.8293 13.3112 29.6571 13.2166 30.4874 13.2208C30.804 13.2208 31.1694 13.2882 31.1328 13.717C31.0963 14.1458 30.7431 14.0722 30.463 14.0722C29.6638 14.0769 28.866 14.1404 28.076 14.2621V14.2621Z" fill="#2C3639"/>
<path d="M1.59934 10.8691L1.77592 11.0652C1.98905 12.0942 2.85375 12.2902 3.65146 12.5965C3.87676 12.6761 4.26038 12.5965 4.21167 12.964C4.16295 13.3315 3.80369 13.3438 3.51749 13.3009C2.71159 13.2128 1.96076 12.8471 1.39229 12.2657C0.886871 11.7022 0.996496 11.1142 1.59934 10.8691Z" fill="#2C3639"/>
<path d="M13.3215 48.2706C13.1535 49.0509 12.8028 49.7796 12.2985 50.3962C12.2544 50.4786 12.1803 50.5405 12.0917 50.5691C12.0031 50.5977 11.907 50.5906 11.8235 50.5493C11.7393 50.5106 11.6713 50.4434 11.6313 50.3595C11.5912 50.2756 11.5817 50.1802 11.6043 50.0899C11.7768 49.2977 12.0837 48.5414 12.5116 47.8541C12.5323 47.8019 12.5632 47.7543 12.6024 47.7141C12.6416 47.674 12.6884 47.6422 12.74 47.6205C12.7916 47.5989 12.847 47.5878 12.903 47.5879C12.9589 47.588 13.0142 47.5994 13.0657 47.6214C13.2971 47.75 13.3519 47.9766 13.3215 48.2706Z" fill="#2C3639"/>
<path d="M10.1065 6.77693C10.1196 6.2683 10.2488 5.76951 10.484 5.31909C10.5997 5.11083 10.7337 4.87193 11.0138 4.96994C11.2939 5.06795 11.2208 5.31909 11.1721 5.51511C10.9029 6.39647 10.9547 7.34549 11.3182 8.19189C11.3399 8.22484 11.3549 8.26177 11.3623 8.30057C11.3698 8.33936 11.3695 8.37926 11.3616 8.41796C11.3537 8.45666 11.3383 8.4934 11.3162 8.52608C11.2941 8.55876 11.2658 8.58674 11.233 8.60841C11.1482 8.64597 11.0531 8.65243 10.964 8.62669C10.875 8.60095 10.7978 8.54464 10.7458 8.46754C10.3319 8.00314 10.104 7.40068 10.1065 6.77693Z" fill="#2C3639"/>
<path d="M40.3704 35.2677C39.9868 35.2677 39.7615 35.2003 39.6823 34.8757C39.6605 34.7573 39.6851 34.635 39.7509 34.5345C39.8168 34.434 39.9188 34.3631 40.0355 34.3366C40.7114 34.0855 41.3934 33.8405 42.0815 33.6138C42.252 33.5526 42.453 33.5342 42.5626 33.7363C42.5954 33.8093 42.6017 33.8915 42.5806 33.9687C42.5595 34.0459 42.5122 34.1132 42.4469 34.159C41.8641 34.7064 41.1477 35.0889 40.3704 35.2677V35.2677Z" fill="#2C3639"/>
<path d="M12.4568 55.2538C12.4895 54.8132 12.6053 54.3829 12.7978 53.9858C12.8244 53.9043 12.8678 53.8292 12.9251 53.7656C12.9825 53.702 13.0524 53.6512 13.1305 53.6166C13.2086 53.5819 13.2931 53.5642 13.3784 53.5645C13.4638 53.5648 13.5481 53.5831 13.626 53.6183C13.7124 53.6501 13.7909 53.7004 13.8563 53.7656C13.9216 53.8307 13.9722 53.9093 14.0046 53.996C14.0369 54.0826 14.0503 54.1753 14.0439 54.2676C14.0374 54.36 14.0111 54.4498 13.967 54.531C13.7909 54.9012 13.5873 55.2574 13.358 55.5968C13.2301 55.7928 13.0536 55.9888 12.7856 55.9092C12.5177 55.8296 12.5055 55.5111 12.4568 55.2538Z" fill="#2C3639"/>
<path d="M6.97647 10.2577C7.85943 9.37563 9.04685 9.2715 10.1734 9.03261C10.3561 8.98973 10.624 8.9591 10.7032 9.21636C10.7823 9.47363 10.5327 9.5655 10.3439 9.62675C9.34308 9.88777 8.37482 10.2618 7.45753 10.7416C7.11653 10.9498 6.93993 10.6987 6.93384 10.3373L6.97647 10.2577Z" fill="#2C3639"/>
<path d="M16.4454 44.4615C16.555 44.0573 16.6889 43.4692 16.8899 42.9057C16.9067 42.8275 16.941 42.7541 16.9902 42.6913C17.0394 42.6284 17.1022 42.5776 17.1738 42.5428C17.2454 42.508 17.3239 42.49 17.4034 42.4902C17.483 42.4905 17.5614 42.509 17.6328 42.5443C17.7052 42.5782 17.7697 42.6271 17.822 42.6878C17.8742 42.7486 17.9132 42.8198 17.9362 42.8967C17.9592 42.9736 17.9657 43.0546 17.9554 43.1343C17.9451 43.2139 17.9182 43.2905 17.8764 43.3589C17.6511 43.8857 17.3831 44.3941 17.1274 44.9025C17.0421 45.0741 16.9082 45.2272 16.695 45.1659C16.4819 45.1047 16.4393 44.8658 16.4454 44.4615Z" fill="#2C3639"/>
<path d="M70.653 15.6665C70.6409 15.7441 70.6102 15.8176 70.5635 15.8805C70.5168 15.9435 70.4556 15.9941 70.3851 16.0279C69.661 16.4909 69.0086 17.0584 68.4487 17.7124C68.333 17.8533 68.1929 18.0064 67.9859 17.8839C67.7789 17.7614 67.8032 17.5409 67.8641 17.3326C68.0346 16.7201 69.63 15.495 70.2329 15.4338C70.4217 15.4215 70.6043 15.4215 70.653 15.6665Z" fill="#2C3639"/>
<path d="M7.67651 64.963C7.78831 64.4255 8.0125 63.9182 8.33418 63.4745C8.396 63.3745 8.49123 63.2997 8.6028 63.2638C8.71437 63.2279 8.83501 63.2331 8.94311 63.2785C9.06229 63.323 9.16104 63.41 9.22056 63.5229C9.28008 63.6359 9.2962 63.7669 9.26585 63.8911C9.1246 64.4473 8.84363 64.9578 8.44988 65.3734C8.39832 65.4661 8.3135 65.5355 8.21275 65.5674C8.11201 65.5993 8.00295 65.5912 7.90791 65.5449C7.6887 65.4592 7.67651 65.2509 7.67651 64.963Z" fill="#2C3639"/>
<path d="M14.4783 6.03711C14.8193 6.12899 14.8011 6.36789 14.6732 6.58228C14.262 7.30936 14.0263 8.12343 13.9851 8.95892C13.9851 9.11818 13.9242 9.27744 13.7354 9.30194C13.5467 9.32644 13.4614 9.20392 13.3762 9.06304C12.9803 8.377 13.5588 6.43525 14.2652 6.11061C14.3343 6.08067 14.4055 6.0561 14.4783 6.03711Z" fill="#2C3639"/>
<path d="M68.5765 29.3931C68.5408 29.9663 68.4239 30.5314 68.2294 31.0714C68.1441 31.2613 68.0163 31.4634 67.7666 31.3838C67.5169 31.3042 67.5596 31.0898 67.5839 30.9183C67.7252 30.177 67.7417 29.4171 67.6326 28.6703C67.6161 28.6195 67.6107 28.5658 67.617 28.5128C67.6232 28.4597 67.6408 28.4087 67.6687 28.3632C67.6965 28.3177 67.7338 28.2789 67.7781 28.2495C67.8223 28.22 67.8724 28.2005 67.9249 28.1925C68.1381 28.1558 68.2598 28.3273 68.3207 28.4988C68.4364 28.8112 68.5095 29.1419 68.5765 29.3931Z" fill="#2C3639"/>
<path d="M43.4762 50.5125C43.3334 51.225 43.0429 51.8991 42.6237 52.491C42.5832 52.5586 42.5226 52.6116 42.4504 52.6424C42.3782 52.6732 42.2982 52.6803 42.2218 52.6625C42.1775 52.649 42.1365 52.6263 42.1015 52.5958C42.0665 52.5653 42.0384 52.5277 42.0188 52.4855C41.9993 52.4433 41.9888 52.3975 41.9881 52.3509C41.9874 52.3043 41.9965 52.2582 42.0147 52.2154C42.2279 51.4987 42.4654 50.7882 42.715 50.0838C42.7291 50.0329 42.7538 49.9856 42.7874 49.945C42.821 49.9045 42.8628 49.8715 42.91 49.8484C42.9571 49.8252 43.0086 49.8124 43.0611 49.8107C43.1136 49.8091 43.1658 49.8186 43.2143 49.8387C43.5127 49.9429 43.4701 50.2001 43.4762 50.5125Z" fill="#2C3639"/>
<path d="M48.3231 59.4551C48.7128 59.5225 48.7067 59.8103 48.5788 60.0676C48.1349 60.8635 47.534 61.5597 46.8129 62.1135C46.6911 62.2053 46.5267 62.285 46.3988 62.1135C46.371 62.0727 46.3532 62.026 46.3468 61.977C46.3405 61.928 46.3458 61.8782 46.3623 61.8317C46.8572 61.0046 47.4457 60.2379 48.116 59.5469C48.1797 59.5054 48.2496 59.4744 48.3231 59.4551V59.4551Z" fill="#2C3639"/>
<path d="M10.0211 54.2745C10.0512 53.8423 10.1804 53.423 10.3986 53.0495C10.4628 52.9348 10.5653 52.8467 10.6879 52.8007C10.8105 52.7548 10.9453 52.7539 11.0685 52.7983C11.1951 52.8367 11.3037 52.9198 11.3742 53.0324C11.4447 53.1449 11.4724 53.2794 11.4521 53.4109C11.3843 53.9552 11.1251 54.4571 10.7214 54.8258C10.6577 54.8935 10.5711 54.9347 10.4788 54.9415C10.3864 54.9483 10.2948 54.9202 10.222 54.8626C10.1394 54.7915 10.0772 54.6995 10.0419 54.5961C10.0065 54.4927 9.99935 54.3817 10.0211 54.2745Z" fill="#2C3639"/>
<path d="M28.8983 38.5319C28.8618 38.587 28.8374 38.6728 28.7765 38.7096C28.1006 39.1812 27.4186 39.6467 26.7305 40.1C26.6699 40.1511 26.5916 40.176 26.5128 40.1691C26.4341 40.1622 26.3612 40.1241 26.3103 40.0633C26.2653 39.9978 26.2443 39.9186 26.251 39.8392C26.2576 39.7599 26.2915 39.6853 26.3469 39.6284C26.8305 38.9138 27.5589 38.4036 28.3929 38.195C28.6425 38.1399 28.8983 38.1889 28.8983 38.5319Z" fill="#2C3639"/>
<path d="M57.4573 38.8383C57.3295 37.9195 57.2138 35.3591 57.0372 35.3652C56.8606 35.3714 56.6535 37.699 56.3917 39.408C56.0994 41.3252 55.9776 42.7647 53.1278 42.8321C52.6772 42.8321 52.9086 43.2364 53.0851 43.2364C56.55 43.316 56.209 44.7493 56.4648 46.5563C56.6478 47.8501 56.7656 49.1524 56.8179 50.4581C56.9609 50.5018 57.1135 50.5018 57.2564 50.4581C57.2564 50.4581 57.5304 46.2378 57.774 44.7922C57.9749 43.61 59.412 43.3833 60.5751 43.1628C60.636 43.1628 60.709 42.8259 60.4776 42.7953C58.0845 42.5197 57.9019 42.0051 57.4573 38.8383Z" fill="#2C3639"/>
<path d="M6.74503 31.8305C6.61107 30.9117 6.49537 28.3574 6.32487 28.3574C6.15436 28.3574 5.94124 30.6912 5.67939 32.4063C5.3871 34.3174 5.25923 35.7569 2.40941 35.8242C1.96488 35.8242 2.19018 36.2285 2.36678 36.2346C5.83163 36.3081 5.49062 37.7415 5.75246 39.5485C5.93575 40.8443 6.05364 42.1486 6.10566 43.4565C6.24653 43.4999 6.39712 43.4999 6.538 43.4565C6.538 43.4565 6.81811 39.2299 7.0556 37.7844C7.25655 36.6022 8.69363 36.3755 9.86279 36.155C9.92368 36.155 9.99067 35.8181 9.75928 35.7936C7.37225 35.5119 7.18347 34.9973 6.74503 31.8305Z" fill="#2C3639"/>
<path d="M63.3029 48.4424C63.2054 47.7686 63.1202 45.9004 62.9923 45.9004C62.8644 45.9004 62.7122 47.6094 62.5234 48.8651C62.3103 50.2678 62.2128 51.3152 60.1303 51.3703C59.8015 51.3703 59.9659 51.6643 60.1303 51.6705C62.6635 51.7256 62.4138 52.773 62.6087 54.1206C62.7304 54.9843 62.8401 56.1788 62.8644 56.9812C62.9678 57.0115 63.0777 57.0115 63.1811 56.9812C63.1811 56.9812 63.3881 53.9185 63.5647 52.8282C63.7108 51.9645 64.7826 51.7991 65.6168 51.6031C65.6594 51.6031 65.7081 51.3581 65.5376 51.3397C63.7595 51.1376 63.6073 50.7639 63.3029 48.4424Z" fill="#2C3639"/>
<path d="M3.51176 45.0186C3.41433 44.3448 3.32907 42.4766 3.2012 42.4766C3.07332 42.4766 2.92109 44.1855 2.73232 45.4351C2.5192 46.8378 2.42177 47.8853 0.339206 47.9404C0.0103797 47.9404 0.174782 48.2405 0.308748 48.2405C2.84193 48.2957 2.59227 49.3492 2.78713 50.6907C2.92069 51.6372 3.00606 52.5899 3.04289 53.5451C3.14791 53.5785 3.2606 53.5785 3.36562 53.5451C3.36562 53.5451 3.56657 50.4824 3.74316 49.3983C3.88931 48.5284 4.96103 48.3692 5.79528 48.1732C5.8379 48.1732 5.88662 47.9282 5.72221 47.9037C3.96847 47.7138 3.8345 47.3401 3.51176 45.0186Z" fill="#2C3639"/>
</svg>
