<svg width="24" height="38" viewBox="0 0 24 38" fill="none" xmlns="http://www.w3.org/2000/svg">
<path d="M11.9142 0.44043L22.9583 12.627L11.9142 37.0002L0.870117 12.627L11.9142 0.44043Z" fill="#829BBA"/>
<path d="M0.870117 12.627L7.34424 14.1503M0.870117 12.627L11.9142 0.44043M0.870117 12.627L11.9142 37.0002M7.34424 14.1503L11.9142 0.44043M7.34424 14.1503L16.4842 14.0657M7.34424 14.1503L11.9142 37.0002M22.9583 12.627L11.9142 0.44043M22.9583 12.627L16.4842 14.0657M22.9583 12.627L11.9142 37.0002M11.9142 0.44043L16.4842 14.0657M16.4842 14.0657L11.9142 37.0002" stroke="#252523" stroke-width="0.5"/>
<path d="M16.5255 24.3471C16.6739 24.2263 16.8635 24.1537 17.0699 24.1537C16.8635 24.1537 16.6739 24.0814 16.5255 23.9606C16.5574 23.8487 16.6168 23.7431 16.705 23.655C16.6168 23.7431 16.5111 23.8028 16.3991 23.8343C16.2785 23.686 16.2059 23.4969 16.2059 23.2906C16.2059 23.4969 16.1332 23.686 16.0123 23.8343C15.9006 23.8028 15.7949 23.7431 15.7068 23.655C15.7949 23.7431 15.8544 23.8487 15.8863 23.9606C15.7378 24.0814 15.5483 24.1537 15.3418 24.1537C15.5483 24.1537 15.7378 24.2263 15.8863 24.3471C15.8544 24.459 15.7949 24.5646 15.7068 24.6527C15.7949 24.5646 15.9006 24.5049 16.0123 24.4731C16.1332 24.6217 16.2059 24.8108 16.2059 25.0171C16.2059 24.8108 16.2785 24.6217 16.3991 24.4731C16.5111 24.5049 16.6168 24.5646 16.705 24.6527C16.6168 24.5646 16.5574 24.459 16.5255 24.3471Z" fill="#252523"/>
<path d="M6.24387 16.3106C6.44038 16.1506 6.6908 16.0548 6.96369 16.0548C6.6908 16.0548 6.44038 15.9586 6.24387 15.799C6.28581 15.651 6.36489 15.5114 6.48112 15.3949C6.36489 15.5114 6.225 15.5902 6.07702 15.6321C5.91736 15.4356 5.82121 15.1852 5.82121 14.9123C5.82121 15.1852 5.72535 15.4356 5.56539 15.6321C5.41741 15.5902 5.27782 15.5114 5.16129 15.3949C5.27782 15.5114 5.3566 15.651 5.39854 15.799C5.20203 15.9586 4.9519 16.0548 4.67871 16.0548C4.9519 16.0548 5.20203 16.1506 5.39854 16.3106C5.3566 16.4586 5.27782 16.5982 5.16129 16.7147C5.27782 16.5982 5.41741 16.5194 5.56539 16.4774C5.72535 16.6739 5.82121 16.9244 5.82121 17.1973C5.82121 16.9244 5.91736 16.6739 6.07702 16.4774C6.225 16.5194 6.36489 16.5982 6.48112 16.7147C6.36489 16.5982 6.28581 16.4586 6.24387 16.3106Z" fill="#252523"/>
<path d="M11.9557 6.06779C12.1041 5.94699 12.2936 5.8744 12.5001 5.8744C12.2936 5.8744 12.1041 5.80209 11.9557 5.68129C11.9875 5.56938 12.047 5.46379 12.1351 5.3757C12.047 5.46379 11.9413 5.52347 11.8293 5.55503C11.7087 5.40669 11.636 5.2176 11.636 5.01129C11.636 5.2176 11.5634 5.40669 11.4425 5.55503C11.3308 5.52347 11.2251 5.46379 11.137 5.3757C11.2251 5.46379 11.2846 5.56938 11.3164 5.68129C11.168 5.80209 10.9784 5.8744 10.772 5.8744C10.9784 5.8744 11.168 5.94699 11.3164 6.06779C11.2846 6.1797 11.2251 6.28529 11.137 6.37338C11.2251 6.28529 11.3308 6.22561 11.4425 6.19376C11.5634 6.34239 11.636 6.53148 11.636 6.73779C11.636 6.53148 11.7087 6.34239 11.8293 6.19376C11.9413 6.22561 12.047 6.28529 12.1351 6.37338C12.047 6.28529 11.9875 6.1797 11.9557 6.06779Z" fill="#252523"/>
</svg>
