<svg width="297" height="100" viewBox="0 0 297 100" fill="none" xmlns="http://www.w3.org/2000/svg">
<path d="M168.555 41.5866C168.555 51.9739 159.806 60.394 149.014 60.394C138.222 60.394 129.474 51.9739 129.474 41.5866C129.474 31.2002 138.222 22.7778 149.014 22.7778C159.806 22.7778 168.555 31.2002 168.555 41.5866Z" stroke="#2C3639" stroke-miterlimit="10" stroke-linecap="round" stroke-linejoin="round"/>
<path d="M148.396 26.7369C147.557 26.7369 146.734 26.8002 145.93 26.9186C151.572 28.0533 155.892 34.4095 155.892 42.0808C155.892 49.7529 151.572 56.1091 145.93 57.2434C146.734 57.3619 147.557 57.4238 148.396 57.4238C157.258 57.4238 164.442 50.5546 164.442 42.0808C164.442 33.6081 157.258 26.7369 148.396 26.7369Z" stroke="#2C3639" stroke-miterlimit="10" stroke-linecap="round" stroke-linejoin="round"/>
<path d="M149.015 18.8179V1.98955" stroke="#2C3639" stroke-miterlimit="10" stroke-linecap="round" stroke-linejoin="round"/>
<path d="M149.015 83.1611V66.3328" stroke="#2C3639" stroke-miterlimit="10" stroke-linecap="round" stroke-linejoin="round"/>
<path d="M173.697 41.5859H191.181" stroke="#2C3639" stroke-miterlimit="10" stroke-linecap="round" stroke-linejoin="round"/>
<path d="M105.819 41.5859H123.303" stroke="#2C3639" stroke-miterlimit="10" stroke-linecap="round" stroke-linejoin="round"/>
<path d="M165.471 25.7476L177.812 13.8687" stroke="#2C3639" stroke-miterlimit="10" stroke-linecap="round" stroke-linejoin="round"/>
<path d="M119.189 71.2832L131.531 59.4044" stroke="#2C3639" stroke-miterlimit="10" stroke-linecap="round" stroke-linejoin="round"/>
<path d="M165.471 59.4044L177.812 71.2832" stroke="#2C3639" stroke-miterlimit="10" stroke-linecap="round" stroke-linejoin="round"/>
<path d="M119.189 13.8687L131.531 25.7476" stroke="#2C3639" stroke-miterlimit="10" stroke-linecap="round" stroke-linejoin="round"/>
<path d="M158.271 20.7983L164.442 3.97002" stroke="#2C3639" stroke-miterlimit="10" stroke-linecap="round" stroke-linejoin="round"/>
<path d="M132.559 80.1924L138.729 64.354" stroke="#2C3639" stroke-miterlimit="10" stroke-linecap="round" stroke-linejoin="round"/>
<path d="M171.642 51.4844L188.097 57.4238" stroke="#2C3639" stroke-miterlimit="10" stroke-linecap="round" stroke-linejoin="round"/>
<path d="M108.904 26.7372L125.36 33.6665" stroke="#2C3639" stroke-miterlimit="10" stroke-linecap="round" stroke-linejoin="round"/>
<path d="M171.642 32.6768L187.068 25.7474" stroke="#2C3639" stroke-miterlimit="10" stroke-linecap="round" stroke-linejoin="round"/>
<path d="M109.934 58.4141L125.36 51.4848" stroke="#2C3639" stroke-miterlimit="10" stroke-linecap="round" stroke-linejoin="round"/>
<path d="M158.271 64.3531L165.471 79.2017" stroke="#2C3639" stroke-miterlimit="10" stroke-linecap="round" stroke-linejoin="round"/>
<path d="M132.559 4.95992L138.729 20.7983" stroke="#2C3639" stroke-miterlimit="10" stroke-linecap="round" stroke-linejoin="round"/>
<path d="M168.556 28.7163L176.783 22.7769" stroke="#2C3639" stroke-miterlimit="10" stroke-linecap="round" stroke-linejoin="round"/>
<path d="M120.218 60.394L128.445 56.4344" stroke="#2C3639" stroke-miterlimit="10" stroke-linecap="round" stroke-linejoin="round"/>
<path d="M162.384 61.3835L168.555 69.3027" stroke="#2C3639" stroke-miterlimit="10" stroke-linecap="round" stroke-linejoin="round"/>
<path d="M129.474 15.848L134.616 22.7773" stroke="#2C3639" stroke-miterlimit="10" stroke-linecap="round" stroke-linejoin="round"/>
<path d="M172.669 37.626L181.925 35.6462" stroke="#2C3639" stroke-miterlimit="10" stroke-linecap="round" stroke-linejoin="round"/>
<path d="M115.076 48.5151L124.332 46.5353" stroke="#2C3639" stroke-miterlimit="10" stroke-linecap="round" stroke-linejoin="round"/>
<path d="M154.158 65.3433L155.187 74.2524" stroke="#2C3639" stroke-miterlimit="10" stroke-linecap="round" stroke-linejoin="round"/>
<path d="M141.814 9.90876L143.871 18.8179" stroke="#2C3639" stroke-miterlimit="10" stroke-linecap="round" stroke-linejoin="round"/>
<path d="M172.669 46.535L181.925 47.5249" stroke="#2C3639" stroke-miterlimit="10" stroke-linecap="round" stroke-linejoin="round"/>
<path d="M115.076 36.6359L124.332 38.6157" stroke="#2C3639" stroke-miterlimit="10" stroke-linecap="round" stroke-linejoin="round"/>
<path d="M143.872 65.3433L142.844 74.2524" stroke="#2C3639" stroke-miterlimit="10" stroke-linecap="round" stroke-linejoin="round"/>
<path d="M154.156 9.90876L153.128 18.8179" stroke="#2C3639" stroke-miterlimit="10" stroke-linecap="round" stroke-linejoin="round"/>
<path d="M162.384 21.7876L167.526 14.8583" stroke="#2C3639" stroke-miterlimit="10" stroke-linecap="round" stroke-linejoin="round"/>
<path d="M130.503 69.3027L135.645 62.3734" stroke="#2C3639" stroke-miterlimit="10" stroke-linecap="round" stroke-linejoin="round"/>
<path d="M169.584 55.4447L176.783 59.4043" stroke="#2C3639" stroke-miterlimit="10" stroke-linecap="round" stroke-linejoin="round"/>
<path d="M120.218 23.7668L127.417 28.7163" stroke="#2C3639" stroke-miterlimit="10" stroke-linecap="round" stroke-linejoin="round"/>
<path d="M71.6081 64.9173L71.4136 63.5265L72.1857 62.4159L75.7853 65.36C75.7853 65.36 73.5212 65.7242 71.6081 64.9173ZM68.5438 61.2188C68.4755 61.3818 68.2587 62.2749 68.2587 62.2749C68.2587 62.2749 67.3994 61.4992 67.7948 61.0411C68.1901 60.5826 68.8029 59.7967 68.8029 59.7967L69.4551 60.1491C69.4551 60.1491 68.612 61.0554 68.5438 61.2188ZM93.2946 79.0097C92.8902 77.4246 90.1233 72.757 89.3219 71.1639C88.5202 69.5705 84.1034 65.1657 82.5643 64.3339C81.0255 63.5022 75.6031 59.5121 75.6031 59.5121C75.6031 59.5121 76.2669 59.0639 77.5076 58.3225C78.7484 57.5811 78.9238 56.2637 78.2138 55.8796C77.5031 55.4958 72.909 57.3495 72.909 57.3495L72.0489 56.6829C72.0489 56.6829 74.1836 56.2737 75.8338 54.8959C77.484 53.5186 77.5466 52.4931 77.0116 52.2546C76.477 52.0161 72.8035 53.0563 71.7491 53.1925C70.8033 53.3147 69.1184 54.4565 68.7812 54.6903C68.7282 54.6549 68.5629 54.5905 68.1464 54.4728C67.1693 54.197 66.5272 54.6065 66.2227 55.1479C65.9179 55.6892 66.3885 56.4984 66.3885 56.4984L64.4555 58.3786L66.1082 53.5225C66.1082 53.5225 67.7581 52.1449 69.1813 50.897C70.6045 49.6488 71.1386 46.9619 70.0707 46.9393C69.0026 46.9169 64.8274 49.8546 64.3294 50.1907C63.8314 50.527 62.305 53.7869 62.305 53.7869C62.305 53.7869 61.5795 49.8643 59.8528 47.7207C58.1259 45.5769 57.4824 46.9942 57.4824 46.9942L60.092 58.5419L65.0006 71.9327C65.4475 73.1524 66.333 74.1702 67.4911 74.7964L73.5967 78.0964C74.8868 78.7939 79.4985 81.8643 82.2527 83.6549C82.7467 83.9763 81.5218 86.428 80.078 88.9468C78.2075 92.2101 79.4263 96.3439 82.7707 98.1514C87.1878 100.539 92.6392 97.6225 92.9793 92.6901C93.3789 86.8961 93.6922 80.5699 93.2946 79.0097Z" stroke="#2C3639" stroke-miterlimit="10" stroke-linecap="round" stroke-linejoin="round"/>
<path d="M75.9905 59.4038L73.8686 60.539L71.8809 63.5461L72.454 67.8529C72.454 67.8529 83.6517 72.5316 86.2793 78.2119" stroke="#2C3639" stroke-miterlimit="10" stroke-linecap="round" stroke-linejoin="round"/>
<path d="M66.7383 70.2925C66.7383 70.2925 67.7097 62.8302 68.2025 62.064C68.6954 61.298 71.8896 58.7586 72.909 58.4137" stroke="#2C3639" stroke-miterlimit="10" stroke-linecap="round" stroke-linejoin="round"/>
<path d="M68.7946 55.4446L66.5225 57.2102L64.639 59.0904L64.1047 59.6064C63.8011 59.8996 63.6368 60.3097 63.6535 60.7325L63.8763 66.3335" stroke="#2C3639" stroke-miterlimit="10" stroke-linecap="round" stroke-linejoin="round"/>
<path d="M61.5958 54.4541L60.5674 57.4238" stroke="#2C3639" stroke-miterlimit="10" stroke-linecap="round" stroke-linejoin="round"/>
<path d="M71.8813 57.4243L70.6443 58.0163L68.7959 60.394" stroke="#2C3639" stroke-miterlimit="10" stroke-linecap="round" stroke-linejoin="round"/>
<path d="M49.2532 34.6569L47.1963 36.6367" stroke="#2C3639" stroke-miterlimit="10" stroke-linecap="round" stroke-linejoin="round"/>
<path d="M60.5667 23.7678L58.5098 25.7476" stroke="#2C3639" stroke-miterlimit="10" stroke-linecap="round" stroke-linejoin="round"/>
<path d="M58.5098 34.6569L60.5667 36.6367" stroke="#2C3639" stroke-miterlimit="10" stroke-linecap="round" stroke-linejoin="round"/>
<path d="M47.1963 23.7678L49.2532 25.7476" stroke="#2C3639" stroke-miterlimit="10" stroke-linecap="round" stroke-linejoin="round"/>
<path d="M44.1123 30.201C44.1123 30.201 46.6056 29.6264 48.9318 29.2088C49.6282 29.0826 50.2565 28.78 50.7733 28.3511C50.2647 27.6897 49.7919 26.989 49.534 26.4004C50.1179 26.6526 50.8101 27.1095 51.4697 27.6056C51.8577 27.0618 52.1124 26.4228 52.1837 25.7277C52.3958 23.6677 52.7568 21.3442 53.3684 19.8083C53.9806 21.347 54.3419 23.6733 54.5537 25.7361C54.63 26.4789 54.9159 27.1628 55.3519 27.7289C56.246 27.0983 57.2025 26.4004 57.2025 26.4004C56.9729 26.9245 56.4074 27.7009 55.9293 28.3315C56.4529 28.7743 57.0939 29.0882 57.8065 29.2172C60.1114 29.6348 62.6245 30.201 62.6245 30.201C61.2263 30.7475 59.5898 31.0923 58.0233 31.3081C57.2769 31.4118 56.5988 31.7145 56.0401 32.1517C56.5191 32.7851 56.9579 33.4438 57.2025 34.0015C56.6413 33.7605 55.9799 33.3289 55.3437 32.8552C54.9043 33.4214 54.6137 34.108 54.5333 34.862C54.3193 36.8744 53.9616 39.1054 53.3684 40.5962C52.7752 39.1054 52.4175 36.8744 52.2032 34.862C52.1215 34.094 51.8218 33.3961 51.3685 32.8244C50.7547 33.2784 50.0325 33.7885 49.534 34.0015C49.534 34.0015 50.1909 33.1102 50.8124 32.2442C50.2333 31.7537 49.5117 31.4202 48.7135 31.3081C47.1468 31.0923 45.5102 30.7475 44.1123 30.201Z" stroke="#2C3639" stroke-miterlimit="10" stroke-linecap="round" stroke-linejoin="round"/>
<path d="M102.735 77.2228C103.006 77.313 103.296 77.3893 103.595 77.4531C105.106 77.7754 106.236 78.8413 106.522 80.1423C106.608 80.53 106.715 80.8928 106.849 81.1821C106.984 80.8928 107.091 80.53 107.176 80.1423C107.463 78.8413 108.592 77.7754 110.103 77.4531C110.403 77.3893 110.693 77.313 110.963 77.2228C110.963 77.2228 110.695 77.1707 110.301 77.0991C108.714 76.8106 107.48 75.7386 107.193 74.3807C107.105 73.9639 106.993 73.5717 106.849 73.2629C106.706 73.5711 106.594 73.9626 106.506 74.3785C106.22 75.7325 104.992 76.8031 103.41 77.0946C103.009 77.1688 102.735 77.2228 102.735 77.2228Z" stroke="#2C3639" stroke-miterlimit="10" stroke-linecap="round" stroke-linejoin="round"/>
<path d="M55.9407 83.162C55.9407 89.2577 55.6431 89.5965 50.2842 89.5965C55.6431 89.5965 55.9407 89.9348 55.9407 96.0308C55.9407 89.9348 56.2385 89.5965 61.5972 89.5965C56.2385 89.5965 55.9407 89.2577 55.9407 83.162Z" stroke="#2C3639" stroke-miterlimit="10" stroke-linecap="round" stroke-linejoin="round"/>
<path d="M221.215 65.36L224.815 62.4159L225.587 63.5265L225.393 64.9173C223.48 65.7242 221.215 65.36 221.215 65.36ZM227.546 60.1491L228.198 59.7967C228.198 59.7967 228.811 60.5826 229.206 61.0411C229.601 61.4992 228.742 62.2749 228.742 62.2749C228.742 62.2749 228.525 61.3818 228.457 61.2188C228.389 61.0554 227.546 60.1491 227.546 60.1491ZM204.021 92.6901C204.362 97.6225 209.813 100.539 214.23 98.1514C217.574 96.3439 218.794 92.2101 216.923 88.9468C215.479 86.428 214.254 83.9763 214.748 83.6549C217.502 81.8643 222.114 78.7939 223.404 78.0964L229.51 74.7964C230.668 74.1702 231.553 73.1524 232 71.9327L236.909 58.5419L239.518 46.9942C239.518 46.9942 238.875 45.5769 237.148 47.7207C235.421 49.8643 234.696 53.7869 234.696 53.7869C234.696 53.7869 233.169 50.527 232.671 50.1907C232.174 49.8546 227.998 46.9169 226.93 46.9393C225.862 46.9619 226.396 49.6488 227.82 50.897C229.242 52.1449 230.893 53.5225 230.893 53.5225L232.545 58.3786L230.612 56.4984C230.612 56.4984 231.083 55.6892 230.778 55.1479C230.474 54.6065 229.832 54.197 228.854 54.4728C228.438 54.5905 228.273 54.6549 228.22 54.6903C227.882 54.4565 226.197 53.3147 225.252 53.1925C224.197 53.0563 220.524 52.0161 219.989 52.2546C219.454 52.4931 219.517 53.5186 221.167 54.8959C222.817 56.2737 224.952 56.6829 224.952 56.6829L224.092 57.3495C224.092 57.3495 219.498 55.4958 218.787 55.8796C218.077 56.2637 218.252 57.5811 219.493 58.3225C220.734 59.0639 221.398 59.5121 221.398 59.5121C221.398 59.5121 215.975 63.5022 214.436 64.3339C212.897 65.1657 208.48 69.5705 207.679 71.1639C206.877 72.757 204.11 77.4246 203.707 79.0097C203.309 80.5699 203.622 86.8961 204.021 92.6901Z" stroke="#2C3639" stroke-miterlimit="10" stroke-linecap="round" stroke-linejoin="round"/>
<path d="M221.746 59.4038L224.02 60.539L226.15 63.5461L225.535 67.8529C225.535 67.8529 213.538 72.5316 210.723 78.2119" stroke="#2C3639" stroke-miterlimit="10" stroke-linecap="round" stroke-linejoin="round"/>
<path d="M230.263 70.2925C230.263 70.2925 229.291 62.8302 228.798 62.064C228.305 61.298 225.111 58.7586 224.092 58.4137" stroke="#2C3639" stroke-miterlimit="10" stroke-linecap="round" stroke-linejoin="round"/>
<path d="M228.206 55.4446L230.933 57.2102L233.193 59.0904L233.834 59.6064C234.198 59.8996 234.396 60.3097 234.375 60.7325L234.108 66.3335" stroke="#2C3639" stroke-miterlimit="10" stroke-linecap="round" stroke-linejoin="round"/>
<path d="M235.405 54.4541L236.434 57.4238" stroke="#2C3639" stroke-miterlimit="10" stroke-linecap="round" stroke-linejoin="round"/>
<path d="M225.12 57.4243L226.357 58.0163L228.205 60.394" stroke="#2C3639" stroke-miterlimit="10" stroke-linecap="round" stroke-linejoin="round"/>
<path d="M247.746 34.6569L250.831 36.6367" stroke="#2C3639" stroke-miterlimit="10" stroke-linecap="round" stroke-linejoin="round"/>
<path d="M236.434 23.7678L238.491 25.7476" stroke="#2C3639" stroke-miterlimit="10" stroke-linecap="round" stroke-linejoin="round"/>
<path d="M238.491 34.6569L236.434 36.6367" stroke="#2C3639" stroke-miterlimit="10" stroke-linecap="round" stroke-linejoin="round"/>
<path d="M250.831 23.7678L247.746 25.7476" stroke="#2C3639" stroke-miterlimit="10" stroke-linecap="round" stroke-linejoin="round"/>
<path d="M252.888 30.201C252.888 30.201 250.395 29.6264 248.069 29.2088C247.372 29.0826 246.744 28.78 246.227 28.3511C246.736 27.6897 247.209 26.989 247.466 26.4004C246.883 26.6526 246.191 27.1095 245.531 27.6056C245.143 27.0618 244.888 26.4228 244.817 25.7277C244.605 23.6677 244.244 21.3442 243.632 19.8083C243.02 21.347 242.658 23.6733 242.447 25.7361C242.37 26.4789 242.084 27.1628 241.648 27.7289C240.755 27.0983 239.798 26.4004 239.798 26.4004C240.028 26.9245 240.593 27.7009 241.071 28.3315C240.548 28.7743 239.907 29.0882 239.194 29.2172C236.889 29.6348 234.376 30.201 234.376 30.201C235.774 30.7475 237.411 31.0923 238.977 31.3081C239.724 31.4118 240.402 31.7145 240.96 32.1517C240.481 32.7851 240.042 33.4438 239.798 34.0015C240.36 33.7605 241.021 33.3289 241.657 32.8552C242.096 33.4214 242.387 34.108 242.467 34.862C242.681 36.8744 243.039 39.1054 243.632 40.5962C244.225 39.1054 244.583 36.8744 244.797 34.862C244.879 34.094 245.179 33.3961 245.632 32.8244C246.246 33.2784 246.968 33.7885 247.466 34.0015C247.466 34.0015 246.81 33.1102 246.188 32.2442C246.768 31.7537 247.489 31.4202 248.287 31.3081C249.854 31.0923 251.49 30.7475 252.888 30.201Z" stroke="#2C3639" stroke-miterlimit="10" stroke-linecap="round" stroke-linejoin="round"/>
<path d="M193.593 77.0946C192.011 76.8031 190.783 75.7325 190.497 74.3785C190.409 73.9626 190.297 73.5711 190.154 73.2629C190.011 73.5717 189.898 73.9639 189.81 74.3807C189.523 75.7386 188.289 76.8106 186.702 77.0991C186.308 77.1707 186.04 77.2228 186.04 77.2228C186.31 77.313 186.601 77.3893 186.9 77.4531C188.411 77.7754 189.54 78.8413 189.827 80.1423C189.912 80.53 190.019 80.8928 190.154 81.1821C190.288 80.8928 190.396 80.53 190.481 80.1423C190.767 78.8413 191.897 77.7754 193.408 77.4531C193.707 77.3893 193.997 77.313 194.268 77.2228C194.268 77.2228 193.994 77.1688 193.593 77.0946Z" stroke="#2C3639" stroke-miterlimit="10" stroke-linecap="round" stroke-linejoin="round"/>
<path d="M241.062 83.162C241.062 89.2577 241.359 89.5965 246.718 89.5965C241.359 89.5965 241.062 89.9348 241.062 96.0308C241.062 89.9348 240.764 89.5965 235.405 89.5965C240.764 89.5965 241.062 89.2577 241.062 83.162Z" stroke="#2C3639" stroke-miterlimit="10" stroke-linecap="round" stroke-linejoin="round"/>
<path d="M274.481 61.9155C274.31 58.8336 273.816 52.8337 272.43 49.5048C271.044 52.8337 270.549 58.8336 270.379 61.9155C267.378 62.0608 259.06 63.8585 259.06 63.8585C262.573 65.1712 267.127 65.6414 270.379 65.8012C270.549 68.8829 271.044 74.883 272.43 78.2119C273.816 74.883 274.31 68.8829 274.481 65.8012C277.733 65.6414 282.287 65.1712 285.799 63.8585C285.799 63.8585 277.733 62.0753 274.481 61.9155Z" stroke="#2C3639" stroke-miterlimit="10" stroke-linecap="round" stroke-linejoin="round"/>
<path d="M249.805 63.3633H257.004" stroke="#2C3639" stroke-miterlimit="10" stroke-linecap="round" stroke-linejoin="round"/>
<path d="M288.885 63.3633H296.084" stroke="#2C3639" stroke-miterlimit="10" stroke-linecap="round" stroke-linejoin="round"/>
<path d="M273.458 41.5855V47.5249" stroke="#2C3639" stroke-miterlimit="10" stroke-linecap="round" stroke-linejoin="round"/>
<path d="M273.458 80.1919V86.1313" stroke="#2C3639" stroke-miterlimit="10" stroke-linecap="round" stroke-linejoin="round"/>
<path d="M260.088 51.4852L264.202 55.4448" stroke="#2C3639" stroke-miterlimit="10" stroke-linecap="round" stroke-linejoin="round"/>
<path d="M257.003 48.5153L259.06 50.4951" stroke="#2C3639" stroke-miterlimit="10" stroke-linecap="round" stroke-linejoin="round"/>
<path d="M284.772 76.2324L281.687 72.2728" stroke="#2C3639" stroke-miterlimit="10" stroke-linecap="round" stroke-linejoin="round"/>
<path d="M287.857 78.2119L286.828 77.222" stroke="#2C3639" stroke-miterlimit="10" stroke-linecap="round" stroke-linejoin="round"/>
<path d="M264.202 72.2728L260.088 76.2324" stroke="#2C3639" stroke-miterlimit="10" stroke-linecap="round" stroke-linejoin="round"/>
<path d="M284.772 51.4852L281.687 55.4448" stroke="#2C3639" stroke-miterlimit="10" stroke-linecap="round" stroke-linejoin="round"/>
<path d="M287.857 48.5153L286.828 50.4951" stroke="#2C3639" stroke-miterlimit="10" stroke-linecap="round" stroke-linejoin="round"/>
<path d="M257.003 78.2119L259.06 77.222" stroke="#2C3639" stroke-miterlimit="10" stroke-linecap="round" stroke-linejoin="round"/>
<path d="M257.003 57.4245L262.145 59.4043" stroke="#2C3639" stroke-miterlimit="10" stroke-linecap="round" stroke-linejoin="round"/>
<path d="M283.742 68.3127L288.884 70.2925" stroke="#2C3639" stroke-miterlimit="10" stroke-linecap="round" stroke-linejoin="round"/>
<path d="M279.629 47.5249L277.572 53.4644" stroke="#2C3639" stroke-miterlimit="10" stroke-linecap="round" stroke-linejoin="round"/>
<path d="M268.316 74.2522L266.259 79.2017" stroke="#2C3639" stroke-miterlimit="10" stroke-linecap="round" stroke-linejoin="round"/>
<path d="M266.259 47.5249L268.316 53.4644" stroke="#2C3639" stroke-miterlimit="10" stroke-linecap="round" stroke-linejoin="round"/>
<path d="M277.572 74.2522L279.629 79.2017" stroke="#2C3639" stroke-miterlimit="10" stroke-linecap="round" stroke-linejoin="round"/>
<path d="M289.913 57.4245L283.742 59.4043" stroke="#2C3639" stroke-miterlimit="10" stroke-linecap="round" stroke-linejoin="round"/>
<path d="M261.117 68.3127L257.003 70.2925" stroke="#2C3639" stroke-miterlimit="10" stroke-linecap="round" stroke-linejoin="round"/>
<path d="M26.6226 61.9155C26.4536 58.8336 25.9575 52.8337 24.5722 49.5048C23.1867 52.8337 22.6905 58.8336 22.5216 61.9155C19.522 62.0608 11.2021 63.8585 11.2021 63.8585C14.715 65.1712 19.27 65.6414 22.5216 65.8012C22.6905 68.8829 23.1867 74.883 24.5722 78.2119C25.9575 74.883 26.4536 68.8829 26.6226 65.8012C29.8742 65.6414 34.4295 65.1712 37.942 63.8585C37.942 63.8585 29.8742 62.0753 26.6226 61.9155Z" stroke="#2C3639" stroke-miterlimit="10" stroke-linecap="round" stroke-linejoin="round"/>
<path d="M0.916992 63.3633H8.11619" stroke="#2C3639" stroke-miterlimit="10" stroke-linecap="round" stroke-linejoin="round"/>
<path d="M39.998 63.3633H47.1972" stroke="#2C3639" stroke-miterlimit="10" stroke-linecap="round" stroke-linejoin="round"/>
<path d="M24.5713 41.5855V47.5249" stroke="#2C3639" stroke-miterlimit="10" stroke-linecap="round" stroke-linejoin="round"/>
<path d="M24.5713 80.1919V86.1313" stroke="#2C3639" stroke-miterlimit="10" stroke-linecap="round" stroke-linejoin="round"/>
<path d="M12.2305 51.4852L16.3443 55.4448" stroke="#2C3639" stroke-miterlimit="10" stroke-linecap="round" stroke-linejoin="round"/>
<path d="M9.14453 48.5153L10.173 50.4951" stroke="#2C3639" stroke-miterlimit="10" stroke-linecap="round" stroke-linejoin="round"/>
<path d="M36.9127 76.2324L32.7988 72.2728" stroke="#2C3639" stroke-miterlimit="10" stroke-linecap="round" stroke-linejoin="round"/>
<path d="M39.9993 78.2119L37.9424 77.222" stroke="#2C3639" stroke-miterlimit="10" stroke-linecap="round" stroke-linejoin="round"/>
<path d="M16.3444 72.2728L11.2021 76.2324" stroke="#2C3639" stroke-miterlimit="10" stroke-linecap="round" stroke-linejoin="round"/>
<path d="M36.9127 51.4852L32.7988 55.4448" stroke="#2C3639" stroke-miterlimit="10" stroke-linecap="round" stroke-linejoin="round"/>
<path d="M39.9993 48.5153L37.9424 50.4951" stroke="#2C3639" stroke-miterlimit="10" stroke-linecap="round" stroke-linejoin="round"/>
<path d="M9.14453 78.2119L10.173 77.222" stroke="#2C3639" stroke-miterlimit="10" stroke-linecap="round" stroke-linejoin="round"/>
<path d="M8.11621 57.4245L13.2585 59.4043" stroke="#2C3639" stroke-miterlimit="10" stroke-linecap="round" stroke-linejoin="round"/>
<path d="M35.8838 68.3127L39.9976 70.2925" stroke="#2C3639" stroke-miterlimit="10" stroke-linecap="round" stroke-linejoin="round"/>
<path d="M30.7425 47.5249L28.6855 53.4644" stroke="#2C3639" stroke-miterlimit="10" stroke-linecap="round" stroke-linejoin="round"/>
<path d="M19.43 74.2522L17.373 79.2017" stroke="#2C3639" stroke-miterlimit="10" stroke-linecap="round" stroke-linejoin="round"/>
<path d="M17.373 47.5249L20.4584 53.4644" stroke="#2C3639" stroke-miterlimit="10" stroke-linecap="round" stroke-linejoin="round"/>
<path d="M28.6855 74.2522L30.7425 79.2017" stroke="#2C3639" stroke-miterlimit="10" stroke-linecap="round" stroke-linejoin="round"/>
<path d="M39.9976 57.4245L35.8838 59.4043" stroke="#2C3639" stroke-miterlimit="10" stroke-linecap="round" stroke-linejoin="round"/>
<path d="M13.2585 68.3127L8.11621 70.2925" stroke="#2C3639" stroke-miterlimit="10" stroke-linecap="round" stroke-linejoin="round"/>
<path d="M72.9082 12.8784H83.1928" stroke="#2C3639" stroke-miterlimit="10" stroke-linecap="round" stroke-linejoin="round"/>
<path d="M87.3066 12.8784H97.5912" stroke="#2C3639" stroke-miterlimit="10" stroke-linecap="round" stroke-linejoin="round"/>
<path d="M85.251 1.00007V9.90918" stroke="#2C3639" stroke-miterlimit="10" stroke-linecap="round" stroke-linejoin="round"/>
<path d="M85.251 15.8479V23.7671" stroke="#2C3639" stroke-miterlimit="10" stroke-linecap="round" stroke-linejoin="round"/>
<path d="M79.0791 5.9494L81.136 7.9292" stroke="#2C3639" stroke-miterlimit="10" stroke-linecap="round" stroke-linejoin="round"/>
<path d="M77.0225 4.95932L78.0509 5.94922" stroke="#2C3639" stroke-miterlimit="10" stroke-linecap="round" stroke-linejoin="round"/>
<path d="M92.4496 18.8179L89.3643 16.8381" stroke="#2C3639" stroke-miterlimit="10" stroke-linecap="round" stroke-linejoin="round"/>
<path d="M93.4787 20.7983L92.4502 19.8084" stroke="#2C3639" stroke-miterlimit="10" stroke-linecap="round" stroke-linejoin="round"/>
<path d="M81.136 16.8381L79.0791 18.8179" stroke="#2C3639" stroke-miterlimit="10" stroke-linecap="round" stroke-linejoin="round"/>
<path d="M92.4496 5.9494L89.3643 7.9292" stroke="#2C3639" stroke-miterlimit="10" stroke-linecap="round" stroke-linejoin="round"/>
<path d="M93.4787 4.95932L92.4502 5.94922" stroke="#2C3639" stroke-miterlimit="10" stroke-linecap="round" stroke-linejoin="round"/>
<path d="M77.0225 20.7983L78.0509 19.8084" stroke="#2C3639" stroke-miterlimit="10" stroke-linecap="round" stroke-linejoin="round"/>
<path d="M77.0225 8.91928L80.1078 9.90918" stroke="#2C3639" stroke-miterlimit="10" stroke-linecap="round" stroke-linejoin="round"/>
<path d="M91.4219 14.8587L94.5072 15.8486" stroke="#2C3639" stroke-miterlimit="10" stroke-linecap="round" stroke-linejoin="round"/>
<path d="M89.3636 3.96926L87.3066 6.93896" stroke="#2C3639" stroke-miterlimit="10" stroke-linecap="round" stroke-linejoin="round"/>
<path d="M82.1652 18.8185L81.1367 20.7983" stroke="#2C3639" stroke-miterlimit="10" stroke-linecap="round" stroke-linejoin="round"/>
<path d="M81.1367 3.96926L83.1936 6.93896" stroke="#2C3639" stroke-miterlimit="10" stroke-linecap="round" stroke-linejoin="round"/>
<path d="M87.3066 18.8185L88.3351 20.7983" stroke="#2C3639" stroke-miterlimit="10" stroke-linecap="round" stroke-linejoin="round"/>
<path d="M94.5072 8.91928L91.4219 9.90918" stroke="#2C3639" stroke-miterlimit="10" stroke-linecap="round" stroke-linejoin="round"/>
<path d="M80.1078 14.8587L77.0225 15.8486" stroke="#2C3639" stroke-miterlimit="10" stroke-linecap="round" stroke-linejoin="round"/>
<path d="M85.2498 5.94949C85.2498 12.5139 84.9251 12.8788 79.0791 12.8788C84.9251 12.8788 85.2498 13.2436 85.2498 19.8081C85.2498 13.2436 85.5746 12.8788 91.4206 12.8788C85.5746 12.8788 85.2498 12.5139 85.2498 5.94949Z" stroke="#2C3639" stroke-miterlimit="10" stroke-linecap="round" stroke-linejoin="round"/>
<path d="M199.41 12.8784H209.695" stroke="#2C3639" stroke-miterlimit="10" stroke-linecap="round" stroke-linejoin="round"/>
<path d="M213.808 12.8784H224.092" stroke="#2C3639" stroke-miterlimit="10" stroke-linecap="round" stroke-linejoin="round"/>
<path d="M211.751 1.00007V9.90918" stroke="#2C3639" stroke-miterlimit="10" stroke-linecap="round" stroke-linejoin="round"/>
<path d="M211.751 15.8479V23.7671" stroke="#2C3639" stroke-miterlimit="10" stroke-linecap="round" stroke-linejoin="round"/>
<path d="M205.579 5.9494L207.636 7.9292" stroke="#2C3639" stroke-miterlimit="10" stroke-linecap="round" stroke-linejoin="round"/>
<path d="M203.522 4.95932L204.551 5.94922" stroke="#2C3639" stroke-miterlimit="10" stroke-linecap="round" stroke-linejoin="round"/>
<path d="M217.921 18.8179L216.893 16.8381" stroke="#2C3639" stroke-miterlimit="10" stroke-linecap="round" stroke-linejoin="round"/>
<path d="M219.979 20.7983L218.95 19.8084" stroke="#2C3639" stroke-miterlimit="10" stroke-linecap="round" stroke-linejoin="round"/>
<path d="M207.636 16.8381L205.579 18.8179" stroke="#2C3639" stroke-miterlimit="10" stroke-linecap="round" stroke-linejoin="round"/>
<path d="M217.921 5.9494L216.893 7.9292" stroke="#2C3639" stroke-miterlimit="10" stroke-linecap="round" stroke-linejoin="round"/>
<path d="M219.979 4.95932L218.95 5.94922" stroke="#2C3639" stroke-miterlimit="10" stroke-linecap="round" stroke-linejoin="round"/>
<path d="M203.522 20.7983L204.551 19.8084" stroke="#2C3639" stroke-miterlimit="10" stroke-linecap="round" stroke-linejoin="round"/>
<path d="M203.522 8.91928L205.579 9.90918" stroke="#2C3639" stroke-miterlimit="10" stroke-linecap="round" stroke-linejoin="round"/>
<path d="M216.893 14.8587L219.978 15.8486" stroke="#2C3639" stroke-miterlimit="10" stroke-linecap="round" stroke-linejoin="round"/>
<path d="M215.863 3.96926L214.835 6.93896" stroke="#2C3639" stroke-miterlimit="10" stroke-linecap="round" stroke-linejoin="round"/>
<path d="M209.694 18.8185L207.637 20.7983" stroke="#2C3639" stroke-miterlimit="10" stroke-linecap="round" stroke-linejoin="round"/>
<path d="M208.665 3.96926L209.693 6.93896" stroke="#2C3639" stroke-miterlimit="10" stroke-linecap="round" stroke-linejoin="round"/>
<path d="M213.808 18.8185L215.865 20.7983" stroke="#2C3639" stroke-miterlimit="10" stroke-linecap="round" stroke-linejoin="round"/>
<path d="M219.978 8.91928L216.893 9.90918" stroke="#2C3639" stroke-miterlimit="10" stroke-linecap="round" stroke-linejoin="round"/>
<path d="M205.58 14.8587L202.494 15.8486" stroke="#2C3639" stroke-miterlimit="10" stroke-linecap="round" stroke-linejoin="round"/>
<path d="M211.75 5.94949C211.75 12.5139 211.425 12.8788 205.579 12.8788C211.425 12.8788 211.75 13.2436 211.75 19.8081C211.75 13.2436 212.075 12.8788 217.921 12.8788C212.075 12.8788 211.75 12.5139 211.75 5.94949Z" stroke="#2C3639" stroke-miterlimit="10" stroke-linecap="round" stroke-linejoin="round"/>
</svg>
