<svg width="88" height="85" viewBox="0 0 88 85" fill="none" xmlns="http://www.w3.org/2000/svg">
<path d="M20.111 7.93449C20.8848 9.25192 21.5419 10.634 22.0747 12.065C22.522 13.9079 23.2046 15.6862 24.1059 17.3564C24.8423 18.5784 24.1796 20.0143 23.8298 21.3097C23.5482 22.2959 23.0179 23.194 22.2895 23.9187C21.909 24.3098 21.952 24.5786 22.3263 24.9269C24.4594 26.7976 26.2802 28.9941 27.7204 31.4342C30.1198 26.9066 32.8567 22.88 37.6863 20.6375C37.4704 20.4251 37.279 20.1894 37.1156 19.9349C37.0256 19.8178 36.9665 19.6803 36.9434 19.5347C36.9204 19.3891 36.9341 19.2402 36.9835 19.1012C37.0328 18.9623 37.1162 18.8378 37.226 18.739C37.3359 18.6403 37.4688 18.5704 37.6126 18.5356C38.1035 18.3523 38.0913 18.1079 37.8888 17.6924C37.4642 17.0737 37.2083 16.3557 37.1462 15.6089C37.1462 14.9979 37.3119 14.5213 37.9133 14.3074C38.1906 14.2143 38.4907 14.2135 38.7685 14.3049C39.0463 14.3964 39.2867 14.5752 39.4536 14.8146C39.6708 15.0583 39.8343 15.3446 39.9336 15.655C40.033 15.9654 40.066 16.2931 40.0304 16.617C39.8341 17.9552 40.7484 18.3768 41.6321 18.9084C41.2209 17.9857 40.7116 17.1059 40.8589 16.0488C41.0062 14.9917 41.7548 14.5518 42.4728 15.0101C42.6642 15.0915 42.8179 15.2417 42.9032 15.4307C42.9884 15.6198 42.9991 15.8339 42.9331 16.0305C42.8863 16.1583 42.8574 16.292 42.8471 16.4276C42.8103 17.0386 43.516 18.0835 43.9579 18.114C44.3997 18.1446 45.2895 17.0203 45.1177 16.3971C44.8722 15.4928 45.1668 14.8818 46.0259 14.8573C46.885 14.8329 47.1121 15.615 47.1366 16.391C47.152 16.8355 47.0682 17.2779 46.8912 17.6863C46.7069 18.0935 46.5021 18.4912 46.2775 18.8778C47.5478 18.4196 47.8853 17.8696 47.9528 16.6904C47.9958 15.8166 48.1369 14.8879 49.039 14.4052C49.2197 14.2897 49.4288 14.2258 49.6434 14.2206C49.8581 14.2153 50.0701 14.2689 50.2563 14.3755C50.4424 14.482 50.5956 14.6375 50.6991 14.8248C50.8026 15.0121 50.8524 15.2242 50.8432 15.4378C50.9291 16.2871 50.4688 16.9348 50.1559 17.6436C50.0515 17.888 49.7508 18.1079 50.1559 18.4257C51.3832 19.4216 51.3832 19.4705 50.3154 20.6192C55.0836 22.8128 57.8757 26.8333 60.2505 31.367C60.9317 30.4077 61.5454 29.4912 62.202 28.6052C63.2225 27.3256 64.3517 26.1358 65.5772 25.0491C66.0313 24.6153 66.111 24.3342 65.6324 23.8271C64.2087 22.269 63.7484 20.3382 63.6686 18.2912C63.6151 17.949 63.6894 17.599 63.8773 17.3075C65.1046 15.7922 65.3869 13.9286 65.9269 12.1505C66.4462 10.7137 67.1081 9.33207 67.9029 8.02614C68.3693 8.37442 68.2281 8.7777 68.2343 9.12598C68.2711 10.8307 68.2711 12.5293 68.3018 14.2341C68.3018 14.5885 68.2281 15.0834 68.7682 15.1017C69.3082 15.1201 69.2162 14.6557 69.2837 14.338C69.6089 12.8287 69.3266 11.2829 69.5966 9.76143C70.0753 7.05462 70.7135 4.38449 71.4376 1.73267C71.5029 1.4684 71.587 1.20909 71.6892 0.956685C71.756 0.726426 71.8894 0.52081 72.0727 0.365452C72.256 0.210093 72.4812 0.111839 72.7201 0.0829158C72.9457 0.0815844 73.1664 0.148698 73.3528 0.275313C73.5392 0.401928 73.6824 0.582043 73.7634 0.791698C74.3491 1.79111 74.8678 2.82804 75.316 3.89568C76.4267 6.75524 77.3963 9.66978 77.1201 12.7982C76.7765 16.6354 75.9848 20.332 73.1252 23.1855C72.2864 24.0809 71.3033 24.8305 70.2164 25.4035C69.9164 25.5539 69.6578 25.775 69.4631 26.0476C69.2685 26.3202 69.1437 26.6361 69.0996 26.9677C68.4119 30.1904 66.5657 33.0521 63.908 35.0148C63.2029 35.4654 62.4713 35.8734 61.7172 36.2368C63.1825 37.3467 64.5424 38.5882 65.7796 39.9457C66.1478 40.3123 66.3012 40.3062 66.5835 39.8296C68.1499 37.0531 70.5486 34.8335 73.4443 33.4811C74.0345 33.2217 74.5236 32.7776 74.8373 32.2163C75.6202 30.7302 76.8292 29.5094 78.3106 28.7091C78.7678 28.4867 79.2528 28.3264 79.7527 28.2325C80.0534 28.1449 80.3756 28.1661 80.662 28.2925C80.9485 28.4189 81.1807 28.6423 81.3175 28.9229C81.606 29.534 81.2501 29.9678 80.8757 30.3833C79.6259 31.7822 78.1641 32.978 76.5433 33.9272C75.9336 34.2968 75.4766 34.871 75.2546 35.5464C74.0272 38.7237 71.9654 41.2349 68.7252 42.6158C67.9336 42.9519 67.1113 42.793 66.2706 42.8236C63.9101 42.9728 61.5422 42.6849 59.2871 41.9743C60.862 43.4592 62.2044 45.1707 63.2698 47.0518C63.34 47.168 63.4402 47.2634 63.56 47.3278C63.6798 47.3923 63.8148 47.4236 63.9509 47.4184C65.6019 47.5966 67.1899 48.1491 68.5931 49.0335C69.9962 49.918 71.1771 51.1108 72.0451 52.5204C72.2258 52.8765 72.5127 53.1681 72.8665 53.3552C73.2203 53.5423 73.6237 53.6157 74.0211 53.5653C75.3189 53.5541 76.6093 53.7606 77.8381 54.1763C78.0877 54.2722 78.3594 54.2961 78.6221 54.2454C78.8848 54.1946 79.1277 54.0711 79.3231 53.8891C80.9454 52.5313 82.7911 51.4626 84.7786 50.7302C85.2063 50.5071 85.6936 50.4237 86.1716 50.4917C86.6496 50.5597 87.094 50.7756 87.4419 51.109C88.3501 51.995 88.1414 53.107 86.8773 53.5531C85.7905 53.9534 84.6771 54.2781 83.5451 54.5246C81.8944 54.8912 80.4768 55.8566 78.8813 56.3576C76.7753 57.0071 74.4991 56.8255 72.5238 55.8505C72.2272 55.6825 71.8994 55.5765 71.5604 55.5389C67.3875 55.3372 64.448 53.0337 62.1038 49.8625C61.6652 49.1499 60.9798 48.6217 60.1769 48.3777C59.3849 48.1233 58.6083 47.8234 57.8511 47.4795C59.1383 49.4325 60.1695 51.5413 60.9195 53.7547C61.0726 54.1752 61.3825 54.5209 61.7847 54.7201C65.4667 57.0236 66.8658 60.5675 67.504 64.6125C67.7863 66.415 68.4 68.1625 68.3079 70.0261C68.2992 70.569 68.2479 71.1103 68.1545 71.6453C67.8505 72.8629 67.9364 74.1447 68.4 75.3114C69.0336 76.9357 69.2794 78.6844 69.118 80.4195C69.0443 81.5315 68.443 82.6008 67.7618 82.6008C66.6449 82.6008 66.3442 81.7148 66.1049 80.835C65.6629 79.086 65.565 77.2685 65.8165 75.4825C66.0023 74.5564 65.9214 73.5969 65.5833 72.7145C64.5896 70.5274 64.3732 68.0687 64.9696 65.7429C65.0563 65.4898 65.0496 65.2142 64.9506 64.9655C64.8517 64.7169 64.6669 64.5116 64.4296 64.3864C61.7111 62.3884 59.6246 59.9687 59.2748 56.4432C59.2394 56.0932 59.1179 55.7573 58.9209 55.4652C58.7239 55.1732 58.4577 54.934 58.1457 54.769C55.8261 53.3086 54.1876 51.1823 52.6227 48.8604C51.7544 51.3885 50.5601 53.7936 49.0697 56.0155C48.6414 56.7991 48.4678 57.6957 48.5726 58.5817C48.7296 62.5549 48.379 66.5319 47.5294 70.4171C47.2578 71.6433 46.846 72.8344 46.302 73.9671C46.0817 74.3862 45.7495 74.7366 45.3421 74.9799C44.9346 75.2232 44.4677 75.3499 43.9927 75.3461C43.5176 75.3423 43.0528 75.2082 42.6493 74.9584C42.2458 74.7087 41.9193 74.353 41.7057 73.9305C40.7412 71.6831 40.1107 69.3078 39.8341 66.8793C39.4819 64.0422 39.3444 61.1827 39.4229 58.3251C39.4642 57.302 39.1784 56.2922 38.6067 55.4411C37.2355 53.4152 36.1552 51.2085 35.3973 48.8849C34.6118 49.8686 33.9122 50.8585 33.1636 51.7994C32.2392 52.9343 31.1417 53.9178 29.9112 54.714C29.5875 54.891 29.3112 55.1425 29.1051 55.4476C28.8991 55.7527 28.7693 56.1024 28.7268 56.4676C28.4015 59.926 26.3397 62.2967 23.7193 64.2825C23.4382 64.4246 23.2177 64.6627 23.0983 64.9532C22.9789 65.2438 22.9684 65.5674 23.0688 65.865C23.6464 68.3016 23.367 70.8617 22.2772 73.1178C21.9213 73.8755 22.1115 74.6454 22.2036 75.4091C22.4781 77.3306 22.3528 79.2877 21.8354 81.1588C21.6145 81.892 21.2217 82.5764 20.4301 82.5947C19.5403 82.5947 19.2028 81.8248 19.0432 81.061C18.6906 79.2838 18.848 77.4436 19.4973 75.7513C20.0449 74.2921 20.1494 72.7049 19.798 71.187C19.5667 69.8733 19.619 68.5257 19.9514 67.2337C20.5221 64.8324 20.8167 62.3456 21.7249 60.0421C22.6167 57.8901 24.1476 56.0609 26.1126 54.7995C26.6816 54.4294 27.1011 53.8711 27.297 53.2231C28.0104 51.1882 28.9773 49.2504 30.1751 47.4551C29.1477 47.9092 28.0921 48.297 27.0147 48.616C26.8365 48.6806 26.6734 48.7804 26.5352 48.9096C26.397 49.0388 26.2867 49.1946 26.2108 49.3676C24.5147 52.1069 21.9096 54.1691 18.8469 55.1967C18.2443 55.4347 17.5984 55.545 16.9506 55.5205C16.505 55.4738 16.0552 55.5565 15.6558 55.7588C14.5141 56.3875 13.2385 56.7365 11.9345 56.7768C10.6305 56.8172 9.33559 56.5478 8.15689 55.991C6.04048 55.1231 3.87215 54.3865 1.66435 53.7852C0.302021 53.3636 -0.176632 52.7037 0.0565594 51.8239C0.332707 50.8401 1.71342 50.2047 2.87324 50.6018C4.75987 51.215 6.51747 52.1676 8.05869 53.4125C8.85644 54.103 9.59284 54.4329 10.7036 54.0235C11.8304 53.6174 13.0312 53.4549 14.226 53.5469C14.542 53.5943 14.8649 53.5399 15.1475 53.3915C15.4302 53.243 15.6578 53.0085 15.797 52.7221C16.5707 51.3985 17.6208 50.2558 18.8765 49.3713C20.1321 48.4869 21.5639 47.8813 23.075 47.5956C23.6072 47.5096 24.1098 47.2939 24.5381 46.9676C24.9663 46.6414 25.307 46.2149 25.5296 45.7259C26.4947 44.2828 27.6483 42.974 28.96 41.8337C26.4378 42.7258 24.1121 42.6831 21.7863 42.8664C18.5093 43.123 16.7174 41.1922 14.8458 39.2003C13.8027 38.0216 13.0299 36.6309 12.5814 35.1248C12.4389 34.7069 12.1459 34.3564 11.7591 34.141C10.0865 33.1386 8.56571 31.9042 7.24254 30.4749C6.82525 30.0106 6.3527 29.534 6.70862 28.8618C7.11364 28.0981 7.85004 28.0614 8.59257 28.2508C10.144 28.6292 11.4814 29.6049 12.3114 30.9637C13.207 32.3873 14.4816 33.5358 15.9933 34.2816C18.235 35.5478 20.0791 37.4094 21.3199 39.6585C21.7372 40.3795 21.9336 40.184 22.3815 39.7441C23.5816 38.4197 24.9117 37.2181 26.3519 36.1574C23.7193 35.1859 21.9643 33.3467 20.5774 31.1165C19.7567 29.7826 19.1753 28.3167 18.8591 26.7844C18.8038 26.4883 18.6817 26.2085 18.502 25.9661C18.3224 25.7238 18.0899 25.5251 17.8221 25.3851C14.1033 23.2038 12.1027 19.9288 11.2436 15.7128C10.139 10.2625 11.667 5.44765 14.183 0.773368C14.4101 0.357877 14.7414 -0.0698356 15.2999 0.00959668C15.5817 0.0587932 15.8402 0.197093 16.037 0.403995C16.2337 0.610896 16.3583 0.875396 16.3922 1.15831C17.417 4.89163 18.5646 8.59439 18.583 12.5171C18.5562 13.1657 18.616 13.815 18.7609 14.4479C18.8407 14.7412 18.8775 15.1078 19.2887 15.059C19.6998 15.0101 19.706 14.6618 19.7121 14.3502C19.7121 12.6149 19.7489 10.8796 19.7796 9.14431C19.7433 8.93079 19.7541 8.71196 19.8114 8.50303C19.8686 8.2941 19.9708 8.10008 20.111 7.93449ZM44.007 33.6644H39.0977C38.5298 33.621 37.9671 33.7976 37.5269 34.1574C37.0867 34.5171 36.803 35.0322 36.7351 35.5952C36.5566 36.3931 36.625 37.226 36.9314 37.9843C37.038 38.2332 37.0836 38.5037 37.0644 38.7736C37.0452 39.0435 36.9617 39.3049 36.821 39.5363C36.5696 39.9769 36.415 40.4656 36.3674 40.9702C36.3198 41.4747 36.3803 41.9836 36.5449 42.4631C37.0133 43.7775 37.2217 45.1697 37.1585 46.563C37.1428 46.9744 37.1861 47.3859 37.2874 47.785C37.8381 50.1232 38.8225 52.3385 40.19 54.3168C40.9436 55.4139 41.3536 56.7088 41.3682 58.0379C41.448 60.9219 41.3068 63.8059 41.7794 66.6838C42.0232 68.6691 42.4989 70.6192 43.1969 72.4946C43.3442 72.849 43.4424 73.3317 43.9579 73.35C44.4733 73.3683 44.6513 72.8429 44.7986 72.4579C45.1083 71.7048 45.3647 70.931 45.5656 70.1422C46.3924 66.566 46.739 62.8964 46.5966 59.2294C46.5231 57.2573 47.0796 55.3127 48.186 53.6753C49.7447 51.2312 51.107 48.6588 50.9045 45.6037C50.891 44.5842 51.083 43.5724 51.4691 42.6281C51.7966 41.6586 51.7328 40.6003 51.2911 39.6769C51.1342 39.4004 51.0392 39.0935 51.0127 38.7771C50.9863 38.4606 51.0289 38.1423 51.1377 37.8438C51.395 37.2121 51.4682 36.521 51.3488 35.8498C51.2294 35.1786 50.9223 34.5546 50.4627 34.0494C50.3538 33.9059 50.2096 33.7929 50.0441 33.7212C49.8785 33.6495 49.6972 33.6215 49.5176 33.64C47.6889 33.6767 45.8479 33.6644 44.007 33.6644ZM48.1185 31.5136C48.1185 31.587 48.1185 31.6664 48.1185 31.7458C48.8303 31.697 49.5422 31.6603 50.254 31.6053C50.8309 31.5564 51.0886 31.312 51.1929 30.6643C51.3246 29.5896 51.2199 28.4992 50.8861 27.4687C50.3952 25.6357 49.9534 23.7293 48.2044 22.5806C45.7498 20.9919 43.1662 20.9919 40.552 22.1223C39.9465 22.404 39.4044 22.8047 38.9583 23.3003C38.5122 23.7959 38.1714 24.3762 37.9563 25.0063C37.3883 26.3479 37.0163 27.7635 36.8517 29.2101C36.6369 31.2692 36.9131 31.6542 38.9627 31.697C40.4293 31.7458 41.8837 31.5259 43.3442 31.5014C44.909 31.4892 46.4984 31.5136 48.0878 31.5136H48.1185ZM73.0454 3.78568C72.9411 3.84678 72.892 3.85902 72.8858 3.87735C71.9849 7.38505 71.2842 10.9408 70.7871 14.5274C70.7362 14.6924 70.7322 14.8683 70.7755 15.0354C70.8188 15.2026 70.9078 15.3545 71.0326 15.4744C71.8794 16.1527 72.7447 16.8065 73.5731 17.5091C74.0641 17.9246 74.1868 17.7963 74.3525 17.2281C75.1932 14.0324 75.5798 10.8368 74.5305 7.61677C74.0763 6.3153 73.8063 4.94661 73.0147 3.78568H73.0454ZM15.1526 3.78568C15.0176 3.85289 14.9746 3.86511 14.9624 3.88344C13.8498 5.95078 13.1676 8.22041 12.9567 10.5564C12.7458 12.8925 13.0106 15.2468 13.735 17.4786C13.8394 17.8208 14.0173 17.888 14.3487 17.6313C15.2385 16.8981 16.1529 16.1893 17.0427 15.4622C17.1643 15.3392 17.2494 15.185 17.2884 15.0167C17.3274 14.8485 17.3188 14.6727 17.2636 14.509C16.7395 10.8935 16.0247 7.30801 15.1219 3.76735L15.1526 3.78568ZM65.7121 19.0245C65.7121 21.1141 66.9395 22.4706 68.3816 23.7415C68.4954 23.8481 68.6457 23.9074 68.8019 23.9074C68.9582 23.9074 69.1085 23.8481 69.2223 23.7415C70.7374 22.8859 72.0185 21.6732 72.9533 20.2098C73.1068 19.9654 73.2295 19.7943 72.9043 19.5377C72.0513 18.8656 71.2474 18.1324 70.4496 17.4236C70.1994 17.1461 69.8533 16.9725 69.4804 16.9374C69.1074 16.9023 68.7349 17.0082 68.4368 17.2342C67.7525 17.6119 67.0431 17.9426 66.3135 18.224C65.9146 18.3768 65.5771 18.5479 65.6815 19.0061L65.7121 19.0245ZM22.2956 19.4033C22.4552 18.6395 22.1729 18.4257 21.8047 18.2546C20.9701 17.8758 20.1233 17.5152 19.3132 17.0998C19.1157 16.9715 18.8819 16.91 18.6465 16.9243C18.4111 16.9386 18.1866 17.028 18.0061 17.1792C16.9691 17.9002 16.0915 18.7984 15.1096 19.5744C14.8396 19.7943 14.9256 19.9532 15.0667 20.1854C16.0178 21.7243 17.357 22.9882 18.9512 23.8515C19.0697 23.9199 19.2078 23.9468 19.3435 23.928C19.4791 23.9091 19.6046 23.8457 19.6999 23.7476C21.056 22.4462 22.2956 21.108 22.265 19.385L22.2956 19.4033ZM63.7116 40.8744C63.6318 40.6728 63.6257 40.5628 63.5643 40.5017C60.6617 37.6544 57.2682 35.4547 53.8992 33.2245C53.7017 33.102 53.4967 32.9918 53.2855 32.8946C53.0032 32.7662 52.8498 32.974 52.6718 33.1328C52.4939 33.2917 52.5123 33.4384 52.6105 33.6644C53.1505 34.8865 53.6414 36.1574 54.7951 37.0128C56.5118 38.4094 58.4484 39.5139 60.5267 40.2818C61.5428 40.6723 62.6224 40.8732 63.7116 40.8744V40.8744ZM24.2655 40.7156C24.3931 40.8197 24.5468 40.8872 24.71 40.9109C24.8733 40.9345 25.04 40.9135 25.1921 40.85C26.3368 40.6816 27.4522 40.3546 28.5059 39.8785C31.163 38.4793 34.0288 37.3183 35.1395 34.1227C35.2561 33.7928 35.7532 33.5117 35.2746 33.0656C34.7959 32.6196 34.4216 33.0168 34.1086 33.2245C32.1081 34.5687 30.1321 35.9496 28.1438 37.3244C26.764 38.3477 25.4672 39.4775 24.2655 40.7034V40.7156ZM58.8453 33.4261C57.9923 30.371 53.6599 24.5969 51.6961 23.9126C52.3595 25.158 52.7761 26.5188 52.9235 27.9209C52.9787 29.5401 53.9176 30.3649 55.0467 31.1348C56.2342 32.0176 57.5066 32.7811 58.8453 33.4139V33.4261ZM29.0091 33.4872C30.3815 32.8355 31.6866 32.0517 32.9058 31.147C34.0349 30.371 35.1396 29.5645 34.9984 27.9331C34.9677 27.6154 35.1887 27.2854 35.2378 26.9493C35.4096 25.8923 35.968 24.9452 36.2626 23.6865C33.0637 26.2969 30.5704 29.6616 29.0091 33.475V33.4872ZM20.8781 26.32C21.6145 29.8272 23.388 32.5646 26.7201 34.1288C25.4337 31.0914 23.4295 28.4084 20.8781 26.3078V26.32ZM67.099 26.32C64.5437 28.4177 62.5441 31.1073 61.2754 34.1532C64.5707 32.5463 66.3749 29.8334 67.099 26.32V26.32ZM27.5915 46.3125C27.7993 46.2867 28.0045 46.2437 28.2052 46.1842C30.4169 45.183 32.3582 43.6731 33.8693 41.7788C34.0481 41.5747 34.1856 41.3382 34.2743 41.0822C34.3541 40.8072 34.6671 40.4712 34.397 40.2329C34.127 39.9946 33.8509 40.3734 33.63 40.5201C33.0163 40.9417 32.4395 41.4244 31.8565 41.8887C30.2015 43.1212 28.7607 44.6157 27.5915 46.3125ZM53.5862 39.9824C53.6905 42.1393 57.9677 45.9642 60.3365 46.2025C58.5998 43.6424 56.182 41.8521 53.5862 39.9824V39.9824ZM29.7332 52.4838C32.0575 50.4685 33.8345 47.9027 34.9002 45.0233C32.8506 47.1985 30.9114 49.4287 29.7332 52.4838ZM58.2807 52.5143C57.0521 49.6808 55.2684 47.1196 53.0339 44.9805C54.1342 47.8831 55.9363 50.4707 58.2807 52.5143V52.5143ZM17.6195 53.4431C19.933 52.997 23.0198 50.8585 23.5046 49.447C21.099 50.0397 19.2703 51.4145 17.6195 53.4431ZM70.1735 53.382C68.7615 51.348 66.628 49.9224 64.2025 49.392C65.8165 51.5734 67.9029 52.6121 70.1673 53.382H70.1735ZM26.7692 56.8098C24.8669 58.3312 23.5659 59.9137 23.0872 62.3089C24.903 60.9436 26.1991 59.0046 26.7631 56.8098H26.7692ZM61.3858 57.0542C61.8522 59.1683 63.0795 60.7997 64.8776 62.2845C64.448 59.9076 63.1164 58.3557 61.3797 57.0542H61.3858ZM15.2692 36.2002C16.0179 37.9171 18.2516 40.1351 19.4973 40.4773C18.5063 38.6921 17.0415 37.2125 15.2631 36.2002H15.2692ZM72.6404 36.3101C70.8795 37.3032 69.4516 38.7909 68.535 40.5873C70.2886 39.587 71.7128 38.1011 72.6343 36.3101H72.6404Z" fill="#2C3639"/>
<path d="M58.4897 67.9425C59.3365 65.529 58.8763 63.3476 57.9804 61.2213C57.6691 60.7914 57.3288 60.3831 56.9617 59.9993C56.4939 59.5769 55.9863 59.2004 55.446 58.875C55.4226 59.078 55.4226 59.283 55.446 59.486C55.5564 61.148 55.6914 62.8039 55.8448 64.7897C55.4337 64.1786 55.1821 63.8548 54.9427 63.4882C54.2907 62.54 53.5466 61.658 52.7213 60.8547C52.417 62.2314 52.417 63.6574 52.7213 65.0341C52.9702 65.9228 53.3596 66.7664 53.875 67.5331C54.2438 67.8921 54.6443 68.2172 55.0716 68.5046C55.6178 68.8651 55.6853 69.0668 55.36 69.5922C54.5561 70.967 54.01 72.4213 54.3536 74.0649C54.4764 74.6759 53.9977 74.8164 53.5927 74.9875C52.2788 75.5053 51.1401 76.3849 50.3096 77.5233C49.7389 78.3359 49.518 78.1343 49.1191 77.4072C48.5227 76.3315 47.7346 75.3728 46.7933 74.5782C45.7624 73.7105 45.3205 73.7166 44.2282 74.5782C44.1406 74.6579 44.0281 74.7051 43.9095 74.7118C43.791 74.7185 43.6738 74.6842 43.5777 74.6148C42.6634 74.0527 42.2952 74.236 42.2891 75.3358C42.2891 78.1526 43.7925 80.0529 46.0876 81.446C46.5415 81.7248 47.0488 81.9063 47.5771 81.9789C48.1054 82.0515 48.6432 82.0136 49.1559 81.8676C49.3838 81.8057 49.6194 81.7769 49.8555 81.7821C51.3031 81.8919 52.7382 81.447 53.8674 80.5385C54.9966 79.6299 55.7347 78.3262 55.9307 76.8939C55.9803 76.4173 56.1977 75.9736 56.5444 75.6413C58.4406 73.9121 58.8702 71.7186 58.4958 69.299C58.376 68.8549 58.3739 68.3876 58.4897 67.9425V67.9425ZM47.6893 80.2117C46.8522 79.8775 46.0933 79.3751 45.4598 78.7359C44.8263 78.0968 44.3319 77.3345 44.0073 76.4967C44.621 76.8328 44.8664 77.5844 45.3574 77.2483C45.971 76.8084 45.0935 76.3257 45.2285 75.6658C46.643 76.6736 47.7308 78.071 48.3582 79.6862C48.6221 80.2912 48.2109 80.4073 47.6893 80.2117ZM53.6602 76.7167C53.4086 76.9672 52.9238 77.1261 53.0465 77.566C53.1999 78.1404 53.7216 77.7127 54.145 77.7432C53.9108 78.2487 53.5705 78.6984 53.147 79.062C52.7236 79.4257 52.227 79.6948 51.6904 79.8512C51.6904 79.7657 51.6904 79.7229 51.6904 79.7046C52.0524 79.338 52.8808 79.0936 52.6415 78.5498C52.3347 77.8532 51.721 78.7025 51.0399 78.5498C51.8614 77.4448 52.9745 76.5882 54.2555 76.0751C54.1634 76.4723 53.8566 76.5273 53.6786 76.7167H53.6602Z" fill="#2C3639"/>
<path d="M48.9164 41.4863C48.4451 41.2097 47.9308 41.0135 47.3945 40.9058C44.7899 40.3134 42.0874 40.2884 39.4722 40.8325C40.2437 40.4964 41.0568 40.2642 41.89 40.142C42.0287 40.1239 42.1578 40.0618 42.2582 39.9648C39.7483 39.9648 37.2384 40.2215 35.4404 42.2134C35.3589 42.3098 35.246 42.3747 35.1213 42.3967C35.1448 42.4676 35.1898 42.5295 35.2502 42.5739C36.1216 43.246 35.4772 43.7959 35.1581 44.2786C34.164 45.7512 33.1269 47.2054 32.0346 48.6107C31.7707 49.4051 31.47 50.1872 31.1448 50.9632C32.5501 49.3623 33.7651 47.6209 35.0047 45.8917C35.057 45.8112 35.1041 45.7275 35.1459 45.6412C35.1459 45.6412 35.1459 45.6412 35.1459 45.6106C35.1966 45.506 35.2651 45.4109 35.3484 45.3296C36.2382 44.187 37.6373 43.7226 39.0733 43.5393C40.0339 43.1494 41.0687 42.9742 42.1048 43.026C41.9731 42.9257 41.8157 42.8643 41.6506 42.8488C41.0799 42.7755 40.497 42.7633 39.9202 42.7205C41.8242 42.0178 43.866 41.7647 45.8849 41.9812C46.7993 42.1095 47.7259 42.195 48.6341 42.2989C48.8734 42.2989 49.1557 42.3539 49.2478 42.0667C49.3398 41.7796 49.1251 41.6268 48.9164 41.4863Z" fill="#2C3639"/>
<path d="M46.1793 35.5655C43.6245 34.8888 40.9314 34.9289 38.3981 35.6816C37.2412 36.1209 36.2327 36.8771 35.4893 37.863C35.2807 38.0952 35.0536 38.4129 35.207 38.6878C35.6059 39.4088 35.1027 39.7327 34.6916 40.136C33.1736 41.6207 31.5312 42.974 29.7823 44.1809C29.4613 44.6524 29.1995 45.1613 29.0029 45.6962C30.2804 44.9754 31.4758 44.119 32.5683 43.1421C33.139 42.6045 33.7159 42.0851 34.3111 41.5963C34.3316 41.5294 34.3649 41.4671 34.4093 41.413C36.1644 39.2072 38.6742 38.2418 41.3989 38.0401C41.3621 37.6796 41 37.6797 40.7177 37.6491C39.5702 37.5391 38.5024 37.9424 37.4039 38.1501C40.0062 36.6033 43.0614 35.9889 46.0627 36.4087C46.4186 36.4515 46.9157 36.6959 47.0016 36.1766C47.0875 35.6572 46.5352 35.6511 46.1793 35.5655Z" fill="#2C3639"/>
<path d="M15.1649 5.93031C14.1596 9.59534 14.3313 13.4817 15.6559 17.0447C15.8031 17.4419 16.3309 18.0651 15.7909 18.2668C15.2509 18.4684 15.0545 17.723 14.8704 17.2952C12.9496 12.6821 13.324 8.06277 14.9072 3.4557C15.03 3.0952 15.165 2.51473 15.6375 2.61249C16.11 2.71026 16.1591 3.27239 16.1468 3.71232C16.0411 7.86239 16.4972 12.0077 17.503 16.0365C17.5344 16.1708 17.5509 16.3081 17.5521 16.4459C17.5521 16.7087 17.6012 17.0569 17.2453 17.1058C16.8893 17.1547 16.8464 16.8859 16.7666 16.6659C16.6255 16.281 16.5027 15.8899 16.3984 15.4988C15.5181 12.3868 15.1025 9.1628 15.1649 5.93031Z" fill="#2C3639"/>
<path d="M43.6632 45.5301C43.364 45.4674 43.0603 45.4286 42.7549 45.414C41.5675 45.4082 40.3821 45.5126 39.2141 45.7256C39.3101 45.6333 39.4173 45.5532 39.5332 45.4873C39.7541 45.3468 40.1469 45.2857 40.196 45.0352C39.5158 45.124 38.8485 45.2922 38.2077 45.5362C37.594 45.7378 36.8576 45.8784 36.4465 46.4038C36.356 46.527 36.2225 46.612 36.0722 46.6421C36.0691 46.6624 36.0691 46.683 36.0722 46.7032C36.201 47.1859 36.649 46.8743 37.0049 46.911C36.6061 47.3448 36.2624 47.6747 35.9617 48.0475C35.5628 48.5485 35.8819 49.019 36.1028 49.465C36.122 49.5248 36.1548 49.5794 36.1985 49.6246C36.2423 49.6698 36.2959 49.7044 36.3552 49.7256C36.4145 49.7469 36.478 49.7543 36.5406 49.7472C36.6033 49.7402 36.6634 49.7189 36.7165 49.685C38.0808 48.9895 39.5226 48.4563 41.0121 48.0964C41.0971 48.0805 41.1744 48.0371 41.2321 47.9731C41.2898 47.909 41.3246 47.8278 41.3312 47.742C41.3312 47.467 41.0919 47.412 40.9017 47.3998C40.4292 47.3998 39.9566 47.3998 39.4412 47.3998C39.8285 47.1656 40.2658 47.0254 40.7176 46.9904C41.681 46.7888 42.6629 46.6421 43.6325 46.4588C43.8902 46.41 44.2032 46.3244 44.1725 45.9639C44.1418 45.6034 43.8902 45.579 43.6632 45.5301Z" fill="#2C3639"/>
<path d="M40.2638 57.5604H40.3006C42.4616 56.5498 44.8481 56.1121 47.2289 56.2895L46.9405 56.1673C45.2314 55.4066 43.3061 55.2767 41.5095 55.8007C42.8719 54.9025 44.3938 54.9086 45.934 54.9575C46.2286 54.9575 46.6091 55.0431 46.7748 54.7681C45.5474 54.2365 44.4244 53.6499 43.0928 53.6133C43.0663 53.6161 43.0395 53.6161 43.013 53.6133C42.6759 53.6666 42.3435 53.7463 42.0189 53.8516C41.195 54.0925 40.4553 54.5582 39.8834 55.1958C39.3986 55.7335 39.8833 56.1368 39.9754 56.6195C40.0367 57.1755 40.0797 57.4749 40.2638 57.5604Z" fill="#2C3639"/>
<path d="M73.788 7.21889C73.625 10.3016 73.1396 13.3589 72.3398 16.3414C72.26 16.6102 72.217 17.0502 71.8243 16.9524C71.4316 16.8546 71.5236 16.4941 71.585 16.1886C72.4368 12.0575 72.8013 7.84143 72.6712 3.62611C72.6712 3.31449 72.5668 2.83789 73.0639 2.83789C73.5609 2.83789 73.5548 3.2656 73.5794 3.60166C73.6653 4.78704 73.7144 5.94187 73.788 7.21889Z" fill="#2C3639"/>
<path d="M75.3405 5.7893C75.2546 8.94826 75.2608 12.1072 74.6348 15.2234C74.5232 15.8229 74.3736 16.4147 74.1869 16.9954C74.058 17.3742 74.0273 18.0585 73.4812 17.9241C72.935 17.7897 73.2602 17.197 73.3339 16.8426C73.6425 15.4151 73.8476 13.9673 73.9475 12.5105C74.0457 10.6774 74.1807 8.84438 74.3096 7.01133C74.3464 6.53474 74.3771 6.06427 74.4569 5.59379C74.5182 5.24551 74.5305 4.72003 75.0705 4.8239C75.6106 4.92777 75.359 5.43491 75.3405 5.7893Z" fill="#2C3639"/>
<path d="M43.0248 50.3326C41.4504 50.4373 39.9349 50.9698 38.6433 51.8724C37.821 52.4528 37.9253 53.015 38.3303 53.736C38.3722 53.8138 38.4215 53.8875 38.4776 53.9559C39.3429 52.6361 40.9322 52.3673 42.3928 52.1657C41.9554 52.1528 41.5201 52.1017 41.0918 52.0129C41.9264 51.7502 42.5707 51.5607 43.2089 51.3408C43.5096 51.243 43.9944 51.2369 43.9331 50.7848C43.8717 50.3326 43.393 50.3082 43.0248 50.3326Z" fill="#2C3639"/>
<path d="M44.5533 30.0601C44.5076 29.4862 44.5764 28.9089 44.7558 28.3615C44.8724 28.1049 44.989 27.8299 45.3081 27.836C45.6272 27.8421 45.6641 28.1782 45.707 28.4471C46.0261 30.3351 47.0202 31.5449 49.0208 31.771C49.254 31.771 49.524 31.8504 49.5547 32.1437C49.5853 32.437 49.3276 32.6142 49.076 32.7242C48.9255 32.8043 48.7553 32.8404 48.5851 32.828C47.0509 32.4614 45.4309 32.3331 44.1667 31.2333C43.8064 30.9033 43.5451 30.4803 43.4119 30.0113C43.3138 29.718 43.2401 29.4002 43.5899 29.2047C43.9397 29.0092 44.0501 29.3819 44.2036 29.5774C44.357 29.773 44.4429 29.9074 44.5533 30.0601Z" fill="#2C3639"/>
<path d="M41.6077 26.8205C41.5693 27.7233 41.7613 28.6211 42.1659 29.4299C42.5705 30.2388 43.1744 30.9324 43.9211 31.4459C44.0332 31.5264 44.1398 31.6142 44.2403 31.7086C44.4734 31.9286 44.8539 32.1302 44.6023 32.5274C44.3507 32.9245 43.9886 32.7473 43.6573 32.619C41.8776 31.8858 40.589 30.6882 40.2944 28.7085C40.1389 27.8313 40.2107 26.9291 40.503 26.0872C40.6319 25.739 40.7853 25.299 41.2394 25.3662C41.6935 25.4335 41.577 25.9345 41.6015 26.2828C41.6138 26.3805 41.6077 26.4844 41.6077 26.8205Z" fill="#2C3639"/>
<path d="M36.913 23.8154C36.8483 23.9842 36.7746 24.1494 36.6921 24.3103C34.8809 27.7573 32.3738 30.7944 29.3282 33.2312C29.0866 33.416 28.8201 33.5662 28.5365 33.6772C28.4894 33.6987 28.4385 33.7106 28.3867 33.7124C28.335 33.7142 28.2834 33.7057 28.2349 33.6875C28.1864 33.6694 28.142 33.6418 28.1042 33.6065C28.0665 33.5712 28.0361 33.5287 28.0149 33.4817C27.9106 33.2556 28.0149 33.1028 28.2297 32.9806C31.5557 30.7749 33.857 27.6831 35.8146 24.2981C35.9715 24.0342 36.1544 23.7865 36.3607 23.5588C36.4079 23.5146 36.4642 23.4814 36.5257 23.4613C36.5872 23.4413 36.6524 23.4349 36.7166 23.4427C36.8823 23.4549 36.9253 23.5954 36.913 23.8154Z" fill="#2C3639"/>
<path d="M42.2334 62.6994C43.5834 62.6994 44.9151 62.1678 46.2406 62.1923C45.801 61.8073 45.2714 61.5384 44.7003 61.4102C44.6653 61.3988 44.6322 61.3824 44.6021 61.3613L43.1907 61.1719C42.4686 61.2076 41.7583 61.3689 41.092 61.6485C40.6992 61.844 40.2144 62.0762 40.3924 62.62C40.5704 63.1638 41.0061 63.0172 41.4479 62.9316C41.5707 62.9011 41.6995 62.8888 41.8222 62.8644C41.9339 62.7603 42.0805 62.7015 42.2334 62.6994V62.6994Z" fill="#2C3639"/>
<path d="M45.0869 21.0889C45.4796 20.814 45.768 20.038 46.3142 20.4352C46.8604 20.8323 46.2344 21.3517 45.9828 21.7427C44.8796 23.3815 44.2182 25.2752 44.0621 27.2419C44.0621 27.5657 44.0621 28.0057 43.5957 27.9996C43.1293 27.9934 43.0557 27.5779 43.0127 27.2541C42.8331 25.6559 43.1752 24.0426 43.9884 22.6531C44.1848 22.2988 44.3811 21.9444 44.6021 21.59C44.7371 21.4433 44.9151 21.2661 45.0869 21.0889Z" fill="#2C3639"/>
<path d="M42.5402 65.9697C43.7185 65.4809 45.0747 65.5603 46.2774 65.151C45.1785 64.7411 44.0245 64.496 42.8532 64.4238C42.3054 64.4227 41.7615 64.5157 41.2454 64.6988C40.8159 64.8515 40.3679 65.0776 40.5336 65.6398C40.6993 66.2019 41.1472 66.1591 41.5522 66.0797C41.8789 66.0219 42.2089 65.9852 42.5402 65.9697V65.9697Z" fill="#2C3639"/>
<path d="M27.9351 34.7642C27.886 34.8741 27.8738 34.9964 27.8062 35.0391C27.6868 35.1088 27.5458 35.1324 27.41 35.1054C27.2742 35.0783 27.1532 35.0026 27.0699 34.8925C26.3028 34.1654 25.5112 33.4627 24.8177 32.6684C23.2769 30.9428 21.9197 29.0631 20.7676 27.0592C20.6019 26.7537 20.2276 26.3321 20.6633 26.0816C21.099 25.8311 21.2769 26.3749 21.4364 26.6926C23.0994 29.4494 25.117 31.9781 27.4381 34.2142C27.616 34.3792 27.7633 34.5625 27.9351 34.7642Z" fill="#2C3639"/>
<path d="M52.1381 25.5996C52.4756 25.6485 52.6106 25.8929 52.7517 26.1129C54.5334 28.779 56.8871 31.0183 59.6431 32.6691C59.8825 32.8035 60.3182 32.9502 60.0911 33.3229C59.8641 33.6956 59.5388 33.4573 59.2688 33.3229C56.1514 31.7159 53.8809 29.2168 51.9601 26.3695C51.7944 26.0823 51.5981 25.7279 52.1381 25.5996Z" fill="#2C3639"/>
<path d="M46.8851 59.1431L46.6887 59.0575C45.5392 58.6332 44.3342 58.376 43.111 58.2938C42.428 58.2406 41.7416 58.3343 41.0982 58.5687L40.9939 58.5993L40.8712 58.6543C40.8215 58.6734 40.7702 58.6877 40.7178 58.6971C40.3803 58.8193 40.1041 59.0148 40.1961 59.4608C40.3373 60.0046 40.9264 59.8519 41.3437 59.7602C41.9239 59.6498 42.5145 59.6027 43.1049 59.6197C44.3343 59.2752 45.6082 59.1146 46.8851 59.1431V59.1431Z" fill="#2C3639"/>
<path d="M23.9832 40.8752C23.842 40.8777 23.7055 40.8251 23.6028 40.7285C23.5654 40.7677 23.5394 40.8162 23.5276 40.8689C23.5157 40.9217 23.5184 40.9766 23.5353 41.0279C23.6089 41.3151 23.8973 41.2723 24.1489 41.2723C24.2164 41.2723 24.2901 41.2723 24.3514 41.2723C24.8173 41.1728 25.2764 41.0442 25.726 40.8874L23.9832 40.8752Z" fill="#2C3639"/>
<path d="M31.9607 37.2077C31.8441 37.0427 31.6539 37.0794 31.4943 37.1466C31.212 37.2688 30.9359 37.4032 30.6597 37.5377C29.3035 38.1487 28.0148 38.943 26.6648 39.5723C27.5427 39.5421 28.4149 39.4192 29.2667 39.2057C30.1136 38.723 30.9481 38.2159 31.795 37.7271C31.8434 37.7075 31.8868 37.6775 31.9223 37.6393C31.9578 37.6011 31.9844 37.5556 32.0002 37.5061C32.016 37.4565 32.0206 37.4041 32.0138 37.3525C32.007 37.301 31.9889 37.2515 31.9607 37.2077V37.2077Z" fill="#2C3639"/>
<path d="M43.0067 49.3365C42.933 49.6359 42.6692 49.7276 42.393 49.807C40.9335 50.2603 39.5232 50.858 38.1833 51.5912C37.9256 51.7317 37.6249 51.9334 37.361 51.5912C37.0971 51.249 37.2874 50.9313 37.5267 50.693C38.1711 50.0382 38.9553 49.5362 39.821 49.2242C40.6868 48.9121 41.612 48.7981 42.528 48.8905C42.9146 48.9332 43.0312 49.0921 43.0067 49.3365Z" fill="#2C3639"/>
<path d="M51.5119 39.586C50.9323 39.4785 50.3706 39.2914 49.8427 39.0299C48.9029 38.7356 47.9403 38.5189 46.9647 38.3823C46.7253 38.3273 46.4492 38.315 46.4369 38.0095C46.4247 37.704 46.6885 37.6246 46.9217 37.6002C48.6891 37.3741 50.3951 37.4841 51.9231 38.5106C52.1747 38.6755 52.4385 38.8833 52.3587 39.2499C52.3096 39.4943 52.0396 39.5982 51.5119 39.586Z" fill="#2C3639"/>
<path d="M67.7741 24.3211C67.3813 24.3211 67.1604 24.1255 67.3261 23.7956C67.4511 23.4459 67.6621 23.1329 67.9398 22.8852C68.9523 22.0843 69.8057 21.102 70.4558 19.989C70.6767 19.6651 70.9344 19.1946 71.4131 19.4696C71.8917 19.7445 71.5726 20.1967 71.4131 20.545C70.7144 21.9887 69.6321 23.2143 68.2834 24.0889C68.1199 24.1792 67.9496 24.2569 67.7741 24.3211Z" fill="#2C3639"/>
<path d="M64.2088 41.0461C62.1224 40.5878 59.9684 40.0624 58.0722 38.8342C57.8083 38.6631 57.3788 38.4493 57.6365 38.0521C57.8943 37.655 58.195 37.991 58.4466 38.1438C60.1403 39.1642 62.0733 39.5247 63.9695 40.0624C64.1383 40.0921 64.3045 40.135 64.4666 40.1907C64.7427 40.3251 65.2643 40.264 65.1416 40.765C65.0189 41.1439 64.5954 40.985 64.2088 41.0461Z" fill="#2C3639"/>
<path d="M42.9576 21.5594C42.1322 22.2101 41.3454 22.9078 40.6011 23.6491C40.1409 24.0585 39.6868 25.0911 39.0363 24.4984C38.5822 24.0768 39.4965 23.4413 39.877 22.977C40.5037 22.0398 41.2837 21.2137 42.1844 20.5329C42.6998 20.2152 43.3258 19.8608 43.6326 20.8201L42.9576 21.5594Z" fill="#2C3639"/>
<path d="M21.0378 23.2217C19.97 23.2217 17.5583 21.0831 17.411 20.1238C17.3767 20.0131 17.3784 19.8944 17.4159 19.7847C17.4534 19.6749 17.5247 19.5798 17.6197 19.5128C17.7183 19.4532 17.8356 19.432 17.9489 19.4535C18.0622 19.4749 18.1636 19.5374 18.2333 19.6289C19.1767 20.6595 20.2029 21.6117 21.3016 22.4763C21.4551 22.6107 21.6269 22.7573 21.5471 22.9895C21.4674 23.2217 21.1728 23.2095 21.0378 23.2217Z" fill="#2C3639"/>
<path d="M48.4377 47.6386C49.3996 47.6606 50.3398 47.9278 51.1684 48.4146C51.463 48.5979 51.7821 48.8301 51.598 49.2273C51.5233 49.3848 51.3896 49.5069 51.2256 49.5674C51.0616 49.628 50.8802 49.6221 50.7205 49.5511C49.8675 49.3189 49.0084 49.0806 48.1799 48.7751C47.8056 48.6407 47.1797 48.5185 47.3515 47.9442C47.5233 47.3698 48.0572 47.7181 48.4377 47.6386Z" fill="#2C3639"/>
<path d="M55.9673 36.6897C55.9304 36.763 55.8997 36.9097 55.8077 36.9769C55.7332 37.0212 55.6449 37.0363 55.5599 37.0194C55.4748 37.0024 55.3991 36.9546 55.3474 36.8853C54.0228 35.6688 52.8671 34.2818 51.911 32.7609C51.8432 32.6667 51.8155 32.5497 51.8339 32.4353C51.8523 32.3209 51.9153 32.2183 52.0091 32.1499C52.0498 32.1181 52.0963 32.0946 52.1461 32.0808C52.1959 32.067 52.248 32.0631 52.2993 32.0693C52.3506 32.0755 52.4002 32.0918 52.4452 32.1172C52.4902 32.1425 52.5297 32.1765 52.5614 32.2171C53.6783 33.6285 54.7768 35.0461 55.8752 36.4636C55.9168 36.5341 55.9478 36.6103 55.9673 36.6897V36.6897Z" fill="#2C3639"/>
<path d="M42.3009 71.8589L42.9146 71.8956C43.5108 71.6432 44.1264 71.4388 44.7555 71.2846C44.9712 71.1727 45.1948 71.0768 45.4244 70.9974C44.8409 70.815 44.2319 70.7263 43.6203 70.7346C43.1156 70.6647 42.6015 70.7193 42.1229 70.8935C41.8713 71.0035 41.6382 71.1746 41.7118 71.5045C41.7489 71.6255 41.8295 71.7286 41.9383 71.794C42.047 71.8594 42.1761 71.8825 42.3009 71.8589Z" fill="#2C3639"/>
<path d="M49.6896 42.9402C50.6083 42.9955 51.4966 43.2883 52.267 43.7895C52.5186 43.9606 52.8377 44.1623 52.6904 44.5166C52.5431 44.871 52.1504 44.9077 51.8129 44.7977C51.0028 44.5472 50.1989 44.2783 49.4073 43.9789C49.0759 43.8506 48.5789 43.7468 48.7139 43.258C48.8489 42.7691 49.3398 43.0074 49.6896 42.9402Z" fill="#2C3639"/>
<path d="M42.9575 21.5604L43.6326 20.8394C44.1726 20.6316 44.8108 19.8434 45.087 21.0899L44.5592 21.6154C43.8903 22.3364 43.2276 23.0635 42.5526 23.7784C42.3746 23.9678 42.1598 24.2611 41.8714 24.0656C41.583 23.87 41.675 23.5156 41.8714 23.2468C42.2028 22.6785 42.5832 22.1225 42.9575 21.5604Z" fill="#2C3639"/>
<path d="M38.0422 28.9844C38.4656 29.0577 38.576 29.4304 38.6558 29.7359C38.8215 30.5791 39.6254 31.2451 39.3554 32.18C39.3001 32.3816 39.0363 32.3816 38.8153 32.3083C38.0114 32.0578 37.1585 30.2431 37.4899 29.4671C37.5758 29.2165 37.7231 28.9966 38.0422 28.9844Z" fill="#2C3639"/>
<path d="M52.046 5.30033C51.9601 4.68931 51.8803 3.02734 51.7638 3.02734C51.6472 3.02734 51.5122 4.55488 51.3403 5.67916C51.144 6.93174 51.0642 7.87271 49.1802 7.91548C48.8795 7.91548 49.0329 8.18433 49.1802 8.18433C51.4753 8.23321 51.2483 9.17418 51.4201 10.3596C51.541 11.2065 51.6188 12.0589 51.6533 12.9136C51.7471 12.9435 51.8479 12.9435 51.9417 12.9136C51.9417 12.9136 52.1258 10.1457 52.2854 9.20474C52.4142 8.42875 53.3654 8.2821 54.1263 8.13546C54.1693 8.13546 54.2123 7.91548 54.0588 7.89715C52.4572 7.71385 52.3344 7.37779 52.046 5.30033Z" fill="#2C3639"/>
<path d="M33.127 63.3043C32.9981 62.3878 32.8815 59.8398 32.7036 59.8398C32.5256 59.8398 32.3169 62.1678 32.0531 63.8726C31.7585 65.785 31.6296 67.2209 28.7638 67.2881C28.3097 67.2881 28.5429 67.6914 28.7209 67.6975C32.2126 67.7708 31.8628 69.2006 32.1267 71.0031C32.3114 72.2957 32.4302 73.5968 32.4826 74.9014C32.6266 74.9449 32.7804 74.9449 32.9245 74.9014C32.9245 74.9014 33.2006 70.6854 33.4461 69.2434C33.6424 68.0641 35.0968 67.838 36.2689 67.6181C36.3303 67.6181 36.3978 67.282 36.1646 67.2576C33.759 66.9765 33.575 66.4633 33.127 63.3043Z" fill="#2C3639"/>
<path d="M58.1763 10.8973C58.0842 10.2191 57.9983 8.35547 57.8694 8.35547C57.7406 8.35547 57.581 10.0602 57.3908 11.3128C57.176 12.712 57.0839 13.7569 54.9791 13.8118C54.6538 13.8118 54.8195 14.1052 54.9791 14.1113C57.538 14.1663 57.2864 15.2111 57.4767 16.5553C57.6116 17.5015 57.6976 18.4539 57.7344 19.4088C57.8408 19.4379 57.9532 19.4379 58.0597 19.4088C58.0597 19.4088 58.2622 16.3231 58.4401 15.2661C58.5874 14.4045 59.6674 14.2396 60.5082 14.0807C60.5511 14.0807 60.6063 13.8302 60.4345 13.8118C58.6426 13.5858 58.5015 13.2069 58.1763 10.8973Z" fill="#2C3639"/>
<path d="M38.1648 76.4654C38.0666 75.7933 37.9807 73.9297 37.8518 73.9297C37.723 73.9297 37.5696 75.6344 37.3732 76.8809C37.1584 78.2801 37.0664 79.325 34.9677 79.38C34.6363 79.38 34.802 79.6794 34.9308 79.6794C37.4898 79.7344 37.2382 80.7853 37.4284 82.1234C37.5653 83.0695 37.6534 84.0219 37.6923 84.9769C37.7966 85.0067 37.9071 85.0067 38.0114 84.9769C38.0114 84.9769 38.2139 81.9218 38.3919 80.8342C38.5391 79.9726 39.6192 79.8077 40.466 79.6427C40.509 79.6427 40.5581 79.3983 40.3863 79.38C38.6251 79.1539 38.4839 78.7567 38.1648 76.4654Z" fill="#2C3639"/>
<path d="M7.80108 38.9674C7.70289 38.2953 7.61697 36.4255 7.4881 36.4317C7.35923 36.4378 7.20584 38.1303 7.00947 39.3829C6.79468 40.7821 6.70261 41.8269 4.60389 41.8819C4.27251 41.8819 4.4382 42.1813 4.56707 42.1813C7.12604 42.2363 6.87444 43.2812 7.06467 44.6254C7.20123 45.5694 7.2893 46.5198 7.32854 47.4727C7.4323 47.5059 7.5439 47.5059 7.64766 47.4727C7.64766 47.4727 7.85017 44.4176 8.02813 43.33C8.17541 42.4685 9.25545 42.3035 10.1023 42.1447C10.1453 42.1447 10.1944 41.8942 10.0225 41.8758C8.27973 41.6559 8.14473 41.277 7.80108 38.9674Z" fill="#2C3639"/>
<path d="M77.1448 43.4654C77.0527 42.7933 76.9668 40.9297 76.8379 40.9297C76.7091 40.9297 76.5556 42.6344 76.3593 43.887C76.1445 45.2862 76.0524 46.3311 73.9476 46.3861C73.6223 46.3861 73.788 46.6794 73.9476 46.6794C76.5065 46.7405 76.2549 47.7853 76.4452 49.1234C76.582 50.0695 76.6701 51.0219 76.709 51.9769C76.8133 52.0068 76.9239 52.0068 77.0282 51.9769C77.0282 51.9769 77.2307 48.8913 77.4086 47.8342C77.5559 46.9727 78.6359 46.8077 79.4767 46.6427C79.5258 46.6427 79.5749 46.3983 79.403 46.38C77.5805 46.1539 77.4455 45.7628 77.1448 43.4654Z" fill="#2C3639"/>
<path d="M30.7273 14.5646C30.6928 13.9082 30.6128 13.2549 30.488 12.6094C30.3591 12.6094 30.2671 13.9231 30.1198 14.8885C29.9541 15.9639 29.8805 16.7765 28.2788 16.8132C28.0272 16.8132 28.1561 17.0393 28.2788 17.0393C30.2487 17.082 30.0585 17.8886 30.2057 18.909C30.3113 19.636 30.3768 20.3683 30.4021 21.1025C30.4839 21.1291 30.572 21.1291 30.6537 21.1025C30.6537 21.1025 30.8071 18.7257 30.9482 17.913C31.0587 17.247 31.8749 17.1248 32.5438 16.9965C32.5438 16.9965 32.6174 16.8071 32.4824 16.7948C31.0833 16.636 30.9789 16.3488 30.7273 14.5646Z" fill="#2C3639"/>
</svg>
