<svg width="120" height="111" viewBox="0 0 120 111" fill="none" xmlns="http://www.w3.org/2000/svg">
<g opacity="0.3">
<rect x="72.6021" y="70.3242" width="0.730588" height="0.721695" fill="#B8C6D8"/>
<rect x="85.376" y="56.917" width="0.730588" height="0.697803" fill="#B8C6D8"/>
<rect x="85.1572" y="59.9053" width="0.60963" height="0.578316" fill="#B8C6D8"/>
<rect x="82.7144" y="59.4277" width="0.730588" height="0.602214" fill="#B8C6D8"/>
<rect x="83.1743" y="61.5059" width="0.60963" height="0.697803" fill="#B8C6D8"/>
<rect x="80.9736" y="60.0024" width="0.730588" height="0.7217" fill="#B8C6D8"/>
<rect x="63.5527" y="61.3882" width="0.730588" height="0.602214" fill="#B8C6D8"/>
<rect x="63.2163" y="64.8286" width="0.706396" height="0.7217" fill="#B8C6D8"/>
<rect x="55.7642" y="67.0034" width="0.730588" height="0.721695" fill="#B8C6D8"/>
<rect x="63.0962" y="81.1021" width="0.60963" height="0.721695" fill="#B8C6D8"/>
<rect x="69.021" y="79.4048" width="0.706396" height="0.578312" fill="#B8C6D8"/>
<rect x="71.3423" y="83.5181" width="0.706396" height="0.721695" fill="#B8C6D8"/>
<rect x="58.3291" y="91.2109" width="0.60963" height="0.721695" fill="#B8C6D8"/>
<rect x="45.0977" y="84.9023" width="0.609625" height="0.602209" fill="#B8C6D8"/>
<rect x="35.6855" y="88.3433" width="0.730583" height="0.721695" fill="#B8C6D8"/>
<rect x="37.4272" y="72.7393" width="0.730583" height="0.602209" fill="#B8C6D8"/>
<rect x="35.6865" y="74.6982" width="0.730583" height="0.602209" fill="#B8C6D8"/>
<rect x="41.0337" y="79.5034" width="0.609625" height="0.721695" fill="#B8C6D8"/>
<rect x="39.5088" y="91.5469" width="0.609625" height="0.602209" fill="#B8C6D8"/>
<rect x="43.3535" y="91.667" width="0.706391" height="0.602209" fill="#B8C6D8"/>
<rect x="86.5376" y="84.6636" width="0.730588" height="0.721695" fill="#B8C6D8"/>
<rect x="85.9561" y="82.1548" width="0.730588" height="0.602209" fill="#B8C6D8"/>
<rect x="82.9551" y="84.5454" width="0.706396" height="0.721695" fill="#B8C6D8"/>
<rect x="81.0938" y="83.4194" width="0.730588" height="0.578312" fill="#B8C6D8"/>
<rect x="78.9893" y="81.2222" width="0.730588" height="0.721695" fill="#B8C6D8"/>
<rect x="54.7241" y="79.4048" width="0.730588" height="0.578312" fill="#B8C6D8"/>
<rect x="46.958" y="69.082" width="0.706391" height="0.578312" fill="#B8C6D8"/>
<rect x="57.1689" y="59.5488" width="0.60963" height="0.7217" fill="#B8C6D8"/>
<rect x="77.6094" y="56.3462" width="0.60963" height="0.602214" fill="#B8C6D8"/>
<rect x="85.1572" y="68.8423" width="0.60963" height="0.721695" fill="#B8C6D8"/>
<rect x="29.8784" y="67.1245" width="0.609625" height="0.721695" fill="#B8C6D8"/>
<rect x="58.6685" y="84.4482" width="0.730588" height="0.602209" fill="#B8C6D8"/>
<rect x="51.3623" y="99.5757" width="0.730588" height="0.721695" fill="#B8C6D8"/>
<rect x="85.6167" y="91.7856" width="0.60963" height="0.721695" fill="#B8C6D8"/>
<rect x="30.7988" y="88.4609" width="0.730583" height="0.697798" fill="#B8C6D8"/>
<rect x="70.6426" y="56.2246" width="0.706396" height="0.602214" fill="#B8C6D8"/>
<rect x="68.9014" y="55.9873" width="0.706396" height="0.7217" fill="#B8C6D8"/>
<rect x="67.959" y="57.0161" width="0.60963" height="0.7217" fill="#B8C6D8"/>
<rect x="48.7021" y="60.1187" width="0.585436" height="0.7217" fill="#B8C6D8"/>
<rect x="63.0962" y="97.854" width="1.19023" height="1.29523" fill="#B8C6D8"/>
<rect x="74.4653" y="59.0942" width="0.948311" height="0.817288" fill="#B8C6D8"/>
<rect x="31.7432" y="58.6396" width="0.948306" height="0.817288" fill="#B8C6D8"/>
<rect x="75.9883" y="69.084" width="0.827353" height="0.817281" fill="#B8C6D8"/>
<rect x="91.665" y="24.4434" width="0.948311" height="0.960671" fill="#B8C6D8"/>
<rect x="96.3105" y="30.415" width="0.948311" height="0.936774" fill="#B8C6D8"/>
<rect x="96.189" y="48.5308" width="0.730588" height="0.7217" fill="#B8C6D8"/>
<rect x="100.471" y="44.0625" width="0.60963" height="0.7217" fill="#B8C6D8"/>
<rect x="103.156" y="46.022" width="0.706396" height="0.602214" fill="#B8C6D8"/>
<rect x="103.373" y="43.8467" width="0.730588" height="0.578316" fill="#B8C6D8"/>
<rect x="101.633" y="51.0635" width="0.730588" height="0.602214" fill="#B8C6D8"/>
<rect x="95.2461" y="32.3745" width="0.730588" height="0.697803" fill="#B8C6D8"/>
<rect x="99.0908" y="35.5786" width="0.706396" height="0.602214" fill="#B8C6D8"/>
<rect x="91.7627" y="45.6631" width="0.730588" height="0.7217" fill="#B8C6D8"/>
<rect x="93.5044" y="44.4199" width="0.730588" height="0.697803" fill="#B8C6D8"/>
<rect x="93.4072" y="45.9028" width="0.585439" height="0.602214" fill="#B8C6D8"/>
<rect x="91.665" y="44.0625" width="0.706396" height="0.7217" fill="#B8C6D8"/>
<rect x="89.3418" y="55.1987" width="0.706396" height="0.697803" fill="#B8C6D8"/>
<rect x="90.5039" y="32.5923" width="0.585439" height="0.602214" fill="#B8C6D8"/>
<rect x="101.631" y="48.436" width="0.730588" height="0.578316" fill="#B8C6D8"/>
<rect x="92.1255" y="39.354" width="0.827353" height="0.841186" fill="#B8C6D8"/>
<rect x="93.0444" y="57.4907" width="0.948311" height="0.936774" fill="#B8C6D8"/>
<rect x="104.075" y="65.7358" width="0.948311" height="0.960669" fill="#B8C6D8"/>
<rect x="103.955" y="65.0688" width="0.60963" height="0.578316" fill="#B8C6D8"/>
<rect x="92.0039" y="56.561" width="0.730588" height="0.7217" fill="#B8C6D8"/>
<rect x="98.9707" y="56.7998" width="0.730588" height="0.602214" fill="#B8C6D8"/>
<g opacity="0.2">
<rect x="97.6899" y="59.668" width="0.730588" height="0.7217" fill="#B8C6D8"/>
</g>
<g opacity="0.2">
<rect x="100.133" y="59.5488" width="0.730588" height="0.7217" fill="#B8C6D8"/>
</g>
<g opacity="0.2">
<rect x="97.8091" y="64.8286" width="0.730588" height="0.7217" fill="#B8C6D8"/>
</g>
<g opacity="0.2">
<rect x="97.1074" y="72.7407" width="0.60963" height="0.602209" fill="#B8C6D8"/>
</g>
<g opacity="0.2">
<rect x="95.2461" y="74.6982" width="0.730588" height="0.602209" fill="#B8C6D8"/>
</g>
<g opacity="0.2">
<rect x="89.4395" y="67.1245" width="0.730588" height="0.721695" fill="#B8C6D8"/>
</g>
<g opacity="0.2">
<rect x="90.5044" y="88.4609" width="0.585439" height="0.697798" fill="#B8C6D8"/>
</g>
<g opacity="0.2">
<rect x="101.294" y="71.2583" width="1.19023" height="1.27133" fill="#B8C6D8"/>
</g>
<g opacity="0.2">
<rect x="91.5439" y="61.3877" width="1.28699" height="1.29523" fill="#B8C6D8"/>
</g>
<g opacity="0.2">
<rect x="91.4243" y="58.6396" width="0.851545" height="0.817288" fill="#B8C6D8"/>
</g>
<rect x="30.5815" y="84.6636" width="0.609625" height="0.721695" fill="#B8C6D8"/>
<rect x="28.9619" y="83.4194" width="0.706391" height="0.578312" fill="#B8C6D8"/>
<rect x="30.002" y="82.1548" width="0.609625" height="0.602209" fill="#B8C6D8"/>
<rect x="26.9766" y="84.5454" width="0.730583" height="0.721695" fill="#B8C6D8"/>
<rect x="25.1138" y="83.4194" width="0.609625" height="0.578312" fill="#B8C6D8"/>
<rect x="23.0347" y="81.2222" width="0.609625" height="0.721695" fill="#B8C6D8"/>
<rect x="21.5093" y="56.3462" width="0.730583" height="0.602214" fill="#B8C6D8"/>
<rect x="14.6641" y="56.2246" width="0.609625" height="0.602214" fill="#B8C6D8"/>
<rect x="12.9209" y="55.9873" width="0.609625" height="0.7217" fill="#B8C6D8"/>
<rect x="18.5107" y="59.0942" width="0.827349" height="0.817288" fill="#B8C6D8"/>
<rect x="52.5225" y="39.354" width="0.948311" height="0.960671" fill="#B8C6D8"/>
<rect x="77.731" y="39.1392" width="0.948311" height="0.936774" fill="#B8C6D8"/>
<rect x="42.5322" y="32.8296" width="0.948306" height="0.936774" fill="#B8C6D8"/>
<rect x="61.813" y="51.8755" width="0.827353" height="0.936774" fill="#B8C6D8"/>
<rect x="72.144" y="28.2412" width="0.948311" height="0.936774" fill="#B8C6D8"/>
<rect x="82.1338" y="48.5327" width="0.948311" height="0.960671" fill="#B8C6D8"/>
<rect x="32.0796" y="24.4434" width="0.948306" height="0.960671" fill="#B8C6D8"/>
<rect x="33.1221" y="48.0776" width="0.851538" height="0.936774" fill="#B8C6D8"/>
<rect x="74.1265" y="14.9326" width="0.948311" height="0.936774" fill="#B8C6D8"/>
<rect x="36.604" y="30.417" width="0.972498" height="0.936774" fill="#B8C6D8"/>
<rect x="82.1338" y="44.4185" width="0.60963" height="0.578316" fill="#B8C6D8"/>
<rect x="71.2231" y="44.6377" width="0.706396" height="0.7217" fill="#B8C6D8"/>
<rect x="73.8853" y="38.4453" width="0.730588" height="0.7217" fill="#B8C6D8"/>
<rect x="72.0225" y="41.5532" width="0.730588" height="0.578316" fill="#B8C6D8"/>
<rect x="68.1987" y="41.6489" width="0.730588" height="0.602214" fill="#B8C6D8"/>
<rect x="67.6182" y="44.5161" width="0.730588" height="0.7217" fill="#B8C6D8"/>
<rect x="61.8149" y="46.1182" width="0.60963" height="0.7217" fill="#B8C6D8"/>
<rect x="55.4263" y="21.3584" width="0.60963" height="0.697803" fill="#B8C6D8"/>
<rect x="46.8374" y="21.2397" width="0.609625" height="0.7217" fill="#B8C6D8"/>
<rect x="36.604" y="48.5308" width="0.609625" height="0.7217" fill="#B8C6D8"/>
<rect x="40.7891" y="44.061" width="0.730583" height="0.7217" fill="#B8C6D8"/>
<rect x="43.5723" y="46.022" width="0.609625" height="0.602214" fill="#B8C6D8"/>
<rect x="45.4346" y="41.3145" width="0.609625" height="0.7217" fill="#B8C6D8"/>
<rect x="46.5962" y="43.9414" width="0.730583" height="0.602214" fill="#B8C6D8"/>
<rect x="43.814" y="43.8467" width="0.609625" height="0.578316" fill="#B8C6D8"/>
<rect x="42.0728" y="51.0635" width="0.730583" height="0.602214" fill="#B8C6D8"/>
<rect x="81.0928" y="18.8271" width="0.730588" height="0.7217" fill="#B8C6D8"/>
<rect x="72.6021" y="14.3589" width="0.730588" height="0.7217" fill="#B8C6D8"/>
<rect x="63.313" y="9.19775" width="0.488673" height="0.363242" fill="#B8C6D8"/>
<rect x="63.0947" y="25.1353" width="0.60963" height="0.7217" fill="#B8C6D8"/>
<rect x="69.0215" y="23.4146" width="0.706396" height="0.602214" fill="#B8C6D8"/>
<rect x="71.3423" y="27.5513" width="0.706396" height="0.7217" fill="#B8C6D8"/>
<rect x="58.3296" y="35.2441" width="0.60963" height="0.697803" fill="#B8C6D8"/>
<rect x="45.0952" y="28.9331" width="0.609625" height="0.578316" fill="#B8C6D8"/>
<rect x="35.686" y="32.3745" width="0.730583" height="0.697803" fill="#B8C6D8"/>
<rect x="37.4272" y="16.7715" width="0.730583" height="0.697803" fill="#B8C6D8"/>
<rect x="35.687" y="18.708" width="0.730583" height="0.602214" fill="#B8C6D8"/>
<rect x="41.0317" y="23.5327" width="0.609625" height="0.7217" fill="#B8C6D8"/>
<rect x="39.5083" y="35.5786" width="0.609625" height="0.602214" fill="#B8C6D8"/>
<rect x="43.3535" y="35.6973" width="0.706391" height="0.697803" fill="#B8C6D8"/>
<rect x="52.2808" y="50.8237" width="0.730588" height="0.7217" fill="#B8C6D8"/>
<rect x="83.2954" y="53.2393" width="0.730588" height="0.7217" fill="#B8C6D8"/>
<rect x="86.5356" y="28.6978" width="0.730588" height="0.7217" fill="#B8C6D8"/>
<rect x="32.2021" y="45.6631" width="0.609625" height="0.7217" fill="#B8C6D8"/>
<rect x="33.9453" y="44.4199" width="0.609625" height="0.697803" fill="#B8C6D8"/>
<rect x="33.7041" y="45.9028" width="0.730583" height="0.602214" fill="#B8C6D8"/>
<rect x="31.9604" y="44.061" width="0.730583" height="0.7217" fill="#B8C6D8"/>
<rect x="84.9155" y="27.4302" width="0.730588" height="0.602214" fill="#B8C6D8"/>
<rect x="85.9556" y="26.1626" width="0.730588" height="0.602214" fill="#B8C6D8"/>
<rect x="82.9565" y="28.5762" width="0.706396" height="0.7217" fill="#B8C6D8"/>
<rect x="81.0933" y="27.4302" width="0.730588" height="0.602214" fill="#B8C6D8"/>
<rect x="78.9888" y="25.2549" width="0.730588" height="0.7217" fill="#B8C6D8"/>
<rect x="54.7266" y="23.4146" width="0.730588" height="0.602214" fill="#B8C6D8"/>
<rect x="46.9585" y="13.0913" width="0.706391" height="0.602214" fill="#B8C6D8"/>
<rect x="67.4985" y="53.4785" width="0.60963" height="0.602214" fill="#B8C6D8"/>
<rect x="58.668" y="28.4585" width="0.730588" height="0.602214" fill="#B8C6D8"/>
<rect x="51.3623" y="43.6069" width="0.730588" height="0.7217" fill="#B8C6D8"/>
<rect x="59.3691" y="53.5962" width="0.60963" height="0.697803" fill="#B8C6D8"/>
<rect x="85.6167" y="35.8169" width="0.60963" height="0.697803" fill="#B8C6D8"/>
<rect x="30.7993" y="32.5923" width="0.730583" height="0.602214" fill="#B8C6D8"/>
<rect x="42.0747" y="48.436" width="0.730583" height="0.578316" fill="#B8C6D8"/>
<rect x="44.9751" y="19.1841" width="1.19022" height="1.15185" fill="#B8C6D8"/>
<rect x="48.1206" y="33.978" width="0.948309" height="0.817288" fill="#B8C6D8"/>
<rect x="78.7695" y="50.4897" width="0.827353" height="0.7217" fill="#B8C6D8"/>
<rect x="32.4438" y="39.354" width="0.827349" height="0.841186" fill="#B8C6D8"/>
<rect x="75.9883" y="13.0903" width="0.827353" height="0.841186" fill="#B8C6D8"/>
<rect x="68.0786" y="64.1343" width="0.948311" height="0.936774" fill="#B8C6D8"/>
<rect x="77.73" y="95.106" width="0.948311" height="0.93677" fill="#B8C6D8"/>
<rect x="78.9888" y="67.2427" width="0.972502" height="0.93677" fill="#B8C6D8"/>
<rect x="42.5322" y="88.7974" width="0.948306" height="0.93677" fill="#B8C6D8"/>
<rect x="52.8628" y="62.415" width="0.972502" height="0.936774" fill="#B8C6D8"/>
<rect x="44.3955" y="65.7358" width="0.948306" height="0.960669" fill="#B8C6D8"/>
<rect x="72.1416" y="84.2085" width="0.948311" height="0.93677" fill="#B8C6D8"/>
<rect x="84.7939" y="55.7715" width="0.972502" height="0.936774" fill="#B8C6D8"/>
<rect x="32.082" y="80.4351" width="0.948306" height="0.93677" fill="#B8C6D8"/>
<rect x="74.127" y="70.8979" width="0.948311" height="0.960667" fill="#B8C6D8"/>
<rect x="77.3667" y="62.9888" width="0.730588" height="0.602214" fill="#B8C6D8"/>
<rect x="73.8853" y="94.4121" width="0.730588" height="0.721695" fill="#B8C6D8"/>
<rect x="72.0225" y="97.4019" width="0.730588" height="0.721695" fill="#B8C6D8"/>
<rect x="68.1982" y="97.6392" width="0.730588" height="0.602209" fill="#B8C6D8"/>
<rect x="67.6187" y="100.507" width="0.730588" height="0.602209" fill="#B8C6D8"/>
<rect x="55.4263" y="77.3286" width="0.60963" height="0.721695" fill="#B8C6D8"/>
<rect x="46.8374" y="77.207" width="0.609625" height="0.721695" fill="#B8C6D8"/>
<rect x="44.2739" y="65.0688" width="0.730583" height="0.578316" fill="#B8C6D8"/>
<rect x="32.4434" y="56.561" width="0.585434" height="0.7217" fill="#B8C6D8"/>
<rect x="39.29" y="56.7998" width="0.706391" height="0.602214" fill="#B8C6D8"/>
<rect x="38.1284" y="59.668" width="0.609625" height="0.7217" fill="#B8C6D8"/>
<rect x="40.5713" y="59.5488" width="0.585434" height="0.7217" fill="#B8C6D8"/>
<rect x="38.25" y="64.8286" width="0.706391" height="0.7217" fill="#B8C6D8"/>
<rect x="45.4346" y="97.2817" width="0.609625" height="0.721695" fill="#B8C6D8"/>
<rect x="81.0933" y="74.8169" width="0.730588" height="0.697798" fill="#B8C6D8"/>
<rect x="14.4453" y="45.4478" width="0.948306" height="0.936774" fill="#B8C6D8"/>
<rect x="26.0586" y="48.5327" width="0.948306" height="0.960671" fill="#B8C6D8"/>
<rect x="26.0581" y="44.4189" width="0.706391" height="0.578316" fill="#B8C6D8"/>
<rect x="15.2427" y="44.6377" width="0.609625" height="0.7217" fill="#B8C6D8"/>
<rect x="17.9292" y="38.4453" width="0.706391" height="0.7217" fill="#B8C6D8"/>
<rect x="16.0659" y="41.5532" width="0.706391" height="0.578316" fill="#B8C6D8"/>
<rect x="27.3154" y="53.2393" width="0.609625" height="0.7217" fill="#B8C6D8"/>
<rect x="30.5815" y="28.6963" width="0.609625" height="0.7217" fill="#B8C6D8"/>
<rect x="28.9614" y="27.4302" width="0.706391" height="0.602214" fill="#B8C6D8"/>
<rect x="30.0015" y="26.1626" width="0.609625" height="0.602214" fill="#B8C6D8"/>
<rect x="26.9766" y="28.5762" width="0.730583" height="0.7217" fill="#B8C6D8"/>
<rect x="25.1143" y="27.4302" width="0.609625" height="0.602214" fill="#B8C6D8"/>
<rect x="29.5415" y="35.8169" width="0.706391" height="0.697803" fill="#B8C6D8"/>
<rect x="22.6719" y="50.4897" width="0.972498" height="0.7217" fill="#B8C6D8"/>
<rect x="18.0269" y="70.8979" width="0.972498" height="0.960667" fill="#B8C6D8"/>
<rect x="21.4126" y="62.9888" width="0.585434" height="0.602214" fill="#B8C6D8"/>
<rect x="25.1143" y="74.8169" width="0.609625" height="0.697798" fill="#B8C6D8"/>
<rect x="16.646" y="70.3242" width="0.706391" height="0.721695" fill="#B8C6D8"/>
<rect x="29.4214" y="56.917" width="0.609625" height="0.697803" fill="#B8C6D8"/>
<rect x="29.0586" y="59.9053" width="0.730583" height="0.578316" fill="#B8C6D8"/>
<rect x="26.7354" y="59.4277" width="0.609625" height="0.602214" fill="#B8C6D8"/>
<rect x="27.0981" y="61.5059" width="0.706391" height="0.697803" fill="#B8C6D8"/>
<rect x="24.9937" y="60.0024" width="0.609625" height="0.7217" fill="#B8C6D8"/>
<rect x="5.73682" y="51.8755" width="0.948306" height="0.936774" fill="#B8C6D8"/>
<rect x="16.1895" y="28.2412" width="0.827349" height="0.936774" fill="#B8C6D8"/>
<rect x="12.2212" y="41.6489" width="0.609625" height="0.602214" fill="#B8C6D8"/>
<rect x="11.6396" y="44.5161" width="0.609625" height="0.7217" fill="#B8C6D8"/>
<rect x="25.1138" y="18.8271" width="0.609625" height="0.7217" fill="#B8C6D8"/>
<rect x="15.3657" y="27.5513" width="0.609625" height="0.7217" fill="#B8C6D8"/>
<rect x="23.0347" y="25.2549" width="0.609625" height="0.7217" fill="#B8C6D8"/>
<rect x="11.4229" y="53.4785" width="0.706391" height="0.602214" fill="#B8C6D8"/>
<rect x="29.0586" y="12.8774" width="0.730583" height="0.697803" fill="#B8C6D8"/>
<rect x="19.4297" y="28.458" width="1.31118" height="1.17575" fill="#B8C6D8"/>
<rect x="7.23779" y="41.8882" width="1.06926" height="1.29523" fill="#B8C6D8"/>
<rect x="28.9619" y="15.5059" width="0.948306" height="0.817288" fill="#B8C6D8"/>
<rect x="12.0029" y="64.1338" width="0.948304" height="0.936774" fill="#B8C6D8"/>
<rect x="16.187" y="84.2085" width="0.827349" height="0.93677" fill="#B8C6D8"/>
<rect x="7.57568" y="61.3882" width="0.730583" height="0.602214" fill="#B8C6D8"/>
<rect x="7.23779" y="64.8286" width="0.609625" height="0.7217" fill="#B8C6D8"/>
<rect x="13.043" y="79.4048" width="0.730583" height="0.578312" fill="#B8C6D8"/>
<rect x="15.3657" y="83.5181" width="0.609625" height="0.721695" fill="#B8C6D8"/>
<rect x="11.8809" y="57.0161" width="0.730583" height="0.7217" fill="#B8C6D8"/>
<rect x="11.0596" y="64.4932" width="1.19022" height="1.15185" fill="#B8C6D8"/>
<rect x="24.3164" y="95.3462" width="0.948306" height="0.93677" fill="#B8C6D8"/>
<rect x="68.0786" y="8.16895" width="0.948311" height="0.936774" fill="#B8C6D8"/>
<rect x="78.9888" y="11.25" width="0.972502" height="0.960671" fill="#B8C6D8"/>
<rect x="44.3955" y="9.76904" width="0.948306" height="0.936774" fill="#B8C6D8"/>
<rect x="77.3667" y="7.02197" width="0.730588" height="0.602214" fill="#B8C6D8"/>
<rect x="44.2744" y="9.07617" width="0.730583" height="0.602214" fill="#B8C6D8"/>
<rect x="38.25" y="8.86182" width="0.706391" height="0.697803" fill="#B8C6D8"/>
<rect x="63.5527" y="5.42041" width="0.730588" height="0.697803" fill="#B8C6D8"/>
<rect x="63.2163" y="8.86182" width="0.706396" height="0.697803" fill="#B8C6D8"/>
<rect x="57.1675" y="3.58008" width="0.60963" height="0.697803" fill="#B8C6D8"/>
<rect x="85.1567" y="12.8774" width="0.60963" height="0.697803" fill="#B8C6D8"/>
<rect x="29.8799" y="11.1543" width="0.609625" height="0.697803" fill="#B8C6D8"/>
<rect x="48.7021" y="4.15283" width="0.585436" height="0.697803" fill="#B8C6D8"/>
<rect x="85.9556" y="8.7417" width="1.06927" height="0.936774" fill="#B8C6D8"/>
<rect x="85.0371" y="15.5059" width="0.827353" height="0.817288" fill="#B8C6D8"/>
<rect x="70.4014" y="101.416" width="0.948311" height="0.93677" fill="#B8C6D8"/>
<rect x="61.8125" y="107.844" width="0.827353" height="0.93677" fill="#B8C6D8"/>
<rect x="46.7178" y="102.922" width="0.948306" height="0.817284" fill="#B8C6D8"/>
<rect x="82.1338" y="100.388" width="0.60963" height="0.602209" fill="#B8C6D8"/>
<rect x="71.2231" y="100.626" width="0.706396" height="0.697798" fill="#B8C6D8"/>
<rect x="67.6177" y="100.722" width="0.730588" height="0.482723" fill="#B8C6D8"/>
<rect x="61.813" y="102.108" width="0.60963" height="0.721695" fill="#B8C6D8"/>
<rect x="40.7905" y="100.053" width="0.730583" height="0.697798" fill="#B8C6D8"/>
<rect x="43.5728" y="101.987" width="0.609625" height="0.602209" fill="#B8C6D8"/>
<rect x="46.5957" y="99.9341" width="0.730583" height="0.602209" fill="#B8C6D8"/>
<rect x="43.814" y="99.6938" width="0.609625" height="0.721695" fill="#B8C6D8"/>
<rect x="52.2808" y="106.815" width="0.730588" height="0.697798" fill="#B8C6D8"/>
<rect x="33.9448" y="100.388" width="0.609625" height="0.721695" fill="#B8C6D8"/>
<rect x="33.7041" y="101.869" width="0.730583" height="0.602209" fill="#B8C6D8"/>
<rect x="31.9604" y="100.053" width="0.730583" height="0.697798" fill="#B8C6D8"/>
<rect x="42.0723" y="104.403" width="0.730583" height="0.602209" fill="#B8C6D8"/>
<rect x="32.4438" y="95.3457" width="0.827349" height="0.817284" fill="#B8C6D8"/>
<rect x="102.116" y="32.8296" width="0.948311" height="0.936774" fill="#B8C6D8"/>
<rect x="106.398" y="46.9302" width="0.851545" height="0.936774" fill="#B8C6D8"/>
<rect x="105.019" y="41.3145" width="0.706396" height="0.7217" fill="#B8C6D8"/>
<rect x="106.278" y="43.9414" width="0.60963" height="0.602214" fill="#B8C6D8"/>
<rect x="104.657" y="28.9331" width="0.730588" height="0.578316" fill="#B8C6D8"/>
<rect x="97.1074" y="16.7734" width="0.60963" height="0.697803" fill="#B8C6D8"/>
<rect x="95.2461" y="18.708" width="0.730588" height="0.602214" fill="#B8C6D8"/>
<rect x="100.591" y="23.5327" width="0.730588" height="0.7217" fill="#B8C6D8"/>
<rect x="103.034" y="35.6973" width="0.730588" height="0.697803" fill="#B8C6D8"/>
<rect x="111.866" y="50.8237" width="0.706396" height="0.7217" fill="#B8C6D8"/>
<rect x="89.4395" y="11.1543" width="0.730588" height="0.697803" fill="#B8C6D8"/>
<rect x="111.043" y="43.6069" width="0.60963" height="0.7217" fill="#B8C6D8"/>
<rect x="107.802" y="33.978" width="0.827353" height="0.817288" fill="#B8C6D8"/>
<rect x="112.446" y="62.415" width="0.948311" height="0.936774" fill="#B8C6D8"/>
<rect x="96.3105" y="86.3843" width="0.948311" height="0.960667" fill="#B8C6D8"/>
<rect x="106.398" y="77.2056" width="0.730588" height="0.721695" fill="#B8C6D8"/>
<rect x="95.2466" y="88.3433" width="0.730588" height="0.721695" fill="#B8C6D8"/>
<rect x="100.591" y="79.5034" width="0.730588" height="0.721695" fill="#B8C6D8"/>
<rect x="99.0923" y="91.5449" width="0.488673" height="0.482723" fill="#B8C6D8"/>
<rect x="106.52" y="69.082" width="0.730588" height="0.578312" fill="#B8C6D8"/>
<rect x="108.259" y="60.1187" width="0.730588" height="0.7217" fill="#B8C6D8"/>
<rect x="104.535" y="75.1499" width="1.31118" height="1.17574" fill="#B8C6D8"/>
<rect x="92.1255" y="95.3457" width="0.827353" height="0.817284" fill="#B8C6D8"/>
<rect x="22.9131" y="11.25" width="0.948306" height="0.960671" fill="#B8C6D8"/>
<rect x="18.0269" y="14.9326" width="0.972498" height="0.936774" fill="#B8C6D8"/>
<path d="M6.10282 46.6211C6.01883 46.6211 5.95068 46.5539 5.95068 46.471C5.95068 46.3881 6.01883 46.3207 6.10282 46.3207C6.18674 46.3207 6.25477 46.3881 6.25477 46.471C6.25477 46.5539 6.18674 46.6211 6.10282 46.6211Z" fill="#B8C6D8"/>
<path d="M16.985 14.8823C16.9012 14.8823 16.833 14.8149 16.833 14.732C16.833 14.6491 16.9012 14.5819 16.985 14.5819C17.069 14.5819 17.1369 14.6491 17.1369 14.732C17.1369 14.8149 17.069 14.8823 16.985 14.8823Z" fill="#B8C6D8"/>
<path d="M29.4312 4.38672C29.3473 4.38672 29.2793 4.31957 29.2793 4.23665C29.2793 4.15373 29.3473 4.08634 29.4312 4.08634C29.5154 4.08634 29.5834 4.15373 29.5834 4.23665C29.5834 4.31957 29.5154 4.38672 29.4312 4.38672Z" fill="#B8C6D8"/>
<path d="M27.462 6.03613C27.378 6.03613 27.3101 5.96898 27.3101 5.88605C27.3101 5.80313 27.378 5.73574 27.462 5.73574C27.5459 5.73574 27.6141 5.80313 27.6141 5.88605C27.6141 5.96898 27.5459 6.03613 27.462 6.03613Z" fill="#B8C6D8"/>
<path d="M7.36542 25.6279C7.28143 25.6279 7.21338 25.5608 7.21338 25.4779C7.21338 25.3949 7.28143 25.3275 7.36542 25.3275C7.44934 25.3275 7.51749 25.3949 7.51749 25.4779C7.51749 25.5608 7.44934 25.6279 7.36542 25.6279Z" fill="#B8C6D8"/>
<path d="M13.3907 23.8794C13.3068 23.8794 13.2388 23.812 13.2388 23.7291C13.2388 23.6464 13.3068 23.579 13.3907 23.579C13.4747 23.579 13.5428 23.6464 13.5428 23.7291C13.5428 23.812 13.4747 23.8794 13.3907 23.8794Z" fill="#B8C6D8"/>
<path d="M2.61152 35.7236C2.5275 35.7236 2.45947 35.6562 2.45947 35.5733C2.45947 35.4904 2.5275 35.4232 2.61152 35.4232C2.69544 35.4232 2.76356 35.4904 2.76356 35.5733C2.76356 35.6562 2.69544 35.7236 2.61152 35.7236Z" fill="#B8C6D8"/>
<path d="M3.66327 54.0693C3.57928 54.0693 3.51123 54.0022 3.51123 53.9193C3.51123 53.8363 3.57928 53.7692 3.66327 53.7692C3.7471 53.7692 3.81522 53.8363 3.81522 53.9193C3.81522 54.0022 3.7471 54.0693 3.66327 54.0693Z" fill="#B8C6D8"/>
<path d="M7.37316 42.6089L7.20996 42.4517L7.42002 42.4215C7.40428 42.4844 7.38881 42.546 7.37316 42.6089" fill="#B8C6D8"/>
<path d="M30.8813 9.5166L30.5973 9.36916L30.3133 9.5166L30.3675 9.20427L30.1377 8.98299L30.4553 8.93734L30.5973 8.6532L30.7393 8.93734L31.0567 8.98299L30.8269 9.20427L30.8813 9.5166" fill="#B8C6D8"/>
<path d="M20.5028 13.7744L20.3546 13.6977L20.2063 13.7744L20.2346 13.6114L20.1147 13.496L20.2804 13.4724L20.3546 13.3239L20.4286 13.4724L20.5943 13.496L20.4745 13.6114L20.5028 13.7744Z" fill="#B8C6D8"/>
<rect x="21.7515" y="95.106" width="0.948306" height="0.93677" fill="#B8C6D8"/>
<rect x="26.0581" y="104.522" width="0.948306" height="0.93677" fill="#B8C6D8"/>
<path d="M26.4136 100.837C26.3297 100.837 26.2617 100.77 26.2617 100.687C26.2617 100.604 26.3297 100.537 26.4136 100.537C26.4976 100.537 26.5658 100.604 26.5658 100.687C26.5658 100.77 26.4976 100.837 26.4136 100.837Z" fill="#B8C6D8"/>
<path d="M18.253 94.939C18.1692 94.939 18.1011 94.8717 18.1011 94.7888C18.1011 94.706 18.1692 94.6387 18.253 94.6387C18.3369 94.6387 18.4051 94.706 18.4051 94.7888C18.4051 94.8717 18.3369 94.939 18.253 94.939Z" fill="#B8C6D8"/>
<path d="M16.3933 97.938C16.3093 97.938 16.2412 97.8709 16.2412 97.788C16.2412 97.705 16.3093 97.6379 16.3933 97.6379C16.4771 97.6379 16.5453 97.705 16.5453 97.788C16.5453 97.8709 16.4771 97.938 16.3933 97.938Z" fill="#B8C6D8"/>
<path d="M0.152046 67.499C0.0680385 67.499 0 67.4319 0 67.3489C0 67.2663 0.0680385 67.1989 0.152046 67.1989C0.235867 67.1989 0.304 67.2663 0.304 67.3489C0.304 67.4319 0.235867 67.499 0.152046 67.499Z" fill="#B8C6D8"/>
<path d="M7.36542 81.5952C7.28143 81.5952 7.21338 81.5281 7.21338 81.4451C7.21338 81.3622 7.28143 81.2951 7.36542 81.2951C7.44934 81.2951 7.51749 81.3622 7.51749 81.4451C7.51749 81.5281 7.44934 81.5952 7.36542 81.5952Z" fill="#B8C6D8"/>
<path d="M1.4581 60.0527C1.37429 60.0527 1.30615 59.9856 1.30615 59.9027C1.30615 59.82 1.37429 59.7526 1.4581 59.7526C1.54202 59.7526 1.61015 59.82 1.61015 59.9027C1.61015 59.9856 1.54202 60.0527 1.4581 60.0527Z" fill="#B8C6D8"/>
<path d="M24.9475 96.3701L24.6635 96.2226L24.3797 96.3701L24.4339 96.0578L24.2041 95.8364L24.5121 95.7922C24.6425 95.9038 24.7738 96.0152 24.9052 96.1256L24.9475 96.3701Z" fill="#B8C6D8"/>
<path d="M29.5644 107.615L29.2804 107.468L28.9964 107.615L29.0506 107.303L28.8208 107.082L29.1384 107.036L29.2804 106.752L29.4224 107.036L29.7398 107.082L29.5103 107.303L29.5644 107.615" fill="#B8C6D8"/>
<rect x="33.3638" y="1.50146" width="0.948306" height="0.960671" fill="#B8C6D8"/>
<rect x="84.7939" y="0.0185547" width="0.972502" height="0.7217" fill="#B8C6D8"/>
<path d="M32.7292 1.13818C32.7076 1.13818 32.6872 1.13362 32.6685 1.12571C32.7374 1.09211 32.8081 1.05756 32.8771 1.02421C32.8606 1.08947 32.8006 1.13818 32.7292 1.13818Z" fill="#B8C6D8"/>
<path d="M39.671 1.2876C39.587 1.2876 39.519 1.2202 39.519 1.13752C39.519 1.05435 39.587 0.987203 39.671 0.987203C39.7549 0.987203 39.8229 1.05435 39.8229 1.13752C39.8229 1.2202 39.7549 1.2876 39.671 1.2876Z" fill="#B8C6D8"/>
<path d="M38.4168 4.23584C38.3329 4.23584 38.2646 4.16845 38.2646 4.08553C38.2646 4.0026 38.3329 3.93544 38.4168 3.93544C38.5008 3.93544 38.5687 4.0026 38.5687 4.08553C38.5687 4.16845 38.5008 4.23584 38.4168 4.23584Z" fill="#B8C6D8"/>
<path d="M40.8765 4.08496C40.7926 4.08496 40.7246 4.0178 40.7246 3.93488C40.7246 3.85196 40.7926 3.78481 40.8765 3.78481C40.9605 3.78481 41.0285 3.85196 41.0285 3.93488C41.0285 4.0178 40.9605 4.08496 40.8765 4.08496Z" fill="#B8C6D8"/>
<path d="M85.7496 1.4375C85.6656 1.4375 85.5977 1.37012 85.5977 1.2872C85.5977 1.20427 85.6656 1.13712 85.7496 1.13712C85.8335 1.13712 85.9015 1.20427 85.9015 1.2872C85.9015 1.37012 85.8335 1.4375 85.7496 1.4375Z" fill="#B8C6D8"/>
<path d="M85.4471 4.38672C85.3629 4.38672 85.2949 4.31957 85.2949 4.23665C85.2949 4.15373 85.3629 4.08634 85.4471 4.08634C85.5308 4.08634 85.599 4.15373 85.599 4.23665C85.599 4.31957 85.5308 4.38672 85.4471 4.38672Z" fill="#B8C6D8"/>
<path d="M83.0623 3.93652C82.9784 3.93652 82.9102 3.86938 82.9102 3.78645C82.9102 3.70353 82.9784 3.63614 83.0623 3.63614C83.1463 3.63614 83.2142 3.70353 83.2142 3.78645C83.2142 3.86938 83.1463 3.93652 83.0623 3.93652Z" fill="#B8C6D8"/>
<path d="M83.4761 6.03613C83.3922 6.03613 83.3242 5.96898 83.3242 5.88605C83.3242 5.80313 83.3922 5.73574 83.4761 5.73574C83.5603 5.73574 83.6283 5.80313 83.6283 5.88605C83.6283 5.96898 83.5603 6.03613 83.4761 6.03613Z" fill="#B8C6D8"/>
<path d="M81.304 4.5376C81.2198 4.5376 81.1519 4.47021 81.1519 4.38728C81.1519 4.30436 81.2198 4.23721 81.304 4.23721C81.388 4.23721 81.4559 4.30436 81.4559 4.38728C81.4559 4.47021 81.388 4.5376 81.304 4.5376Z" fill="#B8C6D8"/>
<path d="M77.8897 0.836426C77.8058 0.836426 77.7378 0.769035 77.7378 0.686112C77.7378 0.603188 77.8058 0.536031 77.8897 0.536031C77.9737 0.536031 78.0419 0.603188 78.0419 0.686112C78.0419 0.769035 77.9737 0.836426 77.8897 0.836426Z" fill="#B8C6D8"/>
<path d="M71.001 0.686035C70.9171 0.686035 70.8491 0.618878 70.8491 0.535954C70.8491 0.453031 70.9171 0.385885 71.001 0.385885C71.085 0.385885 71.1532 0.453031 71.1532 0.535954C71.1532 0.618878 71.085 0.686035 71.001 0.686035Z" fill="#B8C6D8"/>
<path d="M69.253 0.537109C69.1691 0.537109 69.1011 0.469963 69.1011 0.38704C69.1011 0.304117 69.1691 0.236726 69.253 0.236726C69.3369 0.236726 69.4049 0.304117 69.4049 0.38704C69.4049 0.469963 69.3369 0.537109 69.253 0.537109Z" fill="#B8C6D8"/>
<path d="M68.2645 1.58838C68.1805 1.58838 68.1123 1.52123 68.1123 1.43831C68.1123 1.35539 68.1805 1.28824 68.2645 1.28824C68.3484 1.28824 68.4164 1.35539 68.4164 1.43831C68.4164 1.52123 68.3484 1.58838 68.2645 1.58838Z" fill="#B8C6D8"/>
<path d="M86.8571 9.18896C86.7132 9.10652 86.5685 9.02455 86.4238 8.94354L86.47 8.93685L86.612 8.65271L86.754 8.93685L87.0714 8.9825L86.8571 9.18896" fill="#B8C6D8"/>
<path d="M32.7964 6.46777L32.5124 6.32008L32.2284 6.46777L32.2826 6.1552L32.0527 5.93391L32.3704 5.8885L32.5124 5.60413L32.6544 5.8885L32.972 5.93391L32.7422 6.1552L32.7964 6.46777Z" fill="#B8C6D8"/>
<path d="M75.1007 3.78369L74.9526 3.7065L74.8046 3.78369L74.8326 3.62072L74.7129 3.50505L74.8784 3.48139L74.9526 3.33299L75.0267 3.48139L75.1924 3.50505L75.0724 3.62072L75.1007 3.78369" fill="#B8C6D8"/>
<path d="M32.3568 3.33398L32.2085 3.25703L32.0604 3.33398L32.0887 3.171L31.9688 3.05558L32.1345 3.03169L32.2085 2.88352L32.2828 3.03169L32.4485 3.05558L32.3285 3.171L32.3568 3.33398" fill="#B8C6D8"/>
<rect x="82.1333" y="104.522" width="0.948311" height="0.93677" fill="#B8C6D8"/>
<rect x="33.1221" y="104.067" width="0.851538" height="0.93677" fill="#B8C6D8"/>
<path d="M36.931 104.984C36.847 104.984 36.7788 104.917 36.7788 104.834C36.7788 104.751 36.847 104.684 36.931 104.684C37.0147 104.684 37.0829 104.751 37.0829 104.834C37.0829 104.917 37.0147 104.984 36.931 104.984Z" fill="#B8C6D8"/>
<path d="M42.4088 107.484C42.3248 107.484 42.2568 107.417 42.2568 107.334C42.2568 107.251 42.3248 107.184 42.4088 107.184C42.4929 107.184 42.5609 107.251 42.5609 107.334C42.5609 107.417 42.4929 107.484 42.4088 107.484Z" fill="#B8C6D8"/>
<path d="M83.6287 109.733C83.5445 109.733 83.4766 109.666 83.4766 109.583C83.4766 109.5 83.5445 109.433 83.6287 109.433C83.7127 109.433 83.7807 109.5 83.7807 109.583C83.7807 109.666 83.7127 109.733 83.6287 109.733Z" fill="#B8C6D8"/>
<path d="M32.5108 102.162C32.4269 102.162 32.3589 102.095 32.3589 102.012C32.3589 101.929 32.4269 101.862 32.5108 101.862C32.5948 101.862 32.6627 101.929 32.6627 102.012C32.6627 102.095 32.5948 102.162 32.5108 102.162Z" fill="#B8C6D8"/>
<path d="M67.8253 109.884C67.7413 109.884 67.6733 109.816 67.6733 109.734C67.6733 109.651 67.7413 109.584 67.8253 109.584C67.9094 109.584 67.9774 109.651 67.9774 109.734C67.9774 109.816 67.9094 109.884 67.8253 109.884Z" fill="#B8C6D8"/>
<path d="M59.6773 110.034C59.5934 110.034 59.5254 109.967 59.5254 109.884C59.5254 109.801 59.5934 109.734 59.6773 109.734C59.7613 109.734 59.8292 109.801 59.8292 109.884C59.8292 109.967 59.7613 110.034 59.6773 110.034Z" fill="#B8C6D8"/>
<path d="M41.0073 110.466L40.7233 110.318L40.4393 110.466L40.4935 110.153L40.2637 109.932L40.5813 109.887L40.7233 109.602L40.8651 109.887L41.1827 109.932L40.9529 110.153L41.0073 110.466Z" fill="#B8C6D8"/>
<path d="M85.5786 107.615L85.2946 107.468L85.0106 107.615L85.0648 107.303L84.835 107.082L85.1526 107.036L85.2946 106.752L85.4366 107.036L85.754 107.082L85.5244 107.303L85.5786 107.615Z" fill="#B8C6D8"/>
<path d="M79.327 107.034L79.1789 106.957L79.0306 107.034L79.059 106.871L78.939 106.756L79.1047 106.732L79.1789 106.583L79.253 106.732L79.4187 106.756L79.2989 106.871L79.327 107.034Z" fill="#B8C6D8"/>
<rect x="112.205" y="39.354" width="0.948311" height="0.960671" fill="#B8C6D8"/>
<path d="M106.751 21.7295C106.667 21.7295 106.599 21.6623 106.599 21.5794C106.599 21.4965 106.667 21.4293 106.751 21.4293C106.835 21.4293 106.903 21.4965 106.903 21.5794C106.903 21.6623 106.835 21.7295 106.751 21.7295Z" fill="#B8C6D8"/>
<path d="M98.1964 9.3833C98.1124 9.3833 98.0444 9.31615 98.0444 9.23323C98.0444 9.15031 98.1124 9.08292 98.1964 9.08292C98.2805 9.08292 98.3485 9.15031 98.3485 9.23323C98.3485 9.31615 98.2805 9.3833 98.1964 9.3833Z" fill="#B8C6D8"/>
<path d="M97.5327 17.2026C97.4603 17.1331 97.3882 17.0638 97.3154 16.9945C97.3432 16.9601 97.3863 16.9379 97.4345 16.9379C97.5184 16.9379 97.5864 17.0053 97.5864 17.0879C97.5864 17.1341 97.5656 17.1752 97.5327 17.2026" fill="#B8C6D8"/>
<path d="M119.303 54.0693C119.219 54.0693 119.151 54.0022 119.151 53.9193C119.151 53.8363 119.219 53.7692 119.303 53.7692C119.387 53.7692 119.455 53.8363 119.455 53.9193C119.455 54.0022 119.387 54.0693 119.303 54.0693Z" fill="#B8C6D8"/>
<path d="M102.168 16.3369L101.884 16.1895L101.6 16.3369L101.654 16.0246L101.424 15.8033L101.742 15.7579L101.884 15.4735L102.026 15.7579L102.343 15.8033L102.114 16.0246L102.168 16.3369Z" fill="#B8C6D8"/>
<path d="M105.481 20.1904L105.197 20.043L104.913 20.1904L104.968 19.8779L104.738 19.6568L105.055 19.6112L105.197 19.327L105.339 19.6112L105.657 19.6568L105.427 19.8779L105.481 20.1904Z" fill="#B8C6D8"/>
<path d="M92.4224 6.46777L92.1383 6.32008L91.8543 6.46777L91.9088 6.1552L91.6787 5.93391L91.9963 5.8885L92.1383 5.60413L92.2804 5.8885L92.5977 5.93391L92.3682 6.1552L92.4224 6.46777Z" fill="#B8C6D8"/>
<rect x="102.116" y="88.7974" width="0.948311" height="0.93677" fill="#B8C6D8"/>
<rect x="92.7036" y="104.067" width="0.948311" height="0.93677" fill="#B8C6D8"/>
<path d="M115.377 77.8457C115.293 77.8457 115.225 77.7786 115.225 77.6954C115.225 77.6127 115.293 77.5453 115.377 77.5453C115.461 77.5453 115.529 77.6127 115.529 77.6954C115.529 77.7786 115.461 77.8457 115.377 77.8457Z" fill="#B8C6D8"/>
<path d="M100.705 100.511C100.665 100.484 100.638 100.438 100.638 100.387C100.638 100.304 100.706 100.236 100.79 100.236C100.848 100.236 100.899 100.269 100.924 100.316C100.852 100.381 100.779 100.446 100.705 100.511Z" fill="#B8C6D8"/>
<path d="M115.792 67.499C115.708 67.499 115.64 67.4319 115.64 67.3489C115.64 67.2663 115.708 67.1989 115.792 67.1989C115.876 67.1989 115.944 67.2663 115.944 67.3489C115.944 67.4319 115.876 67.499 115.792 67.499Z" fill="#B8C6D8"/>
<path d="M105.016 85.3428C104.932 85.3428 104.864 85.2756 104.864 85.1927C104.864 85.1098 104.932 85.0426 105.016 85.0426C105.1 85.0426 105.168 85.1098 105.168 85.1927C105.168 85.2756 105.1 85.3428 105.016 85.3428Z" fill="#B8C6D8"/>
<path d="M99.4488 91.9902C99.3675 91.9902 99.301 91.9274 99.2969 91.848C99.3472 91.795 99.3961 91.7431 99.4461 91.6898C99.4469 91.6898 99.4478 91.6898 99.4488 91.6898C99.5325 91.6898 99.6007 91.7569 99.6007 91.8399C99.6007 91.9228 99.5325 91.9902 99.4488 91.9902" fill="#B8C6D8"/>
<path d="M103.372 92.1406C103.288 92.1406 103.22 92.0732 103.22 91.9905C103.22 91.9073 103.288 91.8402 103.372 91.8402C103.456 91.8402 103.524 91.9073 103.524 91.9905C103.524 92.0732 103.456 92.1406 103.372 92.1406Z" fill="#B8C6D8"/>
<path d="M92.1378 102.162C92.0538 102.162 91.9858 102.095 91.9858 102.012C91.9858 101.929 92.0538 101.862 92.1378 101.862C92.2217 101.862 92.2899 101.929 92.2899 102.012C92.2899 102.095 92.2217 102.162 92.1378 102.162Z" fill="#B8C6D8"/>
<path d="M93.8736 100.863C93.7897 100.863 93.7217 100.796 93.7217 100.713C93.7217 100.63 93.7897 100.563 93.8736 100.563C93.9573 100.563 94.0255 100.63 94.0255 100.713C94.0255 100.796 93.9573 100.863 93.8736 100.863Z" fill="#B8C6D8"/>
<path d="M93.7215 102.313C93.6373 102.313 93.5693 102.246 93.5693 102.163C93.5693 102.08 93.6373 102.013 93.7215 102.013C93.8054 102.013 93.8734 102.08 93.8734 102.163C93.8734 102.246 93.8054 102.313 93.7215 102.313Z" fill="#B8C6D8"/>
<path d="M91.9857 100.562C91.9015 100.562 91.8335 100.495 91.8335 100.412C91.8335 100.329 91.9015 100.262 91.9857 100.262C92.0696 100.262 92.1376 100.329 92.1376 100.412C92.1376 100.495 92.0696 100.562 91.9857 100.562Z" fill="#B8C6D8"/>
<path d="M114.685 79.8438C114.601 79.8438 114.533 79.7766 114.533 79.6937C114.533 79.611 114.601 79.5438 114.685 79.5438C114.769 79.5438 114.837 79.611 114.837 79.6937C114.837 79.7766 114.769 79.8438 114.685 79.8438Z" fill="#B8C6D8"/>
<path d="M117.098 60.0527C117.014 60.0527 116.946 59.9856 116.946 59.9027C116.946 59.82 117.014 59.7526 117.098 59.7526C117.182 59.7526 117.25 59.82 117.25 59.9027C117.25 59.9856 117.182 60.0527 117.098 60.0527Z" fill="#B8C6D8"/>
<path d="M108.366 90.5903L108.218 90.5131L108.07 90.5903L108.098 90.4271L107.978 90.3117L108.144 90.288L108.218 90.1396L108.292 90.288L108.458 90.3117L108.338 90.4271L108.366 90.5903Z" fill="#B8C6D8"/>
<path d="M112.677 96.0737C112.518 96.0737 112.39 95.9466 112.39 95.79C112.39 95.6336 112.518 95.5067 112.677 95.5067C112.835 95.5067 112.963 95.6336 112.963 95.79C112.963 95.9466 112.835 96.0737 112.677 96.0737Z" fill="#B8C6D8"/>
<path d="M106.82 103.609C106.661 103.609 106.533 103.482 106.533 103.325C106.533 103.169 106.661 103.042 106.82 103.042C106.978 103.042 107.107 103.169 107.107 103.325C107.107 103.482 106.978 103.609 106.82 103.609Z" fill="#B8C6D8"/>
<path d="M93.4805 2.25635C93.3221 2.25635 93.1934 2.12946 93.1934 1.97293C93.1934 1.8164 93.3221 1.68951 93.4805 1.68951C93.639 1.68951 93.7672 1.8164 93.7672 1.97293C93.7672 2.12946 93.639 2.25635 93.4805 2.25635Z" fill="#B8C6D8"/>
<path d="M112.963 7.25781C112.805 7.25781 112.676 7.13068 112.676 6.9744C112.676 6.81763 112.805 6.69073 112.963 6.69073C113.122 6.69073 113.25 6.81763 113.25 6.9744C113.25 7.13068 113.122 7.25781 112.963 7.25781Z" fill="#B8C6D8"/>
<path d="M104.517 10.5044C104.359 10.5044 104.23 10.3773 104.23 10.2207C104.23 10.064 104.359 9.93731 104.517 9.93731C104.676 9.93731 104.804 10.064 104.804 10.2207C104.804 10.3773 104.676 10.5044 104.517 10.5044Z" fill="#B8C6D8"/>
<path d="M12.5081 8.88428C12.3496 8.88428 12.2212 8.75715 12.2212 8.60086C12.2212 8.44409 12.3497 8.3172 12.5081 8.3172C12.6667 8.3172 12.7952 8.44409 12.7952 8.60086C12.7952 8.75715 12.6667 8.88428 12.5081 8.88428Z" fill="#B8C6D8"/>
<path d="M29.3099 0.568359C29.1514 0.568359 29.0229 0.441463 29.0229 0.284697C29.0229 0.128409 29.1514 0.00127966 29.3099 0.00127966C29.4683 0.00127966 29.5968 0.128409 29.5968 0.284697C29.5968 0.441463 29.4683 0.568359 29.3099 0.568359Z" fill="#B8C6D8"/>
<path d="M14.8838 102.175C14.7253 102.175 14.5967 102.048 14.5967 101.891C14.5967 101.735 14.7253 101.608 14.8838 101.608C15.0421 101.608 15.1707 101.735 15.1707 101.891C15.1707 102.048 15.0421 102.175 14.8838 102.175Z" fill="#B8C6D8"/>
<path d="M6.21706 108.625C6.05858 108.625 5.93018 108.498 5.93018 108.342C5.93018 108.185 6.05858 108.058 6.21706 108.058C6.37554 108.058 6.50405 108.185 6.50405 108.342C6.50405 108.498 6.37554 108.625 6.21706 108.625Z" fill="#B8C6D8"/>
<path d="M85.5602 0.446777C85.3894 0.368634 85.2184 0.291208 85.0469 0.214737C85.0781 0.0916662 85.1908 0.000618854 85.3251 0.000618854C85.4835 0.000618854 85.612 0.127749 85.612 0.284036C85.612 0.344735 85.5929 0.400656 85.5602 0.446777" fill="#B8C6D8"/>
</g>
<path d="M60.1073 1.16544C29.7783 1.16544 5.10373 25.5397 5.10373 55.5C5.10373 85.4603 29.7783 109.835 60.1073 109.835C90.4363 109.835 115.111 85.4603 115.111 55.5C115.111 25.5397 90.4363 1.16544 60.1073 1.16544V1.16544ZM60.1073 111C29.1277 111 3.92383 86.1028 3.92383 55.5C3.92383 24.8972 29.1277 8.32651e-08 60.1073 8.32651e-08C91.0867 8.32651e-08 116.291 24.8972 116.291 55.5C116.291 86.1028 91.0867 111 60.1073 111" fill="#B8C6D8"/>
<path d="M60.1067 30.1006C53.2387 30.1006 46.7816 32.7425 41.9253 37.54C37.0689 42.3373 34.3939 48.7158 34.3939 55.5003C34.3942 62.2848 37.0689 68.6633 41.9253 73.4609C46.7816 78.2579 53.2387 80.9 60.1067 80.9C66.9748 80.9 73.4316 78.2579 78.2882 73.4609C83.1446 68.6633 85.8193 62.2848 85.8193 55.5003C85.8193 48.7158 83.1446 42.3373 78.2882 37.54C73.4316 32.7425 66.9748 30.1006 60.1067 30.1006ZM60.1067 81.2432C53.1458 81.2432 46.6015 78.5656 41.6795 73.7034C36.7575 68.8412 34.0469 62.3766 34.0469 55.5003C34.0469 48.6244 36.7575 42.1597 41.6795 37.2972C46.6015 32.4351 53.1458 29.7575 60.1067 29.7575C67.0677 29.7575 73.6117 32.4351 78.5337 37.2972C83.456 42.1597 86.1666 48.6241 86.1666 55.5003C86.1666 62.3766 83.456 68.8412 78.5337 73.7034C73.6117 78.5656 67.0677 81.2432 60.1067 81.2432" fill="#B8C6D8"/>
<path d="M60.1075 47.5692C55.6807 47.5692 52.0793 51.1268 52.0793 55.4998C52.0793 59.8725 55.6807 63.43 60.1075 63.43C64.534 63.43 68.1357 59.8725 68.1357 55.4998C68.1357 51.1268 64.534 47.5692 60.1075 47.5692ZM60.1075 63.7734C55.4893 63.7734 51.7319 60.0618 51.7319 55.4998C51.7319 50.9378 55.4893 47.2264 60.1075 47.2264C64.7257 47.2264 68.4831 50.9378 68.4831 55.4998C68.4831 60.0618 64.7257 63.7734 60.1075 63.7734Z" fill="#B8C6D8"/>
<path d="M60.107 49.9444C57.0053 49.9444 54.4821 52.4369 54.4821 55.5008C54.4821 58.5648 57.0053 61.0573 60.107 61.0573C63.2087 61.0573 65.7318 58.5648 65.7318 55.5008C65.7318 52.4369 63.2087 49.9444 60.107 49.9444ZM60.107 61.4004C56.8139 61.4004 54.1348 58.7538 54.1348 55.5008C54.1348 52.2479 56.8139 49.6013 60.107 49.6013C63.4 49.6013 66.0792 52.2479 66.0792 55.5008C66.0792 58.7538 63.4 61.4004 60.107 61.4004Z" fill="#B8C6D8"/>
<path d="M60.1067 51.2081C57.7101 51.2081 55.7602 53.1344 55.7602 55.5018C55.7602 57.8693 57.7101 59.7953 60.1067 59.7953C62.5034 59.7953 64.453 57.8693 64.453 55.5018C64.453 53.1344 62.5034 51.2081 60.1067 51.2081ZM60.1067 60.1387C57.5185 60.1387 55.4131 58.0586 55.4131 55.5018C55.4131 52.9454 57.5185 50.8653 60.1067 50.8653C62.695 50.8653 64.8004 52.9454 64.8004 55.5018C64.8004 58.0586 62.695 60.1387 60.1067 60.1387Z" fill="#B8C6D8"/>
<path d="M60.1067 40.9854C52.0047 40.9854 45.4127 47.4967 45.4127 55.5004C45.4127 63.5041 52.0047 70.0154 60.1067 70.0154C68.209 70.0154 74.8004 63.5041 74.8004 55.5004C74.8004 47.4967 68.209 40.9854 60.1067 40.9854ZM60.1067 71.731C51.0468 71.731 43.6763 64.4498 43.6763 55.5004C43.6763 46.551 51.0468 39.2699 60.1067 39.2699C69.1663 39.2699 76.5371 46.551 76.5371 55.5004C76.5371 64.4498 69.1663 71.731 60.1067 71.731" fill="#B8C6D8"/>
<path d="M60.1064 6.41847C53.3988 6.41847 46.8919 7.71612 40.7662 10.2754C34.8495 12.7476 29.5361 16.2866 24.9727 20.7943C20.4095 25.302 16.827 30.551 14.3246 36.3954C11.7336 42.4466 10.42 48.8741 10.42 55.5003C10.42 62.1263 11.7336 68.5544 14.3246 74.6053C16.827 80.45 20.4095 85.699 24.9727 90.2067C29.5361 94.7141 34.8495 98.2534 40.7662 100.725C46.8919 103.285 53.3988 104.583 60.1064 104.583C66.814 104.583 73.3213 103.285 79.4466 100.725C85.3633 98.2534 90.677 94.7141 95.2402 90.2067C99.8031 85.699 103.386 80.45 105.888 74.6053C108.479 68.5544 109.793 62.1263 109.793 55.5003C109.793 48.8741 108.479 42.4466 105.888 36.3954C103.386 30.5507 99.8031 25.302 95.2402 20.794C90.677 16.2866 85.3633 12.7476 79.4466 10.2754C73.3213 7.71612 66.814 6.41847 60.1064 6.41847ZM60.1064 104.925C53.352 104.925 46.7996 103.619 40.631 101.041C34.6731 98.5519 29.3223 94.9885 24.7272 90.4492C20.1323 85.9102 16.5248 80.6246 14.0047 74.7389C11.3955 68.6453 10.0728 62.1726 10.0728 55.5003C10.0728 48.8281 11.3955 42.3554 14.0047 36.2618C16.5248 30.3764 20.1323 25.0905 24.7272 20.5515C29.322 16.0125 34.6731 12.4488 40.631 9.95941C46.7996 7.38213 53.352 6.07535 60.1064 6.07535C66.8609 6.07535 73.4133 7.38213 79.5819 9.95941C85.5398 12.4488 90.8908 16.0125 95.4857 20.5515C100.081 25.0905 103.688 30.3764 106.208 36.2618C108.817 42.3554 110.14 48.8281 110.14 55.5003C110.14 62.1723 108.817 68.6453 106.208 74.7389C103.688 80.6246 100.081 85.9102 95.4857 90.4492C90.8908 94.9882 85.5398 98.5519 79.5819 101.041C73.4133 103.619 66.8609 104.925 60.1064 104.925" fill="#B8C6D8"/>
<path d="M60.1066 4.28659C53.1075 4.28659 46.3178 5.6405 39.9264 8.31118C33.7527 10.8907 28.2081 14.5835 23.4469 19.2869C18.6856 23.9905 14.9472 29.4674 12.3359 35.5659C9.63262 41.8798 8.26176 48.5867 8.26176 55.5007C8.26176 62.4143 9.63262 69.1218 12.3359 75.4354C14.9472 81.5339 18.6856 87.0111 23.4469 91.7145C28.2084 96.4181 33.7527 100.111 39.9264 102.69C46.3178 105.361 53.1075 106.715 60.1066 106.715C67.1057 106.715 73.8955 105.361 80.2869 102.69C86.4605 100.111 92.0049 96.4181 96.7664 91.7145C101.528 87.0111 105.266 81.5339 107.877 75.4354C110.581 69.1218 111.951 62.4143 111.951 55.5007C111.951 48.5867 110.581 41.8798 107.877 35.5659C105.266 29.4674 101.528 23.9905 96.7664 19.2869C92.0049 14.5835 86.4605 10.8907 80.2869 8.31118C73.8955 5.6405 67.1057 4.28659 60.1066 4.28659ZM60.1066 107.058C53.061 107.058 46.2257 105.695 39.7912 103.006C33.576 100.409 27.9943 96.6919 23.2014 91.957C18.4081 87.2223 14.6447 81.7086 12.0161 75.569C9.2945 69.213 7.91455 62.4606 7.91455 55.5007C7.91455 48.5404 9.2945 41.7886 12.0161 35.4323C14.6447 29.293 18.4081 23.7793 23.2014 19.0443C27.9943 14.3094 33.576 10.5919 39.7912 7.99522C46.2257 5.30653 53.061 3.94347 60.1066 3.94347C67.1523 3.94347 73.9878 5.30653 80.4221 7.99522C86.6373 10.5919 92.2189 14.3094 97.0119 19.0443C101.805 23.7793 105.568 29.2928 108.197 35.4323C110.919 41.7886 112.298 48.5404 112.298 55.5007C112.298 62.4606 110.919 69.213 108.197 75.569C105.568 81.7086 101.805 87.222 97.0119 91.957C92.2189 96.6919 86.6373 100.409 80.4221 103.006C73.9878 105.695 67.1523 107.058 60.1066 107.058" fill="#B8C6D8"/>
<path d="M60.1066 4.28659C53.1075 4.28659 46.3178 5.6405 39.9264 8.31118C33.7527 10.8907 28.2081 14.5835 23.4469 19.2869C18.6856 23.9905 14.9472 29.4674 12.3359 35.5659C9.63262 41.8798 8.26176 48.5867 8.26176 55.5007C8.26176 62.4143 9.63262 69.1218 12.3359 75.4354C14.9472 81.5339 18.6856 87.0111 23.4469 91.7145C28.2084 96.4181 33.7527 100.111 39.9264 102.69C46.3178 105.361 53.1075 106.715 60.1066 106.715C67.1057 106.715 73.8955 105.361 80.2869 102.69C86.4605 100.111 92.0049 96.4181 96.7664 91.7145C101.528 87.0111 105.266 81.5339 107.877 75.4354C110.581 69.1218 111.951 62.4143 111.951 55.5007C111.951 48.5867 110.581 41.8798 107.877 35.5659C105.266 29.4674 101.528 23.9905 96.7664 19.2869C92.0049 14.5835 86.4605 10.8907 80.2869 8.31118C73.8955 5.6405 67.1057 4.28659 60.1066 4.28659ZM60.1066 107.058C53.061 107.058 46.2257 105.695 39.7912 103.006C33.576 100.409 27.9943 96.6919 23.2014 91.957C18.4081 87.2223 14.6447 81.7086 12.0161 75.569C9.2945 69.213 7.91455 62.4606 7.91455 55.5007C7.91455 48.5404 9.2945 41.7886 12.0161 35.4323C14.6447 29.293 18.4081 23.7793 23.2014 19.0443C27.9943 14.3094 33.576 10.5919 39.7912 7.99522C46.2257 5.30653 53.061 3.94347 60.1066 3.94347C67.1523 3.94347 73.9878 5.30653 80.4221 7.99522C86.6373 10.5919 92.2189 14.3094 97.0119 19.0443C101.805 23.7793 105.568 29.2928 108.197 35.4323C110.919 41.7886 112.298 48.5404 112.298 55.5007C112.298 62.4606 110.919 69.213 108.197 75.569C105.568 81.7086 101.805 87.222 97.0119 91.957C92.2189 96.6919 86.6373 100.409 80.4221 103.006C73.9878 105.695 67.1523 107.058 60.1066 107.058" fill="#B8C6D8"/>
<path d="M60.1064 10.1245C53.905 10.1245 47.8896 11.3243 42.2268 13.6904C36.7571 15.9755 31.8447 19.2473 27.626 23.4147C23.4074 27.582 20.0952 32.4344 17.7819 37.8379C15.3866 43.432 14.172 49.3742 14.172 55.4999C14.172 61.6259 15.3866 67.5682 17.7819 73.162C20.0952 78.5652 23.4074 83.4179 27.626 87.5852C31.8447 91.7526 36.7571 95.0244 42.2268 97.3098C47.8896 99.6756 53.905 100.875 60.1064 100.875C66.3076 100.875 72.3233 99.6756 77.9863 97.3098C83.4557 95.0244 88.3679 91.7526 92.5868 87.5852C96.8055 83.4179 100.117 78.5652 102.431 73.162C104.826 67.5682 106.041 61.6259 106.041 55.4999C106.041 49.3742 104.826 43.4317 102.431 37.8379C100.117 32.4344 96.8055 27.582 92.5868 23.4147C88.3679 19.2473 83.4557 15.9755 77.9863 13.6904C72.3233 11.3243 66.3076 10.1245 60.1064 10.1245V10.1245ZM60.1064 101.447C53.8273 101.447 47.7358 100.232 42.0013 97.8364C36.4625 95.5222 31.4883 92.209 27.2167 87.9896C22.9453 83.7699 19.5913 78.8562 17.2487 73.3846C14.8231 67.72 13.5933 61.7027 13.5933 55.4999C13.5933 49.2972 14.8231 43.2798 17.2487 37.615C19.5913 32.1437 22.9453 27.23 27.2167 23.0103C31.4883 18.7906 36.4625 15.4777 42.0013 13.1635C47.7358 10.7677 53.8273 9.55269 60.1064 9.55269C66.3856 9.55269 72.477 10.7677 78.2113 13.1635C83.7503 15.4777 88.7245 18.7906 92.9962 23.0103C97.2676 27.23 100.621 32.1437 102.964 37.615C105.39 43.2798 106.62 49.2972 106.62 55.4999C106.62 61.7027 105.39 67.72 102.964 73.3846C100.621 78.8562 97.2676 83.7699 92.9962 87.9896C88.7245 92.209 83.7503 95.5222 78.2113 97.8364C72.477 100.232 66.3856 101.447 60.1064 101.447" fill="#B8C6D8"/>
<path d="M60.1065 27.9134C52.647 27.9134 45.6339 30.783 40.3592 35.9936C35.0842 41.2041 32.1794 48.1319 32.1794 55.5007C32.1794 62.8694 35.0842 69.7972 40.3592 75.008C45.6339 80.2186 52.647 83.088 60.1065 83.088C67.5663 83.088 74.5791 80.2186 79.8541 75.0078C85.1288 69.7972 88.0335 62.8694 88.0335 55.5007C88.0335 48.1319 85.1288 41.2041 79.8541 35.9936C74.5791 30.783 67.5663 27.9134 60.1065 27.9134ZM60.1065 83.8887C52.4304 83.8887 45.2138 80.9358 39.7859 75.574C34.3583 70.2121 31.3691 63.0834 31.3691 55.5007C31.3691 47.9179 34.3583 40.7892 39.7859 35.4273C45.2138 30.0658 52.4304 27.1127 60.1065 27.1127C67.7823 27.1127 74.9991 30.0658 80.427 35.4273C85.8546 40.7892 88.8441 47.9179 88.8441 55.5007C88.8441 63.0834 85.8546 70.2121 80.427 75.574C74.9991 80.9358 67.7823 83.8887 60.1065 83.8887Z" fill="#B8C6D8"/>
<path d="M60.1068 47.3989C60.1651 47.3989 60.2224 47.4019 60.2804 47.4033V6.41439H59.9331V47.4033C59.9909 47.4019 60.0484 47.3989 60.1068 47.3989" fill="#B8C6D8"/>
<path d="M56.1559 48.3991L35.4106 12.904L35.1099 13.0755L55.8549 48.5698C55.9537 48.5105 56.0544 48.454 56.1559 48.3991Z" fill="#B8C6D8"/>
<path d="M53.0909 51.3022L17.1595 30.8096L16.9858 31.1067L52.9178 51.5996C52.9736 51.4993 53.0308 51.3998 53.0909 51.3022Z" fill="#B8C6D8"/>
<path d="M51.9038 55.5008C51.9038 55.4434 51.9069 55.3866 51.9083 55.3292H10.4146V55.6724H51.9083C51.9069 55.6153 51.9038 55.5585 51.9038 55.5008Z" fill="#B8C6D8"/>
<path d="M64.3577 48.5698L85.1027 13.0755L84.802 12.904L64.0566 48.3988C64.1579 48.454 64.2589 48.5105 64.3577 48.5698" fill="#B8C6D8"/>
<path d="M67.2957 51.5996L103.227 31.1067L103.054 30.8096L67.1226 51.3022C67.1826 51.3998 67.2398 51.4993 67.2957 51.5996Z" fill="#B8C6D8"/>
<path d="M64.0566 62.6013L84.802 98.0962L85.1027 97.9244L64.3577 62.4303C64.2589 62.4896 64.1579 62.5462 64.0566 62.6013Z" fill="#B8C6D8"/>
<path d="M67.1226 59.7007L103.054 80.1934L103.227 79.8965L67.2957 59.4033C67.2398 59.5036 67.1826 59.6031 67.1226 59.7007Z" fill="#B8C6D8"/>
<path d="M68.3037 55.3292C68.3051 55.3866 68.3079 55.4434 68.3079 55.5008C68.3079 55.5585 68.3051 55.6153 68.3037 55.6724H109.797V55.3292H68.3037Z" fill="#B8C6D8"/>
<path d="M60.1068 63.6022C60.0484 63.6022 59.9909 63.5991 59.9331 63.5977V104.587H60.2804V63.5977C60.2224 63.5991 60.1651 63.6022 60.1068 63.6022" fill="#B8C6D8"/>
<path d="M52.9178 59.4033L16.9858 79.8965L17.1595 80.1934L53.0909 59.7007C53.0308 59.6031 52.9736 59.5036 52.9178 59.4033" fill="#B8C6D8"/>
<path d="M55.8549 62.4303L35.1099 97.9246L35.4106 98.0962L56.1559 62.6013C56.0544 62.5462 55.9537 62.4896 55.8549 62.4303Z" fill="#B8C6D8"/>
<path d="M60.1072 36.8727C49.7087 36.8727 41.2495 45.2292 41.2495 55.5009C41.2495 65.7726 49.7087 74.1294 60.1072 74.1294C70.5054 74.1294 78.9648 65.7726 78.9648 55.5009C78.9648 45.2292 70.5054 36.8727 60.1072 36.8727ZM60.1072 75.0083C49.2183 75.0083 40.3599 66.2574 40.3599 55.5009C40.3599 44.7448 49.2183 35.9938 60.1072 35.9938C70.9958 35.9936 79.8545 44.7448 79.8545 55.5009C79.8545 66.2574 70.9958 75.0083 60.1072 75.0083Z" fill="#B8C6D8"/>
<path d="M45.1735 22.0977C46.2102 21.9045 47.2458 21.682 48.2752 21.4314C48.5936 22.902 48.6699 24.4959 48.7527 26.0838C48.797 26.9327 49.9942 26.9125 50.0733 26.0838C50.2198 24.5497 50.1006 22.7526 49.6267 21.0819C50.5245 20.8364 51.4142 20.5634 52.2929 20.2607C52.7898 22.1562 53.7345 23.9219 55.0116 25.1273C55.5551 25.6403 56.5828 24.948 56.0994 24.2983C55.0156 22.8419 54.0605 21.5245 53.5398 19.8059C54.1896 19.5564 54.8338 19.294 55.4662 19.0057C55.9429 18.7884 55.6053 17.9916 55.1068 18.1635C54.501 18.3727 53.8967 18.5814 53.292 18.7893C52.9843 17.0978 53.1562 15.482 53.3179 13.757C53.3487 13.428 52.826 13.2924 52.6826 13.5871C51.8903 15.2117 51.7343 17.2366 52.0676 19.207C51.1499 19.5182 50.2305 19.8228 49.3074 20.116C48.4685 17.9343 46.9377 16.1289 44.4827 15.6804C44.2625 15.6402 44.0902 15.9487 44.3194 16.0626C46.4178 17.1044 47.4744 18.6812 48.0356 20.5104C47.0222 20.8172 46.0028 21.1088 44.9715 21.3729C44.492 21.4957 44.6982 22.1861 45.1735 22.0977" fill="#B8C6D8"/>
<path d="M65.4879 15.7717C66.312 14.9727 67.5773 15.3252 68.244 16.1209C68.9078 16.9136 68.9199 18.0946 68.8817 19.0771C68.8152 20.8035 68.5358 22.516 68.4667 24.243C68.4364 25.006 69.6757 25.192 69.8331 24.4254C70.1084 23.0825 70.5315 21.7685 71.3058 20.6181C71.7188 20.0042 72.223 19.4224 72.7614 18.9113C73.3228 18.3786 75.7245 16.3864 76.0104 18.8745C76.0837 19.5144 76.9515 19.5186 77.0222 18.8745C77.2862 16.4665 74.2431 16.507 72.8333 17.4992C71.86 18.1841 71.025 19.1616 70.3272 20.2439C70.4111 18.581 70.2464 16.9266 69.3576 15.7332C68.3402 14.3668 66.1582 13.8416 64.9549 15.2454C64.6457 15.6065 65.1364 16.1123 65.4879 15.7717" fill="#B8C6D8"/>
<path d="M25.0662 32.0192C26.8285 32.2293 28.5885 32.3931 30.3612 32.4928C30.7402 32.5145 30.8914 32.0993 30.7579 31.8105C30.4237 31.0893 30.1816 30.3659 29.9995 29.6124C30.7537 29.8393 31.5544 30.1112 32.2805 30.1439C32.5493 30.1561 32.8215 30.1938 33.0431 29.9851C33.2659 29.7753 33.2339 29.5134 33.2555 29.2479C33.3237 28.4156 33.1363 27.473 33.0215 26.6016C33.7443 26.8771 34.4665 27.1534 35.1909 27.4242C35.3881 27.4979 35.6502 27.3413 35.6925 27.1429C35.9002 26.1645 35.8923 25.2646 35.7094 24.3389C36.3067 24.797 36.9054 25.2538 37.5179 25.6909C37.9584 26.0049 38.3913 25.276 37.9452 24.9683C37.0931 24.3808 36.2141 23.8289 35.3418 23.2705C35.1062 23.1191 34.804 23.3691 34.8758 23.6244C35.1508 24.6008 35.1654 25.5354 34.9928 26.504C34.2268 26.2377 33.46 25.9738 32.6933 25.7103C32.4839 25.6385 32.211 25.8319 32.2326 26.057C32.2842 26.5886 32.3291 27.1204 32.374 27.6526C32.3872 27.8103 32.6038 29.1365 32.5084 29.2479C32.1902 29.6212 29.9947 28.6983 29.5234 28.5517C29.1631 28.4397 28.9143 28.7867 28.9659 29.1024C29.1062 29.9591 29.3396 30.7578 29.6541 31.5458C28.1256 31.461 26.5987 31.42 25.0662 31.4166C24.6633 31.4158 24.6872 31.974 25.0662 32.0192" fill="#B8C6D8"/>
<path d="M41.4482 28.4275C40.5961 27.84 39.717 27.2882 38.8448 26.7297C38.6088 26.5786 38.3069 26.8281 38.3787 27.0836C38.6537 28.06 38.6683 28.9946 38.4957 29.9633C37.7298 29.6969 36.963 29.4331 36.1962 29.1695C35.9869 29.0974 35.7139 29.2912 35.7355 29.5162C35.7871 30.0478 35.832 30.5797 35.8769 31.1118C35.8901 31.2695 36.1067 32.5957 36.0113 32.7071C35.6931 33.0804 33.4977 32.1575 33.026 32.0109C32.6661 31.8989 32.4172 32.2459 32.4688 32.5616C32.6091 33.4183 32.8425 34.2171 33.1573 35.005C31.6285 34.9205 30.1016 34.8792 28.5692 34.8759C28.1663 34.875 28.1901 35.4332 28.5692 35.4784C30.3314 35.6885 32.0914 35.8523 33.8641 35.9523C34.2429 35.9737 34.3944 35.5585 34.2605 35.2697C33.9267 34.5483 33.6845 33.8252 33.5027 33.0716C34.2566 33.2986 35.0573 33.5705 35.7837 33.6032C36.0522 33.6154 36.3244 33.653 36.546 33.4443C36.7688 33.2345 36.7368 32.9726 36.7584 32.7071C36.8263 31.8748 36.6389 30.9322 36.5244 30.0608C37.2469 30.3363 37.9694 30.6126 38.6938 30.8834C38.8911 30.9571 39.1531 30.8006 39.1955 30.6021C39.4031 29.6238 39.3952 28.7238 39.2123 27.7981C39.8096 28.2565 40.4084 28.713 41.0209 29.1498C41.4613 29.4641 41.8943 28.7352 41.4482 28.4275" fill="#B8C6D8"/>
<path d="M82.6195 30.7414C82.817 29.1826 84.4044 28.1755 85.9201 28.3706C86.0508 28.3875 86.1473 28.3357 86.2082 28.2533C87.2797 28.7217 88.0263 29.658 87.9298 30.9595C87.8223 32.4065 86.6835 33.6116 85.162 33.465C83.8015 33.3342 82.4365 32.1859 82.6195 30.7414ZM85.0876 34.5597C88.023 34.8003 89.2802 31.9933 88.7182 29.7361C90.1651 30.0745 91.8833 29.7009 93.0701 30.7378C93.4054 31.0304 94.0016 30.6488 93.7238 30.2394C93.1739 29.4276 92.3813 29.1388 91.4246 28.9906C90.8727 28.9052 90.3127 28.9124 89.7597 28.8434C89.2664 28.7821 88.7541 28.7045 88.3484 28.398C87.7497 27.9449 87.7185 27.3617 87.679 26.6334C87.571 24.6267 86.4731 22.7726 84.2353 22.6265C83.9252 22.6063 83.891 23.0536 84.1646 23.1417C85.8999 23.6988 86.7048 24.8681 86.6729 26.6334C86.6689 26.857 86.6613 27.0715 86.6622 27.2791C86.2138 27.1023 85.6984 27.0056 85.1081 27.0225C84.7504 27.0327 84.6123 27.3124 84.6693 27.5629C83.1405 27.7802 81.8078 29.0083 81.5822 30.6025C81.2935 32.6443 83.104 34.3973 85.0876 34.5597" fill="#B8C6D8"/>
<path d="M24.775 42.1758C24.3598 41.4607 24.6201 40.343 25.3569 40.0417C25.888 39.8247 26.5967 40.0655 27.0123 40.4325C28.1937 41.4768 27.3231 42.8806 25.9986 43.0062C25.8305 43.0222 25.6613 43.0261 25.491 43.0222C25.209 42.7733 24.9616 42.4973 24.775 42.1758ZM17.6991 51.4021C17.5349 50.9744 17.7783 50.0681 18.0944 49.7438C18.5161 49.3117 19.5713 49.5628 20.099 49.6623C20.7662 49.7882 21.4247 49.9725 22.0866 50.1233C23.0596 50.3447 24.0343 50.5661 25.025 50.6903C25.9388 50.8051 26.0575 49.3985 25.236 49.1515C23.9914 48.7777 22.3113 48.2649 20.7528 48.1255C20.138 47.3024 19.3575 46.1572 19.6052 45.1533C19.9843 43.6198 21.2847 43.6029 22.5692 43.8329C23.4384 43.989 24.2868 44.2561 25.1543 44.3423C27.3708 46.1583 30.5368 47.6097 28.5215 50.575C28.1399 51.136 29.0332 51.8336 29.4793 51.3051C31.1518 49.3248 30.3878 46.7281 28.5655 45.1175C28.1399 44.7414 27.62 44.4274 27.0939 44.1126C29.0214 43.3182 29.3909 40.7665 27.5406 39.4594C25.5909 38.0816 22.8666 39.351 23.3391 41.8493C23.4008 42.1758 23.5262 42.4815 23.6976 42.7714C22.2976 42.4879 20.8964 42.1783 19.6333 43.0935C17.9639 44.303 18.513 46.6563 19.709 48.095C19.2498 48.1136 18.8137 48.1776 18.4198 48.3079C17.0769 48.7522 15.9368 50.6817 17.3144 51.6942C17.4931 51.8256 17.7774 51.6058 17.6991 51.4021" fill="#B8C6D8"/>
<path d="M26.9292 68.8783C25.2186 68.5862 25.2741 67.4523 25.7996 66.2445C27.2911 67.1605 28.8076 68.0981 30.3945 68.745C30.8647 68.9368 31.2887 68.2031 30.8973 67.8919C29.5458 66.8171 27.9451 65.9632 26.3725 65.1439C26.7906 64.4299 27.2367 63.7739 27.4266 63.3446C27.9477 62.1667 27.9774 60.841 27.0108 59.904C26.6503 59.5542 25.9604 60.0279 26.2839 60.458C27.3742 61.9084 26.3824 63.3061 25.5499 64.7151C25.2915 64.5799 25.0351 64.4449 24.782 64.3085C22.7574 63.2207 20.7017 62.1866 18.644 61.1606C20.09 60.7399 21.5467 60.4303 23.0475 60.2435C23.7054 60.162 23.7192 59.1307 23.0475 59.2086C21.3186 59.4093 19.6338 59.7704 17.9794 60.3067C17.7855 60.3696 17.5829 60.5672 17.6072 60.7895C17.6124 60.8388 17.6187 60.8876 17.624 60.9367C17.467 61.0899 17.4342 61.3643 17.6855 61.507L17.6901 61.5098C17.9093 63.3102 18.2209 65.0566 18.7699 66.8041C18.8836 67.1652 19.4363 67.0169 19.3443 66.6477C18.9694 65.14 18.7071 63.6035 18.6367 62.055C20.4985 63.1218 22.35 64.2054 24.2051 65.2839C24.4694 65.4377 24.7343 65.5957 24.9994 65.7561C24.846 66.1076 24.7354 66.4604 24.7032 66.816C24.5878 68.0964 25.3877 69.6205 26.8492 69.4628C27.1556 69.4298 27.2939 68.9401 26.9292 68.8783" fill="#B8C6D8"/>
<path d="M91.9149 48.5239C91.8136 47.8348 91.7499 47.127 91.6495 46.4443C94.3651 45.742 97.1691 44.5952 99.7232 43.4325C99.9024 44.277 99.924 45.1969 99.9451 46.1231C97.2592 46.7999 94.4942 47.5236 91.9149 48.5239V48.5239ZM98.1422 40.8585C98.8301 41.3541 99.2459 41.9741 99.5038 42.6681C96.8131 43.1947 93.8896 44.0453 91.4102 45.2551C91.1071 44.1464 90.5494 43.2013 89.3241 42.6662C88.9976 42.5234 88.568 42.9375 88.9024 43.2063C91.9003 45.6162 89.0214 50.9481 92.7201 52.8663C93.2964 53.1651 93.9956 52.391 93.4507 51.9312C92.7566 51.3456 92.3818 50.5748 92.1526 49.7231C94.7972 49.0516 97.4289 48.051 99.9734 47.0521C100.046 48.7425 100.302 50.3719 101.731 51.5049C102.05 51.7585 102.626 51.4298 102.351 51.0324C100.093 47.7664 102.624 42.3832 98.6163 40.0564C98.0838 39.7471 97.6629 40.5135 98.1422 40.8585" fill="#B8C6D8"/>
<path d="M101.553 63.5615C100.922 66.294 97.2221 64.1715 97.9224 61.9346C98.3803 60.4718 100.189 60.5685 101.088 61.5396C101.521 62.0061 101.74 62.6086 101.83 63.2245C101.703 63.2699 101.596 63.3761 101.553 63.5615V63.5615ZM98.9198 59.8321C96.7867 60.3201 96.363 62.9806 97.5678 64.5493C98.5607 65.8419 100.611 66.2294 101.754 65.2943C101.316 67.6568 99.7888 70.0148 98.141 71.5721C97.9269 71.7745 98.208 72.1514 98.4628 71.9843C100.855 70.4117 102.49 67.3971 102.863 64.6072C103.168 62.3254 101.766 59.181 98.9198 59.8321" fill="#B8C6D8"/>
<path d="M95.6637 69.4534C94.2345 70.8635 92.1737 69.5476 91.607 67.9916C91.557 67.8547 91.5169 67.7142 91.4816 67.5723C91.6188 67.5762 91.7605 67.5061 91.8149 67.3461C92.8791 64.2079 97.7105 67.4348 95.6637 69.4534V69.4534ZM91.3463 66.2991C91.4053 63.757 93.2222 60.9219 95.2179 59.7426C95.6076 59.5123 95.184 58.9369 94.831 59.2474C92.5138 61.282 90.3023 63.7337 90.4996 67.041C90.6351 69.3076 92.6903 71.7815 95.2008 70.9456C97.4285 70.2033 97.8115 67.6313 96.1236 66.1261C94.845 64.9859 92.0747 64.6616 91.3463 66.2991" fill="#B8C6D8"/>
<path d="M82.6913 77.7389C82.8608 76.4438 84.1284 75.732 85.3506 75.8016C87.8889 75.9463 88.6338 78.9221 87.0895 80.6524C86.9192 80.8431 87.0003 81.0737 87.1625 81.1762C86.2748 80.8018 85.3231 80.5149 84.4797 80.1718C83.3838 79.7261 82.5252 79.0099 82.6913 77.7389V77.7389ZM87.261 81.22C87.3608 81.2458 87.4745 81.2255 87.5766 81.1335C89.5052 79.3985 89.1658 76.2331 86.6967 75.1602C84.2664 74.1043 81.0183 75.9676 81.6055 78.7924C82.374 82.4883 90.0445 81.1058 89.3585 85.315C89.1439 86.6298 87.7674 87.3368 86.5116 87.3066C84.6407 87.2612 84.1646 85.8538 83.7317 84.412C83.3846 83.2549 82.8148 82.2959 81.5256 82.1293C81.1549 82.0814 81.0685 82.7075 81.4366 82.7768C83.4388 83.1537 82.8358 85.7933 83.8588 87.0558C84.5265 87.8795 85.6656 88.247 86.7088 88.2149C88.7384 88.1528 90.6744 86.5472 90.2645 84.4131C89.9348 82.697 88.6899 81.8372 87.261 81.22" fill="#B8C6D8"/>
<path d="M29.5187 75.528C29.5442 75.5535 29.57 75.5787 29.5958 75.6042C29.549 75.5978 29.503 75.5884 29.457 75.577L29.5187 75.528ZM39.8779 80.1836C38.7848 81.2169 37.9097 82.5292 37.0012 83.7232C36.5046 84.3762 35.9064 85.0599 35.3865 85.7766C35.3116 85.6616 35.1637 85.5896 35.0285 85.6807C34.8091 85.8279 34.5156 86.0945 34.255 86.1572C32.667 85.6516 32.2332 85.0757 32.9537 84.4288C33.0794 84.2617 33.2194 84.1079 33.374 83.9668C33.9663 83.3521 34.5967 82.7714 35.1915 82.1586C36.3023 81.0137 37.4619 79.8533 38.3583 78.5345C38.7427 77.9697 37.9355 77.4938 37.4737 77.8605C35.9659 79.0559 34.6798 80.6063 33.4293 82.0558C33.1369 82.3951 32.8025 82.7512 32.4938 83.1309C31.5315 83.2642 30.2527 83.834 29.4816 83.4843C27.4613 82.5672 31.1808 80.3058 31.649 79.9331C32.9644 78.886 35.0411 77.2466 35.5911 75.5831C35.9788 74.4099 35.0928 73.3606 33.9197 73.1674C32.53 72.9385 31.5057 73.9629 30.7178 74.9637C30.6797 74.8625 30.6429 74.7608 30.6036 74.6602C30.5299 74.4725 30.3528 74.342 30.1401 74.4002C29.4786 74.5806 28.9357 74.9637 28.5389 75.5149C28.4287 75.6682 28.5109 75.9082 28.6663 75.9952C29.1727 76.2788 29.799 76.3894 30.3534 76.1737L30.405 76.1424C30.4311 76.1346 30.4561 76.1241 30.4782 76.1083C30.5568 76.2693 30.6368 76.4304 30.7119 76.5925C30.8489 76.8888 31.3724 76.6759 31.2498 76.3688C31.1603 76.1441 31.0764 75.9174 30.992 75.6906L31.0251 75.6674C31.3107 75.3578 31.5921 75.031 31.9153 74.7577C32.2026 74.4476 32.5516 74.2586 32.9618 74.1898C33.7205 73.8027 34.1674 74.2298 34.3032 75.4711C34.0375 76.3095 32.631 77.437 32.0113 78.0423C30.8043 79.2213 28.9373 80.2036 28.1248 81.7066C27.6422 82.599 27.7963 83.6752 28.7634 84.1738C29.776 84.6963 30.8741 84.2648 31.924 83.938C31.6864 84.3446 31.5183 84.7778 31.4855 85.2426C31.428 86.0552 31.807 86.8703 32.6327 87.1253C33.4699 87.3844 34.28 86.9313 34.9466 86.4246C34.7502 86.7425 34.5793 87.0668 34.4486 87.3977C33.9969 88.5424 34.7213 90.2175 36.1581 89.7106C36.4931 89.5923 36.3623 89.0851 36.0091 89.1773C35.7131 88.8267 35.4171 88.4761 35.1211 88.1258C35.2319 87.9146 35.3427 87.7034 35.4536 87.4925C35.6912 87.1336 36.0192 86.8165 36.3031 86.4928C36.882 85.8329 37.4591 85.1744 38.0247 84.5031C38.9938 83.3537 40.0788 82.2141 40.847 80.9222C41.2058 80.3194 40.3826 79.7064 39.8779 80.1836" fill="#B8C6D8"/>
<path d="M56.4988 90.1523C55.4304 89.8987 54.3485 89.7075 53.2686 89.5093C52.8856 89.4389 52.4423 89.7549 52.5891 90.1806C53.3323 92.3338 52.6828 95.6636 49.8078 95.6605C48.4636 95.6591 47.178 94.7947 47.2041 93.3529C47.2299 91.9311 48.3527 90.6385 49.2267 89.6191C49.463 89.3433 49.4731 88.876 49.1049 88.6862C47.9496 88.0911 46.7804 87.5315 45.6009 86.9847C45.0807 86.7436 44.6408 87.4501 45.1444 87.756C46.0448 88.3034 46.9519 88.8353 47.8685 89.3536C46.7585 90.6473 45.7014 92.2202 46.0599 93.9616C46.3649 95.443 47.6235 96.3983 49.0901 96.6292C52.6609 97.191 54.394 93.683 53.8556 90.6889C54.6959 90.8095 55.5373 90.9242 56.3824 91.0018C56.8762 91.0473 56.973 90.2651 56.4988 90.1523" fill="#B8C6D8"/>
<path d="M56.5009 87.2914C54.8865 86.762 53.2132 86.4244 51.5719 85.986C49.9306 85.5475 48.3305 84.9494 46.681 84.5489C45.9987 84.3832 45.7823 85.31 46.3985 85.5605C49.4222 86.7903 52.9941 87.8036 56.2319 88.2553C56.862 88.3432 57.1359 87.4998 56.5009 87.2914" fill="#B8C6D8"/>
<path d="M77.8567 89.7971C77.4288 89.7971 77.3141 90.2747 77.5102 90.5341C77.3144 90.7932 77.4283 91.2705 77.8567 91.2705C78.284 91.2705 78.3988 90.793 78.2029 90.5338C78.3985 90.2744 78.2846 89.7971 77.8567 89.7971Z" fill="#B8C6D8"/>
<path d="M63.0756 93.8346C62.2698 93.2947 62.3267 91.7864 62.5259 90.9901C62.8085 89.8604 63.5217 88.9666 64.4032 88.2537C64.7063 89.2476 64.7921 90.4194 64.8766 91.4399C64.8507 91.4826 64.8331 91.5336 64.8398 91.601C64.9186 92.3989 65.0053 95.1267 63.0756 93.8346V93.8346ZM77.8563 93.8626C76.6661 95.4254 75.0873 90.8909 74.9426 90.5403C74.4858 89.4358 74.061 88.3208 73.5319 87.2468C73.3183 86.8142 72.6506 87.1227 72.7642 87.5664C73.063 88.731 73.5178 89.8333 74.0099 90.9286C74.0226 90.9569 74.0349 90.9862 74.0475 91.0148C74.0975 91.7024 74.141 92.3975 74.0809 93.0793C74.2069 93.872 73.8452 94.2157 72.9957 94.1106C72.4059 94.5652 72.0252 94.533 71.8538 94.0139C71.5336 93.7381 71.4377 93.0724 71.2865 92.6919C70.5623 90.8712 69.9218 89.0176 69.2464 87.1792C69.0767 86.7172 68.4002 86.8962 68.499 87.3826C68.8315 89.0173 69.307 90.6015 69.8842 92.16C69.8788 92.7639 69.9035 93.3698 69.8516 93.9709C69.729 95.3991 68.322 96.5928 67.0614 95.372C65.7671 94.1187 65.9267 91.5829 65.7062 89.9303C65.6128 89.231 65.4947 88.4062 65.2528 87.6493C65.3819 87.5678 65.5121 87.4882 65.6434 87.4126C67.5577 86.3117 70.0023 85.8103 71.2646 83.8691C71.5244 83.4689 70.9071 82.9811 70.5881 83.3536C69.0938 85.0972 66.7889 85.5961 64.8785 86.761C64.4307 85.9345 63.7327 85.3339 62.5891 85.3361C62.1483 85.3367 62.0473 85.991 62.4841 86.1016C63.2041 86.284 63.6912 86.7421 64.029 87.3486C62.6556 88.4336 61.5894 89.9644 61.5605 91.7581C61.5397 93.0142 62.2367 95.0033 63.8298 94.903C64.5808 94.8556 65.0104 94.4285 65.2438 93.8639C65.5252 94.9615 66.0291 96.0077 67.111 96.5296C69.5023 97.6829 70.4178 95.7489 70.5177 93.7741C70.8701 94.6062 71.3398 95.4845 72.2264 95.7885C73.2058 96.1247 74.2111 95.5624 74.6833 94.7051C74.935 94.2486 75.0416 93.7315 75.0548 93.1977C75.2285 93.5039 75.419 93.796 75.64 94.0552C76.3625 94.9027 77.5996 95.1455 78.2342 94.081C78.3812 93.8348 78.0212 93.6464 77.8563 93.8626" fill="#B8C6D8"/>
</svg>
