<svg width="103" height="69" viewBox="0 0 103 69" fill="none" xmlns="http://www.w3.org/2000/svg">
<path d="M88.5811 38.5901C91.7484 36.5087 94.3421 34.0926 96.9785 31.713C98.1283 30.5499 99.4623 29.5835 100.927 28.8526C101.157 28.7284 101.417 28.6705 101.678 28.6856C101.938 28.7007 102.19 28.7882 102.404 28.9381C102.617 29.088 102.785 29.2944 102.887 29.5342C102.99 29.7739 103.023 30.0374 102.984 30.295C102.851 31.0633 102.553 31.794 102.111 32.4372C102.044 32.565 101.879 32.6928 101.903 32.7902C102.251 34.5003 101.348 35.961 100.97 37.519C100.16 40.4892 98.8116 43.2863 96.9907 45.7715C95.3284 48.1913 93.3102 50.3476 91.0039 52.1679C90.626 52.4434 90.3683 52.8528 90.2838 53.312C89.7553 55.8105 89.0788 58.2756 88.2576 60.6943C87.446 63.0495 86.5855 63.7007 83.6623 63.2504C82.9339 63.1937 82.2413 62.9125 81.6804 62.4458C81.1195 61.9791 80.718 61.35 80.5315 60.6456C80.4217 60.2378 80.2386 60.2987 79.9701 60.463C79.1279 60.9803 78.2979 61.5341 77.4313 62.0149C74.0209 63.9882 70.448 65.6679 66.7515 67.0358C64.3125 67.8812 61.7866 68.4527 59.2206 68.7399C55.4594 69.1901 51.6508 69.0567 47.9305 68.3443C45.289 67.8338 42.77 66.8236 40.5095 65.3682C39.7101 64.857 38.9167 64.3276 38.1722 63.7494C37.8793 63.5181 37.6901 63.6459 37.4704 63.7494C35.1494 64.7367 32.5957 65.049 30.1043 64.6501C28.445 64.3586 26.8515 63.7733 25.3991 62.9217C24.7051 62.6143 24.0693 62.1902 23.5194 61.668C23.2509 61.3637 22.9519 61.0594 23.1349 60.6091C23.318 60.1587 23.7025 60.1952 24.0931 60.2135C27.3825 60.3474 29.9395 58.8685 31.984 56.4584C33.7426 54.3554 34.7837 51.7483 34.956 49.0153C35.0889 47.687 34.7308 46.356 33.9491 45.2725C33.8189 45.1024 33.7198 44.9108 33.6561 44.7065C33.5768 44.39 33.7904 44.1648 34.0101 43.9823C34.119 43.9098 34.2485 43.8743 34.3793 43.8809C34.51 43.8874 34.6352 43.9358 34.7363 44.0188C37.6351 45.9054 40.2288 48.0598 41.5043 51.4254C42.1799 53.142 42.427 54.9967 42.2244 56.8297C42.1512 57.4809 42.3465 57.6756 42.9751 57.6452C46.0239 57.4941 48.961 56.4529 51.4213 54.6509C53.43 53.2245 55.2454 51.545 56.8223 49.6544C57.0481 49.3805 57.1701 49.2831 56.7429 49.0823C52.8616 47.2565 51.5617 42.6251 52.9775 38.864C54.3933 35.1029 57.1457 32.8267 60.4778 30.9827C62.7792 29.7509 65.2926 28.9623 67.8866 28.6579C69.4806 28.3946 71.1121 28.4651 72.6773 28.8648C72.8843 28.9466 73.1111 28.9648 73.3286 28.9171C73.5461 28.8694 73.7443 28.7579 73.8978 28.597C76.1709 26.4469 78.8459 24.7636 81.7704 23.643C85.1878 22.2408 88.9626 21.9532 92.554 22.8214C94.0126 23.1562 95.4711 23.4726 96.7161 24.3734C96.7882 24.4355 96.8802 24.4696 96.9755 24.4696C97.0707 24.4696 97.1628 24.4355 97.2348 24.3734C97.3526 24.2952 97.4748 24.2241 97.601 24.1603C97.8408 23.9832 98.1269 23.8792 98.4248 23.8608C98.7226 23.8424 99.0194 23.9106 99.2793 24.0569C99.5188 24.2377 99.7029 24.4816 99.8107 24.7612C99.9185 25.0409 99.9458 25.345 99.8895 25.6392C99.7762 26.681 99.3289 27.6586 98.6141 28.4266C97.0151 30.4167 94.9524 31.9321 93.1216 33.6422C91.5104 35.1394 89.8688 36.5696 88.5811 38.5901ZM100.317 34.4091C100.14 34.5308 99.9567 34.6403 99.798 34.7742C97.9672 36.314 95.9838 37.6468 94.0614 39.0648C92.0109 40.5802 89.9847 42.1382 87.9586 43.7023C87.1591 44.3109 86.5245 45.1447 85.5907 45.595C85.3589 45.7232 85.0996 45.7942 84.8346 45.802C84.5695 45.8097 84.3065 45.7541 84.0675 45.6397C83.8285 45.5252 83.6204 45.3554 83.4607 45.1443C83.301 44.9333 83.1943 44.6872 83.1496 44.4265C82.8816 43.2413 82.9947 42.002 83.4731 40.8845C84.7327 37.8684 86.4948 35.0864 88.6848 32.6563C90.8208 30.2524 93.2009 28.0797 95.52 25.8583C95.9594 25.4384 95.8861 25.3228 95.3735 25.128C91.6386 23.6613 87.8549 23.1744 83.9369 24.3855C81.3026 25.1744 78.8322 26.4298 76.6441 28.0919C73.4279 30.5749 70.9685 33.7457 68.6494 37.0321C68.5528 37.1761 68.4077 37.2808 68.2403 37.3272C68.0729 37.3736 67.8944 37.3587 67.7372 37.285C67.5799 37.2114 67.4543 37.084 67.3832 36.9259C67.3121 36.7679 67.3001 36.5896 67.3495 36.4235C67.4527 36.1832 67.5882 35.9579 67.7523 35.7541C69.1356 34.05 70.5271 32.352 71.9266 30.6601C72.0365 30.5201 72.2745 30.4349 72.1768 30.2098C72.0792 29.9846 71.8961 30.0576 71.7374 30.0333C70.613 29.8499 69.4675 29.8335 68.3382 29.9846C64.2432 30.5445 60.5144 31.9747 57.4203 34.8533C55.2111 36.8982 53.8014 39.3022 53.8319 42.4121C53.8319 44.67 55.5285 47.2139 57.5729 47.999C57.7296 48.0834 57.9127 48.1052 58.0849 48.06C58.2572 48.0148 58.4057 47.9059 58.5005 47.7555C59.6845 46.2219 60.8623 44.7126 62.0706 43.1728C63.279 41.6331 64.3836 40.3064 65.5614 38.9127C65.8483 38.5658 66.2388 38.3041 66.6721 38.6631C67.1054 39.0222 66.8735 39.3509 66.6721 39.6856C66.5701 39.8457 66.4515 39.9946 66.3182 40.1299C65.0976 41.627 63.8771 43.1181 62.6565 44.6274C60.9172 46.8061 59.2817 49.0701 57.4203 51.1393C55.3322 53.5964 52.8083 55.6491 49.9749 57.1948C47.9289 58.2477 45.6874 58.8692 43.3901 59.0206C42.8408 59.0632 42.2549 58.8259 41.724 59.1545C41.4433 59.331 41.1686 59.5562 40.8269 59.2884C40.69 59.1726 40.5958 59.0144 40.5593 58.8391C40.5228 58.6638 40.5461 58.4813 40.6255 58.3207C41.0468 56.7648 41.0886 55.1309 40.7476 53.5555C40.3612 51.6444 39.4384 49.8821 38.0867 48.4737C37.5761 47.8415 36.956 47.3055 36.2559 46.8913C36.7319 50.4394 35.7006 53.525 33.8148 56.3489C31.929 59.1728 29.3048 61.102 25.7652 61.5706C26.5525 61.9966 27.3336 62.374 28.127 62.7148C29.8615 63.4362 31.7589 63.6779 33.6195 63.4147C35.4076 63.1956 37.1774 62.8061 38.5444 61.4732C38.5993 61.4003 38.6699 61.3406 38.751 61.2985C38.8322 61.2564 38.9217 61.233 39.0131 61.2301C39.1045 61.2272 39.1954 61.2448 39.2791 61.2816C39.3628 61.3184 39.437 61.3735 39.4965 61.4428C39.5705 61.4952 39.632 61.5635 39.6762 61.6426C39.7205 61.7216 39.7465 61.8096 39.7523 61.9C39.7582 61.9904 39.7437 62.0809 39.71 62.165C39.6763 62.2491 39.6242 62.3247 39.5575 62.3861C39.2035 62.733 39.3927 62.8974 39.6612 63.1712C40.3277 63.7405 41.0639 64.2231 41.8522 64.6075C43.1176 65.3967 44.4795 66.0206 45.9044 66.4637C49.2061 67.4206 52.6427 67.8318 56.0777 67.6809C58.7605 67.6301 61.4262 67.2416 64.0113 66.5246C66.943 65.6891 69.7828 64.5616 72.4881 63.1591C76.261 61.3331 79.8496 59.1504 83.2045 56.641C85.6884 54.7179 88.16 52.7582 90.6316 50.8168C90.7903 50.689 90.9978 50.5916 91.0527 50.3116C88.6358 50.6058 86.187 50.5051 83.8026 50.0134C83.7316 49.9852 83.6552 49.9729 83.5789 49.9775C83.5025 49.9822 83.4282 50.0036 83.3611 50.0402C83.294 50.0768 83.2359 50.1278 83.1909 50.1895C83.1459 50.2511 83.1152 50.3219 83.1008 50.3968C82.325 52.4248 81.3819 54.3851 80.2813 56.2576C79.0608 58.4242 77.7975 60.5178 75.0573 61.2116C73.0129 61.7289 71.1149 61.8628 69.2231 60.8403C67.3312 59.8179 66.959 58.1442 68.2222 56.6228C69.3696 55.2412 70.5657 53.9084 71.829 52.6243C73.5011 50.9202 75.3381 49.3805 76.9431 47.6095C77.1994 47.3295 77.2116 47.22 76.9065 46.9705C75.7995 46.0838 74.8092 45.0614 73.9588 43.9275C73.312 43.0329 72.5857 42.1626 72.4332 41.0062C72.3929 40.8566 72.407 40.6976 72.4729 40.5573C72.5388 40.417 72.6522 40.3044 72.7932 40.2394C73.1411 40.0933 73.373 40.2942 73.5927 40.5315C73.8124 40.7689 73.8429 41.1888 74.0199 41.4992C75.2637 43.8291 77.159 45.7488 79.4758 47.0252C83.3431 49.0679 87.8175 49.6575 92.0841 48.6867C92.7946 48.5595 93.4404 48.1946 93.9149 47.6521C95.3476 45.9191 96.6278 44.0662 97.7414 42.1139C99.0962 39.6978 99.6515 37.0625 100.317 34.4091ZM73.2998 60.183C75.1306 59.8118 76.5647 59.2823 77.5717 57.9617C78.1429 57.1872 78.6588 56.3738 79.1157 55.5273C80.1469 53.7274 81.0523 51.8586 81.8253 49.9343C81.9535 49.5996 81.8864 49.484 81.5568 49.3866C80.63 49.1076 79.7359 48.7302 78.8899 48.2607C78.8283 48.2087 78.756 48.1708 78.6782 48.1495C78.6004 48.1282 78.5189 48.124 78.4393 48.1374C78.3597 48.1507 78.284 48.1811 78.2174 48.2266C78.1509 48.2721 78.095 48.3315 78.0538 48.4007C76.8332 49.77 75.4845 50.9689 74.1724 52.2226C72.351 53.903 70.6768 55.7354 69.1682 57.7C68.6677 58.3694 68.7898 58.765 69.4672 59.3006C70.0048 59.7051 70.6215 59.9926 71.2774 60.1446C71.9334 60.2966 72.614 60.3097 73.2753 60.183H73.2998ZM101.665 30.0881C100.402 30.4897 99.5783 31.3052 98.6995 32.0538C96.5696 33.8187 94.6412 35.8088 92.4442 37.5312C91.2846 38.4258 90.0702 39.2474 88.929 40.1725C88.2999 40.7865 87.5525 41.2668 86.7319 41.5844C86.4512 41.6635 86.1217 41.7061 85.9508 41.4444C85.8565 41.3342 85.796 41.1993 85.7766 41.0558C85.7571 40.9123 85.7794 40.7662 85.8409 40.635C86.5525 39.1679 87.4156 37.7788 88.4163 36.4905C90.5462 34.0013 93.0788 31.9382 95.52 29.7959C96.6028 28.8745 97.5301 27.7854 98.2662 26.5704C98.4554 26.2417 98.7605 25.7731 98.4127 25.481C98.0648 25.1889 97.8634 25.7123 97.6132 25.9009C96.0207 27.2414 94.4991 28.6633 93.0544 30.1611C90.9766 32.0548 89.0843 34.1416 87.4033 36.3931C86.3335 37.9803 85.4219 39.6681 84.6814 41.4322C84.3784 42.1054 84.2624 42.8474 84.3458 43.5806C84.3824 43.8666 84.3458 44.2683 84.6692 44.39C84.9927 44.5117 85.3161 44.25 85.5419 44.0249C87.2995 42.2478 89.3928 40.9028 91.3701 39.4056C92.6516 38.4319 93.9759 37.519 95.2575 36.5391C97.0884 35.1515 99.0046 33.8857 100.579 32.1999C101.145 31.6237 101.517 30.8853 101.641 30.0881H101.665ZM88.636 54.0423C88.3126 54.2858 88.1173 54.4136 87.9342 54.5657C86.1949 55.9776 84.4739 57.42 82.6309 58.6981C81.5873 59.4223 81.4836 60.2317 82.338 61.1324C82.9672 61.7129 83.8002 62.0233 84.657 61.9966C84.8826 62.051 85.1168 62.0604 85.346 62.0243C85.5753 61.9882 85.7952 61.9074 85.9931 61.7864C86.1909 61.6654 86.3629 61.5066 86.4991 61.3192C86.6353 61.1318 86.7331 60.9194 86.7869 60.6943C87.4948 58.765 88.0074 56.7749 88.5384 54.7909C88.584 54.5432 88.6166 54.2934 88.636 54.0423V54.0423Z" fill="#2C3639"/>
<path d="M38.49 58.3635C38.49 57.974 38.191 57.7123 38.075 57.3897C37.9957 57.1645 37.8797 56.9089 38.1544 56.7811C38.429 56.6533 38.5999 56.8176 38.7647 57.0002C39.2315 57.5705 39.5875 58.2227 39.8143 58.9234C39.7281 58.1384 39.4743 57.3809 39.0698 56.702C38.3372 55.3711 37.3816 54.1752 36.2442 53.1661C36.0001 52.9348 35.756 52.7096 35.5363 52.4662C35.3166 52.2227 35.103 52.0097 35.3776 51.7298C35.6522 51.4498 35.8719 51.675 36.0672 51.8393C36.4334 52.1436 36.7873 52.4479 37.1169 52.7948C37.7788 53.5086 38.3905 54.2671 38.9477 55.0649C39.4822 55.8418 39.9304 56.6744 40.2842 57.5479C40.1402 56.5281 39.8026 55.5449 39.2895 54.651C38.4894 53.2766 37.5129 52.0122 36.3846 50.8899C36.261 50.7799 36.1448 50.662 36.0367 50.5369C35.8658 50.3178 35.6034 50.0744 35.8902 49.8005C36.1771 49.5267 36.3662 49.8005 36.5798 49.9405C37.2719 50.517 37.9243 51.1392 38.5327 51.8028C37.9772 50.7826 37.3297 49.815 36.5982 48.912C36.3471 48.6264 36.1413 48.3042 35.9879 47.9565C35.933 47.7739 35.8902 47.567 36.1099 47.4574C36.3296 47.3479 36.4273 47.5001 36.531 47.6339C37.9042 49.4597 39.5458 51.0786 40.333 53.2573C40.9019 54.9411 41.2426 56.6931 41.3461 58.4669C41.3356 58.7504 41.2153 59.0187 41.0105 59.2155C40.3575 60.1162 39.4481 60.8283 38.8074 61.6499C37.8614 62.8671 36.6104 62.9218 35.4142 63.2018C33.9425 63.5158 32.4146 63.4467 30.9775 63.0009C30.8389 62.9651 30.704 62.9162 30.5747 62.8549C30.3428 62.7393 30.0377 62.6236 30.1658 62.295C30.294 61.9663 30.5625 62.088 30.7761 62.1367C32.5858 62.5287 34.4589 62.5287 36.2686 62.1367C35.402 62.1367 34.6819 62.1002 33.9679 62.0576C33.7237 62.0576 33.3576 62.0211 33.4003 61.6681C33.443 61.3151 33.7543 61.3334 34.0106 61.3273C34.572 61.3273 35.1274 61.2847 35.6827 61.2178C34.768 61.0703 33.8745 60.8128 33.0219 60.4509C32.3923 60.1671 31.8399 59.7373 31.4108 59.1972C31.2399 58.966 31.0446 58.686 31.3193 58.4365C31.5939 58.187 31.7892 58.4852 31.9662 58.6556C32.9565 59.5615 34.2311 60.097 35.5729 60.171C35.6771 60.1951 35.7852 60.1973 35.8903 60.1774C35.9953 60.1574 36.0951 60.1159 36.1832 60.0554C35.4936 59.7267 34.8345 59.4468 34.1998 59.1059C33.5483 58.7656 32.9346 58.3576 32.3689 57.8888C32.1309 57.694 31.8563 57.4262 32.0943 57.1158C32.3323 56.8054 32.5764 57.1158 32.79 57.2254C34.3906 58.1896 36.1327 58.898 37.953 59.325C37.5014 58.9416 37.0803 58.5217 36.5982 58.187C35.6034 57.4932 34.5842 56.842 33.5773 56.1725C33.3088 55.9899 32.9182 55.8134 33.1623 55.4057C33.4064 54.9979 33.7237 55.2779 33.9862 55.4057C35.4107 56.066 36.7291 56.9335 37.898 57.98C38.1055 58.1261 38.2093 58.3391 38.49 58.3635Z" fill="#2C3639"/>
<path d="M67.8133 36.4775C64.6399 37.8286 61.2773 37.999 57.9146 38.1694C56.8979 38.2259 55.8786 38.2157 54.8632 38.1389C54.5703 38.1389 54.1492 38.1389 54.1431 37.7373C54.137 37.3356 54.6069 37.3173 54.9121 37.3173C56.4988 37.3173 58.0916 37.4208 59.6783 37.3173C62.3697 37.0982 65.0732 36.8852 67.612 35.8628C67.8095 35.7934 68.0142 35.7464 68.2222 35.7228C68.4114 35.6924 68.6311 35.7776 68.5274 35.9723C68.2955 36.3862 68.5579 36.7939 68.4724 37.1895C68.3565 37.7981 68.6677 38.0476 69.2536 37.9259C69.6421 37.8234 70.0201 37.6849 70.3826 37.5121C70.4973 37.4492 70.6291 37.4247 70.7588 37.4422C70.8885 37.4598 71.009 37.5184 71.1027 37.6095C71.3041 37.859 71.1821 38.1085 71.0173 38.3215C70.5901 38.8632 70.1385 39.3805 69.7174 39.9221C69.4544 40.2602 69.2615 40.6471 69.1498 41.0602C69.0705 41.3402 68.863 41.6688 69.1498 41.9183C69.4367 42.1678 69.693 42.0096 69.9676 41.9183C70.2422 41.827 70.5474 41.7175 70.8342 41.6079C71.121 41.4984 71.4872 41.3158 71.7557 41.6384C72.0243 41.9609 71.7557 42.3139 71.5543 42.5817C71.0625 43.1309 70.6813 43.7694 70.4314 44.4622C70.3216 44.7848 70.0958 45.1621 70.4009 45.4603C70.7061 45.7585 71.1271 45.5577 71.475 45.4603C71.8747 45.3092 72.2659 45.1365 72.6467 44.943C72.7643 44.8614 72.9054 44.8203 73.0485 44.8257C73.1917 44.8312 73.3291 44.8831 73.4401 44.9735C73.5532 45.0805 73.6255 45.2235 73.6444 45.3778C73.6633 45.5322 73.6278 45.6883 73.5439 45.8194C73.2495 46.307 73.0003 46.8204 72.7993 47.3531C72.7017 47.7486 72.543 48.1625 72.9336 48.4668C73.1076 48.5958 73.3151 48.6723 73.5314 48.6874C73.7477 48.7025 73.9638 48.6555 74.1541 48.552C74.4776 48.412 74.7644 48.2173 75.1123 48.0773C75.7714 47.7973 76.1864 48.126 76.0826 48.838C76.0586 49.1224 75.9596 49.3953 75.7958 49.6292C75.631 49.8422 75.3442 49.97 75.1855 49.7448C74.8621 49.258 74.5203 49.4771 74.1419 49.5927C73.7949 49.7236 73.4191 49.7599 73.0533 49.6979C72.6876 49.6359 72.345 49.4777 72.0609 49.2397C71.7821 48.9931 71.5853 48.6675 71.497 48.3065C71.4087 47.9454 71.433 47.5661 71.5666 47.2192C71.7252 46.7019 71.652 46.5619 71.0722 46.6653C69.6137 46.921 68.7837 45.9837 69.156 44.5596C69.1801 44.4186 69.2232 44.2814 69.2841 44.1518C69.6076 43.5433 69.8944 43.0077 68.7593 42.9347C68.1917 42.8921 67.8988 42.1922 68.0147 41.5106C68.1747 40.7437 68.4926 40.0183 68.9485 39.3805C69.0522 39.2222 69.2841 39.0457 68.9057 38.8936C67.4594 38.2606 67.2885 37.8894 67.8133 36.4775Z" fill="#2C3639"/>
<path d="M60.4235 55.9714C60.7836 55.8558 61.1498 55.7523 61.5037 55.6184C61.8577 55.4845 62.1628 55.3689 62.4069 55.7158C62.651 56.0627 62.4069 56.3244 62.2238 56.6104C61.989 56.938 61.7847 57.2864 61.6136 57.6511C61.3023 58.3875 61.6563 58.8135 62.4497 58.6979C63.0815 58.5662 63.6958 58.362 64.2805 58.0893C64.5978 57.9615 64.9335 57.8337 65.1959 58.1502C65.4583 58.4666 65.2752 58.7588 65.1288 59.0144C64.8667 59.4097 64.6843 59.852 64.5917 60.3168C64.5002 60.968 64.6833 61.1445 65.3302 61.0349C65.8946 60.9525 66.445 60.7927 66.9657 60.5602C67.0708 60.4826 67.1981 60.4408 67.3288 60.4408C67.4596 60.4408 67.5869 60.4826 67.6919 60.5602C67.9483 60.8036 67.8567 61.0775 67.753 61.3514C67.7163 61.4366 67.6614 61.5157 67.6187 61.6009C67.4844 61.887 67.0878 62.1669 67.3258 62.4773C67.5638 62.7877 68.0276 62.6294 68.3938 62.5564C68.8568 62.4479 69.3025 62.2759 69.718 62.0452C69.9805 61.9113 70.249 61.7956 70.5175 62.0026C70.786 62.2095 70.7128 62.5138 70.6213 62.7877C70.4321 63.3597 70.2551 63.9257 70.7982 64.4309C70.8245 64.4548 70.8455 64.484 70.8599 64.5164C70.8742 64.5489 70.8816 64.584 70.8816 64.6195C70.8816 64.655 70.8742 64.6901 70.8599 64.7226C70.8455 64.7551 70.8245 64.7842 70.7982 64.8082C70.7336 64.8796 70.6472 64.9279 70.5523 64.9455C70.4575 64.9631 70.3595 64.9491 70.2734 64.9056C70.0024 64.8057 69.7708 64.6217 69.6126 64.3806C69.4544 64.1396 69.378 63.8543 69.3946 63.5667C69.3946 63.1772 69.2665 63.1406 68.9308 63.238C68.4596 63.4078 67.9608 63.4883 67.46 63.4754C66.6178 63.4084 66.2395 63.0798 66.2395 62.2582C66.2395 61.8748 66.093 61.8078 65.7696 61.887C65.6774 61.9116 65.5836 61.9299 65.4888 61.9417C64.0974 62.1852 63.359 61.4427 63.5848 60.0368C63.719 59.2274 63.719 59.2274 62.944 59.4769C62.6272 59.6185 62.2765 59.6674 61.9329 59.6179C61.5893 59.5683 61.2669 59.4223 61.0033 59.197C60.7577 58.9697 60.5892 58.6716 60.5214 58.3444C60.4536 58.0171 60.4898 57.677 60.6249 57.3712C60.7775 56.9147 60.6615 56.793 60.2221 56.9147L60.0818 56.9452C59.2762 57.1156 58.4828 57.1642 57.9824 56.3366C57.7753 55.9852 57.6867 55.5769 57.7295 55.1716C57.7724 54.7663 57.9444 54.3853 58.2204 54.0848C58.2753 54.0117 58.3242 53.9204 58.3852 53.8535C58.849 53.3545 59.2762 53.0015 58.6049 52.192C57.9336 51.3826 58.9711 49.3925 60.0696 49.1978C60.1375 49.1762 60.2105 49.1763 60.2783 49.1981C60.3462 49.2199 60.4055 49.2624 60.4479 49.3195C60.488 49.379 60.5056 49.4507 60.4978 49.522C60.49 49.5932 60.4572 49.6595 60.4052 49.709C60.1306 50.068 59.8316 50.4028 59.563 50.7679C59.4507 50.8934 59.3766 51.0483 59.3496 51.2143C59.3226 51.3804 59.3437 51.5507 59.4105 51.7052C59.5691 52.0521 59.9109 52.0156 60.216 51.9973C60.5212 51.979 60.8263 51.9973 60.9423 52.2955C61.0582 52.5937 60.8812 52.8432 60.6676 53.0441C60.1633 53.4779 59.6997 53.9566 59.2823 54.4743C59.119 54.6743 58.9873 54.898 58.8917 55.1376C58.6781 55.7462 58.9589 56.1114 59.6118 56.0566C59.8957 56.0221 60.177 55.9692 60.454 55.8984L60.4235 55.9714Z" fill="#2C3639"/>
<path d="M64.1153 64.7839C63.5356 64.9908 63.0046 65.1795 62.4737 65.3925C62.2794 65.5089 62.0552 65.5664 61.8287 65.5577C61.6021 65.5491 61.383 65.4747 61.1982 65.3438C61.0192 65.1686 60.8938 64.9463 60.8366 64.7028C60.7793 64.4594 60.7926 64.2047 60.8748 63.9684C60.9175 63.7675 61.064 63.5789 60.9724 63.2989C60.4049 63.4572 59.8434 63.6276 59.2758 63.7736C58.9787 63.901 58.6501 63.9367 58.3324 63.8759C58.0147 63.8152 57.7226 63.6608 57.4938 63.4328C56.9873 62.8607 57.1155 62.2156 57.3108 61.5462C57.3718 61.3332 57.6403 61.0958 57.445 60.9011C57.2497 60.7063 57.0056 60.9497 56.7798 60.9984C56.6885 61.028 56.5945 61.0484 56.4991 61.0593C55.7668 61.1323 54.9856 61.3027 54.5035 60.5359C54.0214 59.7691 54.2838 59.0814 54.7232 58.4119C54.7903 58.3145 54.8391 58.2111 54.888 58.132C54.8269 57.9494 54.6927 57.9676 54.5828 57.9555C53.3623 57.7972 53.0022 57.146 53.4416 56.0201C53.6382 55.5385 53.9606 55.1182 54.3753 54.803C54.6011 54.6204 54.8635 54.31 55.1748 54.6143C55.486 54.9186 55.1748 55.1316 55.0161 55.3629C54.8147 55.6854 54.5706 55.9714 54.4058 56.3183C54.1678 56.7809 54.2655 57.1156 54.8696 57.0913C55.1992 57.0913 55.5287 57.0243 55.8583 56.9878C56.1878 56.9513 56.554 56.7444 56.7676 57.1217C56.9812 57.499 56.6089 57.7607 56.3709 58.0042C56.0205 58.3599 55.717 58.7587 55.4677 59.1909C55.3787 59.3035 55.3249 59.4397 55.3129 59.5825C55.301 59.7254 55.3315 59.8686 55.4006 59.9943C55.5837 60.256 55.8644 60.1768 56.1207 60.1464C56.9489 60.0621 57.7562 59.8356 58.5069 59.477C58.8242 59.3187 59.1599 59.197 59.4162 59.5135C59.6725 59.8299 59.5139 60.1768 59.2758 60.4751C58.8539 60.9589 58.5287 61.5187 58.3177 62.1243C58.1102 62.806 58.275 63.019 58.9829 62.9155C59.8714 62.7597 60.7394 62.5045 61.5705 62.1548C61.9062 62.0209 62.2723 61.8626 62.5591 62.1548C62.846 62.4469 62.6812 62.8181 62.4981 63.1407C62.3928 63.3264 62.2971 63.5173 62.2113 63.7128C62.1075 63.9562 61.8024 64.2362 62.0526 64.4735C62.3028 64.7109 62.6019 64.4735 62.8582 64.3822C63.4685 64.151 64.0299 63.8832 64.6158 63.6154C64.8843 63.4937 65.1528 63.3902 65.4152 63.6154C65.6777 63.8406 65.6472 64.1631 65.5373 64.4613C65.1833 65.1318 65.0428 65.894 65.1345 66.6462C65.2322 67.0722 64.7744 67.0722 64.4815 66.8775C64.3275 66.7627 64.2048 66.6111 64.1248 66.4367C64.0448 66.2623 64.0101 66.0707 64.0238 65.8794C64.0348 65.5129 64.0654 65.1472 64.1153 64.7839V64.7839Z" fill="#2C3639"/>
<path d="M78.9573 39.1551C77.6635 39.5324 77.2363 39.2342 77.1936 38.0048C77.1591 36.92 77.4946 35.8556 78.1453 34.9856C78.796 34.1156 79.7234 33.4915 80.7759 33.2152C81.2605 33.0944 81.7516 33.0009 82.2467 32.9352C83.1133 32.8196 83.571 33.2274 83.4672 34.1098C83.3902 34.8771 83.1534 35.6198 82.7719 36.2906C82.3905 36.9613 81.8727 37.5452 81.2519 38.0048C80.5964 38.5749 79.8071 38.9705 78.9573 39.1551V39.1551ZM79.0183 37.9379C79.6935 37.7061 80.3078 37.326 80.8159 36.8256C81.324 36.3252 81.7129 35.7174 81.9538 35.0471C82.0514 34.7975 82.3077 34.4811 82.0941 34.262C81.8805 34.0429 81.4838 34.262 81.2214 34.3167C80.7149 34.4385 81.0017 34.8036 81.0383 35.0714C81.1101 35.3364 81.1046 35.6163 81.0225 35.8782C80.9403 36.1402 80.7849 36.3733 80.5745 36.5503C80.375 36.7215 80.1307 36.8324 79.8702 36.8701C79.6097 36.9078 79.3439 36.8708 79.1037 36.7633C78.9146 36.6842 78.701 36.3434 78.4935 36.672C78.286 37.0006 78.0297 37.3962 78.1639 37.7979C78.2982 38.1996 78.6399 37.944 78.9939 37.9622L79.0183 37.9379Z" fill="#2C3639"/>
<path d="M66.7517 43.5193C67.0446 43.5193 67.423 43.2211 67.6915 43.5985C67.96 43.9758 67.6915 44.2375 67.5084 44.5235C66.9929 45.3774 66.6876 46.341 66.6174 47.3352C66.6174 48.096 66.9164 48.382 67.6732 48.242C68.0636 48.1448 68.4486 48.027 68.8266 47.8891C69.0768 47.816 69.3392 47.7491 69.5589 47.9803C69.6454 48.0803 69.6969 48.2056 69.7057 48.3373C69.7145 48.4691 69.6802 48.6001 69.6078 48.7106C69.3227 49.309 69.088 49.9298 68.9059 50.5669C68.7351 51.3337 68.9731 51.5954 69.742 51.4919C70.2833 51.4063 70.802 51.2139 71.2677 50.9259C71.3806 50.8372 71.5172 50.7835 71.6604 50.7716C71.8036 50.7597 71.9472 50.7901 72.0733 50.859C72.3662 51.0476 72.3296 51.3459 72.2808 51.6319C72.2025 52.0737 72.182 52.5237 72.2197 52.9708C72.2197 53.2142 72.2198 53.4699 71.9085 53.5368C71.8499 53.552 71.7888 53.555 71.7289 53.5455C71.6691 53.536 71.6119 53.5143 71.5609 53.4817C71.5099 53.4491 71.4662 53.4064 71.4326 53.3562C71.3989 53.306 71.376 53.2494 71.3654 53.1899C71.2189 52.1553 70.6635 52.3014 69.858 52.4778C68.2346 52.8247 67.3741 51.7962 67.8074 50.1774C67.8671 49.9473 67.9425 49.7216 68.0332 49.5018C68.1553 49.2097 68.0638 49.1549 67.7525 49.1549C65.9217 49.1549 65.3114 48.4429 65.5677 46.5988C65.6545 46.0377 65.834 45.4948 66.0987 44.9921C66.2634 44.6818 66.2024 44.56 65.824 44.4809C65.4861 44.3803 65.177 44.2008 64.9224 43.9574C64.6678 43.7141 64.475 43.4137 64.3599 43.0812C64.2448 42.7488 64.2107 42.3938 64.2605 42.0456C64.3103 41.6974 64.4425 41.366 64.6462 41.0789C64.7683 40.9267 64.9086 40.7868 65.1222 40.8598C65.3358 40.9328 65.3358 41.1884 65.2809 41.3953C65.2052 41.6938 65.1663 42.0004 65.1649 42.3082C65.1893 43.5072 65.5311 43.7993 66.7517 43.5193Z" fill="#2C3639"/>
<path d="M51.3357 60.737C51.0631 60.6748 50.7942 60.5976 50.5302 60.5057C50.257 60.4073 50.0311 60.2098 49.8976 59.9525C49.7641 59.6953 49.7328 59.3973 49.81 59.1181C49.9096 58.7391 50.0898 58.3859 50.3383 58.0824C50.5868 57.779 50.8978 57.5323 51.2503 57.3593C51.4334 57.2558 51.6714 57.1889 51.8606 57.4019C52.0498 57.6149 51.8606 57.7975 51.7507 57.9739C51.4883 58.333 51.2015 58.686 50.9635 59.0633C50.7255 59.4407 50.8414 59.7511 51.3297 59.7937C51.7076 59.8179 52.0868 59.8179 52.4648 59.7937C52.7211 59.7937 52.953 59.7937 53.075 60.0614C53.13 60.1813 53.1418 60.3164 53.1085 60.4439C53.0751 60.5714 52.9986 60.6835 52.892 60.7613C52.5258 61.1326 52.1413 61.4795 51.7874 61.8629C51.6658 61.9626 51.579 62.0982 51.5395 62.2502C51.5 62.4022 51.5099 62.5627 51.5677 62.7088C51.7263 63.0496 52.0864 63.0314 52.3793 62.9888C53.0811 62.8853 53.7769 62.7332 54.4787 62.5993C54.7838 62.5384 55.0889 62.4654 55.3209 62.7818C55.3957 62.9177 55.4292 63.0724 55.4173 63.227C55.4054 63.3815 55.3486 63.5293 55.2537 63.6521C55.0096 64.0782 54.5824 64.5346 54.8937 65.0032C55.2049 65.4718 55.864 65.2771 56.3644 65.2345C57.9817 65.0945 57.9756 65.0702 57.4446 66.5977C57.3559 66.805 57.3143 67.0292 57.3228 67.2544C57.3312 67.4795 57.3895 67.7001 57.4934 67.9001C57.5972 68.0827 57.6887 68.3079 57.4568 68.5087C57.3563 68.5741 57.2349 68.5998 57.1164 68.5806C56.9978 68.5615 56.8908 68.499 56.816 68.4053C56.5752 68.208 56.3956 67.9464 56.2984 67.6511C56.2011 67.3558 56.1902 67.039 56.2668 66.7377C56.3583 66.3239 56.3217 66.1595 55.8091 66.1839C54.1247 66.263 53.6914 65.8066 53.7402 64.0903C53.7402 63.7373 53.5755 63.7617 53.3497 63.8104C52.8855 63.916 52.4096 63.961 51.9338 63.9443C51.6573 63.9608 51.3817 63.8985 51.1394 63.7646C50.8971 63.6307 50.698 63.4307 50.5655 63.1881C50.4329 62.9455 50.3724 62.6703 50.391 62.3946C50.4097 62.119 50.5066 61.8543 50.6705 61.6316C50.8742 61.3204 51.0963 61.0217 51.3357 60.737Z" fill="#2C3639"/>
<path d="M66.5689 55.058C64.1278 55.5266 63.4687 54.1451 64.1278 52.1367C63.806 52.0759 63.4768 52.0636 63.1513 52.1002C62.942 52.1061 62.734 52.0649 62.5429 51.9795C62.3518 51.8942 62.1825 51.7669 62.0475 51.6072C61.9126 51.4475 61.8156 51.2595 61.7637 51.0572C61.7117 50.8548 61.7063 50.6434 61.7477 50.4387C61.8761 49.7369 62.1852 49.0805 62.6448 48.5338C62.9133 48.1687 63.1269 47.9252 62.48 47.694C62.2492 47.6158 62.0572 47.4523 61.9437 47.2372C61.8301 47.022 61.8037 46.7717 61.8698 46.5376C61.8964 46.2171 62.0076 45.9092 62.1919 45.6452C62.3762 45.3813 62.6272 45.1706 62.9194 45.0344C63.2246 44.9005 63.3588 45.1379 63.2429 45.43C63.1269 45.7221 62.9622 45.923 62.8462 46.1786C62.5533 46.8298 62.773 47.1219 63.4565 47.0489L63.8104 47.0002C63.9156 46.9778 64.0249 46.9859 64.1255 47.0237C64.2261 47.0614 64.3138 47.1272 64.378 47.2132C64.4419 47.3141 64.4705 47.4333 64.4595 47.5522C64.4485 47.671 64.3984 47.7829 64.317 47.8705C63.9264 48.4304 63.4931 48.972 63.133 49.5563C62.8828 49.964 62.5228 50.4631 62.8462 50.9378C63.1697 51.4125 63.7555 51.1751 64.2315 51.096C64.5115 51.0462 64.7886 50.9812 65.0615 50.9013C65.1712 50.8527 65.2935 50.8402 65.4108 50.8653C65.5282 50.8905 65.6345 50.9521 65.7145 51.0412C65.7937 51.1466 65.8366 51.2747 65.8366 51.4064C65.8366 51.5381 65.7937 51.6662 65.7145 51.7715C65.4348 52.1493 65.1993 52.5577 65.0127 52.9887C64.9264 53.1591 64.8909 53.3505 64.9104 53.5403C64.9298 53.7302 65.0035 53.9105 65.1225 54.0599C65.2652 54.169 65.4355 54.2365 65.6144 54.2548C65.7932 54.273 65.9737 54.2414 66.1356 54.1633C66.5689 54.0355 66.9961 53.8895 67.4111 53.7251C67.5232 53.6568 67.6545 53.6265 67.7853 53.6385C67.9162 53.6506 68.0396 53.7044 68.1373 53.7921C68.2302 53.9019 68.2812 54.0409 68.2812 54.1846C68.2812 54.3283 68.2302 54.4674 68.1373 54.5772C67.9664 54.8876 67.765 55.1858 67.5819 55.484C67.4131 55.7167 67.3382 56.0042 67.3721 56.2895C67.406 56.5748 67.5463 56.8368 67.765 57.0237C67.9176 57.1759 68.2411 57.3158 68.0091 57.5836C67.9049 57.6833 67.7686 57.7429 67.6245 57.7518C67.4803 57.7608 67.3377 57.7184 67.2219 57.6323C66.91 57.436 66.6631 57.1523 66.5122 56.8167C66.3613 56.4811 66.3131 56.1085 66.3736 55.7457C66.4651 55.5266 66.5201 55.3014 66.5689 55.058Z" fill="#2C3639"/>
<path d="M84.4073 44.8407C84.3658 45.01 84.3086 45.175 84.2364 45.3337C84.0279 45.8107 83.7615 46.2603 83.4431 46.6726C81.0813 49.1922 79.8363 52.4177 77.9506 55.2416C76.6812 57.1343 75.3325 58.9601 73.9105 60.7189C73.7397 60.9319 73.5261 61.2606 73.2148 61.0354C72.9036 60.8102 73.2148 60.4694 73.343 60.2442C75.3447 57.3595 77.3342 54.4687 79.1162 51.45C80.4466 49.1982 82.131 47.1899 83.5895 45.0476C83.6885 44.8856 83.8144 44.7416 83.9618 44.6216C84.1449 44.4999 84.3219 44.5364 84.4073 44.8407Z" fill="#2C3639"/>
<path d="M48.4432 66.8229C48.3572 66.496 48.4033 66.1486 48.5714 65.8552C48.9376 65.2953 48.6751 65.2466 48.1564 65.1736C46.9969 65.0336 46.3988 64.1511 46.7589 63.2017C46.7994 63.0641 46.8703 62.9372 46.9664 62.8305C47.3142 62.4957 47.1861 62.3314 46.8199 62.1002C46.6666 62.0303 46.5289 61.9305 46.4148 61.8067C46.3008 61.683 46.2127 61.5377 46.1559 61.3795C46.099 61.2212 46.0745 61.0532 46.0837 60.8854C46.0929 60.7176 46.1357 60.5533 46.2096 60.4022C46.3495 60.0738 46.5846 59.7947 46.8847 59.6006C47.1848 59.4065 47.5363 59.3062 47.894 59.3128C48.0893 59.3128 48.2785 59.3919 48.3395 59.6049C48.4005 59.8179 48.254 59.9396 48.0954 60.0675C46.8748 61.029 46.9114 61.2238 48.3334 61.808C48.9742 62.0697 49.023 62.4166 48.4921 62.9096C48.193 63.1774 47.6316 63.3539 47.833 63.8712C48.0344 64.3885 48.6141 64.3093 49.0535 64.3033C49.3363 64.2919 49.6178 64.2593 49.8957 64.2059C50.1947 64.1511 50.506 64.1572 50.6402 64.4615C50.7047 64.5916 50.7204 64.7403 50.6846 64.8809C50.6488 65.0215 50.5638 65.1447 50.4449 65.2283C50.2908 65.3751 50.1441 65.5294 50.0055 65.6909C49.7707 65.912 49.6154 66.204 49.5636 66.5219C49.5118 66.8397 49.5663 67.1658 49.7187 67.4497C49.8225 67.6384 49.9262 67.8575 49.7187 68.0279C49.5112 68.1983 49.261 68.0826 49.0718 67.9488C48.7261 67.6671 48.5012 67.2643 48.4432 66.8229V66.8229Z" fill="#2C3639"/>
<path d="M68.68 59.6465C68.6158 59.6654 68.5475 59.6651 68.4835 59.6457C68.4195 59.6262 68.3626 59.5884 68.3199 59.537C68.2661 59.4572 68.2405 59.3619 68.2471 59.266C68.2538 59.1701 68.2923 59.0791 68.3566 59.0075C68.7083 58.4419 69.1173 57.9137 69.5771 57.4313C72.2135 54.7048 74.8458 51.9762 77.4741 49.2457C77.9318 48.771 78.3529 48.2537 78.8106 47.7729C78.9937 47.5781 79.2256 47.2799 79.5246 47.5538C79.8237 47.8276 79.5612 48.0893 79.3904 48.3084C78.3551 49.6339 77.2338 50.8903 76.0338 52.0695C73.6599 54.4552 71.3042 56.8592 69.0156 59.324C68.8936 59.4457 68.7715 59.5552 68.68 59.6465Z" fill="#2C3639"/>
<path d="M86.2808 49.4831C86.2084 49.5216 86.1252 49.5347 86.0444 49.5203C85.9636 49.506 85.89 49.465 85.8353 49.4039C85.7873 49.3504 85.7607 49.281 85.7607 49.2092C85.7607 49.1373 85.7873 49.068 85.8353 49.0144C86.0462 48.7293 86.281 48.4626 86.5372 48.2172C89.6057 45.4233 92.2751 42.2227 94.4708 38.7048C94.5802 38.5214 94.7004 38.3446 94.8308 38.1754C95.0017 37.9745 95.1482 37.5972 95.4838 37.8163C95.8195 38.0354 95.5815 38.3458 95.4533 38.5831C94.239 40.775 92.8079 42.8403 91.1814 44.7482C89.8794 46.4087 88.3792 47.9047 86.7141 49.2031C86.5249 49.3126 86.3663 49.41 86.2808 49.4831Z" fill="#2C3639"/>
<path d="M63.7858 39.9643C62.8643 40.0982 61.955 40.226 61.0396 40.372C60.5728 40.4481 60.0966 40.4481 59.6298 40.372C59.4101 40.3355 59.166 40.3051 59.166 40.0312C59.166 39.7574 59.4223 39.7208 59.6237 39.6843C60.1425 39.5991 60.6551 39.5261 61.1738 39.4531C62.6286 39.2633 64.0683 38.9725 65.4824 38.5828C65.6411 38.5402 65.7997 38.4854 65.9645 38.455C66.1293 38.4245 66.3673 38.388 66.4649 38.601C66.5626 38.814 66.3978 38.954 66.233 39.0636C66.0682 39.1731 65.6228 39.2644 65.8425 39.7147C65.9035 39.8486 65.6838 39.9764 65.5373 40.0556C63.9112 40.9931 62.099 41.5644 60.2279 41.7292C59.9411 41.7292 59.4528 41.9239 59.4162 41.4432C59.3857 41.0597 59.8495 41.0841 60.1364 41.0293C61.4036 40.8785 62.637 40.5186 63.7858 39.9643Z" fill="#2C3639"/>
<path d="M96.7472 41.8267C96.7189 42.1962 96.5832 42.5494 96.3566 42.8431C95.4562 44.2063 94.4675 45.5095 93.3968 46.7442C92.6845 47.6908 91.8654 48.5525 90.9557 49.3125C90.7421 49.4829 90.5041 49.7628 90.2294 49.4768C89.9548 49.1907 90.2294 48.9899 90.3881 48.7951L96.0454 41.9485C96.1796 41.7841 96.32 41.5955 96.5702 41.6685C96.6556 41.6868 96.6923 41.778 96.7472 41.8267Z" fill="#2C3639"/>
<path d="M59.8433 43.9515C57.9142 44.3534 55.9261 44.3865 53.9846 44.0488C53.7766 44.0095 53.5725 43.9525 53.3743 43.8784C53.1668 43.7993 52.9837 43.6715 53.057 43.4037C53.1302 43.1359 53.3133 43.1603 53.5147 43.1725L55.4249 43.3003C57.9365 43.4484 60.4534 43.1158 62.8397 42.3204C62.9557 42.29 63.0655 42.2474 63.1815 42.2291C63.2974 42.2109 63.5965 42.1805 63.6636 42.4117C63.7307 42.643 63.5293 42.7464 63.3524 42.8134C62.2285 43.321 61.0516 43.7027 59.8433 43.9515V43.9515Z" fill="#2C3639"/>
<path d="M42.3404 64.5695C42.2429 64.2335 42.2554 63.8753 42.3761 63.5469C42.4968 63.2185 42.7195 62.9371 43.0117 62.7437C43.39 62.4637 43.4755 62.2507 43.2009 61.8308C43.0542 61.5979 42.9852 61.3246 43.0039 61.0502C43.0225 60.7758 43.1278 60.5143 43.3046 60.3032C43.4387 60.111 43.6242 59.9601 43.8399 59.8676C44.0556 59.7751 44.293 59.7447 44.5251 59.7798C44.7387 59.7798 44.9646 59.8529 45.0317 60.0963C45.0988 60.3397 44.8913 60.4493 44.7021 60.5649C43.9088 61.0335 43.8905 61.3561 44.6167 61.9951C45.3429 62.6341 45.3002 62.8897 44.397 63.2123C43.3473 63.5896 43.0483 64.4295 43.5609 65.4154C43.6769 65.6406 44.0552 65.9145 43.7318 66.1457C43.4083 66.377 43.0727 66.0483 42.8591 65.7684C42.5903 65.4172 42.4122 65.0054 42.3404 64.5695V64.5695Z" fill="#2C3639"/>
<path d="M63.3038 30.9936C65.8263 30.5979 68.3868 30.4998 70.9323 30.7014C71.0025 30.7026 71.0722 30.7128 71.1398 30.7319C71.4388 30.8292 71.927 30.7866 71.8721 31.2309C71.8172 31.6752 71.3594 31.5169 71.0543 31.4987C68.6118 31.3368 66.1593 31.4102 63.731 31.7178C62.8792 31.7948 62.0319 31.9146 61.1922 32.0769C61.0397 32.0769 60.8261 32.1803 60.7528 31.9734C60.6796 31.7665 60.8932 31.6691 61.0641 31.5839C61.7855 31.3021 62.537 31.104 63.3038 30.9936Z" fill="#2C3639"/>
<path d="M85.9815 24.4699C88.2273 24.1839 90.4426 24.0135 92.6091 24.7803C92.9875 24.9203 93.6161 24.9811 93.5123 25.4984C93.4086 26.0158 92.7983 25.7906 92.4321 25.7115C90.3532 25.3681 88.2471 25.2153 86.1402 25.255C85.7252 25.255 85.0295 25.4558 84.9745 24.9385C84.9196 24.4212 85.6703 24.6586 85.9815 24.4699Z" fill="#2C3639"/>
<path d="M76.0036 53.7426C75.9527 53.9017 75.8936 54.0582 75.8266 54.2112C75.4645 54.8733 75.0195 55.4868 74.5023 56.037C73.2818 57.4368 72.0612 58.8183 70.8407 60.212C70.7989 60.269 70.7519 60.3219 70.7003 60.3702C70.5294 60.5284 70.3585 60.7597 70.09 60.571C69.8215 60.3824 69.968 60.145 70.09 59.9625C70.3463 59.5608 70.5843 59.153 70.8651 58.7453C72.1955 56.9195 73.8799 55.4162 75.2835 53.6574C75.3994 53.5113 75.5337 53.3592 75.7534 53.4018C75.9731 53.4444 75.9731 53.554 76.0036 53.7426Z" fill="#2C3639"/>
<path d="M85.9146 62.3856C86.0094 60.5353 86.2957 58.6998 86.7689 56.9082C86.9895 55.9857 87.365 55.1071 87.8796 54.3095C88.0139 54.1209 88.1482 53.847 88.4289 53.9809C88.7096 54.1148 88.6303 54.3825 88.5388 54.5895C87.544 57.0238 87.1534 59.5556 86.7079 62.0934C86.6759 62.2558 86.6351 62.4162 86.5859 62.5742C86.5309 62.7568 86.4516 62.9576 86.2136 62.9333C85.9756 62.9089 85.9268 62.6959 85.9146 62.3856Z" fill="#2C3639"/>
<path d="M67.3617 33.9147C66.0125 34.1404 64.647 34.2564 63.2789 34.2616C63.0409 34.2616 62.6687 34.3346 62.6259 34.006C62.5832 33.6773 63.0226 33.6712 63.2789 33.6469C64.7924 33.4947 66.2876 33.2574 67.7828 33.0018C67.9354 32.9713 68.271 33.0444 67.9293 32.6975C67.7767 32.5332 68.0513 32.3567 68.2283 32.3262C69.1559 32.1437 70.0591 31.955 71.0234 31.8455C71.4262 31.7968 71.5726 32.0706 71.3163 32.454C71.1611 32.6953 70.9256 32.8741 70.6511 32.9592L67.3617 33.9147Z" fill="#2C3639"/>
<path d="M87.568 53.8342C87.1091 53.9619 86.6247 53.9673 86.1632 53.8498C85.7016 53.7323 85.279 53.4961 84.9377 53.1647C84.6142 52.8239 84.3762 52.8604 84.0345 53.1039C83.7754 53.3501 83.4594 53.5289 83.1145 53.6244C82.7697 53.72 82.4065 53.7293 82.0572 53.6516C81.9046 53.6233 81.7612 53.5588 81.639 53.4635C81.5168 53.3681 81.4195 53.2447 81.3554 53.1039C81.306 53.0218 81.2857 52.9255 81.2979 52.8306C81.3101 52.7356 81.354 52.6475 81.4225 52.5805C81.4813 52.52 81.5602 52.4829 81.6444 52.4762C81.7287 52.4695 81.8125 52.4936 81.8802 52.544C82.637 53.0795 83.2289 52.6231 83.8148 52.2214C84.8156 51.5398 84.8034 51.5459 85.548 52.4162C85.7858 52.6673 86.0832 52.8548 86.4127 52.9611C86.7423 53.0675 87.0935 53.0894 87.4337 53.0247C87.7389 53.0247 88.044 52.8969 88.343 52.8543C88.5505 52.8178 88.8313 52.5866 88.9533 52.9396C89.0754 53.2925 88.7641 53.3412 88.575 53.4751C88.2657 53.6585 87.9237 53.7804 87.568 53.8342Z" fill="#2C3639"/>
<path d="M82.6191 49.2215C82.5359 49.2482 82.4463 49.2472 82.3637 49.2187C82.2812 49.1902 82.2102 49.1356 82.1614 49.0633C82.111 48.9813 82.0891 48.885 82.099 48.7893C82.1089 48.6936 82.1502 48.6038 82.2163 48.5338C82.479 48.2282 82.7691 47.9471 83.0829 47.694C84.7195 46.4373 86.1736 44.9606 87.4037 43.306C87.6295 43.0199 87.8736 42.4174 88.2825 42.6974C88.6914 42.9773 88.197 43.4216 87.9957 43.732C86.6095 45.8015 84.8654 47.6087 82.8449 49.0694L82.6191 49.2215Z" fill="#2C3639"/>
<path d="M66.1415 33.1304C64.4327 33.246 62.73 33.3495 61.0274 33.4834C59.9686 33.6111 58.9007 33.6477 57.8356 33.5929C57.6159 33.5929 57.2253 33.6599 57.2253 33.2704C57.2253 32.8809 57.5732 32.9904 57.799 32.9782C60.3988 32.82 62.9864 32.4609 65.5922 32.4366C65.7589 32.4274 65.926 32.4274 66.0927 32.4366C66.3429 32.4366 66.7029 32.4366 66.7029 32.753C66.7029 33.0695 66.3734 33.0391 66.1415 33.1304Z" fill="#2C3639"/>
<path d="M84.5231 62.3178C84.3656 60.122 84.7446 57.9208 85.6277 55.9032C85.7497 55.6354 85.9267 55.2946 86.3051 55.4285C86.6835 55.5624 86.5065 55.9458 86.4149 56.2258C85.8011 58.189 85.3921 60.21 85.1944 62.2569C85.1944 62.4578 85.1944 62.7316 84.9014 62.7256C84.6085 62.7195 84.5536 62.4882 84.5231 62.3178Z" fill="#2C3639"/>
<path d="M93.7017 43.5678C93.6363 43.7599 93.5525 43.9454 93.4515 44.1216C92.1508 46.1314 90.58 47.9538 88.7829 49.5381C88.5876 49.7024 88.3496 49.958 88.1116 49.7328C87.8736 49.5076 88.1116 49.2033 88.3008 49.0086C89.6434 47.4506 91.163 46.0387 92.4201 44.4015C92.6642 44.0851 92.9206 43.7929 93.1952 43.4765C93.3538 43.3061 93.5491 43.2209 93.7017 43.5678Z" fill="#2C3639"/>
<path d="M84.4496 49.6421C84.2604 49.6847 84.0956 49.6968 83.9736 49.5447C83.9144 49.4679 83.8871 49.3714 83.8974 49.2751C83.9076 49.1788 83.9545 49.0901 84.0285 49.0274C84.2953 48.7258 84.5828 48.4432 84.889 48.1814C86.2108 47.1273 87.4362 45.9583 88.5507 44.6881C88.6788 44.536 88.8253 44.3047 89.0755 44.4386C89.3257 44.5725 89.2098 44.7855 89.106 44.9376C87.9353 46.7525 86.4223 48.3234 84.651 49.563C84.5882 49.5992 84.5203 49.6259 84.4496 49.6421V49.6421Z" fill="#2C3639"/>
<path d="M98.0831 36.0766C98.0465 36.2105 97.9977 36.4113 97.9367 36.6122C97.3264 38.6266 96.0265 40.2637 94.928 42.0408C94.8182 42.2173 94.6534 42.5155 94.3787 42.3269C94.1041 42.1382 94.336 41.9313 94.4215 41.7548C95.3674 39.856 96.4598 38.0302 97.3325 36.0888C97.4179 35.9001 97.54 35.6993 97.7963 35.7115C97.9611 35.7176 98.0343 35.8454 98.0831 36.0766Z" fill="#2C3639"/>
<path d="M55.3273 35.8627L60.533 35.8262H61.5277C61.7169 35.8262 61.9488 35.8262 61.9732 36.0696C61.9977 36.313 61.7535 36.4287 61.5522 36.453C60.8259 36.5261 60.0936 36.6113 59.3673 36.6234C57.9942 36.6234 56.6272 36.6234 55.2541 36.6234C55.01 36.6234 54.6438 36.6234 54.6865 36.2522C54.7293 35.8809 54.9917 35.9357 55.3273 35.8627Z" fill="#2C3639"/>
<path d="M81.7521 46.6419C81.7314 46.8092 81.6736 46.9697 81.5828 47.1119C81.492 47.254 81.3705 47.3741 81.2272 47.4635C80.7686 47.8493 80.3982 48.3287 80.1409 48.8693C79.4494 50.0306 78.6059 51.0948 77.6327 52.034C77.5045 52.174 77.3276 52.3383 77.1445 52.1679C76.9614 51.9975 77.1079 51.8028 77.2055 51.6506C77.4873 51.183 77.7928 50.73 78.1209 50.2935C78.6885 49.5692 79.2804 48.845 79.787 48.1025C80.1407 47.5131 80.5832 46.9814 81.0991 46.5263C81.3493 46.3254 81.6056 46.228 81.7521 46.6419Z" fill="#2C3639"/>
<path d="M97.5466 40.1968C97.3208 40.1968 97.2231 40.0934 97.2476 39.8986C97.2776 39.7115 97.3267 39.528 97.394 39.3509C98.0003 37.7381 98.716 36.1684 99.5361 34.6525C99.6826 34.3969 99.8046 33.9891 100.189 34.1596C100.574 34.33 100.36 34.6951 100.244 34.9629C99.6098 36.5659 98.8781 38.1288 98.0531 39.643C97.9567 39.8824 97.7768 40.0791 97.5466 40.1968V40.1968Z" fill="#2C3639"/>
<path d="M75.9059 32.1313C75.8816 32.3547 75.7925 32.5662 75.6496 32.7399C74.7098 34.0484 73.77 35.3569 72.824 36.6532C72.6776 36.8479 72.5372 37.1887 72.2138 36.9879C71.8903 36.7871 72.1283 36.5436 72.2138 36.3489C72.846 35.0494 73.6065 33.816 74.484 32.6669C74.7142 32.364 75.0079 32.1148 75.3445 31.9366C75.6191 31.7661 75.8205 31.8148 75.9059 32.1313Z" fill="#2C3639"/>
<path d="M39.8992 64.0893C40.204 63.1909 40.4427 62.2715 40.6132 61.3385C40.778 60.7603 41.6812 60.7847 42.1084 61.2776C42.2365 61.4237 42.3464 61.5819 42.2304 61.7827C42.1912 61.8568 42.1256 61.9135 42.0465 61.9417C41.9674 61.9698 41.8806 61.9674 41.8032 61.9349C41.2601 61.7767 41.3333 62.1236 41.4798 62.3792C41.8093 62.9452 41.7422 63.3347 41.138 63.645C40.8268 63.8094 40.8878 64.1197 40.9977 64.3997C41.1075 64.6796 41.3333 64.8866 40.9672 65.0631C40.601 65.2395 40.3569 65.0265 40.1921 64.7466C40.0826 64.533 39.9848 64.3135 39.8992 64.0893V64.0893Z" fill="#2C3639"/>
<path d="M87.501 27.6888C88.3538 27.4585 89.2452 27.4067 90.1191 27.5367C90.4181 27.5853 90.7965 27.6219 90.7782 28.0357C90.7599 28.4495 90.3937 28.3948 90.1191 28.3948C88.7643 28.4252 87.4338 28.6382 86.0912 28.7904C85.8776 28.7904 85.5481 28.9182 85.481 28.626C85.4138 28.3339 85.7251 28.2183 85.957 28.1209C86.4494 27.907 86.9689 27.7616 87.501 27.6888V27.6888Z" fill="#2C3639"/>
<path d="M82.6614 62.3124C82.5308 60.6602 82.7598 58.9994 83.3327 57.4437C83.412 57.2429 83.4852 56.9994 83.7538 57.042C84.0223 57.0846 84.0772 57.3767 84.0406 57.608C83.9308 58.3079 83.7599 58.9956 83.65 59.7016C83.5219 60.5414 83.4303 61.3874 83.3144 62.2333C83.3144 62.4281 83.3144 62.708 83.0092 62.708C82.7041 62.708 82.6858 62.4768 82.6614 62.3124Z" fill="#2C3639"/>
<path d="M66.2205 35.0596C67.0627 34.8953 67.8988 34.7249 68.741 34.5666C69.0217 34.5119 69.3512 34.4571 69.4428 34.8283C69.5343 35.1996 69.1987 35.2543 68.9362 35.3213C67.2058 35.734 65.4443 36.0047 63.6696 36.1307C63.5048 36.1307 63.218 36.2403 63.1752 36.0029C63.1325 35.7655 63.4132 35.6317 63.639 35.583C64.4995 35.4004 65.36 35.2361 66.2205 35.0657V35.0596Z" fill="#2C3639"/>
<path d="M87.5009 25.6501C88.777 25.5008 90.0704 25.621 91.2968 26.0031C91.5531 26.0943 91.9376 26.1795 91.8766 26.5143C91.8156 26.849 91.3945 26.776 91.1015 26.7516C89.9237 26.6543 88.7459 26.5508 87.568 26.4291C87.2934 26.4291 86.8357 26.5082 86.8479 26.0822C86.8601 25.6562 87.2995 25.7231 87.5009 25.6501Z" fill="#2C3639"/>
<path d="M84.0224 56.1475C84.0773 56.3849 84.12 56.6344 83.8881 56.7927C83.7869 56.853 83.6659 56.8709 83.5515 56.8424C83.4371 56.8138 83.3387 56.7412 83.2779 56.6405C83.0459 56.3727 82.8263 56.4153 82.5272 56.5127C81.8315 56.7501 81.1114 56.957 80.4157 56.5127C80.1594 56.3484 79.8481 56.1415 80.0068 55.7824C80.1654 55.4233 80.5194 55.5998 80.7818 55.7398C81.0841 55.8771 81.4182 55.9299 81.7482 55.8923C82.0783 55.8548 82.3918 55.7285 82.6554 55.5268C83.4548 55.0399 83.8393 55.259 84.0224 56.1475Z" fill="#2C3639"/>
<path d="M92.8529 39.867C92.8192 40.0858 92.7357 40.294 92.6088 40.4756C91.8676 41.5977 91.052 42.6692 90.1677 43.6829C90.0395 43.8351 89.8686 44.0602 89.6367 43.8898C89.4048 43.7194 89.5818 43.5368 89.6794 43.3847C90.4633 42.0949 91.3211 40.8513 92.2487 39.6601C92.3525 39.5262 92.4806 39.4045 92.6637 39.4653C92.8468 39.5262 92.8346 39.6357 92.8529 39.867Z" fill="#2C3639"/>
<path d="M56.3772 46.8608C57.5692 46.8187 58.7429 46.5545 59.8374 46.0818C60.0327 46.0087 60.2707 45.8992 60.3867 46.1791C60.5026 46.4591 60.289 46.5321 60.1243 46.6234C58.812 47.3954 57.2909 47.7401 55.773 47.6093C55.596 47.6093 55.358 47.5728 55.3336 47.3355C55.3092 47.0981 55.5777 47.0373 55.773 46.9825C55.9683 46.9277 56.1147 46.9155 56.3772 46.8608Z" fill="#2C3639"/>
<path d="M53.7284 40.7188L54.949 40.8587C55.8217 40.9561 56.6944 41.0413 57.561 41.1448C57.7379 41.1448 57.9821 41.1935 57.9821 41.4369C57.9821 41.6803 57.7929 41.7108 57.622 41.7108C56.2738 41.8218 54.9165 41.7336 53.5942 41.4491C53.3745 41.3821 53.112 41.303 53.1548 40.9926C53.1975 40.7918 53.3806 40.7614 53.7284 40.7188Z" fill="#2C3639"/>
<path d="M59.0196 45.5211C58.7511 45.5211 58.3727 45.5211 58.0004 45.5211C57.8357 45.5211 57.6587 45.4541 57.6587 45.2411C57.6587 45.0281 57.8052 45.0098 57.9394 44.9672C59.199 44.654 60.4399 44.27 61.656 43.817C61.8147 43.7501 62.0527 43.677 62.1564 43.9022C62.2602 44.1274 62.0466 44.2917 61.8696 44.383C60.9605 44.8573 60.0057 45.2386 59.0196 45.5211V45.5211Z" fill="#2C3639"/>
<path d="M60.1484 34.4622C59.0988 34.5109 57.9148 34.8152 56.7004 34.657C56.4563 34.657 56.0901 34.657 56.0901 34.3223C56.0901 33.9876 56.4502 34.0302 56.7004 34.018C57.9758 33.945 59.2513 33.8719 60.5207 33.8232C60.7709 33.8232 61.1981 33.6772 61.2103 34.0728C61.2103 34.371 60.8014 34.2918 60.6 34.3771C60.4902 34.4075 60.3925 34.4136 60.1484 34.4622Z" fill="#2C3639"/>
<path d="M57.3104 40.3919C56.2093 40.425 55.1073 40.4007 54.0088 40.3189C53.7525 40.2824 53.4352 40.258 53.4657 39.8989C53.4962 39.5399 53.8013 39.5155 54.0759 39.5277C55.1928 39.5946 56.2973 39.6737 57.4081 39.7711C57.6094 39.7711 57.9146 39.7711 57.9146 40.0572C57.9146 40.3432 57.5484 40.3006 57.3104 40.3919Z" fill="#2C3639"/>
<path d="M37.5681 55.7028C37.5982 55.7541 37.6074 55.8148 37.5938 55.8726C37.5801 55.9304 37.5447 55.9807 37.4949 56.0132C37.4482 56.0508 37.3901 56.0712 37.3301 56.0712C37.2702 56.0712 37.212 56.0508 37.1654 56.0132C36.3476 55.3194 35.4505 54.7473 34.5778 54.1327C34.5065 54.0876 34.453 54.0194 34.4263 53.9396C34.3996 53.8597 34.4014 53.7732 34.4313 53.6945C34.4924 53.5423 34.6388 53.518 34.7853 53.518C35.3406 53.4876 37.4583 55.149 37.5681 55.7028Z" fill="#2C3639"/>
<path d="M73.6298 32.5221C73.6355 32.544 73.6355 32.5671 73.6298 32.589C73.1058 33.5636 72.4325 34.4507 71.6342 35.2182C71.6137 35.2395 71.5891 35.2565 71.5618 35.2681C71.5345 35.2797 71.5052 35.2857 71.4755 35.2857C71.4459 35.2857 71.4165 35.2797 71.3893 35.2681C71.362 35.2565 71.3374 35.2395 71.3169 35.2182C71.2827 35.1725 71.259 35.12 71.2474 35.0643C71.2358 35.0086 71.2366 34.951 71.2497 34.8956C71.6298 33.9044 72.2605 33.028 73.0806 32.3517C73.3369 32.163 73.5993 32.2787 73.6298 32.5221Z" fill="#2C3639"/>
<path d="M32.2283 60.9733C32.2649 61.2776 32.0635 61.3567 31.8866 61.3141C30.9248 61.1681 30.0362 60.7154 29.3539 60.0239C29.2722 59.9542 29.2209 59.8556 29.2106 59.7489C29.2004 59.6422 29.2321 59.5357 29.299 59.4518C29.3275 59.4214 29.362 59.3972 29.4003 59.3806C29.4387 59.364 29.48 59.3555 29.5217 59.3555C29.5635 59.3555 29.6048 59.364 29.6431 59.3806C29.6814 59.3972 29.7159 59.4214 29.7445 59.4518C30.4811 59.9571 31.2496 60.4145 32.0452 60.8211C32.1131 60.863 32.1748 60.9142 32.2283 60.9733Z" fill="#2C3639"/>
<path d="M26.5712 60.4023C27.479 60.7966 28.3474 61.2754 29.1649 61.8325C29.2564 62.0881 29.1038 62.1733 28.8902 62.1977C27.9757 62.0588 27.1247 61.6472 26.4491 61.017C26.3271 60.7675 26.266 60.5362 26.5712 60.4023Z" fill="#2C3639"/>
<path d="M56.5232 45.4717C55.858 45.4717 55.1013 45.4717 54.3445 45.4717C54.1065 45.4717 53.8319 45.4048 53.838 45.1066C53.8441 44.8084 54.0882 44.7292 54.3445 44.7414C55.0952 44.7414 55.8519 44.8144 56.6087 44.8692C56.7856 44.8692 57.0236 44.8997 57.0297 45.1492C57.0359 45.3987 56.7856 45.3987 56.5232 45.4717Z" fill="#2C3639"/>
<path d="M73.1596 39.0027C73.1084 39.0092 73.0563 39.0023 73.0085 38.9828C72.9608 38.9633 72.9188 38.9319 72.8869 38.8914C72.8549 38.851 72.834 38.803 72.8262 38.7521C72.8184 38.7012 72.8239 38.6491 72.8422 38.601C73.0085 37.7616 73.3937 36.9807 73.959 36.337C73.9981 36.2761 74.0588 36.2322 74.129 36.2142C74.1992 36.1961 74.2737 36.2052 74.3374 36.2397C74.3995 36.2777 74.4451 36.3374 74.4654 36.4071C74.4857 36.4769 74.4793 36.5517 74.4472 36.617C74.1479 37.3885 73.7803 38.1319 73.3488 38.8383C73.306 38.9114 73.2084 38.9601 73.1596 39.0027Z" fill="#2C3639"/>
<path d="M87.7392 30.5814C87.3913 30.6484 87.0434 30.7275 86.6956 30.7823C86.5247 30.8127 86.3538 30.7823 86.2928 30.5814C86.2783 30.5106 86.2885 30.4369 86.3219 30.3727C86.3552 30.3085 86.4095 30.2576 86.4759 30.2285C87.1465 29.8123 87.9352 29.6263 88.7217 29.699C88.7695 29.6989 88.8168 29.7086 88.8607 29.7275C88.9046 29.7464 88.9441 29.7742 88.9767 29.809C89.0094 29.8439 89.0345 29.885 89.0504 29.93C89.0664 29.9749 89.0729 30.0227 89.0696 30.0702C89.0696 30.271 88.8926 30.338 88.7278 30.3684C88.4044 30.4415 88.0748 30.5023 87.7514 30.5632L87.7392 30.5814Z" fill="#2C3639"/>
<path d="M13.8406 32.5888C10.8197 34.8649 8.38474 37.4576 5.90702 39.9893C4.83271 41.2214 3.5652 42.2717 2.15381 43.0992C1.93248 43.2388 1.67641 43.3138 1.41455 43.3159C1.15268 43.3179 0.895464 43.2468 0.671981 43.1107C0.448498 42.9746 0.267662 42.7788 0.149908 42.5456C0.0321538 42.3123 -0.0178154 42.0508 0.00564476 41.7907C0.0918615 41.0143 0.343635 40.2652 0.744075 39.5937C0.799 39.4659 0.951581 39.3259 0.92717 39.2286C0.469462 37.5488 1.27503 36.0274 1.53745 34.4511C2.15069 31.4349 3.31537 28.557 4.97329 25.9612C6.47535 23.4398 8.34958 21.1584 10.5329 19.1936C10.8928 18.8951 11.1243 18.4704 11.1798 18.0069C11.5475 15.4797 12.063 12.9761 12.7238 10.509C13.3829 8.11114 14.2007 7.40517 17.1422 7.66078C17.8736 7.66811 18.5844 7.90316 19.1753 8.33308C19.7661 8.763 20.2075 9.36631 20.4377 10.0586C20.572 10.4603 20.7551 10.3873 21.0053 10.2108C21.817 9.63871 22.6103 9.03621 23.4464 8.50064C26.7326 6.30556 30.2039 4.39956 33.8211 2.80419C36.1991 1.80239 38.6821 1.06954 41.2238 0.619342C44.9493 -0.072663 48.7598 -0.185567 52.52 0.284623C55.1807 0.632207 57.7508 1.48104 60.0936 2.78594C60.9235 3.24238 61.7474 3.71709 62.5347 4.25265C62.8459 4.45957 63.0229 4.3196 63.2365 4.21614C65.4889 3.082 68.0175 2.60724 70.5293 2.8468C72.2043 3.02945 73.833 3.5097 75.3383 4.26482C76.0499 4.52956 76.7105 4.91454 77.2912 5.40288C77.578 5.68284 77.9015 5.95671 77.7428 6.43141C77.5841 6.90611 77.2057 6.87568 76.8151 6.88786C73.5197 6.96089 71.0663 8.60409 69.1806 11.148C67.5696 13.3549 66.7002 16.0136 66.6968 18.7433C66.6472 20.0676 67.0809 21.365 67.9173 22.3948C68.058 22.5538 68.1677 22.7375 68.2408 22.9365C68.272 23.0774 68.2595 23.2244 68.205 23.3581C68.1505 23.4918 68.0566 23.6058 67.9356 23.6851C67.8305 23.7626 67.7032 23.8045 67.5725 23.8045C67.4418 23.8045 67.3145 23.7626 67.2094 23.6851C64.2007 21.9932 61.4667 20.0335 59.9837 16.7288C59.1984 15.0603 58.8299 13.2269 58.9096 11.3854C58.9462 10.7281 58.7387 10.5516 58.1102 10.6185C55.078 10.958 52.2129 12.1792 49.8714 14.1301C47.9578 15.6821 46.2533 17.474 44.8 19.4614C44.5925 19.7475 44.4766 19.857 44.9221 20.0274C48.9072 21.5793 50.5061 26.1134 49.3344 29.984C48.1626 33.8547 45.5628 36.2769 42.3589 38.3278C40.1405 39.7035 37.6835 40.653 35.1149 41.1274C33.5422 41.4921 31.9105 41.5253 30.3242 41.2248C30.1101 41.1515 29.8787 41.1449 29.6608 41.2058C29.4428 41.2666 29.2485 41.3921 29.1037 41.5656C26.9756 43.8663 24.4147 45.7273 21.5667 47.0429C18.2584 48.6519 14.527 49.1841 10.8991 48.5644C9.42223 48.321 7.94536 48.0958 6.62716 47.2742C6.55356 47.2154 6.46207 47.1834 6.36778 47.1834C6.27349 47.1834 6.18202 47.2154 6.10842 47.2742C5.99247 47.3594 5.8765 47.4385 5.75445 47.5115C5.52636 47.7026 5.24772 47.8238 4.9521 47.8606C4.65648 47.8973 4.35653 47.8479 4.0884 47.7184C3.83943 47.5522 3.64184 47.3201 3.51787 47.0481C3.39389 46.7761 3.34844 46.475 3.38659 46.1787C3.4329 45.1329 3.81596 44.1299 4.47897 43.3183C5.94364 41.2308 7.88432 39.5876 9.62971 37.7618C11.1432 36.2221 12.6933 34.6884 13.8406 32.5888ZM2.42845 37.5123C2.59322 37.3784 2.7702 37.2628 2.92277 37.1167C4.64986 35.4614 6.5417 34.0068 8.36643 32.4671C10.3193 30.8178 12.2417 29.132 14.158 27.4462C14.9208 26.7767 15.5006 25.9125 16.4038 25.4013C16.6273 25.2553 16.8829 25.1652 17.1488 25.1388C17.4148 25.1124 17.6831 25.1504 17.9312 25.2495C18.1792 25.3487 18.3996 25.5062 18.5735 25.7085C18.7475 25.9108 18.8699 26.152 18.9304 26.4116C19.2733 27.5767 19.2413 28.8197 18.8388 29.9658C17.7757 33.0575 16.1974 35.9483 14.1702 38.5165C12.1868 41.0483 9.95927 43.3853 7.78668 45.7344C7.3778 46.1848 7.45103 46.2883 7.97587 46.4587C11.8023 47.6759 15.6043 47.9254 19.4369 46.4587C22.0138 45.5033 24.3973 44.0933 26.4734 42.2959C29.5248 39.612 31.7706 36.2891 33.8699 32.8627C33.9051 32.7807 33.957 32.7069 34.0222 32.6459C34.0874 32.5849 34.1646 32.538 34.2489 32.5083C34.3332 32.4786 34.4228 32.4666 34.512 32.4731C34.6011 32.4796 34.688 32.5045 34.767 32.5462C35.121 32.7044 35.3773 32.9722 35.2064 33.3921C35.1194 33.6378 35.0004 33.8711 34.8525 34.0859C33.575 35.8752 32.2975 37.6604 31.0199 39.4416C30.9101 39.5876 30.6782 39.685 30.7941 39.9041C30.9101 40.1232 31.0871 40.038 31.2457 40.0502C32.3787 40.1632 33.5222 40.1079 34.6389 39.8858C38.6911 39.0581 42.3223 37.3906 45.2211 34.3476C47.296 32.1628 48.5471 29.6797 48.3152 26.5759C48.1504 24.318 46.3135 21.8897 44.2202 21.2385C44.0582 21.1647 43.8742 21.1551 43.7053 21.2116C43.5365 21.2681 43.3955 21.3865 43.3109 21.5428C42.2307 23.1434 41.1505 24.7562 40.0459 26.3446C38.9413 27.933 37.9222 29.3511 36.842 30.8421C36.5735 31.2073 36.2012 31.4507 35.7496 31.1647C35.298 30.8787 35.4994 30.4952 35.6642 30.1423C35.755 29.977 35.8635 29.8219 35.9876 29.6797C37.1105 28.1035 38.2456 26.5394 39.3563 24.9509C40.9491 22.6687 42.4077 20.3074 44.1592 18.1164C46.086 15.5313 48.4732 13.3219 51.2018 11.5984C53.175 10.4159 55.3705 9.64953 57.6524 9.34658C58.2017 9.27355 58.7998 9.46831 59.3063 9.10924C59.5809 8.91449 59.8372 8.67103 60.1973 8.92056C60.3388 9.02865 60.4411 9.17993 60.4884 9.35132C60.5358 9.52271 60.5257 9.70484 60.4597 9.86998C60.1381 11.4502 60.2009 13.0842 60.6428 14.6353C61.151 16.5178 62.1861 18.217 63.6271 19.5344C64.1838 20.1329 64.843 20.6275 65.5739 20.9951C64.8659 17.4835 65.702 14.3371 67.4047 11.4036C69.1074 8.47021 71.5973 6.36446 75.1003 5.67067C74.2825 5.29942 73.4769 4.97687 72.6592 4.68475C70.8772 4.07283 68.9625 3.95296 67.1179 4.33784C65.348 4.67257 63.6088 5.16554 62.3333 6.58965C62.2799 6.66229 62.2117 6.72285 62.1332 6.76737C62.0547 6.81189 61.9677 6.83936 61.8778 6.84798C61.7879 6.8566 61.6972 6.84618 61.6116 6.81739C61.526 6.7886 61.4475 6.7421 61.3812 6.68094C61.305 6.63329 61.2402 6.56942 61.1916 6.49389C61.143 6.41836 61.1117 6.33305 61.1001 6.24407C61.0884 6.15508 61.0966 6.06461 61.1241 5.97916C61.1516 5.89371 61.1978 5.81538 61.2592 5.74979C61.5887 5.37246 61.3935 5.22639 61.1127 4.9647C60.4072 4.44394 59.6407 4.01069 58.8303 3.67448C57.5157 2.97054 56.1173 2.43481 54.6682 2.07996C48.6533 0.843775 42.417 1.22393 36.5979 3.18152C33.7252 4.20505 30.963 5.51403 28.353 7.0887C24.7059 9.1502 21.2664 11.5571 18.0821 14.2762C15.7264 16.3576 13.389 18.4633 11.0456 20.5691C10.893 20.703 10.6916 20.8125 10.6611 21.0985C13.0542 20.6467 15.5055 20.5891 17.9173 20.9281C17.9896 20.951 18.0661 20.9578 18.1413 20.948C18.2165 20.9383 18.2887 20.9121 18.3527 20.8715C18.4167 20.8309 18.471 20.7767 18.5118 20.7129C18.5525 20.6491 18.5787 20.5772 18.5886 20.5021C19.2347 18.4283 20.0512 16.411 21.0297 14.471C22.116 12.2313 23.2328 10.0647 25.9119 9.19443C27.9197 8.54324 29.8055 8.28763 31.7584 9.19443C33.7113 10.1012 34.1995 11.7384 33.0277 13.339C31.972 14.7874 30.8613 16.1993 29.6895 17.5565C28.1272 19.3823 26.394 21.0194 24.905 22.8939C24.6669 23.186 24.6608 23.2956 24.9843 23.5329C26.1478 24.3469 27.202 25.3062 28.1211 26.3872C28.8291 27.2393 29.6041 28.0609 29.8299 29.205C29.8829 29.3521 29.8806 29.5134 29.8234 29.6589C29.7661 29.8045 29.6578 29.9243 29.5187 29.9962C29.1891 30.1666 28.945 29.9962 28.707 29.7527C28.469 29.5093 28.414 29.1137 28.2188 28.8155C26.825 26.5728 24.8119 24.7787 22.4211 23.6485C18.4286 21.8571 13.9234 21.5569 9.72736 22.8026C9.03314 22.9773 8.41953 23.3831 7.98807 23.9528C6.66885 25.7722 5.51107 27.7026 4.5278 29.7223C3.28284 32.1324 2.89836 34.8223 2.42845 37.5123ZM27.7305 10.0586C25.8997 10.5516 24.5266 11.1663 23.6356 12.5478C23.1144 13.3643 22.6515 14.2165 22.2502 15.0978C21.3367 16.9606 20.5537 18.8843 19.9068 20.8551C19.803 21.202 19.8763 21.3115 20.2058 21.3846C21.151 21.604 22.0696 21.9244 22.946 22.3401C23.0113 22.3875 23.0861 22.4201 23.1653 22.4356C23.2445 22.4512 23.3262 22.4494 23.4046 22.4303C23.4831 22.4111 23.5564 22.3752 23.6194 22.3249C23.6825 22.2747 23.7338 22.2113 23.7698 22.1392C24.8806 20.7029 26.1682 19.4127 27.3949 18.0799C29.1046 16.2854 30.6583 14.3492 32.0391 12.2922C32.4907 11.5862 32.3442 11.2028 31.6363 10.7098C31.0681 10.3328 30.4264 10.0798 29.7533 9.96762C29.0801 9.85539 28.3908 9.88641 27.7305 10.0586V10.0586ZM1.36046 41.9064C2.58102 41.4256 3.36217 40.5492 4.19825 39.758C6.20606 37.8592 8.00028 35.7474 10.0813 33.9155C11.1859 32.9479 12.3454 32.0532 13.4195 31.0551C14.0084 30.4022 14.7249 29.8762 15.525 29.5093C15.7996 29.4059 16.0987 29.345 16.3123 29.5945C16.4139 29.6974 16.4836 29.8274 16.5128 29.9689C16.542 30.1103 16.5296 30.2572 16.477 30.3918C15.8595 31.9037 15.0864 33.3477 14.1702 34.7006C12.2112 37.3176 9.8128 39.5389 7.51816 41.8516C6.49401 42.8384 5.63851 43.9855 4.98551 45.2476C4.81463 45.5884 4.54001 46.0752 4.90617 46.343C5.27234 46.6108 5.44322 46.0753 5.67513 45.8683C7.17821 44.4331 8.60418 42.9196 9.94707 41.3343C11.8906 39.301 13.6357 37.0879 15.1588 34.725C16.1261 33.0741 16.9254 31.3309 17.545 29.5215C17.8098 28.8313 17.8795 28.0818 17.7464 27.3549C17.6915 27.0688 17.7464 26.6672 17.3741 26.5698C17.0019 26.4724 16.7334 26.7463 16.5259 26.9897C14.8842 28.8703 12.8642 30.3553 11.0334 31.9741C9.81281 33.027 8.55562 34.0251 7.34117 35.0779C5.61409 36.5812 3.77716 37.9688 2.31249 39.7519C1.78023 40.3552 1.44775 41.1076 1.36046 41.9064V41.9064ZM12.7909 17.1853C13.1022 16.9236 13.2914 16.7775 13.4623 16.6193C15.11 15.0978 16.7333 13.5459 18.4848 12.1522C19.4796 11.361 19.5345 10.5516 18.6252 9.6813C17.9356 9.02402 17.1056 8.9936 16.2512 8.96926C16.0227 8.92911 15.7885 8.93448 15.5621 8.98506C15.3357 9.03564 15.1215 9.13042 14.932 9.26395C14.7425 9.39748 14.5814 9.56711 14.458 9.76304C14.3346 9.95897 14.2513 10.1773 14.2129 10.4055C13.6026 12.3774 13.2487 14.3918 12.8459 16.4063C12.8124 16.6647 12.794 16.9248 12.7909 17.1853V17.1853Z" fill="#2C3639"/>
<path d="M62.5592 9.64403C62.6081 10.0274 62.901 10.2526 63.0352 10.5934C63.1268 10.8125 63.261 11.056 62.9986 11.202C62.7362 11.3481 62.547 11.202 62.3884 11.0256C61.8853 10.4838 61.4861 9.85463 61.2105 9.16933C61.3537 9.94719 61.6571 10.687 62.1015 11.342C62.9209 12.6223 63.9528 13.7542 65.1529 14.6893C65.4092 14.9023 65.6655 15.1092 65.9035 15.3405C66.1415 15.5718 66.3613 15.7665 66.1049 16.0647C65.8486 16.3629 65.6167 16.1499 65.4092 15.9978C65.0243 15.7203 64.6536 15.4238 64.2985 15.1092C63.5929 14.4411 62.9343 13.7253 62.3273 12.967C61.7428 12.2244 61.2414 11.4203 60.8321 10.5691C61.0369 11.571 61.4304 12.5251 61.9917 13.3808C62.8788 14.6994 63.9355 15.8964 65.1346 16.9411C65.2624 17.0463 65.3846 17.158 65.5008 17.2758C65.6839 17.4827 65.9646 17.7079 65.696 18C65.4275 18.2922 65.2139 18.0426 64.9942 17.9027C64.2677 17.3719 63.5767 16.7946 62.9254 16.1743C63.5485 17.1536 64.2572 18.0762 65.0431 18.9312C65.3113 19.1989 65.5358 19.5069 65.7083 19.8441C65.7754 20.0206 65.8303 20.2336 65.6228 20.3553C65.4153 20.477 65.2994 20.3553 65.1895 20.2031C63.7004 18.493 61.9612 16.9593 61.0274 14.8353C60.3512 13.1909 59.8996 11.4632 59.6848 9.69882C59.6762 9.41565 59.7792 9.14036 59.9717 8.93199C60.5819 7.99476 61.4302 7.22184 62.0161 6.34546C62.8766 5.05525 64.1215 4.9396 65.2994 4.58662C66.7483 4.17902 68.2777 4.1476 69.7422 4.49533C69.8817 4.52677 70.0185 4.56951 70.1511 4.62313C70.3891 4.72051 70.7003 4.8179 70.5966 5.15263C70.4928 5.48735 70.2121 5.38388 69.9863 5.34736C68.1495 5.07967 66.2764 5.20834 64.4938 5.72469C65.3604 5.72469 66.0744 5.65774 66.7946 5.65166C67.0387 5.65166 67.4048 5.65167 67.4048 6.00465C67.4048 6.35764 67.0692 6.36373 66.7946 6.38807C66.2392 6.44893 65.6838 6.4976 65.1346 6.60106C66.0574 6.69286 66.9653 6.89725 67.8381 7.20966C68.4867 7.45082 69.0669 7.84557 69.5286 8.35991C69.7117 8.579 69.9314 8.84679 69.669 9.10849C69.4065 9.37018 69.1991 9.10848 69.0099 8.93199C67.9625 8.09138 66.656 7.6377 65.3116 7.64785C65.2044 7.63048 65.0948 7.63559 64.9897 7.66283C64.8846 7.69008 64.7864 7.73887 64.7013 7.80609C65.4092 8.09213 66.0805 8.33557 66.7396 8.62769C67.4179 8.91715 68.0642 9.27613 68.6681 9.69882C68.9183 9.8814 69.2113 10.1248 68.9916 10.4535C68.7719 10.7821 68.5094 10.49 68.2897 10.3865C66.6311 9.52818 64.8478 8.9347 63.0047 8.62769C63.4746 8.97459 63.9262 9.37018 64.4267 9.67448C65.4641 10.2831 66.526 10.8917 67.5696 11.5003C67.8503 11.6646 68.2531 11.8167 68.0395 12.2367C67.8259 12.6566 67.4842 12.401 67.2156 12.2975C65.7307 11.7375 64.3396 10.9556 63.0902 9.97877C62.9559 9.85705 62.8461 9.65012 62.5592 9.64403Z" fill="#2C3639"/>
<path d="M34.7118 33.3501C37.7632 31.7981 41.1319 31.4147 44.4763 31.0252C45.4889 30.9066 46.5081 30.8517 47.5277 30.8609C47.8267 30.8609 48.2417 30.8122 48.2722 31.22C48.3027 31.6277 47.8389 31.6643 47.5338 31.6825C45.947 31.7738 44.3542 31.7921 42.7797 32.0233C40.1067 32.4128 37.4276 32.8023 34.9437 33.983C34.7485 34.0685 34.5436 34.1298 34.3335 34.1656C34.1504 34.2082 33.9246 34.1351 34.0222 33.9343C34.2175 33.5022 33.9368 33.1188 33.9917 32.7171C34.071 32.1085 33.7415 31.8773 33.1678 32.0355C32.7849 32.1624 32.4151 32.3254 32.0632 32.5224C31.9555 32.598 31.8247 32.6339 31.6933 32.6239C31.5619 32.614 31.4381 32.5587 31.3431 32.4676C31.1173 32.2363 31.2272 31.9746 31.3797 31.7555C31.7703 31.1895 32.1853 30.6418 32.5698 30.0758C32.8131 29.7213 32.9832 29.322 33.0702 28.9012C33.1251 28.6152 33.3143 28.2926 33.0092 28.0431C32.704 27.7936 32.4599 27.9883 32.1975 28.0979L31.3553 28.4813C31.0502 28.6213 30.745 28.816 30.4399 28.5117C30.1347 28.2074 30.3667 27.8423 30.5742 27.5562C31.0308 26.9777 31.3707 26.3163 31.575 25.6087C31.6604 25.2801 31.8679 24.8845 31.5384 24.6046C31.2088 24.3246 30.806 24.5559 30.4704 24.7019C30.08 24.8817 29.701 25.0849 29.3353 25.3105C29.2196 25.396 29.0795 25.4422 28.9356 25.4422C28.7916 25.4422 28.6515 25.396 28.5358 25.3105C28.4174 25.2094 28.3375 25.0707 28.3097 24.9177C28.2819 24.7647 28.3079 24.6068 28.3833 24.4707C28.6447 23.9659 28.8592 23.4383 29.024 22.8944C29.1034 22.4927 29.2254 22.0728 28.8227 21.7868C28.6403 21.6708 28.4286 21.6092 28.2124 21.6092C27.9962 21.6092 27.7844 21.6708 27.6021 21.7868C27.2848 21.945 26.9918 22.158 26.6806 22.3162C26.0398 22.6388 25.6065 22.3162 25.6614 21.6224C25.6652 21.336 25.7475 21.0561 25.8994 20.813C26.0459 20.5878 26.3266 20.4418 26.5097 20.6609C26.8637 21.1234 27.1932 20.886 27.5655 20.7461C27.9018 20.5912 28.2739 20.5298 28.6423 20.5683C29.0108 20.6069 29.362 20.744 29.6587 20.9652C29.9504 21.195 30.165 21.5079 30.274 21.8623C30.383 22.2167 30.3813 22.5958 30.269 22.9492C30.147 23.4726 30.2263 23.6125 30.7999 23.4726C32.2341 23.1196 33.1251 24.002 32.8505 25.4505C32.8311 25.5918 32.7963 25.7306 32.7467 25.8643C32.466 26.4729 32.2097 27.045 33.357 27.0815C33.9307 27.0815 34.2663 27.7692 34.1931 28.4509C34.0852 29.2276 33.8171 29.9735 33.4058 30.6418C33.3082 30.8 33.0946 30.9948 33.4791 31.1226C34.9437 31.5608 35.139 31.9199 34.7118 33.3501Z" fill="#2C3639"/>
<path d="M40.8269 13.437C40.4729 13.577 40.1129 13.7048 39.7711 13.8631C39.4294 14.0213 39.1303 14.1491 38.8618 13.8205C38.5933 13.4918 38.8191 13.2119 38.9839 12.9137C39.1998 12.5732 39.3818 12.2124 39.527 11.8364C39.7833 11.0818 39.405 10.6862 38.6238 10.8444C38.0052 11.0123 37.409 11.2534 36.8479 11.5626C36.5367 11.7086 36.2376 11.8547 35.9264 11.5626C35.6151 11.2705 35.8104 10.9844 35.9264 10.6984C36.1614 10.285 36.3148 9.83047 36.378 9.35946C36.4268 8.70826 36.2376 8.54395 35.5968 8.69609C35.0382 8.80904 34.4993 9.00388 33.9979 9.27427C33.8923 9.35328 33.7638 9.39599 33.6317 9.39599C33.4997 9.39599 33.3712 9.35328 33.2656 9.27427C32.997 9.04909 33.0703 8.76913 33.1557 8.48918C33.1557 8.40397 33.2351 8.31878 33.2717 8.23358C33.3876 7.93536 33.766 7.62498 33.5097 7.33894C33.2534 7.0529 32.7956 7.23548 32.4356 7.33894C31.9796 7.47982 31.546 7.68474 31.1479 7.94754C30.8977 8.0936 30.6353 8.23358 30.3545 8.04491C30.0738 7.85625 30.1287 7.54587 30.202 7.26591C30.3545 6.65732 30.4949 6.10349 29.9212 5.64096C29.894 5.61697 29.8721 5.58746 29.8572 5.55441C29.8422 5.52136 29.8345 5.48552 29.8345 5.44925C29.8345 5.41299 29.8422 5.37714 29.8572 5.34409C29.8721 5.31104 29.894 5.28153 29.9212 5.25754C29.9809 5.18149 30.0645 5.12757 30.1585 5.10441C30.2525 5.08124 30.3516 5.09016 30.44 5.12974C30.7146 5.21456 30.9552 5.38389 31.1273 5.61349C31.2994 5.84309 31.3942 6.12115 31.3981 6.40779C31.4286 6.79729 31.5568 6.82163 31.8863 6.706C32.3438 6.50694 32.8341 6.39348 33.3327 6.37128C34.181 6.37128 34.5532 6.69383 34.6509 7.5276C34.6936 7.91102 34.8279 7.97188 35.1452 7.86842C35.2307 7.83799 35.3283 7.81973 35.4198 7.79539C36.793 7.46675 37.5802 8.16054 37.4399 9.57856C37.3605 10.3941 37.3605 10.388 38.1173 10.0959C38.4255 9.93649 38.7724 9.86626 39.1185 9.89315C39.4647 9.92004 39.7965 10.043 40.0763 10.248C40.3409 10.4617 40.5312 10.7532 40.6199 11.0811C40.7087 11.4089 40.6914 11.7563 40.5706 12.0738C40.4485 12.5363 40.5706 12.6459 41.0039 12.4998C41.0478 12.4848 41.0927 12.4726 41.1381 12.4633C41.9315 12.2381 42.7188 12.1408 43.2741 12.9137C43.5035 13.2504 43.6179 13.652 43.6003 14.0587C43.5827 14.4655 43.4341 14.8557 43.1765 15.1715C43.1335 15.2561 43.0846 15.3374 43.03 15.415C42.6028 15.9445 42.1939 16.3218 42.9202 17.0886C43.6464 17.8554 42.7371 19.9064 41.6508 20.1681C41.5843 20.192 41.5121 20.1955 41.4436 20.1782C41.3751 20.1608 41.3133 20.1234 41.2663 20.0707C41.219 20.0156 41.193 19.9455 41.193 19.8729C41.193 19.8004 41.219 19.7303 41.2663 19.6751C41.5165 19.3039 41.7911 18.9448 42.0353 18.5675C42.1379 18.4349 42.2014 18.2763 42.2186 18.1097C42.2359 17.9431 42.2062 17.7749 42.1329 17.6242C41.9498 17.2834 41.6081 17.3442 41.309 17.3807C41.01 17.4173 40.6987 17.4416 40.5645 17.1312C40.4302 16.8208 40.5645 16.5774 40.7903 16.3644C41.2616 15.8986 41.6924 15.3936 42.078 14.8551C42.2275 14.6421 42.3447 14.4083 42.4258 14.1613C42.5906 13.5527 42.2916 13.1936 41.6447 13.291C41.3663 13.3469 41.0913 13.4181 40.8208 13.504L40.8269 13.437Z" fill="#2C3639"/>
<path d="M36.5733 4.88027C37.1348 4.63683 37.6596 4.41774 38.1723 4.18039C38.3583 4.05075 38.5785 3.9787 38.8054 3.97328C39.0323 3.96787 39.2557 4.02932 39.4477 4.14995C39.6395 4.31169 39.7801 4.52537 39.8527 4.76514C39.9253 5.00491 39.9266 5.2605 39.8566 5.50103C39.8566 5.70187 39.6979 5.89662 39.8078 6.17658C40.3631 5.98183 40.9124 5.77491 41.4677 5.56798C41.7558 5.42086 42.0816 5.36365 42.4027 5.40382C42.7238 5.44398 43.0254 5.57965 43.2681 5.79316C43.8051 6.32872 43.7258 7.01035 43.5732 7.66155C43.5244 7.88064 43.2681 8.13624 43.4817 8.31273C43.6953 8.48922 43.9211 8.23971 44.1408 8.17277C44.2323 8.17277 44.3177 8.1119 44.4154 8.09365C45.1416 7.97801 45.9045 7.75892 46.4415 8.49532C46.9786 9.23172 46.7466 9.92552 46.3561 10.6254C46.3024 10.7203 46.2535 10.8178 46.2096 10.9175C46.2828 11.094 46.4171 11.0697 46.5269 11.0758C47.7475 11.1549 48.1564 11.7817 47.7902 12.932C47.6278 13.428 47.3349 13.8715 46.9419 14.2161C46.7222 14.4169 46.4781 14.7395 46.1547 14.4595C45.8312 14.1796 46.1242 13.9361 46.2584 13.6988C46.4415 13.3641 46.6673 13.0537 46.8138 12.7068C47.0213 12.2321 46.8992 11.9034 46.3011 11.9643C45.9716 11.9947 45.6482 12.0739 45.3247 12.1286C45.0013 12.1834 44.6412 12.4208 44.4093 12.0556C44.1774 11.6904 44.5252 11.4105 44.7449 11.1488C45.0723 10.7811 45.3493 10.3719 45.5688 9.93159C45.6481 9.81142 45.6903 9.67074 45.6903 9.52689C45.6903 9.38305 45.6481 9.24235 45.5688 9.12217C45.3674 8.87265 45.0928 8.97002 44.8365 9.0187C44.0159 9.15711 43.2253 9.43502 42.4991 9.84031C42.194 10.0229 41.8888 10.1629 41.5898 9.84031C41.2908 9.51775 41.4494 9.18303 41.6691 8.87265C42.057 8.36073 42.3448 7.78058 42.5174 7.1625C42.6822 6.4687 42.5174 6.26786 41.8034 6.42001C40.9265 6.63069 40.0767 6.94107 39.2707 7.34507C38.9412 7.49722 38.5933 7.67371 38.2821 7.34507C37.9709 7.01643 38.1173 6.69388 38.2821 6.36524C38.3756 6.16742 38.4571 5.96419 38.5262 5.75665C38.6177 5.50104 38.9046 5.20892 38.6422 4.98374C38.3797 4.75856 38.0868 5.01416 37.8427 5.1237C37.2324 5.39757 36.7015 5.70188 36.14 6.00617C35.8776 6.14615 35.6152 6.26786 35.3406 6.07311C35.0659 5.87836 35.072 5.53754 35.1636 5.23325C35.471 4.53968 35.5624 3.77005 35.426 3.02406C35.2978 2.61022 35.7556 2.57979 36.0363 2.75628C36.1963 2.86076 36.3275 3.00343 36.4181 3.17137C36.5087 3.3393 36.5557 3.52716 36.555 3.71785C36.5838 4.10464 36.5899 4.49277 36.5733 4.88027V4.88027Z" fill="#2C3639"/>
<path d="M23.422 31.4022C24.6975 30.9458 25.1369 31.2136 25.2528 32.4429C25.3579 33.5224 25.092 34.6054 24.4987 35.5144C23.9055 36.4233 23.0201 37.1043 21.9878 37.4456C21.5134 37.5991 21.0305 37.7251 20.5415 37.8229C19.681 37.9933 19.1928 37.622 19.2233 36.7335C19.2486 35.9617 19.4361 35.2038 19.7735 34.5088C20.111 33.8137 20.5909 33.197 21.1823 32.6985C21.8064 32.0839 22.5772 31.6378 23.422 31.4022ZM23.422 32.6194C22.7667 32.8909 22.1806 33.305 21.7065 33.8315C21.2324 34.358 20.8823 34.9836 20.6818 35.6624C20.5964 35.9241 20.3645 36.271 20.5903 36.4596C20.8161 36.6483 21.2006 36.4596 21.4569 36.344C21.9512 36.1919 21.6461 35.845 21.5973 35.5833C21.5066 35.3246 21.4923 35.0455 21.5561 34.779C21.62 34.5125 21.7592 34.2699 21.9573 34.08C22.1458 33.8956 22.3831 33.7685 22.6414 33.7135C22.8997 33.6585 23.1683 33.678 23.4159 33.7696C23.6051 33.8366 23.8431 34.1591 24.0262 33.8244C24.2092 33.4897 24.4473 33.0698 24.2825 32.6803C24.1177 32.2908 23.8065 32.5951 23.4525 32.6011L23.422 32.6194Z" fill="#2C3639"/>
<path d="M35.3224 26.2652C35.0356 26.3078 34.6694 26.6121 34.3826 26.2652C34.0957 25.9183 34.3826 25.6566 34.5046 25.3341C34.9665 24.4486 35.2093 23.4657 35.2126 22.4676C35.1759 21.7129 34.8464 21.4452 34.1019 21.6338C33.718 21.7551 33.3411 21.8973 32.9728 22.0598C32.7287 22.1451 32.4663 22.2303 32.2344 22.0172C32.1463 21.9193 32.0903 21.7969 32.074 21.6664C32.0576 21.5359 32.0816 21.4034 32.1429 21.2869C32.3884 20.671 32.5823 20.0359 32.7226 19.3881C32.8447 18.6152 32.5884 18.3718 31.8255 18.5239C31.2912 18.6449 30.7855 18.8681 30.3364 19.1812C30.2303 19.2782 30.0976 19.3416 29.9553 19.3633C29.8129 19.385 29.6673 19.364 29.537 19.3029C29.2379 19.1325 29.2562 18.8343 29.2868 18.5482C29.3377 18.1006 29.3274 17.6481 29.2563 17.2033C29.2196 16.9659 29.2563 16.7042 29.5309 16.6251C29.5881 16.6046 29.6489 16.5963 29.7095 16.6008C29.7701 16.6053 29.8291 16.6224 29.8826 16.6511C29.9362 16.6798 29.983 16.7194 30.0202 16.7674C30.0574 16.8153 30.084 16.8705 30.0984 16.9294C30.312 17.9579 30.8552 17.7692 31.6485 17.538C33.2475 17.0876 34.169 18.0553 33.8455 19.6985C33.7946 19.9309 33.7315 20.1605 33.6563 20.3862C33.5587 20.6905 33.6563 20.7331 33.9615 20.7148C35.7923 20.5931 36.4636 21.2687 36.3049 23.1492C36.2573 23.7165 36.115 24.2719 35.8839 24.7924C35.7374 25.1089 35.8045 25.2306 36.189 25.2793C36.5326 25.3579 36.8525 25.5168 37.1223 25.7431C37.392 25.9693 37.604 26.2563 37.7405 26.5804C37.877 26.9045 37.9343 27.2563 37.9075 27.6068C37.8808 27.9573 37.7707 28.2964 37.5865 28.5961C37.4706 28.7605 37.3424 28.9065 37.1227 28.8517C36.903 28.797 36.8908 28.5353 36.9274 28.3223C36.9884 28.022 37.0069 27.7147 36.9824 27.4094C36.8481 26.1861 36.4941 25.9122 35.3224 26.2652Z" fill="#2C3639"/>
<path d="M49.5911 8.11801C49.8651 8.16218 50.1362 8.22315 50.4027 8.30058C50.6828 8.37795 50.9226 8.55891 51.0735 8.80658C51.2243 9.05424 51.2747 9.34995 51.2144 9.6334C51.1377 10.0146 50.9797 10.3748 50.7512 10.6898C50.5227 11.0048 50.2291 11.2672 49.8901 11.4592C49.7131 11.5748 49.4812 11.6539 49.2798 11.4592C49.0784 11.2644 49.2371 11.0697 49.347 10.8871C49.5911 10.5037 49.8535 10.1385 50.0671 9.74294C50.2807 9.34736 50.1464 9.04914 49.6521 9.03697C49.2737 9.03697 48.8954 9.03698 48.517 9.08567C48.2668 9.08567 48.0349 9.08567 47.9067 8.86049C47.8496 8.74313 47.8318 8.61057 47.856 8.48237C47.8802 8.35417 47.945 8.2371 48.041 8.14843C48.3827 7.75284 48.7489 7.38161 49.0785 6.97994C49.1934 6.87264 49.2712 6.73178 49.3008 6.5776C49.3304 6.42342 49.3103 6.26386 49.2432 6.12182C49.0601 5.79318 48.7001 5.82969 48.4133 5.89055C47.7175 6.0427 47.034 6.23745 46.3444 6.42002C46.0393 6.49914 45.7341 6.59044 45.49 6.29222C45.4049 6.16183 45.3596 6.00961 45.3596 5.85404C45.3596 5.69846 45.4049 5.54624 45.49 5.41585C45.7036 4.97766 46.1003 4.49687 45.7585 4.04651C45.4168 3.59615 44.776 3.83959 44.2817 3.91262C42.6705 4.15606 42.6766 4.17432 43.116 2.6224C43.1898 2.4086 43.2159 2.18136 43.1927 1.95646C43.1696 1.73155 43.0976 1.51437 42.9818 1.32C42.8658 1.14351 42.7621 0.924427 42.9818 0.741849C43.0788 0.669338 43.1993 0.635395 43.32 0.646644C43.4407 0.657893 43.5529 0.713514 43.6348 0.802693C43.8877 0.984621 44.0835 1.23465 44.1991 1.5235C44.3148 1.81236 44.3455 2.1281 44.2878 2.43374C44.2206 2.85367 44.2878 3.04232 44.7821 2.95712C46.4543 2.76846 46.9181 3.20055 46.9791 4.9107C46.9791 5.26369 47.1622 5.23327 47.388 5.16632C47.844 5.03033 48.3159 4.95462 48.7916 4.94114C49.0669 4.90553 49.3466 4.94929 49.5977 5.06727C49.8487 5.18525 50.0607 5.37252 50.2083 5.60687C50.356 5.84122 50.4333 6.11286 50.4309 6.38964C50.4286 6.66642 50.3468 6.93674 50.1953 7.1686C50.0143 7.49757 49.8125 7.81469 49.5911 8.11801V8.11801Z" fill="#2C3639"/>
<path d="M34.7547 14.738C37.1469 14.1294 37.9037 15.4561 37.3666 17.501C37.6923 17.5496 38.0235 17.5496 38.3492 17.501C38.5573 17.4818 38.767 17.5096 38.9629 17.5823C39.1587 17.6551 39.3356 17.7709 39.4804 17.9212C39.6252 18.0714 39.7343 18.2523 39.7994 18.4503C39.8645 18.6483 39.884 18.8585 39.8566 19.0651C39.7718 19.7739 39.5048 20.449 39.0815 21.0247C38.8374 21.4021 38.636 21.6698 39.3012 21.8524C39.5344 21.9182 39.734 22.0697 39.8597 22.2763C39.9854 22.483 40.0279 22.7295 39.9786 22.9661C39.97 23.287 39.8784 23.6001 39.7126 23.8752C39.5469 24.1503 39.3127 24.3781 39.0327 24.5363C38.7275 24.6885 38.5811 24.4633 38.6787 24.159C38.7764 23.8547 38.929 23.6539 39.0266 23.3861C39.2768 22.7227 39.0266 22.4427 38.3431 22.5584C38.2271 22.5584 38.1112 22.6132 37.9952 22.6314C37.8876 22.6615 37.7738 22.6615 37.6662 22.6314C37.5586 22.6014 37.4613 22.5424 37.3849 22.461C37.3122 22.3657 37.2728 22.2491 37.2728 22.1293C37.2728 22.0095 37.3122 21.893 37.3849 21.7976C37.7389 21.189 38.1356 20.6474 38.4529 20.0388C38.6787 19.6128 39.0022 19.0955 38.6482 18.6451C38.2943 18.1948 37.7328 18.4625 37.2629 18.5721C36.9857 18.6396 36.7127 18.7229 36.4451 18.8216C36.3382 18.8751 36.2171 18.8938 36.0989 18.8753C35.9807 18.8567 35.8714 18.8018 35.786 18.7182C35.701 18.6187 35.6503 18.4945 35.6415 18.3641C35.6327 18.2337 35.6663 18.1039 35.7372 17.9939C35.9864 17.5934 36.1911 17.1668 36.3475 16.722C36.4205 16.5452 36.442 16.3516 36.4096 16.1632C36.3772 15.9748 36.2922 15.7993 36.1644 15.6569C36.0153 15.5583 35.8418 15.5027 35.663 15.4962C35.4843 15.4898 35.3072 15.5328 35.1513 15.6204C34.7241 15.7786 34.3092 15.9491 33.9003 16.1377C33.7952 16.2153 33.6679 16.2572 33.5372 16.2572C33.4064 16.2572 33.2791 16.2153 33.174 16.1377C33.072 16.0372 33.0086 15.904 32.9952 15.7615C32.9819 15.619 33.0192 15.4764 33.1008 15.3587C33.2473 15.0362 33.4365 14.7501 33.5951 14.4154C33.7496 14.1723 33.8065 13.88 33.7544 13.5968C33.7024 13.3137 33.5453 13.0606 33.3144 12.8878C33.1496 12.7479 32.8201 12.6322 33.0337 12.3462C33.1314 12.2406 33.2634 12.1729 33.4064 12.1551C33.5494 12.1373 33.694 12.1705 33.8148 12.2488C34.1382 12.4248 34.4025 12.6917 34.5751 13.0163C34.7476 13.3409 34.8206 13.7089 34.7852 14.0746C34.8218 14.2693 34.7852 14.4823 34.7547 14.738Z" fill="#2C3639"/>
<path d="M17.6123 26.0837C17.64 25.9132 17.685 25.746 17.7466 25.5846C17.9248 25.0942 18.1604 24.6264 18.4484 24.191C20.6454 21.5253 21.6828 18.2267 23.3855 15.2933C24.5267 13.3215 25.7595 11.4105 27.0472 9.54819C27.2059 9.32301 27.3951 8.98218 27.7185 9.18911C28.0419 9.39603 27.7917 9.74901 27.6453 9.98636C25.8144 12.9867 24.0324 16.0054 22.4457 19.1153C21.2618 21.4462 19.7177 23.5458 18.3995 25.8098C18.3079 25.9754 18.1905 26.1253 18.0517 26.2541C17.893 26.4062 17.7161 26.3819 17.6123 26.0837Z" fill="#2C3639"/>
<path d="M52.105 1.86152C52.1609 2.01878 52.1838 2.18584 52.1723 2.3523C52.1607 2.51877 52.115 2.68109 52.0379 2.82918C51.7144 3.43777 51.9829 3.43776 52.4956 3.48645C53.6612 3.5534 54.3264 4.39325 54.0213 5.36701C53.9867 5.50577 53.9244 5.63617 53.8382 5.75042C53.5086 6.10341 53.649 6.26164 54.0335 6.46856C54.1884 6.53126 54.3293 6.62401 54.448 6.74143C54.5667 6.85885 54.6609 6.99859 54.7251 7.15258C54.7892 7.30656 54.8221 7.47172 54.8217 7.63846C54.8214 7.8052 54.7879 7.97021 54.7231 8.12394C54.6083 8.46476 54.3931 8.76319 54.1058 8.98031C53.8184 9.19743 53.472 9.32316 53.1119 9.34113C53.0172 9.34947 52.9221 9.32892 52.8393 9.28219C52.7564 9.23546 52.6898 9.16476 52.6481 9.07943C52.5749 8.86643 52.7153 8.73253 52.8617 8.59864C54.0091 7.56403 53.9725 7.38146 52.5139 6.87633C51.8609 6.65115 51.7877 6.26773 52.282 5.78694C52.5688 5.5009 53.1181 5.28789 52.8923 4.78276C52.6665 4.27763 52.0867 4.39934 51.6229 4.43586C51.3423 4.46238 51.0646 4.51329 50.7929 4.58801C50.4939 4.66104 50.1826 4.66712 50.0301 4.38109C49.9565 4.25588 49.9302 4.10856 49.9559 3.96572C49.9816 3.82288 50.0577 3.69392 50.1704 3.60209C50.3108 3.43777 50.4572 3.28562 50.5854 3.11522C50.806 2.87903 50.9423 2.57686 50.9732 2.25557C51.0041 1.93428 50.9278 1.6118 50.7563 1.33811C50.6403 1.15554 50.5244 0.948625 50.7197 0.759961C50.915 0.571297 51.1713 0.674756 51.3727 0.796475C51.7421 1.04735 52.0034 1.42748 52.105 1.86152V1.86152Z" fill="#2C3639"/>
<path d="M32.3502 10.3025C32.4127 10.2778 32.4812 10.2727 32.5467 10.2879C32.6121 10.3031 32.6713 10.3379 32.7164 10.3877C32.7743 10.4639 32.8056 10.5568 32.8056 10.6524C32.8056 10.748 32.7743 10.841 32.7164 10.9172C32.4047 11.5026 32.0346 12.0551 31.6118 12.5665C29.1707 15.4593 26.7296 18.3501 24.2885 21.2389C23.8552 21.7501 23.4707 22.2857 23.0679 22.7969C22.8909 23.0038 22.6834 23.3203 22.3661 23.0586C22.0487 22.7969 22.2928 22.5352 22.4515 22.304C23.4002 20.914 24.4378 19.5866 25.5578 18.3298C27.7731 15.7981 29.9701 13.2481 32.0939 10.6372C32.1488 10.5155 32.2648 10.3938 32.3502 10.3025Z" fill="#2C3639"/>
<path d="M15.4886 21.5671C15.5593 21.5264 15.6411 21.5091 15.7223 21.5178C15.8035 21.5266 15.8798 21.5609 15.9402 21.6158C15.9882 21.6694 16.0148 21.7387 16.0148 21.8106C16.0148 21.8824 15.9882 21.9517 15.9402 22.0053C15.7485 22.3045 15.53 22.5856 15.2872 22.8452C12.3976 25.8296 9.93335 29.1963 7.96384 32.8505C7.86715 33.0406 7.75701 33.2236 7.63428 33.3982C7.47561 33.6112 7.35356 34.0068 7.02401 33.7999C6.69446 33.5929 6.89585 33.2765 7.02401 33.0331C8.09985 30.7672 9.40009 28.6142 10.9054 26.6063C12.0985 24.8664 13.5003 23.2784 15.0797 21.8775C15.2078 21.7862 15.3604 21.6463 15.4886 21.5671Z" fill="#2C3639"/>
<path d="M38.5019 29.6259C39.4112 29.4311 40.3327 29.2485 41.2176 29.0477C41.6763 28.9343 42.1499 28.8933 42.6213 28.926C42.841 28.926 43.0851 28.9686 43.1095 29.2363C43.1339 29.5041 42.8715 29.565 42.6701 29.6137C42.1636 29.7354 41.6509 29.8389 41.1444 29.9484C39.6957 30.2285 38.2683 30.6088 36.8725 31.0865C36.7188 31.1493 36.5619 31.2042 36.4025 31.2508C36.2195 31.2934 36.0059 31.3421 35.896 31.1352C35.7862 30.9282 35.9387 30.7761 36.0913 30.6604C36.2439 30.5448 36.6711 30.417 36.4392 29.9849C36.3659 29.8571 36.5795 29.7111 36.726 29.6259C38.2828 28.5823 40.0524 27.8964 41.9073 27.6175C42.1941 27.581 42.6762 27.368 42.7433 27.8487C42.7983 28.2261 42.3283 28.2322 42.0476 28.3052C40.8011 28.5488 39.6033 28.9949 38.5019 29.6259V29.6259Z" fill="#2C3639"/>
<path d="M5.49194 29.8807C5.49345 29.5122 5.60384 29.1524 5.8093 28.8461C6.62198 27.4286 7.52501 26.0646 8.51282 24.7624C9.16371 23.7709 9.92533 22.8562 10.7831 22.0359C10.9906 21.8533 11.2041 21.5612 11.5032 21.8229C11.8022 22.0846 11.5032 22.3098 11.3872 22.5167C9.6459 24.9227 7.91474 27.3165 6.19376 29.6981C6.0656 29.8685 5.94355 30.0694 5.68724 30.0085C5.6079 30.0146 5.54687 29.9233 5.49194 29.8807Z" fill="#2C3639"/>
<path d="M42.1817 25.395C44.0791 24.8712 46.059 24.7122 48.016 24.9264C48.2231 24.949 48.4275 24.9918 48.6263 25.0542C48.8399 25.1212 49.0291 25.2368 48.9741 25.5046C48.9192 25.7723 48.7361 25.7663 48.5347 25.7663H46.6124C44.1007 25.7817 41.615 26.2754 39.289 27.2208C39.1807 27.2674 39.0684 27.304 38.9534 27.3303C38.7642 27.3669 38.5384 27.4095 38.4591 27.1843C38.3797 26.9591 38.5689 26.8374 38.7398 26.7583C39.8328 26.1778 40.9872 25.7206 42.1817 25.395Z" fill="#2C3639"/>
<path d="M58.2992 3.69845C58.4078 4.02265 58.4126 4.37246 58.3131 4.69954C58.2137 5.02662 58.0147 5.3148 57.7439 5.52423C57.3838 5.82853 57.3167 6.04761 57.6096 6.44929C57.7732 6.67167 57.8614 6.9403 57.8614 7.21612C57.8614 7.49194 57.7732 7.76057 57.6096 7.98296C57.4854 8.18977 57.3045 8.3569 57.0883 8.46472C56.8721 8.57253 56.6295 8.61654 56.389 8.59155C56.1754 8.59155 55.9435 8.54286 55.8642 8.30551C55.7849 8.06816 55.9802 7.94643 56.1632 7.81862C56.9261 7.29523 56.92 6.97269 56.1632 6.38844C55.4065 5.80419 55.4248 5.53641 56.3036 5.17125C57.3289 4.72698 57.5791 3.8932 56.9993 2.91945C56.8712 2.70035 56.4684 2.45082 56.7857 2.20738C57.1031 1.96395 57.4448 2.26217 57.6828 2.52386C57.9791 2.86094 58.1903 3.26361 58.2992 3.69845V3.69845Z" fill="#2C3639"/>
<path d="M39.5575 38.5468C37.0666 39.1054 34.5184 39.3689 31.9656 39.3319C31.8947 39.3412 31.8229 39.3412 31.752 39.3319C31.4469 39.2528 30.9648 39.3319 30.9892 38.8754C31.0136 38.419 31.4835 38.559 31.7886 38.559C34.2341 38.5648 36.6744 38.3345 39.0753 37.8712C39.9114 37.7008 40.7658 37.6035 41.5836 37.3539C41.7362 37.3052 41.9437 37.2261 42.0291 37.427C42.1145 37.6278 41.9131 37.7374 41.7484 37.8347C41.0463 38.1511 40.3116 38.3899 39.5575 38.5468Z" fill="#2C3639"/>
<path d="M17.3497 46.5127C15.1283 46.9387 12.9252 47.2552 10.716 46.6222C10.3316 46.5127 9.70298 46.4944 9.77011 45.971C9.83724 45.4476 10.4658 45.6302 10.8381 45.685C12.9334 45.8959 15.0439 45.9122 17.1422 45.7337C17.5511 45.7337 18.2346 45.4659 18.3262 45.9771C18.4177 46.4883 17.661 46.2997 17.3497 46.5127Z" fill="#2C3639"/>
<path d="M25.4177 16.6547C25.4598 16.4938 25.5108 16.3354 25.5703 16.18C25.8888 15.4892 26.2994 14.8443 26.7908 14.263C27.8955 12.7841 29.0245 11.3235 30.1474 9.86283C30.1887 9.80342 30.2335 9.74652 30.2816 9.69242C30.4403 9.5281 30.599 9.27857 30.8919 9.45506C31.1848 9.63155 31.0384 9.87499 30.9285 10.0637C30.7027 10.4775 30.483 10.9035 30.2328 11.2808C29.0123 13.1797 27.4378 14.7985 26.1501 16.6486C26.0463 16.7947 25.9182 16.959 25.6985 16.9286C25.4788 16.8982 25.4604 16.8495 25.4177 16.6547Z" fill="#2C3639"/>
<path d="M14.9756 8.6704C14.9976 10.5269 14.8279 12.3807 14.4691 14.2025C14.3132 15.1378 13.9974 16.0395 13.5353 16.8682C13.4133 17.0629 13.2912 17.3429 13.0044 17.2333C12.7176 17.1238 12.7847 16.8438 12.8579 16.6247C13.7001 14.1538 13.9198 11.5795 14.2189 9.01728C14.2405 8.85346 14.2711 8.69093 14.3104 8.53041C14.3531 8.34175 14.4141 8.13482 14.6583 8.147C14.9024 8.15917 14.939 8.36001 14.9756 8.6704Z" fill="#2C3639"/>
<path d="M35.3162 35.8939C36.6481 35.5814 38.0033 35.3778 39.3685 35.2854C39.6065 35.2854 39.9787 35.1697 40.0337 35.4984C40.0886 35.827 39.6614 35.8574 39.4234 35.9C37.9282 36.1435 36.4513 36.4782 34.9745 36.8312C34.8219 36.8677 34.4862 36.8312 34.8463 37.1476C35.0111 37.2998 34.7486 37.4885 34.5717 37.5372C33.6563 37.7745 32.7408 38.024 31.8132 38.1944C31.4165 38.2675 31.2518 38.0058 31.4837 37.5858C31.6176 37.3385 31.8332 37.1449 32.0939 37.0381L35.3162 35.8939Z" fill="#2C3639"/>
<path d="M13.8772 17.306C14.3273 17.1507 14.8103 17.1156 15.2782 17.2042C15.746 17.2929 16.1825 17.5021 16.5441 17.8111C16.8859 18.1276 17.1239 18.0789 17.4473 17.8111C17.6901 17.5479 17.9942 17.3486 18.3328 17.2308C18.6713 17.1129 19.0338 17.0802 19.388 17.1356C19.5423 17.1559 19.6896 17.2122 19.8179 17.3C19.9462 17.3878 20.0519 17.5045 20.1265 17.6407C20.1809 17.7191 20.2068 17.8137 20.2002 17.9088C20.1935 18.0039 20.1546 18.094 20.0898 18.1641C20.0343 18.2281 19.9575 18.2702 19.8735 18.2824C19.7894 18.2947 19.7038 18.2765 19.6321 18.231C18.8388 17.7503 18.2834 18.231 17.722 18.6753C16.7699 19.4239 16.7821 19.4178 15.9827 18.5962C15.7279 18.3624 15.4188 18.1955 15.0832 18.1105C14.7476 18.0255 14.3961 18.0251 14.0603 18.1093C13.7552 18.158 13.45 18.2797 13.1693 18.3467C12.9618 18.3893 12.6933 18.6388 12.559 18.298C12.4248 17.9572 12.7177 17.8841 12.9008 17.7381C13.195 17.5321 13.5266 17.3853 13.8772 17.306V17.306Z" fill="#2C3639"/>
<path d="M19.1074 21.5975C19.189 21.5647 19.2791 21.5594 19.364 21.5825C19.4488 21.6056 19.5238 21.6557 19.5774 21.7253C19.6363 21.801 19.6682 21.8942 19.6682 21.99C19.6682 22.0859 19.6363 22.179 19.5774 22.2547C19.3383 22.5781 19.0685 22.8777 18.7718 23.1494C17.2225 24.5108 15.8673 26.0772 14.744 27.8051C14.5365 28.1094 14.329 28.7241 13.9079 28.4624C13.4868 28.2007 13.9445 27.7321 14.1215 27.4095C15.3744 25.2564 17.0006 23.3421 18.9244 21.7557C18.9823 21.6995 19.0434 21.6467 19.1074 21.5975Z" fill="#2C3639"/>
<path d="M36.5731 36.6C38.2697 36.3748 39.9663 36.1618 41.6507 35.9183C42.6996 35.724 43.7634 35.6202 44.8302 35.6079C45.0499 35.6079 45.4405 35.4984 45.4405 35.8879C45.4405 36.1861 45.1109 36.1861 44.8912 36.2165C42.3037 36.5391 39.7466 37.0686 37.1468 37.2572C36.9802 37.2694 36.813 37.2694 36.6464 37.2572C36.3962 37.2572 36.0361 37.3181 36.0056 36.9773C35.9751 36.6365 36.3657 36.7034 36.5731 36.6Z" fill="#2C3639"/>
<path d="M16.3669 8.64714C16.6649 10.8295 16.4283 13.0513 15.6773 15.1226C15.5735 15.3904 15.4209 15.7677 15.0304 15.6399C14.6398 15.5121 14.7985 15.1348 14.8717 14.8487C15.3618 12.8544 15.644 10.8149 15.7139 8.76278C15.7139 8.56194 15.6773 8.28806 15.9824 8.27589C16.2875 8.26372 16.3242 8.47674 16.3669 8.64714Z" fill="#2C3639"/>
<path d="M8.41504 27.9458C8.46937 27.7512 8.54085 27.5618 8.62864 27.3798C9.79888 25.2929 11.2484 23.3745 12.9372 21.6773C13.1203 21.4947 13.34 21.2269 13.5963 21.4399C13.8526 21.6529 13.5963 21.9694 13.4559 22.1763C12.2354 23.8135 10.789 25.3167 9.6417 27.0451C9.4159 27.3798 9.17788 27.7024 8.92767 28.0188C8.7751 28.1892 8.59202 28.2866 8.41504 27.9458Z" fill="#2C3639"/>
<path d="M17.319 21.2927C17.5021 21.2379 17.6669 21.2136 17.8011 21.3597C17.8686 21.4289 17.9064 21.5217 17.9064 21.6183C17.9064 21.7149 17.8686 21.8077 17.8011 21.877C17.5538 22.1954 17.2846 22.4963 16.9956 22.7777C15.7546 23.9146 14.6171 25.159 13.5963 26.4962C13.4743 26.6605 13.3461 26.8979 13.0898 26.7762C12.8335 26.6544 12.9311 26.4414 13.0227 26.2832C14.0733 24.3948 15.4828 22.7286 17.1726 21.3779C17.2186 21.3449 17.2676 21.3164 17.319 21.2927V21.2927Z" fill="#2C3639"/>
<path d="M4.50317 35.7052C4.50317 35.5713 4.5642 35.3644 4.61302 35.1635C5.11345 33.1126 6.27908 31.372 7.26773 29.5523C7.36537 29.3636 7.51184 29.0593 7.79867 29.2297C8.0855 29.4001 7.8658 29.6253 7.79867 29.8079C6.97479 31.7615 5.99836 33.6542 5.25382 35.6443C5.18059 35.839 5.07684 36.0521 4.81442 36.0521C4.67406 36.0581 4.58861 35.9364 4.50317 35.7052Z" fill="#2C3639"/>
<path d="M47.2225 33.1793L42.029 33.5445L41.0404 33.5993C40.8451 33.5993 40.6193 33.5993 40.5766 33.3863C40.5338 33.1732 40.7719 33.0089 40.9733 32.9785C41.6934 32.8507 42.4196 32.7229 43.1458 32.662C44.5129 32.5525 45.8799 32.4855 47.2469 32.4186C47.4971 32.4186 47.8267 32.3882 47.8572 32.7533C47.8877 33.1185 47.5398 33.082 47.2225 33.1793Z" fill="#2C3639"/>
<path d="M20.145 24.1104C20.1527 23.9428 20.1992 23.7793 20.2807 23.6326C20.3622 23.4858 20.4766 23.3598 20.6149 23.2644C21.0439 22.8477 21.377 22.3432 21.5914 21.7856C22.209 20.584 22.9825 19.4688 23.8921 18.4687C24.0081 18.3226 24.1789 18.1462 24.3681 18.3044C24.5573 18.4626 24.4292 18.6635 24.3681 18.8278C24.1057 19.3025 23.8555 19.7894 23.5443 20.2397C23.0255 20.9944 22.4763 21.7551 22.0186 22.528C21.7001 23.1413 21.2884 23.7018 20.798 24.1895C20.5661 24.4025 20.3098 24.5181 20.145 24.1104Z" fill="#2C3639"/>
<path d="M4.79636 31.5597C5.02216 31.5293 5.1259 31.6388 5.11369 31.8397C5.09561 32.028 5.05673 32.2137 4.99774 32.3935C4.50112 34.0428 3.88935 35.6555 3.16691 37.2196C3.03875 37.4874 2.94721 37.9013 2.55663 37.7552C2.16605 37.6091 2.34914 37.2318 2.44679 36.9579C2.97665 35.3185 3.6064 33.7129 4.33254 32.1501C4.44239 31.9188 4.54004 31.6693 4.79636 31.5597Z" fill="#2C3639"/>
<path d="M26.9189 38.2487C26.9333 38.0293 27.0094 37.8183 27.1386 37.6401C27.993 36.2769 28.8413 34.9136 29.7079 33.5565C29.8361 33.3556 29.9581 33.0087 30.2816 33.1852C30.605 33.3617 30.4036 33.6173 30.3121 33.7938C29.7695 35.1282 29.097 36.4063 28.3043 37.6097C28.0942 37.9288 27.8173 38.1987 27.4926 38.4009C27.218 38.5652 27.0166 38.5287 26.9189 38.2487Z" fill="#2C3639"/>
<path d="M60.8135 4.02081C60.5661 4.9352 60.3886 5.867 60.2825 6.80818C60.1544 7.41677 59.2512 7.41676 58.7935 6.9664C58.6531 6.82643 58.5372 6.68036 58.6348 6.46735C58.6708 6.39131 58.7337 6.33123 58.8114 6.29865C58.8892 6.26607 58.9762 6.26331 59.0559 6.29087C59.6051 6.41259 59.5075 6.07177 59.3488 5.82833C58.9827 5.2806 59.0254 4.8911 59.6051 4.53812C59.9042 4.35554 59.8248 4.04516 59.6967 3.77737C59.5685 3.50959 59.3305 3.31483 59.6967 3.12008C60.0629 2.92533 60.307 3.1201 60.49 3.38179C60.6128 3.58695 60.7209 3.80048 60.8135 4.02081V4.02081Z" fill="#2C3639"/>
<path d="M15.6288 43.3978C14.798 43.673 13.9192 43.7746 13.0473 43.696C12.7483 43.696 12.3699 43.6534 12.3577 43.2457C12.3455 42.8379 12.7239 42.8623 12.968 42.8379C14.3167 42.7284 15.6349 42.4241 16.9592 42.1867C17.1728 42.1502 17.4963 42.0285 17.5695 42.3084C17.6427 42.5884 17.3498 42.7345 17.1301 42.8501C16.6564 43.0987 16.1515 43.2829 15.6288 43.3978V43.3978Z" fill="#2C3639"/>
<path d="M18.2223 8.53104C18.4583 10.1725 18.3376 11.8454 17.8683 13.4363C17.8012 13.6432 17.7401 13.8867 17.4716 13.8623C17.2031 13.838 17.1298 13.5459 17.1482 13.3207C17.2153 12.6147 17.3435 11.9148 17.4045 11.2089C17.4838 10.3568 17.5143 9.50479 17.5754 8.65884C17.5754 8.45801 17.5753 8.18413 17.85 8.15979C18.1246 8.13545 18.1856 8.39715 18.2223 8.53104Z" fill="#2C3639"/>
<path d="M36.3845 34.6765C35.5607 34.8956 34.7368 35.1208 33.9068 35.3338C33.6322 35.4007 33.2965 35.4798 33.1928 35.1147C33.089 34.7495 33.4064 34.6765 33.6627 34.5913C35.3613 34.0678 37.1004 33.6851 38.8623 33.4471C39.0331 33.4167 39.3078 33.3072 39.3688 33.5384C39.4298 33.7697 39.1552 33.9279 38.9294 33.9888C38.0872 34.2261 37.2328 34.4452 36.3845 34.6704V34.6765Z" fill="#2C3639"/>
<path d="M15.7447 45.4297C14.4821 45.6619 13.1846 45.6267 11.9366 45.3263C11.668 45.2471 11.2836 45.1863 11.3263 44.8516C11.369 44.5168 11.7901 44.5594 12.0769 44.5655C13.2609 44.5655 14.4448 44.6142 15.6287 44.6568C15.9095 44.6568 16.355 44.5351 16.3733 44.9611C16.3916 45.3871 15.9522 45.3445 15.7447 45.4297Z" fill="#2C3639"/>
<path d="M17.2642 14.776C17.191 14.5448 17.1361 14.3013 17.3558 14.1248C17.4523 14.062 17.5693 14.0383 17.6827 14.0587C17.7962 14.079 17.8976 14.1419 17.966 14.2344C18.2102 14.49 18.4298 14.4352 18.7228 14.3135C19.4002 14.0336 20.1081 13.7779 20.8282 14.1918C21.0907 14.3378 21.4385 14.5265 21.2798 14.8917C21.1212 15.2568 20.7794 15.1047 20.5109 14.989C20.2041 14.8757 19.8725 14.8464 19.5505 14.9042C19.2285 14.962 18.928 15.1048 18.6801 15.3177C17.9294 15.8472 17.5083 15.7011 17.2642 14.776Z" fill="#2C3639"/>
<path d="M9.50171 31.5851C9.52582 31.3705 9.5944 31.1632 9.70309 30.9765C10.3671 29.8088 11.1114 28.6883 11.9306 27.6231C12.0405 27.4588 12.1991 27.2275 12.4433 27.3797C12.6874 27.5318 12.5226 27.7266 12.4433 27.8909C11.7416 29.2255 10.9653 30.5198 10.1181 31.7677C10.0205 31.9076 9.90449 32.0415 9.7092 31.9928C9.51391 31.9441 9.53222 31.8224 9.50171 31.5851Z" fill="#2C3639"/>
<path d="M45.4287 22.2729C44.2432 22.3916 43.0903 22.7302 42.0295 23.271C41.8403 23.3562 41.6084 23.4779 41.4741 23.2101C41.3398 22.9423 41.5534 22.845 41.706 22.7476C42.9648 21.8959 44.4571 21.4537 45.978 21.4817C46.161 21.4817 46.399 21.4817 46.4357 21.7313C46.4723 21.9808 46.216 22.0477 46.0207 22.1086C45.8254 22.1694 45.7094 22.1999 45.4287 22.2729Z" fill="#2C3639"/>
<path d="M48.4858 28.231L47.2653 28.1641C46.3865 28.1276 45.5138 28.0971 44.635 28.0484C44.458 28.0484 44.2139 28.0484 44.1956 27.7807C44.1773 27.5129 44.3664 27.5007 44.5373 27.4885C45.8744 27.2877 47.2341 27.2877 48.5712 27.4885C48.8032 27.5433 49.0656 27.6102 49.0473 27.9206C49.0167 28.1215 48.8337 28.1641 48.4858 28.231Z" fill="#2C3639"/>
<path d="M42.896 23.7694C43.1706 23.7694 43.5429 23.7207 43.9213 23.7207C44.0799 23.7207 44.263 23.7633 44.2752 23.9824C44.2874 24.2015 44.1471 24.2197 44.0128 24.2684C42.7774 24.6631 41.5652 25.1263 40.3817 25.656C40.223 25.7351 39.9911 25.8204 39.8751 25.6073C39.7592 25.3943 39.9606 25.2057 40.1314 25.1022C41.0064 24.5678 41.9325 24.1213 42.896 23.7694Z" fill="#2C3639"/>
<path d="M42.4872 34.8831C43.5307 34.7675 44.6903 34.3841 45.9108 34.4693C46.1549 34.4693 46.5211 34.4206 46.5211 34.7614C46.5211 35.1022 46.1794 35.0779 45.9108 35.1083C44.6476 35.2605 43.3782 35.4187 42.1088 35.5465C41.8647 35.5465 41.4497 35.7351 41.407 35.3396C41.407 35.0413 41.8037 35.0961 42.0173 34.9987C42.1709 34.949 42.328 34.9104 42.4872 34.8831Z" fill="#2C3639"/>
<path d="M44.9342 28.7856C46.0317 28.6835 47.1336 28.6368 48.2358 28.6456C48.4921 28.6456 48.8095 28.6456 48.8034 29.029C48.7973 29.4124 48.4921 29.4368 48.2358 29.4368C47.119 29.4368 46.0083 29.4368 44.8976 29.4368C44.6962 29.4368 44.3911 29.4368 44.3728 29.1811C44.3545 28.9255 44.7023 28.8951 44.9342 28.7856Z" fill="#2C3639"/>
<path d="M63.6513 12.238C63.6176 12.1885 63.6045 12.1278 63.6147 12.0688C63.625 12.0097 63.6578 11.957 63.7063 11.9216C63.7534 11.8851 63.8114 11.8652 63.871 11.8652C63.9307 11.8652 63.9887 11.8851 64.0358 11.9216C64.8902 12.5606 65.83 13.0779 66.7393 13.6317C66.8141 13.6708 66.8723 13.7352 66.9036 13.8133C66.935 13.8914 66.9373 13.9781 66.9102 14.0577C66.8614 14.216 66.7149 14.2525 66.5685 14.2647C66.0131 14.3073 63.8283 12.7858 63.6513 12.238Z" fill="#2C3639"/>
<path d="M29.1583 37.6888C29.1523 37.6648 29.1523 37.6397 29.1583 37.6158C29.6233 36.6105 30.2409 35.6827 30.9891 34.8649C31.0101 34.8434 31.0353 34.8263 31.0631 34.8146C31.0908 34.8029 31.1207 34.7969 31.1508 34.7969C31.181 34.7969 31.2108 34.8029 31.2386 34.8146C31.2664 34.8263 31.2915 34.8434 31.3125 34.8649C31.3494 34.9081 31.3761 34.9589 31.3909 35.0136C31.4057 35.0683 31.4081 35.1256 31.398 35.1814C31.0778 36.1974 30.4997 37.1135 29.7197 37.8409C29.4756 38.0235 29.201 37.9261 29.1583 37.6888Z" fill="#2C3639"/>
<path d="M68.6437 6.63806C68.5827 6.33984 68.778 6.24856 68.9611 6.27899C69.9288 6.35948 70.8437 6.75265 71.567 7.3988C71.6539 7.4633 71.7126 7.55876 71.7308 7.66532C71.749 7.77187 71.7253 7.88132 71.6646 7.97088C71.6396 8.00462 71.6078 8.03286 71.5713 8.05377C71.5348 8.07468 71.4944 8.08783 71.4525 8.0924C71.4107 8.09697 71.3683 8.09286 71.3282 8.08033C71.288 8.06779 71.2509 8.04712 71.2191 8.01958C70.4493 7.5658 69.6524 7.15931 68.8329 6.80239C68.7607 6.75907 68.6967 6.70345 68.6437 6.63806V6.63806Z" fill="#2C3639"/>
<path d="M74.3192 6.84634C73.389 6.51455 72.4937 6.0926 71.6462 5.58654C71.5302 5.33702 71.6828 5.24573 71.8964 5.20312C72.81 5.28872 73.6771 5.64477 74.3863 6.22556C74.545 6.46291 74.6182 6.69419 74.3192 6.84634Z" fill="#2C3639"/>
<path d="M45.3922 23.6673C46.0513 23.6186 46.8081 23.5639 47.5587 23.5273C47.7967 23.5273 48.0775 23.5578 48.0958 23.856C48.1141 24.1542 47.8639 24.2516 47.6137 24.2577H45.3434C45.1664 24.2577 44.9223 24.2577 44.904 24.0021C44.8857 23.7465 45.1359 23.7586 45.3922 23.6673Z" fill="#2C3639"/>
<path d="M29.2074 31.1887C29.2577 31.1793 29.3096 31.183 29.358 31.1993C29.4065 31.2156 29.45 31.2441 29.4842 31.2819C29.5185 31.3198 29.5425 31.3658 29.5539 31.4155C29.5652 31.4652 29.5636 31.517 29.5492 31.566C29.4409 32.4145 29.1081 33.219 28.585 33.8969C28.5499 33.9605 28.492 34.0084 28.4229 34.031C28.3538 34.0536 28.2787 34.0492 28.2127 34.0186C28.1493 33.9848 28.1005 33.9289 28.0758 33.8615C28.051 33.7942 28.052 33.7201 28.0784 33.6535C28.3271 32.864 28.6457 32.0982 29.0305 31.3651C29.0766 31.2947 29.1369 31.2347 29.2074 31.1887Z" fill="#2C3639"/>
<path d="M15.2013 40.5247C15.5491 40.4395 15.8848 40.3361 16.2326 40.2569C16.3974 40.2204 16.5744 40.2569 16.6415 40.4334C16.6635 40.5016 16.6603 40.5754 16.6322 40.6413C16.6042 40.7072 16.5534 40.7609 16.4889 40.7925C15.8467 41.2412 15.0757 41.4697 14.2919 41.4437C14.244 41.447 14.1958 41.4405 14.1504 41.4247C14.105 41.4088 14.0633 41.3839 14.0279 41.3514C13.9925 41.3189 13.9641 41.2796 13.9445 41.2358C13.9248 41.1921 13.9143 41.1448 13.9136 41.0968C13.9136 40.896 14.0783 40.8229 14.2431 40.7742C14.5605 40.683 14.8839 40.6038 15.2013 40.5186V40.5247Z" fill="#2C3639"/>
<path d="M75.1858 12.816C75.0577 11.897 74.9417 9.35916 74.7647 9.36525C74.5877 9.37133 74.3803 11.6779 74.1178 13.382C73.8249 15.2869 73.7028 16.7171 70.8467 16.7779C70.4012 16.7779 70.6271 17.1857 70.804 17.1857C74.2765 17.2648 73.9348 18.6889 74.1972 20.4843C74.3819 21.7694 74.498 23.0635 74.545 24.361C74.6883 24.4044 74.8412 24.4044 74.9844 24.361C74.9844 24.361 75.259 20.1617 75.5032 18.7254C75.7045 17.5569 77.1448 17.3317 78.3104 17.1127C78.3715 17.1127 78.4447 16.7718 78.2128 16.7475C75.8144 16.4736 75.6313 15.9624 75.1858 12.816Z" fill="#2C3639"/>
<path d="M56.2913 18.2496C56.157 17.3306 56.0411 14.7928 55.8702 14.7988C55.6993 14.8049 55.4857 17.1115 55.2233 18.8156C54.9304 20.7205 54.8022 22.1507 51.9461 22.2115C51.5006 22.2115 51.7264 22.6193 51.9034 22.6193C55.3759 22.6984 55.0341 24.1225 55.2965 25.9179C55.4802 27.2033 55.5984 28.4972 55.6505 29.7946C55.7917 29.8378 55.9426 29.8378 56.0838 29.7946C56.0838 29.7946 56.3645 25.5953 56.6025 24.159C56.8039 22.9844 58.2442 22.7653 59.4159 22.5462C59.4769 22.5462 59.5441 22.2054 59.3122 22.1811C56.9199 21.9072 56.7307 21.396 56.2913 18.2496Z" fill="#2C3639"/>
<path d="M82.8937 9.81448C82.8591 9.10936 82.7734 8.40767 82.6374 7.71484C82.5032 7.71484 82.4055 9.12678 82.2468 10.1492C82.0638 11.3116 81.9905 12.1819 80.2451 12.2245C79.9766 12.2245 80.1109 12.468 80.2451 12.4741C82.3628 12.5167 82.1553 13.3869 82.314 14.4824C82.4251 15.2654 82.4963 16.0536 82.5276 16.8438C82.6151 16.8705 82.7086 16.8705 82.7961 16.8438C82.7961 16.8438 82.967 14.2877 83.1134 13.4113C83.2355 12.6931 84.1143 12.5592 84.8222 12.4254C84.8649 12.4254 84.9016 12.2184 84.7612 12.2063C83.2782 12.048 83.1684 11.7376 82.8937 9.81448Z" fill="#2C3639"/>
<path d="M46.4843 41.7718C46.3866 41.1023 46.3012 39.2461 46.173 39.2461C46.0449 39.2461 45.8923 40.9441 45.7031 42.1917C45.4895 43.5854 45.398 44.6261 43.3047 44.6808C42.9752 44.6808 43.1461 44.973 43.2742 44.979C45.8191 45.0338 45.5628 46.0745 45.7581 47.4134C45.8922 48.3558 45.9777 49.3044 46.0144 50.2556C46.1202 50.2846 46.232 50.2846 46.3378 50.2556C46.3378 50.2556 46.5392 47.1822 46.7162 46.1293C46.8627 45.2712 47.9367 45.1069 48.7728 44.9486C48.8155 44.9486 48.8705 44.6991 48.6996 44.6808C46.942 44.4496 46.8077 44.0783 46.4843 41.7718Z" fill="#2C3639"/>
<path d="M27.645 48.2112C27.5474 47.5418 27.462 45.6795 27.3338 45.6856C27.2056 45.6916 27.0531 47.3775 26.8639 48.6251C26.6503 50.0188 26.5587 51.0595 24.4655 51.1142C24.1359 51.1142 24.3068 51.4124 24.4655 51.4124C27.0103 51.4672 26.754 52.5079 26.9493 53.8468C27.0832 54.7872 27.1687 55.7338 27.2056 56.6829C27.3109 56.716 27.4238 56.716 27.5291 56.6829C27.5291 56.6829 27.7305 53.6095 27.9075 52.5566C28.0539 51.6985 29.128 51.5342 29.9641 51.3759C30.0068 51.3759 30.0617 51.1264 29.8909 51.1081C28.1027 50.889 27.9685 50.5117 27.645 48.2112Z" fill="#2C3639"/>
<path d="M18.6254 53.6706C18.5913 53.0127 18.5117 52.3579 18.3874 51.7109C18.2592 51.7109 18.1677 53.0255 18.0151 53.9932C17.8504 55.0765 17.7771 55.892 16.1538 55.9285C15.9036 55.9285 16.0317 56.1598 16.1538 56.1598C18.1311 56.2024 17.9358 57.0118 18.0823 58.0342C18.1895 58.7664 18.2567 59.5039 18.2836 60.2434C18.3654 60.2666 18.4521 60.2666 18.5339 60.2434C18.5339 60.2434 18.6925 57.8517 18.8268 57.0361C18.9427 56.3667 19.7605 56.2389 20.4257 56.1172C20.4623 56.1172 20.499 55.9285 20.3708 55.9102C18.9855 55.752 18.8756 55.4599 18.6254 53.6706Z" fill="#2C3639"/>
</svg>
